<svg width="26" height="26" viewBox="0 0 26 26" fill="none" xmlns="http://www.w3.org/2000/svg">
<g clip-path="url(#clip0_1_436)">
<path d="M13.844 6.33701H19.044L14.544 17.637C14.544 17.737 14.444 17.837 14.444 17.837C14.444 20.937 16.944 23.437 20.044 23.437C23.144 23.437 25.644 20.937 25.644 17.837C25.644 17.737 25.644 17.637 25.544 17.637L21.044 6.43701H23.144C23.544 6.43701 23.844 6.13701 23.844 5.73701C23.844 5.33701 23.544 5.03701 23.144 5.03701H13.844V3.13701C13.844 2.73701 13.544 2.43701 13.144 2.43701C12.744 2.43701 12.444 2.73701 12.444 3.13701V5.03701H3.24402C2.84402 5.03701 2.54402 5.33701 2.54402 5.73701C2.54402 6.13701 2.84402 6.43701 3.24402 6.43701H5.44402L0.844019 17.637C0.844019 17.737 0.744019 17.837 0.744019 17.837C0.744019 20.937 3.24402 23.437 6.34402 23.437C9.44402 23.437 11.944 20.937 11.944 17.837C11.944 17.737 11.944 17.637 11.844 17.637L7.44402 6.33701H12.544H13.844ZM6.44402 22.137C4.34402 22.137 2.64402 20.637 2.24402 18.537H10.544C10.244 20.637 8.44402 22.137 6.44402 22.137ZM10.344 17.237H2.54402L6.44402 7.53701L10.344 17.237ZM20.044 7.53701L23.944 17.237H16.144L20.044 7.53701ZM20.044 22.137C17.944 22.137 16.244 20.637 15.844 18.537H24.144C23.944 20.637 22.144 22.137 20.044 22.137Z" fill="black"/>
</g>
<defs>
<clipPath id="clip0_1_436">
<rect width="25" height="25" fill="white" transform="translate(0.744019 0.537109)"/>
</clipPath>
</defs>
</svg>
