<svg width="26" height="26" viewBox="0 0 26 26" fill="none" xmlns="http://www.w3.org/2000/svg">
<g clip-path="url(#clip0_1_429)">
<path d="M23.544 5.33716C22.344 4.03716 20.744 3.33716 18.944 3.33716C16.444 3.33716 14.844 4.73716 13.944 5.93716C13.744 6.23716 13.544 6.53716 13.344 6.83716C13.144 6.53716 12.944 6.23716 12.744 5.93716C11.844 4.73716 10.244 3.33716 7.74399 3.33716C5.94399 3.33716 4.34399 4.03716 3.14399 5.33716C1.94399 6.53716 1.34399 8.13716 1.34399 9.93716C1.34399 11.8372 2.14399 13.6372 3.84399 15.4372C5.34399 17.1372 7.54399 18.8372 9.94399 20.8372C10.844 21.5372 11.844 22.3372 12.844 23.2372C12.944 23.3372 13.144 23.4372 13.344 23.4372C13.544 23.4372 13.644 23.3372 13.844 23.2372C14.844 22.4372 15.844 21.6372 16.744 20.8372C19.244 18.8372 21.344 17.0372 22.844 15.4372C24.544 13.5372 25.344 11.7372 25.344 9.93716C25.244 8.13716 24.644 6.53716 23.544 5.33716ZM15.744 19.8372C14.944 20.4372 14.144 21.1372 13.244 21.8372C12.344 21.1372 11.544 20.4372 10.744 19.8372C5.94399 15.9372 2.74399 13.3372 2.74399 9.93716C2.74399 8.53716 3.24399 7.23716 4.14399 6.23716C5.04399 5.23716 6.34399 4.73716 7.74399 4.73716C9.64399 4.73716 10.944 5.83716 11.644 6.83716C12.244 7.63716 12.644 8.53716 12.744 8.83716C12.844 9.13716 13.144 9.33716 13.444 9.33716C13.744 9.33716 14.044 9.13716 14.144 8.83716C14.244 8.53716 14.544 7.63716 15.244 6.83716C15.944 5.93716 17.144 4.73716 19.144 4.73716C20.544 4.73716 21.844 5.23716 22.744 6.23716C23.644 7.23716 24.144 8.53716 24.144 9.93716C23.844 13.3372 20.644 15.9372 15.744 19.8372Z" fill="#020203"/>
</g>
<defs>
<clipPath id="clip0_1_429">
<rect width="25" height="25" fill="white" transform="translate(0.744019 0.537109)"/>
</clipPath>
</defs>
</svg>
