<svg width="8" height="14" viewBox="0 0 8 14" fill="none" xmlns="http://www.w3.org/2000/svg">
<path d="M0.990443 6.98085C0.990295 6.8787 1.01035 6.77752 1.04946 6.68315C1.08858 6.58877 1.14597 6.50307 1.21833 6.43096L6.66278 0.98652C6.80947 0.844841 7.00593 0.766446 7.20987 0.768218C7.4138 0.76999 7.60887 0.851788 7.75308 0.995994C7.89729 1.1402 7.97908 1.33528 7.98086 1.53921C7.98263 1.74314 7.90423 1.93961 7.76255 2.0863L2.86839 6.98085L7.76255 11.8754C7.83684 11.9472 7.89609 12.033 7.93685 12.1279C7.97762 12.2228 7.99907 12.3248 7.99997 12.4281C8.00087 12.5314 7.98119 12.6338 7.94208 12.7294C7.90297 12.825 7.84522 12.9118 7.77219 12.9848C7.69917 13.0579 7.61233 13.1156 7.51674 13.1547C7.42115 13.1938 7.31874 13.2135 7.21546 13.2126C7.11219 13.2117 7.01013 13.1903 6.91524 13.1495C6.82035 13.1087 6.73452 13.0495 6.66278 12.9752L1.21833 7.53074C1.14597 7.45864 1.08858 7.37293 1.04946 7.27856C1.01035 7.18419 0.990295 7.08301 0.990443 6.98085Z" fill="black"/>
</svg>
