<svg width="46" height="32" viewBox="0 0 46 32" fill="none" xmlns="http://www.w3.org/2000/svg">
<g opacity="0.8" clip-path="url(#clip0_1_737)">
<path d="M31.2678 0.802734C28.3862 0.805329 25.5788 1.71616 23.2446 3.40577C20.9091 1.71855 18.1025 0.807975 15.2213 0.802734C7.24161 0.802734 0.747414 7.7475 0.747414 16.2715C0.747414 24.7955 7.24161 31.7402 15.2213 31.7402C18.1025 31.7385 20.9099 30.8289 23.2446 29.1405C25.5799 30.8281 28.3865 31.7391 31.2678 31.7447C39.2475 31.7447 45.7417 24.7988 45.7417 16.2759C45.7417 7.75308 39.2475 0.802734 31.2678 0.802734ZM31.2678 28.9298C26.9618 28.9298 23.1832 26.4583 21.1088 22.7646H22.6289C23.3583 22.7646 23.9472 22.1356 23.9472 21.3549C23.9472 20.5742 23.3583 19.9452 22.6289 19.9452H19.94C19.7746 19.3656 19.649 18.7753 19.5642 18.1786H24.739C25.4684 18.1786 26.0562 17.5496 26.0562 16.7689C26.0562 15.9882 25.4684 15.3592 24.739 15.3592H19.4661C19.5083 14.766 19.5876 14.1759 19.7036 13.5926H22.6289C23.3583 13.5926 23.9472 12.9636 23.9472 12.1829C23.9472 11.4022 23.3583 10.7732 22.6289 10.7732H20.6081C22.5241 6.54413 26.5837 3.62213 31.2589 3.62213C37.7966 3.62213 43.1052 9.29772 43.1052 16.2715C43.1052 23.2452 37.7966 28.9298 31.2678 28.9298Z" fill="#111111"/>
</g>
<defs>
<clipPath id="clip0_1_737">
<rect width="44.9932" height="30.9375" fill="white" transform="translate(0.747415 0.802734)"/>
</clipPath>
</defs>
</svg>
