<svg width="46" height="15" viewBox="0 0 46 15" fill="none" xmlns="http://www.w3.org/2000/svg">
<g opacity="0.8" clip-path="url(#clip0_1_731)">
<path d="M18.5298 0.65625L16.2459 14.0696H19.9001L22.1839 0.65625H18.5298Z" fill="#111111"/>
<path d="M13.1802 0.673828L9.59632 9.81808L9.2186 8.43898C8.51587 6.77878 6.50431 4.38072 4.15017 2.87864L7.42664 14.0608L11.2916 14.052L17.054 0.673828H13.1802Z" fill="#111111"/>
<path d="M7.83071 1.63122C7.61989 0.814299 7.005 0.568345 6.24079 0.541992H0.566256L0.522335 0.805515C4.93196 1.87718 7.84828 4.45092 9.06048 7.55171L7.83071 1.63122Z" fill="#111111"/>
<path d="M29.5977 3.22963C30.5336 3.21144 31.4632 3.38481 32.3296 3.73911L32.6634 3.89722L33.1553 0.989682C32.1051 0.609679 30.9957 0.419325 29.8788 0.427499C26.2685 0.427499 23.7212 2.24581 23.7036 4.85469C23.6772 6.77841 25.5131 7.85885 26.901 8.50009C28.324 9.1589 28.8072 9.58054 28.7984 10.1603C28.7896 11.0563 27.6652 11.4691 26.6111 11.4691C25.1442 11.4691 24.3712 11.2671 23.1678 10.7664L22.6934 10.5556L22.1752 13.5597C23.0272 13.9375 24.6084 14.2537 26.251 14.2712C30.0896 14.2712 32.5931 12.4705 32.6195 9.68595C32.637 8.15751 31.662 6.99801 29.545 6.04054C28.2625 5.41687 27.4808 5.00402 27.4895 4.38035C27.4983 3.82695 28.1659 3.22963 29.5977 3.22963Z" fill="#111111"/>
<path d="M42.5367 0.673828H39.7082C38.8298 0.673828 38.1798 0.910999 37.7933 1.78941L32.3647 14.0784H36.2034C36.2034 14.0784 36.827 12.427 36.9676 12.0668C37.3892 12.0668 41.1137 12.0756 41.6495 12.0756C41.7549 12.5412 42.0975 14.0872 42.0975 14.0872H45.497L42.5367 0.673828ZM38.0305 9.31739C38.3291 8.54439 39.4886 5.56657 39.4886 5.56657C39.4711 5.60171 39.7873 4.79357 39.9718 4.2841L40.2177 5.4436C40.2177 5.4436 40.9204 8.6498 41.061 9.31739H38.0305Z" fill="#111111"/>
</g>
<defs>
<clipPath id="clip0_1_731">
<rect width="44.9746" height="13.8438" fill="white" transform="translate(0.522335 0.427734)"/>
</clipPath>
</defs>
</svg>
