<svg width="793" height="420" fill="none" xmlns="http://www.w3.org/2000/svg"><g clip-path="url(#a)"><rect width="793" height="420" rx="24" fill="#fff"/><rect width="793" height="420" rx="24" fill="#fff"/><mask id="a" style="mask-type:alpha" maskUnits="userSpaceOnUse" x="204" y="33" width="166" height="121"><rect x="204.38" y="33" width="165.54" height="120.77" rx="26" fill="#C4C4C4"/></mask><g mask="url(#a)"><path fill-rule="evenodd" clip-rule="evenodd" d="M368.9 60.3a26.57 26.57 0 00-26.56-26.57H231.46A26.56 26.56 0 00204.9 60.3v65.87a26.56 26.56 0 0026.56 26.56h110.88a26.57 26.57 0 0026.57-26.56V60.3z" fill="#fff"/><path fill-rule="evenodd" clip-rule="evenodd" d="M229.46 113.98h17.78l.07 14.4a3.06 3.06 0 002.65 3.03l.67.09c1.5.2 2.62 1.47 2.63 2.98l.02 2.28-14.78-.19-14.78.2.02-2.29a3.03 3.03 0 012.63-2.98l.67-.1a3.06 3.06 0 002.65-3.01l-.23-14.41z" fill="#fff" stroke="#000" stroke-width="1.5" stroke-miterlimit="1.5" stroke-linecap="round" stroke-linejoin="round"/><path d="M228.94 133.22h19.1" stroke="#000" stroke-width="1.5" stroke-miterlimit="2.49" stroke-linecap="round" stroke-linejoin="round"/><path fill-rule="evenodd" clip-rule="evenodd" d="M278.58 55.37c0-3-2.43-5.43-5.42-5.43H203.3c-3 0-5.42 2.43-5.42 5.43v53.18c0 3 2.43 5.43 5.42 5.43h69.85c3 0 5.42-2.43 5.42-5.43V55.37z" fill="#6F4AB3" stroke="#000" stroke-width="1.5" stroke-miterlimit="1.5" stroke-linecap="round" stroke-linejoin="round"/><path fill-rule="evenodd" clip-rule="evenodd" d="M278.11 104.36c0-.52-2.42-.94-5.4-.94h-69.53c-2.98 0-5.4.42-5.4.94v9.14c0 .51 2.42.93 5.4.93h69.53c2.98 0 5.4-.42 5.4-.93v-9.14z" fill="#fff" stroke="#000" stroke-width="1.5" stroke-miterlimit="1.5" stroke-linecap="round" stroke-linejoin="round"/><path d="M238.2 110.52a1.84 1.84 0 100-3.69 1.84 1.84 0 000 3.7z" fill="#fff" stroke="#000" stroke-width="1.5" stroke-miterlimit="1.5" stroke-linecap="round" stroke-linejoin="round"/><path d="M279.25 136.24H201.6v16.55h77.65v-16.55z" fill="#fff" stroke="#000" stroke-width="1.5" stroke-miterlimit="2.49" stroke-linecap="round" stroke-linejoin="round"/><path fill-rule="evenodd" clip-rule="evenodd" d="M345.7 106.13c-1.25-3.53.68-3.92-1.02-7.17-1.33-2.54-5.36-2.1-6.65-4.25-2.61-4.3-.3-5.18-3.09-9.35-2.4-3.59-4.35-2.97-7.62-5.3-2.79-2-1.37-5.24-4.91-7.42-2.16-1.33-5.3.16-7.52-1.06-2.62-1.44-4.13-4.45-6.75-5.89-3.56-1.95-7.07.22-10.7-.19-2.06-.23-4.07-1.04-6.14-.99-2.05.05-4.2.33-6 1.28-3.3 1.73-1.56 3.36-4.54 5.6-.64.47-1.58.26-2.31.57-1.96.82-4.33 2.28-5.6 4.05-2.98 4.18-2.39 10.09-3.47 14.75-.7 3.07-3.53 7.03-2.6 10.5.51 1.92 3.48 8.04 3.86 10.03.9 4.78-3.8 8.15-3.18 13.02.48 3.8 3.9 5.97 3.37 10.03-.14 1.08-2.67 4.67-2.99 5.5-.85 2.22-1.52 6.22-.98 8.58.36 1.54 1.23 2.92 1.99 4.3.56 1.03.8 2.75 1.94 2.9 5.13.64 10.37-.04 15.5-.7l48-27.04 11.4-21.75z" fill="#fff"/><path fill-rule="evenodd" clip-rule="evenodd" d="M346.42 106.51c.1-.2.12-.44.04-.66-.56-1.58-.4-2.46-.29-3.31.13-1.08.2-2.11-.76-3.97-.77-1.45-2.26-2.12-3.8-2.66-.63-.23-1.26-.44-1.8-.72-.45-.23-.84-.5-1.08-.9-1.2-2-1.27-3.19-1.36-4.37a8.96 8.96 0 00-1.75-5.02 8.9 8.9 0 00-3.8-3.4c-1.16-.57-2.43-.98-4.02-2.11-1.23-.88-1.49-2.05-1.87-3.23-.5-1.5-1.1-3-3.1-4.23-1.2-.74-2.7-.75-4.2-.69-1.17.05-2.37.15-3.35-.39a12.82 12.82 0 01-3.16-2.78 14.9 14.9 0 00-3.59-3.1c-1.95-1.07-3.88-1.04-5.83-.77-1.7.24-3.42.68-5.17.48-2.1-.24-4.14-1.04-6.25-1-2.17.06-4.45.37-6.38 1.38a4.99 4.99 0 00-2.76 3.04c-.3.79-.57 1.64-1.88 2.62-.26.2-.62.19-.96.22-.4.05-.8.1-1.17.26-2.1.87-4.6 2.44-5.95 4.33-1.57 2.2-2.22 4.84-2.6 7.56-.35 2.56-.47 5.18-1 7.48-.35 1.51-1.22 3.23-1.89 5-.74 1.98-1.22 4.01-.7 5.91.5 1.9 3.46 7.99 3.83 9.97.42 2.2-.5 4.07-1.41 5.96-1.06 2.19-2.1 4.4-1.78 7 .26 2.02 1.27 3.61 2.17 5.22.76 1.38 1.45 2.77 1.2 4.6a7.36 7.36 0 01-.9 1.86c-.82 1.39-1.84 2.94-2.03 3.45-.9 2.35-1.59 6.57-1.01 9.07.37 1.61 1.27 3.06 2.06 4.51.34.62.56 1.5.94 2.13.39.65.9 1.1 1.63 1.18 5.2.66 10.5-.02 15.7-.7.1 0 .2-.04.3-.1l48-27.03a.9.9 0 00.33-.34l11.4-21.75zm-1.63-.45l-11.12 21.22-47.66 26.84c-5 .65-10.11 1.3-15.12.68-.12-.02-.2-.1-.28-.2-.1-.13-.19-.28-.27-.45-.28-.6-.49-1.3-.77-1.82-.72-1.32-1.57-2.62-1.9-4.1-.52-2.22.13-6 .94-8.1.21-.56 1.5-2.44 2.3-3.89.4-.75.69-1.41.73-1.8.3-2.22-.47-3.94-1.4-5.6-.8-1.44-1.74-2.84-1.97-4.63-.29-2.27.7-4.18 1.63-6.09 1.06-2.2 2.03-4.4 1.54-6.98-.38-2-3.35-8.16-3.87-10.08-.42-1.58.05-3.27.67-4.9.69-1.85 1.58-3.65 1.94-5.21.55-2.36.68-5.02 1.04-7.63.34-2.45.89-4.85 2.3-6.83 1.19-1.66 3.41-3 5.24-3.77.38-.16.83-.14 1.24-.2.46-.07.89-.2 1.25-.48a6.1 6.1 0 002.2-2.78c.4-.97.52-1.85 2.22-2.74 1.7-.9 3.72-1.14 5.65-1.18 2.03-.05 4 .75 6.02.98 1.89.21 3.75-.23 5.59-.48 1.6-.23 3.2-.3 4.81.58 1.23.67 2.2 1.73 3.17 2.77a15 15 0 003.58 3.1c1.23.69 2.72.66 4.21.6 1.17-.05 2.33-.13 3.27.45 1.91 1.18 2.17 2.72 2.65 4.14a6 6 0 002.22 3.25c1.37.97 2.5 1.45 3.55 1.92a7.76 7.76 0 013.86 3.17 7.55 7.55 0 011.47 4.23c.1 1.37.2 2.77 1.6 5.09.74 1.22 2.22 1.78 3.74 2.32 1.14.4 2.32.8 2.88 1.88.9 1.72.63 2.54.52 3.59a7.3 7.3 0 00.33 3.13z" fill="#000"/><path fill-rule="evenodd" clip-rule="evenodd" d="M322.7 91.6l-.22-.12a2.93 2.93 0 00-.42-.23 1.24 1.24 0 00-1.06 0c-.15.06-.55.36-.5 1.04.11 1.19 1.74 6.73 1.88 8.48.46 5.74.45 11.4-2.6 16.37-1.43 2.32-3.73 3.3-6.29 3.57-4.1.42-8.86-.98-12.19-2.16-2-.71-4.02-1.4-5.88-2.42-2.16-1.2-4.06-2.8-6.1-4.21a.82.82 0 00-.93 1.35c2.07 1.44 4.02 3.08 6.24 4.3 1.93 1.08 4.04 1.8 6.12 2.53 3.52 1.25 8.57 2.7 12.91 2.25 3.07-.32 5.8-1.56 7.52-4.35 3.24-5.27 3.33-11.27 2.84-17.36-.11-1.42-1.2-5.35-1.67-7.42.14.04.27.05.41.04a3.28 3.28 0 002.7-1.92c.7-1.32.83-3.14.79-4.28a12.46 12.46 0 00-2.34-6.4c-1.1-1.37-2.7-1.57-4.14-1.04a4.97 4.97 0 00-2.95 2.96 4.83 4.83 0 00-.17 2.2c.07.55.2 1.1.2 1.74a.83.83 0 001.64 0c0-.6-.09-1.11-.16-1.62a3.67 3.67 0 01.06-1.82 3.26 3.26 0 011.95-1.91c.8-.29 1.68-.23 2.28.52a10.56 10.56 0 011.98 5.43 8.4 8.4 0 01-.37 2.94c-.27.76-.7 1.44-1.54 1.54z" fill="#000"/><path fill-rule="evenodd" clip-rule="evenodd" d="M283.28 78.29c-.07.18-.21.6-.25.76-.1.44-.18.89-.21 1.33-.1 1.53-.46 3.1-.18 4.6.5 2.68 1.57 4.7 2.45 6.78.8 1.9 1.44 3.85 1.15 6.48-.15 1.43-.56 2.6-.9 3.78a11.65 11.65 0 00-.49 4.38c.16 1.84.9 3.35 1.78 4.8.8 1.33 1.72 2.59 2.35 4.05 1.99 4.6 2.98 10.47 2.05 15.29a.82.82 0 101.62.31c1-5.12-.04-11.37-2.16-16.25-.66-1.54-1.62-2.87-2.45-4.25a9.4 9.4 0 01-1.55-4.1c-.13-1.47.13-2.64.44-3.78.36-1.28.79-2.53.95-4.05.32-2.97-.37-5.16-1.27-7.3-.84-1.97-1.88-3.9-2.35-6.44-.25-1.37.1-2.8.2-4.18a8 8 0 01.18-1.09c.04-.17.2-.6.22-.66.19-.51-.14-.82-.15-.83 0 0-1.04-.64-1.4.29a.62.62 0 00-.03.08zM304.84 103l-.45.18a3.28 3.28 0 01-1.09.3v-.29c0-.47.06-1 .06-1.37 0-1.17-.2-2.44-.55-3.5a7.21 7.21 0 00-1.43-2.63.82.82 0 00-.35-.31.77.77 0 00-.73.01.8.8 0 00-.4.49c-.03.06-.13.35.1.7.04.08.4.52.51.67.38.57.53.98.74 1.59.3.9.46 1.98.46 2.98 0 .44-.08 1.12-.05 1.65.02.36.1.66.2.88.22.45.63.7 1.15.77.7.1 1.68-.24 2.12-.46.16-.08.62-.24.8-.4a.92.92 0 00.36-.72.82.82 0 00-1.45-.54zm-4.46-6.11c.25.1.44.06.57.01a.82.82 0 01-.57-.01zm1.13-.73c0 .38-.22.59-.46.7a.82.82 0 00.45-.7zm3.39 14.2a.8.8 0 00-.42-.01.77.77 0 00-.52.37c-.1.14-.13.3-.13.45 0 .07.08.71.8.82.4.06 2.06.16 3.8-.28a6.91 6.91 0 003.38-1.83c3.06-3.21 3.26-5.15 3.26-7.72a.82.82 0 10-1.65 0c0 2.2-.19 3.84-2.8 6.59a5.26 5.26 0 01-2.58 1.36c-1.33.33-2.9.26-3.15.25zm.4 1.32zm0 0z" fill="#000"/><path fill-rule="evenodd" clip-rule="evenodd" d="M289.56 98.28c.05-.3.24-1.25.58-1.87.51-.94 1.45-1.51 1.58-1.64a.82.82 0 10-1.17-1.16c-.15.15-1.24.87-1.86 2a7.36 7.36 0 00-.79 2.6c-.03.32.04.53.08.61.17.4.48.5.74.5a.8.8 0 00.67-.31.82.82 0 00.17-.73zm-.82-.62c-.19-.01-.41.05-.62.3.16-.2.39-.3.62-.3zm-5.22-18.92c.22.88 1.02 1.57 2.05 2.02 1.25.53 2.83.75 3.53.83 2.1.24 4.3.12 6.3-.56 1.08-.36 2.3-1.08 3.56-1.62 1.06-.46 2.16-.8 3.23-.5a6.66 6.66 0 013.77 2.6c.68.84 1.34 1.77 2.34 2.76 2.51 2.48 5.47 3.44 8.9 3.44a.83.83 0 000-1.64c-2.98 0-5.56-.82-7.75-2.98-.94-.93-1.56-1.82-2.2-2.62a8.13 8.13 0 00-4.61-3.15c-1.44-.4-2.92-.04-4.33.57-1.22.53-2.4 1.23-3.43 1.58a13 13 0 01-5.6.48 11.7 11.7 0 01-3.05-.7c-.52-.23-1-.48-1.1-.91a.83.83 0 00-1.6.4zm27.36 44.32c.47.7.9 1.49 1.42 2.18.3.38.47 1.17.58 1.63.02.09.09.44.15.63.06.17.13.28.19.35.2.26.46.32.66.32a.82.82 0 00.7-1.26l-.1-.44a7.26 7.26 0 00-.86-2.22c-.5-.67-.92-1.45-1.38-2.13a7.17 7.17 0 00-.32-.38.82.82 0 00-1.54-.15c-.1.2-.14.49 0 .8.08.19.44.6.5.67zm3.1 3.47zm-.05 0h.02-.02zm9.19-19.75c.17.22.6.83.7.92.68.68 1.29 1.45 1.96 2.12.8.8 1.76 1.69 2.7 2.31.8.53 1.84 1.03 2.48 1.67a.82.82 0 101.16-1.17c-.7-.7-1.85-1.28-2.73-1.87a17.29 17.29 0 01-2.44-2.1c-.67-.67-1.28-1.43-1.95-2.1-.04-.06-.49-.72-.7-.96-.19-.2-.38-.31-.5-.35-.43-.15-.75-.02-.98.3a.82.82 0 00.3 1.23zm.76-.02zm-48.19 18.34c0 .04.12.56.14.9v.48a.83.83 0 001.27 1.03c.2-.19.37-.59.39-1.1a6.4 6.4 0 00-.3-1.97c-.43-.97-1.2-2.1-1.84-3.27-.55-1.01-1.02-2.05-.9-3.07.18-1.85.82-3.6 1.92-5.1.56-.77 1.7-1.62 2.5-2.6a4.16 4.16 0 001.07-2.75c-.08-2.39-1.04-4.42-.82-6.8.01-.09.35-1.5.43-1.8a.83.83 0 00-.4-1.56c-.34 0-.72.2-1 .64-.42.7-.66 2.43-.67 2.56-.22 2.47.72 4.56.82 7.02.03.79-.52 1.46-1.1 2.09-.78.82-1.68 1.56-2.16 2.23a12.04 12.04 0 00-2.24 5.9c-.11 1.08.2 2.2.72 3.28.66 1.4 1.65 2.75 2.17 3.89zm3.53-25.96h-.03.03zm3.38 19.14a.82.82 0 00-1.33-.97c-.34.41-.41.92-.25 1.48.2.74.96 1.6 1.27 1.98.59.7 1.2 1.38 1.71 2.1a4.4 4.4 0 01.94 3.28c-.09.59-.45 1-.86 1.36-.57.5-1.23.94-1.74 1.45-1.76 1.75-2.7 2.98-2.7 5.56 0 .91.4 2.3 1.07 2.96a.83.83 0 001.16-1.17c-.4-.4-.57-1.25-.57-1.8 0-2.04.8-2.99 2.2-4.39.5-.49 1.13-.9 1.67-1.38a3.86 3.86 0 001.4-2.36c.4-2.86-1.36-4.68-3.01-6.66-.18-.21-.54-.6-.8-1.03a2.86 2.86 0 01-.17-.4zm17.1-46.74c.8-.45 1.8-.5 2.82-.37a10.4 10.4 0 014.47 1.82c.37.27.61.72.91 1.09.31.38.65.71 1.08.92a.82.82 0 00.73-1.47c-.36-.18-.58-.56-.84-.9a4.8 4.8 0 00-.89-.96 12.14 12.14 0 00-5.23-2.13 6.1 6.1 0 00-3.86.57.82.82 0 00.82 1.43zm30.32 21.4c-.13.67-.36 1.4-.45 2.13-.11.92-.01 1.82.57 2.62.66.91 1.63 1.52 2.5 2.2.64.5 1.23 1.04 1.37 1.97.05.39-.08.68-.23.98-.16.31-.34.63-.47.98-.67 1.76-.75 4.11.7 5.56a.82.82 0 101.17-1.16c-.99-1-.79-2.61-.33-3.8.15-.4.37-.75.53-1.1.22-.51.36-1.04.26-1.7-.2-1.4-1.02-2.28-1.99-3.04-.74-.58-1.6-1.07-2.17-1.86-.32-.44-.33-.94-.27-1.45.08-.7.31-1.39.43-2.03a.82.82 0 00-1.62-.3zm-30.3 35.72c.05.39.22.8.46 1.2.27.47.63.93.87 1.31 1.19 1.9 2.54 3.74 3.53 5.73a.83.83 0 101.47-.74c-1.01-2.03-2.39-3.92-3.6-5.86-.2-.32-.48-.69-.72-1.06a2.15 2.15 0 01-.38-.8.82.82 0 10-1.63.22zm-13.28 9.96a.82.82 0 00-.38-1.56c-.21 0-.45.07-.66.25-.23.2-.48.66-.61.87-.62.93-1.12 2.1-1.5 3.14-1.25 3.34-.9 8.68.7 11.88.36.72.98 1.29 1.34 2a.83.83 0 001.48-.73c-.37-.72-.98-1.3-1.34-2.01-1.42-2.84-1.75-7.6-.64-10.56a14.23 14.23 0 011.61-3.28zm6.52-37.52s-1.2-1.56-1.07-2.9c.06-.67 2.15-.82 3.14 1.42 1 2.25-.14 3.1-2.07 1.49zm12.92-9.61s-1.2-1.57-1.07-2.9c.06-.68 2.14-.83 3.14 1.41 1 2.25-.14 3.1-2.07 1.49z" fill="#000"/><path fill-rule="evenodd" clip-rule="evenodd" d="M286.25 154.86s-.63-7.55 15.53-18.04c16.17-10.5 11.95-9.01 11.95-9.01s3.8 3.61 10.5.17 8.53-12.9 8.23-14.15c-.3-1.25 2-.75 11.11-6.6 9.1-5.87 19.96-11.37 24.77-6.56 1.1 3.86-.55 20.91-.55 20.91s-3.3 15.24-4.95 20.9c-7.15 4.96-15.4 10.46-15.4 10.46l-61.2 1.92zm15.15-67.53a5.19 5.19 0 012.67-1.51c.57-.12.72 0 1.27-.19a.82.82 0 10-.52-1.56c-.2.06-.32.06-.45.06-.18 0-.37.02-.64.08a6.83 6.83 0 00-3.51 1.98.82.82 0 001.19 1.14z" fill="#000"/><path fill-rule="evenodd" clip-rule="evenodd" d="M369.94 60.4a27.4 27.4 0 00-8.05-19.44 27.4 27.4 0 00-19.44-8.05H231.57a27.49 27.49 0 00-27.5 27.5v65.86a27.5 27.5 0 0027.5 27.5h110.88a27.4 27.4 0 0019.45-8.05 27.42 27.42 0 008.06-19.45V60.4h-.02zm-1.87 0v65.87c0 7.08-2.86 13.48-7.5 18.12a25.55 25.55 0 01-18.12 7.5l-110.88.01a25.64 25.64 0 01-25.63-25.63V60.4a25.65 25.65 0 0125.63-25.63h110.88c7.08 0 13.5 2.86 18.13 7.5a25.56 25.56 0 017.51 18.13h-.02z" fill="#000"/></g><mask id="b" style="mask-type:alpha" maskUnits="userSpaceOnUse" x="343" y="103" width="306" height="188"><rect x="343.03" y="103.42" width="305.91" height="187.07" rx="25" fill="#C4C4C4"/></mask><g mask="url(#b)"><path fill-rule="evenodd" clip-rule="evenodd" d="M648 130.93a26.5 26.5 0 00-7.83-18.79c-5-4.98-11.8-7.78-18.87-7.78H370.52c-7.08 0-13.87 2.8-18.88 7.78a26.5 26.5 0 00-7.82 18.79v132.46a26.5 26.5 0 007.82 18.78c5 4.98 11.8 7.78 18.88 7.78H621.3c7.08 0 13.87-2.8 18.88-7.78A26.5 26.5 0 00648 263.4V130.93z" fill="#fff"/><path fill-rule="evenodd" clip-rule="evenodd" d="M515.94 173.95l-.01.03-1.71 4.34c-.49 1.24-1.32 3.01-1.65 4.24-.2.77-.18 1.4 0 1.75a1.9 1.9 0 001.97 1.16c.8-.03 1.8-.5 2.87-.72a.82.82 0 00-.35-1.62c-.84.18-1.64.53-2.31.66-.28.06-.53.08-.68-.18l.01-.24c.04-.25.13-.55.24-.88.37-1.13 1.03-2.54 1.43-3.56l1.72-4.36c.5-1.29-1.37-1-1.5-.7a.5.5 0 00-.03.08zm1.52.64a.82.82 0 01-.7.45c.2 0 .51-.08.7-.45zm3.91-3.86c2.64-.47 4.26.4 5.34 1.94a.82.82 0 001.35-.95c-1.42-2-3.52-3.23-6.98-2.61a.83.83 0 00.29 1.62zm-10.67 6.43c-.87.76-1.78-.48-1.84-1.12-.06-.63.56-2.66 1.5-2.7 2.1-.07 1.08 3.19.35 3.82zm13.34.55c-.88.76-1.8-.48-1.85-1.12-.06-.63.56-2.66 1.5-2.7 2.1-.07 1.08 3.19.35 3.82zm-16.82-7.53c2.64-.47 4.25.41 5.34 1.94a.83.83 0 001.34-.95c-1.41-2-3.51-3.23-6.98-2.61a.83.83 0 00.3 1.62zm-6.39-8.8c-.23 1.26-.9 6.2-.5 11.52a97.75 97.75 0 002.68 16.4.83.83 0 001.59-.42 95.99 95.99 0 01-2.63-16.1c-.39-5.13.26-9.9.48-11.1a.83.83 0 00-1.62-.3z" fill="#000"/><path fill-rule="evenodd" clip-rule="evenodd" d="M442.42 154.3c-.17-.36-.36-.8-.54-1.26-.53-1.38-1.03-3.03-1.27-3.82l-3.27-10.65c-.33-1.1-.7-2.96-1.36-3.98-.5-.76-1.15-1.11-1.99-.73a2.83 2.83 0 00-1.74 2.22c-.23 1.37.36 2.98.53 3.9.27 1.38.61 2.7 1 4 .9 3 2.02 5.87 2.82 9.06.16.63.57 1.91.84 2.95-.45-.77-.94-1.68-1.21-2.1a597.13 597.13 0 00-3.5-5.43l-2.4-3.6a5.63 5.63 0 00-1.56-1.64 2.04 2.04 0 00-1.66-.27c-.31.09-.56.4-.65.85-.13.65 0 1.6.08 1.79.26.7.55 1.38.85 2.06.45 1.02.93 2.02 1.4 3.03 1.75 3.72 3.66 7.38 5.42 11.1.76 1.58 1.49 3.18 2.17 4.8.18.44.36 1.22.52 2.11.37 2.05.66 4.65.77 5.22a.41.41 0 10.8-.14c-.1-.58-.39-3.18-.76-5.23-.18-.96-.37-1.8-.57-2.28a111.2 111.2 0 00-2.18-4.84c-1.77-3.71-3.68-7.37-5.42-11.1-.47-1-.95-1.99-1.4-3-.29-.67-.57-1.34-.83-2.03a3.53 3.53 0 01-.02-1.4.82.82 0 01.06-.15c.37-.1.7 0 1 .19.56.34 1 .96 1.3 1.4a595.49 595.49 0 015.88 9c.44.67 1.4 2.53 1.91 3.2.23.3.47.4.58.41.15 0 .27-.04.36-.16a.68.68 0 00.15-.44c0-.2-.04-.49-.12-.84-.24-1.1-.81-2.87-1-3.66-.81-3.2-1.94-6.08-2.84-9.1a39.5 39.5 0 01-.98-3.92c-.16-.84-.74-2.33-.52-3.6a2 2 0 011.26-1.6c.58-.27.91.24 1.21.88.46 1 .74 2.42 1.01 3.3l3.27 10.66c.29.93.92 3.02 1.55 4.52.28.66.57 1.21.82 1.53.18.21.36.34.51.39.26.08.45 0 .58-.22.08-.12.13-.38.09-.75-.14-1.28-1.15-4.49-1.33-5.47-.64-3.37-1.51-6.42-2.25-9.61-.3-1.34-.6-2.7-.82-4.11-.1-.6-.27-1.8-.04-2.76.13-.52.37-.98.9-1.11.44-.12.84.17 1.18.55.64.7 1.1 1.74 1.25 2.2a62.67 62.67 0 011.64 6.15c.53 2.6.63 4.49 1.56 9.47.16.86.64 3.5 1.07 4.44.13.29.29.45.4.52a.5.5 0 00.48 0c.1-.05.22-.16.31-.33.1-.2.2-.53.28-.93.24-1.26.36-3.38.51-4.2.56-3.13.3-6.56.8-9.74.2-1.34.55-2.65 1.16-3.86.13-.24.36-.18.57-.08.35.16.69.47.76.64.3.66.45 1.58.54 2.55.13 1.48.09 3.07.07 4.1l-.05 2.34c-.1 3.28-.27 5.6-.34 9.43-.02.97-.25 2.42-.1 3.67.08.61.25 1.18.56 1.64.09.12.2.19.37.2.1 0 .35-.09.62-.33.7-.64 2.15-2.47 2.63-3.15 1.4-2.02 2.44-4.11 3.7-6.12.52-.84 1.08-1.66 1.72-2.46.23-.3.91-.99 1.58-1.23.3-.12.61-.12.81.21.35.57.34 1.22.18 1.85-.27 1.1-.96 2.17-1.36 2.96-1.9 3.78-2.99 8.2-4.61 12.21a29.9 29.9 0 01-1.34 2.92c-.42.8-1.12 1.7-1.87 2.55-1.46 1.68-3.12 3.21-3.4 3.53a.41.41 0 00.63.54c.28-.32 1.93-1.85 3.39-3.53.8-.9 1.53-1.87 1.98-2.7.5-.96.96-1.96 1.37-3 1.62-3.99 2.7-8.39 4.58-12.15.43-.84 1.14-1.98 1.43-3.13.21-.85.2-1.7-.27-2.47-.45-.74-1.12-.82-1.8-.57a5.44 5.44 0 00-1.94 1.5 24.8 24.8 0 00-1.79 2.53c-1.25 2-2.28 4.08-3.67 6.09-.44.63-1.75 2.3-2.44 2.95a4 4 0 01-.28-1.43c-.05-1.08.13-2.25.15-3.06.06-3.82.23-6.15.33-9.42l.06-2.37c.01-1.04.05-2.66-.08-4.17a9.17 9.17 0 00-.6-2.82 2.78 2.78 0 00-1.47-1.17c-.53-.14-1.04-.03-1.35.58a13.57 13.57 0 00-1.25 4.1c-.5 3.18-.23 6.6-.79 9.72-.13.72-.24 2.43-.43 3.7-.03.22-.09.46-.14.67-.37-1.1-.73-3.14-.86-3.87-.94-4.99-1.03-6.87-1.56-9.49a63.42 63.42 0 00-1.67-6.22 7.6 7.6 0 00-1.42-2.51c-.57-.63-1.27-.99-2-.8-.83.22-1.29.88-1.5 1.72a8.51 8.51 0 00.03 3.08c.24 1.43.52 2.81.84 4.16.73 3.18 1.6 6.23 2.24 9.58.15.82.88 3.2 1.2 4.69z" fill="#020202" stroke="#000" stroke-width=".5"/><path fill-rule="evenodd" clip-rule="evenodd" d="M544.41 175.48c.1-.1.23-.25.3-.3.5-.4 1.22-.7 1.86-.74 1.16-.06 2.05.94 2.3 2 .7 2.82-1.08 5.53-3.21 7.2a3.9 3.9 0 01-2.09.6c-.4 0-.79-.03-1.01-.26a.83.83 0 00-1.17 1.17 3 3 0 002.2.73 5.7 5.7 0 003.08-.95c2.62-2.04 4.66-5.43 3.81-8.89-.44-1.79-2.05-3.36-4-3.24-.98.06-2.06.49-2.82 1.1a6 6 0 00-.73.81.8.8 0 00.11.98c.05.06.6.57 1.2.02a.82.82 0 00.17-.23zm-1.25-1.02l.02-.02-.01.02zm.04-.03h.01-.01z" fill="#000"/><path fill-rule="evenodd" clip-rule="evenodd" d="M545.76 177.5c.06-.03.11-.05.16-.03.1.03.13.13.18.23.08.17.13.37.18.57a2.1 2.1 0 01-.44 1.52c-.16.2-.34.39-.57.39a.82.82 0 000 1.65c.74 0 1.4-.4 1.88-1.04.62-.81.91-2 .74-2.84-.19-.95-.69-1.76-1.39-2.02-.36-.14-.8-.17-1.3.02a.82.82 0 00.56 1.55zm-7.06 33.54c-.83.66-2.62 1.4-3.53 1.6-6.74 1.45-6.76 1.24-13.68.95-2.4-.1-2.7-.11-4.99-.87-.23-.08-.45-.21-.67-.32l.09-.27c.28-1.4.5-2.82.69-4.24.08-.64.08-1.29.12-1.93.01-.26.07-.93.06-1.03a.78.78 0 00-.66-.69.81.81 0 00-.97.62.81.81 0 00-.02.39l-.06.61c-.03.6-.03 1.21-.1 1.81a64.4 64.4 0 01-.68 4.14c-.02.14-.14.26-.2.39-.13.28-.2.56-.14.86.05.37.26.6.56.72.11.04.4.06.54.07.32.13.6.33.93.44 2.5.82 2.8.83 5.43.94 7.13.3 7.15.52 14.1-.98a12.67 12.67 0 004.46-2.13c.2-.19.37-.53.38-.97a8.1 8.1 0 00-.12-1.18c.02-1.3.13-2.61.17-3.92.25-6.94.1-8.26.9-15.18.2-1.6.54-3.18.8-4.78l.07-.54a.82.82 0 00-.5-1.49c-.4 0-.78.23-.99.7-.16.35-.2.96-.21 1.07-.26 1.62-.61 3.22-.8 4.85-.82 6.97-.67 8.3-.91 15.31-.05 1.33-.16 2.66-.17 3.99 0 .1.02.3.06.55l.05.51zm-22.02-5.57v.03-.03zm.02-.04v.03-.03zm.02-.04l-.01.03v-.02z" fill="#000"/><path fill-rule="evenodd" clip-rule="evenodd" d="M503.61 188.2s14.25-2.21 24.3-1.19c10.04 1.03 9.99-11.12 10-13.44.05-4.87-6.49-11.82-6.49-11.82s.88-1.1 0 0c-2.16 2.68-7.14 1.93-9.55 0-2.38-1.92-2.17 2.68-6.81 2.68-3.37 0-4.22-5.02-6.56-2.68-5.65 5.65-10.63 2.27-9.9-1.4.27-1.31-2.66-2.43-2.66-5.61 0-5.8 5.46-3.51 5.46-5 0-2.97.47-3.78 2.21-4.67 2.22-1.13 3.73-.84 8.62 0 2.2.38 6.02-1 9.64-1.13 3.83-.14 8.14 3.85 10.65 4.02 12.07.8 14.36 7.06 12.07 13.79-1.32 3.88-.79 8.4-1.27 11.82-1.45 10.3-4 24.3-11.9 29.31-5.1 3.24-14.1 3.7-20.28 2.15-5.55-1.39-10.5-8.24-7.53-16.82z" fill="#000"/><path fill-rule="evenodd" clip-rule="evenodd" d="M513.19 192.72c-2.38-1.27-2.49-3.13.24-3.4 2.74-.27 4.95.42 9.1.14 4.12-.27 6.67.28.91 2.95-3.5 1.62-7.84 1.6-10.25.31z" fill="#fff"/><path fill-rule="evenodd" clip-rule="evenodd" d="M435.08 173.9h22.42s-3.26 43.04-1.8 53.66c1.46 10.62.4 18.38 9.01 8.95 8.63-9.43 21.29-20.72 25.73-22.63 9.72-4.17 24.3-3.26 24.3-3.26s3.15 3.1 11.2 2.74c8.04-.37 13.75-2.74 13.75-2.74s27.29 1.19 36.15 6.4c6.7 3.95 9.76 19.72 13.77 33.77 4.02 14.05 9.99 40.73 9.99 40.73l-104.01-.16-2.66-43.2s-20.82 11.24-30.5 15.36c-9.7 4.12-25.62 6.64-28.52-27.46-2.9-34.1 1.17-62.17 1.17-62.17z" fill="#6F4AB3"/><path fill-rule="evenodd" clip-rule="evenodd" d="M539.3 275.54l.35-.08c1.02-.17 3.24-.2 5.84-.16 3.19.04 6.96.2 9.85.32 3.27.14 7.45-.14 10.95-.64 2.4-.35 4.5-.79 5.75-1.26.8-.3 1.3-.64 1.45-.94.33-.66.41-1.61.26-2.8a28.9 28.9 0 00-1.7-5.93c-3.23-8.64-10.12-21.69-13.03-32.14a.41.41 0 10-.8.22c2.92 10.48 9.82 23.55 13.06 32.21a28.14 28.14 0 011.65 5.74c.13.99.1 1.78-.18 2.32-.1.2-.47.36-1 .55a30.2 30.2 0 01-5.58 1.21c-3.45.5-7.57.78-10.8.64-4-.18-9.65-.4-13.17-.33-1.45.03-2.55.11-3.06.25-.3.1-.47.25-.53.37-.23.44-.26 1.62-.14 3.2.24 3.35 1.03 8.61 1.03 11.94a.41.41 0 00.82 0c0-3.35-.78-8.64-1.03-12-.1-1.28-.14-2.26.02-2.69z" fill="#000" stroke="#000" stroke-width=".5"/><path fill-rule="evenodd" clip-rule="evenodd" d="M478 194.54a6.63 6.63 0 00-6.42-4.98h-107.8a6.63 6.63 0 00-6.42 8.28L375 266.57a6.63 6.63 0 006.42 4.99h107.8a6.63 6.63 0 006.43-8.29L478 194.54z" fill="#fff"/><path fill-rule="evenodd" clip-rule="evenodd" d="M478.8 194.34a7.46 7.46 0 00-7.22-5.6h-107.8a7.46 7.46 0 00-7.22 9.3l17.65 68.74a7.46 7.46 0 007.22 5.6h107.8a7.45 7.45 0 007.23-9.31l-17.65-68.73zm-1.59.4l17.65 68.74a5.8 5.8 0 01-5.62 7.25h-107.8a5.8 5.8 0 01-5.63-4.36l-17.65-68.74a5.8 5.8 0 015.62-7.25h107.8a5.8 5.8 0 015.63 4.37z" fill="#000"/><path fill-rule="evenodd" clip-rule="evenodd" d="M421.35 225.96c1.92-.59 4.1.97 4.85 3.47.76 2.5-.18 5-2.1 5.58-1.92.59-4.09-.97-4.85-3.47-.76-2.5.18-5 2.1-5.58z" fill="#fff" stroke="#000" stroke-width="1.5" stroke-miterlimit="2.49" stroke-linecap="round" stroke-linejoin="round"/><path fill-rule="evenodd" clip-rule="evenodd" d="M490.5 256.27l-.38-1.37c-2.52-9.25-15.1-57.85-15.1-57.85a.82.82 0 10-1.59.41s12.58 48.62 15.1 57.87c.28 1.04.47 1.64.5 1.7.32.55.81.43.97.38.14-.05.58-.2.58-.8a.8.8 0 00-.08-.34zm-1.21-.33a.74.74 0 00-.36.68c0-.28.14-.53.36-.68zm-34.37-62.43l-1.42.02c-9.59.03-59.79-.4-59.79-.4a.82.82 0 00-.01 1.65s50.22.43 59.8.4c1.08 0 1.7-.04 1.77-.05.62-.16.63-.68.62-.84a.75.75 0 00-.61-.76.81.81 0 00-.36-.02zm-.63 1.09c.05.16.18.41.56.52a.82.82 0 01-.56-.52z" fill="#000"/><path d="M648 104.36h-42.13v185.6h42.14v-185.6z" fill="#6F4AB3"/><path fill-rule="evenodd" clip-rule="evenodd" d="M538.84 275.25l1.16 14.7s-12.33-.03-15.73-2.72c-1.95-1.53-5.5-3.17-6.79-2.64-3.69 1.5-3.8 3.2-7.6 4.64-3.13 1.18-2.03-3.42-2.03-3.42s-2.56 3.2-4.65 2.56c-2.1-.62-.12-5.59-.12-5.59s-.88.52-1.37.56c-.6.04-1.62.5-2.22-.31-1.23-1.68.77-4.32 1.58-5.52 2.18-3.23 6.2-7.96 9.95-8.43 4.2-.52 9.45 1.73 9.45 1.73s-.93-1.7-1.29-2.02c-3.59-3.27-5.7-3.3-10.63-4.47-.89-.21-4.14-1.14-3.6-3.23.58-2.17 4.61-1.48 7.75-.65 7.4 1.94 10.75 6.52 16.96 10.97 2.9 2.08 5.88 2.7 9.18 3.84z" fill="#fff" stroke="#000" stroke-miterlimit="2.49" stroke-linecap="round" stroke-linejoin="round"/><path fill-rule="evenodd" clip-rule="evenodd" d="M503.06 283.14l.03-.04.8-1.07c.44-.52.81-1.05 1.24-1.56l.54-.6a36.7 36.7 0 012.38-2.21c.8-.67 1.63-1.28 2.61-1.87.33-.2.75-.43 1.17-.59.27-.1.53-.17.75-.17a.41.41 0 100-.82c-.31 0-.68.08-1.04.22a8.6 8.6 0 00-1.3.65 19.7 19.7 0 00-2.72 1.95 37.16 37.16 0 00-3.03 2.92c-.42.5-.8 1.03-1.23 1.55a23.85 23.85 0 00-.96 1.32.4.4 0 00.01.37c.08.15.22.27.46.2a.41.41 0 00.3-.25zm-.05-.39c-.08-.12-.21-.2-.43-.15.17-.04.33.02.43.15zm5.02 3.56c.04-.3.23-.66.46-1 .38-.57.87-1.12 1.2-1.51a18.9 18.9 0 013.1-2.98 23 23 0 013.7-2.26.41.41 0 00-.38-.74 23.8 23.8 0 00-3.82 2.34 19.75 19.75 0 00-3.23 3.11c-.4.48-1.04 1.19-1.44 1.88-.22.37-.37.74-.41 1.07a.41.41 0 00.82.1z" fill="#000" stroke="#000" stroke-width=".5"/><path fill-rule="evenodd" clip-rule="evenodd" d="M438.07 245.39h-21.3v44.77h35.4l-14.1-44.77z" fill="#6F4AB3" stroke="#000" stroke-width="2" stroke-miterlimit="2.49" stroke-linecap="round" stroke-linejoin="round"/><path fill-rule="evenodd" clip-rule="evenodd" d="M438.36 245.62l13.65 44.39h-13.65v-44.39z" fill="#000" stroke="#000" stroke-width="2" stroke-miterlimit="2.49" stroke-linecap="round" stroke-linejoin="round"/><path fill-rule="evenodd" clip-rule="evenodd" d="M648.9 131.03a27.38 27.38 0 00-8.1-19.44 27.64 27.64 0 00-19.53-8.05H370.49a27.75 27.75 0 00-19.53 8.05 27.46 27.46 0 00-8.1 19.44V263.5a27.37 27.37 0 008.1 19.45 27.65 27.65 0 0019.53 8.05h250.78a27.73 27.73 0 0019.54-8.05 27.47 27.47 0 008.1-19.45V131.03h-.02zm-1.86 0c-.02 0-.01 132.46-.01 132.46a25.5 25.5 0 01-7.55 18.12 25.75 25.75 0 01-18.21 7.5l-250.78.01a25.87 25.87 0 01-18.22-7.5 25.6 25.6 0 01-7.54-18.13V131.03a25.53 25.53 0 017.54-18.12 25.78 25.78 0 0118.22-7.51h250.78a25.88 25.88 0 0118.23 7.5 25.64 25.64 0 017.54 18.13z" fill="#000"/></g><path fill-rule="evenodd" clip-rule="evenodd" d="M417.02 242.23a26.56 26.56 0 00-26.57-26.56h-152.4a26.57 26.57 0 00-26.56 26.56v117.64a26.57 26.57 0 0026.57 26.56h152.4a26.57 26.57 0 0026.56-26.56V242.23z" fill="#fff"/><path fill-rule="evenodd" clip-rule="evenodd" d="M245 251.55a1.8 1.8 0 00-1.81-1.8h-2.82a1.8 1.8 0 00-1.8 1.8v18.57a1.8 1.8 0 001.8 1.81h2.82a1.8 1.8 0 001.8-1.8v-18.58zm12.23-9.07a1.8 1.8 0 00-1.81-1.8h-2.82a1.8 1.8 0 00-1.8 1.8v27.5a1.8 1.8 0 001.8 1.8h2.82a1.8 1.8 0 001.8-1.8v-27.5zm12.22-9.34a1.8 1.8 0 00-1.8-1.8h-2.82a1.8 1.8 0 00-1.8 1.8v36.9a1.8 1.8 0 001.8 1.81h2.82a1.8 1.8 0 001.8-1.8v-36.91z" fill="#6F4AB3"/><path fill-rule="evenodd" clip-rule="evenodd" d="M417.92 242.34a27.4 27.4 0 00-8.06-19.44 27.4 27.4 0 00-19.43-8.05h-152.4c-7.6 0-14.47 3.07-19.44 8.05a27.41 27.41 0 00-8.06 19.44v117.63c0 7.6 3.08 14.47 8.05 19.45a27.41 27.41 0 0019.45 8.05h152.4c7.6 0 14.47-3.07 19.44-8.05a27.42 27.42 0 008.06-19.45V242.34h-.01zm-1.85 0c-.02 0-.02 117.63-.02 117.63 0 7.08-2.87 13.48-7.5 18.12a25.54 25.54 0 01-18.12 7.5l-152.4.01a25.55 25.55 0 01-18.12-7.5 25.56 25.56 0 01-7.51-18.13V242.34c0-7.08 2.86-13.49 7.5-18.13a25.56 25.56 0 0118.13-7.5l152.4-.01a25.6 25.6 0 0118.13 7.5 25.56 25.56 0 017.5 18.14z" fill="#000"/><path fill-rule="evenodd" clip-rule="evenodd" d="M298.08 287.67s-3.95 10.48-4.13 14.4c-.18 3.9 1.41 6.11 7.46 7.59 6.05 1.47 10.46 0 10.46 0s-7.67-1.38-10.07-8.56c-1.63-4.91-3.72-13.43-3.72-13.43z" fill="#6F4AB3"/><path fill-rule="evenodd" clip-rule="evenodd" d="M296.98 280.23c.16.54.29 1.16.39 1.8.23 1.5.35 3.15.57 4.42.2 1.08.4 2.17.62 3.24.15.72.31 1.44.5 2.16 1.02 4.09 2.33 9.51 5.06 13.32 1.93 2.67 4.54 4.56 8.23 4.68 1.89.07 3.72-.3 5.37-.86 3.72-1.27 6.53-3.5 7.08-3.83a.41.41 0 10-.43-.7c-.47.28-2.68 2.03-5.7 3.29a15.2 15.2 0 01-6.3 1.28c-3.4-.12-5.8-1.87-7.58-4.34-2.67-3.73-3.93-9.04-4.94-13.04-.18-.7-.34-1.41-.49-2.13a110.1 110.1 0 01-.6-3.22c-.23-1.25-.35-2.9-.58-4.39-.1-.69-.24-1.34-.41-1.92a.41.41 0 10-.79.24z" fill="#000" stroke="#000" stroke-width=".5"/><path fill-rule="evenodd" clip-rule="evenodd" d="M310.61 286.53l-.04.04c-.23.28-.86.92-.98 1.04-.76.76-2.06 1.85-2.45 2.82-.19.45-.2.88 0 1.27.2.38.61.74 1.4 1 .43.14.94.19 1.42.3.17.05.34.1.5.18a.41.41 0 00.36-.74c-.2-.1-.43-.18-.66-.23-.46-.12-.95-.16-1.37-.3-.5-.16-.8-.35-.92-.59-.09-.18-.05-.37.03-.58.36-.88 1.58-1.85 2.27-2.55.13-.13.78-.8 1.03-1.08.21-.25.18-.5.17-.54a.41.41 0 00-.52-.25.41.41 0 00-.24.2zm5.17-5.48c.93-.3 2.3-.33 3.58-.1 1.32.23 2.55.7 2.96 1.5a.41.41 0 10.73-.36c-.4-.83-1.48-1.45-2.77-1.79a9.45 9.45 0 00-4.75-.04.41.41 0 10.25.79zm-6.88 19.31c1.36.57 3.47.62 5.52.22 1.98-.39 3.9-1.2 5-2.31a.41.41 0 10-.57-.58c-1.02 1.01-2.78 1.73-4.6 2.08-1.86.36-3.8.35-5.04-.17a.41.41 0 00-.31.76z" fill="#000" stroke="#000" stroke-width=".5"/><path fill-rule="evenodd" clip-rule="evenodd" d="M318.14 295.44c-.1.58.17 1.83 1.1 2.85a4.55 4.55 0 002.64 1.38.4.4 0 00.47-.33.41.41 0 00-.34-.48 3.74 3.74 0 01-2.16-1.13c-.72-.78-.97-1.71-.9-2.16a.41.41 0 00-.8-.13zm14.26 18.69c-.5.47-1.1.83-1.73 1.13-1.08.5-2.26.86-3.34 1.32-1.43.62-2.89 1.1-4.38 1.34a13.5 13.5 0 01-4.53.03c-.59-.1-1.17-.13-1.74-.26a2.94 2.94 0 01-1.56-.92c-.3-.28-.56-.6-.82-.86.05-.1.16-.34.21-.41.17-.25.27-.51.35-.78.14-.53.12-1.08.3-1.62.15-.43.03-2.04.08-2.69l.01-.05a.41.41 0 00-.32-.65.43.43 0 00-.33.14.87.87 0 00-.18.5c-.05.6.1 2.1-.04 2.48-.18.56-.18 1.13-.32 1.68a1.8 1.8 0 01-.24.53c-.1.15-.3.46-.35.72-.05.26 0 .49.16.65.34.33.69.75 1.08 1.11a3.73 3.73 0 001.78.97c.58.14 1.19.17 1.79.27 1.64.28 3.24.24 4.8-.02a20.1 20.1 0 004.58-1.4c1.08-.46 2.27-.82 3.36-1.34.77-.36 1.5-.8 2.1-1.41.16-.16.21-.4.1-.7-.1-.26-.43-.64-.57-.93a5.93 5.93 0 01-.4-1.07c-.25-.92-.39-1.94-.6-2.78a34.1 34.1 0 01-.92-5.6 26 26 0 01.14-5.63c.1-.69.07-2 .28-3.03.08-.41.19-.77.4-.98a.41.41 0 10-.6-.58c-.29.3-.5.8-.61 1.4-.2 1.04-.19 2.38-.28 3.07-.27 1.88-.3 3.86-.15 5.82.15 1.96.48 3.9.94 5.73.21.84.36 1.87.61 2.8.12.44.27.85.45 1.22.1.21.39.63.5.8zm-17.46-3.6h-.04.04zm.04 0h-.03.02zm.03 0H315z" fill="#000" stroke="#000" stroke-width=".5"/><path fill-rule="evenodd" clip-rule="evenodd" d="M332 286.89c.27-.68 1.59-2.24 2.39-2.24l-2.39 2.24z" fill="#000"/><path fill-rule="evenodd" clip-rule="evenodd" d="M332.39 286.9c.12-.3.48-.8.89-1.23.38-.38.78-.75 1.1-.75a.41.41 0 100-.82c-.4 0-.94.3-1.43.75a5.76 5.76 0 00-1.33 1.75c-.08.22.02.45.24.54.2.08.45-.03.53-.24z" fill="#000" stroke="#000" stroke-width=".5"/><path fill-rule="evenodd" clip-rule="evenodd" d="M305.64 283s-1.22.02-1.56 1.76c-.5 2.47.88 2.28 1.57 2.13 1.2-.25 1.48-3.52 0-3.89zm12.51 1.37s-1.23.03-1.57 1.76c-.5 2.47.88 2.29 1.57 2.14 1.2-.26 1.49-3.53 0-3.9z" fill="#000" stroke="#000" stroke-width=".5" stroke-miterlimit="2.49" stroke-linecap="round" stroke-linejoin="round"/><path fill-rule="evenodd" clip-rule="evenodd" d="M324.57 268.88s-3.96 5.62 3.4 12.28c2.22 2 1.7 5.2 1.7 5.2s.43-5.86 5.25-5.2c3.8.52 4 5.86 1.75 9.32-1.84 2.82-6.29 2.21-6.29 2.21s-2.13 6.12 0 15.96c.65 3 16.15-.87 18.68-4.27 2.53-3.4-.4-12.88-2.92-20-2.52-7.13-6.67-21.43-13.33-23.47-6.67-2.04-16.1-1.96-21.7-1.66-5.6.3-17.56.46-18.8 8.1-.46 2.82-.23 12.87 5.54 13.81 5.78.94 26.12-11.04 26.72-12.28z" fill="#6F4AB3"/><path clip-rule="evenodd" d="M274.56 386.58h111.59s-13.25-55.68-18.92-62.52c-5.67-6.84-33.91-9.45-33.91-9.45s-7.95 3.74-11.13 3.87c-6.42.26-9.2-2.45-9.2-2.45s-18.48.28-24.2 4.96c-5.73 4.68-9.06 15.42-9.86 30.45-.8 15.03-4.37 35.14-4.37 35.14z" stroke="#000" stroke-width="1.5" stroke-miterlimit="2.49" stroke-linecap="round" stroke-linejoin="round"/><path fill-rule="evenodd" clip-rule="evenodd" d="M352.75 339.76c0 .19.05.4.11.6.18.6.6 1.25.71 1.83.35 1.74.94 3.45 1.38 5.19.18.72.34 1.45.45 2.2.1.7.24 1.38.4 2.05.65 2.65 1.68 5.18 2.14 7.9.34 2.06.8 4.37 1.41 6.59.41 1.5.9 2.96 1.46 4.27a40.6 40.6 0 011.23 3.3c.88 2.66 1.55 5.35 2.41 7.93.22.67.74 1.82 1.05 2.8.14.44.25.84.25 1.13a.41.41 0 00.82 0c0-.35-.11-.84-.28-1.38-.32-.98-.84-2.14-1.06-2.8-.86-2.59-1.53-5.28-2.4-7.94a41.35 41.35 0 00-1.26-3.37 32.88 32.88 0 01-1.43-4.16 65.42 65.42 0 01-1.39-6.5c-.46-2.74-1.5-5.3-2.15-7.96-.16-.65-.29-1.31-.39-1.98a21.8 21.8 0 00-.46-2.29c-.44-1.72-1.02-3.41-1.37-5.14-.1-.53-.44-1.14-.66-1.7a1.8 1.8 0 01-.14-.58.41.41 0 00-.83 0z" fill="#000" stroke="#000" stroke-width=".5"/><path d="M362.24 320.65s17.49.18 30.65 3.86c5.34 1.49 9.87 3.4 12.07 5.82 8.52 9.37-5.3 55.17-5.3 55.17"/><path d="M369.66 251.67v42.5h47.26" stroke="#000" stroke-width="1.5" stroke-miterlimit="2.49" stroke-linecap="round" stroke-linejoin="round"/><path d="M364.3 258.51l5.37-6.84 5.37 6.84" stroke="#000" stroke-width="1.5" stroke-miterlimit="2.49" stroke-linecap="round" stroke-linejoin="round"/><path fill-rule="evenodd" clip-rule="evenodd" d="M235.09 386.04l-14.16-47.83a5.74 5.74 0 015.5-7.36l59.3-.03a5.73 5.73 0 015.45 3.92l16.99 51.1-73.08.2z" fill="#fff"/><path fill-rule="evenodd" clip-rule="evenodd" d="M234.3 386.27c.1.36.43.6.8.6l73.07-.2a.82.82 0 00.78-1.1l-16.99-51.09a6.56 6.56 0 00-6.23-4.49l-59.3.03a6.56 6.56 0 00-6.29 8.42l14.16 47.83zm1.4-1.06l-13.98-47.24a4.91 4.91 0 014.7-6.3l59.32-.03a4.9 4.9 0 014.65 3.36l16.63 50.01-71.31.2z" fill="#000"/><path fill-rule="evenodd" clip-rule="evenodd" d="M287.25 339.87c5.39 16.34 7.08 20.92 13.2 38.68a.82.82 0 001.55-.54c-6.11-17.74-7.8-22.32-13.19-38.65a.82.82 0 10-1.56.51zm-6.85-5.45c-17.7-.1-31.76.16-54.2.07a.82.82 0 100 1.65c22.44.1 36.49-.18 54.18-.08a.82.82 0 00.01-1.64z" fill="#000"/><path d="M369.66 294.05l11.66-10.73c8.37-7.69 10.2-3.87 18.38 0 7.98 3.78 17.22-28.35 17.22-28.35" stroke="#000" stroke-width="1.5" stroke-miterlimit="2.49" stroke-linecap="round" stroke-linejoin="round"/><path fill-rule="evenodd" clip-rule="evenodd" d="M337.8 371.6l-.1.1c-.72.78-3.47 3.44-5.24 5.7a8.78 8.78 0 00-1.63 2.78 2.1 2.1 0 00.5 1.88 3.95 3.95 0 002.18 1.27c2.54.42 5.42.06 7.71-1.09.64-.32 1-.97 1.06-1.69a2.35 2.35 0 00-.62-1.8c-.27-.27-.83-.5-1.54-.6-1.17-.14-2.85-.04-3.53-.04a.82.82 0 000 1.65c.56 0 1.81-.08 2.86-.01a5.28 5.28 0 011.06.18c.11.13.14.32.13.5-.01.13-.04.28-.16.34-1.99.99-4.5 1.3-6.7.93a2.2 2.2 0 01-1.03-.53c-.19-.17-.38-.36-.33-.6.13-.48.55-1.13 1.1-1.85 1.45-1.92 3.77-4.23 4.9-5.38.43-.44.7-.75.76-.84a.83.83 0 10-1.38-.9z" fill="#000"/><path fill-rule="evenodd" clip-rule="evenodd" d="M333.8 368.43c-2.2 2.14-5.6 5.02-6.64 7.35-.59 1.32-.52 2.5.42 3.45.57.57 2.46 1.84 3.17 2.2a.82.82 0 10.74-1.48c-.62-.3-2.25-1.4-2.75-1.89-.32-.32-.35-.72-.24-1.16.12-.42.36-.86.67-1.32 1.34-2 3.99-4.23 5.77-5.97a.82.82 0 10-1.15-1.18z" fill="#000"/><path fill-rule="evenodd" clip-rule="evenodd" d="M352.95 386.6l.02.04.07.13c.23.38.55.38.6.39.28.03.5-.06.69-.24 0-.01.4-.37.16-.93-.04-.08-.33-.7-.47-.93-.28-.48-8.84-13.97-13.27-19.8a22.3 22.3 0 00-1.96-2.32 2.68 2.68 0 00-.71-.53c-.9-.39-1.8-.31-2.65.03-1.05.41-2.02 1.25-2.77 1.84-3.13 2.48-3.88 3.12-6.43 6.2-1.28 1.56-1.91 3.12-1.54 4.46.25.94.97 1.82 2.41 2.54a.83.83 0 00.74-1.47c-.89-.45-1.4-.93-1.56-1.5-.11-.4-.04-.82.14-1.27a6.3 6.3 0 011.09-1.7c2.44-2.97 3.17-3.58 6.17-5.96.55-.43 1.22-1.03 1.96-1.42.57-.3 1.17-.5 1.78-.24.1.05.22.2.4.39.43.44.98 1.11 1.62 1.95 4.39 5.78 12.88 19.17 13.17 19.65l.34.68z" fill="#000"/><path fill-rule="evenodd" clip-rule="evenodd" d="M327.9 363c1.01.55 2.38 1.89 3.03 2.4.4.33.75.41.87.41a.82.82 0 00.3-1.6c-.23-.2-2.4-2.16-3.57-2.74-.2-.1-.5-.15-.85-.11-.43.05-.98.22-1.19.28-.78.2-1.95.64-3.07.82-.6.1-1.18.13-1.64-.06a2.75 2.75 0 01-.94-.74.75.75 0 01-.08-.14l-.03-.04a.28.28 0 01.09-.1c.27-.22.58-.3.9-.37.32-.07.64-.13.95-.22.9-.28 1.76-.63 2.65-.9.86-.27 1.71-.56 2.6-.73a2.4 2.4 0 011.49.28c.61.3 1.19.7 1.71 1 1 .59 2.79 1.75 4.89 3.23a.83.83 0 00.95-1.35 80.91 80.91 0 00-5-3.3c-.57-.33-1.19-.75-1.84-1.07a4 4 0 00-2.53-.41c-.94.19-1.85.49-2.76.77-.9.27-1.76.63-2.65.9-.35.11-.71.16-1.07.25-.48.13-.94.31-1.35.66-.4.33-.58.7-.65 1.06-.06.36 0 .73.18 1.09.36.73 1.28 1.4 1.83 1.63.71.32 1.62.34 2.56.2 1.18-.2 2.41-.65 3.23-.87l.99-.23z" fill="#000"/><path fill-rule="evenodd" clip-rule="evenodd" d="M303.91 345.46c.76 1.6 4.57 8.3 5.45 10.22a.83.83 0 001.5-.69c-.88-1.92-4.7-8.62-5.46-10.23a.82.82 0 00-1.49.7zm13.33-3.2c-.35 2.83-1.13 8.13-1.58 11.5a.83.83 0 001.63.22c.45-3.37 1.24-8.68 1.58-11.52a.83.83 0 00-1.63-.2zm13.12 5.01c-1.87 1.83-5.47 5.16-7.72 7.31a.83.83 0 001.14 1.2c2.26-2.16 5.86-5.5 7.74-7.33a.83.83 0 00-1.16-1.18z" fill="#6F4AB3"/><path fill-rule="evenodd" clip-rule="evenodd" d="M257.96 358.7c1.93-.58 4.1.97 4.86 3.47.76 2.5-.18 5-2.1 5.58-1.92.59-4.1-.97-4.86-3.47-.76-2.5.19-5 2.1-5.58z" fill="#fff" stroke="#000" stroke-width="1.5" stroke-miterlimit="2.49" stroke-linecap="round" stroke-linejoin="round"/><path fill-rule="evenodd" clip-rule="evenodd" d="M604.2 47.23a3.89 3.89 0 00-3.88-3.88h-100.5a3.89 3.89 0 00-3.88 3.88v9.35a3.89 3.89 0 003.89 3.88h100.49a3.89 3.89 0 003.88-3.88v-9.35z" fill="#6F4AB3"/><path clip-rule="evenodd" d="M600 43.13a3.88 3.88 0 00-3.89-3.88H495.62a3.89 3.89 0 00-3.89 3.88v9.35a3.89 3.89 0 003.89 3.88h100.5a3.89 3.89 0 003.88-3.88v-9.35 0z" stroke="#000" stroke-width="1.5" stroke-miterlimit="2.49" stroke-linecap="round" stroke-linejoin="round"/><path fill-rule="evenodd" clip-rule="evenodd" d="M604.2 328.66a3.89 3.89 0 00-3.88-3.89h-100.5a3.89 3.89 0 00-3.88 3.89V338a3.89 3.89 0 003.89 3.89h100.49a3.89 3.89 0 003.88-3.89v-9.34z" fill="url(#d)" stroke="#000" stroke-width="1.5" stroke-miterlimit="2.49" stroke-linecap="round" stroke-linejoin="round"/><path clip-rule="evenodd" d="M604.27 328.66a3.89 3.89 0 00-3.88-3.89h-9.6a3.89 3.89 0 00-3.88 3.89V338a3.88 3.88 0 003.88 3.89h9.6a3.89 3.89 0 003.88-3.89v-9.34 0z" stroke="#000" stroke-width="1.5" stroke-miterlimit="2.49" stroke-linecap="round" stroke-linejoin="round"/><path fill-rule="evenodd" clip-rule="evenodd" d="M300.34 181.28a3.89 3.89 0 00-3.88-3.9h-9.6a3.88 3.88 0 00-3.88 3.9v9.34a3.89 3.89 0 003.89 3.88h9.59a3.89 3.89 0 003.88-3.88v-9.34z" fill="#6F4AB3" stroke="#000" stroke-width="1.5" stroke-miterlimit="2.49" stroke-linecap="round" stroke-linejoin="round"/><path d="M286.96 185.7l3.35 4.4 6.06-8.04" stroke="#000" stroke-width="1.5" stroke-miterlimit="2.49" stroke-linecap="round" stroke-linejoin="round"/><path fill-rule="evenodd" clip-rule="evenodd" d="M546.1 79.67a3.89 3.89 0 00-3.88-3.9h-42.53a3.89 3.89 0 00-3.89 3.9V89a3.89 3.89 0 003.89 3.88h42.53A3.89 3.89 0 00546.1 89v-9.34z" fill="#fff" stroke="#000" stroke-width="1.5" stroke-miterlimit="2.49" stroke-linecap="round" stroke-linejoin="round"/><path fill-rule="evenodd" clip-rule="evenodd" d="M483.3 79.67a3.89 3.89 0 00-3.88-3.9h-42.53a3.89 3.89 0 00-3.89 3.9V89a3.89 3.89 0 003.89 3.88h42.53a3.89 3.89 0 003.89-3.88v-9.34z" fill="#6F4AB3"/><path fill-rule="evenodd" clip-rule="evenodd" d="M609.18 79.67a3.89 3.89 0 00-3.89-3.9h-42.53a3.89 3.89 0 00-3.88 3.9V89a3.89 3.89 0 003.88 3.88h42.53a3.89 3.89 0 003.89-3.88v-9.34z" fill="#000"/><path d="M507.29 336.35a2.45 2.45 0 002.41-2.5 2.45 2.45 0 00-2.41-2.48 2.45 2.45 0 00-2.42 2.49 2.45 2.45 0 002.42 2.49z" fill="#6F4AB3" stroke="#000" stroke-width="1.5" stroke-miterlimit="2.49" stroke-linecap="round" stroke-linejoin="round"/><path d="M518.1 336.35a2.45 2.45 0 002.41-2.5 2.45 2.45 0 00-2.41-2.48 2.45 2.45 0 00-2.42 2.49 2.45 2.45 0 002.42 2.49z" stroke="#000" stroke-width="1.5" stroke-miterlimit="2.49" stroke-linecap="round" stroke-linejoin="round"/><path d="M527.76 336.35a2.45 2.45 0 002.42-2.5 2.45 2.45 0 00-2.42-2.48 2.45 2.45 0 00-2.41 2.49 2.45 2.45 0 002.41 2.49z" stroke="#6F4AB3" stroke-width="1.5" stroke-miterlimit="2.49" stroke-linecap="round" stroke-linejoin="round"/><path d="M595.56 328.35l-.13 10.17m-4.95-5.22h10.18" stroke="#000" stroke-width="1.5" stroke-miterlimit="2.49" stroke-linecap="round" stroke-linejoin="round"/><path fill-rule="evenodd" clip-rule="evenodd" d="M164.25 143.36a14 14 0 00-14 14v16.77a14 14 0 0014 14h34.86a1 1 0 01.81.42l12.02 16.82a1 1 0 001.81-.58v-15.66a1 1 0 011-1h2.7a14 14 0 0014-14v-16.77a14 14 0 00-14-14h-53.2z" fill="#6F4AB3"/><mask id="c" fill="#fff"><path fill-rule="evenodd" clip-rule="evenodd" d="M158 142.32a14 14 0 00-14 14v16.77a14 14 0 0014 14h34.86a1 1 0 01.82.41l12.01 16.83a1 1 0 001.82-.58v-15.66a1 1 0 011-1h2.7a14 14 0 0014-14v-16.77a14 14 0 00-14-14H158z"/></mask><path d="M205.7 204.33l.8-.58-.8.58zm-12.02-16.83l.81-.58-.81.58zM145 156.32a13 13 0 0113-13v-2a15 15 0 00-15 15h2zm0 16.77v-16.77h-2v16.77h2zm13 13a13 13 0 01-13-13h-2a15 15 0 0015 15v-2zm34.86 0H158v2h34.86v-2zm13.65 17.66l-12.02-16.83-1.63 1.17 12.02 16.82 1.63-1.16zm0-15.66v15.66h2v-15.66h-2zm4.7-2h-2.7v2h2.7v-2zm13-13a13 13 0 01-13 13v2a15 15 0 0015-15h-2zm0-16.77v16.77h2v-16.77h-2zm-13-13a13 13 0 0113 13h2a15 15 0 00-15-15v2zm-53.21 0h53.2v-2H158v2zm50.5 44.77v-2a2 2 0 00-2 2h2zm-3.62 16.82a2 2 0 003.63-1.16h-2l-1.63 1.16zm-12.02-16.82l1.63-1.17a2 2 0 00-1.63-.83v2z" fill="#000" mask="url(#c)"/><path d="M157.53 157.93h30.2m4.17 0h16.65m-51.02 15.62h12.5m4.17 0h34.35m-51.02-8.33h51.02" stroke="#000" stroke-width="1.5" stroke-linecap="round"/><path d="M410.53 51.8c5.64-3.26 14.8-8.02 18.33-7.13 11.51 2.91-10.58 13.6-5.64 7.07 6.82-9.03 23.27-12.05 21.16-6.77-2.82 7.04-1.97 8.56 5.64 5.35 4.94-2.08 18.34-8.32 15.52-2.67-2.82 5.64 2.82 5.64 10.58.89" stroke="#6F4AB3" stroke-width="1.5" stroke-linecap="round"/></g><rect x=".5" y=".5" width="792" height="419" rx="23.5" stroke="#F7F7F8"/><defs><linearGradient id="d" x1="841.04" y1="613.68" x2="859.13" y2="604.07" gradientUnits="userSpaceOnUse"><stop stop-color="#fff"/><stop offset="1" stop-color="#B3B3B3"/></linearGradient><clipPath id="a"><rect width="793" height="420" rx="24" fill="#fff"/></clipPath></defs></svg>