<svg width="40" height="40" fill="none" xmlns="http://www.w3.org/2000/svg"><rect width="40" height="40" rx="10" fill="#F7F7F8"/><path d="M35.3 9.08H4.44v22.74H35.3V9.08z" fill="#F7F7F8" stroke="#000" stroke-width="1.75" stroke-miterlimit="10" stroke-linecap="round" stroke-linejoin="round"/><path d="M12.01 15.8l1.27 1.27m-1.27 0l1.27-1.27m-1.27 10.8l1.27 1.28m-1.27 0l1.27-1.27m9.57-10.81l1.27 1.27m-1.27 0l1.27-1.27m5.96 10.8l1.27 1.28m-1.27 0l1.27-1.27M19.24 23l1.27 1.27m-1.27 0l1.27-1.26" stroke="#6F4AB3" stroke-width=".75" stroke-miterlimit="10" stroke-linecap="round" stroke-linejoin="round"/><path d="M10.84 14.63v3.6H7.22m.03.04h3.62v3.6H7.25" stroke="#000" stroke-width=".75" stroke-miterlimit="10" stroke-linecap="round" stroke-linejoin="round"/><path d="M7.22 21.84h3.62v3.6H7.22m0 0h3.62v3.6m3.61-14.41v3.6h-3.61v-3.6m3.62 3.6h-3.62v3.6h3.62v-3.6zm0 3.61h-3.62v3.6h3.62v-3.6z" stroke="#000" stroke-width=".75" stroke-miterlimit="10" stroke-linecap="round" stroke-linejoin="round"/><path d="M10.84 29.04v-3.6h3.61v3.6m3.62-14.41v3.6h-3.62v-3.6m3.62 3.6h-3.62v3.6h3.62v-3.6zm0 3.61h-3.62v3.6h3.62v-3.6z" stroke="#000" stroke-width=".75" stroke-miterlimit="10" stroke-linecap="round" stroke-linejoin="round"/><path d="M14.45 29.04v-3.6h3.62v3.6m3.61-14.41v3.6h-3.61v-3.6m3.61 3.6h-3.61v3.6h3.61v-3.6zm0 3.61h-3.61v3.6h3.61v-3.6z" stroke="#000" stroke-width=".75" stroke-miterlimit="10" stroke-linecap="round" stroke-linejoin="round"/><path d="M18.07 29.04v-3.6h3.6v3.6m3.65-7.16h-3.61v-3.6h3.61" stroke="#000" stroke-width=".75" stroke-miterlimit="10" stroke-linecap="round" stroke-linejoin="round"/><path d="M25.3 25.44h-3.62v-3.6h3.61m.01-4.77v11.97m3.6-10.81h-3.6v-3.6" stroke="#000" stroke-width=".75" stroke-miterlimit="10" stroke-linecap="round" stroke-linejoin="round"/><path d="M28.9 25.44h-3.6v-3.6h3.6m0-4.77v11.97m3.62-10.81h-3.61v-3.6m3.61 10.81h-3.61v-3.6h3.61" stroke="#000" stroke-width=".75" stroke-miterlimit="10" stroke-linecap="round" stroke-linejoin="round"/><path d="M10.84 10.37v-2.6m18.06 2.6v-2.6m-9.03 2.6v-2.6" stroke="#000" stroke-width="1.75" stroke-miterlimit="10" stroke-linecap="round" stroke-linejoin="round"/><path d="M32.52 14.63H7.22v14.41h25.3v-14.4z" stroke="#000" stroke-width="1.23" stroke-miterlimit="10" stroke-linecap="round" stroke-linejoin="round"/></svg>