<svg width="40" height="40" fill="none" xmlns="http://www.w3.org/2000/svg"><rect width="40" height="40" rx="10" fill="#F7F7F8"/><path d="M17.44 25.63h5.12l2.78 7.86H14.66l2.78-7.86z" fill="#F7F7F8" stroke="#000" stroke-width="1.75" stroke-miterlimit="10" stroke-linecap="round" stroke-linejoin="round"/><path d="M6.94 6.67h26.12c.76 0 1.38.62 1.38 1.39v18.96c0 .77-.62 1.4-1.38 1.4H6.94a1.4 1.4 0 01-1.38-1.4V8.06c0-.77.62-1.4 1.38-1.4z" fill="#F7F7F8"/><path d="M6.94 6.67h26.12c.76 0 1.38.62 1.38 1.39v18.96c0 .77-.62 1.4-1.38 1.4H6.94a1.4 1.4 0 01-1.38-1.4V8.06c0-.77.62-1.4 1.38-1.4z" stroke="#000" stroke-width="1.75" stroke-miterlimit="10" stroke-linecap="round" stroke-linejoin="round"/><path d="M5.56 9.44h28.88M5.56 25.63h28.88" stroke="#000" stroke-width="1.23" stroke-miterlimit="10" stroke-linecap="round" stroke-linejoin="round"/><path d="M31.94 11.94H21.25v11.2h10.7v-11.2z" fill="#6F4AB3" stroke="#6F4AB3" stroke-width="1.23" stroke-miterlimit="10" stroke-linecap="round" stroke-linejoin="round"/><path d="M8.06 11.94h10.69M8.06 14.18h10.69M8.06 16.42h10.69M8.06 18.66h10.69M8.06 20.9h10.69M8.06 23.13h10.69" stroke="#000" stroke-width="1.23" stroke-miterlimit="10" stroke-linecap="round" stroke-linejoin="round"/><path d="M26.6 13.93l.82 2.09 2.15-.66-1.12 1.95 1.85 1.26-2.22.34.16 2.24-1.64-1.52-1.65 1.52.16-2.24-2.22-.34 1.85-1.26-1.11-1.95 2.14.66.83-2.1z" fill="#F7F7F8" stroke="#F7F7F8" stroke-width=".25" stroke-miterlimit="10" stroke-linecap="round" stroke-linejoin="round"/></svg>