<svg width="40" height="40" fill="none" xmlns="http://www.w3.org/2000/svg"><rect width="40" height="40" rx="10" fill="#F7F7F8"/><path d="M30.96 34.44H8.89V5.56h15.25l6.82 6.81v22.07z" fill="#F7F7F8"/><path fill-rule="evenodd" clip-rule="evenodd" d="M25.02 22.51l-1.27-.23a2.87 2.87 0 00-.34-.77l.76-1.1c.06-.07.06-.22-.04-.32l-.9-.9a.28.28 0 00-.34-.03l-1.07.76c-.24-.16-.52-.24-.78-.34l-.22-1.27c-.04-.12-.16-.22-.28-.22h-1.28c-.12 0-.24.1-.26.22l-.24 1.3a3.2 3.2 0 00-.74.3l-1.08-.72c-.09-.1-.23-.07-.33.03l-.9.9c-.1.1-.1.24-.04.32l.72 1.07c-.12.25-.22.5-.3.77l-1.27.23c-.11 0-.21.12-.21.25v1.3c0 .11.09.22.2.22l1.28.26c.08.27.18.52.34.74l-.72 1.06c-.1.1-.07.25.03.34l.9.91c.1.08.24.12.34.04l1.04-.72c.24.14.5.22.74.28L19 28.5c.02.13.14.21.26.21h1.28a.3.3 0 00.28-.21l.22-1.27c.26-.1.54-.18.78-.3l1.06.71c.08.07.23.07.32-.01l.9-.92c.1-.1.13-.24.03-.34l-.72-1.1c.16-.22.26-.46.34-.73l1.27-.26c.11 0 .21-.1.21-.22v-1.3c0-.12-.1-.25-.2-.25zm-5.08 3.12a2.22 2.22 0 11-.03-4.44 2.22 2.22 0 01.03 4.44z" fill="#6F4AB3"/><path d="M30.96 34.44H8.89V5.56h15.25l6.82 6.81v22.07z" stroke="#000" stroke-width="1.75" stroke-miterlimit="10" stroke-linecap="round" stroke-linejoin="round"/><path d="M28.33 15H11.51v16.82h16.82V15z" stroke="#6F4AB3" stroke-width="1.23" stroke-miterlimit="10" stroke-linecap="round" stroke-linejoin="round"/><path d="M24.14 5.56v6.81h6.82" stroke="#000" stroke-width="1.75" stroke-miterlimit="10" stroke-linecap="round" stroke-linejoin="round"/></svg>