<svg width="40" height="40" fill="none" xmlns="http://www.w3.org/2000/svg"><rect width="40" height="40" rx="10" fill="#F7F7F8"/><path d="M20 34.44a14.44 14.44 0 100-28.88 14.44 14.44 0 000 28.88z" fill="#F7F7F8"/><path d="M20 34.44a14.44 14.44 0 100-28.88 14.44 14.44 0 000 28.88z" stroke="#000" stroke-width="1.75" stroke-miterlimit="10" stroke-linecap="round" stroke-linejoin="round"/><path d="M20 34.44c3.99 0 7.22-6.46 7.22-14.44C27.22 12.02 24 5.56 20 5.56c-3.99 0-7.22 6.46-7.22 14.44 0 7.98 3.23 14.44 7.22 14.44zM5.56 20h28.88" stroke="#000" stroke-width="1.75" stroke-miterlimit="10" stroke-linecap="round" stroke-linejoin="round"/><path d="M10.22 9.37A15.6 15.6 0 0020 12.7c3.77 0 7.2-1.26 9.78-3.33M10.22 30.63A15.6 15.6 0 0120 27.3c3.77 0 7.2 1.26 9.78 3.33" stroke="#000" stroke-width="1.75" stroke-miterlimit="10" stroke-linecap="round" stroke-linejoin="round"/><path d="M34.44 9.13a3.57 3.57 0 00-3.57 3.57c0-1.97-1.6-3.57-3.57-3.57 1.97 0 3.57-1.6 3.57-3.57 0 1.97 1.6 3.57 3.57 3.57z" fill="#6F4AB3" stroke="#6F4AB3" stroke-width="1.23" stroke-miterlimit="10" stroke-linecap="round" stroke-linejoin="round"/></svg>