<svg width="40" height="40" fill="none" xmlns="http://www.w3.org/2000/svg"><rect width="40" height="40" rx="10" fill="#F7F7F8"/><path d="M14.03 6.67H26.5c.77 0 1.4.62 1.4 1.39v24.03c0 .77-.63 1.4-1.4 1.4H14.03a1.4 1.4 0 01-1.39-1.4V8.06c0-.77.63-1.4 1.4-1.4z" fill="#F7F7F8" stroke="#000" stroke-width="1.75" stroke-miterlimit="10" stroke-linecap="round" stroke-linejoin="round"/><path d="M5 20.08h3.63m-1.55-5.02l2.57 2.57M7.08 25.1l2.57-2.57m25.88-2.45H31.9m1.56 5.02l-2.58-2.57m2.58-7.47l-2.58 2.57" stroke="#6F4AB3" stroke-width="1.75" stroke-miterlimit="10" stroke-linecap="round" stroke-linejoin="round"/><path d="M26.1 11.07H14.43v11.66H26.1V11.07z" fill="#6F4AB3" stroke="#6F4AB3" stroke-width="1.23" stroke-miterlimit="10" stroke-linecap="round" stroke-linejoin="round"/><path d="M19.16 15.78l-1.61.66a.8.8 0 00.6 1.48l1.61-.67a.8.8 0 00-.6-1.47z" stroke="#F7F7F8" stroke-width="1.23" stroke-miterlimit="10" stroke-linecap="round" stroke-linejoin="round"/><path d="M19.77 17.24l-1.6.67a.8.8 0 00.6 1.47l1.6-.66a.8.8 0 00-.6-1.48zm.61 1.48l-1.6.66a.8.8 0 00.6 1.48l1.6-.67a.8.8 0 00-.6-1.47zm1.41-3.08a3.05 3.05 0 01-3.98-1.65.8.8 0 01.43-1.04.8.8 0 011.04.43c.3.75 1.16 1.1 1.9.8a.8.8 0 11.6 1.46z" stroke="#F7F7F8" stroke-width="1.23" stroke-miterlimit="10" stroke-linecap="round" stroke-linejoin="round"/><path d="M20.98 20.19l1.01-.42a2.4 2.4 0 00.13-4.36" stroke="#F7F7F8" stroke-width="1.23" stroke-miterlimit="10" stroke-linecap="round" stroke-linejoin="round"/><path d="M22.69 8.17h-4.85a.39.39 0 00-.38.4c0 .2.17.38.38.38h4.85c.22 0 .39-.17.39-.39a.39.39 0 00-.4-.39z" fill="#000"/><path d="M16.89 25.78a.77.77 0 00-.4-.11.8.8 0 00-.63.32.78.78 0 00-.63-.32.77.77 0 00-.4.11.9.9 0 00-.3 1.19c.2.34.95.92 1.23 1.13a.17.17 0 00.2 0c.28-.2 1.04-.8 1.22-1.13a.9.9 0 00-.3-1.19zm4.41 0a.77.77 0 00-.4-.11.8.8 0 00-.63.32.78.78 0 00-.63-.32.77.77 0 00-.4.11.9.9 0 00-.3 1.19c.19.34.95.92 1.23 1.13a.17.17 0 00.2 0c.27-.2 1.04-.8 1.22-1.13a.9.9 0 00-.3-1.19zm4.4 0a.77.77 0 00-.4-.11.8.8 0 00-.63.32.78.78 0 00-.63-.32.77.77 0 00-.4.11.9.9 0 00-.29 1.19c.18.34.94.92 1.22 1.13a.17.17 0 00.2 0c.28-.2 1.04-.8 1.22-1.13a.9.9 0 00-.29-1.19z" fill="#6F4AB3"/></svg>