<svg width="40" height="40" fill="none" xmlns="http://www.w3.org/2000/svg"><g clip-path="url(#a)"><rect width="40" height="40" rx="10" fill="#F7F7F8"/><path d="M12.15 12.85a7.85 7.85 0 0115.7 0" stroke="#000" stroke-width="1.75" stroke-miterlimit="10" stroke-linecap="round" stroke-linejoin="round"/><path d="M33.06 34.6H6.94a1.4 1.4 0 01-1.38-1.4V14.25c0-.77.62-1.39 1.38-1.39h26.12c.76 0 1.38.62 1.38 1.39V33.2c0 .76-.62 1.38-1.38 1.38z" fill="#F7F7F8"/><path d="M33.06 34.6H6.94a1.4 1.4 0 01-1.38-1.4V14.25c0-.77.62-1.39 1.38-1.39h26.12c.76 0 1.38.62 1.38 1.39V33.2c0 .76-.62 1.38-1.38 1.38zM5.56 23.72h28.88" stroke="#000" stroke-width="1.75" stroke-miterlimit="10" stroke-linecap="round" stroke-linejoin="round"/><path d="M20 26.5a2.78 2.78 0 100-5.56 2.78 2.78 0 000 5.56z" fill="#6F4AB3" stroke="#6F4AB3" stroke-width="1.23" stroke-miterlimit="10" stroke-linecap="round" stroke-linejoin="round"/></g><defs><clipPath id="a"><rect width="40" height="40" rx="10" fill="#fff"/></clipPath></defs></svg>