<svg width="19" height="19" viewBox="0 0 19 19" fill="none" xmlns="http://www.w3.org/2000/svg">
<g clip-path="url(#clip0_1_770)">
<path d="M6.22375 8.3183C6.22375 8.00766 5.97189 7.7558 5.66125 7.7558H2.23022C1.91959 7.7558 1.66772 8.00766 1.66772 8.3183V14.3928H6.22375V8.3183Z" fill="white"/>
<path d="M12.0222 5.69325C12.0222 5.38261 11.7703 5.13075 11.4597 5.13075H8.02863C7.71799 5.13075 7.46613 5.38261 7.46613 5.69325V14.3928H12.0222V5.69325Z" fill="white"/>
<path d="M17.8205 3.06834C17.8205 2.75771 17.5686 2.50584 17.258 2.50584H13.827C13.5163 2.50584 13.2646 2.75771 13.2646 3.06834V14.3928H17.8205V3.06834Z" fill="white"/>
<path d="M18.1815 15.5178H1.30652C0.99588 15.5178 0.744019 15.7696 0.744019 16.0803C0.744019 16.3909 0.99588 16.6428 1.30652 16.6428H18.1815C18.4922 16.6428 18.744 16.3909 18.744 16.0803C18.744 15.7696 18.4922 15.5178 18.1815 15.5178Z" fill="white"/>
</g>
<defs>
<clipPath id="clip0_1_770">
<rect width="18" height="18" fill="white" transform="translate(0.744019 0.537094)"/>
</clipPath>
</defs>
</svg>
