<svg width="19" height="19" viewBox="0 0 19 19" fill="none" xmlns="http://www.w3.org/2000/svg">
<g clip-path="url(#clip0_1_764)">
<path d="M13.9628 1.77087C12.201 1.77087 10.5943 2.73492 9.74402 4.19078C8.89376 2.73492 7.28702 1.77087 5.52527 1.77087C2.73713 1.77087 0.744019 3.94925 0.744019 7.06849C0.744019 10.0405 2.84837 11.6931 6.25912 14.4317C7.19382 15.1821 8.24387 16.0251 9.40205 17.0118L9.74402 17.3033L10.086 17.0118C11.2442 16.0251 12.2943 15.1821 13.2289 14.4317C16.6397 11.6931 18.744 10.0405 18.744 7.06853C18.744 3.94925 16.7509 1.77087 13.9628 1.77087Z" fill="white"/>
</g>
<defs>
<clipPath id="clip0_1_764">
<rect width="18" height="18" fill="white" transform="translate(0.744019 0.537094)"/>
</clipPath>
</defs>
</svg>
