<svg width="19" height="17" viewBox="0 0 19 17" fill="none" xmlns="http://www.w3.org/2000/svg">
<g clip-path="url(#clip0_1_779)">
<path d="M11.244 5.73636C11.244 7.80742 9.56506 9.48627 7.494 9.48627C5.42294 9.48627 3.74396 7.80742 3.74396 5.73636C3.74396 3.6653 5.42294 1.98631 7.494 1.98631C9.56506 1.98631 11.244 3.6653 11.244 5.73636Z" fill="white"/>
<path d="M10.6816 10.9863H4.30647C2.34225 10.9863 0.744019 12.5845 0.744019 14.5488V17.1738C0.744019 17.4843 0.996017 17.7363 1.30652 17.7363H13.6815C13.992 17.7363 14.244 17.4843 14.244 17.1738V14.5488C14.244 12.5845 12.6458 10.9863 10.6816 10.9863Z" fill="white"/>
<path d="M18.5648 8.32378L15.9398 5.88632C15.834 5.78799 15.696 5.73705 15.5573 5.73705C15.1853 5.73705 14.994 6.05359 14.994 6.29886V7.98636H11.994C11.5793 7.98636 11.2441 8.32227 11.2441 8.73631C11.2441 9.15036 11.5793 9.48627 11.994 9.48627H14.994V11.1738C14.994 11.4858 15.2475 11.7363 15.5565 11.7363C15.696 11.7363 15.8333 11.6846 15.9398 11.5863L18.5648 9.14885C18.6788 9.04228 18.744 8.89232 18.744 8.73631C18.744 8.58031 18.6788 8.43034 18.5648 8.32378Z" fill="white"/>
</g>
<defs>
<clipPath id="clip0_1_779">
<rect width="18" height="18" fill="white" transform="translate(0.744019 0.755844)"/>
</clipPath>
</defs>
</svg>
