<svg width="18" height="19" viewBox="0 0 18 19" fill="none" xmlns="http://www.w3.org/2000/svg">
<path d="M8.9375 5.00781C6.4375 5.00781 4.44531 7.03906 4.44531 9.5C4.44531 12 6.4375 13.9922 8.9375 13.9922C11.3984 13.9922 13.4297 12 13.4297 9.5C13.4297 7.03906 11.3984 5.00781 8.9375 5.00781ZM8.9375 12.4297C7.33594 12.4297 6.00781 11.1406 6.00781 9.5C6.00781 7.89844 7.29688 6.60938 8.9375 6.60938C10.5391 6.60938 11.8281 7.89844 11.8281 9.5C11.8281 11.1406 10.5391 12.4297 8.9375 12.4297ZM14.6406 4.85156C14.6406 4.26562 14.1719 3.79688 13.5859 3.79688C13 3.79688 12.5312 4.26562 12.5312 4.85156C12.5312 5.4375 13 5.90625 13.5859 5.90625C14.1719 5.90625 14.6406 5.4375 14.6406 4.85156ZM17.6094 5.90625C17.5312 4.5 17.2188 3.25 16.2031 2.23438C15.1875 1.21875 13.9375 0.90625 12.5312 0.828125C11.0859 0.75 6.75 0.75 5.30469 0.828125C3.89844 0.90625 2.6875 1.21875 1.63281 2.23438C0.617188 3.25 0.304688 4.5 0.226562 5.90625C0.148438 7.35156 0.148438 11.6875 0.226562 13.1328C0.304688 14.5391 0.617188 15.75 1.63281 16.8047C2.6875 17.8203 3.89844 18.1328 5.30469 18.2109C6.75 18.2891 11.0859 18.2891 12.5312 18.2109C13.9375 18.1328 15.1875 17.8203 16.2031 16.8047C17.2188 15.75 17.5312 14.5391 17.6094 13.1328C17.6875 11.6875 17.6875 7.35156 17.6094 5.90625ZM15.7344 14.6562C15.4609 15.4375 14.8359 16.0234 14.0938 16.3359C12.9219 16.8047 10.1875 16.6875 8.9375 16.6875C7.64844 16.6875 4.91406 16.8047 3.78125 16.3359C3 16.0234 2.41406 15.4375 2.10156 14.6562C1.63281 13.5234 1.75 10.7891 1.75 9.5C1.75 8.25 1.63281 5.51562 2.10156 4.34375C2.41406 3.60156 3 3.01562 3.78125 2.70312C4.91406 2.23438 7.64844 2.35156 8.9375 2.35156C10.1875 2.35156 12.9219 2.23438 14.0938 2.70312C14.8359 2.97656 15.4219 3.60156 15.7344 4.34375C16.2031 5.51562 16.0859 8.25 16.0859 9.5C16.0859 10.7891 16.2031 13.5234 15.7344 14.6562Z" fill="#1779BA"/>
</svg>
