<svg width="16" height="17" viewBox="0 0 16 17" fill="none" xmlns="http://www.w3.org/2000/svg">
<path d="M8.03125 0.75C3.75 0.75 0.28125 4.21875 0.28125 8.5C0.28125 12.7812 3.75 16.25 8.03125 16.25C12.3125 16.25 15.7812 12.7812 15.7812 8.5C15.7812 4.21875 12.3125 0.75 8.03125 0.75ZM11.8125 6.0625L10.5625 12.0625C10.4688 12.5 10.2188 12.5938 9.84375 12.4062L7.90625 10.9688L6.96875 11.875C6.875 11.9688 6.78125 12.0625 6.59375 12.0625L6.71875 10.0938L10.3125 6.84375C10.4688 6.71875 10.2812 6.625 10.0625 6.75L5.625 9.5625L3.71875 8.96875C3.3125 8.84375 3.3125 8.53125 3.8125 8.34375L11.2812 5.46875C11.625 5.34375 11.9375 5.5625 11.8125 6.0625Z" fill="#1779BA"/>
</svg>
