<svg width="23" height="15" viewBox="0 0 23 15" fill="none" xmlns="http://www.w3.org/2000/svg">
<path d="M21.6797 2.38281C21.4453 1.44531 20.7031 0.703125 19.8047 0.46875C18.125 0 11.4844 0 11.4844 0C11.4844 0 4.80469 0 3.125 0.46875C2.22656 0.703125 1.48438 1.44531 1.25 2.38281C0.78125 4.02344 0.78125 7.53906 0.78125 7.53906C0.78125 7.53906 0.78125 11.0156 1.25 12.6953C1.48438 13.6328 2.22656 14.3359 3.125 14.5703C4.80469 15 11.4844 15 11.4844 15C11.4844 15 18.125 15 19.8047 14.5703C20.7031 14.3359 21.4453 13.6328 21.6797 12.6953C22.1484 11.0156 22.1484 7.53906 22.1484 7.53906C22.1484 7.53906 22.1484 4.02344 21.6797 2.38281ZM9.29688 10.7031V4.375L14.8438 7.53906L9.29688 10.7031Z" fill="#1779BA"/>
</svg>
