<svg width="332" height="200" fill="none" xmlns="http://www.w3.org/2000/svg"><rect width="332" height="200" rx="16" fill="#FCFCFA"/><path d="M118.72 142.36c-4.37 0-8-2.88-8.02-10.27-.09-21.81-.24-55.14-.28-80.53-6.4.07-10.71.12-12.16.12-5.5 0-9.14 1.4-9.14 8.24 0 25.82.2 67.8.3 93.62.02 7.38 3.65 10.27 8.02 10.27 31.28 0 69.96-.48 101.22-1.5 3.27-.1 8.67-1.44 8.67-9.18 0-1.84-.07-6.08-.18-11.89-28.6.76-61.3 1.12-88.43 1.12z" fill="#6F4AB3"/><path d="M183.85 109.52c0-2.26-1.97-4.14-5.17-4.14-21.57 0-44.28.31-46.94.31-2.65 0-4.4.68-4.4 4 0 12.48.09-1.53.14 10.95.01 3.56 1.77 4.96 3.87 4.96 15.12 0 33.82-.23 48.93-.72 1.58-.05 3.87-.7 3.87-4.44-.01-3.85-.3-7.18-.3-10.92z" fill="#6F4AB3"/><path d="M231.76 33.09a8.75 8.75 0 00-4.27-7.36c-3.59-2.21-7.9-1.8-11.94-1.8-10 0-20 .05-30 .1-16.2.1-32.39.26-48.59.43-4.1.04-8.19.1-12.28.12-1.95.02-3.92-.03-5.82.5a6.7 6.7 0 00-4.88 5.1c-.4 1.7-.33 3.45-.33 5.17v5.3l.02 11.38c.02 8.34.04 16.68.08 25.02l.18 48.18c.01 3.37.06 6.96 2.24 9.74 1.76 2.24 4.31 2.92 7.05 2.92a3366.5 3366.5 0 0097.85-1.4c2.64-.09 5.31-.03 7.69-1.34 4.3-2.38 4.3-7.25 4.24-11.56-.15-11.2-.4-22.38-.6-33.56-.28-15.54-.53-31.07-.62-46.6l-.02-10.34c0-.76-1.18-.76-1.18 0 0 14.82.2 29.65.44 44.47.2 12.93.46 25.86.69 38.78.06 3.32.14 6.64.14 9.96 0 2.87-.66 5.89-3.2 7.55-2.18 1.43-4.73 1.38-7.23 1.46-18.2.56-36.41.91-54.62 1.14a3797.32 3797.32 0 01-40.53.28c-3.05 0-6.4.43-8.73-1.96-2.5-2.59-2.43-6.45-2.43-9.79l-.05-10.35-.09-23.71c-.05-16.08-.11-32.18-.14-48.26 0-3.37-.16-6.78.02-10.15.16-2.99 1.39-5.48 4.42-6.3 1.79-.48 3.65-.43 5.49-.43l4.66-.05a10854.54 10854.54 0 0168.23-.58l14.55-.04h7.5c2 0 3.99.15 5.86.94 2.91 1.23 4.98 3.81 5.03 7.03 0 .76 1.18.76 1.17 0zm7.48 7.65l-.06-9.86c0-2.33.27-4.77-.66-6.97-1.76-4.17-6.37-5.87-10.62-5.91-.75 0-.75 1.17 0 1.18 3.98.04 8.5 1.68 9.78 5.84.67 2.18.33 4.75.33 7l.05 8.72c0 .75 1.18.75 1.18 0zm-131.73 98.17c.04 2.93.55 6.06 2.56 8.32a8.04 8.04 0 006.06 2.53c7.96.1 15.93-.03 23.89-.08 16.79-.12 33.57-.34 50.35-.7 9-.19 18-.42 27-.71.75-.03.75-1.2 0-1.18-15.75.5-31.5.84-47.24 1.08-15.96.24-31.91.38-47.87.4-2.08 0-4.15.05-6.23.01a7.3 7.3 0 01-3.67-.97c-2.95-1.79-3.62-5.52-3.67-8.7-.01-.75-1.18-.75-1.18 0z" fill="#020202"/><path d="M143.1 89.75l-.23-9.05c-.03-1.09.17-2.53-.4-3.5-.52-.94-1.62-1.1-2.6-1.12-1.6-.03-3.2-.02-4.8-.03-1.57-.02-3.15-.12-4.72-.1-2.13.05-4.19.83-4.39 3.23-.11 1.43.05 2.9.08 4.33l.11 4.37c.04 1.33-.1 2.8.17 4.1.23 1.04 1.02 1.6 2.04 1.74 1.6.23 3.3.08 4.9.1 1.78.01 3.56.1 5.33.1 1.12-.01 2.36-.15 3.29-.84 1.09-.8 1.25-2.06 1.22-3.33-.02-.83-1.32-.83-1.3 0 .02 1.08-.08 2.09-1.18 2.55-.9.37-1.93.33-2.88.29-1.19-.05-2.37-.06-3.55-.07l-4.31-.03c-.62 0-1.6.16-2.07-.32-.4-.39-.28-1.21-.28-1.71l-.05-1.94-.2-7.45c-.02-.98-.29-2.38.53-3.13.71-.65 1.87-.7 2.78-.7 2.72.01 5.42.1 8.14.12.67 0 1.65-.15 2.24.16.6.3.54.97.55 1.55l.06 2.27.22 8.4c.02.85 1.33.85 1.3.01zm36.43 0l-.23-9.05c-.02-1.09.18-2.53-.39-3.5-.53-.94-1.63-1.1-2.6-1.12-1.6-.03-3.2-.02-4.8-.03-1.58-.02-3.16-.12-4.73-.1-2.13.05-4.18.83-4.38 3.23-.12 1.43.04 2.9.07 4.33l.12 4.37c.03 1.33-.1 2.8.16 4.1.23 1.04 1.03 1.6 2.04 1.74 1.6.23 3.3.08 4.9.1 1.78.01 3.56.1 5.33.1a5.6 5.6 0 003.3-.84c1.07-.8 1.24-2.06 1.21-3.33-.01-.83-1.32-.83-1.3 0 .03 1.08-.07 2.09-1.18 2.55-.9.37-1.93.33-2.87.29-1.2-.05-2.37-.06-3.56-.07l-4.31-.03c-.62 0-1.6.16-2.07-.32-.39-.39-.27-1.21-.28-1.71l-.05-1.94-.2-7.45c-.02-.98-.28-2.38.53-3.13.72-.65 1.87-.7 2.78-.7 2.72.01 5.43.1 8.14.12.67 0 1.66-.15 2.25.16.6.3.53.97.55 1.55l.05 2.27.22 8.4c.03.85 1.32.85 1.3.01z" fill="#020202"/><path d="M216.32 89.75l-.33-11c-.01-.53-.06-1.12-.51-1.51-.52-.46-1.41-.51-2.2-.51-1.81 0-8.16-.04-9.52-.1-1.76-.08-3.84.02-4.79 1.18-.55.67-.54 1.51-.52 2.3l.32 11c.02.55.06 1.13.52 1.53.52.45 1.41.5 2.2.5 1.81.01 8.16.05 9.52.1 1.75.09 3.84-.02 4.78-1.18.56-.66.55-1.5.53-2.3z" fill="#6F4AB3"/><path d="M193.18 64.24c-.06-2.62-.13-10.44-.2-13.05-.01-.39-.04-.81-.33-1.1-.33-.32-.9-.35-1.4-.36-1.15 0-61.57-.02-62.44-.07-1.11-.06-2.43.01-3.03.84-.35.48-.34 1.08-.33 1.65.06 2.62.13 10.43.2 13.05.02.38.04.8.33 1.09.33.32.9.35 1.4.36 1.15.01 61.57.03 62.44.08 1.11.06 2.43-.02 3.03-.84.35-.48.35-1.09.33-1.65z" fill="#020202"/><path d="M193.65 64.24c-.1-4.08-.11-8.17-.19-12.26-.01-.78.09-1.74-.57-2.29-.48-.4-1.11-.41-1.7-.42h-1.09l-13.56-.01-21.13-.02c-6.36 0-12.73 0-19.1-.02l-5.78-.02c-1.43 0-3.3-.29-4.52.47-1.56.98-1 3.52-.97 5.07l.1 6.87.04 2.87c.02.82-.06 1.75.7 2.28.57.4 1.33.35 2 .35h12c6.92.02 13.83.02 20.74.02 6.61.01 13.23.01 19.84.03 3.12 0 6.24-.04 9.36.02 2.16.06 3.87-.5 3.83-2.94-.01-.6-.94-.6-.93 0 .01.88-.14 1.57-1.05 1.88-.59.2-1.24.15-1.85.14h-1.5l-5.3-.02-17.92-.03-35.17-.02c-.85 0-1.7.02-2.54 0-.84-.04-1.23-.23-1.27-1.13-.02-.35-.02-.7-.02-1.04l-.05-3.05-.1-6.58c0-.75-.03-1.5-.04-2.25 0-.88.13-1.57 1.05-1.88.6-.21 1.25-.15 1.86-.15l.76.01 4.47.02 37.54.04h19.66c.84.04 1.23.24 1.27 1.14l.02 1.24.1 6.37c.02 1.77.04 3.53.08 5.3.01.6.94.6.93 0z" fill="#020202"/><path d="M182.38 58.49c2.44 2.85 6.5 2 9.39.37 2.63-1.49 6.5-4.64 5.26-8.11-1.21-3.4-5.57-2.32-8.08-1.4A25.06 25.06 0 00180 55l1.7.7c.2-1.84.06-3.96-1.58-5.15-1.66-1.2-3.88-.73-5.67-.09a21.1 21.1 0 00-9.91 7.55l1.82.77c.73-2.05.4-4.39-.97-6.1-1.47-1.83-3.7-2.05-5.9-1.67-1.92.34-3.9 1.37-4.86 3.12-1 1.82-.9 3.96.4 5.58.38.48 1.3.34 1.56-.2 1.53-3.24.08-7.83-4.08-7.63-2.2.1-4.34 1.34-6.07 2.64-.94.7-1.79 1.48-2.58 2.35l-1.11 1.21c-.17.2-1.02 1.28-1.3 1.25l.86.5c-.3-.45-.13-1.76-.14-2.29a76.14 76.14 0 01.07-7.17c.07-1.28-1.91-1.28-1.98 0a68 68 0 00.03 9.36c.1 1.05.77 2.01 1.95 1.47 1.2-.53 2.16-2 3.02-2.93 1.78-1.92 4.35-4.12 7.07-4.4 2.62-.26 3.49 2.6 2.52 4.63l1.56-.2c-.8-1.02-.57-2.55.17-3.55a5.3 5.3 0 013.42-1.83c1.47-.24 2.98-.16 3.93 1.12.92 1.23 1 2.8.5 4.2-.4 1.14 1.2 1.63 1.82.77a18.85 18.85 0 017.44-6.1c1.3-.6 3-1.37 4.46-1.08 1.83.36 1.7 2.45 1.54 3.87-.1.9 1.13 1.27 1.7.71a23.11 23.11 0 016.42-4.47c1.18-.55 2.43-1 3.7-1.33.94-.23 2.32-.49 3.16.17 1.14.89.35 2.52-.35 3.4a12.4 12.4 0 01-3.28 2.79c-2.17 1.3-5.36 2.36-7.3.11-.8-.98-2.2.44-1.38 1.4z" fill="#fff"/><path d="M115.04 41.98c5.8-.06 11.6-.09 17.41-.12l25.09-.13 27.85-.12 25.71-.13c6.22-.03 12.44-.06 18.66-.12l1.6-.02c.76 0 .76-1.19 0-1.18-5.8.06-11.6.1-17.4.13l-25.09.12-27.85.13-25.71.12c-6.22.03-12.44.07-18.66.13l-1.6.01c-.77.01-.77 1.18 0 1.18z" fill="#020202"/><path d="M214.59 166.78c-18.17-4.48-20.54-18.33-21.96-21.65-1.82-4.3-2.33-9.2-4.97-13.07-.82-1.2-1.82-2.26-2.63-3.46a20.4 20.4 0 01-2.58-6.27c-.36-1.42-.66-2.93-.27-4.33.41-1.4 1.73-2.65 3.19-2.48 1.14.14 2.01 1.06 2.78 1.93L200 130.9l.2.42c-2.37-10.97-4.75-31.8-4.72-43.04 0-1.35.03-2.73.5-4 .48-1.26 1.5-2.4 2.83-2.64 2.55-.47 4.42 2.26 5.43 4.64 4.4 10.33 3.25 18.55 5.9 32.88l.71.63a5.08 5.08 0 013.45-4.12c1.8-.57 3.92.02 5.18 1.43.74.83 1.22 1.92 2.15 2.54 1.64 1.11 3.83.3 5.74-.27 1.9-.56 4.51-.52 5.24 1.33.25.66.2 1.42.59 2.02.96 1.49 3.3.46 5.01.88 2.35.58 2.92 3.62 2.99 6.05.17 6.57.15 13.18-.74 19.7-.3 2.11-4.3 11.13-5.46 12.92" fill="#fff"/><path d="M214.75 166.21c-5.36-1.35-10.44-3.79-14.32-7.8a27.44 27.44 0 01-5.76-9.31 147.1 147.1 0 01-3.5-10.33 25.12 25.12 0 00-4.4-8.85 17.68 17.68 0 01-2.9-5c-.63-1.7-1.3-3.66-1.28-5.49.03-2.4 2.14-4.39 4.27-2.49 1.61 1.44 2.96 3.28 4.39 4.9l4.44 5.05 2.3 2.6c.58.67 1.34 1.32 1.71 2.14.3.63 1.22.16 1.08-.46-2.48-11.54-3.78-23.47-4.46-35.25a121.5 121.5 0 01-.24-7.63c.01-1.8.03-3.93 1.44-5.28 1.42-1.38 3.19-.79 4.38.52 2 2.19 2.9 5.52 3.68 8.3a58.92 58.92 0 011.58 8.42c.42 3.36.7 6.73 1.1 10.1.22 1.92.48 3.83.79 5.74l.28 1.7c.08.46.08 1.12.27 1.54.19.38.55.62.86.9.3.26.9.2.98-.26.47-2.98 3.56-4.82 6.35-3.43 1.2.6 1.76 1.7 2.57 2.7a4.1 4.1 0 003.08 1.56c2.47.1 4.85-1.76 7.32-.97 1.3.41 1.3 1.39 1.64 2.51.3 1 1.06 1.6 2.08 1.76 1.08.17 2.15-.12 3.22.01 1.37.17 2.1 1.25 2.48 2.5.35 1.11.42 2.29.45 3.46.05 1.74.08 3.49.08 5.23 0 3.22-.09 6.45-.35 9.65-.18 2.17-.34 4.29-1.07 6.34a79.02 79.02 0 01-2.53 6.16c-.69 1.52-1.36 3.12-2.26 4.53-.4.64.6 1.23 1.01.6.88-1.39 1.54-2.94 2.21-4.43a99.44 99.44 0 002.46-5.87 23.06 23.06 0 001.24-6.12c.35-3.6.46-7.23.46-10.85 0-1.88-.02-3.77-.09-5.64a12.48 12.48 0 00-.52-3.5 4.95 4.95 0 00-1.65-2.52c-.98-.73-2.17-.76-3.34-.7-.6.04-1.27.13-1.85-.03-.92-.26-.93-1.14-1.12-1.9a3.06 3.06 0 00-1.8-2.14c-2.57-1.13-5.03.59-7.6.75-2.09.15-2.73-1.42-3.9-2.8a5.65 5.65 0 00-3.63-1.88 5.62 5.62 0 00-6.08 4.72l.98-.25c-.14-.13-.3-.24-.42-.39-.26-.31-.2-.28-.27-.77-.13-1-.34-2-.5-3.01-.3-1.95-.54-3.9-.77-5.86-.35-3.17-.63-6.36-1.04-9.53a58.52 58.52 0 00-1.68-8.71c-.8-2.83-1.78-6.06-3.76-8.3-2-2.27-5.17-2.4-6.88.28-1.6 2.51-1.08 6.18-.98 9.04.21 6.36.8 12.71 1.53 19.03.78 6.8 1.7 13.63 3.14 20.32l1.08-.46c-.26-.57-.67-.99-1.1-1.46l-2.29-2.6-4.44-5.04c-1.47-1.67-2.93-3.36-4.42-5.01-.98-1.1-2.23-2.22-3.82-1.96-1.43.23-2.53 1.42-2.97 2.75-.6 1.78-.09 3.74.4 5.47a20.83 20.83 0 002.16 5.27c1.03 1.68 2.46 3.07 3.47 4.78 1.95 3.32 2.56 7.2 3.87 10.79.47 1.3.96 2.58 1.41 3.9a31.68 31.68 0 005.2 9.72c4.11 5.06 10 8.14 16.25 9.71.72.15 1.03-.99.3-1.17zM129.3 34.09a2.6 2.6 0 01-1.68 2.42 2.62 2.62 0 01-2.92-.8 2.59 2.59 0 012.47-4.15 2.6 2.6 0 012.12 2.53c.01.76 1.2.76 1.18 0a3.8 3.8 0 00-2.45-3.52 3.77 3.77 0 00-4.17 1.11 3.79 3.79 0 00-.34 4.33 3.8 3.8 0 003.94 1.76 3.8 3.8 0 003.03-3.68c0-.76-1.18-.76-1.19 0z" fill="#020202"/><path d="M141.66 34.09a3.17 3.17 0 11-6.34-.01 3.17 3.17 0 016.34.01z" fill="#020202" stroke="#020202" stroke-width=".13" stroke-miterlimit="10"/><path d="M150.29 37.26a3.16 3.16 0 100-6.33 3.16 3.16 0 000 6.33z" fill="#6F4AB3"/><path d="M199.48 72.43l-.22-6.14c-.02-.76-1.2-.76-1.18 0l.22 6.14c.02.75 1.2.75 1.18 0zm-8.31 5.2a58.9 58.9 0 01-6-4.41c-.24-.21-.58-.25-.83 0-.2.2-.24.63 0 .83a60.31 60.31 0 006.24 4.59c.64.4 1.23-.6.6-1.01zm-.24 9.38c-1.47.25-2.82.9-3.98 1.84-.24.19-.21.63 0 .83.26.23.58.2.83 0a6.7 6.7 0 011.63-.99 8.77 8.77 0 011.83-.54c.3-.05.5-.44.4-.72-.1-.33-.38-.48-.7-.42zm17.4-11.55a20.52 20.52 0 005.91-4c.55-.52-.3-1.36-.83-.83a19.8 19.8 0 01-5.67 3.81c-.29.14-.35.56-.2.81.16.3.5.34.8.2zm-6.31 9.12c.32 1.26.42 2.57.35 3.91a5.38 5.38 0 01-.23 1.37l-.07.2-.06.13-.09.15c-.01.04-.13.18-.05.08-.07.08-.15.16-.23.21-.28.2-.6.27-.94.27-.83 0-1.6-.46-2.1-1.1l.16.29-1.93-4.64c-.13-.32-.43-.56-.8-.46-.3.09-.59.48-.46.8l1.92 4.57a3 3 0 001.4 1.35c.76.41 1.64.59 2.5.41 1.6-.32 2.1-1.8 2.24-3.24a13.8 13.8 0 00-.35-4.66c-.2-.8-1.46-.45-1.26.36zm-20.21 34.69a5.32 5.32 0 012.97 6.03c-.2.81 1.05 1.15 1.26.35a6.62 6.62 0 00-3.57-7.5c-.33-.14-.7-.1-.9.23-.15.28-.08.75.24.89z" fill="#020202"/><path d="M238.27 159.62c.22.07.34.3.44.5l4.48 9.12c.39.8.79 1.73.42 2.53-.33.74-1.17 1.1-1.93 1.37-8.12 2.95-16.2 6.32-24.44 8.87-3.98 1.23-6.25 1.86-5.45-2.92.69-4.13 5.13-8.76 8.17-11.3 3.1-2.58 14.64-9.35 18.31-8.17z" fill="#6F4AB3"/><path d="M201.28 106.02c.26-.18.53-.33.8-.46-.1.05.11-.04.14-.05l.23-.08.45-.12.22-.04c.07 0 .08-.02 0 0 .05 0 .09 0 .13-.02l.47-.02c.15 0 .3 0 .46.02l.13.01c-.07 0-.07 0 0 0l.24.04c.34.07.73-.1.8-.45.08-.33-.1-.73-.45-.8a5.59 5.59 0 00-4.3.84c-.27.19-.42.58-.22.89.2.28.6.45.9.24z" fill="#020202"/></svg>