<svg width="332" height="201" fill="none" xmlns="http://www.w3.org/2000/svg"><rect width="332" height="200" rx="16" fill="#FCFCFA"/><g clip-path="url(#a)"><g clip-path="url(#b)"><path d="M222.38 91.36c-5.37 10.11-9.4 19.01-14.82 31.25-.5 1.14-.76 2.4-1.4 3.46-.9 1.49-2.24 2.65-3.55 3.79a548.43 548.43 0 00-21.04 19.6c-.33.32-.68.67-.75 1.13-.09.53.24 1.04.56 1.49.9 1.27 1.83 2.53 2.8 3.76.49.62 1.08 1.3 1.87 1.34.7.04 1.31-.42 1.86-.86l17.75-14.23c2.13-1.72 4.27-3.43 6.25-5.3 8.32-7.92 13.58-18.45 18.67-28.75" fill="#020202"/><path d="M221.86 91.05a413.4 413.4 0 00-12.06 25.06c-1.04 2.32-2.21 4.63-3.1 7.02-.42 1.17-.77 2.31-1.52 3.33a17.5 17.5 0 01-2.53 2.56 457.7 457.7 0 00-17.64 16.28l-2.86 2.76c-.7.68-1.84 1.47-1.94 2.53-.1 1.18.96 2.25 1.6 3.13.75 1.03 1.5 2.12 2.36 3.05.7.75 1.65 1.25 2.68.9 1.12-.38 2.07-1.39 2.98-2.11l12.7-10.2c4.06-3.25 8.26-6.4 11.84-10.2 6.46-6.87 10.98-15.28 15.17-23.66l1.56-3.15c.34-.7-.7-1.3-1.05-.6-4.03 8.16-8.12 16.45-13.9 23.55-3.06 3.75-6.63 6.91-10.39 9.93l-12.3 9.87c-2.05 1.65-4.06 3.37-6.16 4.94-.4.3-.91.66-1.44.5-.53-.17-.92-.71-1.25-1.13a75.2 75.2 0 01-2.37-3.16c-.29-.4-.9-1.03-.8-1.57.07-.5.72-.95 1.07-1.28.93-.9 1.85-1.8 2.78-2.68 1.85-1.79 3.7-3.57 5.58-5.33a407.2 407.2 0 0111.47-10.49c1.7-1.5 3.65-2.98 4.65-5.07.5-1.05.78-2.18 1.25-3.23l1.56-3.52a459.74 459.74 0 0111.56-24.45c.51-1 1.04-1.98 1.56-2.97.35-.69-.7-1.3-1.06-.6zm-86.69 2.72l-3.58 11.37-1.77 5.62c-.57 1.79-1.13 3.59-2.02 5.24-.37.7.67 1.3 1.04.61a29.18 29.18 0 002-5.09l1.84-5.83 3.66-11.6c.23-.74-.94-1.06-1.17-.32zM108.98 116c2.32 3.33 5.52 6.05 8.41 8.88l4.53 4.43 2.3 2.25c.64.62 1.25 1.25 1.99 1.73 1.4.91 3.47 1 4.44-.56.42-.67-.63-1.27-1.04-.61-.51.8-1.62.75-2.38.37-.9-.44-1.6-1.25-2.32-1.94l-5.12-5.02-5.12-5c-1.65-1.62-3.31-3.24-4.64-5.14-.45-.64-1.5-.04-1.05.6z" fill="#020202"/><path d="M137.36 83.75c1.78-1.06 1.78-3.81 3.44-5.05.36-.27.8-.45 1.24-.36.82.19 1.12 1.2 1.14 2.03a8.44 8.44 0 01-1.11 4.39" fill="#fff"/><path d="M137.61 84.16c1.45-.9 1.8-2.61 2.6-4 .3-.56 1.08-1.66 1.85-1.3.7.31.66 1.5.63 2.12a8 8 0 01-1.04 3.52c-.3.55.53 1.03.84.5.62-1.1 1-2.32 1.13-3.57.11-1.01.1-2.22-.6-3.03-.8-.93-2.06-.56-2.83.18a7 7 0 00-1.43 2.35c-.39.88-.78 1.87-1.64 2.4-.53.32-.04 1.16.49.83zM243 58.45a5.9 5.9 0 01-1.19 3c-.2.27-.45.5-.66.77-.53.64-.74 1.54.04 2.09.3.21.7.32 1.05.44.42.13.86.24 1.3.32.32.06.65-.08.74-.42.09-.3-.1-.68-.42-.74a9.45 9.45 0 01-1.08-.26c-.28-.08-.66-.16-.9-.33.01 0-.08.12 0-.04.05-.1.11-.19.18-.28.21-.25.44-.48.65-.74a7.37 7.37 0 001.51-3.81c.03-.32-.3-.6-.6-.6-.37 0-.58.28-.61.6zm-3.4-2.58a3 3 0 00-.77 2.72c.06.28.18.55.41.72.33.26.77.22 1.08-.05.22-.2.32-.48.41-.75a4.82 4.82 0 00.12-2.57.59.59 0 00-.35-.4c-.2-.07-.35-.04-.53.04-.49.2-.77.72-.8 1.23-.02.31.29.62.6.6a.62.62 0 00.6-.6c.01-.11-.02.1 0 .02a.36.36 0 00.02-.07c.02-.07-.06.1 0 .01.01-.02.08-.1.02-.04l.08-.08s-.1.07-.02.02l.1-.05-.88-.36.04.2c0 .02.05.23.01.08.03.11.03.23.03.35v.4l-.02.14v.1-.01c-.06.24-.1.48-.2.72l-.05.14c.08-.19-.02.04-.03.03l.03-.03a.38.38 0 01.15-.09c.18-.05.27.02.39.13.03.04.03.04 0 0l.02.05-.05-.15-.02-.15v.06l-.01-.08v-.46.03l.02-.08c.01-.1.04-.2.07-.29l.03-.08-.01.03c0-.05.04-.1.07-.15l.15-.25-.02.02.06-.06.11-.13c.23-.22.25-.63 0-.85-.24-.23-.62-.25-.85-.01zm8.66 1.28a3 3 0 00-.78 2.73c.07.27.19.54.42.71.33.26.76.22 1.07-.05.22-.2.32-.48.41-.75a4.8 4.8 0 00.12-2.57.59.59 0 00-.34-.39c-.2-.08-.36-.05-.54.03-.48.2-.77.72-.8 1.23-.02.32.3.62.6.6a.62.62 0 00.61-.6c0-.11-.03.1 0 .03l.02-.08c.01-.07-.07.1 0 .01 0-.02.07-.1.01-.04-.07.08.08-.08.09-.08 0 0-.11.07-.03.03l.11-.06-.89-.36.04.2.02.08c.02.11.02.23.03.35a5.24 5.24 0 01-.02.55l-.01.1v-.02c-.05.24-.1.48-.2.72l-.04.14c.08-.19-.03.04-.03.03.06-.07.06-.08.02-.03.04-.04.1-.07.15-.08.19-.06.28.02.4.12.02.04.03.04 0 0-.03-.05-.03-.04.01.05.01-.02-.04-.13-.04-.15l-.03-.15v.06-.08a2.54 2.54 0 01-.01-.34l.01-.12V59v-.08c.03-.1.05-.2.09-.29 0-.03.02-.05.03-.07.02-.07.02-.06-.02.02l.07-.15.16-.25-.02.02.05-.06.12-.13c.22-.22.24-.63 0-.85a.61.61 0 00-.86-.01zm-.12-2.93l.25-.12c.09-.04-.07.03.02 0a4.38 4.38 0 01.61-.17c.02-.01.17-.03.1-.03h.08l.24-.01a5.19 5.19 0 01.69.05l.27.07.23.07.11.04.06.02c.15.07.3.16.45.25.18.11.2.13.36.27a.6.6 0 00.85 0c.23-.22.25-.63 0-.85a4.33 4.33 0 00-4.9-.63c-.3.16-.38.56-.23.83.15.29.52.37.81.21zm-9.58-1l.1-.04.14-.04.35-.1.2-.03c-.14.02.01 0 .05 0l.38-.02.36.02.08.01h-.01l.18.03.35.1.16.05.1.04c-.07-.03-.07-.03 0 0 .28.13.66.1.82-.22.14-.26.1-.68-.22-.82a4.45 4.45 0 00-3.66-.03c-.28.12-.37.57-.21.83.2.3.52.35.83.22zm.99 16.05c2.72 1.25 6.14 2.08 8.85.35.65-.41.05-1.46-.61-1.04-2.33 1.48-5.3.72-7.63-.35-.7-.32-1.32.72-.61 1.04z" fill="#020202"/><path d="M271.5 60.65c-.15-1.93-1.83-3.32-3-4.88-.2-.28-.4-.59-.41-.94-.01-.43.28-.81.54-1.16 1.96-2.64 3-5.95 2.9-9.24a6.17 6.17 0 00-.45-2.37 6.28 6.28 0 00-1.64-2.04c-2.26-2-5.06-3.38-8.02-3.95-.94-.18-1.94-.3-2.67-.9-.9-.75-1.16-2-1.76-3-1.54-2.56-19.82-2.38-24.22 7.35-.84 1.84-.97 3.88-1.97 5.64-.46.8-1.2 1.4-1.85 2.05-2.6 2.58-4.02 6.94-1.9 9.93.9 1.25 2.33 2.2 2.66 3.7.38 1.69-.82 3.27-1.6 4.82-2.02 3.98-1.1 9.47 2.6 11.98.52.35 1.1.66 1.5 1.15.44.53.61 1.22.9 1.85 1 2.2 4.54 4.1 6.56 2.77 1.79-1.18 2.92-4.06 1.63-5.78a28.6 28.6 0 01-3.49-5.88c-3.16-7.1-3.17-12.55-2.5-19.19.07-.7 2.35-2.33 2.83-2.62 2.63-1.6 4.3-1.53 4.8-4.57 3.37 3.59 5.47 5.8 10.02 3.92l-1.17 1.72c-1.07 2.02 2.62 1.04 3.81 3 .59.95 1.42 1.78 1.77 2.84.33 1 .19 2.09.06 3.13-.7 5.54-4.06 10.21-3.93 15.8.07 2.65-.04 6.67 1.97 8.4 3.05 2.6 11.3 1.23 13.12.17 1.82-1.07 3.12-3.17 2.82-5.25-.33-2.28-2.33-3.91-3.29-6a6.96 6.96 0 01.1-5.88c1.11-2.23 3.49-4.08 3.28-6.57z" fill="#6F4AB3"/><path d="M253.64 34.52c-.7.14-1.13-.75-1.29-1.46-.44-1.97-.84-4.19.25-5.9.98-1.53 2.87-2.17 4.64-2.6 1.64-.39 3.53-.63 4.88.38 1.02.75 1.48 2.03 1.82 3.26.3 1.13.55 2.34.21 3.46-.31 1.04-1.1 1.87-1.86 2.66l-2.77 2.84" fill="#6F4AB3"/><path d="M241.05 78.14a14.5 14.5 0 01-1.81 6.83 12.76 12.76 0 01-4.38 4.44c-.66.4-.06 1.45.6 1.04a14.01 14.01 0 004.82-4.87 15.68 15.68 0 001.99-7.44c.02-.77-1.19-.77-1.22 0zm12.57-4.33c-.53 3.62-1.03 7.45.54 10.89 1.38 3.02 4.13 5.18 6.9 6.87.67.4 1.28-.64.62-1.05-2.57-1.55-5.07-3.5-6.4-6.26-1.5-3.14-.98-6.8-.5-10.13.11-.76-1.05-1.08-1.16-.32zm15.72 126.9a80.43 80.43 0 00-.96-7.6c-.55-3.41-1.18-6.81-1.85-10.21a744.59 744.59 0 00-6.58-30.12c-.1-.4-.55-.53-.89-.36-4.27 2.2-9.05 2.31-13.7 1.48a72.23 72.23 0 01-6.85-1.66c-1.97-.55-3.97-1.08-5.86-1.87-2.07-.86-4-2.12-5.34-3.95-.23-.32-.84-.46-1.04 0a641.62 641.62 0 00-11.17 27.47c-1.73 4.6-3.4 9.23-4.9 13.91a90.93 90.93 0 00-3.06 11.54l-.2 1.16c-.1.75 1.06 1.08 1.17.31a74.36 74.36 0 012.74-11.05c1.42-4.6 3.03-9.13 4.7-13.64 1.68-4.55 3.45-9.07 5.26-13.57a672.55 672.55 0 015.8-13.92c.21-.48.54-1.02.67-1.53 0-.03.02-.05.03-.07h-1.05c2.59 3.53 6.7 4.9 10.74 6.04 4.78 1.36 9.73 2.77 14.74 2.5 2.77-.14 5.46-.84 7.93-2.1l-.9-.37c1.41 5.78 2.71 11.6 3.96 17.41a474.72 474.72 0 014.25 21.56c.48 2.86.96 5.74 1.14 8.63.06.79 1.27.8 1.22.01z" fill="#020202"/><path d="M224.33 105.17c-3.19 16.05 4.01 25.68 2.55 41.98 0 0 1.66 1.59 2.98 2.31 1.32.73 3.12 1.27 3.12 1.27.6-6.47-.9-37.86-.25-44.33.61-6.07 1.25-12.17 3.05-18-9.77 2.72-3.48.19-13.25 2.91" fill="#020202"/><path d="M223.75 105.01a44.3 44.3 0 00-.78 10.92c.18 3.29.7 6.54 1.3 9.77.62 3.26 1.3 6.51 1.71 9.8.47 3.65.62 7.32.34 10.99-.03.39-.13.78.14 1.1.13.15.3.28.45.4.6.53 1.21 1.05 1.86 1.5 1.2.84 2.64 1.4 4.04 1.82.4.13.73-.2.76-.58.25-2.67.16-5.38.14-8.06-.04-4.15-.15-8.3-.24-12.44-.1-4.26-.2-8.53-.26-12.8-.05-3.19-.12-6.39.03-9.57.1-2.55.44-5.08.76-7.6.5-3.96 1.19-7.9 2.35-11.7.14-.45-.3-.87-.74-.75-2.13.6-4.41 1.32-6.5 1.44-2.3.13-4.55.86-6.74 1.47-.75.21-.43 1.38.32 1.17 2.13-.6 4.4-1.32 6.5-1.44 2.3-.13 4.55-.86 6.74-1.47l-.75-.75a65.77 65.77 0 00-2.16 10.27c-.4 2.82-.76 5.66-.95 8.5-.2 2.91-.13 5.86-.1 8.78.1 8.48.39 16.95.5 25.43.04 3.16.18 6.37-.11 9.51l.76-.58a14.08 14.08 0 01-3.25-1.37c-.93-.57-1.78-1.3-2.58-2.06l.18.43c.5-5.61-.07-11.17-1.08-16.68-.91-5.07-2.06-10.11-2.25-15.28-.13-3.3.13-6.6.77-9.86.15-.75-1.01-1.07-1.16-.31z" fill="#020202"/><path d="M234.41 95.35c3.38 2.85 7.96 3.96 12.26 4.5 3.74.48 7.64.17 11.34-.48 1.96-.35 3.93-.82 5.74-1.66.71-.32.1-1.36-.6-1.04-3.2 1.46-6.94 1.89-10.4 2.1a33.9 33.9 0 01-10.98-1.12 16.65 16.65 0 01-6.5-3.16c-.59-.5-1.45.35-.86.86z" fill="#020202"/><path d="M237.22 128.5c-2.63-1.36-5.4-2.86-6.84-5.44-1.27-2.27-1.3-5.03-1.02-7.62.03-.33.07-.7-.1-.98-.42-.73-1.57-.33-2.14.29-1.95 2.07-1.97 5.24-1.87 8.08-1.84-.03-3.68.04-5.51.18-.55.04-1.12.1-1.56.4-.46.31-.73.95-.46 1.42.38.67 1.6.7 1.68 1.46.06.54-.52.9-.88 1.3-.52.59-.6 1.5-.21 2.18.4.67 1.24 1.05 2 .88a1.93 1.93 0 00-.25 2.18c.38.68 1.2 1.08 1.97.95-.75.37-.71 1.54-.13 2.14.59.6 1.47.76 2.3.89 3.87.59 7.8 1.03 11.7.7" fill="#fff"/><path d="M237.52 127.98c-1.77-.92-3.58-1.86-5.04-3.24a8.48 8.48 0 01-2.6-5.58c-.1-1.1-.06-2.21.04-3.31.08-.86.15-1.9-.83-2.28-1.74-.67-3.16 1.47-3.7 2.8-.85 2.02-.82 4.3-.75 6.46l.6-.6c-1.11-.02-2.24 0-3.35.05-1 .04-2.06.04-3.04.23-.77.16-1.52.6-1.76 1.39-.23.7.04 1.36.62 1.78.24.17.5.28.76.43.35.2.37.28.1.58-.56.6-1.04 1.09-1.1 1.96-.14 1.7 1.4 2.85 3 2.59l-.6-1.01a2.6 2.6 0 00-.38 2.83 2.54 2.54 0 002.52 1.33l-.3-1.12c-1.01.58-1.09 1.96-.44 2.86.87 1.18 2.6 1.25 3.91 1.44 3.54.5 7.12.84 10.7.55.77-.07.78-1.28 0-1.21-2.8.22-5.63.07-8.44-.25-1.3-.15-2.63-.28-3.9-.58-.49-.1-1.07-.29-1.34-.74-.2-.31-.24-.82.12-1.03.48-.28.31-1.2-.3-1.13-1.17.13-2.11-1.09-1.3-2.1.4-.48.03-1.1-.58-1-.64.1-1.3-.3-1.45-.93-.16-.64.18-1.08.6-1.5.85-.83.94-1.9-.16-2.56-.33-.2-1.08-.37-.88-.88.23-.62 1.3-.58 1.83-.62 1.72-.13 3.43-.18 5.15-.16.32 0 .61-.28.6-.6-.06-1.74-.1-3.53.38-5.22.23-.81.58-1.6 1.13-2.23.24-.29.53-.55.9-.66.58-.16.54.23.5.72-.17 1.9-.24 3.83.23 5.7a9.27 9.27 0 002.78 4.58 23.44 23.44 0 005.15 3.3c.7.36 1.31-.68.62-1.04zm15.02 14.42c-.72 4.29-1.43 8.22-2.16 12.5 2.36 0 5.48-.31 8.76-1.96a50.74 50.74 0 002.18-11.23" fill="#020202"/><path d="M251.96 142.24c-.7 4.17-1.45 8.33-2.16 12.5-.06.38.16.77.58.77 1.5-.01 3.01-.14 4.49-.45a18.55 18.55 0 003.83-1.24c.4-.18.84-.3 1.03-.72.37-.84.55-1.86.78-2.75a53.56 53.56 0 001.42-8.63c.06-.78-1.15-.78-1.21 0a51.07 51.07 0 01-2.16 11.06l.28-.36a19.12 19.12 0 01-8.45 1.88l.58.77c.7-4.17 1.45-8.33 2.16-12.5.12-.77-1.04-1.1-1.17-.33z" fill="#020202"/><path d="M197.45 169.69c.59-26.83-1.32-55.67.03-82.47.05-1.05.03-2.28-.83-2.89-.4-.3-.92-.37-1.43-.44-3.21-.46-48.84-.65-56.6-1.18-3.03.03-4.15 1.17-4.1 5.13.17 11.84.7 73.89.59 80.46-.01.65-.03 1.33.27 1.9.29.53.83.88 1.39 1.1.94.36 1.96.39 2.97.41l49.21 1.12c1.84.04 3.69.08 5.53-.02.85-.06 1.79-.18 2.36-.82.55-.6.6-1.5.61-2.3z" fill="#6F4AB3"/><path d="M171.8 155.02l2.77 30.53a33.01 33.01 0 004.47-8.45 16.56 16.56 0 004.42 6.97c-.07-10.06-.48-20.1-1.25-30.13" fill="#020202"/><path d="M171.2 155.02l2.77 30.53c.06.61.76.8 1.13.3a34.24 34.24 0 004.53-8.6h-1.16c.9 2.76 2.46 5.25 4.56 7.25.38.35 1.04.1 1.03-.43a426.7 426.7 0 00-1.25-30.13c-.06-.77-1.27-.78-1.2 0a431.77 431.77 0 011.24 30.13l1.03-.42a16.22 16.22 0 01-4.25-6.71c-.2-.59-.97-.56-1.17 0a33.12 33.12 0 01-4.41 8.31l1.12.3-2.77-30.52c-.07-.78-1.27-.79-1.2 0z" fill="#020202"/><path d="M176.03 136.54a6.11 6.11 0 01-3.64.45c-.81-.15-1.7-.46-2.43-.05-1.19.67-.8 2.49-1.39 3.72-.43.9-1.38 1.43-2.13 2.1-.75.65-1.37 1.74-.9 2.63.36.65 1.18.91 1.64 1.5.77.98.26 2.39-.08 3.59-.34 1.2-.23 2.88.98 3.2 1 .25 2.02-.68 3-.4 1.4.42 1.32 2.83 2.71 3.3 1.59.55 2.65-1.98 4.32-2.13 1.28-.1 2.72 1.2 3.68.34.6-.55.41-1.52.71-2.27.35-.86 1.28-1.3 2.08-1.78s1.6-1.25 1.45-2.17c-.15-.92-1.19-1.43-1.5-2.3-.52-1.5 1.2-3.38.15-4.54-.66-.73-2.04-.53-2.56-1.38-.33-.54-.13-1.23-.05-1.87.08-.63-.13-1.45-.76-1.54-.57-.09-1 .48-1.53.7-1.17.5-2.28-.77-2.93-1.86" fill="#fff"/><path d="M175.73 136.02c-.73.32-1.51.48-2.3.47-.82 0-1.58-.29-2.39-.35-1.29-.08-2.2.7-2.5 1.91-.15.57-.18 1.15-.31 1.72a2.81 2.81 0 01-.97 1.55c-1.01.89-2.27 1.62-2.46 3.09-.08.56.05 1.1.4 1.54.4.52 1.03.75 1.44 1.24.89 1.03-.13 2.73-.28 3.87-.13 1.05.04 2.38 1.03 2.98.46.27 1 .33 1.51.24.6-.1 1.4-.61 2.02-.41.8.25 1.04 1.6 1.44 2.23.55.87 1.5 1.39 2.53 1.05.97-.33 1.6-1.2 2.42-1.75 1.07-.71 2.02 0 3.12.22 1.27.24 2.2-.48 2.4-1.73.1-.6.13-1.18.57-1.64.49-.51 1.2-.78 1.77-1.18 1-.7 1.85-1.85 1.3-3.1-.23-.53-.66-.91-1.02-1.35-.41-.5-.48-.97-.34-1.6.25-1.16.94-2.46.13-3.55-.4-.52-.99-.74-1.6-.93-.26-.08-.58-.15-.81-.32-.36-.26-.3-.7-.26-1.09.1-.68.2-1.36-.13-2a1.4 1.4 0 00-1.55-.78c-.65.15-1.2.95-1.9.75-.73-.2-1.26-1.03-1.63-1.63-.4-.67-1.45-.06-1.04.6.6.98 1.45 2.1 2.67 2.26.58.07 1.08-.12 1.55-.44.18-.12.49-.43.72-.35.21.09.22.54.21.71 0 .59-.21 1.14-.1 1.73.1.6.44 1.06.97 1.36.79.42 2.2.37 2.06 1.57-.1 1.05-.7 1.98-.55 3.06.06.53.3.96.64 1.38.32.4.9.83.94 1.38.08 1.15-1.8 1.77-2.52 2.33-.44.35-.8.76-1 1.29-.22.55-.12 1.22-.38 1.75-.25.51-.79.37-1.23.23-.53-.16-1.03-.37-1.57-.45-1.08-.17-1.92.33-2.72 1-.5.43-1.34 1.45-2.11 1.1-.73-.34-.95-1.5-1.33-2.14-.56-.92-1.42-1.37-2.49-1.15-.93.2-2.2.96-2.5-.44-.26-1.2.4-2.33.55-3.49a2.9 2.9 0 00-1.25-2.93c-.57-.42-1.12-.82-.81-1.6.25-.65.81-1.09 1.34-1.5.55-.43 1.12-.86 1.5-1.45.34-.53.48-1.13.58-1.73.1-.56.11-1.2.4-1.7.39-.69 1.2-.5 1.86-.36 1.59.33 3.08.24 4.58-.42.72-.32.1-1.36-.6-1.05z" fill="#020202"/><path d="M152.73 113.79l11.27.2c.5 0 .75.38.77.56.05.66.06.3.08.97.01.53-.57.68-.83.67l-11.22-.2c-.68 0-.88-.37-.9-.53-.09-.63 0-.13-.02-.9-.02-.76.85-.77.85-.77zm16.16.29l5.78.1c.5 0 .75.37.76.56.06.66.07.3.09.97 0 .53-.57.68-.84.67l-5.73-.1c-.68-.01-.88-.37-.9-.54-.08-.62 0-.12-.02-.89s.86-.77.86-.77zm6.08 7.98l-11.28-.2c-.5-.01-.75-.38-.76-.56-.05-.66-.07-.31-.08-.97-.01-.53.56-.68.83-.67l11.22.2c.68 0 .88.37.9.53.08.62 0 .13.02.89.02.77-.85.78-.85.78zm-16.16-.29l-5.78-.1c-.5 0-.75-.38-.77-.56-.05-.66-.06-.3-.08-.97 0-.53.57-.68.83-.67l5.74.1c.68.01.88.37.9.54.08.62 0 .12.02.89.01.76-.86.77-.86.77zm11.45 5.89c-5.9-.1-10.81.04-16.7-.06-.5-.02-.74-.38-.76-.57-.05-.65-.07-.3-.08-.97-.01-.53.56-.67.83-.67 5.35.1 10.63-.05 16.64.06.68.01.88.37.9.53.08.63 0 .13.02.9.02.76-.85.78-.85.78zM147.4 98.85c10.05.33 24.7.8 34.7 1.14.85.03 1.21 1.34 1.2 1.97-.01 2.34.07 1.11 0 3.45-.06 1.89-1.06 2.41-1.52 2.4l-34.6-1.14c-1.15-.03-1.44-1.3-1.45-1.9-.05-2.23.01-.45.1-3.16.1-2.7 1.57-2.76 1.57-2.76zm30.22 25.67c-.74-.76-1.96-.44-2.63.25a2.7 2.7 0 00-.66 2.78c.36.94 1.27 1.63 2.3 1.5.5-.05.97-.25 1.3-.62.38-.43.53-.95.6-1.5a2.8 2.8 0 00-.27-1.73 1.8 1.8 0 00-1.5-.91c-.31 0-.62.28-.6.6.01.33.27.6.6.6.01 0 .16.03.07 0-.1-.02.06.03.06.03.04 0 .1.04 0 0 .03 0 .06.02.09.04.02.01.14.11.04.02l.07.07.07.07c.09.1-.03-.06.03.04l.06.11c.04.08-.04-.13.02.05l.06.22.02.1v.55c0 .03-.02.16 0 .04l-.04.22-.08.27c0 .02-.05.1 0 0l-.08.16s-.1.14-.04.07c.04-.07-.05.05-.05.05-.04.04-.16.14-.06.07l-.2.12c-.03.02-.1.03.01 0-.05 0-.09.03-.13.04l-.12.03c-.09.02.15 0 0 0h-.26l-.06-.01-.1-.03c-.02 0-.15-.07-.03 0l-.22-.13c-.03-.02-.09-.08 0 0l-.08-.07a2 2 0 01-.17-.18c.01.02.06.1 0 0l-.08-.13-.05-.1c-.08-.13.03.12-.02-.04l-.06-.19-.02-.13c-.03-.09 0 .15 0-.01v-.28c0-.11 0-.02 0 0 0-.04 0-.1.02-.14a1.83 1.83 0 01.13-.4 2.5 2.5 0 01.15-.24l.11-.12a.89.89 0 01.1-.1c.02-.03.16-.13.04-.04.06-.05.13-.1.2-.13l.1-.04c-.13.06 0 0 .03-.01a.8.8 0 01.11-.04c.02 0 .17-.03.08-.02-.1.02.05 0 .06 0 .03 0 .1-.01.14 0-.05-.03-.1-.02-.03 0l.08.03-.06-.03c.03 0 .06.05.1.06l-.04-.03.07.06c.22.23.63.24.85 0 .2-.24.21-.6-.03-.85z" fill="#fff"/><path d="M153.37 142.87c-2.01-1.4-4.15.32-5.3 1.96a16.64 16.64 0 00-2.69 6.58c-.35 2.03-.55 4.7 1.43 5.98 2.11 1.37 3.97-.7 5.16-2.28a14.26 14.26 0 002.64-6.1c.26-1.45.68-4.43-1.35-4.88-2.16-.5-3.2 2.85-3.63 4.36-.54 1.94-.97 4.6.08 6.47 1.24 2.22 4.08 1.67 5.7.22 1.6-1.43 3.17-5.02 5.84-4.2.75.22 1.07-.94.32-1.17-1.62-.5-3.24.34-4.37 1.48-1.23 1.23-2.08 3.06-3.76 3.75-.76.31-1.7.38-2.34-.22-.57-.54-.73-1.4-.76-2.16-.1-1.9.31-3.87 1.09-5.6.23-.52.75-1.85 1.5-1.77.68.08.7 1.25.68 1.73a12.8 12.8 0 01-2.62 7.4 7.78 7.78 0 01-1.88 1.94c-.81.51-1.7.2-2.24-.56-.55-.8-.55-1.86-.48-2.79.16-2.11.8-4.2 1.8-6.07.78-1.43 2.58-4.41 4.57-3.02.64.44 1.24-.6.6-1.05zm24.59-1.92c-1.28-1.17-3.14-1-4.5-.06a6 6 0 00-2.54 3.96c-.5 3.09 1.95 7.09 5.45 6.52.76-.13.44-1.3-.32-1.17-1.23.2-2.43-.7-3.1-1.66a4.74 4.74 0 01-.86-3.37c.16-1.18.8-2.3 1.72-3.05.9-.73 2.33-1.2 3.3-.31.58.52 1.43-.34.85-.86zm1.48 9.38a8.08 8.08 0 001.7-3.92c.1-.74.1-1.5-.14-2.22a7.83 7.83 0 00-1.07-1.91c-.45-.63-1.5-.03-1.05.6.35.5.72 1 .93 1.58.22.57.22 1.19.14 1.8a6.78 6.78 0 01-1.37 3.23c-.2.25-.25.6 0 .85.21.2.65.25.86 0z" fill="#020202"/><path d="M144.03 80.44c.77-.11 1.42.45 2.14.75 1.02.42 2.73-.65 3.85-.52.8.09 1.25 1 1.99 1.36 1.14.54 2.85-.33 3.61.68l.54 1.6a31.4 31.4 0 01-1.8 7.6c-.2.52-.42 1.05-.83 1.4-.36.32-.99.43-1.26.05-.12-.18-.34-.51-.35-.73a56.4 56.4 0 01.59-6.18 11.4 11.4 0 01-1.93 5.81c-.2.29-.42.56-.74.71-1.1.52-1.56-.65-1.55-.78.04-2.18.7-4.25.74-6.42-.15 1.42-.38 2.68-.52 4.1-.11 1.1-.43 2.4-1.43 2.84-.57.26-1.25-.36-1.27-.48-.2-1.22.05-2.47.16-3.7.1-1.24.44-2.64-.26-3.67a23.75 23.75 0 01-1.26 6c-.12.34-.25.7-.52.94s-.7.35-.99.14c-.22-.15-.31-.44-.37-.7a8.1 8.1 0 01-.03-3.51c.3-1.36.94-2.75.53-4.08" fill="#fff"/><path d="M144.03 80.93c.68-.06 1.2.37 1.8.64.44.2.86.23 1.33.17.53-.07 1.02-.23 1.53-.37.49-.14 1.09-.36 1.57-.11.41.2.7.62 1.07.9.4.31.83.48 1.34.53.48.05.96 0 1.44 0 .23 0 .47-.02.69.05.13.04.21.1.32.16.17.1-.01-.1.06.02.14.26.2.62.3.9.1.32.2.52.15.84a29.78 29.78 0 01-1.44 6.3c-.2.6-.4 1.43-.88 1.9-.42.43-.82.24-.9-.32-.06-.4.01-.86.04-1.26.1-1.57.3-3.13.53-4.7-.32-.03-.64-.08-.95-.12a10.86 10.86 0 01-.87 3.76c-.24.57-1.24 2.97-2.13 2.3-.29-.22-.25-.42-.24-.66.03-.7.12-1.39.23-2.08.2-1.33.45-2.65.49-4 .02-.64-.9-.6-.97 0-.15 1.42-.35 2.84-.53 4.26a4.11 4.11 0 01-.47 1.61c-.24.39-.79.94-1.21.45-.16-.19-.1-.54-.1-.78-.01-.39.02-.78.05-1.16l.21-2.1c.13-1.17.29-2.38-.37-3.43-.27-.42-.86-.22-.9.24a23.54 23.54 0 01-1.24 5.88c-.1.25-.21.67-.5.77-.38.14-.44-.33-.5-.62a8.26 8.26 0 01.23-3.85c.32-1.16.65-2.32.32-3.52-.16-.6-1.1-.34-.93.26.43 1.59-.52 3.24-.69 4.82a8.7 8.7 0 00.11 2.44c.11.57.3 1.23.92 1.44 1.5.49 2.01-1.57 2.3-2.57.5-1.65.8-3.34.94-5.05l-.9.24c.43.7.38 1.49.3 2.27l-.26 2.54c-.12 1.22-.4 3.08 1.24 3.32 1.29.18 2.03-1.33 2.26-2.36.17-.76.21-1.55.32-2.32.12-.93.26-1.86.35-2.79h-.96c-.05 1.8-.5 3.53-.67 5.3-.05.54-.17 1.12.08 1.62.2.4.55.73 1 .85 1.43.38 2.31-1.34 2.82-2.37a12.13 12.13 0 001.22-4.72c.02-.54-.88-.67-.95-.13a61.74 61.74 0 00-.57 5.09c-.05.87-.16 2.03.76 2.54 1.22.67 2.16-.81 2.52-1.74a29.19 29.19 0 001.8-7.23c.07-.48.08-.77-.07-1.21-.27-.8-.4-1.62-1.3-1.93-1.16-.4-2.45.3-3.46-.6-.43-.4-.83-.86-1.42-1.01-.64-.17-1.34.04-1.96.22-.66.19-1.43.52-2.1.24-.76-.3-1.35-.8-2.21-.73-.6.05-.61 1.02 0 .97zM234.6 52.9a34.77 34.77 0 001.61 16.9c1.28 3.57 3.2 7.5 6.94 9.01 2.35.95 4.83.37 6.92-.94.65-.4.05-1.46-.61-1.04-1.75 1.09-3.74 1.64-5.73.91a8.54 8.54 0 01-3.73-3 19.27 19.27 0 01-2.51-4.95 33.52 33.52 0 01-1.72-16.57c.11-.76-1.05-1.09-1.17-.32z" fill="#020202"/><path d="M256.13 48.27c3.79-.66 7.31-2.5 10.04-5.2.55-.56-.3-1.4-.86-.86a17.83 17.83 0 01-9.5 4.9c-.77.13-.44 1.3.32 1.16zm-4.89-17.01a9.37 9.37 0 015.02 2.38c.57.52 1.43-.33.86-.86a10.48 10.48 0 00-5.56-2.69c-.32-.05-.65.08-.74.42-.09.29.1.7.42.75z" fill="#fff"/><path d="M278.4 102.18s-3.41-7.6-5.13-7.79c-1.7-.19-10.96-3.9-10.96-3.9l-8.16 43.87-15.6-4.75c.3 3.87.48 2.51-.8 6.17-.69 2.01-1.11 1.78-1 3.9 1.63.18 36.38 14.12 37.9 14.72 0 0 6.83 0 8.35-1.15 1.52-1.14 2.47-10.44 2.47-10.44l-7.07-40.63zm-15.28 33.74c1.95-7.7 2.97-12.9 5.56-20.41 0 0 .75 8.7 5.55 24.91-8.56-2.62-13.13-5-11.11-4.5z" fill="#020202"/><path d="M278.93 101.87a50.97 50.97 0 00-1.5-3.05c-.8-1.5-1.65-3.17-2.9-4.35-.2-.2-.43-.4-.69-.52-.13-.06-.25-.1-.38-.14-.24-.06-.05 0-.32-.05-.62-.14-1.22-.33-1.82-.53a221.07 221.07 0 01-8.84-3.32c-.28-.12-.68.12-.74.42l-.81 4.35-1.95 10.45-2.37 12.72-2.04 10.94-.67 3.61c-.1.54-.32 1.17-.32 1.72l-.01.07.74-.42-13.63-4.15-1.96-.59c-.35-.1-.8.2-.77.59.08.9.22 1.84.22 2.76 0 .52-.2 1.01-.38 1.54-.37 1.03-.72 2.07-1.18 3.07-.41.9-.5 1.72-.45 2.7.01.36.26.56.6.6-.28-.03.02.02.11.05l.44.13 1.38.48c1.46.53 2.91 1.09 4.37 1.64 4.2 1.61 8.4 3.26 12.59 4.91l12.53 4.97 4.32 1.73c.65.25 1.38.68 2.07.8.59.1 1.27 0 1.86-.03a40.7 40.7 0 003.68-.29c1-.14 2.17-.26 3.06-.8.7-.41 1-1.24 1.26-1.97.75-2.17 1.06-4.51 1.37-6.78.11-.84.37-1.8.23-2.65-.38-2.29-.8-4.57-1.2-6.86l-2.21-12.75-2.26-12.97-1.31-7.52-.07-.36c-.13-.77-1.3-.44-1.16.32l.9 5.23 2.09 11.95 2.3 13.2 1.56 9.04.17.95.04.22c.02.15.02-.2-.02-.07-.16.58-.15 1.26-.22 1.85-.15 1.1-.32 2.21-.52 3.3a26 26 0 01-.79 3.33c-.13.4-.26.77-.46 1.13-.16.28-.24.35-.56.49-.96.41-2.1.51-3.14.61-1.13.12-2.28.18-3.42.2-.32.01-.64 0-.97.02-.26.02.08.1-.09-.01-.24-.15-.57-.23-.83-.34l-3.5-1.4a4708.88 4708.88 0 00-24.59-9.7c-2.73-1.05-5.46-2.18-8.26-3.07-.25-.08-.5-.15-.76-.19l.6.6c-.02-.5-.05-1.03.08-1.52.1-.36.29-.7.44-1.04.45-1 .8-2.06 1.16-3.11.51-1.47.24-2.88.12-4.4l-.76.59 13.63 4.15 1.96.6c.3.08.69-.11.75-.43l.8-4.35 1.96-10.45 2.37-12.72 2.03-10.94.67-3.61c.1-.54.33-1.17.32-1.72l.02-.07-.75.42c2.64 1.05 5.3 2.09 7.98 3.02.7.25 1.42.5 2.14.7l.66.15.29.05c.03.02.11.05.23.13.5.36.93.99 1.28 1.52.5.74.95 1.51 1.38 2.3a51.93 51.93 0 011.77 3.54c.32.7 1.36.09 1.05-.62z" fill="#020202"/><path d="M263.7 136.08c1.74-6.85 3.27-13.73 5.56-20.41l-1.19-.16c.12 1.35.33 2.69.56 4.02.63 3.83 1.46 7.63 2.4 11.4.79 3.24 1.67 6.45 2.62 9.65l.75-.74c-3-.93-6-1.93-8.9-3.16-.7-.3-1.42-.6-2.08-.98l-.28-.17c-.06-.03-.03-.03-.03-.03.16.15.13.32-.1.52.03.3-.07.44-.29.43h.08c-.04-.04-.14-.01-.02 0l.2.05c.75.18 1.07-.98.31-1.16-.25-.06-.53-.14-.78-.06-.49.15-.58.7-.27 1.07.4.45 1.15.7 1.67.95a83.12 83.12 0 0010.16 3.7c.44.14.87-.3.75-.74-2.26-7.64-4.39-15.74-5.4-23.51l-.14-1.25c-.06-.67-.96-.82-1.19-.16-2.3 6.69-3.82 13.57-5.55 20.42-.2.75.98 1.07 1.16.32z" fill="#020202"/><path d="M124.38 135.56c2.25-.3 3.73-1.76 4.77-2.95 1.62-1.86 2.97-2.48 5.09-3.74a17 17 0 014.9-2.08c.9-.2.99.88.74 1.2-.48.6-2 1.39-2.84 1.79-.92.44-2.77 3.16-2.77 3.16a45.87 45.87 0 0111.96-2.68c.56-.04 1.16-.08 1.66.2.5.26.82.94.5 1.41-.18.28-.52.41-.83.53-3.99 1.4-7.13 1.54-11.22 2.6 4.55-.49 8.28-2 12.62-1.16.29.05.82.78.64 1.02-.39.48-1.18.78-1.86.9-3.9.73-6.8 1.58-10.76 1.87 2.46-.4 9.73-.93 11.32 1 .12.14.24.3.24.48 0 .43-.54.61-.97.65-4 .42-6.48.63-10.48.25 2.97.53 4.51.88 7.34 1.92 1.03.38.6 1.07-.3 1.25-3.26.67-5.66-.2-9.37-.45-1.59-.1-5.68 1.55-7.2 1.05-2.25-.75-.42-1.3-4.73-1.23" fill="#fff"/><path d="M124.51 136.02a8.03 8.03 0 004.65-2.7c.65-.7 1.28-1.4 2.03-1.99.77-.58 1.6-1.06 2.43-1.54.97-.56 1.92-1.14 2.94-1.6.51-.25 1.04-.46 1.59-.63.26-.1 1.14-.49 1.33-.21.47.67-2.75 2-3.2 2.38-.96.82-1.73 1.93-2.43 2.97-.23.33.15.85.54.7a46.43 46.43 0 0111.84-2.65c.48-.04 1.17-.14 1.57.22.6.56-.11.86-.59 1.03a31.96 31.96 0 01-4.55 1.2c-2.15.43-4.32.78-6.45 1.33-.52.13-.43 1 .13.94 2.2-.24 4.34-.74 6.52-1.1a20.76 20.76 0 014.81-.24c.49.04 1.04.01 1.37.38a.9.9 0 01.1.22c.04-.16-.02-.15-.15.03-.24.1-.43.26-.69.35-.44.16-.9.22-1.37.3-1.13.22-2.25.47-3.37.7-2.18.46-4.36.86-6.59 1.03l.13.95c2.4-.4 4.91-.5 7.32-.28 1.04.09 2.3.21 3.19.83.1.07.47.34.43.48-.08.26-1.19.23-1.4.25-.98.1-1.96.2-2.94.26-2.2.14-4.4.1-6.61-.1-.54-.06-.66.84-.13.94 1.27.23 2.55.47 3.8.8.53.13 1.05.28 1.57.45l.94.3c.31.12.91.22 1.16.44.1.09.18-.08.02.08-.07.07-.2.1-.3.13-.32.11-.69.15-1.02.2-.63.07-1.26.1-1.88.07-1.28-.03-2.54-.23-3.8-.4-1.1-.15-2.26-.39-3.36-.26-.92.1-1.82.35-2.71.56-1.47.36-3.24 1-4.6.05-.3-.2-.6-.5-.99-.63-.92-.3-2.02-.2-2.98-.2-.62.01-.62.98 0 .97.85-.01 2-.17 2.8.2.14.04.18.1.3.2.19.15.37.3.57.42 1.68.96 3.64.3 5.38-.13.9-.21 1.86-.52 2.8-.5 1.46.03 2.93.32 4.38.5 1.36.18 2.72.27 4.08.12.78-.1 2.62-.3 2.36-1.52-.14-.62-.84-.82-1.36-1-.75-.27-1.5-.52-2.25-.74-1.53-.45-3.1-.75-4.67-1.03l-.13.94c2.27.22 4.53.25 6.81.1 1.19-.08 2.37-.2 3.55-.32.72-.09 1.68-.37 1.56-1.28-.17-1.24-1.99-1.72-2.98-1.92-1.54-.3-3.13-.34-4.7-.3-1.5.04-3 .16-4.48.4-.54.08-.42.99.13.95 2-.16 3.97-.48 5.93-.88l2.98-.62c.94-.2 1.96-.29 2.85-.64.55-.21 1.45-.63 1.38-1.34a1.64 1.64 0 00-1.02-1.27 9.92 9.92 0 00-2.88-.26c-.97 0-1.94.1-2.9.24-2.34.33-4.63.91-6.98 1.17.05.32.1.64.13.95 1.97-.5 3.96-.85 5.95-1.23.95-.19 1.9-.39 2.82-.63.96-.25 2-.49 2.89-.92.65-.3 1.03-.93.81-1.65-.21-.74-.9-1.15-1.63-1.25-.97-.13-2.04.08-3 .2a46.87 46.87 0 00-10.16 2.5l.55.7c.66-.97 1.4-2.15 2.37-2.85.72-.52 1.6-.8 2.34-1.31.59-.41 1.15-.85 1.07-1.63-.07-.79-.7-1.2-1.46-1.07a13.6 13.6 0 00-3.43 1.26c-1.08.54-2.11 1.17-3.15 1.79-.87.51-1.71 1.06-2.46 1.73-.85.75-1.52 1.66-2.37 2.4a6.48 6.48 0 01-3.34 1.59c-.6.08-.35 1.01.26.92zM103.8 45.13c0-1.07-.5-2.23-1.48-2.67 1.38-.13 2.4-1.62 2.2-3-.18-1.37-1.39-2.47-2.74-2.75.7-1.42-.97-3.85-2.09-4.97-1.11-1.12-1.57-1.06-3.08-1.53a46.52 46.52 0 00-26.78-.28c-1.37.4-2.8.91-3.7 2.02a5.42 5.42 0 00-1.01 3.72c.02.35.06.73-.09 1.05-.14.32-.44.54-.71.77a6.19 6.19 0 00-2.3 4.66 4.9 4.9 0 002.63 4.36c-.73.88-.12 2.17.45 3.16 1.46 2.5 4.5 2.37 4.62 2.12-.04-2.77.07-3.7.4-6.44a5.83 5.83 0 006.6-4.92 10.6 10.6 0 003.54 1.7c1.3.26 2.79-.05 3.58-1.1a14.02 14.02 0 004.94 2.65c1.82.46 3.88.3 5.4-.8a4.12 4.12 0 002.15 1.2c-.85 3.81.11 4.3 2.64 7.25.2-1.88 1.93-1.92 3.8-1.6a18.88 18.88 0 001.04-4.6z" fill="#020202"/><path d="M104.41 45.13c-.03-1.29-.58-2.59-1.78-3.2l-.15 1.11c1.6-.22 2.77-1.84 2.67-3.41-.11-1.75-1.57-3.12-3.21-3.5l.36.89c.67-1.52-.23-3.2-1.12-4.44a6.43 6.43 0 00-3.38-2.65c-2.06-.6-4.1-1.2-6.2-1.6a47.07 47.07 0 00-20.32.58c-1.84.47-3.97.94-5.34 2.34a5.03 5.03 0 00-1.28 2.48c-.1.45-.15.92-.16 1.38 0 .53.18 1.18-.2 1.6-.36.39-.8.67-1.14 1.07a6.47 6.47 0 00-1.74 4.2 5.54 5.54 0 002.92 5.06l-.22-.83c-1.03 1.39.06 3.46 1.04 4.58a5.3 5.3 0 003.51 1.72c.36.03.77.05 1.12-.08.75-.26.52-1.18.52-1.82 0-1.76.2-3.5.4-5.26l-.76.59c3.5.6 6.94-1.99 7.36-5.5l-.9.52c1.3.84 2.68 1.68 4.27 1.84 1.31.13 2.73-.3 3.58-1.34l-.73.1c3.04 2.32 7.38 4.32 10.95 1.83l-.73-.1a4.9 4.9 0 002.41 1.38l-.42-.74c-.31 1.42-.54 2.92.07 4.3.6 1.34 1.79 2.43 2.73 3.53.28.32.95.18 1.01-.27.1-.64.32-1.08.98-1.24.67-.16 1.4-.05 2.08.05.34.06.6-.08.74-.42a14.75 14.75 0 001.06-4.75c.02-.77-1.2-.77-1.2 0-.03 1.47-.5 3.06-1.04 4.42l.75-.42c-1.83-.29-4.23-.3-4.54 2.04l1-.27c-.83-.97-1.87-1.91-2.44-3.08-.54-1.11-.3-2.41-.04-3.57.07-.31-.1-.66-.42-.75a3.79 3.79 0 01-1.88-1.06c-.17-.18-.51-.25-.73-.1-3.2 2.24-7.03.22-9.72-1.83-.2-.15-.58-.1-.73.1-1.73 2.14-4.62.44-6.39-.7-.42-.27-.86.1-.9.52a5.22 5.22 0 01-5.84 4.34c-.42-.08-.72.17-.77.58-.16 1.34-.33 2.67-.38 4.01 0 .2-.1 2.18-.02 2.2.06 0 .29-.33.3-.27 0 0-.1.03-.12.02h-.37a4.14 4.14 0 01-2.45-.94c-.83-.7-2.07-2.5-1.3-3.55.2-.25.06-.69-.21-.83a4.33 4.33 0 01-2.33-4.02c.03-.88.32-1.73.77-2.49.45-.75 1.06-1.26 1.69-1.85.72-.67.63-1.43.63-2.33 0-.86.14-1.74.57-2.5.91-1.6 2.91-2.08 4.57-2.52a45.9 45.9 0 0124 .04c1.58.44 3.33.72 4.5 1.94.58.6 1.07 1.28 1.46 2.01.31.58.74 1.47.45 2.14-.16.34-.06.78.36.89 1.12.26 2.2 1.11 2.32 2.33.11 1.1-.7 2.1-1.78 2.25-.51.06-.58.88-.14 1.1.82.41 1.16 1.26 1.19 2.15 0 .78 1.2.79 1.18 0zm-14.21 17c.26.5.95.5 1.3.1.38-.46.11-1.13-.45-1.28-.66-.17-1.07.42-1.5.8-.57.52-1.19.97-1.85 1.36-2.56 1.47-5.96 1.66-8.27-.4-.58-.5-1.45.34-.86.86a7.8 7.8 0 006.32 1.8 9.58 9.58 0 003.25-1.13 11.56 11.56 0 002.12-1.5c.17-.16 1.36-1.2.67-1.42l.36.27a.57.57 0 01-.04-.08c-.36-.68-1.4-.07-1.05.62z" fill="#020202"/><path d="M98.24 51.55a45.92 45.92 0 01-2.21 8.9c-1 2.85-2.22 5.8-4.17 8.13-2.14 2.56-5.22 4.99-8.76 4.58-3.56-.4-6.54-3.37-8.58-6.1a24.94 24.94 0 01-4.6-10.97c-.12-.76-1.29-.44-1.16.32a25.9 25.9 0 004.15 10.47c2.06 3 4.93 6.04 8.5 7.15 3.67 1.14 7.22-.52 9.87-3.05 2.4-2.3 3.95-5.17 5.17-8.22a45.88 45.88 0 002.95-10.88c.11-.77-1.06-1.1-1.16-.33z" fill="#020202"/><path d="M88.75 72.04c-.4 3.23-.76 6.46-1.15 9.69-.09.77 1.12.76 1.21 0 .4-3.23.75-6.46 1.15-9.69.09-.77-1.12-.76-1.21 0zm-13.88-2.41c.32 1.8.5 3.61.36 5.43-.13 1.83-.58 3.6-1.05 5.37-.2.76.96 1.08 1.17.32.5-1.86.95-3.75 1.1-5.69a23.6 23.6 0 00-.41-5.75c-.14-.77-1.3-.44-1.17.32zm34.34 45.55a340.5 340.5 0 01-.77 19.12c-.38 5.78-.84 11.55-1.11 17.34-.18 3.8-.3 7.59-.33 11.39 0 .78 1.2.78 1.21 0 .07-6.38.36-12.75.78-19.11.38-5.78.83-11.56 1.1-17.35.19-3.8.3-7.59.33-11.39 0-.78-1.2-.78-1.2 0z" fill="#020202"/><path d="M54.1 105.68c4.55 10.46 21.88 35.53 23.33 36.88 1.47 1.37 35.52 4.94 48.21 4.82l-1.97-12.1c-17.16-.84-39.95-6.76-39.95-6.76-.4-4.26-12.74-26.85-20.62-35.57" fill="#fff"/><path d="M53.58 105.99a80.2 80.2 0 004.25 8.1c1.93 3.32 3.96 6.58 6.03 9.82 3.57 5.58 7.23 11.1 11.12 16.46.5.7 1 1.39 1.54 2.06.24.31.47.62.84.8.56.27 1.21.38 1.81.5 1 .22 2 .39 3 .54a317.28 317.28 0 0020.4 2.37c7.04.65 14.11 1.24 21.2 1.34h1.87c.42 0 .64-.37.58-.76l-1.72-10.57-.24-1.53c-.05-.26-.34-.43-.59-.44a162.1 162.1 0 01-20.93-2.66 296.45 296.45 0 01-18.86-4.09l.45.59c-.16-1.56-.89-3.1-1.5-4.52a104.08 104.08 0 00-3.47-7.12 174.07 174.07 0 00-10.1-16.85 70.87 70.87 0 00-5.73-7.5c-.52-.58-1.37.27-.85.85 3.95 4.4 7.15 9.5 10.2 14.53a151.38 151.38 0 018.43 15.63 37.18 37.18 0 011.65 4.2l.12.5.03.19c.04.18 0-.08.02.1.03.26.17.5.44.58 2.9.75 5.83 1.41 8.75 2.05a252.47 252.47 0 0019.54 3.56c3.92.54 7.86.97 11.83 1.17l-.59-.44 1.72 10.57.25 1.53.58-.77c-6.65.06-13.32-.5-19.94-1.06-7.08-.6-14.16-1.3-21.2-2.31-1.99-.29-4.03-.54-5.98-1.06a5.37 5.37 0 01-.38-.12c-.06-.01-.4-.14-.18-.05a.56.56 0 01-.18-.1c.18.16.02 0-.03-.05-.42-.52-.64-.79-1.04-1.32a288.51 288.51 0 01-10.44-15.27c-3.86-5.96-7.76-12-10.87-18.38-.27-.56-.54-1.12-.78-1.68-.31-.71-1.36-.1-1.05.6z" fill="#020202"/><path d="M60.77 164.53c.6-8.13-.2-16.37-1.27-24.43a305.11 305.11 0 00-3.78-21.9c-1.1-5.34-2.49-10.6-2.6-16.1-.05-3.2.26-6.45 1.3-9.5a15.24 15.24 0 011.52-3.23l.16-.23c.06-.09.21-.23.06-.1.14-.12.08-.08.2-.14.7-.36 1.44-.65 2.18-.92 1.82-.66 3.68-1.2 5.53-1.75a62.9 62.9 0 005.5-1.87 15.2 15.2 0 004.33-2.45c.5-.43.94-.94 1.27-1.5h-1.04c1.31 2.37 3.5 4.4 6.27 4.8a9.64 9.64 0 005.36-.94c1.65-.73 3.1-1.86 3.72-3.6l-1.1.14c1 1.87 2.6 3.81 4.6 4.66.78.34 1.64.46 2.46.63.8.15 1.6.3 2.41.43 1.55.26 3.1.48 4.64.77.94.17 1.87.37 2.8.58 1.07.24 2.18.46 3.2.88 1.94.8 3.13 2.66 4.32 4.29a217.2 217.2 0 017.73 11.32c2.66 4.2 5.15 8.52 7.37 12.98.34.7 1.38.09 1.04-.6a166.75 166.75 0 00-14.08-22.9c-1.2-1.67-2.34-3.54-3.9-4.92-1.57-1.4-3.57-1.82-5.58-2.27-3.27-.73-6.61-1.12-9.9-1.8-.89-.17-1.78-.3-2.56-.77-.7-.4-1.3-.96-1.85-1.56a11.9 11.9 0 01-1.66-2.33c-.26-.5-.94-.32-1.1.14-.55 1.56-2.06 2.45-3.51 3.03-1.43.58-3 .92-4.54.6-2.28-.49-4-2.2-5.1-4.18-.22-.4-.82-.39-1.04 0-.74 1.26-2.06 2.06-3.33 2.7a34.84 34.84 0 01-5.28 2.02c-1.87.59-3.76 1.12-5.62 1.73-.87.28-1.73.58-2.58.92-.6.24-1.42.47-1.9.9-.72.64-1.2 1.81-1.57 2.66A24.9 24.9 0 0052 98.9c-.3 4.14.15 8.36 1 12.42l1.07 4.89a325.82 325.82 0 013.77 20.68c1.2 8.21 2.13 16.58 1.86 24.9a65.4 65.4 0 01-.14 2.74c-.06.77 1.15.77 1.2 0z" fill="#020202"/><path d="M60.2 161.34c6.65 1.72 7.35 2.74 21.53 3.45 17.69.9 19.68-2.3 25.94-3.17l2.68 39.8h-20.6l-4.21-15.31L83 201.42H56.55s1.47-38.21 3.66-40.08z" fill="#020202"/><path d="M60.04 161.93c2.35.6 4.66 1.37 7.03 1.9 3.33.76 6.76 1.07 10.17 1.3 7.92.56 16.16 1 23.89-1.19 2.22-.63 4.4-1.4 6.7-1.73l-.77-.58.9 13.5 1.45 21.38.33 4.92.6-.6H89.77l.58.44-3.69-13.38-.53-1.94c-.15-.53-1.06-.61-1.16 0l-2.22 13.42-.32 1.9.59-.45H56.55l.6.6c.17-4.3.39-8.62.63-12.93.4-7.08.79-14.19 1.68-21.23.16-1.28.34-2.56.62-3.82.09-.43.2-.84.33-1.24l.04-.1.09-.19.08-.13c0 .02-.1.1.02 0 .58-.52-.28-1.37-.86-.85-.45.4-.61 1.14-.76 1.7a29.55 29.55 0 00-.58 3.18 150.3 150.3 0 00-1 9.7 618.1 618.1 0 00-1.5 25.92c-.01.33.29.6.6.6H83c.25 0 .55-.18.59-.44l2.22-13.41.31-1.9h-1.16l3.69 13.38.53 1.93c.07.26.32.45.58.45h20.59c.31 0 .63-.28.6-.6l-.9-13.51-1.44-21.38-.34-4.92c-.03-.43-.36-.64-.76-.58-2 .28-3.9.9-5.83 1.48a40.24 40.24 0 01-7.76 1.54c-4.87.48-9.8.28-14.67 0a79.03 79.03 0 01-11.04-1.22c-2.65-.54-5.22-1.4-7.84-2.08-.76-.2-1.08.96-.33 1.16z" fill="#020202"/><path d="M103.23 25.3c-6.88-.54-13 4.22-19.82 4.31-6.42.1-13.07.43-19.29-1.59h-1.44c-.53 1.4.13 1.2.25 2.7.12 1.51 0 3.24 0 6.87 10.54 4.33 38.13.52 40.3-.67 0-7.03.18-11.6 0-11.61z" fill="#6F4AB3"/><path d="M72.86 33.6a280.2 280.2 0 00-23.46-6c13-4.88 25.85-9.33 32.95-11.6 4.8 1.04 24.2 5.76 35.22 8.82-7.7 2.71-26.46 9.74-33.87 9.7" fill="#6F4AB3"/><path d="M73.18 32.43a281.98 281.98 0 00-23.46-5.98v2.33a829.83 829.83 0 0127.5-9.82l5.45-1.79h-.64a694.76 694.76 0 0126.9 6.6c2.78.72 5.55 1.45 8.32 2.22v-2.33c-9.03 3.18-18.04 6.68-27.4 8.78a46.23 46.23 0 01-3.8.7l-.25.04a19.56 19.56 0 01-2.1.13c-1.56 0-1.56 2.41 0 2.42 1.91 0 3.84-.34 5.71-.73 2.4-.49 4.77-1.12 7.12-1.8 5.02-1.47 9.96-3.16 14.89-4.9l6.48-2.3c1.09-.39 1.2-2 0-2.34a812.27 812.27 0 00-26.36-6.74c-2.93-.7-5.88-1.55-8.86-2.08-.57-.1-1.13.16-1.66.33a456.38 456.38 0 00-4.6 1.52 894.54 894.54 0 00-27.35 9.75c-.5.2-.88.6-.88 1.17 0 .5.37 1.06.89 1.16a283.4 283.4 0 0123.45 5.99c1.5.45 2.14-1.88.65-2.33z" fill="#6F4AB3"/><path d="M118.31 25.59c-1.19.46-2.46.74-3.69 1.08A4061.12 4061.12 0 0190 33.34l-5.14 1.38-.57.15c-.38.12-.01-.1.19.05-.19-.14-.72-.13-.94-.18-5.11-.96-10.23-1.9-15.36-2.83-5.63-1.01-11.26-2.1-16.93-2.87L50 28.88c-.93-.1-.92 1.35 0 1.45.83.1 1.52.2 2.46.34l3.75.6c3.16.53 6.3 1.1 9.46 1.66 5.54.99 11.07 2 16.6 3.05.74.14 1.65.47 2.4.29 1.37-.34 2.72-.73 4.08-1.1l16.68-4.47c4.28-1.16 8.6-2.24 12.83-3.57l.44-.15c.86-.33.49-1.73-.39-1.4z" fill="#fff"/><path d="M48.9 28.3l.96 18.98c.05.92 1.5.93 1.45 0l-.95-18.97c-.05-.93-1.5-.94-1.45 0z" fill="#6F4AB3"/><path d="M50.72 42.22c-.38-.24-.91-.04-1.2.3a2.8 2.8 0 00-.46 1.26l-.47 2.46c-.14.73-.25 1.55.18 2.14.35.47.94.66 1.5.77.4.07.83.1 1.15-.13.18-.13.3-.32.4-.52a6.6 6.6 0 00.5-2.55c.04-.79.07-1.6-.22-2.34-.29-.73-.98-1.37-1.77-1.33" fill="#6F4AB3"/><path d="M51.09 41.6a1.7 1.7 0 00-2.08.42c-.52.6-.61 1.4-.76 2.16-.14.76-.3 1.53-.43 2.3-.1.72-.14 1.49.25 2.14.36.64 1.03 1 1.72 1.17.74.19 1.64.26 2.23-.32.52-.5.75-1.3.87-2 .13-.78.19-1.6.19-2.38a4.07 4.07 0 00-.7-2.44 2.56 2.56 0 00-2.04-1.09c-.93 0-.93 1.46 0 1.45.85 0 1.22.98 1.27 1.7a8.56 8.56 0 01-.31 3.17c-.06.16-.13.4-.27.52-.11.1-.29.08-.44.07a2.3 2.3 0 01-1.1-.37c-.31-.25-.31-.68-.28-1.06.04-.5.17-1.01.26-1.5.06-.3.42-2.95.89-2.7.82.45 1.55-.8.73-1.25z" fill="#6F4AB3"/><path d="M49.36 48.73l-1.46 7.03c-.08.38.11.78.51.9.36.1.81-.13.9-.51l1.45-7.04c.08-.38-.1-.78-.5-.9-.37-.1-.82.13-.9.52z" fill="#6F4AB3"/><path d="M50.15 49.67l.59 7.16c.03.4.3.73.73.73.36 0 .75-.33.72-.73l-.6-7.16c-.03-.39-.3-.72-.72-.72-.37 0-.76.33-.72.72z" fill="#6F4AB3"/><path d="M51.01 49.73L53.37 54c.18.33.67.47 1 .26a.74.74 0 00.25-1L52.26 49a.73.73 0 00-.99-.26.73.73 0 00-.26 1z" fill="#6F4AB3"/><path d="M84.2 50.64v-.05c-.2-.61-1.26-.55-1.2.16.09.9.2 1.79.33 2.68.12.84.22 1.72.79 2.4.2.26.47.46.72.68.16.13.62.46.6.72-.04.23-.57.52-.76.63-.36.21-.75.34-1.16.42-.76.14-.44 1.3.32 1.16a4.4 4.4 0 002.35-1.23c.73-.77.43-1.7-.28-2.37-.28-.26-.61-.48-.86-.78-.3-.33-.36-.78-.44-1.2-.17-1.04-.3-2.07-.4-3.11l-1.18.16.01.05c.24.74 1.4.42 1.17-.32zm6.65-1.15c.1-.16.3-.17.45-.06.16.1.26.3.33.5.13.36.17.77.1 1.14-.05.32-.2.62-.43.72-.28.12-.63-.05-.84-.35-.2-.3-.3-.7-.3-1.07a1.4 1.4 0 01.2-.9c.16-.23.47-.33.7-.16" fill="#020202"/><path d="M91.37 49.79a.4.4 0 01-.13.13l-.06.02-.14.01h-.05c.04 0 .04 0 0-.02-.1-.04-.03-.01-.02 0l-.04-.03.05.05c.06.06-.02-.02-.02-.03 0 .03.06.1.07.13.02.03.03.1-.01-.04l.02.05.1.33.01.07c.02.1 0-.02 0-.03-.01.05 0 .12.01.17v.32-.03l-.01.06-.04.15-.03.07.03-.06c-.02.04-.08.11-.09.15l.04-.05-.04.05.05-.05-.05.04c.02-.05.12-.05.05-.03-.07.02 0-.02.07 0h-.05c-.07 0 .15.04.05 0-.03 0-.15-.04-.06 0 .1.03-.03-.03-.05-.05-.1-.05.04.02.03.03l-.05-.05-.05-.05c-.06-.06.02 0 .02.03 0-.03-.06-.1-.08-.14l-.04-.07c.04.08-.01-.05-.02-.08l-.05-.17a.6.6 0 01-.02-.1v-.06a2.54 2.54 0 01-.01-.34v-.13.06c.02-.04.02-.11.03-.16l.03-.08c.02-.08 0 .02-.02.04l.04-.07.01-.03c-.03.07 0 .02.01 0 .03-.05-.12.07-.03.01l.05-.02c.06-.04-.14.05-.04.02.04-.02.1 0-.06 0h-.06.06c-.04.02-.13-.06-.02.01.26.18.68.06.83-.21a.62.62 0 00-.22-.83c-.34-.23-.8-.22-1.15-.01-.33.2-.53.55-.62.92a2.94 2.94 0 00.31 2c.21.32.5.58.87.68.4.11.81 0 1.1-.28.52-.52.56-1.4.4-2.07a1.88 1.88 0 00-.53-1.02.98.98 0 00-.7-.26.9.9 0 00-.73.43c-.18.26-.05.68.22.82.3.18.64.08.83-.2zm-13.39.55c.1-.16.3-.17.46-.06.15.11.26.3.33.5.13.37.17.78.1 1.15-.05.31-.2.61-.44.72-.27.12-.62-.06-.83-.36-.2-.3-.3-.69-.3-1.06a1.4 1.4 0 01.2-.9c.16-.24.47-.33.7-.16" fill="#020202"/><path d="M78.5 50.65a.39.39 0 01-.12.12s-.15.04-.06.03a.75.75 0 01-.14.01l-.05-.01h-.01c-.09-.06-.02-.02 0-.01.08.05-.05-.03-.05-.04l.05.06c.06.05-.02-.02-.02-.04 0 .04.05.1.07.13l-.01-.04.02.06.1.33.01.06c.02.11 0-.01 0-.03-.02.05 0 .12 0 .18v.32c0 .08.02-.12 0-.04v.06l-.04.16-.03.07.03-.06c-.02.04-.08.1-.09.15 0 0 .09-.1.04-.06l-.05.05c-.03.04.06-.04.06-.04l-.06.03c.03-.04.13-.04.06-.02-.08.02 0-.03.07 0h-.05c-.08-.01.15.03.05 0-.03 0-.15-.05-.06-.01.1.03-.03-.03-.05-.04-.1-.05.04.02.03.03l-.05-.05-.05-.05c-.06-.07.02 0 .02.02 0-.03-.06-.1-.08-.13l-.04-.07c.04.08-.02-.05-.02-.08a2.3 2.3 0 01-.07-.28v-.06a2.58 2.58 0 01-.01-.33v-.13.06c.02-.05.02-.12.03-.16 0-.03.02-.06.03-.08.02-.08 0 .02-.02.03l.04-.07.01-.02c-.03.07-.01.02 0 0 .04-.05-.11.06-.02.01l.04-.02c.07-.04-.13.05-.03.02.04-.02.1 0-.06 0 .08 0-.05 0-.07-.01 0 0 .06.02.07.01-.04.02-.13-.07-.02 0 .26.18.68.07.82-.2a.62.62 0 00-.21-.83c-.34-.23-.8-.23-1.15-.01-.33.2-.54.55-.62.92a2.94 2.94 0 00.31 2c.21.31.5.58.87.68.4.1.8 0 1.1-.29.52-.52.56-1.39.4-2.07a1.88 1.88 0 00-.53-1.01.98.98 0 00-.7-.27.9.9 0 00-.73.43c-.18.26-.06.68.22.83.3.17.64.08.83-.2zm1.8-4.33c-1.4-.27-2.8-.35-4.21-.2-.31.02-.62.25-.6.6.01.3.26.63.6.6 1.3-.13 2.62-.08 3.88.17.31.06.67-.09.75-.42.07-.3-.09-.68-.42-.75zm12.46-.46a10.3 10.3 0 00-4.27.43c-.3.1-.51.43-.42.75.08.3.43.52.75.42a9.4 9.4 0 013.94-.39c.32.04.6-.3.6-.6 0-.36-.28-.57-.6-.6zm-24.54 3.46a9.98 9.98 0 00-2.24-.6c-.67-.1-1.36-.15-1.73.54-.29.55-.3 1.34-.33 1.94-.02.71.05 1.42.2 2.12.48 2.39 2.27 5.61 5.04 5.68.77.02.77-1.19 0-1.2-1.03-.03-1.85-.8-2.44-1.57a7.82 7.82 0 01-1.51-5.88l.06-.34c0-.06.1-.22-.01-.15.16-.1.71.08.88.11.6.12 1.18.3 1.75.52.73.27 1.05-.9.33-1.17z" fill="#020202"/><path d="M68.63 54.45c-.38-.79-.87-1.5-1.43-2.17a.62.62 0 00-.43-.18.6.6 0 00-.42.18c-.24.25-.22.59 0 .85a4.18 4.18 0 01.22.29c.08.1-.06-.09-.01-.02l.09.11a9.76 9.76 0 01.94 1.55c.14.29.57.39.83.22.29-.2.36-.53.21-.83zm30.5-3.85c.57-.22 1.15-.4 1.75-.51.2-.04.64-.2.84-.11.04.02 0-.05.03.09l.08.4a7.86 7.86 0 01-1.51 5.87c-.6.78-1.42 1.55-2.44 1.57-.78.02-.78 1.23 0 1.21 2.77-.07 4.55-3.3 5.04-5.68a10 10 0 00.19-2.04 5.25 5.25 0 00-.3-1.94c-.33-.72-1-.72-1.68-.63-.8.1-1.57.31-2.32.6-.71.3-.4 1.46.32 1.18zM88.72 62.75c-.8 1.58-2 3.53-4 3.65-1.8.11-3.64-1.23-4.6-2.67-.44-.63-1.5-.03-1.05.61 1.2 1.78 3.4 3.39 5.65 3.27 2.47-.13 4.02-2.25 5.05-4.25.35-.68-.7-1.3-1.05-.6zm2.78 21.48c.08-.15 0 0-.09.07l-.34.29a18.47 18.47 0 01-5.8 3c-3.55 1.06-7.29.22-10.46-1.55-1.18-.65-2.53-1.48-3.29-2.62-.42-.65-1.47-.04-1.04.6a9.64 9.64 0 003.06 2.68 17.87 17.87 0 005.34 2.2c1.94.45 3.94.53 5.9.07a18.5 18.5 0 005.07-2.13 19.8 19.8 0 001.82-1.21c.28-.22.7-.47.87-.8.37-.68-.67-1.3-1.04-.6z" fill="#020202"/><path d="M153.8 45.02c-.02-.5-.62-1.03-.91-1.38-.51-.6-1.05-1.2-1.58-1.78l-.4.7c1.12.38 2.25.7 3.38 1.07.26.09.53-.14.53-.4 0-1.1.13-2.22 0-3.32l-.79.22c.35.64.72 1.27 1.1 1.9.2.33.54 1.17 1.02 1.17.43 0 .95-.57 1.25-.8.58-.44 1.14-.9 1.75-1.3l-.58-.58c-.36.57-.7 1.15-1.04 1.73-.23.4-.68.98-.69 1.47 0 .52.67.55 1.05.6.8.13 1.6.23 2.42.22l-.22-.78-2.75 1.28c-.22.1-.25.4-.15.58.49.92 1.06 1.8 1.7 2.62l.57-.57c-.65-.36-1.3-.71-1.97-1.04-.4-.2-.93-.56-1.27-.1-.3.4-.43 1.02-.58 1.5-.23.7-.43 1.43-.63 2.15l.82.11c-.1-.83-.23-1.66-.38-2.5-.1-.47-.16-1.44-.65-1.7-.45-.25-1.34.28-1.75.44-.81.32-1.62.66-2.42 1l.5.66 1.33-1.45c.3-.33.6-.66.88-1 .16-.19.36-.38.44-.62.17-.51-.64-.73-.81-.22.04-.13-.05.04-.1.09-.08.12-.19.23-.29.35a55.4 55.4 0 01-2.04 2.25c-.34.37.09.84.51.66a140.9 140.9 0 012.95-1.2c.09-.03.59-.12.62-.19-.04.08-.26-.22-.3-.1l.03.08c0 .1.08.25.11.36.09.33.15.67.21 1 .13.7.23 1.4.32 2.1.05.43.68.6.82.1.15-.55.31-1.11.48-1.66.16-.53.4-1.06.53-1.6.01-.04.1-.13.1-.16-.4.06-.5.11-.33.16l.07.02c.18.15.5.24.71.35.56.28 1.1.58 1.65.88.34.18.85-.22.58-.58a19.3 19.3 0 01-1.7-2.62l-.15.57 2.76-1.28c.39-.18.18-.78-.22-.78a13 13 0 01-1.75-.13l-.74-.11c-.08-.02-.16-.05-.24-.05-.08 0-.11-.04-.09-.03l.2.26c.04.15-.05.15.03.05.08-.1.12-.24.17-.34a41.4 41.4 0 011.42-2.41c.22-.35-.22-.81-.57-.58-.5.34-.98.72-1.46 1.09l-.75.58c-.04.02-.52.31-.51.35 0-.06.4.09.4.07l-.05-.06c0-.06-.11-.17-.15-.22l-.48-.78a46.8 46.8 0 01-.97-1.7c-.18-.34-.83-.2-.78.22.14 1.1 0 2.2 0 3.31l.53-.4c-1.12-.39-2.25-.7-3.38-1.08-.42-.14-.67.41-.4.7a75.83 75.83 0 011.94 2.23l.22.3c.09.1.08.25.07.03.02.55.86.55.84.02z" fill="#6F4AB3"/><path d="M151.47 44.1c-2.39-.23-4.85.05-7.19.55a27.1 27.1 0 00-10.53 4.68c-2.14 1.57-4 3.46-5.6 5.58-.32.43.4.85.73.43a26.54 26.54 0 0122.58-10.4c.54.05.54-.79 0-.84z" fill="#6F4AB3"/><path d="M148.53 45.98c-5.87.9-11.54 3.93-14.63 9.15-.27.47.45.9.73.43 2.98-5.05 8.46-7.9 14.12-8.77.54-.08.31-.9-.22-.81z" fill="#6F4AB3"/><path d="M195.39 69.74c0 .17-.05.1.05-.01l.2-.3.65-.76 1.33-1.5c.27-.28.01-.83-.4-.7-1.13.39-2.26.7-3.38 1.08l.53.4c0-1.1-.14-2.2 0-3.3.05-.43-.6-.56-.79-.22-.3.56-.61 1.1-.93 1.65l-.49.8c-.04.06-.16.18-.17.25 0 .02-.05.04-.05.05.01.04.41-.13.4-.06.01-.04-.42-.3-.47-.33l-.74-.57c-.5-.38-.99-.77-1.5-1.12-.35-.23-.8.23-.58.58.33.52.64 1.04.95 1.57l.45.8c.05.1.1.24.17.35.08.11-.02.2.05-.02l.2-.26c.02-.02-.01.02-.09.03-.08 0-.16.03-.24.05-.24.05-.5.08-.75.11-.58.08-1.16.13-1.75.13-.39 0-.6.6-.21.78l2.76 1.28-.15-.57c-.5.92-1.07 1.8-1.7 2.62-.27.36.24.76.57.58.54-.3 1.06-.58 1.6-.85.23-.12.57-.22.76-.37l.08-.03c.17-.05.06-.1-.32-.16 0 .03.07.12.08.16.13.51.37 1.03.52 1.53.18.58.34 1.15.5 1.73.13.5.77.34.82-.1a40.75 40.75 0 01.52-3.05c.03-.13.11-.29.12-.41 0-.03.03-.05.03-.07-.02-.13-.31.03-.28.1.04.07.54.17.64.2a104.16 104.16 0 013 1.22c.42.18.67-.42.41-.7a277.88 277.88 0 01-2.04-2.25l-.3-.35c-.03-.05-.13-.23-.09-.1-.17-.5-.98-.28-.8.23.08.24.28.44.44.62.28.34.58.67.87 1l1.33 1.45.5-.66c-.8-.34-1.6-.68-2.41-1-.42-.16-1.3-.68-1.76-.44-.49.26-.56 1.24-.64 1.7-.16.83-.28 1.67-.38 2.5l.82-.1c-.2-.7-.4-1.41-.62-2.11-.15-.49-.28-1.14-.6-1.56-.33-.44-.83-.11-1.21.08-.69.33-1.35.7-2.03 1.06l.58.58c.64-.83 1.2-1.7 1.7-2.63.1-.18.06-.47-.15-.57l-2.76-1.28-.21.78c.79 0 1.58-.1 2.36-.21.39-.06 1.1-.08 1.1-.62 0-.47-.44-1.03-.65-1.41-.34-.6-.7-1.2-1.08-1.78l-.57.57c.58.4 1.13.84 1.7 1.27.31.24.86.84 1.3.84.46 0 .8-.8 1-1.13.38-.64.75-1.3 1.11-1.95l-.78-.21c-.14 1.1 0 2.2 0 3.31 0 .26.27.5.53.4 1.12-.38 2.26-.69 3.38-1.07l-.4-.7c-.54.59-1.08 1.18-1.58 1.79-.3.34-.9.87-.9 1.37-.02.53.82.53.84-.01z" fill="#020202"/><path d="M196.88 69.66a23.3 23.3 0 016.78.48c3.65.75 7.14 2.21 10.17 4.39a26 26 0 015.64 5.53c.31.42 1.04 0 .72-.43a27.46 27.46 0 00-19.98-10.81 19.7 19.7 0 00-3.33 0c-.54.05-.54.9 0 .84z" fill="#020202"/><path d="M199.58 71.51c5.67.88 11.15 3.72 14.13 8.77.28.46 1 .04.73-.43-3.1-5.22-8.76-8.24-14.63-9.15-.53-.08-.76.73-.23.81z" fill="#020202"/></g></g><defs><clipPath id="a"><rect x="-14.88" y="6" width="361.77" height="194.45" rx="13.57" fill="#fff"/></clipPath><clipPath id="b"><path fill="#fff" transform="translate(45.6 14.81)" d="M0 0h240.47v187.9H0z"/></clipPath></defs></svg>