<svg width="332" height="200" fill="none" xmlns="http://www.w3.org/2000/svg"><g clip-path="url(#a)"><rect width="332" height="200" rx="16" fill="#FCFCFA"/><g clip-path="url(#b)"><path d="M154.08 201.42a459.1 459.1 0 014.16-12.51c1.33 2.63 4.04 7.33 7.1 12.5h20.53c-1.88-12.73-4.96-28.53-8.86-30.55l-44.39.56-2.15 30h23.61z" fill="#020202"/><path d="M154.7 201.59c1.33-4.2 2.69-8.37 4.15-12.51l-1.17.15c1.82 3.56 3.87 7 5.9 10.45l.97 1.66c.21.36.35.67.79.72h20.52c.46 0 .68-.4.62-.81a228.6 228.6 0 00-2.55-14.49c-.85-3.98-1.78-8.03-3.36-11.8a13.66 13.66 0 00-2.04-3.64c-.4-.46-.98-1.07-1.63-1.09-1-.03-2 .02-3 .04l-14.45.18-17.15.22c-3.18.04-6.36 0-9.54.12h-.14c-.37 0-.62.29-.64.63l-.73 10.18-1.16 16.1-.26 3.72c-.03.34.31.63.63.63h23.62c.82 0 .82-1.27 0-1.27h-23.62l.64.63.73-10.17 1.16-16.1.26-3.72-.63.63 7.74-.1 16.55-.2 15.32-.2 4.13-.05c.07 0 .59.05.63 0-.07.1-.36-.22-.14 0 .06.06.16.11.17.12.19.15.36.32.51.5.38.43.68.93.96 1.43 1.78 3.2 2.67 6.97 3.52 10.52 1.1 4.62 1.94 9.3 2.69 13.97l.54 3.54.62-.8h-20.53l.55.3c-2.44-4.12-4.92-8.23-7.1-12.5-.27-.52-1-.33-1.17.16a456.54 456.54 0 00-4.15 12.5c-.24.79.99 1.13 1.23.34zM158 63.05c-.7 1.2-.53 2.77.4 3.8.33.38.92.15 1.06-.28.46-1.36.83-3.22-.4-4.3-.25-.23-.66-.28-.9 0-.23.23-.28.66 0 .9l.16.15c.04.05.05.07 0 0l.06.09c.04.06.08.12.1.18.05.07.04.08.01 0l.04.1.05.2c.01.06.03.25.03.1.01.16.02.32.01.48l-.01.24v.1c-.02.13 0-.07 0 .01l-.1.48c-.07.32-.17.63-.27.95.36-.1.71-.2 1.07-.28l-.07-.08c.04.06.04.06 0 0l-.1-.13a2.64 2.64 0 01-.1-.19 3.16 3.16 0 01-.18-.58c-.02-.17 0 .06 0-.07 0-.12-.02-.25-.01-.37a8.53 8.53 0 01.03-.25l.1-.36c.05-.13-.05.08.02-.04l.1-.19c.17-.29.08-.71-.22-.87-.32-.18-.7-.1-.88.21zm9.2-.28c-.7 1.2-.53 2.77.4 3.8.33.38.92.15 1.06-.28.46-1.36.83-3.23-.4-4.31-.25-.22-.66-.27-.9 0-.23.24-.28.66 0 .9l.15.16c.05.05.06.07.02 0l.05.09.1.18c.05.07.04.08.01 0l.04.1.05.2c.01.05.03.25.03.1 0 .16.02.32.01.48l-.01.24-.01.1v.01l-.09.48c-.07.32-.17.63-.27.94l1.07-.28-.07-.08c.04.07.04.07 0 0a10.1 10.1 0 01-.2-.3c0-.04-.08-.18-.02-.05a3.38 3.38 0 01-.12-.36l-.03-.18-.01-.07c0-.13-.02-.25-.01-.37l.01-.16c-.01.16.02-.06.02-.1l.1-.35c.05-.13-.05.08.02-.04l.1-.19c.17-.29.08-.71-.22-.87a.64.64 0 00-.88.21zm-3.48 2.16a4.74 4.74 0 001.42 3.61c.19.2.38.39.55.6.08.1.16.23.22.37.02.02.02.06.03.08.06.17.01-.02.02.08.02.14 0 .15-.03.26a.85.85 0 01-.1.2.79.79 0 00-.08.09c.06-.07-.04.06 0 0 0 0-.08 0 0 .01-.14-.02.06.03-.1-.02-.31-.11-.69.13-.78.44-.1.35.12.67.45.79.69.24 1.39-.2 1.7-.8.34-.7.24-1.44-.19-2.06-.4-.58-.96-1-1.33-1.59a3.42 3.42 0 01-.5-2.05c.02-.35-.31-.64-.64-.64-.36 0-.62.28-.64.63zm-5.08 11.87a10.89 10.89 0 006.78 1.5c.34-.04.63-.27.63-.64 0-.32-.3-.68-.64-.64a9.77 9.77 0 01-6.13-1.32c-.7-.43-1.35.67-.64 1.1z" fill="#020202"/><path d="M172.04 56.68c.35 6.2.07 12.5-1 18.62-.4 2.2-.98 4.45-2.24 6.33-1.5 2.23-3.87 3.28-6.49 3.53-2.98.27-6.08-.46-8.45-2.33-.64-.5-1.55.39-.9.9a13 13 0 007.77 2.76c2.84.07 5.87-.64 7.94-2.7 1.76-1.75 2.7-4.17 3.27-6.54.7-2.95 1-6.03 1.24-9.04.31-3.83.36-7.68.14-11.52-.05-.83-1.32-.83-1.28 0z" fill="#020202"/><path d="M164.8 85.6c-.28 4.78.35 9.73 1.87 14.27.26.78 1.49.45 1.23-.34a37.24 37.24 0 01-1.82-13.93c.05-.81-1.23-.81-1.28 0zm-17.62-11.14c.88 2.7 1.49 5.5 2.07 8.28.69 3.27 1.3 6.57 1.7 9.89.16 1.4.3 2.83.26 4.25-.03.82 1.25.82 1.27 0 .1-2.84-.41-5.74-.88-8.54-.56-3.39-1.24-6.76-2.06-10.1-.34-1.38-.7-2.76-1.13-4.12-.26-.77-1.49-.44-1.23.34z" fill="#020202"/><path d="M147.22 67.33c-.51-1.03-2.51-3.18-3.46-2.46a2.9 2.9 0 00-.9 1.34c-.54 1.5-.38 3.2.43 4.57a5.95 5.95 0 003.87 2.74" fill="#fff"/><path d="M147.77 67a6.98 6.98 0 00-1.87-2.17c-.7-.55-1.7-1.08-2.53-.46-1.1.81-1.49 2.44-1.46 3.75a6.16 6.16 0 001.37 3.76 6.65 6.65 0 003.7 2.26c.8.18 1.15-1.05.35-1.23-2.63-.59-4.64-3.07-4.05-5.83.13-.6.34-1.32.86-1.7.06-.04.07-.03 0-.01.1-.03.12 0 .19.01.17.04.32.13.47.23a5.5 5.5 0 011.87 2.04c.37.73 1.48.09 1.1-.64zm7.68-6.14c.25-.18.5-.34.79-.47l.1-.05c-.06.03-.06.03 0 0l.17-.06c.15-.05.29-.09.44-.12l.22-.05.12-.02c-.08.01-.08.01 0 0a3.8 3.8 0 01.97.01c-.07 0-.07 0 0 0l.22.04c.33.07.71-.1.79-.44.07-.32-.1-.71-.45-.79a5 5 0 00-4 .84c-.27.2-.44.57-.24.88.17.27.59.45.87.23zm9.17-.71a5.27 5.27 0 014.29-.4c.33.1.7-.13.78-.45.1-.35-.11-.67-.44-.79a6.57 6.57 0 00-5.28.53c-.71.41-.07 1.5.65 1.1z" fill="#020202"/><path d="M144.28 67.88c.35.32.67.65.98 1a.6.6 0 00.9 0 .6.6 0 00.19-.44l-.03-.17a.61.61 0 00-.16-.28c-.3-.35-.63-.7-.98-1a.68.68 0 00-.45-.2.65.65 0 00-.45.2.63.63 0 00-.19.44c.01.17.07.34.19.45z" fill="#020202"/><path d="M185.7 122.17c-.4-.27-.6-1.35-.58-1.66.5-6.02-5.85-9.03-3.7-14.62.59-1.5 1.2-3.04 2.32-4.18a5 5 0 011.43-1.02 7.8 7.8 0 00-1.1-.97c-1.26-.88-2.8-1.23-4.3-1.56l-10.89-2.4-1.42-.71a18.28 18.28 0 01-4.32 3.83c-.7.47-1.41.92-2.21 1.16-1.04.3-3.1-.02-4.14-.35-3.88-1.29-5.74-4.9-5.74-4.9a89.25 89.25 0 00-18 3.75c-2.42.75-4.87 1.63-6.78 3.3l3 42.08 2.07 28.92c3.01 1.1 4.55 1.06 7.75 1.01 14.62-.22 25.16-.45 39.78-.67 1.29-.02 2.96-2.53 2.45-4.32l4.38-46.69z" fill="#6F4AB3"/><path d="M236.5 65.99l-6.25.3c-.38.02-.8.04-1.1.28-.24.19-.37.48-.5.75a258.34 258.34 0 00-13.84 39.34c-11.42-15.75-15.55-14.87-38.19-9.25-.23.06-3.34 0-3.58-.05.12.45 3.09.78 3.2 1.23.88 3.51 1.8 7 2.97 10.43 1.03 3.01-7.95 5.32-6.36 8.09.4.7.81 1.37 1.25 2.04.26.39 1.26 1.36 1.28 1.8v.05c10.52.65 28.36 5.1 38.95 3.45 4.1-.64 8.02-2.06 11.92-3.46 1.08-.4 2.17-.79 3.07-1.5 2.05-1.6 2.67-4.38 3.14-6.94a444.76 444.76 0 005.8-44.84c.03-.46.05-.98-.26-1.33-.35-.41-.96-.41-1.5-.4zm-160.89 0l6.26.3c.38.02.8.04 1.1.28.24.19.37.48.49.75a258.38 258.38 0 0113.84 39.34c11.42-15.75 15.55-14.87 38.2-9.25.23.06 3.2 1.13 3.44 1.07-.1.44-2.95-.34-3.06.1-.88 3.52-1.8 7.01-2.97 10.44-1.03 3 7.95 5.32 6.37 8.08-.4.7-.82 1.38-1.26 2.04-.26.4-1.26 1.36-1.28 1.8v.05c-10.51.66-28.36 5.11-38.95 3.46-4.1-.64-8.02-2.06-11.92-3.47a10.74 10.74 0 01-3.07-1.5c-2.05-1.59-2.67-4.38-3.13-6.94a443.42 443.42 0 01-5.8-44.83c-.04-.47-.06-.99.25-1.34.35-.4.96-.4 1.5-.38z" fill="#6F4AB3"/><path d="M76.06 65.86l-2.6-10.59-.6-2.48c-.18-.75-.43-1.64-.08-2.4.5-1.08 1.98-1.31 3.03-1.4 1.77-.15 3.57-.14 5.34-.1.85 0 1.7.04 2.55.09l1.15.07c.36.02.98-.03 1.3.17.43.28.2 1.76.17 2.23-.04.9-.12 1.79-.25 2.68A20.6 20.6 0 0185 58.8c-.26.65-.69 1.36-1.45 1.46-.75.1-1.47-.43-1.97-.94-1.23-1.3-1.62-3.28-1.42-5 .1-.82-1.19-.81-1.28 0-.2 1.8.21 3.72 1.25 5.22.89 1.28 2.54 2.44 4.16 1.84 1.62-.61 2.08-2.5 2.45-4 .49-2.02.78-4.09.86-6.16.03-.83.24-2.05-.34-2.73-.54-.63-1.42-.66-2.18-.71a73.2 73.2 0 00-6.49-.2c-1.68.04-3.54-.04-5.13.62-1.62.67-2.32 2.1-2.06 3.82.16 1.13.5 2.24.77 3.35l.89 3.6 1.76 7.21c.2.8 1.44.47 1.24-.33z" fill="#020202"/><path d="M82.64 60.5l-1.44 5.61c-.2.8 1.02 1.14 1.23.34l1.44-5.6c.2-.8-1.02-1.14-1.23-.35zm-4.98-5.18l.03.01-.23-.88-.02.03.23-.23c.03 0 .06-.02.08-.03l.72.3-.02-.04.06.5.01-.07-.16.28c-.05.06-.23.08 0 .04l.17-.05a8.69 8.69 0 001.1-.35 14.48 14.48 0 004.2-2.36c.82-.64 1.71-1.48 1.22-2.6-.42-.98-1.52-1.43-2.48-1.68a8.95 8.95 0 00-3.95-.1c-.34.07-.53.48-.45.8.1.35.45.5.79.44a7.4 7.4 0 014.3.46c.25.14.63.38.67.7.03.3-.4.58-.6.76a12.9 12.9 0 01-5.09 2.69c-.27.08-.55.12-.76.33-.21.22-.3.62-.1.89.2.25.4.33.71.3a.7.7 0 00.48-.36c.14-.28.1-.72-.23-.87l-.03-.02c-.31-.14-.69-.09-.87.23-.17.28-.1.73.22.88z" fill="#020202"/><path d="M81.26 53.38c.28 1.27.65 2.52 1.12 3.72.13.31.44.56.79.45.3-.1.57-.46.44-.79a24.7 24.7 0 01-1.12-3.72c-.07-.33-.47-.55-.78-.45a.65.65 0 00-.45.79zm3.1 7.44c.91 1.13 2.62.8 3.56-.11.57-.56.92-1.3 1.25-2.02a53.73 53.73 0 002.01-4.98c.23-.65.82-1.72.46-2.4-.34-.62-1.26-.94-1.88-1.2a12.6 12.6 0 00-2.5-.82c-.8-.17-1.14 1.06-.34 1.23a11.72 11.72 0 012.79.96c.24.13.59.25.78.44.07.05.05.02-.05-.07l-.06.2c-.08.12-.1.32-.15.47a38.07 38.07 0 01-1.06 2.92c-.47 1.2-.95 2.42-1.58 3.55-.42.74-1.54 1.91-2.35.92-.5-.63-1.4.28-.88.91zm153.37 4.36c-.4-2.12-.36-4.27-.12-6.4.21-1.9.55-3.77.63-5.68.07-1.75.15-4.08-1.47-5.2-1.4-.97-3.31-.6-4.86-.22a82.23 82.23 0 00-8.55 2.65c-.75.28-1.72.5-2.27 1.13-.72.82-.2 1.94.09 2.84a32.6 32.6 0 002.62 5.88c.46.8.94 1.66 1.62 2.3a2.9 2.9 0 002.61.86c.95-.2 1.7-.91 2.21-1.71 1.2-1.9 1.13-4.51.28-6.52-.31-.75-1.55-.42-1.23.34.66 1.56.85 3.5.1 5.08-.3.65-.82 1.35-1.55 1.55-.73.2-1.35-.28-1.8-.8-.56-.66-.98-1.45-1.4-2.2a31.22 31.22 0 01-2.23-5.13c-.12-.39-.28-.8-.36-1.2-.05-.24-.09-.37.1-.54.13-.12.32-.19.49-.25a69.16 69.16 0 019.62-3.06c1.2-.3 3.02-.76 4.03.24.6.6.64 1.58.68 2.39.03.8 0 1.6-.06 2.39-.14 1.84-.47 3.67-.64 5.52a21.9 21.9 0 00.23 6.08c.15.8 1.38.46 1.23-.34z" fill="#020202"/><path d="M234.27 52.93c-.35-.34-.8-.14-1.2-.02l-1.56.53c-.34.11-.72.3-1.08.37-.36.05-.8.03-1.17.05-.44.02-.88.05-1.33.04-.89 0-1.75-.16-2.57-.52-.29-.13-.78-.3-.76-.68.03-.36.44-.77.7-.97.37-.27.84-.41 1.26-.55.66-.22 1.33-.4 2-.55a29.8 29.8 0 014.04-.73c.8-.08.81-1.35 0-1.28-1.35.12-2.7.4-4.02.7-1.26.28-2.78.54-3.87 1.28-.74.5-1.46 1.36-1.37 2.31.1 1.1 1.23 1.56 2.14 1.87a8.3 8.3 0 002.88.4c.49-.01.97-.05 1.46-.08.34-.02.7 0 1.03-.1.55-.14 1.1-.37 1.64-.55l.93-.31.36-.11c.13-.05.2 0 .04-.02l-.45-.2v.01c.58.58 1.48-.32.9-.9z" fill="#020202"/><path d="M226.7 54.86c.09 1.3.08 2.6-.03 3.89-.03.33.3.65.63.63.37-.01.61-.28.64-.63.11-1.3.12-2.6.03-3.9-.03-.32-.28-.65-.64-.63-.32.02-.66.28-.64.64zm-.78 7.53c-.15.36-.66.48-1 .46-.54-.04-1-.39-1.37-.74-.94-.88-1.74-1.94-2.53-2.95a49.02 49.02 0 01-2.09-2.85s-.22-.39-.22-.26c0-.14.5-.52.6-.62a11.19 11.19 0 012.4-1.7c.73-.4.08-1.5-.64-1.11-.76.4-1.48.89-2.14 1.44-.54.45-1.4 1.06-1.51 1.78-.07.44.17.77.41 1.11a56.27 56.27 0 004.16 5.37 5.8 5.8 0 001.8 1.51c1.26.59 2.8.24 3.36-1.1.13-.33-.15-.7-.45-.8-.36-.1-.65.14-.78.46z" fill="#020202"/><path d="M226.42 62.81a7.12 7.12 0 002.65 3.8c.27.2.72.04.87-.24.18-.33.06-.66-.23-.87l-.06-.05-.07-.05-.18-.16a6.1 6.1 0 01-.7-.72l-.08-.1c-.06-.08.06.07 0 0l-.16-.23a6.94 6.94 0 01-.5-.86l-.05-.1-.03-.07-.03-.08-.03-.1a6.63 6.63 0 01-.17-.51c-.1-.33-.46-.56-.79-.45a.67.67 0 00-.44.8zm-79.32 3.53a13.2 13.2 0 01.43-5.4c.2-.69.53-1.42 1.2-1.67.3-.12.65-.11.96-.2.44-.15.79-.49 1.06-.85a4.46 4.46 0 00.68-3.81 7.8 7.8 0 009.37-1.57c-.23.69.6 1.25 1.3 1.47 2.2.74 4.78 1.12 6.7-.18.32 1.4 2 1.9 3.4 2.17.68 4.21 1.52 14.83.9 16.64.42-.8 1.31-1.17 2.09-1.61a5.9 5.9 0 002.91-3.48c.4-1.51-.18-3.31-1.56-4.04 1.63-.16 3.3-.8 4.28-2.1.99-1.31 1.08-3.35-.1-4.5-.46-.44-1.11-.8-1.25-1.42-.08-.4.07-.79.18-1.17.8-2.65 0-5.7-1.97-7.64a7.8 7.8 0 00-7.68-1.8c.53-.92 1.07-1.9 1.01-2.96-.08-1.52-1.38-2.68-2.68-3.5-2.46-1.56-5.4-2.57-8.28-2.16-2.88.4-5.63 2.44-6.28 5.28a9.42 9.42 0 00-11.3 3.2c-1.51 2.24-1.83 5.56.08 7.48-1.18-.73-2.8-.32-3.78.66a5.85 5.85 0 00-1.43 3.8c-.1 1.62.48 3.6 2.06 4.03a4.95 4.95 0 00-2.2 4.99 4.96 4.96 0 003.85 3.86c-.95 1.06-.95 2.78-.19 3.99.76 1.2 3.02 4.86 7.26 2.4-.16-.94-.1-1-.36-1.5-.04-1.07-1.76-.89-2.21-1.18a7.72 7.72 0 01-3.18-4.14c-.4-1.26-.41-2.77.45-3.77.87-1 2.8-1 3.33.2" fill="#020202"/><path d="M147.73 66.34a12.94 12.94 0 01.61-5.79c.1-.2.23-.45.42-.59.27-.18.6-.17.9-.23 2.24-.52 2.88-3.6 2.38-5.49l-.93.72a8.47 8.47 0 0010.15-1.67l-1.07-.62c-.45 1.93 2.28 2.51 3.63 2.76 1.81.34 3.73.28 5.31-.75l-.93-.38c.46 1.72 2.28 2.32 3.84 2.62l-.45-.44c.36 2.24.57 4.51.76 6.78.2 2.42.36 4.85.34 7.27-.01.78.02 1.59-.2 2.24-.22.7.81 1.1 1.17.5.55-.95 1.84-1.3 2.69-1.94a6.5 6.5 0 002.15-2.64c.8-1.92.25-4.36-1.63-5.43l-.32 1.19c2-.22 4.2-1.06 5.17-2.96.44-.87.6-1.85.44-2.8a3.8 3.8 0 00-1.47-2.35c-.47-.4-.67-.64-.5-1.26a8.38 8.38 0 00-3.5-9.67 8.49 8.49 0 00-6.85-.84l.72.93c.91-1.6 1.58-3.34.53-5.05-.94-1.55-2.71-2.57-4.31-3.3-3.32-1.55-7.32-1.96-10.48.18a7.4 7.4 0 00-3.13 4.34l.93-.39c-5.44-2.38-12.86.85-13.48 7.13a5.75 5.75 0 001.48 4.56l.77-1a3.69 3.69 0 00-3.7.1 5.16 5.16 0 00-2.24 3.3c-.54 2.2-.25 5.46 2.3 6.25l-.15-1.16a5.64 5.64 0 00-2.5 5.7 5.6 5.6 0 004.3 4.31l-.28-1.06a4.03 4.03 0 00-.59 4.17c.36.84.95 1.64 1.57 2.3a5.6 5.6 0 002.71 1.7 5.75 5.75 0 004.16-.78c.27-.15.34-.44.3-.72-.06-.32-.09-.64-.16-.95a2.9 2.9 0 00-.11-.34s-.16-.43-.08-.16c-.17-.62-.42-1.01-1.05-1.26-.46-.18-.97-.16-1.43-.33a5.35 5.35 0 01-1.7-1.5c-.98-1.22-1.83-3.1-1.33-4.68.21-.67.67-1.17 1.38-1.28.55-.08 1.08.09 1.34.6.36.74 1.46.1 1.1-.64-.54-1.11-1.91-1.46-3.04-1.13-1.38.42-2.08 1.74-2.17 3.12a7 7 0 001.35 4.27c.7 1 1.78 2.3 3.05 2.53.34.07 1 .06 1.22.36.06.08.1.32.13.43l.1.26c.09.33.12.7.17 1.03l.3-.72c-.99.56-2.1.94-3.24.65-.8-.2-1.46-.7-2.02-1.28-1.15-1.2-2.34-3.21-1.05-4.75.29-.34.23-.96-.28-1.07-1.64-.34-3-1.6-3.37-3.25a4.32 4.32 0 011.87-4.44c.46-.3.38-1-.16-1.16-1.74-.53-1.75-3.07-1.44-4.5a4.2 4.2 0 011.41-2.53c.77-.58 1.83-.79 2.7-.3.62.37 1.27-.47.76-1-2.37-2.47-.75-6.45 1.55-8.34a8.84 8.84 0 018.9-1.33c.37.16.84.05.94-.39.92-3.8 5.17-5.4 8.7-4.74 2.02.38 4.06 1.27 5.67 2.53a4 4 0 011.56 2.09c.25 1.07-.36 2.08-.87 2.98-.26.47.18 1.1.72.93a7.04 7.04 0 018.94 8.4c-.13.5-.32.97-.29 1.5.07.94.85 1.37 1.45 1.97.56.56.74 1.37.65 2.13-.26 2.14-2.46 3.18-4.38 3.38-.6.07-.92.85-.33 1.2 1.68.94 1.65 3.16.68 4.6a6.15 6.15 0 01-2.17 1.89c-.84.47-1.68.9-2.18 1.76l1.17.49c.2-.64.2-1.38.23-2.05.03-1.1 0-2.2-.05-3.3a125.3 125.3 0 00-1.08-11.63.61.61 0 00-.44-.44c-1.07-.21-2.63-.51-2.96-1.74-.1-.38-.59-.6-.93-.38a5.53 5.53 0 01-3.77.71c-.48-.06-3.48-.5-3.3-1.28.14-.59-.62-1.11-1.06-.62a7.17 7.17 0 01-8.6 1.47c-.5-.27-1.09.17-.94.72a3.83 3.83 0 01-.52 3.16c-.36.54-.73.7-1.36.82-.5.1-.95.32-1.3.73-.69.82-.92 2.04-1.09 3.07a14.04 14.04 0 00-.09 3.98c.1.82 1.38.83 1.28.01z" fill="#020202"/><path d="M147.13 98c2.96 5.8 9.8 8.74 16.04 6.89a13.87 13.87 0 004.92-2.64c.64-.52-.27-1.42-.9-.9a12.53 12.53 0 01-10.79 2.5 12.65 12.65 0 01-8.17-6.5c-.37-.73-1.48-.09-1.1.64zm-19.11 88.27a23 23 0 0011-9.1c.44-.7-.66-1.34-1.1-.65a21.55 21.55 0 01-10.24 8.52c-.75.3-.43 1.53.34 1.23zm39.64-64.73a12.47 12.47 0 00-7.21-1.83l-.83.04a963.96 963.96 0 00-13.25 18.27c2.74.2 5.48.28 8.22.25-1.93 3.64-4.01 8.8-6.66 13.86 4.57-4.4 12.99-12.83 17.56-17.22-1.77-1.67-4.4-1.94-6.81-2.13 2.95-2.77 6.44-8.1 8.98-11.24z" fill="#fff"/><path d="M168.03 120.9a13.31 13.31 0 00-8.22-1.9c-.48.03-.7.19-.99.58l-1.63 2.2a969.92 969.92 0 00-11.46 15.87c-.34.5.13 1.07.64 1.1 2.74.2 5.48.28 8.22.25l-.64-1.1c-2.39 4.53-4.29 9.31-6.66 13.86-.38.74.54 1.49 1.16.9 4.72-4.55 9.35-9.2 14.02-13.8l3.53-3.44c.28-.26.3-.77 0-1.04-2-1.82-4.73-2.13-7.32-2.34l.51 1.26c3.5-3.3 6-7.53 9-11.24.58-.73-.45-1.78-1.05-1.04-3 3.71-5.5 7.94-8.99 11.23-.5.47-.08 1.2.52 1.26 2.17.17 4.6.38 6.3 1.9v-1.03c-4.73 4.54-9.36 9.2-14.03 13.78l-3.54 3.45 1.16.89c2.37-4.55 4.27-9.33 6.66-13.87.25-.48-.06-1.11-.64-1.1a96.3 96.3 0 01-8.21-.25c.2.37.42.74.63 1.1a825.64 825.64 0 0113.24-18.27l-.63.37a12 12 0 017.68 1.69c.81.5 1.55-.78.74-1.27z" fill="#fff"/><path d="M229.32 119.49a85.12 85.12 0 0011.4-5.44 1019.52 1019.52 0 00-38.09-8.83 186.1 186.1 0 0016.79 33.57l2.37-11.77c5.44 4.81 7.67 7.05 14.94 14.32 0 0 7.41-7.36 9.5-11.86-5-2.8-11.91-7.18-16.91-9.99z" fill="#020202"/><path d="M229.6 120.51c4-1.58 7.92-3.4 11.65-5.55.78-.45.64-1.71-.25-1.94a1025.91 1025.91 0 00-38.08-8.82c-.72-.15-1.62.5-1.31 1.31a188.6 188.6 0 0016.88 33.82c.46.72 1.76.69 1.95-.25l2.37-11.78-1.78.47a256.9 256.9 0 0110.73 10.12l4.21 4.2c.41.41 1.1.41 1.5 0a73.28 73.28 0 007.61-8.73 20.9 20.9 0 002.07-3.33c.24-.52.15-1.16-.39-1.46-5.7-3.21-11.2-6.78-16.91-9.99-1.2-.67-2.27 1.17-1.07 1.84 5.7 3.21 11.2 6.78 16.91 9.99l-.38-1.45a28 28 0 01-4.03 5.83 88.8 88.8 0 01-4.37 4.84c-.31.33-.62.65-.94.96h1.5c-3.84-3.84-7.67-7.72-11.68-11.4a264.5 264.5 0 00-3.26-2.92c-.56-.49-1.6-.36-1.78.47l-2.37 11.77 1.94-.25a187.3 187.3 0 01-16.67-33.3l-1.31 1.3a1042.23 1042.23 0 0138.08 8.82l-.26-1.94a84.03 84.03 0 01-11.15 5.34c-.53.21-.9.71-.74 1.3.16.5.79.95 1.33.73zm-24.07-20.33c.77-3.9 1.91-7.73 3.46-11.4.22-.52.16-1.13-.39-1.45-.44-.26-1.23-.15-1.45.38a60.27 60.27 0 00-3.67 11.91c-.26 1.33 1.8 1.9 2.06.56zm-6.43-.75l-5.97-8.7c-.33-.48-.94-.7-1.46-.4-.47.28-.7.98-.38 1.46l5.98 8.71c.32.47.93.69 1.45.38.47-.27.71-.97.38-1.45zm-1.95 4.2l-8.21 2.52c-1.3.4-.75 2.45.56 2.04l8.22-2.52c1.3-.4.74-2.45-.57-2.05z" fill="#020202"/><path d="M77.4 150.19c.47 5.38-2.61 11.29-10.38 11.9 9.51 1.84 9.4 5.56 10.39 10.91-.19-4.66 2.27-10 9.72-10.92-11.06-.83-9.72-11.9-9.72-11.9z" fill="#6F4AB3"/><path d="M76.67 150.19a10.7 10.7 0 01-1.93 7.26c-1.82 2.45-4.75 3.65-7.72 3.9-.77.06-1.07 1.27-.2 1.44 2.44.48 5.2 1.12 7.09 2.85 1.26 1.15 1.83 2.68 2.19 4.31.23 1.08.4 2.17.6 3.25.14.81 1.47.62 1.44-.2a10.2 10.2 0 011.82-6.4c1.68-2.28 4.42-3.44 7.16-3.79.93-.12.97-1.4 0-1.48-3.02-.24-5.93-1.46-7.54-4.14a11.31 11.31 0 01-1.49-5.7c0-.44 0-.88.06-1.31.1-.94-1.37-.93-1.48 0-.47 3.98 1.1 8.46 4.46 10.74a12.26 12.26 0 006 1.9v-1.48c-3.22.41-6.28 1.68-8.29 4.32a11.44 11.44 0 00-2.17 7.34l1.45-.2c-.36-1.93-.58-3.91-1.39-5.72a8.46 8.46 0 00-4.35-4.16 23.22 23.22 0 00-5.16-1.56l-.2 1.45c2.74-.23 5.39-1.1 7.47-2.94a11.03 11.03 0 003.39-5.83c.28-1.26.37-2.57.27-3.86-.08-.94-1.56-.94-1.48 0z" fill="#6F4AB3"/><path d="M260.7 98.7a4.93 4.93 0 01-.87 3.33 4.8 4.8 0 01-3.51 1.78c-.77.07-1.07 1.28-.2 1.45 1.3.26 2.95.6 3.74 1.78.58.87.67 2.05.85 3.08.15.82 1.48.63 1.45-.2-.03-1.03.2-2.06.81-2.9a4.7 4.7 0 013.24-1.73c.93-.13.97-1.4 0-1.48-1.74-.15-3.23-1.05-3.77-2.7-.27-.82-.38-1.53-.27-2.42.05-.4-.38-.73-.74-.74-.44 0-.7.35-.74.74a6.69 6.69 0 00.44 3.14c.87 2.18 2.8 3.26 5.08 3.45v-1.47c-1.68.22-3.28.85-4.34 2.23a6.02 6.02 0 00-1.18 3.88l1.45-.2c-.22-1.22-.35-2.54-1.11-3.58-1.04-1.44-2.85-1.98-4.52-2.31l-.2 1.45a6.36 6.36 0 004.62-2.28 6.25 6.25 0 001.23-4.3c-.07-.95-1.54-.95-1.47 0z" fill="#000"/></g></g><defs><clipPath id="a"><path fill="#fff" d="M0 0h332v200H0z"/></clipPath><clipPath id="b"><path fill="#fff" transform="translate(65.06 35.85)" d="M0 0h201.87v166.84H0z"/></clipPath></defs></svg>