<svg width="332" height="200" fill="none" xmlns="http://www.w3.org/2000/svg"><rect width="332" height="200" rx="16" fill="#FCFCFA"/><g clip-path="url(#a)"><path d="M149.92 55.29a13.66 13.66 0 00-.2 6.36c.06.25.13.51.32.68.33.27.86.1 1.12-.23.27-.34.32-.78.37-1.2.21-1.7.25-3.75-1.15-4.72" fill="#020202"/><path d="M149.2 55.1a14.76 14.76 0 00-.34 5.92c.1.6.16 1.3.58 1.77.46.5 1.17.54 1.75.25.54-.27.87-.82.99-1.4a9.7 9.7 0 00.17-3.07 4 4 0 00-1.59-3.02c-.33-.24-.83-.06-1.02.27-.22.38-.06.78.27 1.02.66.48.85 1.4.88 2.18.02.47 0 .94-.04 1.4-.04.34-.01.97-.26 1.24-.04.04-.22.12-.1.1.07.06.08.08.05.03l-.06-.2c-.05-.17-.07-.33-.1-.5a12.92 12.92 0 01.27-5.58c.24-.95-1.2-1.34-1.45-.42zm-2.2-1a4.4 4.4 0 015.5-1.02c.83.5 1.6-.8.75-1.29a5.9 5.9 0 00-7.3 1.25c-.27.31-.31.75 0 1.05.26.26.79.32 1.05 0z" fill="#020202"/><path d="M154.77 43.01c2.66 3.25 2.6 7.74 3 11.7.18 1.88.43 3.8 1.07 5.59.27.72.58 1.43.97 2.1.57.94 1.47 1.66 2 2.6 1.37 2.46-1.96 4.64-3.18 6.44-1.14 1.7-1.4 3.75-1.46 5.75-.07 2.33.23 4.79-.56 7.03a8.84 8.84 0 01-4.39 4.77c-5.38 2.8-11.54.6-16.57-1.9-.86-.42-1.62.86-.75 1.3 4.68 2.33 10.09 4.36 15.37 2.95 4.36-1.16 7.73-4.42 8.27-8.97.3-2.61-.17-5.31.42-7.89.65-2.73 3.13-4.03 4.23-6.47a4.3 4.3 0 00.3-3.03c-.34-1.12-1.33-1.84-1.99-2.75-1.33-1.86-1.83-4.17-2.11-6.4-.6-4.77-.34-9.94-3.56-13.87-.61-.75-1.66.32-1.06 1.05z" fill="#020202"/><path d="M144.6 77.2c1.2 1.17 2.64 2 4.3 2.24 1.7.25 3.42.1 5.12 0 .96-.04.96-1.54 0-1.48-1.55.07-3.15.26-4.69.05a6.49 6.49 0 01-3.68-1.87c-.69-.67-1.74.38-1.06 1.06zm-19.18-14.45c.04-2.2-3.45-2.55-5.02-2.62-2.1-.1-4.4.7-5.48 2.62-1.12 2.02-.25 4.41.7 6.32a11.87 11.87 0 004.11 4.85 8.14 8.14 0 007.15.93c.9-.34.5-1.78-.4-1.43-4.48 1.7-8.4-2.09-9.95-5.95-.43-1.06-.86-2.3-.53-3.45a3.3 3.3 0 011.91-1.99 6.1 6.1 0 013.39-.32c.5.07 2.65.3 2.64 1.04-.04.96 1.45.96 1.48 0z" fill="#020202"/><path d="M164.1 26.72c-1.84-3.04-6.45-4.24-9.19-1.96a15.07 15.07 0 00-3.98-3.4c-3.92-2.38-8.88-3.46-13.19-1.86-4.31 1.6-7.55 6.28-6.6 10.76a19.35 19.35 0 00-17.06 2.62 19.19 19.19 0 00-7.87 15.32c0 .68.03 1.4-.22 2.04-.27.7-.84 1.23-1.33 1.79a12.57 12.57 0 00-3.07 10.06c.51 3.58 2.67 6.9 5.75 8.82.56.35 1.17.66 1.57 1.18.5.61.63 1.41.95 2.13 1.11 2.52 4.06 3.6 6.71 4.4 1.53.47 8.34 1.86 9.85 1.36a31.06 31.06 0 00-.7-4.72c-.4-.6-3.77-.85-4.39-1.22a11.33 11.33 0 01-5.49-8.75c-.06-.83-.01-1.74.5-2.4.35-.48.88-.77 1.43-1 2.23-.94 5.58-.52 7.98 1.66-.92-4.47-2.26-9.25 1.75-11.77.63-.4 1.41-.4 2.16-.49a7.08 7.08 0 005.08-3.22c.32-.5.58-1.07 1.07-1.4.44-.28.97-.34 1.5-.37 4.24-.28 9.08.64 12.28-2.16.5-.42.92-.92 1.45-1.28.86-.58 1.93-.76 2.95-.99 3.47-.78 6.88-2.4 9.07-5.2 2.2-2.79 2.88-6.9 1.05-9.95z" fill="#020202"/><path d="M164.75 26.34c-2.21-3.4-7.05-4.7-10.37-2.1h1.05c-3.86-4.67-10.9-7.37-16.84-5.78-5.22 1.39-9.19 6.56-8.18 12l.91-.9a20.12 20.12 0 00-18.04 3 20.07 20.07 0 00-7.83 15.65c-.02 1-.05 1.8-.72 2.62-.46.57-.98 1.08-1.42 1.67a13.17 13.17 0 00-1.51 13.06 14.18 14.18 0 005.49 6.2c1.47.97 1.51 2.46 2.47 3.8a8.13 8.13 0 003.17 2.5 27.55 27.55 0 006.93 2.08c2.04.38 4.69 1.13 6.75.58.29-.08.57-.4.54-.72a27.6 27.6 0 00-.63-4.42c-.2-.88-.6-1.15-1.45-1.41-.93-.29-1.9-.37-2.86-.6-1.13-.27-2.07-1.19-2.84-2.01-1-1.07-1.78-2.35-2.26-3.73-.45-1.29-1-3.26-.1-4.42 1.9-2.46 6.3-.93 8.2.7a.76.76 0 001.25-.72c-.41-2-.93-4-.96-6.06 0-2 .78-4.54 2.99-5.12 1.06-.27 2.1-.22 3.14-.65a7.9 7.9 0 002.42-1.52c.72-.65 1.09-1.44 1.67-2.18.84-1.06 2.39-.85 3.64-.86 4.13-.02 8.09.12 11.3-2.83 1.75-1.62 4.4-1.64 6.56-2.5 1.9-.74 3.7-1.77 5.19-3.19 3.28-3.1 4.62-8.1 2.34-12.14-.47-.84-1.76-.09-1.3.75 2.48 4.38-.17 9.43-4.1 11.86-2 1.25-4.18 1.84-6.44 2.4-.93.22-1.8.51-2.55 1.09-.84.64-1.5 1.44-2.46 1.95-2 1.06-4.38 1.08-6.59 1.09-1.73 0-4.33-.45-5.87.54-.63.4-.94 1.06-1.34 1.66a6.46 6.46 0 01-3.03 2.5c-1.02.4-2.12.3-3.16.62-.8.24-1.53.8-2.11 1.4-2.95 3.1-1.53 7.89-.76 11.55l1.25-.73c-2.2-1.88-5.25-2.9-8.1-2.06-1.3.38-2.53 1.12-2.94 2.45-.43 1.45-.06 3.2.38 4.6.86 2.6 2.85 5.57 5.45 6.72.95.42 2.07.46 3.08.7.78.18.93.18 1.04.97.16 1.2.4 2.36.48 3.57l.54-.72c-1.6.43-3.74-.17-5.32-.46a35.78 35.78 0 01-5.22-1.25 12.52 12.52 0 01-3.52-1.7c-1.27-.95-1.56-2.12-2.21-3.48-.5-1-1.31-1.52-2.24-2.1-1.37-.88-2.55-2-3.46-3.35a11.66 11.66 0 01-.47-12.4c.73-1.3 1.93-2.23 2.66-3.5.64-1.12.47-2.41.53-3.65a18.7 18.7 0 015.12-11.79c4.8-5 12.27-6.68 18.84-4.6.59.18 1.01-.4.92-.91-.93-5.01 3.25-9.5 8-10.39 5.25-.96 11.16 1.53 14.53 5.6.28.33.76.22 1.05 0 2.55-1.98 6.39-.72 8.02 1.81.53.83 1.82.08 1.3-.74z" fill="#020202"/><path d="M123.78 77.2c1.76 3.75 3.51 7.56 4.5 11.59.97 4.01 1.03 8.14.74 12.25-.06.95 1.43.95 1.5 0 .29-4.25.2-8.5-.81-12.66s-2.84-8.07-4.64-11.93c-.4-.86-1.69-.11-1.29.76zm22.85 14.46c0 3.18-.08 6.36-.08 9.53 0 .96 1.5.96 1.5 0 0-3.17.07-6.35.07-9.53 0-.95-1.49-.96-1.49 0zm-32.41 90.45c1.23 3.2 2.36 6.45 3.4 9.72.3.91 1.74.52 1.44-.39a180.44 180.44 0 00-3.4-9.72c-.15-.37-.5-.64-.92-.52-.36.1-.66.53-.52.91z" fill="#020202"/><path d="M220.36 130.85c-5.38-17.16-10.78-34.3-16.16-51.47 0 0-8.77 1.16-13.2.59l.26 2.5 8.05 32.1 2.79 1.27c-13.51-2.55-26.63-6.84-39.7-11.1l-14.15-4.64s-6.27 10.05-18.75 1.7v-.75c-19.8 9.86-37.95 20-56.42 32.17-1.49.98-3.16 2.47-2.67 4.16l.31.01c-2.14 5.74-.15 12.36 3.58 17.23 3.71 4.88 8.94 8.34 14.06 11.72l25.05 16.52a53.86 53.86 0 0110.26-12.32 272.52 272.52 0 00-38.84-27.6l3.95 1.32 17.67-7.14c3.28-1.32 6.67-2.72 9.12-5.27l.2-.32a1089.4 1089.4 0 0110.99 50.13l1.26 3.91a556.7 556.7 0 0050.64-4.84l2.6-1.16-10.7-56.62 1.66 6.7c15.99 1.8 32.11 2.2 48.14 1.2z" fill="#6F4AB3"/><path d="M193.22 78.5c-1.4-2.64-3.68-4.6-5.46-6.96a10.62 10.62 0 01-1.8-9.4c.4-1.58 1-3.2 1.84-4.6.3-.5.63-.87 1.13-.46.26.22.39.7.47 1.02.2.77.2 1.6.23 2.4.15 2.8.13 5.88 2.23 8.03 2.13 2.2 5.47 2.53 8.34 2.06.95-.15.55-1.6-.39-1.43-3.3.54-7.13-.4-8.17-3.94-.5-1.7-.43-3.5-.53-5.25-.1-1.33-.16-2.9-1.13-3.93-2.6-2.78-4.6 2.9-5.14 4.6-1.05 3.23-1.16 6.76.46 9.82 1.73 3.28 4.89 5.52 6.63 8.8.45.84 1.75.09 1.29-.76zm-32.29-16.28c4.6-.22 9.21-.13 13.81.1.96.06.96-1.44 0-1.48-4.6-.24-9.22-.33-13.81-.11-.96.04-.96 1.54 0 1.49zm-2.1-7.73c5.16.08 10.3.02 15.45.1.96.02.96-1.47 0-1.48-5.15-.09-10.3-.03-15.45-.11-.96-.02-.96 1.46 0 1.49z" fill="#020202"/><path d="M207.35 65.33h-16.14c-.97 0-.97 1.48 0 1.48h16.14c.97 0 .97-1.48 0-1.48zm-.98-15.99a379.82 379.82 0 00-25.17-.68c-2.07.01-4.28-.18-6.3.29a.74.74 0 00-.54.71c-.07 2.64-.08 5.28-.03 7.92.03 2.35-.12 4.92.3 7.25.37 2.07 1.92 2.22 3.77 2.25 2.2.04 4.38.1 6.57.12.96.01.96-1.47 0-1.48l-5.22-.1c-.85-.01-2.23.23-3-.09-.94-.38-.74-2.13-.78-2.93-.17-4.31-.2-8.63-.1-12.94-.2.24-.38.48-.55.72 2.03-.47 4.36-.22 6.44-.23a372.27 372.27 0 0124.63.67c.94.07.94-1.43-.02-1.48z" fill="#020202"/><path d="M247.83 39.5c-9.76-.1-19.5.06-29.24.46l-3.52.15c-1.25.06-2.84-.13-4.05.2-.3.09-.45.2-.7.39a8.66 8.66 0 00-2.04 2.52c-3.02 5.24-3.03 12.36-2.28 18.15.38 2.95 1.3 5.93 2.3 8.73.26.7.49 1.7 1.04 2.26.47.48 1.22.62 1.86.72 1.35.2 2.7.31 4.06.46a248.34 248.34 0 0036.17 1.06c.96-.04.96-1.53 0-1.49a248.17 248.17 0 01-37.23-1.17c-1.03-.11-2.46-.03-3.4-.47-.44-.2-.49-.32-.68-.8a45.1 45.1 0 01-2.39-8.06c-.73-3.47-.7-7.25-.36-10.75.24-2.43.73-4.92 1.81-7.12a9 9 0 011.96-2.77c.22-.2.11-.2.36-.27.57-.15 1.66 0 2.3-.03l3.57-.17c10.16-.43 20.31-.6 30.48-.52.95.01.95-1.47-.02-1.49zm-119.8 146.07c15.11.17 38.03-3.74 53-5.75.41-.06.9-.1 1.22.18.26.22.32.59.39.91l1.7 9.6" fill="#020202"/><path d="M128.03 186.31c7.99.08 15.99-.77 23.9-1.73 8.2-1 16.37-2.23 24.54-3.4l2.98-.4c.46-.07.96-.19 1.43-.2.91-.01.97.24 1.13 1.06l1.6 9.07c.16.95 1.61.55 1.44-.39-.5-2.76-.97-5.51-1.46-8.27-.33-1.86-.6-3.2-2.76-2.96-4 .45-7.97 1.12-11.95 1.7a495.62 495.62 0 01-27.14 3.39c-4.56.4-9.13.68-13.7.64-.97 0-.97 1.5 0 1.5z" fill="#020202"/><path d="M118.94 190.97a35.4 35.4 0 00-4.9-4.64c-1.12-.87-2.65-2.35-4.2-1.74-3.08 1.2-.13 6.57.84 8.23 1.63 2.8 4.4 6.33 7.76 7.08 1.33.3 2.8 0 3.61-1.18.95-1.38.59-3.17.19-4.67l-1.1.83c1.33.68 3.2 1.37 4.5.28.65-.53.83-1.33.98-2.12.21-1.22.35-2.44.46-3.68l-1.39.38c.62 1.22 2.33 1.25 3.25.31 1.31-1.34.45-3.67.1-5.22-1.05-4.48-2.31-8.96-4.95-12.8-.55-.8-1.83-.04-1.3.75a28.35 28.35 0 013.67 8.1 83 83 0 011.07 4.12c.16.7.36 1.42.5 2.14.06.33.13.69.1 1.02 0 .05-.62 1.87-1.16.82-.35-.72-1.32-.3-1.39.38-.1 1.27-.1 2.81-.57 4-.54 1.43-2.12.74-3.13.22-.57-.3-1.28.19-1.1.84.28 1.06.77 2.72-.15 3.64-.99.98-2.7.2-3.67-.44a16.83 16.83 0 01-5.1-5.74 18.25 18.25 0 01-1.51-3.38c-.36-1.1-.69-3.3 1.14-2.2 2.41 1.46 4.55 3.61 6.39 5.72.64.74 1.7-.33 1.06-1.05zM68.87 80.41a46.6 46.6 0 0112.29 7.46c.61.53 1.25 1.32 2.12.92.9-.42 1.6-1.76 2.22-2.53l5-6.35c.6-.75-.45-1.8-1.05-1.05l-4.63 5.85-1.15 1.47-.52.65c-.08.11-.6.6-.25.59-.21 0-1.09-.94-1.25-1.07a48.72 48.72 0 00-12.39-7.38c-.88-.36-1.26 1.08-.39 1.44zm-4.38 21.84a28.16 28.16 0 017.5 4.57c.46.4.92.9 1.59.64.63-.26 1.08-1.12 1.49-1.64l3.1-3.93c.6-.75-.45-1.8-1.05-1.06l-2.87 3.63-.72.91-.31.4-.24.3.49.07c0-.1-.7-.6-.78-.66-.25-.2-.5-.41-.77-.6a30.8 30.8 0 00-7.04-4.05c-.88-.38-1.26 1.07-.39 1.42zM203.42 78.7l-.2-3.35c-.05-1.13.14-1.9.76-2.84a17.37 17.37 0 002.54-5.7c.2-.93-1.23-1.33-1.44-.39-.25 1.11-.6 2.2-1.1 3.2-.47.93-1.09 1.74-1.59 2.64-.52.9-.7 1.84-.66 2.88.04 1.19.13 2.38.2 3.57.05.95 1.54.95 1.49 0z" fill="#020202"/><path d="M247.1 39.9l-.28.18.67-.02-.38-.16z" fill="#6F4AB3"/><path d="M265.9 54.25a21.81 21.81 0 00-2.12-6.9c-4.5-8.73-17.15-9.5-23.26-4.56-1.86 1.5-6.57 4.16-6.57 16.13 0 5 3.01 11.49 8.34 14.12 5.85 2.89 14.07.96 18.48-3.25 4.42-4.2 5.62-10.06 5.13-15.54z" fill="#6F4AB3"/><path d="M242.32 46.65c-4.19 6.3-2.98 15.34 2.67 20.36.72.64 1.78-.42 1.06-1.06a14.52 14.52 0 01-2.44-18.55c.53-.8-.76-1.54-1.29-.75z" fill="#fff"/><path d="M119.1 65.86a3.52 3.52 0 012.46.39c.24.14.45.28.56.44.14.2.18.46.24.74.06.35.14.67.29.99a1.72 1.72 0 001.85 1.01c.4-.07.62-.55.53-.91-.13-.43-.53-.59-.92-.52.12-.03.09.03.03-.03.08.08-.04-.05 0 0 .05.04-.08-.1-.1-.1.06.07-.06-.12-.06-.11-.07-.11-.01 0-.05-.11l-.05-.2-.1-.48a2.72 2.72 0 00-1.1-1.74 4.92 4.92 0 00-3.97-.79c-.4.1-.63.55-.53.92.1.38.51.58.92.5z" fill="#020202"/></g><defs><clipPath id="a"><path fill="#fff" transform="translate(64 18)" d="M0 0h202v182H0z"/></clipPath></defs></svg>