<svg width="21" height="21" viewBox="0 0 21 21" fill="none" xmlns="http://www.w3.org/2000/svg">
<g clip-path="url(#clip0_1_686)">
<path d="M20.5526 6.18279C20.5057 5.12011 20.3339 4.38953 20.0877 3.75647C19.8337 3.0845 19.443 2.48288 18.9312 1.98275C18.431 1.47484 17.8255 1.08017 17.1613 0.830181C16.5245 0.584009 15.7978 0.412161 14.7351 0.365308C13.6645 0.314486 13.3246 0.302734 10.6092 0.302734C7.89386 0.302734 7.55398 0.314486 6.48733 0.36134C5.42465 0.408193 4.69407 0.580193 4.06117 0.826213C3.38904 1.08017 2.78742 1.47087 2.28729 1.98275C1.77938 2.48288 1.38486 3.08847 1.13472 3.75266C0.888551 4.38953 0.716704 5.11614 0.66985 6.17882C0.619028 7.24943 0.607277 7.58931 0.607277 10.3047C0.607277 13.0201 0.619028 13.3599 0.665882 14.4266C0.712736 15.4893 0.884736 16.2198 1.13091 16.8529C1.38486 17.5249 1.77938 18.1265 2.28729 18.6266C2.78742 19.1345 3.39301 19.5292 4.0572 19.7792C4.69407 20.0254 5.42069 20.1972 6.48352 20.2441C7.55001 20.2911 7.89004 20.3027 10.6054 20.3027C13.3208 20.3027 13.6607 20.2911 14.7273 20.2441C15.79 20.1972 16.5206 20.0254 17.1535 19.7792C18.4976 19.2595 19.5603 18.1969 20.0799 16.8529C20.3259 16.216 20.4979 15.4893 20.5448 14.4266C20.5917 13.3599 20.6034 13.0201 20.6034 10.3047C20.6034 7.58931 20.5994 7.24943 20.5526 6.18279ZM18.7515 14.3484C18.7085 15.3252 18.5444 15.8526 18.4077 16.2043C18.0716 17.0756 17.3801 17.7671 16.5088 18.1031C16.1572 18.2399 15.6259 18.404 14.653 18.4468C13.5981 18.4938 13.2817 18.5054 10.6132 18.5054C7.94468 18.5054 7.62433 18.4938 6.57326 18.4468C5.5965 18.404 5.06906 18.2399 4.71742 18.1031C4.28384 17.9429 3.88917 17.6889 3.56882 17.3568C3.23673 17.0325 2.98277 16.6418 2.82252 16.2082C2.68578 15.8566 2.52171 15.3252 2.47883 14.3524C2.43182 13.2975 2.42022 12.981 2.42022 10.3125C2.42022 7.64395 2.43182 7.32361 2.47883 6.27268C2.52171 5.29593 2.68578 4.76848 2.82252 4.41685C2.98277 3.98311 3.23673 3.58859 3.57279 3.2681C3.89695 2.936 4.28765 2.68204 4.72139 2.52195C5.07302 2.3852 5.60444 2.22114 6.57722 2.1781C7.63212 2.13125 7.94865 2.1195 10.617 2.1195C13.2895 2.1195 13.6059 2.13125 14.657 2.1781C15.6337 2.22114 16.1612 2.3852 16.5128 2.52195C16.9464 2.68204 17.341 2.936 17.6614 3.2681C17.9935 3.59241 18.2474 3.98311 18.4077 4.41685C18.5444 4.76848 18.7085 5.29974 18.7515 6.27268C18.7984 7.32757 18.8101 7.64395 18.8101 10.3125C18.8101 12.981 18.7984 13.2936 18.7515 14.3484Z" fill="black"/>
<path d="M10.6092 5.16699C7.77283 5.16699 5.4715 7.46816 5.4715 10.3047C5.4715 13.1413 7.77283 15.4424 10.6092 15.4424C13.4458 15.4424 15.7469 13.1413 15.7469 10.3047C15.7469 7.46816 13.4458 5.16699 10.6092 5.16699ZM10.6092 13.6374C8.76911 13.6374 7.27651 12.145 7.27651 10.3047C7.27651 8.46445 8.76911 6.972 10.6092 6.972C12.4495 6.972 13.9419 8.46445 13.9419 10.3047C13.9419 12.145 12.4495 13.6374 10.6092 13.6374Z" fill="black"/>
<path d="M17.1497 4.96407C17.1497 5.62643 16.6126 6.16349 15.9501 6.16349C15.2877 6.16349 14.7507 5.62643 14.7507 4.96407C14.7507 4.30156 15.2877 3.76465 15.9501 3.76465C16.6126 3.76465 17.1497 4.30156 17.1497 4.96407Z" fill="black"/>
</g>
<defs>
<clipPath id="clip0_1_686">
<rect width="20" height="20" fill="white" transform="translate(0.572144 0.302734)"/>
</clipPath>
</defs>
</svg>
