<svg width="21" height="21" viewBox="0 0 21 21" fill="none" xmlns="http://www.w3.org/2000/svg">
<g clip-path="url(#clip0_1_720)">
<path d="M20.739 20.3026L20.744 20.3018V12.9668C20.744 9.37842 19.9715 6.61426 15.7765 6.61426C13.7599 6.61426 12.4065 7.72092 11.854 8.77009H11.7957V6.94926H7.81818V20.3018H11.9599V13.6901C11.9599 11.9493 12.2899 10.2659 14.4457 10.2659C16.5698 10.2659 16.6015 12.2526 16.6015 13.8018V20.3026H20.739Z" fill="black"/>
<path d="M1.07402 6.9502H5.22068V20.3027H1.07402V6.9502Z" fill="black"/>
<path d="M3.14569 0.302734C1.81985 0.302734 0.744019 1.37857 0.744019 2.7044C0.744019 4.03023 1.81985 5.12857 3.14569 5.12857C4.47152 5.12857 5.54735 4.03023 5.54735 2.7044C5.54652 1.37857 4.47069 0.302734 3.14569 0.302734Z" fill="black"/>
</g>
<defs>
<clipPath id="clip0_1_720">
<rect width="20" height="20" fill="white" transform="translate(0.744019 0.302734)"/>
</clipPath>
</defs>
</svg>
