<svg width="21" height="21" viewBox="0 0 21 21" fill="none" xmlns="http://www.w3.org/2000/svg">
<g clip-path="url(#clip0_1_697)">
<path d="M10.5469 0.302734C5.06444 0.303568 2.15027 3.81607 2.15027 7.64607C2.15027 9.4219 3.14277 11.6377 4.73194 12.3402C5.18527 12.5444 5.12527 12.2952 5.51527 10.8036C5.5461 10.6794 5.53027 10.5719 5.43027 10.4561C3.1586 7.82857 4.98694 2.4269 10.2228 2.4269C17.8003 2.4269 16.3844 12.9119 11.5411 12.9119C10.2928 12.9119 9.36277 11.9319 9.65694 10.7194C10.0136 9.27524 10.7119 7.72273 10.7119 6.6819C10.7119 4.05857 6.8036 4.44773 6.8036 7.92357C6.8036 8.99774 7.1836 9.72273 7.1836 9.72273C7.1836 9.72273 5.9261 14.8027 5.69277 15.7519C5.29777 17.3586 5.7461 19.9594 5.78527 20.1836C5.80944 20.3069 5.94777 20.3461 6.02527 20.2444C6.14944 20.0819 7.66944 17.9136 8.09527 16.3461C8.25027 15.7752 8.8861 13.4586 8.8861 13.4586C9.30527 14.2152 10.5136 14.8486 11.8011 14.8486C15.6311 14.8486 18.3994 11.4819 18.3994 7.3044C18.3861 3.2994 14.9586 0.302734 10.5469 0.302734Z" fill="black"/>
</g>
<defs>
<clipPath id="clip0_1_697">
<rect width="20" height="20" fill="white" transform="translate(0.275269 0.302734)"/>
</clipPath>
</defs>
</svg>
