<svg width="21" height="21" viewBox="0 0 21 21" fill="none" xmlns="http://www.w3.org/2000/svg">
<g clip-path="url(#clip0_1_700)">
<path d="M20.5096 4.10148C19.7659 4.42773 18.9734 4.64398 18.1471 4.74898C18.9971 4.24148 19.6459 3.44398 19.9509 2.48273C19.1584 2.95523 18.2834 3.28898 17.3509 3.47523C16.5984 2.67398 15.5259 2.17773 14.3559 2.17773C12.0859 2.17773 10.2584 4.02023 10.2584 6.27898C10.2584 6.60398 10.2859 6.91648 10.3534 7.21398C6.94464 7.04773 3.92839 5.41398 1.90214 2.92523C1.54839 3.53898 1.34089 4.24148 1.34089 4.99773C1.34089 6.41773 2.07214 7.67648 3.16214 8.40523C2.50339 8.39273 1.85714 8.20148 1.30964 7.90023C1.30964 7.91273 1.30964 7.92898 1.30964 7.94523C1.30964 9.93773 2.73089 11.5927 4.59464 11.974C4.26089 12.0652 3.89714 12.109 3.51964 12.109C3.25714 12.109 2.99214 12.094 2.74339 12.039C3.27464 13.6627 4.78214 14.8565 6.57464 14.8952C5.17964 15.9865 3.40839 16.644 1.49089 16.644C1.15464 16.644 0.832144 16.629 0.509644 16.5877C2.32589 17.759 4.47839 18.4277 6.79964 18.4277C14.3446 18.4277 18.4696 12.1777 18.4696 6.76023C18.4696 6.57898 18.4634 6.40398 18.4546 6.23023C19.2684 5.65273 19.9521 4.93148 20.5096 4.10148Z" fill="black"/>
</g>
<defs>
<clipPath id="clip0_1_700">
<rect width="20" height="20" fill="white" transform="translate(0.509644 0.302734)"/>
</clipPath>
</defs>
</svg>
