<svg width="20" height="14" viewBox="0 0 20 14" fill="none" xmlns="http://www.w3.org/2000/svg">
<path d="M19.0198 2.61623C18.8037 1.81297 18.1704 1.17976 17.3672 0.96347C15.9 0.562012 10.0309 0.562012 10.0309 0.562012C10.0309 0.562012 4.16203 0.562012 2.69478 0.94825C1.90708 1.16431 1.25832 1.81308 1.04225 2.61623C0.656128 4.08336 0.656128 7.126 0.656128 7.126C0.656128 7.126 0.656128 10.184 1.04225 11.6358C1.25854 12.4389 1.89163 13.0721 2.69489 13.2884C4.17747 13.69 10.0311 13.69 10.0311 13.69C10.0311 13.69 15.9 13.69 17.3672 13.3037C18.1705 13.0876 18.8037 12.4544 19.02 11.6512C19.406 10.184 19.406 7.14145 19.406 7.14145C19.406 7.14145 19.4215 4.08336 19.0198 2.61623ZM8.16231 9.9369V4.3151L13.0428 7.126L8.16231 9.9369Z" fill="black"/>
</svg>
