<svg width="506" height="339" fill="none" xmlns="http://www.w3.org/2000/svg"><g clip-path="url(#a)"><path d="M306.28 101.9c.06-.83-.1-1.65-.49-2.38a1.27 1.27 0 00-1.12-.4c-10.24.2-51.2.2-61.44 0a1.27 1.27 0 00-1.12.4 4.37 4.37 0 00-.49 2.38c-.06 2.87-.08 5.75-.06 8.63-.07.8.07 1.6.4 2.34a1.37 1.37 0 001.34.56c10.22-.09 51.08-.09 61.3 0a1.42 1.42 0 001.33-.56c.33-.74.47-1.54.4-2.34.06-2.86.04-5.74-.05-8.63z" fill="#fff"/><path d="M307.04 101.9c0-1.32-.14-3.1-1.7-3.44-.78-.09-1.58-.09-2.37 0-1.88 0-3.78 0-5.66.06-5.32 0-10.63.05-15.95.06-11.03 0-22.07 0-33.11-.08-1.62 0-3.24-.07-4.85-.06-1.6 0-2.18.82-2.38 2.26a47 47 0 00-.14 6.5c0 1.74-.4 4.11.34 5.75.54 1.16 1.58 1.23 2.72 1.22h5.2c11.1-.04 22.19-.04 33.28 0h21.12c.9.15 1.84 0 2.65-.45 1.27-1.05.9-3.4.92-4.84 0-2.32-.03-4.64-.07-6.95a.71.71 0 00-.72-.72.72.72 0 00-.72.72c0 2.07.07 4.16.07 6.23v3.02c0 .73-.23 1.4-1.01 1.56H248c-1.48.09-2.97.09-4.46 0-.44-.06-.4.08-.79-.37a2.48 2.48 0 01-.42-1.82v-3.11c0-2.09-.08-4.22.1-6.3.07-.85.4-1.2 1.25-1.28.34-.02.68-.02 1.02 0h2.35c9.78.1 19.54.1 29.35.1 9.1 0 18.16 0 27.24-.14a6 6 0 01.85 0c1.2.16 1.12 1.06 1.15 2.02.03.95 1.42 1 1.39.05z" fill="#020202"/><path d="M308.57 100.47c.06-.82-.1-1.64-.49-2.37a1.24 1.24 0 00-1.12-.4c-10.24.2-51.2.2-61.44 0a1.23 1.23 0 00-1.13.4 4.29 4.29 0 00-.48 2.37c-.06 2.89-.08 5.77-.06 8.65-.07.8.07 1.6.4 2.33a1.34 1.34 0 001.34.56c10.2-.08 51.08-.08 61.3 0a1.36 1.36 0 001.33-.56c.33-.73.47-1.53.4-2.33.03-2.88 0-5.77-.05-8.65z" fill="#6F4AB3"/><path d="M255.32 102.9l-2.64 1.3c-.88.44-1.8.83-2.65 1.31a1.25 1.25 0 00-.68 1.35 1.75 1.75 0 00.94 1.07 18.87 18.87 0 005.46 2.03.82.82 0 001.04-.86.8.8 0 00-.59-.69 17.02 17.02 0 01-4.16-1.39l-.64-.34a4.52 4.52 0 01-.49-.28.48.48 0 010 .44v.05l.14-.08.73-.36 1.46-.72 3.03-1.48a.8.8 0 00.29-1.08.8.8 0 00-.55-.43.8.8 0 00-.69.16zm8.24 4.8a19.64 19.64 0 004.36-4.35.78.78 0 00-.29-1.07c-3.54-2.15-7.64 3.37-5.81 6.55 1.07 1.87 3.38 1.34 5 .62a22.36 22.36 0 006.32-4.34l-1.24-.96c-.74 1.07-1.83 4.44.63 4.17a6 6 0 002.7-1.5c1-.77 1.9-1.66 2.67-2.66l-1.23-.94c-.73 1.6-1.79 6.21 1.23 6.22 1.38 0 2.66-1.1 3.68-1.9a23.18 23.18 0 003.63-3.48l-1.34-.55a3.67 3.67 0 003.57 3.71c.64.02 1.27-.12 1.84-.42.92-.43.12-1.78-.8-1.36a2.1 2.1 0 01-3.03-1.93c0-.64-.89-1.1-1.34-.56a22.35 22.35 0 01-4.2 3.9c-.68.49-2.03 1.62-2.4.3a5.1 5.1 0 01.53-3.15c.33-.73-.64-1.7-1.24-.95a14.15 14.15 0 01-2.77 2.72c-.32.25-1.01.85-1.39.9l-.09.13a3.72 3.72 0 01.73-1.88c.53-.75-.62-1.55-1.24-.95a20.92 20.92 0 01-3.55 2.78 10.58 10.58 0 01-3.83 1.75c-1.97.26-1.84-1.73-1.27-3.02.58-1.29 1.95-2.82 3.46-1.9l-.28-1.07a17.15 17.15 0 01-3.8 3.79c-.82.63 0 2 .79 1.4zm-178.24 45h19.92a2.24 2.24 0 012.39 1.58c.12 1.9.2 4.47.2 6.38 0 1.55-1.84 2.02-2.69 2.02H85.37c-2.16 0-2.77-1.01-2.82-1.52-.12-2.05-.12-4.1 0-6.16 0-2.23 2.77-2.3 2.77-2.3z" fill="#fff"/><path d="M85.32 153.4h18.06c1.01 0 2.43-.26 3.2.45.54.53.4 1.47.42 2.17l.1 3.11c0 .84.25 1.9-.55 2.44-.63.32-1.33.45-2.03.38H86.38c-.84 0-2.27.18-2.9-.56-.46-.57-.28-1.6-.28-2.3 0-1.28 0-2.58.1-3.86a1.86 1.86 0 011.27-1.73c.24-.08.5-.11.75-.1.9 0 .92-1.46 0-1.42-.89 0-1.75.3-2.45.83-1.47 1.17-1.06 3.3-1.11 4.97 0 1.37-.4 3.42.61 4.55 1.2 1.31 3.3 1.01 4.88 1.01h14.46c1.6 0 3.5.3 5.06-.32 1.74-.7 1.83-2.07 1.8-3.74 0-1.1 0-2.2-.1-3.3a6.94 6.94 0 00-.25-2.4c-.78-1.7-2.79-1.64-4.36-1.64h-18.5a.74.74 0 00-.56 1.24c.14.14.32.22.52.23z" fill="#020202"/><path d="M116 152.7h37.43a2.24 2.24 0 012.39 1.58c.12 1.9.19 4.47.19 6.38 0 1.55-1.83 2.02-2.68 2.02h-37.28c-2.15 0-2.76-1.01-2.82-1.52-.11-2.05-.11-4.1 0-6.16-.01-2.23 2.76-2.3 2.76-2.3z" fill="#fff"/><path d="M115.99 153.4h35.48c1 0 2.49-.27 3.25.45.56.53.4 1.47.44 2.17.04 1.03.07 2.07.09 3.11 0 .84.25 1.9-.55 2.44-.63.33-1.36.46-2.07.38h-35.57c-.84 0-2.28.18-2.91-.56-.47-.57-.29-1.6-.29-2.3 0-1.28 0-2.58.1-3.86a1.87 1.87 0 012.02-1.82c.92 0 .92-1.47 0-1.43a4.2 4.2 0 00-2.45.83c-1.46 1.17-1.06 3.3-1.11 4.97 0 1.37-.4 3.42.61 4.56 1.22 1.31 3.34 1 4.94 1h31.57c1.7 0 3.72.33 5.34-.32 1.61-.66 1.83-2.07 1.8-3.74 0-1.1-.05-2.2-.1-3.3a6.48 6.48 0 00-.27-2.4c-.78-1.71-2.8-1.64-4.38-1.64h-35.95a.74.74 0 00-.73.74.73.73 0 00.74.73z" fill="#020202"/><path d="M85.32 174.23h40.72a2.25 2.25 0 012.38 1.59c.12 1.92.2 4.47.2 6.38 0 1.55-1.85 2.02-2.69 2.02H85.37c-2.16 0-2.77-1.01-2.82-1.52-.12-2.05-.12-4.1 0-6.15 0-2.24 2.77-2.32 2.77-2.32z" fill="#fff"/><path d="M85.32 174.95h38.82c1.02 0 2.5-.28 3.27.44.56.53.4 1.47.44 2.17l.09 3.11c0 .84.25 1.9-.55 2.44a3.6 3.6 0 01-2.07.38h-38.9c-.85 0-2.3.2-2.92-.56-.47-.57-.29-1.6-.29-2.29 0-1.29 0-2.59.1-3.87a1.87 1.87 0 011.27-1.73c.24-.08.5-.11.75-.1.91 0 .92-1.46 0-1.42-.88.02-1.74.31-2.45.83-1.47 1.18-1.06 3.3-1.11 4.97 0 1.37-.4 3.43.61 4.56 1.22 1.32 3.34 1 4.95 1h34.8c1.7 0 3.76.33 5.38-.32 1.63-.66 1.83-2.07 1.8-3.73 0-1.1-.05-2.2-.1-3.31a6.72 6.72 0 00-.26-2.4c-.78-1.71-2.8-1.64-4.4-1.64H85.32a.74.74 0 00-.51 1.26c.13.13.32.2.52.2z" fill="#020202"/><path d="M119.29 135.64c23.28 0 42.15-18.8 42.15-41.98 0-23.18-18.87-41.97-42.15-41.97-23.29 0-42.16 18.8-42.16 41.97 0 23.19 18.87 41.98 42.16 41.98z" fill="#6F4AB3"/><path d="M161.03 93.66a41.42 41.42 0 01-11.67 28.76 41.8 41.8 0 01-57.75 2.2 41.39 41.39 0 01-4.47-57.37 41.82 41.82 0 0157.4-6.7 41.48 41.48 0 0116.49 33.11.43.43 0 00.43.37.44.44 0 00.43-.37A42.36 42.36 0 00150 64.22a42.75 42.75 0 00-59.08-2.33 42.33 42.33 0 00-4.62 58.69 42.77 42.77 0 0058.72 6.87 42.42 42.42 0 0016.87-33.79.43.43 0 00-.86 0z" fill="#6F4AB3"/><path d="M115.04 82.38c4.92.08 6.53-8.93 6.53-8.93s-4.83-3.73-6.38-5.1c-1.55-1.35-2.58-8.59 1.45-15.55 4.04-6.96 16.1-2.43 20.46-.37 4.37 2.05 2.03 4.73 2.03 4.73 1 3.64 1.15 7.46.43 11.17-.83 3.65-2.3 6.33-5.6 8.13-1.52.82-8.42-2.86-9.34-3.61l5.37 3.07a16.9 16.9 0 00-1.94 6.05c-.1 1.6 2.02 1.48 2.02 1.48s.18 4.32-6.94 4.32-8.02-5.37-8.02-5.37" fill="#fff"/><path d="M115.03 83.03c4.49-.06 6.5-5.76 7.17-9.4a.66.66 0 00-.16-.63l-4.58-3.6a9.92 9.92 0 01-2.11-1.88c-.53-1-.81-2.1-.83-3.22-.25-3.83.64-7.64 2.57-10.97a7.45 7.45 0 016.47-3.6c2.69-.05 5.36.36 7.9 1.22 2.14.65 4.81 1.4 6.6 2.8a2.02 2.02 0 01.58 2.95c-.3.61-.05 1.12.1 1.78 1.01 4.1.78 8.42-.66 12.4a9.75 9.75 0 01-3.25 4.26 2.9 2.9 0 01-3.22.43 22.06 22.06 0 01-6.56-3.17l-.79 1 5.36 3.08-.23-.89c-1 2.15-4.18 8.68.61 8.48l-.65-.65c.1 3.24-4.76 3.79-7.08 3.64-2.85-.17-6.07-1.79-6.6-4.86-.16-.83-1.42-.47-1.26.34.67 3.81 4.73 5.73 8.24 5.83 3.04.1 8.1-1 8-4.95a.66.66 0 00-.65-.65c-1.39.06-1.42-.84-1.16-2.06.37-1.55.93-3.05 1.68-4.47a.66.66 0 00-.23-.89l-5.37-3.06c-.62-.37-1.4.54-.79 1a23.83 23.83 0 005.37 2.84c1.04.48 2.13.82 3.25 1.01a3.34 3.34 0 002.58-.82c6.07-4.23 5.91-12.96 4.4-19.37l-.18.64c4.92-5.73-10.87-8.95-13.97-9.16-3.94-.28-7.73.81-9.74 4.42-2.24 4.03-3.72 9.82-2.02 14.37.6 1.64 2.1 2.55 3.43 3.6 1.33 1.06 2.58 2.02 3.89 3.03l-.18-.64c-.54 3.02-2.14 8.41-5.9 8.47a.68.68 0 00-.7.66.68.68 0 00.67.69z" fill="#020202"/><path d="M135.35 62.65l.06.22v.54l.06.27a1.62 1.62 0 00.65 1.1l.26.15.25.15.05.05v-.05c0 .15 0-.1 0 0 0-.17 0 0 0 0 0-.14 0 0 0 0s.06-.07 0 0 .08 0 0 0l-.14.08c.13-.06-.05 0-.08 0h-.18l-.36.07a.65.65 0 00-.45.8.68.68 0 00.8.45 2.14 2.14 0 001.6-.86c.19-.3.25-.66.18-1a1.33 1.33 0 00-.58-.82l-.3-.18-.14-.07h-.07.06c-.1-.1.06.11 0 0l-.05-.1c0-.1 0 .14 0 0v-.12c0-.1 0-.2-.06-.3v-.1.08-.17a3.9 3.9 0 00-.13-.68.65.65 0 00-1.25.34l-.18.15zm-3.26-2.06c-.12.46-.16.93-.14 1.4 0 .25.16.58.4.55.26-.03.26-.15.34-.28.34-.52.6-1.34.05-1.63" fill="#020202"/><path d="M131.46 60.39a5.2 5.2 0 00-.16 1.42 1.38 1.38 0 00.6 1.25.95.95 0 001.1-.16 2.78 2.78 0 00.7-1.61 1.3 1.3 0 00-.62-1.25.66.66 0 00-.9.24.66.66 0 00.24.88l.1.06-.14-.1.1.1-.11-.14.07.13-.06-.15v.16-.17c.01.1.01.19 0 .28v-.18c-.03.18-.07.36-.14.53l.06-.17c-.08.18-.17.35-.28.5l.1-.12-.1.1.13-.1-.07.05.15-.07h-.08.17-.07.18-.06l.15.06.13.1-.08-.08.1.13-.07-.12.06.16-.06-.24v.17c-.04-.3-.04-.62 0-.93v.17c.03-.18.06-.36.11-.54a.65.65 0 00-.47-.75.66.66 0 00-.79.4v-.01zm6.85.33c-.12.46-.16.93-.13 1.4 0 .25.14.58.4.55.27-.03.26-.15.34-.28.33-.52.6-1.34 0-1.63" fill="#020202"/><path d="M137.68 60.59c-.12.46-.18.94-.16 1.42a1.35 1.35 0 00.6 1.25.95.95 0 001.1-.16c.14-.14.26-.31.34-.5.2-.34.33-.72.37-1.12a1.29 1.29 0 00-.64-1.23.65.65 0 00-.96.72c.05.16.16.3.3.4l.1.05-.13-.1.1.1-.1-.14.06.13-.06-.15v.16-.17c.01.1.01.2 0 .28v-.18c-.03.18-.08.36-.15.53l.07-.16c-.07.18-.17.35-.29.5l.1-.13-.1.11.13-.11-.07.05.16-.07h-.08.17-.07.18-.07l.17.06h-.06l.13.1-.08-.08.1.13-.06-.12.06.16-.07-.24v.17a3.6 3.6 0 010-.93v.17c0-.18.07-.36.1-.54a.65.65 0 00-.45-.8.65.65 0 00-.8.46l.06-.02zm-6.78 10.07a5.71 5.71 0 004.94.53.67.67 0 00.45-.8.64.64 0 00-.8-.45 4.36 4.36 0 01-3.9-.4.67.67 0 00-.89.24.65.65 0 00.2.88z" fill="#020202"/><path d="M128.95 53.06a5.05 5.05 0 005.16 2.1c.42-.13.84-.2 1.28-.22 1.54.09 2.59 2.31 4.04 1.84-.94 1.2.33 3.13 1.85 3.21 1.51.08 4.26-.47 4.97-1.81 2.03-3.86-.92-6.24-3.54-5.38 2.61-7.78-3.75-10.46-8.49-8.31a6.02 6.02 0 00-3.48-5.46 11.29 11.29 0 00-6.73-.76c-1.45.22-3.22 1-3.12 2.5a10.59 10.59 0 00-9.65 2.83 8.17 8.17 0 00-1.16 9.65c.24.28.38.64.39 1.01-.07.23-.2.45-.36.63-1.16 1.44-3.03 2.01-3.81 4.23-.66 1.73.29 4.26 1.45 5.69.39.36.68.8.85 1.3.03.28.03.56 0 .84-.13 2.08 1.51 10.68 9.93 8.57a3.94 3.94 0 003.22-3.32 8.32 8.32 0 00-1.55-4.78c-1-1.4-1.76-2.93-2.28-4.56-.31-1.37.2-3.23 1.61-3.32 1.77-.11 2.9 2.74 4.6 2.22 1.15-.37 1.26-1.92 1.14-3.12 2.38-.29 5.32-2.26 4.53-4.41" fill="#fff"/><path d="M128.33 53.42a5.8 5.8 0 005.63 2.5c.75-.13 1.37-.4 2.08 0 .4.25.8.54 1.16.86a2.82 2.82 0 002.43.7c-.27-.36-.53-.71-.8-1.01a2.93 2.93 0 001.97 4.22 6.99 6.99 0 005.5-1.4 4.8 4.8 0 00.86-5.45 3.97 3.97 0 00-4.63-1.69l.88.88c.95-3.02 1.01-6.58-1.75-8.63a7.85 7.85 0 00-7.8-.5l1.09.63c.09-3.77-3.15-6.42-6.65-6.96-2.47-.4-8.04-.37-8.1 3.24l.92-.68c-6.29-1.13-13.39 2.95-12.77 9.97.05.71.2 1.42.44 2.1.3.82 1.2 1.68.64 2.5-.78 1.17-2.27 1.8-3.1 2.98a5.13 5.13 0 00-.78 4.12c.17.8.46 1.57.86 2.28.41.79 1.41 1.66 1.52 2.53.08.67 0 1.35.08 2.02.13.8.34 1.6.62 2.38a9 9 0 003.39 4.49 8.43 8.43 0 007.2.61c3.15-1.1 3.86-4.1 2.64-7.05-.86-2.01-2.52-3.8-3.13-5.96-.22-.8-.36-2.21.52-2.7.89-.48 1.56.44 2.11.91.92.8 2.02 1.62 3.27 1.01 1.24-.6 1.47-2.36 1.36-3.67l-.52.7c2.46-.38 5.89-2.35 5.06-5.3a.71.71 0 00-.86-.43.72.72 0 00-.52.81c.6 2.1-2.44 3.29-4.05 3.54a.72.72 0 00-.52.68c.14.68.07 1.38-.2 2.02-.57.74-1.22.25-1.77-.2a5.65 5.65 0 00-2.6-1.64c-2.31-.32-3.14 2.4-2.75 4.2.67 3.16 4.44 6 3.76 9.39-.56 2.75-4.74 3.1-6.94 2.4-2.98-1-4.64-4.47-4.73-7.42a3.76 3.76 0 00-.52-2.5c-1-1.35-2.02-2.7-2.02-4.47 0-1.55 1.01-2.61 2.16-3.54.81-.66 2.1-1.51 2.23-2.65.07-.77-.53-1.39-.83-2.01a6.47 6.47 0 01-.63-2.38 7.9 7.9 0 011.26-4.79c2.02-3.16 6.16-4.28 9.71-3.64a.73.73 0 00.91-.69c.06-2.55 5.63-2.08 7.15-1.7 2.57.61 4.82 2.63 4.75 5.42a.72.72 0 00.73.7.7.7 0 00.35-.09 6.37 6.37 0 016.2.39c2.28 1.69 2.02 4.72 1.23 7.13a.73.73 0 00.9.87c2.8-.8 4.36 2.47 2.54 4.58a4.94 4.94 0 01-3.03 1.18c-.6.13-1.23.05-1.77-.24a1.35 1.35 0 01-.54-1.87.72.72 0 00-.42-.98.73.73 0 00-.4-.03c-.76.18-1.46-.68-2.02-1.08a3.42 3.42 0 00-1.85-.78c-1.09 0-2.03.46-3.15.23a4.3 4.3 0 01-2.67-1.76c-.58-.75-1.83-.03-1.29.72z" fill="#020202"/><path d="M130.8 59.25v.06c0-.05-.08.12 0 .07v-.06.06h-.07l.07-.05h.07c.06 0-.16.05-.06 0h.24-.07.34a2.11 2.11 0 001.76-.4.65.65 0 00-.46-1.11.65.65 0 00-.46.19c-.06.05-.1 0 0 0l-.08.05c-.1.05.12 0 .05 0h-.19c.16 0 .12 0 0 0h-.19c-.25 0-.51-.05-.77 0-.32.01-.63.1-.9.26-.17.1-.32.23-.42.4a1.3 1.3 0 00-.2.58.7.7 0 00.2.45.62.62 0 00.46.2.6.6 0 00.46-.2.67.67 0 00.21-.5zm5.97.03c.68.01 1.35-.02 2.03-.1.17 0 .33-.08.46-.2a.68.68 0 00.2-.45.71.71 0 00-.2-.46.62.62 0 00-.46-.2c-.68.1-1.35.13-2.03.1a.66.66 0 00-.4 1.1c.1.11.24.19.4.2zm-16.87 3.78h.14c.12 0-.08-.07 0 0h.06l.05.05.1.1c-.1-.1 0 0 0 0l.12.24c-.07-.13 0 0 0 0l.05.15c.03.1.06.21.07.32 0 .25.07.5.12.74.17 1 .84 2.01 1.95 1.95a.64.64 0 00.45-.19.65.65 0 00.2-.45.65.65 0 00-.2-.46.64.64 0 00-.45-.19h-.16l-.14-.08c.1.06 0 0 0 0l-.09-.1c-.05-.05.05.08 0 0l-.08-.14v-.15a3.35 3.35 0 01-.08-.34c-.05-.23-.08-.48-.12-.72a2.26 2.26 0 00-1.59-2.07.67.67 0 00-.8.45.64.64 0 00.4.89z" fill="#020202"/><path d="M119.3 135.64c5.1 0 10.18-.92 14.95-2.72-.03-3.61.16-7.22.55-10.8 0 0-10-6.5-17.87-5.8-7.86.7-17.56 2.45-17.56 2.45l-1.25 11.2a42.1 42.1 0 0021.18 5.67z" fill="#fff"/><path d="M119.3 136.4a44.25 44.25 0 0015.18-2.76.78.78 0 00.55-.72c-.08-3.54.1-7.09.52-10.6a.79.79 0 00-.35-.85 41.4 41.4 0 00-11.13-5.04c-6.22-1.73-12.76-.27-19 .69-1.96.29-3.91.6-5.85.94a.8.8 0 00-.55.74L97.42 130a.76.76 0 00.39.65 43.66 43.66 0 0021.55 5.77.76.76 0 00.76-.75.76.76 0 00-.76-.76 42.17 42.17 0 01-20.8-5.57l.38.65 1.24-11.19-.55.73a228.57 228.57 0 0113.27-1.97c1.96-.33 3.96-.5 5.95-.5 5.46.23 11.13 2.8 15.63 5.74l-.35-.85a76.49 76.49 0 00-.57 11l.55-.74a42.88 42.88 0 01-14.75 2.7.76.76 0 00-.49 1.2c.1.14.26.24.43.28z" fill="#020202"/><path d="M93.58 114.08c1.7-.6 3.49-.85 5.28-.73 6.07 0 12.14 1.39 18.16 1.37 0 0 6.28-.77 8.39-.72a7.67 7.67 0 013.45.61 9.07 9.07 0 012.26 2.02 29.61 29.61 0 005.83 4.92c.6.32 1.13.76 1.54 1.31a1.4 1.4 0 01-.2 1.83c-.6.46-1.47.1-2.14-.26l-6-3.22a68.7 68.7 0 01-4.47 2.47c-1.52.76-2.7.2-4.24-.37a47.59 47.59 0 01-3.57-1.63h-1.7c-6.5.21-30.76 1.86-31.5.15-.93-2.12 9.16-26.44 16.07-34.53 0 0 3.44-4.1 5.56-4.44 3.41-.39 6.83-.6 10.26-.64 0 0 1.95 5.1 6.74 5.1a6.09 6.09 0 005.97-4.21h7.24c.87-.03 1.74.04 2.59.23 2.66.67 6.02 7.8 6.02 7.8 2.07 4.32 5.06 9.4 7.49 13.55l-2.43 2.7c3.7-3.65 14.62-14.6 17.54-17.12.37-2.47.6-4.97.67-7.47-.16-.77-.1-1.57.2-2.3.4-.69 1.57-.92 1.91-.22.1.25.14.52.12.79.01.76.16 1.5.43 2.22.26.7.9 1.47 1.63 1.25.25-.1.47-.24.64-.44a9.35 9.35 0 002.68-6.3c-.04-.87-.02-1.74.06-2.6a2.69 2.69 0 011.4-2.08.52.52 0 01.38 0c.16.08.2.3.21.47.26 3.03.54 5.84-.72 9.16l-.07.4c1.2-2.12 1.9-4.48 2.03-6.92-.03-.5.09-1 .34-1.45.3-.41 1.02-.54 1.3-.12.1.2.15.44.12.67l2.11 2.16c-.54 6.47-3.3 13.8-8.82 17.25a45.4 45.4 0 00-4.05 2.5 21.17 21.17 0 00-3.72 4.16c-2.95 3.97-10.42 13.86-13.7 17.58-1.1 1.27-5.59-2.78-7.07-5.04-2.16-3.2-4.05-7.65-6.56-10.61l-.43.9c-.48 3.64-2.1 10.16-3.23 15.97" fill="#fff"/><path d="M93.79 114.8a16 16 0 016.3-.68c2.22.06 4.42.28 6.63.53 3.46.4 7.17 1.12 10.66.79 2.3-.22 4.58-.54 6.89-.65 1.69-.09 3.63-.15 4.98 1 1.36 1.17 2.52 2.7 3.92 3.9.68.57 1.38 1.13 2.1 1.65.73.52 2.54 1.28 2.63 2.16.1.87-1.36.3-1.79.07l-1.3-.69-3.03-1.61c-.57-.31-1.28-.92-1.96-.74-.93.42-1.81.93-2.64 1.52a6.96 6.96 0 01-3.04 1.23c-.9-.1-1.78-.34-2.6-.73a31.9 31.9 0 00-3.48-1.61c-.7-.08-1.4-.08-2.1 0-1.8.05-3.58.16-5.38.25-5 .25-10.01.5-15.02.61-2.18.05-4.35.08-6.53 0-.8 0-1.6-.05-2.4-.14-.45-.11-.9-.2-1.34-.26-.16 0 .12 0 .07.14-.05.14 0-.19 0-.37.06-.52.17-1.02.31-1.52.5-1.83 1.1-3.63 1.8-5.4 1.92-5.02 4.12-9.94 6.58-14.72 2.07-4.03 4.3-8.31 7.3-11.8 1.3-1.51 3.1-3.73 5.14-4.14 2.16-.32 4.33-.5 6.51-.53 1.19-.07 2.37-.13 3.55-.08l-.73-.57c1.1 2.86 3.65 5.34 6.8 5.63a6.96 6.96 0 007.36-4.74l-.73.56h6.28c1.4 0 3.03-.21 4.24.7 1.72 1.35 2.87 3.55 3.9 5.44 1.01 1.88 1.89 3.79 2.9 5.66 1.72 3.17 3.55 6.3 5.37 9.42 0-.3.08-.61.11-.92l-2.43 2.71c-.63.72.38 1.77 1.09 1.07 5.46-5.41 10.81-10.94 16.46-16.12.45-.31.85-.69 1.2-1.12.15-.43.22-.89.22-1.35.24-1.83.49-3.67.54-5.53 0-.5-.22-3.44.49-3.14.4.16.3 1.4.37 1.77.11.66.35 1.3.7 1.86 1.62 2.42 3.71 0 4.68-1.63a10.29 10.29 0 001.32-4.03c.08-.77 0-1.53 0-2.3 0-.2.2-2.42.7-2.27-.3-.1-.07.56-.05.75 0 .4.06.81.08 1.21.04.82.04 1.63 0 2.44a35.67 35.67 0 01-.95 4.5c-.15.8.95 1.39 1.4.58a17.1 17.1 0 002.1-6.86c0-.17 0-1.32.27-1.34-.12 0 .23.54.24.55.52.62 1.1 1.2 1.7 1.74.07.08.29.23.33.33-.08-.2-.08 0-.22.25-.22.82-.35 1.65-.39 2.5a25.22 25.22 0 01-3.3 8.6 16.59 16.59 0 01-2.87 3.42 28.44 28.44 0 01-4.41 2.9c-2.57 1.6-4.3 3.9-6.07 6.29-1.52 2.01-3.04 4.03-4.59 6.04a359.94 359.94 0 01-7.3 9.28c-.72.88-.85 1.47-1.89 1a15.34 15.34 0 01-5.88-5.96c-1.94-3.17-3.5-6.58-5.86-9.47a.77.77 0 00-.96-.1.77.77 0 00-.24.25c-.95 2.09-1.1 4.57-1.57 6.81-.72 3.42-1.48 6.82-2.16 10.25-.2.95 1.27 1.36 1.46.4.65-3.3 1.4-6.55 2.09-9.84.3-1.37.58-2.75.83-4.14.1-.93.32-1.85.66-2.72l-1.2.16c4.13 5.04 5.8 12.21 11.84 15.56a2.77 2.77 0 002.55.4 8.79 8.79 0 002.09-2.3 646.23 646.23 0 0010.99-14.23c.94-1.24 1.83-2.53 2.86-3.7a18.99 18.99 0 014.97-3.73c5.94-3.49 8.85-10.13 9.75-16.72a3.5 3.5 0 000-2.09 5.54 5.54 0 00-.86-.89 9.81 9.81 0 01-1.2-1.22c-.17-.28.13.3.07-.15a1.3 1.3 0 00-.52-.83c-1.42-1.08-2.58.67-2.7 1.91a17.08 17.08 0 01-1.95 6.92l1.38.59c.24-1.24.71-2.4.88-3.66a23.3 23.3 0 000-4.9c-.06-.83.06-2.27-1.07-2.43-.94-.13-1.76.8-2.13 1.55-.63 1.23-.43 2.6-.47 3.92a8.68 8.68 0 01-1.58 4.72c-.43.6-1.17 1.71-1.82.69-.51-.82-.33-1.85-.5-2.74a1.57 1.57 0 00-.64-1.06 1.61 1.61 0 00-1.2-.28c-2.53.32-1.79 3.37-1.89 5.14a55 55 0 01-.59 5.55c-.07.47.19-.11 0 .09-.18.2-.39.36-.6.54l-1.9 1.78-4.62 4.5c-3.42 3.36-6.8 6.76-10.22 10.13l1.08 1.07 2.42-2.7a.77.77 0 00.12-.92c-1.96-3.38-3.94-6.75-5.77-10.2-1.01-1.9-1.9-3.86-2.97-5.72-1.07-1.87-2.4-4.25-4.35-5.4-1.22-.73-2.77-.63-4.15-.64h-6.75a.76.76 0 00-.73.56 5.44 5.44 0 01-5.9 3.62c-2.45-.29-4.56-2.5-5.35-4.51a.76.76 0 00-.73-.56c-2.07-.02-4.14.07-6.2.27-1.5.02-3 .17-4.46.45-1.76.44-3.28 2.01-4.5 3.27-.88.92-1.7 1.9-2.46 2.92-4.95 6.67-8.47 14.57-11.6 22.16a63.36 63.36 0 00-3.19 8.97c-.38 1.56-.64 3.02 1.26 3.45 2.78.43 5.6.55 8.4.36 4.04-.06 8.1-.25 12.14-.43 3.46-.17 6.92-.43 10.38-.48h1.51c-.46-.1.46.3.55.33 1.07.52 2.15 1 3.27 1.43 1.27.61 2.72.72 4.05.3a34.64 34.64 0 004.86-2.64h-.77c2.16 1.32 4.4 2.5 6.72 3.55 1.46.56 3.11-.1 2.98-1.85-.14-2.02-2.62-2.91-3.97-3.95-1.93-1.46-3.37-3.33-5.17-4.9-2.58-2.23-6.64-1.47-9.76-1.15-1.14.11-2.29.3-3.44.38-2.17.05-4.34-.07-6.48-.38-2.95-.3-5.88-.71-8.84-.9-2.76-.16-5.8-.36-8.43.66-.85.31-.45 1.77.46 1.42z" fill="#020202"/><path d="M107.95 93.48l-5.49 9.7a41.54 41.54 0 00-4.15 9.17.75.75 0 00.54.87.76.76 0 00.92-.46 41.63 41.63 0 014.17-9.07l5.33-9.41a.77.77 0 00-.04-.85.77.77 0 00-.8-.3.77.77 0 00-.48.35zm28.61-1.4c-.35 3.56 1.7 6.76 1.68 10.28a.75.75 0 00.76.75.76.76 0 00.75-.75c0-3.52-2.02-6.75-1.68-10.28.1-.97-1.42-.97-1.51 0zm43.95-16.02c-.2 2.76-.71 5.5-1.55 8.13-.29.93 1.18 1.33 1.47.4.86-2.77 1.4-5.63 1.6-8.53a.77.77 0 00-.76-.75.78.78 0 00-.76.75zm-18.43 17.96a6.96 6.96 0 004.57 5.19.77.77 0 00.94-.53.77.77 0 00-.53-.93l-.2-.07h-.07l-.33-.16a6.53 6.53 0 01-.68-.39l-.14-.1-.08-.06-.28-.24a7 7 0 01-.55-.56l-.11-.13-.05-.06-.22-.31a4.53 4.53 0 01-.39-.68l-.1-.18-.11-.34c-.1-.26-.16-.53-.22-.8a.76.76 0 00-.93-.52.78.78 0 00-.52.87zm-47.32 19.16a6.04 6.04 0 00-1.53 8.35.78.78 0 001.02.27.76.76 0 00.26-1 4.51 4.51 0 011.01-6.28.76.76 0 10-.77-1.31l.01-.03zm5.01 8.21l.15.15c-.07-.11 0 .13 0 0v.08s0-.15 0 0c0 0-.07.15 0 .06l-.07.08s.17-.1.06 0l.23-.06c.1 0 .1 0 0 0h.46c.4 0 .82-.05 1.23 0h.71-.05c.1 0 .16.07.05 0l-.18-.15a.75.75 0 00.46.35.78.78 0 00.58-.08.76.76 0 00.27-1.03 1.9 1.9 0 00-1.74-.63c-.58-.01-1.17.01-1.76.08a2.04 2.04 0 00-1.64.83 1.4 1.4 0 00-.18.9 1.21 1.21 0 00.56.87.76.76 0 001-1.11.77.77 0 00-.23-.2l.09-.14zm7.41 1.34c.08-.85.03-1.7-.15-2.53a.77.77 0 00-.93-.53.78.78 0 00-.54.92l.1.54v-.2c.05.6.05 1.2 0 1.8a.7.7 0 00.22.53.76.76 0 001.07 0 .9.9 0 00.23-.53zm2.35-.47c.33-.49.5-1.07.48-1.66 0-.29-.05-.57-.14-.85-.12-.33-.3-.64-.52-.9a.76.76 0 00-1.3.53c.02.2.1.38.23.53-.16-.2 0 0 0 .08l.1.21-.07-.18c.07.18.13.37.15.56v-.2c.03.2.03.4 0 .59v-.2a2.4 2.4 0 01-.14.52l.07-.18c-.05.13-.13.26-.2.38a.74.74 0 00.26 1 .78.78 0 001.08-.23zm308.71 97.94c0 .19 0-.2 0 0v.28l.09.8.26 2.5.78 8.06c.79 8.16 1.55 16.32 2.33 24.5l2.77 29.07c.8 8.4 1.63 16.8 2.5 25.19.31 2.88.61 5.76.95 8.63.13 1.59.34 3.16.64 4.73 0 .14 0 .27.09.4.3.93 1.76.53 1.46-.4-.28-1.1-.45-2.24-.51-3.38-.33-2.62-.6-5.24-.88-7.86-.86-8.06-1.65-16.19-2.44-24.29-.94-9.69-1.87-19.38-2.78-29.06L441.1 234c-.44-4.53-.8-9.07-1.36-13.58 0-.2-.05-.42-.08-.63-.11-.95-1.57-.54-1.43.4z" fill="#020202"/><path d="M368.8 194.41a7.6 7.6 0 011.27 3.03c.46 1.17.8 2.4 1.01 3.64 0 .06 0 .75-.2.78-.18.03-.43-.42-.59-.64-.28-.4-.56-.82-.83-1.25-1.01-1.6-2.2-3.02-4.19-3.51-.9-.2-1.27 1.13-.38 1.35 1.23.31 1.16 2.95 0 3.37a.7.7 0 00-.32 1.17c1.08 1.3-.08 2.74-1.36 3.3-1.64.55-3.4.6-5.06.13l-.15-.07h-.24l-.2-.05a50.85 50.85 0 00-10.57-1.3c-7.6-.04-15.18-.06-22.78-.16l-7.73-.1a.77.77 0 00-.42 0h-3.68c-3.77-.06-7.6.1-11.36-.16a8.4 8.4 0 01-2.14-.51 4.4 4.4 0 01-1.37-.57c-.77-.59-.47-1.64-.3-2.47a238.29 238.29 0 019.51-33.39c4.6 1.22 11.2.45 13.87 5.04-.8 1.79-1.61 3.58-2.45 5.37a147.46 147.46 0 01-8.1 15.8.72.72 0 00.01.7.71.71 0 00.61.35c8.7.39 17.39.63 26.09.73 3.8 0 7.87.42 11.6-.4a20.57 20.57 0 008.74-4.52l1.4 1.97c.13.18.31.32.52.4a.63.63 0 00.46.2c2.23.02 4.45.27 6.63.73.98.09 1.92.45 2.7 1.04zm-4.65-7.88l-.05.29c-.05.19-.1.38-.17.56v.1l-.06.1-.13.24-.14.25-.08.1-.05.08v.05l-.1.12-.21.2-.1.08-.24.17-.26.15-.12.06s-.2.1-.08 0a.82.82 0 00-.3.21l-1.3-1.8c.6-.17 1.2-.38 1.8-.6a.63.63 0 00.56-.16c.31-.1.63-.2.96-.28l.07.08zm36.75-57.37c.12-.62.46-.56.79-.07.4.75.72 1.55.96 2.37.6 1.62 1.16 3.24 1.69 4.87a.72.72 0 001.37 0c.59-2.1 3.66-1.6 5.25-1.18 1.95.53 3.34 1.68 3.14 3.82-.16 1.71-.6 4.22-2.4 4.97-.85.3-1.77.42-2.68.33-.5 0-1.9 0-2.33-.44a7.37 7.37 0 001.93-.92 3.31 3.31 0 001.7-2.32 1.77 1.77 0 00-1.6-1.8 16.88 16.88 0 00-3.26-.12c-1.13 0-2.26.14-3.36.42 0-2.96-.34-5.92-1.01-8.8a3.62 3.62 0 01-.18-1.13zm-52.35-.27c-.36-.16-.78-.27-1.14-.4-3-1.33-5.39-3.71-6.7-6.7-2.38-5.44-2.72-11.62-2.82-17.47v-.17a16.98 16.98 0 001.8-3.67c.8-1.72 1.55-3.46 2.44-5.12 2.5.43 5.07.36 7.56-.2 1.63 1.8 3.03 3.85 4.76 5.5a8.98 8.98 0 005.26 2.34 30.4 30.4 0 00-.8 6.67c-.14 4.3.25 8.58 1.15 12.78l.25 1.12a.68.68 0 00-.21.39.6.6 0 00-.52.12c-2.81 2.12-5.86 4.43-9.51 4.8a8.1 8.1 0 01-1.52 0zm99.21 49.67l-31.19.2h-4.41a.7.7 0 00-.62.35l-13.06 27.64-.37.78a.6.6 0 00-.55-.3H381.6a.71.71 0 00-.7.7V211a.71.71 0 00.7.7c5.21 0 51.2.32 51.2.32-.18.77 1.07 1.07 1.39.28 4.47-11.09 10.19-21.65 14.25-32.88a.72.72 0 00-.7-.87z" fill="#fff"/><path d="M383.03 111.86a1.16 1.16 0 01-.6-.86c.03-.2.1-.42.2-.6 1.44-3.16 1-6.81.12-10-2.37-8.29-8.31-15.43-16.2-16.88.59-1.81.93-3.7 1.02-5.6a6.1 6.1 0 00-1.94-4.84 4.92 4.92 0 00-3.4-.9c-4.62.29-8.78 5.64-8.25 10.62-1.83-.57-7.97.34-12.3 4.15-6.03 5.31-6.7 15.12-4.66 17.07.67-.53 3.3-7.05 4.66-9.4a18 18 0 008.18-.2c3.8 4.04 5.14 7.89 10.62 7.98-1.02 3.31-2.72 16.74 3.73 30.66 2.52 5.42 7.73 10.07 13.47 9.57.41 0 .81-.15 1.12-.42a2.02 2.02 0 00.36-1.58 14.9 14.9 0 00-1.82-6.3c16.65-.79 8.29-20.53 5.69-22.47z" fill="#6F4AB3"/><path d="M383.53 111.36c-.6-.5.12-1.54.3-2.18.23-.81.37-1.65.42-2.49.09-1.63-.05-3.26-.41-4.86a28.62 28.62 0 00-3.54-8.85c-3.04-4.97-7.72-9-13.54-10.15l.5.88c.8-2.96 1.7-6.3.33-9.24a5.49 5.49 0 00-6.35-2.88c-4.94.96-8.38 6.39-7.97 11.21l.9-.7c-2.54-.7-5.77.33-8.09 1.3a16.9 16.9 0 00-7.87 6.59 20.02 20.02 0 00-2.87 8.6c-.17 1.85-.23 4.48 1.18 5.94a.73.73 0 001.01 0c1.02-1.01 1.55-2.78 2.13-4.03.85-1.86 1.65-3.75 2.65-5.55l-.8.34c2.82.56 5.74.5 8.54-.19l-.69-.19c1.73 1.87 3.13 4.03 5.01 5.78a9.19 9.19 0 006.07 2.4l-.69-.9a28.5 28.5 0 00-1 7.52 52.9 52.9 0 001.15 12.69c1.73 8.17 5.71 19.44 15.39 20.83 1.69.24 4.18.42 4.53-1.75.4-2.44-.76-5.41-1.9-7.53l-.6 1.08c4.9-.27 9.42-2.5 10.5-7.61.87-4.1-.23-8.54-1.9-12.3a9.96 9.96 0 00-2.43-3.78c-.72-.57-1.74.44-1 1a7.4 7.4 0 011.75 2.6c.8 1.6 1.4 3.27 1.82 4.99.88 3.5 1.2 7.96-1.42 10.83-1.87 2.02-4.68 2.7-7.33 2.84a.74.74 0 00-.61.37.73.73 0 000 .7c.51.97.93 1.98 1.23 3.03.25.93.78 2.53.47 3.47-.53 1.68-4.54.34-5.65-.16a16.58 16.58 0 01-7.7-7.84 49.5 49.5 0 01-4.87-23.48c0-2.4.32-4.81.95-7.14a.7.7 0 00-.12-.61.71.71 0 00-.57-.29 7.97 7.97 0 01-5.75-2.64c-1.55-1.63-2.83-3.48-4.36-5.12a.72.72 0 00-.7-.19c-2.55.64-5.21.7-7.8.19a.74.74 0 00-.8.33c-.95 1.7-1.71 3.48-2.52 5.25-.4.86-.8 1.73-1.22 2.58-.19.51-.46 1-.8 1.43h1c-1.13-1.17-.89-3.62-.74-5.04.29-2.75 1.2-5.4 2.67-7.74a15.41 15.41 0 017.34-6.04c2.03-.82 4.82-1.77 7-1.16a.74.74 0 00.82-.37.7.7 0 00.09-.32c-.34-3.93 2.12-8.28 5.97-9.59 2.36-.8 4.92-.15 5.8 2.35.88 2.5.07 5.29-.6 7.77a.72.72 0 00.5.87c5.86 1.15 10.41 5.36 13.24 10.46a26.3 26.3 0 013.03 8.82 12.6 12.6 0 01-.3 5.53c-.4 1.33-1.17 2.29.14 3.35.73.6 1.8-.4 1.08-1.01zm-45.25 6.18a36.58 36.58 0 00-2.18 10.17c-.38 3.72.5 7.46 2.47 10.64.87 1.3 2.3 2.55 3.85 2.18a3.96 3.96 0 001.83-1.2 15.9 15.9 0 004.44-9 .9.9 0 00-.08-.6.96.96 0 00-.54-.31c-4.52-1.33-7.7-5.5-9.1-10" fill="#6F4AB3"/><path d="M337.58 117.36a36.1 36.1 0 00-2.25 12.09c0 3.58.95 7.89 3.61 10.49a3.8 3.8 0 004.18 1.12c1.6-.7 2.84-2.44 3.77-3.85a16.43 16.43 0 002.25-5.37c.28-.73.34-1.53.15-2.29-.31-.67-1-.77-1.67-1-4.04-1.5-6.68-5.35-7.94-9.3-.27-.87-1.66-.5-1.38.38.82 2.77 2.31 5.3 4.35 7.35a12.76 12.76 0 004.28 2.82c.31.12.82.18.95.33.38.46-.3 2.1-.46 2.6a15.4 15.4 0 01-2.31 4.54c-1.12 1.5-2.76 3.51-4.7 2.01-2.74-2.06-3.58-6.47-3.64-9.67.03-4.06.77-8.08 2.2-11.89.3-.85-1.09-1.23-1.4-.36z" fill="#6F4AB3"/><path d="M362.58 190.63a4.63 4.63 0 002.32-1.95c.5-.87.75-1.87.72-2.87a.78.78 0 00-.76-.76 6.32 6.32 0 00-2.58.49c-.8.26-1.6.6-2.43.78a.76.76 0 00-.54.93.78.78 0 00.94.53c.8-.21 1.6-.47 2.37-.76a14.9 14.9 0 011.62-.44h.1c.19 0-.16 0 0 0h.51l-.76-.75v.77l-.06.3c-.04.19-.1.38-.17.56 0 0-.07.18 0 .1.07-.1 0 .07 0 .07l-.13.25-.15.25-.07.1c-.08.12 0-.04 0 0 0 .06-.26.29-.4.42l-.1.08-.25.16-.25.15-.13.06s-.22.1-.08 0a.76.76 0 00-.53.93c.04.18.15.34.3.45.14.1.32.16.5.15zm-6.53-1.73a18.87 18.87 0 01-8.87 4.36c-1.94.25-3.89.33-5.84.26a764.37 764.37 0 01-30.77-.75l.66 1.13c3.06-5.21 5.82-10.6 8.25-16.12 2.51-5.43 4.98-10.9 7.09-16.51.33-.92-1.14-1.31-1.47-.4a186.13 186.13 0 01-7.08 16.47 149.25 149.25 0 01-8.1 15.8.75.75 0 000 .75.76.76 0 00.66.38c8.66.38 17.31.62 25.97.72 3.9 0 8.1.47 11.93-.46 3.21-.8 6.18-2.37 8.65-4.56.75-.66-.36-1.73-1.08-1.07z" fill="#020202"/><path d="M305.67 165.26a249 249 0 00-7.43 23.87 96.53 96.53 0 00-2.66 11.77 2.88 2.88 0 001.01 3.02c.96.53 1.98.91 3.04 1.14a15 15 0 003.9.24l6.54.1 13.1.17 13.09.17c4.25.05 8.52-.11 12.78.05 2.47.1 4.92.43 7.32 1 1.9.56 3.88.75 5.84.55 2.9-.46 5.64-3.37 3.37-6.1l-.33 1.26c2.45-.92 2.74-5.48 0-6.18l-.4 1.45a5.27 5.27 0 013.16 2.63c.58.86 1.24 2.36 2.24 2.82a1.58 1.58 0 002.02-.9c.63-1.32-.1-2.82-.45-4.1-.67-2.4-1.15-5.04-3.74-5.9a28.82 28.82 0 00-8.69-1.25.76.76 0 00-.76.75.76.76 0 00.76.76c2.27.02 4.54.28 6.76.75.93.23 2.12.42 2.72 1.21.58.93.98 1.96 1.2 3.03.3 1 1.06 2.55.92 3.63-.15 1.1-.38.3-.71-.18-.34-.47-.58-.86-.86-1.3-1.01-1.6-2.2-3.02-4.17-3.45a.76.76 0 00-.86.55.75.75 0 00.46.9c1.18.3 1.12 2.86 0 3.27a.77.77 0 00-.51.54.76.76 0 00.18.72c1.2 1.44-.4 2.94-1.8 3.38-1.82.4-3.73.32-5.52-.25a47.22 47.22 0 00-10.57-1.21c-7.65 0-15.3-.06-22.95-.18l-11.57-.16-5.55-.07c-1.95.1-3.9.07-5.86-.06a10.3 10.3 0 01-2.1-.61c-.43-.1-.84-.29-1.2-.55-.61-.58-.32-1.59-.18-2.34a246.03 246.03 0 019.92-34.65c.34-.8-1.13-1.19-1.46-.3z" fill="#020202"/><path d="M321.88 171.41c-3.03-5.52-10.22-4.46-15.34-6.04l.46 1.1c1.77-3.82 3.58-7.63 5.43-11.43.93-1.9 1.87-3.78 2.83-5.67a57.6 57.6 0 012.89-5.54c1.21-1.89 3.04-2.51 5.18-2.76 2.15-.26 4.12-.37 6.17-.55l13.01-1.14c1.02-.08 1.02-1.59 0-1.5l-13.75 1.2c-3.53.3-8.49-.08-11.07 2.84-1.2 1.6-2.2 3.33-2.98 5.16-1.01 2.02-2.02 4.03-3.04 6.1a847.63 847.63 0 00-5.98 12.53.77.77 0 00-.04.66.77.77 0 00.5.45c4.63 1.43 11.73.37 14.44 5.34.45.86 1.76.1 1.3-.75zm52.25-.17c2.99 6.14 5.96 12.28 9.11 18.32a279.1 279.1 0 006.68 11.88c.74 1.23 1.51 2.76 2.88 3.48 2.9 1.55 5.54-2.01 6.73-4.19a49.75 49.75 0 003.61-9.35 74.15 74.15 0 002.97-16.88c.46-7.06.62-14.11 1.45-21.16.12-1.01-1.4-1.01-1.51 0-1.32 10.99-.62 22.28-3.15 33.1a75.38 75.38 0 01-2.74 8.99 35.2 35.2 0 01-1.84 4.32c-.72 1.35-1.8 3.18-3.3 3.8-1.92.8-3.04-1.61-3.8-2.92-.76-1.31-1.6-2.7-2.38-4.03a280.11 280.11 0 01-3.95-7.15c-3.32-6.25-6.4-12.62-9.5-18.97-.38-.88-1.68-.07-1.26.76z" fill="#020202"/><path d="M397.86 152.44c-3.22 11.13-4.36 22.74-7.16 33.97a.76.76 0 001.09.82c.17-.09.3-.24.36-.41 2.8-11.24 3.96-22.84 7.18-33.98a.75.75 0 00-.53-.93.76.76 0 00-.94.53z" fill="#020202"/><path d="M399.26 151.72c.14-2.53.3-5.03.43-7.61a3.64 3.64 0 01.87-2.71c.83-.61 1.8-1 2.84-1.11 1.12-.16 2.25-.21 3.39-.15.53-.02 1.06 0 1.6.08.43.08.52.26.28.65a4.43 4.43 0 01-2.41 1.56c-1 .32-2.07.4-3.1.23-.97-.17-1.37 1.29-.41 1.46a8.06 8.06 0 005.86-1.16 3.38 3.38 0 001.73-2.37 1.82 1.82 0 00-1.63-1.84c-1.09-.15-2.19-.2-3.28-.13-1.15 0-2.3.14-3.42.43-.99.24-1.9.72-2.65 1.41a4.28 4.28 0 00-1.11 2.72c-.3 2.83-.35 5.7-.51 8.54-.06.98 1.46.98 1.52 0z" fill="#020202"/><path d="M402 140.4c.46-3.46-.34-6.89-1.01-10.28-.06-.39-.31-2.02.46-1.14.47.72.81 1.51 1.02 2.34.61 1.67 1.2 3.34 1.74 5.04a.76.76 0 00.73.54.78.78 0 00.73-.54c.59-2.07 3.64-1.55 5.2-1.15 1.9.52 3.3 1.64 3.1 3.77-.15 1.7-.6 4.2-2.37 4.92-.85.3-1.76.4-2.66.33-.52 0-2.2.06-2.42-.58-.3-.92-1.77-.53-1.45.4.6 1.84 3.31 1.77 4.9 1.7a4.92 4.92 0 004.65-3.03c.77-1.9 1.43-4.62.34-6.51-.95-1.66-2.93-2.4-4.73-2.69-2.27-.37-5.28-.22-6.02 2.42h1.46a93.34 93.34 0 00-2.38-6.68 3.13 3.13 0 00-1.5-1.9 1.7 1.7 0 00-2.02.47 2.65 2.65 0 00-.34 2.01c.16 1.14.42 2.27.62 3.4.5 2.35.64 4.77.4 7.17-.07.96 1.43.95 1.55 0z" fill="#020202"/><path d="M409.88 145.04a36.08 36.08 0 01-1.66 3.82 79.05 79.05 0 01-1.92 3.82c-.45.86.85 1.62 1.32.76a87.9 87.9 0 001.95-3.91 37.2 37.2 0 001.77-4.08c.32-.93-1.15-1.32-1.46-.4zm-52.82 61.11a42.62 42.62 0 00-.71 4.8.77.77 0 00.75.75.78.78 0 00.76-.75c0-.3.06-.62.1-.92l.06-.53v-.44c.13-.83.27-1.68.43-2.52a.73.73 0 00-.08-.56.78.78 0 00-.44-.36.76.76 0 00-.87.52zM386 162.5a18.66 18.66 0 00-12.97 8.65l1.2-.16c-2.53-2.36-3.75-5.92-6.28-8.28a.77.77 0 00-1.15.12.76.76 0 00-.14.41 67 67 0 01-1.73 9.54c-1.01 4.48-2.12 8.93-3.22 13.4a.76.76 0 00.53.92.76.76 0 00.94-.53c1.13-4.58 2.27-9.16 3.3-13.78.8-3.14 1.36-6.33 1.7-9.55l-1.3.54c2.53 2.35 3.75 5.92 6.27 8.29a.75.75 0 00.64.2.77.77 0 00.55-.36 17.18 17.18 0 0112.07-7.94c.96-.15.55-1.63-.4-1.46zm-19.65-22.43c-3.76 5.84-10.43 7.37-17 6.88-5.6-.42-12.22-1.73-15.76-6.49-.58-.77-1.9 0-1.3.77 3.9 5.25 10.84 6.76 17.06 7.23 7.14.54 14.26-1.34 18.32-7.64.53-.81-.79-1.57-1.32-.75z" fill="#020202"/><path d="M392.87 179.73c-.8-4.35-2.14-8.64-3.36-12.88-1.21-4.24-2.4-8.73-4.04-12.92-2.38-6.04-6.07-11.08-12.55-13.2a32.2 32.2 0 00-8.37-1.6c-.86.02-1.72 0-2.58-.07a3.8 3.8 0 01-2.66-2.93c-.04-.82.05-1.65.25-2.45.22-1.27.49-2.52.76-3.78.55-1.91.93-3.87 1.17-5.84.05-1-1.47-1-1.52 0-.2 1.75-.54 3.47-1.01 5.17-.52 2.02-.9 4.08-1.13 6.16a5.3 5.3 0 003.3 5.04c.7.18 1.4.24 2.12.2.97 0 1.94.07 2.91.2 3.62.55 7.37 1.24 10.48 3.28a18.64 18.64 0 016.23 7.57c2.13 4.34 3.35 9.15 4.7 13.77 1.4 4.84 2.96 9.74 3.88 14.7.14.94 1.6.53 1.42-.42zm-45.27-50c-.57 1.83-1.1 3.68-1.72 5.5-.39 1.14-1 2.54-2.26 2.87a.76.76 0 10.4 1.47c1.68-.44 2.58-1.96 3.16-3.47.74-1.94 1.26-4.03 1.88-5.97.3-.93-1.17-1.34-1.46-.4zm-32.06 74.77c-2.03 8.84-4.75 17.5-6.5 26.4-1.1 5.53-1.27 11.85 1.37 16.97a12.62 12.62 0 007.33 6.33c3.59 1.19 7.52 1.09 11.26 1.2 8.86.25 17.73.25 26.6 0a.76.76 0 00.53-1.3.76.76 0 00-.53-.22c-7.42.2-14.84.26-22.26.1-3.76-.08-7.57 0-11.3-.45-3.74-.44-7.25-1.76-9.46-4.97-3.31-4.83-3.21-11.51-2.13-17.06.89-4.59 2.07-9.12 3.24-13.63 1.1-4.33 2.32-8.64 3.3-12.98.23-.94-1.23-1.34-1.45-.38z" fill="#020202"/><path d="M352.55 247.13c3.74 10.95 7.54 21.94 12.92 32.23a104 104 0 009.11 14.36c3.34 4.45 6.57 8.83 8.67 14a2.68 2.68 0 002.3 1.91c1.68.18 3.37.23 5.06.16 3.55-.03 7.1-.3 10.62-.79a.77.77 0 00.46-1.11c-6.44-10.36-9.75-22.17-12.96-33.77-3.13-11.35-6.16-23.18-12.29-33.37-3.87-6.44-9.59-12.17-17.48-12.55l-18.29-.85-15.58-.73c-1.01-.05-1.01 1.46 0 1.51l31.89 1.5c1.25.06 2.56 0 3.8.18 5.4.65 9.85 5.03 12.79 9.28a67.79 67.79 0 017.67 15.66 217.67 217.67 0 015.23 16.92c3.52 12.7 6.88 25.67 13.9 36.98l.46-1.1c-3.14.43-6.3.67-9.47.72h-4.24c-.8 0-1.76.09-2.27-.63-.31-.59-.56-1.2-.76-1.84-2.02-4.75-5.25-8.85-8.33-12.95a120.72 120.72 0 01-15.56-28.73 387.05 387.05 0 01-6.22-17.33c-.27-.98-1.74-.6-1.43.34z" fill="#020202"/><path d="M352.6 220.15c14.62.88 29.25 1.95 43.84 3.43 3.46.35 6.9.72 10.36 1.19 3.45.46 7.23.67 10.25 2.17 4.88 2.45 4.66 8.53 2.88 12.88-1.96 4.83-5.06 9.36-7.9 13.7a215.4 215.4 0 01-22.21 28.16c-.67.7.4 1.78 1.07 1.07a221.74 221.74 0 0020.71-25.87c3.07-4.4 5.88-8.97 8.41-13.69 2.2-4.22 3.8-9.18 1.58-13.73-2.02-4.1-6.48-4.93-10.6-5.6-3.14-.5-6.3-.89-9.45-1.25a743.88 743.88 0 00-25.02-2.3c-7.97-.63-15.94-1.2-23.92-1.67-.98-.06-.97 1.45 0 1.51z" fill="#020202"/><path d="M392.49 240.64c-2.54 7.35-5.14 14.67-7.8 21.97-.33.92 1.13 1.32 1.46.4 2.65-7.3 5.26-14.62 7.8-21.97.36-.93-1.15-1.32-1.46-.4zm8.26 68.3a51.25 51.25 0 0021.87 10.12c1.9.38 4.12.88 4.87 2.63a1.12 1.12 0 01.06.9c-.21.47-.85.57-1.37.6l-13.1.69c-4.48.23-9.62.2-12.6-3.09a13.82 13.82 0 00-1.94-2.11 2.15 2.15 0 00-2.65-.08c-1.44 1.39.68 4.56-1.1 5.49a1.75 1.75 0 01-2.08-.64 4.8 4.8 0 01-.77-2.18c-.65-3.65-1.69-7.91-2.16-11.59" fill="#020202"/><path d="M400.21 309.44a52.68 52.68 0 0014.8 8.26 76.7 76.7 0 008.44 2.28c.94.22 2.4.54 2.98 1.4.79 1.17-.43 1-1.25 1.07l-3.04.16c-3.33.18-6.66.38-10 .52-2.57.23-5.16-.01-7.65-.7a8.1 8.1 0 01-3.24-1.94c-.88-.89-1.5-2.01-2.6-2.66a2.58 2.58 0 00-4.05 1.85c-.13 1.01.28 2.02.16 3.03-.18 1.49-1.59.28-1.86-.52-.22-.78-.38-1.57-.49-2.38-.65-3.38-1.45-6.74-1.9-10.15-.12-.95-1.64-1-1.52 0 .46 3.4 1.21 6.76 1.87 10.13.38 1.9 1.01 6.25 4.11 5.04 2.26-.91.7-3.47 1.15-5.15.6-2.16 2.92.64 3.53 1.35.88 1.05 2 1.89 3.25 2.44a19.07 19.07 0 008.3 1.25c3.64-.09 7.28-.36 10.92-.55 1.67-.08 7.2.51 6.07-2.66-.88-2.47-4.05-2.85-6.23-3.33a50.82 50.82 0 01-20.7-9.76c-.73-.61-1.82.44-1.05 1.02zm-24.01-13.96a49.55 49.55 0 002.08 23.71c.63 1.8 1.3 3.95.14 5.47a1.2 1.2 0 01-.76.5c-.52.06-.92-.43-1.21-.86-2.39-3.6-4.78-7.22-7.19-10.82-2.44-3.7-5-8.06-3.6-12.27.38-.87.68-1.78.87-2.71a2.08 2.08 0 00-1.25-2.31c-1.94-.52-3.67 2.87-5.38 1.82a1.71 1.71 0 01-.48-2.1c.36-.69.89-1.29 1.53-1.75 2.87-2.38 6.24-5.2 9.24-7.44" fill="#020202"/><path d="M375.47 295.27c-.9 5.79-.8 11.68.3 17.42.54 2.81 1.52 5.45 2.26 8.2.2.68.3 1.38.25 2.08-.01.36-.12.7-.31 1-.66.77-.52.2-.86-.04a9.37 9.37 0 01-1.39-2.09l-1.38-2.07c-1.75-2.64-3.56-5.26-5.25-7.94-1.53-2.44-3.1-5.21-3.03-8.16 0-2.26 2.02-4.6 1.01-6.81-.78-1.69-2.57-1.73-3.99-.84-.55.34-1.75 1.63-2.48 1.45-2.02-.5 1.77-3.45 2.25-3.85 2.56-2.11 5.12-4.23 7.78-6.24.77-.58 0-1.89-.77-1.3-2.58 1.95-5.06 4.03-7.58 6.04-1.53 1.28-5 3.5-3.32 5.92 1.34 1.93 3.31.33 4.66-.58.34-.3.77-.5 1.23-.57.94 0 1.08 1.1.95 1.8-.28 1.58-1.14 2.9-1.23 4.54-.15 3.02 1.2 5.89 2.7 8.4 1.8 3.02 3.87 5.93 5.82 8.87.95 1.43 1.84 2.91 2.86 4.3.58.79 1.44 1.44 2.45.92 2.38-1.25 1.3-4.85.68-6.74a49.55 49.55 0 01-2.08-23.31c.1-.94-1.4-1.34-1.53-.4zm-11.98-103.71c-3.24-4.32-6.23-8.83-9.3-13.28-.53-.75-1.02-1.5-1.57-2.27a.8.8 0 00-.86-.36 2.85 2.85 0 00-2.7 2.25 1.55 1.55 0 00.21 1.35l2.74 3.84c2.11 2.97 4.2 5.97 6.34 8.92.42.58.94.55 1.6.57l2.88.12c1.01 0 1.01-1.47 0-1.51l-3.71-.15.66.37-8.95-12.58-.44-.63c.4 0-.06.63.12.1.08-.22.06-.5.23-.68.41-.31.91-.49 1.43-.5l-.86-.36c2.95 4.53 6.15 8.9 9.27 13.31.52.76 1 1.52 1.6 2.26.58.73 1.9 0 1.31-.77zm4.28 8.5a62.91 62.91 0 004.51 9.73l1.2-.91-5.84-6.32-.83-.9c-.67-.7-1.74.36-1.07 1.08l5.83 6.3.83.9c.6.65 1.6-.17 1.2-.9-1.72-3-3.18-6.14-4.36-9.39-.32-.91-1.77-.52-1.47.4zm-8.59 63.52a715 715 0 01-37.8 0l-4.29-.14c-1.55.02-3.1-.07-4.64-.29-1.71-.34-2.53-1.58-3.19-3.07-.66-1.49-1.33-3.31-2.02-4.98a996.84 996.84 0 01-14.56-39.17c-2.29-6.56-4.58-13.1-6.34-19.84-3.5-13.4-4.2-27.28-3.32-41.06.22-3.24.12-7.47 3.6-9.07 2.73-1.23 6.23-1.06 9.16-1.1 6.74-.07 13.46.4 20.24.42a.76.76 0 00.54-1.3.76.76 0 00-.54-.21c-6.36 0-12.72-.42-19.08-.42-4.7 0-12.03-.54-14.28 4.64-1.21 2.8-1.08 6.21-1.25 9.2-.19 3.73-.27 7.47-.2 11.2.09 7.06.79 14.08 2.1 21a159.47 159.47 0 005.88 20.9c2.37 7 4.84 13.98 7.4 20.92 2.55 6.94 5.17 13.87 7.87 20.81 1.22 3.11 2.27 6.42 3.78 9.41 1.36 2.68 3.53 3.27 6.36 3.39 14.85.63 29.73.7 44.59.29.96 0 .96-1.56-.01-1.53z" fill="#020202"/><path d="M336.77 265.45a531.2 531.2 0 01-1.84 37.66l.38-.65a96.69 96.69 0 01-24.29 10.97.76.76 0 00.4 1.45 97.36 97.36 0 0022.96-10.07c.56-.35 1.75-.8 2.02-1.45.24-.93.33-1.89.28-2.85.18-2.2.34-4.42.5-6.63a584.26 584.26 0 001.13-28.46.76.76 0 00-.79-.75.77.77 0 00-.75.78zm2.9 0a543.5 543.5 0 001.48 33.2c.08 1.1.16 2.2.26 3.3.06.8 0 1.43.66 1.93a68.35 68.35 0 0011.25 6.04 99.6 99.6 0 0013.26 4.93.76.76 0 00.85-.55.75.75 0 00-.46-.9 96.8 96.8 0 01-24.28-10.97l.37.65a531.17 531.17 0 01-1.83-37.66.78.78 0 00-.8-.76.78.78 0 00-.76.8z" fill="#020202"/><path d="M308.3 315.33l.8-.36a2.73 2.73 0 011.56-.2c1.53.15 3.23.7 3.83 2.08.2.54.3 1.12.29 1.7.03.54-.02 1.09-.16 1.62a4.11 4.11 0 01-2.35 2.54 6.71 6.71 0 01-3.54.4 2.56 2.56 0 01-.92-.26 2.3 2.3 0 01-.8-.88 5.36 5.36 0 011.29-6.64z" fill="#020202"/><path d="M308.7 315.99c.36-.22.76-.38 1.17-.48.77-.05 1.55.07 2.27.34.63.17 1.18.55 1.56 1.08.37.82.48 1.73.3 2.6a3.65 3.65 0 01-3.38 2.86 7.6 7.6 0 01-1.45 0c-.4.01-.79-.1-1.12-.33a3.37 3.37 0 01-.86-1.92 4.68 4.68 0 011.66-4.28.76.76 0 000-1.07.77.77 0 00-1.07 0 6.1 6.1 0 00-2.12 5.23c.08 1 .43 1.95 1.01 2.77a3.73 3.73 0 003.23 1.14 5.63 5.63 0 005.36-3.23 6.4 6.4 0 00.16-3.51 3.67 3.67 0 00-1.8-2.34 7.25 7.25 0 00-3.21-.86 3.44 3.44 0 00-1.71.33l-.77.35a.76.76 0 10.77 1.3v.02zm53.4-.66l.78-.36c.5-.22 1.04-.28 1.57-.2 1.53.15 3.22.7 3.83 2.08.2.54.3 1.12.29 1.7.02.54-.03 1.09-.15 1.62a4.12 4.12 0 01-2.36 2.54 6.72 6.72 0 01-3.54.4 2.68 2.68 0 01-.92-.26 2.34 2.34 0 01-.8-.88 5.34 5.34 0 011.3-6.64z" fill="#020202"/><path d="M362.48 315.99c.36-.22.75-.38 1.16-.48a5.5 5.5 0 012.28.34 2.8 2.8 0 011.55 1.08c.37.82.48 1.73.3 2.6a3.64 3.64 0 01-3.38 2.86c-.48.04-.96.04-1.44 0-.4 0-.8-.1-1.13-.33a3.28 3.28 0 01-.85-1.92 4.68 4.68 0 011.66-4.28.75.75 0 00-.54-1.27c-.2 0-.39.06-.53.2a6.1 6.1 0 00-2.13 5.23 5.4 5.4 0 001.02 2.77 3.73 3.73 0 003.21 1.14 5.61 5.61 0 005.36-3.23 6.4 6.4 0 00.16-3.51 3.63 3.63 0 00-1.8-2.34 7.32 7.32 0 00-3.21-.86 3.46 3.46 0 00-1.71.33l-.76.35a.77.77 0 00-.27 1 .78.78 0 001.05.32zm-26.1-211.67c.13 7.42.6 15.98 5.25 22.17a9.2 9.2 0 008.77 3.8c3.78-.47 6.9-2.72 9.85-4.95.77-.58 0-1.9-.76-1.3-2.68 2.01-5.5 4.15-8.9 4.7-3.7.6-6.6-1.16-8.5-4.27-3.63-5.98-4.04-13.34-4.2-20.15a.76.76 0 00-1.29-.53.76.76 0 00-.22.53zm15.8 1.36c-.33.4-.56.86-.66 1.36a1.73 1.73 0 00.15.96c.13.26.33.48.57.64a1.33 1.33 0 001.7-.19 1.86 1.86 0 00.04-2.39c-.18-.22-.4-.4-.65-.54a.77.77 0 00-1.03.27.76.76 0 00.27 1.01l.19.11-.16-.1.22.2-.12-.15c.07.1.13.2.17.3l-.08-.19c.04.1.07.2.09.31v-.2.3-.19l-.08.28.08-.19-.11.18.12-.15-.12.13.15-.13-.14.1.17-.08h-.13.2-.13.2-.15l.18.07-.16-.1.15.12-.15-.17.12.17-.12-.2.08.18-.06-.23v.2-.25.2c.02-.11.06-.23.1-.35l-.07.18c.12-.25.27-.5.45-.72.1-.18.14-.39.09-.59a.83.83 0 00-.36-.45.74.74 0 00-.59-.07l-.17.07a.7.7 0 00-.25.3z" fill="#020202"/><path d="M340.47 105.78a4.8 4.8 0 00-.35.82c-.1.33-.12.67-.06 1a1.62 1.62 0 001.13 1.27 1.51 1.51 0 001.66-.76 2 2 0 00.17-1.56 2.12 2.12 0 00-1.06-1.3.84.84 0 00-.59-.08.79.79 0 00-.45.35.76.76 0 00.27 1l.24.16-.16-.12.24.24-.12-.15c.08.1.14.2.2.31l-.09-.17c.05.11.09.23.1.35v-.2c.02.12.02.25 0 .37v-.2c-.01.1-.04.2-.09.3l.08-.19-.13.24.11-.16-.15.16.15-.11-.16.09.17-.07h-.15.2-.16.2-.17l.19.07-.17-.1.16.13-.16-.16.12.15-.14-.23.08.19-.07-.26v.2-.3.2c.04-.2.1-.38.17-.56l-.07.18c.04-.12.1-.24.18-.37a.75.75 0 00-.28-1.03.76.76 0 00-1.04.27v.03zm5.77 1.5a6.64 6.64 0 01-3.43 3.95.77.77 0 00-.26 1.01 3.88 3.88 0 003.19 2.02.76.76 0 00.76-.76c0-.2-.09-.39-.23-.53a.77.77 0 00-.53-.22 2.36 2.36 0 01-1.88-1.25l-.28 1a8.25 8.25 0 004.11-4.86c.3-.89-1.17-1.3-1.45-.36zm-2.61 12.17A26.1 26.1 0 00354 118l-.86-1.11a16.34 16.34 0 01-3.36 3.8c-.22.19-.58.47-.9.39-.32-.08-.65-.55-.88-.77l-2.02-2.01c-.7-.69-1.78.38-1.08 1.07.7.68 1.65 1.6 2.5 2.38a2.22 2.22 0 002.8.5 9.35 9.35 0 002.28-2.02 19.9 19.9 0 002.03-2.58.77.77 0 00-.86-1.1 24.98 24.98 0 01-9.97 1.38c-.97-.07-.97 1.45-.05 1.5z" fill="#020202"/><path d="M433.52 212.27c4.05-10.08 10.58-22.65 14.24-32.89l-35.6.22-14.9 31.55h-15.65v-3.03h15.95" fill="#fff"/><path d="M434.25 212.47c4.47-11.09 10.19-21.64 14.25-32.89a.77.77 0 00-.4-.87.77.77 0 00-.34-.08l-31.13.19h-4.47a.75.75 0 00-.66.37l-13.03 27.6-1.86 3.95.66-.38H381.6l.76.76v-3.03l-.76.76h15.95a.76.76 0 00.76-.75.76.76 0 00-.76-.76H381.6a.76.76 0 00-.76.76v3.02a.77.77 0 00.76.75h15.66a.73.73 0 00.64-.37l13.05-27.6c.61-1.31 1.23-2.63 1.86-3.94l-.66.37 31.13-.2h4.47l-.73-.95c-4.05 11.24-9.78 21.81-14.24 32.88-.37.9 1.1 1.3 1.46.4z" fill="#020202"/><path d="M423.66 193a1.66 1.66 0 011.73.21c.47.4.78.95.89 1.56a3.92 3.92 0 01-1.26 3.7 2.22 2.22 0 01-1.83.59c-1.06-.24-1.5-1.52-1.53-2.6-.04-.81.1-1.63.45-2.37a2.8 2.8 0 011.83-1.52" fill="#6F4AB3"/><path d="M424.02 193.58a1.02 1.02 0 011.01.2 2 2 0 01.6 1.24 3.17 3.17 0 01-.7 2.53c-.3.38-.7.66-1.18.78a.84.84 0 01-.86-.32 2.4 2.4 0 01-.41-1 4.9 4.9 0 010-1.4 2.52 2.52 0 011.72-2.39c.9-.2.52-1.59-.38-1.37a3.84 3.84 0 00-2.7 3.17 4.87 4.87 0 00.77 3.98c1.09 1.26 2.88.8 3.92-.26a4.7 4.7 0 001.26-4.03 3.34 3.34 0 00-1.25-2.17 2.4 2.4 0 00-2.46-.23.71.71 0 00-.35.45.7.7 0 00.1.56.73.73 0 00.9.26z" fill="#6F4AB3"/><path d="M253.8 211.56h192.62c1.01 0 1.85 1.21 1.85 1.21v5.04c0 1-1.64 1.42-1.64 1.42H254c-1 0-1.84-1.21-1.84-1.21v-5.04c0-1.02 1.64-1.42 1.64-1.42z" fill="#fff"/><path d="M253.8 212.32h3.28a.76.76 0 00.6-.3.75.75 0 00.13-.66l-.74.96H445.6c.25-.02.5-.02.74 0 .32.04.62.17.87.38.1.08.53.62.35.25-.17-.37 0-.08 0 .1a14.1 14.1 0 000 1.6v1.77c.07.46.07.93 0 1.4a1.42 1.42 0 01-1.15.67 23.3 23.3 0 01-3.03 0 .77.77 0 00-.6.3.76.76 0 00-.13.66l.73-.96H255.16c-.3.02-.6.02-.9 0h-.18c-.3-.05-.57-.18-.8-.38-.08-.08-.53-.63-.35-.25.19.37 0 0 0-.17.07-1.1 0-2.21 0-3.3a4.7 4.7 0 010-1.4c.16-.4.7-.58 1.08-.68a.76.76 0 10-.4-1.47 2.92 2.92 0 00-2.1 1.6 11 11 0 00-.1 3.31 8.86 8.86 0 000 2.49 3.1 3.1 0 002.42 1.75c.58.03 1.16.03 1.73 0h179.3c2.7 0 5.43.07 8.1 0h.34a.77.77 0 00.6-.3.77.77 0 00.14-.65l-.73.95c2.23 0 5.64.46 5.7-2.66v-3.66a2.14 2.14 0 00-.58-1.87 3.74 3.74 0 00-3.2-1h-179.6c-2.74 0-5.5-.08-8.24 0h-.35a.77.77 0 00-.73.95l.74-.96h-3.29c-.2 0-.4.1-.53.24a.76.76 0 00.02 1.07c.14.14.34.22.54.22zm97-108.66l.23-.12.12-.05.43-.14.51-.11h.32c.15-.02.3-.02.45 0h.27c.09 0 .09 0 0 0h.13c.32.06.63.15.93.28a.77.77 0 00.94-.53.78.78 0 00-.54-.93 5.37 5.37 0 00-4.55.28.77.77 0 00-.27 1 .77.77 0 001.03.32zm-10.86.64c.16 0 .33-.08.5-.1.18-.02.1 0 0 0h.38c.34-.03.68-.03 1.01 0h.35c.17.03.34.06.5.11l.5.14.2.07.14.06a.76.76 0 001.05-.27.77.77 0 00.07-.57.74.74 0 00-.35-.46 7.51 7.51 0 00-4.76-.46.75.75 0 00-.5.34.75.75 0 00.9 1.11l.01.02z" fill="#020202"/><path d="M352.55 82.52c2.74-.05 5.45.5 7.96 1.58a.78.78 0 001.01-.27.75.75 0 00-.27-1 20.99 20.99 0 00-8.73-1.8.76.76 0 00-.62.76.75.75 0 00.65.73z" fill="#fff"/><path d="M380.2 248.99h9.16a.76.76 0 00.75-.76.75.75 0 00-.75-.75h-9.16a.76.76 0 00-.76.75.76.76 0 00.76.76z" fill="#020202"/><path d="M333.1 140.18a.72.72 0 01.48.3c3.54 4.76 10.2 6.04 15.84 6.5 6.35.47 12.73-1 16.54-6.26a24.6 24.6 0 00-2.6-.19 7.3 7.3 0 01-2.2-.18 5.27 5.27 0 01-3.29-5.04c.24-2.07.61-4.13 1.13-6.15.25-1.15.6-2.35.83-3.55-2.94 2.19-6.07 4.32-9.8 4.67h-.64a16.52 16.52 0 01-2.42 6.71 10.46 10.46 0 01-3.68 3.9 3.73 3.73 0 01-4.22-.95c-.1-.1-.17-.2-.26-.3l-5.73.51.01.03zm72.15 3.95c-.82.1-1.65.07-2.46-.07-.9-.15-.52-1.51.38-1.35 1.05.18 2.12.1 3.13-.23.97-.24 1.83-.8 2.45-1.57.24-.42.15-.65-.31-.74a9.53 9.53 0 00-1.62-.1c-1.14-.05-2.28 0-3.4.17-.51.09-1.01.21-1.5.37a.8.8 0 01-.9.44c-.16.09-.31.2-.46.32a3.65 3.65 0 00-.88 2.74c-.15 2.54-.3 5.08-.43 7.61a.71.71 0 01-.16.4.63.63 0 01.23.7c-3.22 11.15-4.36 22.74-7.18 33.99-.2.87-1.58.5-1.37-.39.48-1.92.9-3.85 1.3-5.8a.58.58 0 01-.58-.5c-1.06-5-2.37-9.93-3.92-14.8l-.47-1.66h-.28c-.1.12-.24.2-.4.23a17.18 17.18 0 00-11.06 6.48l.08.1c3.12 6.41 6.23 12.83 9.58 19.15 1.35 2.45 2.7 4.9 4.05 7.31.8 1.38 1.62 2.76 2.44 4.14.67 1.12 1.66 3.14 3.3 2.67 1.63-.46 2.87-2.52 3.62-3.9.7-1.38 1.3-2.8 1.8-4.26a73.45 73.45 0 002.8-9.07 85.5 85.5 0 001.87-15.2c.3-6 .56-11.98 1.28-17.94a.64.64 0 01.12-.33c0-.12.02-.24.08-.35.68-1.25 1.3-2.53 1.9-3.8.5-1.01 1.02-2.12 1.44-3.21-1.56.07-3.85.02-4.47-1.55zm-214.54 4.23c-.33 1.3-.47 2.63-.41 3.97a9.7 9.7 0 00.55 3.85 5.03 5.03 0 003.2 2.78 2.7 2.7 0 002.12-.14c.37-.26.68-.6.9-1 1.73-2.7 1.73-6.13 1.3-9.3" fill="#fff"/><path d="M253.36 202.64c21.06 6.45 39.76 19.93 50.72 37.92 10.96 17.98 13.76 40.38 6.5 59.93-7.27 19.56-25.82 31.67-47.15 37.28H89.53s-30.14-17.05-21.3-49.63c8.83-32.58 68.67-40.8 68.67-40.8s103.8-48.56 116.46-44.7z" fill="#6F4AB3"/><path d="M253.16 203.35c17.55 5.4 33.77 15.7 45.15 30.17 12.05 15.3 17.86 35.39 14.76 54.7a55.16 55.16 0 01-10.01 24.51A60.79 60.79 0 01284 328.85a83.5 83.5 0 01-11.84 5.4c-2.09.77-4.2 1.46-6.34 2.07a16 16 0 01-2.46.68c-1 .06-1.99.06-2.98 0H90.64a4.89 4.89 0 00-1.01 0c-.26.06.22.07.24.08a49.66 49.66 0 01-17.91-18.87c-6.37-11.97-6.39-27.64 1.17-39.13 6.57-9.97 17.59-16.42 28.34-21.04a147.47 147.47 0 0129.12-8.89c2.08-.42 4.26-.64 6.32-1.14.8-.26 1.56-.6 2.29-1a1753.71 1753.71 0 0149.73-22.13A813.29 813.29 0 01222 211.55c8.16-3.02 16.51-6.23 25.1-7.9 1.9-.38 4.3-.86 6.07-.34a.72.72 0 00.82-1.04.72.72 0 00-.43-.34c-2.15-.64-4.7-.08-6.83.33-3.77.8-7.48 1.8-11.13 3.03-10.45 3.33-20.67 7.36-30.83 11.48-11.3 4.58-22.52 9.38-33.68 14.29a2117.6 2117.6 0 00-26.08 11.7l-6.96 3.2c-.46.22-.92.48-1.4.65-.25.1.09 0 0 0a150.04 150.04 0 00-22.04 5.12c-11.45 3.52-22.89 8.3-32.37 15.7a44.29 44.29 0 00-11.64 13.03 39.91 39.91 0 00-4.7 20.25c.26 12.35 6.46 23.56 15.49 31.76a49.72 49.72 0 007.3 5.6c.6.32 1.3.45 1.97.36h164.5c3.24 0 6.79.46 9.93-.42 16.25-4.5 32.16-13.29 41.4-27.75 10.13-15.88 11.03-36.8 5.36-54.4-5.73-17.83-18.33-32.61-34-42.69a98.52 98.52 0 00-24.3-11.23c-.9-.24-1.27 1.14-.39 1.41z" fill="#6F4AB3"/><path d="M206 254.55c2.23 2.47 16.07 8.51 19.22 10.42a69.56 69.56 0 0022.03 8.53c1.59.31 3.34.56 4.74-.23 1.4-.79 2.19-2.57 2.6-4.22.66-3.28.95-6.63.84-9.98.11-19.71-.53-39.52-4.19-58.9-.58-3.09-1.35-6.38-3.68-8.52-2.1-1.92-5.06-2.54-7.86-2.96a99.36 99.36 0 00-16.86-1.08v.56c-2.11 3.78-4.25 7.66-8.32 9.18-2.93 1.1-6.5 1.11-9.1-.67a11.7 11.7 0 01-4.77-9.13 38.44 38.44 0 00-19.62 1.63 14.83 14.83 0 00-4.78 2.55 18.01 18.01 0 00-3.32 4.36c-2.62 4.24-35.17 44.87-20.6 29.52l53.66 28.94z" fill="#fff"/><path d="M205.46 255.08c.87.83 1.85 1.53 2.91 2.09 1.59.95 3.23 1.8 4.87 2.63 3.25 1.65 6.57 3.2 9.82 4.85 1.66.85 3.25 1.85 4.9 2.73a70.76 70.76 0 0016.03 6.16c2.4.6 5.42 1.6 7.86.64 2.13-.86 3.03-3.1 3.52-5.16.6-2.96.88-5.97.82-8.99.07-6.49.01-12.97-.17-19.45a266.68 266.68 0 00-3.6-38.18c-.51-2.92-.94-6-2.34-8.65a10.16 10.16 0 00-6.36-4.99 50.05 50.05 0 00-9.69-1.51 101.8 101.8 0 00-11.18-.4.76.76 0 00-.76.76c.05 1.01-1.01 2.29-1.59 3.15a19.01 19.01 0 01-2.81 3.67 10.29 10.29 0 01-9.16 2.73c-4.2-.88-7.08-5.47-7.08-9.6a.78.78 0 00-.56-.74 39.69 39.69 0 00-17.37.8 20.88 20.88 0 00-7.29 3.2c-1.63 1.43-3 3.13-4.04 5.03-2.03 3.08-4.38 5.93-6.6 8.83-3.44 4.5-6.9 8.97-10.31 13.48a101.83 101.83 0 00-6.85 9.67c-.27.36-.43.77-.49 1.21a.85.85 0 00.47.73.86.86 0 00.87-.06c1.4-.69 2.65-2.41 3.7-3.52l-.93.12 18.06 9.75 28.92 15.62 6.62 3.56c.86.47 1.63-.83.77-1.3l-18.06-9.75-28.92-15.61-6.62-3.57a.79.79 0 00-.92.11c-1.01 1.07-2.26 2.25-3.21 3.17l-.12.09c-.1.18 0-.13 0 0-.08-.16 1.76 1.2.85.65.26.16-.17.16 0 0-.12.08.06-.12.15-.28l.37-.6c2.02-3.2 4.4-6.2 6.7-9.22 5.43-7.18 11.12-14.16 16.36-21.5.54-.78 1-1.59 1.53-2.38 1.7-2.54 4.25-4.4 7.19-5.27a38.1 38.1 0 0118.78-1.48l-.56-.73c0 5.04 3.6 10.36 8.75 11.18a11.95 11.95 0 009.8-2.98 20.08 20.08 0 003.3-4.23c.73-1.16 1.87-2.52 1.8-3.9l-.76.75c6.12-.19 12.24.25 18.27 1.32 2.5.48 5.06 1.3 6.71 3.35 1.65 2.06 2.15 4.55 2.61 6.94 2.2 11.86 3.5 23.87 3.89 35.92.25 6 .35 12 .36 18 0 3.02 0 6.04-.08 9-.12 2.65-.23 5.8-1.56 8.18-1.56 2.8-4.78 1.9-7.35 1.31a70.42 70.42 0 01-7.95-2.31 98.4 98.4 0 01-13.06-6.28c-3.24-1.73-6.59-3.25-9.86-4.9a104.2 104.2 0 01-5.06-2.67 13.74 13.74 0 01-3.24-2.21c-.65-.74-1.72.33-1.05 1.04z" fill="#020202"/><path d="M244.27 248.26a163.06 163.06 0 00-30.35-10.07c1.42 1.8.89 4.4 0 6.5a26.5 26.5 0 01-5.85 8.75" fill="#fff"/><path d="M244.66 247.6a166.72 166.72 0 00-30.52-10.19c-.59-.13-1.26.55-.85 1.12 1.66 2.33.28 5.41-.87 7.67a26.28 26.28 0 01-4.85 6.67c-.67.7.4 1.76 1.09 1.08a27.88 27.88 0 005.62-8.13c1.13-2.5 2.03-5.6.32-8.06l-.85 1.1a164.34 164.34 0 0130.14 10.08c.89.36 1.68-.96.77-1.33z" fill="#020202"/><path d="M232.88 243.44c-.44-8.14-.41-16.3.08-24.42.06-1.01-1.46-1.01-1.52 0-.49 8.13-.51 16.28-.08 24.42.04.97 1.57.97 1.52 0z" fill="#020202"/><path d="M122.76 234.6a91.08 91.08 0 00-28.5.2 14.88 14.88 0 00-6.66 2.31c-2.87 2.14-4.05 6.04-3.52 9.56a19.1 19.1 0 004.72 9.44 35.09 35.09 0 0011.59 8.98" fill="#fff"/><path d="M122.96 233.88a93.1 93.1 0 00-24.86-.39c-2.48.22-4.94.65-7.35 1.3a10.23 10.23 0 00-7.45 8.75c-.56 4.46 1.5 8.72 4.18 12.16A35.85 35.85 0 00100 265.77c.87.44 1.65-.87.77-1.3a35.06 35.06 0 01-10.31-7.6c-2.9-3.1-5.6-7.05-5.74-11.45a8.88 8.88 0 016.64-9.2 61.25 61.25 0 0114.47-1.79c5.6-.2 11.19.12 16.72.95.95.1 1.37-1.36.4-1.5z" fill="#020202"/><path d="M124.23 277.29c15.74 5.34 29.64 11.08 45.38 16.42 1.46-8.17 5.66-11.08 9.69-13.87.38-.27-28.41-22.77-37.8-29.77" fill="#fff"/><path d="M204.4 231.7c-3.1.4-6.08-.09-9.11-.42a25.73 25.73 0 00-4.48-.16 8.48 8.48 0 00-3.93.88 2.35 2.35 0 00-1.2 2.31 2.33 2.33 0 001.7 1.98c1.45.37 2.95.56 4.45.6l5.43.56-.2-1.48c-1.92.43-1.61 2.73-1.39 4.2.3 1.9.53 4.67 2.14 6.04 1.34 1.12 3.25 1.2 4.83 1.8 1.8.65 3.49 1.6 5.3.48 3.6-2.22 5.07-7.53 4.15-11.44a15.96 15.96 0 00-3.04-5.97c-.52-.66-1.07-1.62-1.91-1.82a69.13 69.13 0 00-5.35-.3c-1.02.01-2.64-.18-3.59.4-.95.59-.07 1.83.77 1.31a4.6 4.6 0 012.08-.2c1.09 0 2.2 0 3.28.1.83 0 1.65.07 2.46.17.52.1 0 .06.08.1.68.76 1.3 1.56 1.88 2.4 2.02 3.15 2.76 6.66 1.27 10.19-.6 1.44-1.9 3.79-3.61 4.03-1.42.24-3.04-.9-4.36-1.27-1.73-.48-3.36-.65-4.05-2.52-.3-.86-1.86-5.96-.55-6.26.9-.2.59-1.4-.2-1.48-2.64-.27-5.28-.52-7.91-.82-.77-.08-3.17-.38-1.8-1.73.8-.8 2.67-.74 3.7-.78 4.43-.18 8.73 1.17 13.16.6.95-.12.97-1.63 0-1.5zm17.98-44.7a3.52 3.52 0 01-2.54-2.6v-1.22c0-1.67.16-3.34.3-5.04.25-3.02.65-6.04.84-9.06.06-1.01-1.46-1.01-1.52 0-.21 3.36-.66 6.7-.92 10.07a41.36 41.36 0 00-.22 4.88 4.92 4.92 0 003.68 4.42c.92.23 1.3-1.23.38-1.44zm-18.18-9.36a15.6 15.6 0 01-.64 5.16 8.92 8.92 0 01-2.32 4.39c-.74.64.33 1.7 1.07 1.07a10.16 10.16 0 002.67-4.93c.56-1.84.8-3.77.73-5.7-.07-.95-1.63-.96-1.52 0zM81.98 311.2c-9.54-4.15-18.21-5.04-28.63-5.4-.87.21-1.63.74-2.13 1.48-.4 2.28 3.68 9.62 14.56 15.11 5.36 2.72 13.65 3.95 19.65 4.03a7.03 7.03 0 003.17-.5 7.21 7.21 0 002.3-2.12 50.88 50.88 0 004.68-7.05l-13.6-5.55z" fill="#020202"/><path d="M82.36 310.56a67.31 67.31 0 00-20.94-5.04c-1.93-.16-3.85-.28-5.77-.36-1.4-.06-2.6-.28-3.8.51a2.64 2.64 0 00-1.14 3.53c1.4 4.28 5.3 7.75 8.82 10.32a40.37 40.37 0 0018.96 7.16c1.77.24 3.55.4 5.33.48 1.78.08 3.6.24 5.15-.55 1.56-.8 2.65-2.43 3.67-3.82a51.5 51.5 0 003.6-5.67.76.76 0 00-.46-1.1l-13.6-5.51c-.9-.37-1.3 1.1-.4 1.46l13.6 5.5-.45-1.11c-1.53 2.77-3.29 5.94-5.62 8.13-2.1 2.01-6.07 1.19-8.73.93a41.05 41.05 0 01-17.2-5.16c-4.05-2.42-8.1-5.63-10.46-9.8-.36-.63-1.29-2.21-1.01-2.95a2.5 2.5 0 011.12-.8c.7-.15 1.42-.17 2.12-.06 1.64.07 3.28.16 4.92.28a66.43 66.43 0 0121.48 4.96c.93.35 1.71-.95.81-1.33zm86.71 9.33c-5.48-8.62-.15-17.28 2.14-25.26 0 0 2.17-5.8 4.39-8.44a59.62 59.62 0 015.75-5.69c3.31.8 6.97 1.83 8.7 4.74 1.75 2.91-9.4 33.37-19.15 35-.31.06-.64.21-.92.06a1.13 1.13 0 01-.44-.96c-.36-4.03 1.1-7.92 2.54-11.67 1.7-4.47 3.45-8.98 6.17-12.91 2.72-3.93 6.59-7.28 11.24-8.44" fill="#020202"/><path d="M169.73 319.51c-2.56-4.16-2.71-8.7-1.53-13.33 1.01-3.85 2.43-7.67 3.76-11.42.9-2.6 2.13-5.07 3.67-7.36a36.58 36.58 0 016.26-6.35l-.74.2c1.88.37 3.7.98 5.41 1.81.79.41 1.5.95 2.11 1.58.32.33.58.7.78 1.12a9.29 9.29 0 01-.44 3.6 71.1 71.1 0 01-4.92 13.62c-2.17 4.64-4.68 9.42-8.22 13.18a10.65 10.65 0 01-4.56 3.23c-.18.06-.36.1-.54.12-.54 0-.46-.05-.5-.62-.09-1.24 0-2.48.25-3.69a38.61 38.61 0 012.02-6.68c3.24-8.52 7.3-18.88 17.13-21.47a.76.76 0 00.47-.9.76.76 0 00-.87-.55c-5.97 1.57-10.4 6.22-13.35 11.44a72.8 72.8 0 00-4.27 9.6 38.59 38.59 0 00-2.87 9.95c-.12 1.12-.39 2.93.32 3.93.6.83 1.59.6 2.44.36a10 10 0 003.7-2.01 32.71 32.71 0 006.92-8.89 84.4 84.4 0 005.46-11.42 55.3 55.3 0 003.1-9.93c.23-.96.3-1.96.22-2.95-.28-1.73-2.21-3.1-3.64-3.88a18.52 18.52 0 00-3.6-1.42c-.9-.25-2.12-.87-2.95-.31a17.3 17.3 0 00-2.03 1.8c-1.11 1-2.2 2.1-3.22 3.26-3.44 3.89-4.83 8.96-6.53 13.73a48.7 48.7 0 00-2.96 10.5 16.7 16.7 0 002.35 10.96c.57.78 1.88.02 1.37-.8zm19.93-180.34c-.64.98-1.23 1.99-1.77 3.02a15.05 15.05 0 00-1.4 5.95c-.12 2.28 0 4.54 0 6.82a18.7 18.7 0 01-1.38 6.56c-.55 1.39-1.01 3.35.5 4.33a3.9 3.9 0 002.47.32c1.5-.1 1.7.82 2.23 2.02a17.47 17.47 0 008.7 8.67 15.93 15.93 0 0014.28-.7.77.77 0 00.35-.47.78.78 0 00-.08-.57.77.77 0 00-.76-.37c-.1.01-.2.05-.28.1-7.7 4.42-17.2.48-20.83-7.25-.67-1.45-1.09-2.84-2.94-2.92-.82 0-2.32.47-2.65-.58-.24-.78.4-2.02.7-2.66 1.54-3.73 1.16-7.74 1.2-11.67-.1-2.26.3-4.51 1.15-6.6.56-1.1 1.2-2.14 1.9-3.15.45-.85-.86-1.64-1.39-.85z" fill="#020202"/><path d="M192.36 170.56a7.1 7.1 0 008.4-3.55c.45-.87-.86-1.63-1.3-.77a5.56 5.56 0 01-6.7 2.85c-.92-.29-1.33 1.17-.4 1.47zm.9-16.49a.87.87 0 00-.5-.51.89.89 0 00-.71.02 2.27 2.27 0 00.28 2.83c.34.36.83-.36.93-.86.15-.48.15-1 0-1.48z" fill="#020202"/><path d="M193.96 153.7a1.77 1.77 0 00-1.75-.96 1.4 1.4 0 00-.67.3 3.58 3.58 0 00-.5 1.04c-.19.75-.08 1.54.3 2.21.25.44.64 1 1.2 1a1.36 1.36 0 001.1-.65c.23-.32.38-.7.43-1.1a3 3 0 00-.05-1.63.78.78 0 00-.63-.54c-.1-.02-.2 0-.3.02a.76.76 0 00-.53.93l.07.19v.09-.05.49-.05.2a1.7 1.7 0 01-.07.32v.15c.06-.24 0-.09 0 0l-.09.13v.06l.06-.07-.09.1c-.12.12.13-.08 0 0l.12-.05h.33c.2.1.12.1.09.06l-.07-.1c-.1-.08 0 0 0 0a2.57 2.57 0 00-.22-.34l-.06-.15c.1.2 0 .05 0 0s-.06-.22-.09-.33v-.41.12-.17l.07-.23v-.1c.06-.16-.09.17 0 .06l.08-.16.08-.13-.28.27h.06c.12-.07-.14.06-.07 0 .08-.06.13 0 0 0-.12 0 0 0 0 0h.1s-.22-.05-.1 0h.06c.12 0-.14-.07-.07 0l.14.09c.06 0-.15-.14 0 0v.04l.05.07s-.1-.16-.05-.07l.09.16a.75.75 0 001 .27c.18-.1.3-.26.35-.46a.86.86 0 00-.09-.62zm28.51-25.3a25 25 0 00-16.72-2.2c-5.7 1.3-10.35 1.49-17.55 14.5 6.3-.76 13.3-.27 16.19 4.63.85 1.43 1.54 3.16 3.1 3.8 3.36 1.4 6.58-3.73 10.11-2.95 2.28.5 3.35 3.17 3.36 5.48a12.15 12.15 0 01-4.38 9.36c-.5.33-.91.79-1.19 1.32a2.82 2.82 0 00.33 2.15 17.55 17.55 0 004.41 5.78c4.05-6.77 7.7-6.8 10.97-13.95 1.74-3.66 7.39-20.1-8.63-27.92z" fill="#020202"/><path d="M222.85 127.75a28.18 28.18 0 00-10.8-2.87c-2.89-.06-5.77.28-8.57 1a18.17 18.17 0 00-9.51 5.23 43.59 43.59 0 00-6.38 9.16.77.77 0 000 .75.78.78 0 00.65.38c4.05-.47 8.76-.67 12.47 1.36a10.27 10.27 0 013.9 4.34c.89 1.51 2.11 2.9 4.05 3.02a8.23 8.23 0 004.33-1.58c1.4-.84 3.16-2.12 4.88-1.54 2.12.7 2.6 3.56 2.46 5.45a11.54 11.54 0 01-2.72 6.66c-.77.89-1.94 1.54-2.56 2.54a3.01 3.01 0 000 2.81 17.55 17.55 0 004.7 6.35c.1.08.2.13.3.17.11.04.23.05.34.03a.77.77 0 00.56-.35 27.37 27.37 0 014.63-5.72 36.66 36.66 0 003.97-4.2 23.27 23.27 0 003.6-7.37c1.62-5.47 1.8-11.62-.81-16.83a20.37 20.37 0 00-9.38-8.8c-.88-.43-1.64.88-.77 1.32a19.35 19.35 0 018.46 7.52 17.99 17.99 0 012.18 8.67 24.8 24.8 0 01-4.05 14 32.5 32.5 0 01-4.49 4.85 28.45 28.45 0 00-4.63 5.8l1.19-.16c-.98-.85-1.86-1.8-2.63-2.84-.66-.9-1.8-2.32-1.91-3.46-.1-.94.34-1.32 1-1.88.46-.38.9-.8 1.3-1.23.74-.84 1.38-1.77 1.89-2.76 1.66-3.27 2.46-8.56-.73-11.23-3.19-2.69-6.38.56-9.21 1.84a3.4 3.4 0 01-2.45.31c-1.18-.38-1.8-1.6-2.37-2.6a10.76 10.76 0 00-3.75-4.15c-3.99-2.44-9.18-2.32-13.65-1.8l.65 1.14c2.88-5.17 6.44-11 12.38-12.99a37.34 37.34 0 016.88-1.55c4.8-.52 9.66.35 13.98 2.52.74.42 1.5-.89.62-1.31z" fill="#020202"/><path d="M207.02 147.83a93.6 93.6 0 01-16.05-.56.73.73 0 00-.65.38 9.92 9.92 0 00-.7 6.94c.58 2.11 2.02 4.52 4.34 5.03 5.65 1.16 5.74-7.73 4.98-11.13-.22-.95-1.68-.54-1.47.4a13.4 13.4 0 010 6.17c-.4 1.6-1.27 3.64-3.3 3.02-1.76-.5-2.72-2.52-3.11-4.14a8.26 8.26 0 01.6-5.52l-.64.37c5.32.65 10.69.84 16.04.56.94-.1.94-1.58-.04-1.52zm7.24 5.79c.03-.2.08-.4.14-.6 0-.1.06-.2.1-.29.04-.09-.07.15 0 0l.06-.14a4 4 0 01.32-.52l.08-.12c0-.06.13-.12 0 0l.2-.24c.14-.16.29-.3.45-.43 0 0 .13-.14 0 0l.12-.09.26-.17.26-.15.13-.06s.17-.1.07 0c-.1.09.05 0 .07 0l.14-.05.32-.1a.76.76 0 00.17-1.38.77.77 0 00-.57-.07 5.17 5.17 0 00-3.79 4.09.75.75 0 00.55.86.76.76 0 00.91-.46l.01-.08zm-46.96 79.13c-1.6-7.92-5.79-25.74-7.23-33.7 0 0-.46-4.7-3.6-4.7-3.15 0-42.5-.44-42.5-.44s-2.93.22-2.48 2.69c.44 2.47 7.83 33.64 7.83 33.64" fill="#020202"/><path d="M168.02 232.55c-2.33-11.48-5.06-22.87-7.33-34.35-.4-2.01-1.55-4.33-3.86-4.57-.96-.1-1.96 0-2.93 0l-12.14-.12-26.15-.3c-2.32 0-5.4.35-4.94 3.53.41 2.92 1.3 5.84 1.96 8.73 1.9 8.17 3.83 16.34 5.75 24.5l.12.51c.22.95 1.69.56 1.47-.4l-4.79-20.33c-.89-3.85-1.8-7.69-2.66-11.54-.24-1.09-.86-2.59.42-3.23a3.22 3.22 0 011.72-.26l23.38.26 13.08.13h4.12c1.54 0 2.67.18 3.41 1.77.6 1.63.98 3.32 1.15 5.04.6 2.94 1.23 5.87 1.87 8.8 1.36 6.26 2.78 12.5 4.12 18.77l.73 3.46c.23.93 1.7.54 1.5-.4z" fill="#020202"/><path d="M182.5 240.04a125 125 0 00-38.76-15.23c-5.29-1.12-10.88-1.87-16.04-.24-7.21 2.27-12.19 8.71-16.3 15.04-6.19 9.51-11.5 19.54-16.8 29.57-5.96 11.28-12.15 24.4-18.16 35.68 8.33 5.93 13.67 7.7 22.4 8.06.51 0 27.15-42 43.44-61l58.68 34.91c10.47-2.83 20.14-11.53 24.38-21.45.04.03-30.01-17.6-42.84-25.34z" fill="#fff"/><path d="M182.88 239.4a126.6 126.6 0 00-27.92-12.49 102.94 102.94 0 00-15.18-3.58c-4.82-.7-9.78-.7-14.3 1.27-8.43 3.68-13.54 12.41-18.09 19.9-5.6 9.18-10.62 18.71-15.55 28.25-5.44 10.54-10.56 21.24-16.1 31.73a.78.78 0 00.28 1 44.9 44.9 0 0012.39 6.59c1.93.59 3.91 1 5.92 1.24 1.07.14 2.16.24 3.25.3.6 0 1.28.23 1.79-.17a9.5 9.5 0 001.5-2.02 401.3 401.3 0 003.22-4.8A1188.47 1188.47 0 01128 271.7c4.72-6.55 9.52-13.1 14.78-19.2l-.93.1 27.64 16.44 19.81 11.77c3.65 2.18 7.28 4.45 10.99 6.54 1.06.6 2.36-.17 3.42-.55a37.16 37.16 0 009.1-4.87 39.77 39.77 0 0013.22-16.12.78.78 0 00-.27-1 7679.5 7679.5 0 01-32.3-19.05 3104 3104 0 01-10.59-6.31c-.84-.52-1.6.8-.76 1.3 12.92 7.78 25.94 15.41 38.95 23.05l3.93 2.3-.27-1a38.4 38.4 0 01-11.56 14.76 36.65 36.65 0 01-10.36 5.73l-.91.3s-1.25.29-.5.4l-.21-.13c-1.16-.57-2.27-1.35-3.37-2.01l-6.85-4.08-38.22-22.72-10.12-6a.77.77 0 00-.92.13c-9.39 10.97-17.61 22.98-25.77 34.89-5.82 8.5-11.3 17.27-17.3 25.66-.13.19-.26.33-.23.31l-.09.1c.37-.11-.3-.22-.53-.23a40.3 40.3 0 01-7.29-1c-5.06-1.27-9.5-3.93-13.7-6.91l.27 1c9.56-18.13 18.14-36.66 28.34-54.4 2.53-4.4 5.14-8.77 8.02-12.96a38.58 38.58 0 018.82-9.69 20.8 20.8 0 0113.61-3.75 71.95 71.95 0 0115.18 2.93 124.86 124.86 0 0131.07 13.34.8.8 0 001.08-.3.79.79 0 00-.3-1.07z" fill="#020202"/><path d="M170.42 319.7a35.77 35.77 0 012.91-12.23 54.05 54.05 0 014.4-9.66 36.38 36.38 0 016.34-7.4c1.58-1.4 4.16-3.7 6.5-3.35.94.14 1.36-1.32.4-1.46a7.66 7.66 0 00-5.2 1.58 29 29 0 00-5.84 5.26 34.41 34.41 0 00-4.77 6.77 81.62 81.62 0 00-3.68 8.85 35.25 35.25 0 00-2.58 11.64c-.03.97 1.49.97 1.52 0zM51.1 307.51c3.6 6.05 9.23 9.93 15.56 12.86a48.97 48.97 0 0020.24 4.84.76.76 0 00.76-.76.75.75 0 00-.76-.75 47.27 47.27 0 01-19.43-4.63c-6.07-2.82-11.54-6.45-15.02-12.32a.78.78 0 00-1.35.76zm142.07-18.07c16.74-1.69 33.65-.6 50.03 3.21.95.23 1.36-1.23.4-1.46a154.05 154.05 0 00-50.43-3.26c-.96.1-.97 1.61 0 1.51z" fill="#fff"/><path d="M179.02 213l-12.53 16.85c-.58.78.74 1.54 1.31.76l12.53-16.86c.59-.77-.73-1.52-1.3-.75z" fill="#020202"/><path d="M137.22 207.73a3.92 3.92 0 00-3.3 2.08 3.7 3.7 0 00.34 3.79 3.57 3.57 0 005.52.28c.47-.55.77-1.23.84-1.95a3.22 3.22 0 00-2.48-3.41.79.79 0 00-.94.53.77.77 0 00.53.93l.37.1c-.1 0 .12.07.16.09l.16.1c.11.08-.12-.11.05 0 .1.08.2.17.28.27.1.11 0 .05 0 0l.1.16.1.18s.06.13 0 0l.09.29c.02.1.02.2 0 .31.01.42-.12.84-.36 1.18-.14.2 0 0 0 .07l-.14.15-.15.14c-.1.08-.2.14-.32.2l-.14.07c.1-.05-.12 0-.12 0a2 2 0 01-.55.11h-.66c-.4-.07-.75-.27-1.01-.57l-.13-.14c-.08-.1.08.14 0-.06l-.16-.26-.08-.16c-.06-.14 0 .15 0-.08 0-.22-.07-.24-.1-.36V211l.11-.4s0-.14 0 0l.1-.2.2-.33.16-.17.14-.13.08-.07c.12-.08.24-.16.37-.22l.13-.08c.2-.1-.11 0 .1 0l.36-.1h.33a.76.76 0 00.54-1.3.76.76 0 00-.53-.22v-.05z" fill="#fff"/><path d="M191.64 145.63c.7 0 1.38 0 2.03.1h.37l.5.08c.34.07.68.16 1 .26a.77.77 0 00.95-.52.77.77 0 00-.54-.93 14.7 14.7 0 00-4.34-.54.76.76 0 00-.76.75.76.76 0 00.76.76l.03.04z" fill="#020202"/></g><rect x="1.09" y=".96" width="503.7" height="336.96" rx="13.26" stroke="#000" stroke-width="1.3"/><path d="M1.63 31.27h501.43" stroke="#000" stroke-width="1.3"/><path d="M19.5 13.4h20.24M19.5 19.36h20.24" stroke="#000" stroke-width="1.3" stroke-linecap="round"/><defs><clipPath id="a"><path fill="#fff" transform="translate(50.46 8.64)" d="M0 0h434.74v329.92H0z"/></clipPath></defs></svg>