<svg width="326" height="200" fill="none" xmlns="http://www.w3.org/2000/svg"><rect x=".5" y=".5" width="325" height="199" rx="11.5" fill="#fff"/><g clip-path="url(#a)"><rect x="28" y="23" width="266.95" height="158" rx="23" fill="#fff"/><path d="M279.56 120.86c.24-7.15.5-14.3.73-21.44.22-6.85.36-13.76-.86-20.54-.52-2.87-1.13-6.03-2.78-8.5a8.13 8.13 0 00-2.99-2.74 13.36 13.36 0 00-4.34-1.24c-3.38-.48-6.81-.7-10.21-.93a324.2 324.2 0 00-10.72-.56c-7.12-.27-14.24-.33-21.37-.33-7.13 0-14.27.08-21.4.1-2.07 0-4.06-.1-5.91 1a9.26 9.26 0 00-3.25 3.5c-1.94 3.43-2.56 7.54-2.95 11.41-.4 4-.44 8.03-.53 12.04l-.52 21.51-.13 5.26c-.01.65 1 .65 1.01 0l.51-21.11c.11-4.7.13-9.43.4-14.13.21-3.97.6-8.04 1.9-11.82 1.02-2.95 2.86-5.97 6.16-6.55 1.24-.22 2.56-.1 3.81-.1l5.22-.02 10.45-.06c7-.03 14-.02 20.98.14 6.99.17 13.97.5 20.93 1.1 1.65.14 3.31.27 4.96.48 1.48.18 3 .46 4.34 1.12 2.54 1.26 3.74 3.82 4.48 6.44 1.82 6.47 2.04 13.28 1.92 19.96-.13 6.96-.44 13.91-.68 20.86l-.18 5.15c-.01.66 1 .65 1.02 0z" fill="#6F4AB3"/><path d="M221.55 66.65c-.5-1.1-3.25-2.66-4.45-2.73-.28-.01-.57 0-.8.15-.37.24-.45.74-.45 1.17a8.24 8.24 0 006.82 8.07" fill="#fff"/><path d="M221.94 66.42c-.5-1.03-1.74-1.74-2.71-2.24-.93-.47-2.58-1.24-3.44-.26-.47.54-.44 1.4-.38 2.06.06.72.21 1.43.46 2.1a9 9 0 002.38 3.58 8.28 8.28 0 004.3 2.1c.57.08.81-.8.24-.89a7.8 7.8 0 01-6.5-7.49c0-.26 0-.64.18-.85.18-.2.53-.17.77-.13.46.08.9.27 1.31.46.9.44 2.14 1.07 2.6 2.02.26.53 1.04.07.79-.46z" fill="#020202"/><path d="M294.98 42.31v-6.46s-1.53-11.96-11.82-11.96H44.94c-7.82 0-16.55 5.09-16.55 14.89v3.53h266.59z" fill="#6F4AB3"/><path d="M97.96 121.94H285c2.53 0 5.06.04 7.59 0h.33c.78 0 .78-1.22 0-1.22H105.87c-2.53 0-5.06-.05-7.58 0h-.33c-.79 0-.79 1.22 0 1.22z" fill="#020202"/><path d="M294.95 160.32V37.88c0-3.1-.88-6.07-2.4-8.74-2.02-3.54-5.26-5.84-9.17-6.06-2.92-.17-5.88-.02-8.81-.02H46.8c-5.65 0-11.31 1.33-15.24 6.07-2.63 3.16-3.57 7.04-3.57 11.2v118.75c0 2.77 0 5.53.55 8.25.94 4.64 3.29 9.03 7.19 11.47 3.53 2.22 7.44 2.18 11.37 2.18h228.8c3.67 0 7.48.24 11.03-.96 7.88-2.66 8-12.3 8.02-19.7 0-.63-.91-.63-.91 0-.01 4.58.1 9.86-1.92 14.04-1.78 3.68-5.32 5.06-8.98 5.47-2.77.32-5.63.18-8.42.18H47.19c-3.95 0-7.89.08-11.39-2.3-4.32-2.94-6.35-8.35-6.79-13.63-.17-2.01-.1-4.05-.1-6.07V40.16c0-4.73 1.47-8.98 4.94-12.04a17.22 17.22 0 0111.4-4.09h229.52c2.86 0 5.76-.14 8.61.02 4.29.25 7.49 3.24 9.24 7.28a16.25 16.25 0 011.42 7.38v121.6c0 .64.9.64.9 0z" fill="#020202"/><path d="M294.95 160.32V37.88c0-3.1-.88-6.07-2.4-8.74-2.02-3.54-5.26-5.84-9.17-6.06-2.92-.17-5.88-.02-8.81-.02H46.8c-5.65 0-11.31 1.33-15.24 6.07-2.63 3.16-3.57 7.04-3.57 11.2v118.75c0 2.77 0 5.53.55 8.25.94 4.64 3.29 9.03 7.19 11.47 3.53 2.22 7.44 2.18 11.37 2.18h228.8c3.67 0 7.48.24 11.03-.96 7.88-2.66 8-12.3 8.02-19.7 0-.63-.91-.63-.91 0-.01 4.58.1 9.86-1.92 14.04-1.78 3.68-5.32 5.06-8.98 5.47-2.77.32-5.63.18-8.42.18H47.19c-3.95 0-7.89.08-11.39-2.3-4.32-2.94-6.35-8.35-6.79-13.63-.17-2.01-.1-4.05-.1-6.07V40.16c0-4.73 1.47-8.98 4.94-12.04a17.22 17.22 0 0111.4-4.09h229.52c2.86 0 5.76-.14 8.61.02 4.29.25 7.49 3.24 9.24 7.28a16.25 16.25 0 011.42 7.38v121.6c0 .64.9.64.9 0z" fill="#fff" fill-opacity=".2"/><path d="M273.14 180.6h-58.9a9.44 9.44 0 01-9.42-9.46v-33.63a9.43 9.43 0 019.41-9.45h58.91c5.2 0 9.41 4.23 9.41 9.45v33.63a9.42 9.42 0 01-9.4 9.45z" fill="#6F4AB3"/><path d="M273.14 180.29H214.4c-2.4 0-4.71-.85-6.46-2.54a9.36 9.36 0 01-2.8-6.83V140.3c0-.92-.01-1.83 0-2.74a9.25 9.25 0 014.2-7.76 9.57 9.57 0 015.26-1.43h57.64c.93 0 1.84 0 2.77.19a9.21 9.21 0 017.05 7.08c.23 1.12.19 2.26.19 3.4v31.21c0 1.66-.15 3.28-.88 4.82a9.2 9.2 0 01-8.23 5.22c-.39 0-.4.61 0 .6a9.81 9.81 0 008.51-5.04 10.9 10.9 0 001.2-5.37v-31.4c0-1.14.04-2.28-.17-3.4a9.82 9.82 0 00-6.46-7.42 11.5 11.5 0 00-3.75-.5h-57.92c-1.94 0-3.81.43-5.47 1.48a9.87 9.87 0 00-4.56 8.28c-.02 2.73 0 5.47 0 8.2v25.2c0 2.5.83 4.91 2.52 6.79a9.8 9.8 0 007.26 3.2h58.84c.4-.01.4-.62 0-.62z" fill="#020202"/><path d="M242.79 156.16a25.2 25.2 0 00.2 8.59s-1.08 2.94-2.67 8.35c-1.23-5.44-4.19-8.42-4.19-8.42a51.3 51.3 0 00-.53-9.52" fill="#fff"/><path d="M242.51 156.08a26.1 26.1 0 00.11 8.26c.02.12.1.26.08.36-.04.36-.27.78-.39 1.11a143.28 143.28 0 00-2.27 7.22h.56a20.22 20.22 0 00-3.06-7.05c-.34-.48-.73-.91-1.09-1.37-.02-.03-.09-.07-.1-.11l-.01-.02c.04.13.1-.16.09-.1.04-.12.01-.36.01-.49a53.47 53.47 0 00-.57-8.8c-.05-.36-.6-.21-.55.16a51.35 51.35 0 01.55 8.25c0 .41-.17 1.07.08 1.41.26.37.6.69.86 1.05.59.8 1.1 1.65 1.55 2.53.76 1.49 1.3 3.07 1.68 4.7.06.28.48.26.56 0 .77-2.64 1.58-5.27 2.49-7.87.05-.15.14-.31.17-.47.03-.19-.03-.37-.07-.56a25.31 25.31 0 01-.13-8.06c.06-.36-.5-.52-.55-.15z" fill="#020202"/><path d="M178.51 179.17h-45.55a9.43 9.43 0 01-9.41-9.45v-24.6a9.43 9.43 0 019.4-9.45h45.56c5.2 0 9.4 4.23 9.4 9.45v24.6c0 5.22-4.2 9.45-9.4 9.45z" fill="#fff"/><path d="M178.51 178.72h-45.54a9.01 9.01 0 01-8.97-9.08V146.3c0-1.01-.02-2.01.19-3a9.1 9.1 0 014.82-6.25c2-1 4.1-.92 6.25-.92h40.7c2 0 3.97-.11 5.87.64a9.04 9.04 0 015.3 5.92c.31 1.12.33 2.24.33 3.38v23.5c0 2.09-.64 4.13-1.96 5.77a9.04 9.04 0 01-6.99 3.38c-.59 0-.59.91 0 .91a9.94 9.94 0 007.39-3.34 10.07 10.07 0 002.48-6.61v-23.53c0-1.14-.01-2.26-.28-3.38a10 10 0 00-9.79-7.56h-45.09c-1.56 0-3.07.28-4.5.95a9.98 9.98 0 00-5.2 6.08 12.69 12.69 0 00-.43 3.74v23.65a10 10 0 009.3 9.98c1.45.08 2.92.01 4.37.01h41.74c.59.01.59-.9 0-.9z" fill="#020202"/><path d="M233.54 142.69c.06 1.1.36 4.2.41 5.3.1 2.09.22 4.25 1.14 6.14.9 1.89 2.82 3.45 4.9 3.28 1.82-.14 3.33-1.57 4.11-3.23.78-1.66.96-3.53 1.12-5.35.13-1.38.49-6.38.61-7.75" fill="#fff"/><path d="M233.25 142.69c.12 2.25.34 4.5.5 6.74.2 2.82.87 5.84 3.39 7.49 1.05.68 2.34.98 3.57.66a5.48 5.48 0 002.99-2.16c1.58-2.16 1.7-5.04 1.9-7.61.17-2.25.32-4.5.52-6.73.03-.37-.54-.37-.57 0-.17 1.81-.3 3.63-.43 5.45-.18 2.3-.2 4.72-1.02 6.9-.91 2.45-3.41 4.59-6.1 3.31-2.7-1.28-3.45-4.4-3.66-7.14-.18-2.3-.39-4.61-.51-6.92-.02-.36-.6-.36-.58.01z" fill="#020202"/><path d="M236.68 146.48c-.1-.03-.17.09-.19.18-.06.26-.1.52-.1.8 0 .15.02.3.1.44.07.13.23.22.38.17.18-.05.25-.27.28-.45.02-.19.04-.37.03-.55a.96.96 0 00-.12-.5c-.1-.13-.27-.23-.43-.18" fill="#020202"/><path d="M236.75 146.2c-.25-.07-.45.12-.53.34-.06.18-.08.38-.1.57-.04.37-.05.83.26 1.09.15.13.38.21.58.14.19-.07.31-.2.38-.38.07-.16.1-.34.1-.51a2.5 2.5 0 000-.56.97.97 0 00-.26-.62.67.67 0 00-.63-.17.29.29 0 00-.2.36c.05.15.2.24.35.2.05-.02-.04 0 .02 0 .05 0-.04-.03.01 0 .05.02-.02-.03.02 0l.03.02c.03.02-.02-.03 0 0l.03.03s-.03-.04 0-.01l.03.07c.02.03 0 0 0 0l.02.05.02.1c0 .03 0 0 0 0v.33a1.6 1.6 0 01-.02.34l-.03.13-.02.04.01-.02-.03.06s.04-.04 0 0c0 0-.03.02 0 0h-.02.04-.05c.05.01 0-.01-.01-.02l-.02-.02c.03.03 0 0 0-.03 0 0-.03-.04-.02-.01v-.04l-.03-.08c0-.03 0 0 0 0v-.24l.01-.24.01-.06.02-.11.05-.21.01-.04v.01l-.01.02c.02-.02 0-.01-.03.01a.15.15 0 01-.14.03c.14.05.32-.05.35-.2a.3.3 0 00-.2-.37zm5.63.47c-.07-.04-.16 0-.22.06-.06.07-.07.15-.1.24-.06.29-.12.6 0 .87.07.18.32.33.46.19a.39.39 0 00.09-.2l.18-.78c.04-.17.07-.36 0-.52-.07-.16-.31-.25-.43-.12" fill="#020202"/><path d="M242.53 146.42a.49.49 0 00-.35-.04.53.53 0 00-.3.24c-.08.15-.11.34-.14.51-.06.37-.06.82.25 1.08.18.14.4.2.61.1.19-.09.25-.28.3-.47l.13-.58c.05-.18.1-.38.1-.58a.68.68 0 00-.34-.56c-.21-.1-.46-.1-.63.08-.1.1-.12.3 0 .4.11.11.29.12.4 0 .01 0 .03-.01 0 0l-.05.03c.05-.02-.05-.01 0 0 .05 0-.06-.03 0 0l-.02-.01.04.02c.02 0 .02.02 0 0-.02-.03 0 0 0 0 .03.05-.02-.04 0 0 0 0 0-.04 0 0l.02.04v.14l-.01.04-.04.18-.1.4-.08.37c0 .02-.02.04 0 0 0 .02-.02.02 0 .02l.03-.03c-.01 0-.03 0 0 0l.06-.02c-.03 0 0 0 0 0 0 .02.03 0 0 0h-.02l.03.02-.05-.04.01.02-.02-.03c-.02 0-.04-.04 0 .01l-.02-.03-.01-.03c.01.03 0 .03 0 0l-.03-.07v-.33l.01-.06.04-.2.02-.08.01-.04c.02-.06-.01.02 0-.01l.03-.03-.04.03h.01c-.06 0-.04.03-.13 0 .14.05.32.04.4-.11.05-.12.03-.32-.12-.4zm-3.1.93a3.97 3.97 0 00.57 2.18l.18.32c.04.08.1.18.1.27 0-.05.02-.1.03-.14l.03-.02-.07.02-.23.05-.45.09c-.16.03-.24.21-.2.35.04.16.2.24.35.2l.57-.11c.16-.03.32-.07.44-.2.26-.3-.04-.76-.2-1.04a3.63 3.63 0 01-.55-1.98c0-.36-.57-.36-.57 0zm-1.49 5.79c.55.3 1.16.5 1.79.52.66 0 1.29-.2 1.9-.4.35-.12.2-.68-.15-.56-.55.18-1.11.38-1.69.38-.55 0-1.08-.18-1.57-.44-.32-.17-.6.33-.28.5z" fill="#020202"/><path d="M244.3 153.24c.7.75 1.8.92 2.82.95 1.24.03 2.57-.12 3.52-.92a3.1 3.1 0 001.04-2.7c.49-.32.97-.65 1.44-.98.2-.13.4-.28.53-.48.15-.28.13-.6.1-.92-.16-1.32-.73-2.76-1.96-3.27.52-1.32.75-2.86.13-4.14-.62-1.28-2.34-2.07-3.54-1.31.24-1.1.47-2.3-.05-3.29a2.45 2.45 0 00-2.12-1.3c-.98 0-1.9.59-2.88.51-.6-.04-1.16-.34-1.73-.54a4.92 4.92 0 00-4.03.27 3.89 3.89 0 00-1.98 3.43 4.4 4.4 0 00-2.04-1.45 3.35 3.35 0 00-3.07.9 6.16 6.16 0 00-1.61 2.89c-.04.13-.08.27-.16.39-.07.11-.18.2-.28.28l-.45.46a5.76 5.76 0 00-1.55 4.31c.17 1.56 1.38 3.04 2.94 3.21-.28.51-.22 1.17.06 1.67.27.51.74.9 1.26 1.16.56.3 1.2.47 1.83.38a2 2 0 001.53-1l-.92-8.09c.16.87 1.23 1.35 2.07 1.08.84-.26 1.4-1.07 1.64-1.93a6.63 6.63 0 006.08.46c-.2.5.23 1.08.74 1.23.52.15 1.08 0 1.6-.14" fill="#020202"/><path d="M244.1 153.44c1.22 1.24 3.47 1.24 5.05.86 1.73-.4 3-1.89 2.82-3.73l-.14.25 1.12-.76c.28-.2.6-.37.82-.63.4-.49.3-1.17.2-1.74-.23-1.23-.84-2.48-2.03-3.01l.13.32c.58-1.53.86-3.5-.22-4.88-.84-1.07-2.38-1.62-3.6-.9l.41.33c.27-1.25.54-2.71-.27-3.82-.74-1-1.93-1.29-3.1-1-.78.18-1.51.5-2.32.3-.75-.17-1.41-.56-2.17-.7a4.98 4.98 0 00-3.74.78 4.18 4.18 0 00-1.75 3.44l.49-.2c-.93-1.05-2.11-1.84-3.56-1.56a4.53 4.53 0 00-3.12 2.62c-.31.65-.4 1.5-.94 2-.54.5-1 1.13-1.35 1.79a5.1 5.1 0 00-.45 4.11 3.78 3.78 0 003 2.53l-.25-.44c-.82 1.73.88 3.3 2.47 3.6.82.16 1.7 0 2.32-.59.25-.23.44-.48.41-.82-.14-1.95-.44-3.89-.66-5.83l-.24-2.09-.56.08c.22.94 1.2 1.48 2.13 1.34 1.11-.16 1.83-1.18 2.13-2.2l-.42.18a6.96 6.96 0 006.3.48l-.35-.35c-.17.55.09 1.1.57 1.41.64.42 1.43.22 2.12.03.35-.1.2-.65-.16-.55-.41.11-.86.25-1.3.16-.42-.08-.82-.43-.68-.9.06-.2-.15-.44-.35-.35-1.91.8-4.09.65-5.86-.43-.16-.1-.37 0-.42.17-.22.75-.7 1.53-1.5 1.74-.69.19-1.49-.17-1.66-.9-.07-.3-.6-.24-.56.09l.46 3.99.31 2.78.1.91c.02.1.08.3.05.4-.02.07-.4.37-.5.43-.18.12-.38.2-.6.26-.56.12-1.16 0-1.68-.24-.92-.43-1.9-1.42-1.37-2.51.1-.21-.03-.4-.25-.44-1.5-.2-2.55-1.64-2.67-3.09-.13-1.7.8-3.3 1.99-4.44.52-.49.57-1.24.86-1.87a4.6 4.6 0 011.51-1.95 2.97 2.97 0 012.34-.53c.82.19 1.45.78 2 1.39.16.19.49.04.48-.2a3.64 3.64 0 012.14-3.34c.7-.33 1.5-.43 2.28-.36.84.07 1.54.44 2.33.69.7.2 1.36.13 2.04-.06.76-.2 1.5-.47 2.27-.17 1.71.67 1.48 2.62 1.16 4.08-.05.24.2.46.42.32 1.06-.62 2.4-.01 3.02.97.78 1.25.45 2.87-.03 4.16-.04.1.02.28.13.33.97.43 1.47 1.38 1.7 2.38.13.53.31 1.23-.16 1.64-.49.43-1.1.76-1.64 1.13-.08.05-.16.14-.15.24.17 1.68-.98 2.89-2.55 3.21-1.35.28-3.3.3-4.34-.74-.26-.27-.67.14-.4.4z" fill="#020202"/><path d="M236.04 145.71c.04-.05-.03.03 0 0l.03-.03.07-.07.04-.04c.02-.02-.05.04 0 0 .02 0 .05-.03.08-.05a.61.61 0 01.09-.04c.05-.02-.04.01 0 0l.04-.02a1.9 1.9 0 01.18-.05h.26-.01.05c.03.02.06.03.1.03l.04.02s.07.02.02 0c-.04-.01.01.01.02.02l.05.02.09.06c.12.09.32.03.4-.1.07-.14.02-.3-.1-.4-.3-.2-.69-.25-1.05-.2a1.4 1.4 0 00-.88.56c-.09.13-.03.33.1.4.14.07.28.02.38-.1zm4.98.34c.54-.5 1.34-.64 2.02-.4.15.06.32-.05.35-.2.05-.15-.05-.3-.2-.34a2.6 2.6 0 00-2.58.54c-.11.1-.1.3 0 .4.11.11.29.1.4 0z" fill="#020202"/><path d="M238.51 168.1l-2.74-3.97a16.6 16.6 0 00-1.85 2.93c-.08.16-.16.33-.16.5-.01.2.07.4.16.58a35.05 35.05 0 011.94 5.72 45.6 45.6 0 012.84-5.75l-.19-.01z" fill="#6F4AB3"/><path d="M238.76 167.96l-2.74-3.97c-.1-.13-.33-.21-.45-.06-.55.7-1.06 1.44-1.5 2.22-.2.37-.45.76-.56 1.17-.09.35.03.66.16.98a37.03 37.03 0 011.91 5.65c.08.3.46.24.56 0a44.8 44.8 0 012.82-5.68c.12-.2-.05-.41-.25-.44l-.2-.02c-.37-.04-.36.54 0 .58l.2.02-.25-.43a47.22 47.22 0 00-2.87 5.8h.55a35.42 35.42 0 00-1.58-4.86c-.16-.37-.38-.75-.47-1.13-.11-.46.27-.97.49-1.35.41-.73.88-1.44 1.4-2.1l-.44-.06c.9 1.33 1.82 2.65 2.73 3.97.2.3.7.01.49-.3z" fill="#020202"/><path d="M238.34 168.4c1.07 2.01 1.4 4.3 1.73 6.53.05.35.53.22.57-.07.26-2.46.82-4.87 1.65-7.2l-.42.17a17.1 17.1 0 013.96 4.26c.14.23.55.16.53-.14-.07-1.33-.15-2.65-.21-3.98-.04-.66-.06-1.32-.11-1.99-.03-.39-.08-.82-.38-1.11-.32-.31-.88-.41-1.29-.55-.4-.13-.9-.4-1.31-.19-.41.2-.54.78-.7 1.16l-.8 1.9c-.14.34.35.63.5.29l.6-1.44c.14-.32.28-.95.51-1.2.35-.4 1.17.08 1.57.22.15.05.35.09.47.19.24.19.24.47.26.74.15 1.98.21 3.98.32 5.97l.53-.15a17.96 17.96 0 00-4.16-4.47c-.16-.12-.37.01-.42.17a32.2 32.2 0 00-1.68 7.35l.57-.08c-.33-2.3-.7-4.6-1.8-6.68-.17-.33-.66-.04-.49.3z" fill="#020202"/><path d="M245.93 167.55c2.83 1.4 5.65 3.11 7.75 5.53a10.07 10.07 0 012.47 7.63l.3-.29-10.28-.1-16.36-.15-3.75-.04.3.29c-.15-2.37-.11-5.06 1.2-7.13a5.6 5.6 0 011.4-1.55c.6-.46 1.3-.76 1.95-1.15a16.8 16.8 0 003.12-2.52c.26-.26-.15-.67-.41-.41a15.84 15.84 0 01-3.62 2.78 7.4 7.4 0 00-3.03 2.7c-1.27 2.14-1.34 4.87-1.2 7.29.02.16.13.28.3.29l10.26.1 16.36.15 3.75.04c.17 0 .28-.14.29-.29.18-2.23-.24-4.45-1.4-6.38a16.56 16.56 0 00-4.76-4.73 32.23 32.23 0 00-4.35-2.55c-.33-.17-.63.33-.3.49z" fill="#020202"/><path d="M206.07 148.77l12.2.13-.27-.22c.07.44.18.74-.17 1.06-.44.42-.75.44-1.33.38-.14-.02-.3.14-.28.29.49 7.54.15 15.1.03 22.64-.04 2.12-.06 4.24-.03 6.36 0 .37.57.37.57 0-.07-7.55.34-15.1.24-22.65-.03-2.12-.1-4.23-.24-6.35l-.29.29c.76.09 1.27-.05 1.82-.62.44-.46.33-.96.23-1.54-.02-.13-.16-.21-.28-.21l-12.2-.13c-.36 0-.36.57 0 .57z" fill="#fff"/><path d="M206.34 157.41c3.09-.13 6.18.06 9.28 0 .36 0 .36-.58 0-.57-3.1.06-6.2-.14-9.28 0-.37.01-.37.59 0 .57zm-.23 10.57c3.26 0 6.5-.3 9.76-.3.37 0 .37-.58 0-.58-3.25 0-6.5.3-9.76.3-.37 0-.37.58 0 .58zm56.19-36.28c.28 10.88-.49 21.98-.2 32.85h18V139s-.58-3.85-3.57-5.43c-2.99-1.57-14.23-1.86-14.23-1.86z" fill="#fff"/><path d="M103.28 178.3H48.06c-5.2 0-9.4-4.22-9.4-9.44V66.38a9.43 9.43 0 019.4-9.44h55.22c5.2 0 9.4 4.23 9.4 9.44v102.47a9.43 9.43 0 01-9.4 9.46z" fill="#020202"/><path d="M103.28 178.13H48.1a9.3 9.3 0 01-6.24-2.39 9.4 9.4 0 01-3.05-6.89V66.44a9.4 9.4 0 011.98-5.79 9.32 9.32 0 017.26-3.54h55.19a9.36 9.36 0 019.26 9.29v102.42a9.37 9.37 0 01-9.23 9.31c-.23 0-.23.35 0 .35a9.71 9.71 0 009.58-9.63V66.38a9.7 9.7 0 00-9.6-9.62H47.72c-2.7.1-5.3 1.37-7.02 3.45-1.64 1.98-2.22 4.35-2.22 6.86v101.28c0 2.99 1.03 5.8 3.32 7.78a9.68 9.68 0 006.28 2.34h55.2c.22 0 .22-.34 0-.34z" fill="#020202"/><path d="M100.79 174.83H45.57c-5.2 0-9.4-4.24-9.4-9.45V62.9a9.43 9.43 0 019.4-9.45h55.22c5.2 0 9.4 4.23 9.4 9.45v102.47a9.43 9.43 0 01-9.4 9.45z" fill="#6F4AB3"/><path d="M100.79 174.22H45.62a8.86 8.86 0 01-5.93-2.27 8.95 8.95 0 01-2.92-6.58V62.96a9 9 0 011.85-5.48 8.9 8.9 0 016.96-3.42h55.18a8.92 8.92 0 018.83 8.86v102.41a8.92 8.92 0 01-8.8 8.89c-.78 0-.78 1.23 0 1.22a10.15 10.15 0 0010.02-10.07V62.9a10.15 10.15 0 00-10.03-10.06H45.23c-2.8.1-5.52 1.41-7.32 3.59a10.85 10.85 0 00-2.36 7.16v101.28c0 3.1 1.08 6.04 3.46 8.1a10.14 10.14 0 006.58 2.46h55.2c.78 0 .78-1.21 0-1.21z" fill="#6F4AB3"/><path d="M58.06 63.6H79.4c.47 0 .69.43.7.64.04.78.06.36.06 1.14a.8.8 0 01-.8.82H58.09c-.63 0-.82-.42-.83-.62-.07-.74 0-.15 0-1.05-.01-.9.8-.94.8-.94zm-2.82 22.37H77.2c.48 0 .95-.11 1.15.43.2.53.14 1.24.15 1.81 0 .48.07 1.05-.18 1.47-.18.3-.35.32-.67.32H55.81c-.22 0-.53.05-.72-.03-.25-.1-.36-.37-.4-.6-.11-.5-.04-1.04-.03-1.55 0-.52-.07-1.2.28-1.62a.8.8 0 01.23-.2c.03-.02.17-.04.07-.03.36-.03.36-.61 0-.58-1.34.12-1.17 2.12-1.2 3.04 0 .61 0 1.4.48 1.85.3.29.67.3 1.06.3H76.5c.6 0 1.45.18 1.96-.2.71-.53.63-1.58.6-2.37-.03-.7.05-1.53-.34-2.15-.45-.7-1.52-.47-2.24-.47H55.24c-.37 0-.37.58 0 .58zm27.91 0h9.31c.46 0 .67.09.8.54.12.41.07.9.1 1.32.02.5.08 1.06-.04 1.54-.16.6-.47.63-1.02.63h-8.02c-.39 0-1.03.12-1.36-.08-.25-.14-.32-.46-.35-.73a6 6 0 01-.02-.89c.03-.59-.07-1.23.13-1.8a.94.94 0 01.34-.47c.06-.04.23-.07.13-.06.36-.03.37-.61 0-.58-.81.08-1.1 1.01-1.15 1.7-.05.76-.16 1.88.09 2.62.19.55.6.85 1.17.86.83.02 1.66 0 2.48 0h6.56c.26 0 .54.04.8-.05.45-.18.7-.67.8-1.13.1-.52.06-1.08.02-1.6-.03-.51.02-1.06-.15-1.54-.23-.68-.64-.86-1.3-.86h-9.32c-.37 0-.37.58 0 .58zm-45.06-9.73h71.13c.66 0 .66-1.01 0-1.01h-28.8l-25.53-.01H38.1c-.65 0-.65 1.02 0 1.02zm8 9.59c-.8-.62-1.9-.02-2.4.7a2.6 2.6 0 00-.19 2.74c.47.81 1.4 1.27 2.32 1.06.46-.1.86-.38 1.14-.75.3-.41.4-.94.39-1.44 0-.56-.11-1.15-.44-1.61-.34-.48-.91-.83-1.51-.76-.27.04-.5.21-.5.51 0 .25.23.55.5.51l.13-.01h.07l.12.03c.15.06.24.14.32.24.18.21.26.57.28.84.03.33.03.69-.1.95a1.12 1.12 0 01-.1.17l-.06.06-.06.07c-.02 0-.08.06-.02.01l-.08.06-.1.06-.07.03c.04-.02.04-.02.01 0l-.21.06h-.34c-.08 0 .11.04-.03 0l-.15-.04c-.01 0-.1-.04-.02 0a1.85 1.85 0 01-.28-.16c-.07-.06.08.07-.03-.04l-.08-.07-.07-.07-.04-.05a2.88 2.88 0 01-.17-.28l-.02-.05a1.56 1.56 0 01-.07-.2l-.03-.19a1.81 1.81 0 01.44-1.28l.08-.07s.12-.1.05-.05a1.9 1.9 0 01.3-.18c-.08.03.05-.01.06-.01l.1-.03c.1-.03-.05-.01.05 0h.07l.09.01c.07.02-.06-.03 0 0l.14.1c.22.16.57.03.7-.19.14-.25.03-.51-.2-.68zm9.14 18.95h11.22c.5 0 .74.77.75 1.14.04 1.38.06.65.06 2.03 0 1.1-.58 1.44-.84 1.44H55.25c-.67 0-.87-.75-.89-1.1-.06-1.3 0-.26 0-1.85 0-1.6.88-1.66.88-1.66z" fill="#fff"/><path d="M55.23 105.07h10.83c.46 0 .66.08.8.54.12.41.08.9.1 1.32.03.5.08 1.06-.04 1.54-.15.6-.47.63-1.02.63h-9.52c-.4 0-1.05.12-1.38-.08-.25-.14-.32-.46-.35-.72a6 6 0 01-.02-.9c.03-.58-.07-1.23.14-1.8a.89.89 0 01.34-.47c.05-.03.22-.07.12-.06.37-.03.37-.6 0-.58-.8.08-1.1 1.01-1.14 1.7-.05.76-.17 1.88.08 2.62.2.55.6.85 1.18.86.86.02 1.74 0 2.6 0h7.95c.26 0 .55.04.8-.05.46-.18.7-.67.8-1.13.1-.52.06-1.08.03-1.6-.03-.5.01-1.05-.15-1.54-.24-.68-.64-.86-1.32-.86H55.23c-.36 0-.36.58 0 .58zm-9.14-.14c-.8-.61-1.9-.02-2.4.7a2.6 2.6 0 00-.19 2.74c.47.82 1.4 1.28 2.32 1.06.46-.1.86-.37 1.14-.75.3-.4.4-.94.39-1.44 0-.55-.11-1.15-.44-1.61-.34-.48-.91-.83-1.51-.75-.27.03-.5.2-.5.5 0 .25.23.55.5.51h.2c-.04-.01.17.04.12.02.15.06.24.14.32.24.18.21.26.57.28.84.03.34.03.69-.1.96l-.05.1-.05.06-.06.06-.06.07c-.02.01-.08.06-.02.02a.57.57 0 01-.08.05l-.1.06-.07.03h.01l-.21.06c-.02 0-.1.02-.02 0a1.39 1.39 0 01-.32 0c-.08 0 .11.04-.03 0l-.15-.04c-.01 0-.1-.03-.02 0a.61.61 0 01-.09-.05c-.06-.04-.13-.07-.19-.12-.07-.05.08.08-.03-.03l-.08-.07a1.12 1.12 0 01-.07-.07l-.04-.05a2.9 2.9 0 01-.17-.28l-.02-.05a1.56 1.56 0 01-.07-.2l-.03-.19a1.81 1.81 0 01.44-1.28.92.92 0 01.08-.07s.12-.1.05-.05a1.78 1.78 0 01.3-.17l.06-.02c.04 0 .06-.02.1-.03.1-.02-.05 0 .05 0h.07c-.06 0 .07.01.09.02.07.01-.06-.04 0 0 .05.03.1.05.14.09.22.16.57.03.7-.19.14-.25.03-.5-.2-.68zm9.14 18.84H68.8c.46 0 .67.08.8.53.13.42.08.9.1 1.33.03.5.09 1.06-.03 1.54-.16.6-.48.62-1.03.62h-12.2c-.4 0-1.08.13-1.42-.07-.25-.15-.33-.46-.35-.73a6 6 0 01-.02-.9c.02-.58-.07-1.23.13-1.79a.97.97 0 01.34-.48c.05-.03.22-.06.12-.05.37-.03.37-.61 0-.58-.8.07-1.1 1-1.14 1.7-.05.76-.17 1.87.08 2.61.2.56.6.85 1.18.87.94.02 1.89 0 2.83 0h10.43c.27 0 .55.04.8-.06.47-.17.72-.66.8-1.12.1-.52.07-1.08.04-1.6-.03-.51.01-1.06-.15-1.55-.24-.68-.65-.85-1.32-.85H55.23c-.36 0-.36.58 0 .58zm16.09-18.99h5.75c.5 0 .74.77.75 1.14.04 1.38.06.65.06 2.03 0 1.1-.58 1.44-.84 1.44h-5.7c-.68 0-.87-.75-.9-1.1-.06-1.3 0-.26 0-1.85 0-1.6.88-1.66.88-1.66z" fill="#fff"/><path d="M71.32 105.07h2.9c.36 0 .36-.57-.01-.57h-.01c-.37 0-.37.57 0 .57h2.73c.29.01.41.15.51.42.15.4.1.83.13 1.25.01.26.03.52.03.79 0 .47.06 1.1-.32 1.44-.28.26-.76.13-1.11.13h-4.03c-.53 0-1.13.14-1.34-.47-.18-.54-.08-1.16-.07-1.72.01-.51-.06-1.16.28-1.6a.8.8 0 01.27-.22s.15-.03.04-.02c.36-.03.36-.6 0-.57-.61.05-.98.66-1.09 1.2-.11.53-.05 1.08-.08 1.62-.02.18-.02.35-.01.53.02.45.03.9.28 1.3.33.53.84.52 1.4.52h4.91c.23 0 .43.02.64-.07.36-.16.59-.52.7-.88.16-.51.12-1.1.1-1.63l-.05-1.16c-.04-.49-.22-1.1-.67-1.34-.3-.16-.7-.1-1.03-.1H74.2c-.37 0-.37.58 0 .58h.01c.37 0 .37-.57 0-.57h-2.9c-.37 0-.37.57 0 .57zm3.03 18.41h20.33c.5 0 .74.76.75 1.14.03 1.37.06.65.06 2.02 0 1.11-.58 1.44-.85 1.44H74.37c-.68 0-.87-.74-.89-1.09-.07-1.3 0-.26 0-1.86 0-1.59.87-1.65.87-1.65z" fill="#fff"/><path d="M74.35 123.77h19.48c.35 0 .86-.12 1.1.18.26.33.21.82.23 1.2.02.5.05 1 .04 1.5 0 .34-.05.78-.32 1.02-.2.18-.47.13-.73.13H75.06c-.48 0-1 .1-1.21-.45-.12-.29-.1-.63-.1-.94-.02-.48 0-.97.02-1.45.02-.35.08-.82.38-1.07.04-.04.1-.07.15-.1.04-.02.15-.03.05-.02.37-.03.37-.61 0-.58-1.28.11-1.12 1.92-1.17 2.79-.05 1.02.02 2.36 1.32 2.39 4.15.08 8.31 0 12.46 0h7.19c.3 0 .6.04.87-.1.65-.34.75-1.15.75-1.81 0-.61-.01-1.24-.06-1.84-.05-.63-.33-1.37-1.03-1.43-.9-.09-1.87 0-2.77 0H74.35c-.37 0-.37.58 0 .58zm-28.26-.14c-.8-.62-1.9-.02-2.4.69a2.6 2.6 0 00-.19 2.75c.47.81 1.4 1.27 2.32 1.06.46-.1.86-.38 1.14-.75.3-.41.4-.94.39-1.45 0-.55-.11-1.15-.44-1.6-.34-.48-.91-.83-1.51-.76-.27.04-.5.2-.5.51 0 .25.23.55.5.5h.2l.12.03c.15.06.24.13.32.23.18.22.26.58.28.85.03.33.03.68-.1.95l-.05.1-.05.07-.06.06-.06.07c-.02 0-.08.06-.02.01l-.08.05-.1.06-.07.04c.04-.02.04-.02.01 0l-.21.05c-.02 0-.1.02-.02 0a1.39 1.39 0 01-.32 0c-.08 0 .11.04-.03 0-.05 0-.1-.02-.15-.04-.01 0-.1-.03-.02 0a.61.61 0 01-.09-.05l-.19-.11-.03-.03-.08-.07a1.12 1.12 0 01-.07-.07s-.1-.13-.04-.06a2.9 2.9 0 01-.17-.28l-.02-.04a1.56 1.56 0 01-.07-.2c-.02-.1-.03-.13-.03-.2a1.82 1.82 0 01.44-1.27.92.92 0 01.08-.07s.12-.1.05-.05a1.78 1.78 0 01.3-.18l.06-.02.1-.02c.1-.03-.05-.01.05 0h.07l.09.01c.07.02-.06-.04 0 0l.14.1c.22.16.57.02.7-.2.14-.24.03-.5-.2-.67zM56.75 38.4a4.57 4.57 0 10-.02-9.15 4.57 4.57 0 00.02 9.14zm22.59-4.59a4.18 4.18 0 01-2.7 3.88 4.14 4.14 0 01-4.6-1.27 4.14 4.14 0 013.94-6.67 4.17 4.17 0 013.36 4.06c.01.6.92.6.92 0a5.11 5.11 0 00-3.27-4.72 5.03 5.03 0 10-.82 9.68 5.09 5.09 0 004.09-4.95c0-.6-.9-.6-.92 0z" fill="#fff"/><path d="M93.72 38.4a4.57 4.57 0 10-.02-9.15 4.57 4.57 0 00.02 9.14z" fill="#020202" stroke="#020202" stroke-width=".24" stroke-miterlimit="10"/><path d="M47.85 60.68c-.13 0-.07-.12-.02.08.03.11.1.22.17.33l.37.76c.23.46.42 1.08.76 1.46.3.35.87.32 1.3.38l1.66.24a6 6 0 00.3.05l-.08-.37-.09.09c-.17.04-.5.48-.63.62-.44.43-.93.84-1.33 1.3-.33.38-.22.76-.13 1.22l.3 1.76c.02.09.02.31.06.37l.02.1.17-.25c-.03-.1-.67-.35-.76-.4-.52-.27-1.05-.6-1.59-.84-.44-.18-.73-.03-1.13.18l-1.6.85c-.05.03-.42.19-.42.22l.1.1c.1.14.14.1.13-.1.1-.21.08-.53.12-.76.1-.58.26-1.18.3-1.77.04-.51-.28-.75-.62-1.09l-1.3-1.26c-.08-.08-.17-.23-.27-.27-.13-.15-.17-.06-.13.3l.28-.05.96-.14c.53-.07 1.27-.05 1.76-.29.46-.22.66-.97.87-1.4l.42-.84c.08-.17.2-.59.37-.67.7-.33.1-1.38-.61-1.05-.51.24-.7.88-.93 1.35l-.42.84c-.06.14-.22.36-.24.5-.14.17-.12.22.07.15l-.19.03-2.09.3c-.55.08-1.13.14-1.31.77-.2.68.38 1.11.81 1.53l.68.67.41.4c.02.01.37.41.28.16.04.1-.08.45-.1.57l-.1.56-.16.94c-.1.53-.27 1.14.2 1.55.56.48 1.13.13 1.66-.15l.85-.45.5-.27c.12-.06.38-.24.5-.26-.23.03.17.13.25.17l.5.27.84.44c.53.28 1.12.71 1.72.34.49-.3.47-.81.38-1.3l-.35-2.05-.03-.18c-.03-.22-.04-.25-.03-.08.07-.12.25-.24.36-.34l.77-.75c.4-.39 1.03-.81 1.1-1.4.07-.78-.64-1.03-1.26-1.12-.74-.1-1.47-.2-2.2-.32l-.17-.02c.14.06.18.04.1-.06 0-.15-.22-.46-.29-.59l-.5-1c-.3-.62-.51-1.28-1.3-1.28-.8 0-.8 1.22-.02 1.22zm203.6 6.79c.25-1.2 2.6-3.3 3.76-3.64.26-.07.55-.13.81-.02.4.15.6.62.7 1.04.91 3.75-1.32 8-4.91 9.37" fill="#fff"/><path d="M251.9 67.59c.2-.9 1.08-1.68 1.75-2.25.39-.33.8-.64 1.24-.88.17-.09.33-.16.52-.2.43-.11.65.05.79.45.78 2.2-.04 4.9-1.4 6.67a7.32 7.32 0 01-3.12 2.4c-.55.2-.3 1.09.24.87a8.73 8.73 0 005.28-6.38c.26-1.29.34-2.95-.27-4.16-.72-1.43-2.33-.64-3.27.06-1.02.76-2.34 1.87-2.65 3.17-.13.58.74.82.88.25z" fill="#020202"/><path d="M252.41 66.66c-.13 3.51-1.12 6.95-1.77 10.41-.53 2.83-2.6 9.91-8.7 13.04-1.28.65-4.27 1.11-5.7 1.06a7.62 7.62 0 01-3.16-.97 20.83 20.83 0 01-11.02-16.1c0 .01-3.32-16.61-2.8-17.8.53-1.2 28.18-10.97 29.1-10.31.92.66 4.16 17.94 4.05 20.67z" fill="#fff"/><path d="M251.96 66.66a37.7 37.7 0 01-.92 6.25c-.33 1.6-.63 3.2-1 4.78a21.98 21.98 0 01-2.49 6.31 16.45 16.45 0 01-2.57 3.33c-1.02 1-2.25 1.99-3.59 2.52-1.32.52-2.81.74-4.22.84-1.74.11-3.23-.5-4.72-1.36a20.19 20.19 0 01-6.98-6.8 20.37 20.37 0 01-2.07-4.4c-.46-1.38-.67-2.75-.9-4.16-.5-3.05-1.18-6.07-1.71-9.12-.35-1.98-.7-3.97-.95-5.97a21.2 21.2 0 01-.18-1.97v-.28l.01-.13s.04.05 0 0l.03-.07a.72.72 0 00-.08.14c0-.03.13-.11.06-.06a.68.68 0 01.1-.07l.2-.13.55-.28c.52-.25 1.05-.49 1.59-.72a124.6 124.6 0 014.75-1.9 321.89 321.89 0 0117.47-6.05c1.13-.34 2.27-.7 3.43-.91a4.54 4.54 0 01.34-.05c.04 0 .1.01.14 0-.07.02-.09-.04-.2-.1.06.03-.03-.07.03.05a2 2 0 01.1.22l.1.23.13.41c.53 1.7.9 3.46 1.27 5.2.88 4.18 1.73 8.43 2.18 12.69.06.52.12 1.04.1 1.56-.02.59.89.59.91 0 .05-1.48-.26-3-.48-4.46a167.95 167.95 0 00-2.62-13.49c-.18-.7-.36-1.4-.6-2.09-.11-.34-.25-.84-.6-1.03-.27-.16-.65-.07-.94-.02-.48.08-.96.2-1.44.33-1.57.41-3.12.9-4.66 1.4a309.58 309.58 0 00-18.12 6.5c-1.23.5-2.47 1-3.65 1.6-.26.14-.57.3-.77.52-.27.3-.24.75-.23 1.14.07 1.7.39 3.42.66 5.11.62 3.84 1.34 7.67 2.1 11.48.08.44.14.88.2 1.33a21.65 21.65 0 007.16 12.93 20.15 20.15 0 004.13 2.76c.84.42 1.72.77 2.65.9.7.1 1.4.05 2.1-.02a13.6 13.6 0 004.28-1 13.3 13.3 0 003.68-2.67 19.47 19.47 0 004.31-7c.97-2.57 1.39-5.33 1.95-8.01.43-2.05.8-4.12.9-6.22.02-.58-.9-.58-.92 0z" fill="#020202"/><path d="M236.3 66.9c-.01.86-.02 1.74-.24 2.58-.24.9-.82 1.48-1.32 2.23-.45.68-.67 1.63-.22 2.37.47.76 1.37.9 2.18.96.78.06.77-1.16 0-1.22-.48-.03-1.25-.08-1.21-.72.04-.7.7-1.26 1.07-1.8.88-1.28.93-2.9.95-4.4 0-.8-1.2-.8-1.21 0zm5.02-1.89c.15-.39.62-.66 1-.55.21-.11.47.19.56.45.25.7.42 1.47.2 2.18a.87.87 0 01-.34.5c-.27.16-.66.04-.88-.2a2.22 2.22 0 01-.43-.88c-.15-.48-.3-1.02-.11-1.5z" fill="#020202"/><path d="M241.9 65.17c-.05.11 0 .04.03-.02s-.03.04-.03.04l.05-.06.05-.05c.06-.05-.1.06-.02.02.02 0 .04-.02.05-.03l.04-.02c.05-.02.05-.02 0 0-.1 0 .09 0 .09-.02 0 .02-.13 0-.06 0h.06-.05l.12.02.26-.02h-.13c-.02 0-.17-.06-.1-.02.05.03-.05-.04-.04-.04.01 0 .04.07.06.06 0 0-.06-.1-.03-.04.02.04.08.1.07.14 0 0-.04-.13-.02-.04l.05.13c.08.26.15.52.2.78.02.12 0 .03 0 .01v.09l.02.2v.3l-.1.37c-.02.08.02-.03.02-.03l-.05.08c0 .01-.04.08 0 .02.05-.07-.03.03-.04.04l.03-.03.02-.01c-.07.02.06-.01.06 0-.01 0-.08-.02-.09 0 0-.02.12.02.05 0l-.06-.02c-.13-.03.02 0 .02.02l-.08-.05c-.11-.06.02.01.01.02l-.05-.05-.03-.03a3.01 3.01 0 01-.1-.17l-.03-.07c.05.1 0 0-.01-.03-.1-.27-.18-.55-.25-.83l-.02-.08-.01-.08v-.03l-.01-.14v-.08s.02-.16 0-.07c0 .07 0-.02.01-.03 0-.05.02-.1.04-.16.1-.3-.12-.68-.43-.75a.62.62 0 00-.75.43c-.21.62-.04 1.29.15 1.9.2.64.52 1.26 1.2 1.47.32.1.7.06 1-.12.3-.2.48-.51.59-.85a3.6 3.6 0 00-.04-1.98 2.64 2.64 0 00-.37-.94c-.25-.33-.68-.65-1.1-.47h.32a1.43 1.43 0 00-1.05.15c-.33.2-.55.49-.7.84-.11.3.14.68.43.75.36.08.62-.11.75-.43zm-13.08.36c.15-.4.63-.67 1-.56.22-.11.48.19.57.45.24.7.42 1.47.2 2.18a.87.87 0 01-.34.5c-.28.17-.66.04-.88-.2a2.21 2.21 0 01-.43-.87c-.15-.5-.3-1.03-.12-1.5z" fill="#020202"/><path d="M229.4 65.68c-.04.11 0 .04.03-.02l-.03.04.06-.06.05-.04c.05-.06-.1.05-.02.02l.05-.04c.01 0 .02 0 .03-.02.05-.02.05-.02 0 0-.1 0 .1.01.1-.02 0 .02-.13 0-.07.01h.06-.04l.12.01c.05.01.26-.01.26-.01.03-.02.02-.02-.04 0h-.09c-.02 0-.17-.07-.1-.03.05.03-.06-.03-.05-.04.02 0 .05.07.06.06 0 0-.06-.1-.03-.03.02.03.08.1.08.13 0 0-.04-.13-.02-.04l.04.13c.09.26.15.52.2.78.02.13 0 .04 0 .01l.01.09.02.2v.28c-.02.18 0-.06 0 .03l-.1.37c-.02.08.02-.03.02-.03l-.05.08c0 .02-.05.08 0 .02.05-.07-.03.03-.05.04 0 0 .09-.07.03-.03-.07.05.1-.04.03-.01-.07.02.05 0 .05 0h-.08c0-.01.11.02.05 0l-.06-.01c-.13-.04.02 0 .02 0l-.09-.04c-.1-.06.03.01.02.02l-.05-.04-.03-.04a3.13 3.13 0 01-.1-.17l-.04-.07c.06.1 0 0 0-.03a5.7 5.7 0 01-.25-.83l-.02-.08-.01-.08v-.03l-.01-.13v-.09s.02-.15 0-.07v-.03l.04-.16c.11-.3-.12-.67-.42-.75a.62.62 0 00-.75.43c-.22.63-.05 1.3.14 1.9.2.64.53 1.26 1.2 1.47.33.1.71.07 1-.12.3-.2.49-.51.6-.85a3.6 3.6 0 00-.04-1.98c-.09-.32-.17-.67-.37-.94-.25-.33-.68-.64-1.1-.46h.32c-.36-.1-.73-.03-1.05.15a1.6 1.6 0 00-.7.83c-.12.3.14.68.43.75.35.08.62-.1.75-.43zm17.32 20.14a53.33 53.33 0 00-.92 13.31c.03.59.94.6.91 0-.22-4.36.02-8.78.9-13.07.1-.57-.77-.81-.89-.24zm-19.55.48a61.38 61.38 0 01-.91 9.43c-.1.58.77.82.88.25.59-3.2.85-6.43.94-9.68.01-.59-.9-.59-.91 0z" fill="#020202"/><path d="M257.32 51.38c.02-2.67-.28-5.47-1.77-7.68-2.05-3.03-5.84-4.26-9.41-5a65.01 65.01 0 00-19.2-1.04c-1.4.14-2.84.32-4.1.98-2.19 1.14-3.46 3.5-4.28 5.84a28.01 28.01 0 00.27 19.2l1.15 1.36a61.93 61.93 0 004.35-11.68c5.26 3.51 11.86 4.68 18.07 5.8 4.17.76 5.53.75 8.7-2.1-.28 3.6 1.53 7.19 1.26 10.78 2.36-5.15 4.93-10.79 4.96-16.46z" fill="#020202"/><path d="M257.93 51.38c.01-2.42-.22-4.93-1.34-7.11a10.15 10.15 0 00-4.73-4.38 26 26 0 00-6.51-1.96 66.72 66.72 0 00-16.66-1.02c-2.46.17-5.14.29-7.18 1.87-1.76 1.38-2.8 3.46-3.54 5.54a28.53 28.53 0 00-.2 18.17c.17.54.32 1.2.66 1.66.35.46.76.88 1.13 1.32.25.28.8.21.96-.12a69.69 69.69 0 004.4-11.83l-.88.37c3.57 2.37 7.7 3.69 11.85 4.62 2.11.48 4.24.86 6.37 1.25 1.57.28 3.2.6 4.79.34 1.76-.28 3.2-1.44 4.48-2.6l-1.03-.43c-.25 3.67 1.5 7.12 1.26 10.77-.04.59.88.86 1.14.31 2.41-5.3 4.97-10.83 5.03-16.77.01-.79-1.2-.79-1.21 0-.06 5.71-2.55 11.06-4.89 16.15l1.14.31c.25-3.66-1.51-7.12-1.26-10.77.03-.56-.68-.76-1.04-.43-1.08.96-2.25 1.93-3.7 2.23-1.4.3-2.93-.03-4.32-.28-4-.72-8.02-1.43-11.86-2.77a27.64 27.64 0 01-6.15-2.99c-.33-.22-.79 0-.9.37a68.14 68.14 0 01-4.27 11.53l.95-.12-.96-1.13-.18-.2c.04.05.08.21.02-.1-.02-.1-.09-.23-.13-.33-.2-.6-.4-1.2-.56-1.8a27.44 27.44 0 01-.1-14.34c.56-2.06 1.3-4.24 2.68-5.9a6.23 6.23 0 012.47-1.87c1.1-.44 2.31-.57 3.49-.68a65.53 65.53 0 0115.58.46c2.28.34 4.58.76 6.76 1.5 2.1.72 4.21 1.85 5.5 3.73 1.5 2.16 1.75 4.87 1.74 7.43-.02.78 1.2.79 1.2 0zm-40.42 15.56a5.61 5.61 0 012.86 2.97c.1.23.43.28.63.17.23-.14.25-.4.16-.63a6.45 6.45 0 00-3.2-3.3c-.22-.1-.48-.06-.62.16-.1.2-.05.53.17.63zm37.71-1.64a6.04 6.04 0 00-1.55 2.32c-.15.4-.23.8-.31 1.22-.07.32-.14.74-.41.94-.2.15-.3.4-.16.63.1.2.42.3.62.16.79-.57.77-1.51 1.03-2.36a5 5 0 011.43-2.26c.43-.4-.21-1.05-.65-.65zm-11.41 12.8c-3.8 1.6-8.9 2.87-12.18-.49-.45-.46-1.12.02-1.01.6.4 2.06 1.44 4.32 3.08 5.67a4.96 4.96 0 004.58 1.03c1.66-.51 3.03-1.78 4.15-3.07.76-.88 1.48-1.83 2.06-2.84.4-.68-.66-1.3-1.05-.62-1.14 1.97-2.8 4.08-4.86 5.1-1.3.65-2.76.48-3.92-.37a7.33 7.33 0 01-2.2-3.08c-.3-.68-.54-1.42-.68-2.15l-1.02.6a8.84 8.84 0 006 2.48c2.56.11 5.05-.7 7.37-1.68.3-.13.51-.4.42-.75-.07-.29-.44-.56-.74-.43z" fill="#020202"/><path d="M241.03 82.4c-2.1.93-5.7.78-7.67-.1 0 0 1.43 2.16 3.32 2.16 1.9 0 4.35-2.06 4.35-2.06z" fill="#020202"/><path d="M240.73 81.87a8.7 8.7 0 01-3.58.55 9.22 9.22 0 01-3.47-.65c-.5-.22-1.21.27-.83.83.88 1.32 2.4 2.59 4.06 2.46 1.68-.12 3.3-1.18 4.56-2.23.25-.21.21-.65 0-.86-.25-.25-.61-.21-.86 0l-.09.07c-.02.02-.16.12-.03.03l-.13.1c-.3.2-.6.42-.9.6-.74.48-1.6.96-2.48 1.06-.82.1-1.57-.3-2.17-.83a6.3 6.3 0 01-.71-.75l-.12-.14c.1.12 0 0-.01-.02l-.07-.1-.84.83c1.29.56 2.7.78 4.1.82a9.92 9.92 0 004.19-.72c.3-.13.37-.57.22-.83-.2-.31-.54-.35-.84-.22z" fill="#020202"/><path d="M154.69 138.9a9.53 9.53 0 00-6.87 1.51 7.92 7.92 0 00-3.4 6.09c-.02 1.03.16 2.13-.31 3.05-.46.9-1.42 1.41-2.23 2.02a6.4 6.4 0 00-2.58 4.15 4.51 4.51 0 001.88 4.36c1.24.78 2.79.78 4.25.76.04 1.05 1.3 1.7 2.31 1.48 1.02-.21 2.47-1.42 3.12-2.24l-1.26-3.76c-.19-1.8.28-4.06.35-5.86l-.16-1.07a8.28 8.28 0 006.06-7.7c.15 1.88.71 3.81 2.1 5.07.56.5 1.22.86 1.86 1.26a20.5 20.5 0 012.44 1.78l-.68.35c-.27 2.53-.8 5.02-1.6 7.44l-.58 2.45a5.76 5.76 0 002.86 2.7c1.24.5 2.75.37 3.8-.46 1.04-.84 1.47-2.43.84-3.61-.1-.18-.22-.37-.2-.59.05-.4.55-.52.95-.56a7.1 7.1 0 003.13-1.02 3.76 3.76 0 001.74-2.71 3.95 3.95 0 00-1-2.8 9.82 9.82 0 00-2.34-1.92c-.44-.28-.9-.57-1.13-1.05-.38-.83.14-1.81 0-2.72a3.17 3.17 0 00-.69-1.4 15.92 15.92 0 00-5.54-4.36c-1.88-.97-4.14-1.73-6.05-.84" fill="#6F4AB3"/><path d="M148.95 166.77c.93 1.76 2.58 3.83 4.82 3.06 1.82-.63 3.05-2.52 3.8-4.2l-.42.11c1.49.7 3.1 1.1 4.76 1.11 1.61 0 3.12-.57 4.71-.66a3.2 3.2 0 012.28.66c.56.47.93 1.11 1.23 1.77.66 1.47 1 3.13 1.35 4.7a33 33 0 01.76 5.68c.02.39.63.39.61 0-.09-1.71-.29-3.4-.63-5.08a32.87 32.87 0 00-1.3-4.94c-.5-1.33-1.26-2.68-2.66-3.19-1.48-.53-3.08.03-4.55.3-2.12.37-4.3.03-6.26-.88-.13-.06-.34-.05-.41.11-.66 1.49-1.69 3.18-3.24 3.84-2.03.87-3.5-1.12-4.33-2.7-.17-.35-.7-.04-.52.3z" fill="#020202"/><path d="M149.13 166.32c-1.46.37-2.88.88-4.31 1.36-.94.32-1.9.72-2.88.86-.68.1-1.34.04-2.01.04-1.32.01-2.25.97-2.9 2.06a10.33 10.33 0 00-1.2 3.99c-.21 1.5-.4 3.07-.24 4.59.04.38.65.38.6 0-.13-1.24 0-2.51.14-3.74.14-1.32.32-2.69.88-3.9a5.4 5.4 0 011.4-1.9c.48-.4.91-.5 1.53-.48.63.01 1.25.03 1.87-.05.9-.13 1.76-.47 2.62-.75 1.54-.53 3.08-1.08 4.66-1.48.38-.11.22-.7-.16-.6zm.16-15.57c-.16 3.72-.7 8.73 3.07 10.99a4.64 4.64 0 004.75.17c1.46-.89 2.22-2.54 2.76-4.1a34.27 34.27 0 001.64-7.37c.04-.39-.57-.39-.61 0a34.16 34.16 0 01-1.19 5.87c-.46 1.57-.99 3.31-2.18 4.5a3.87 3.87 0 01-4.53.59 5.96 5.96 0 01-2.91-3.99c-.57-2.17-.29-4.45-.2-6.66.02-.4-.59-.4-.6 0z" fill="#020202"/><path d="M157.37 157.24l-5.06-.23c-.22-.01-.4.27-.26.46.27.38.5.8.81 1.15.46.52 1.1.92 1.81.96a3.4 3.4 0 003.1-1.6c.24-.38.01-.7-.4-.74-.39-.04-.38.57 0 .6-.03-.2-.08-.25-.13-.18 0 0 0 .02-.02.03l-.03.05-.11.16a2.7 2.7 0 01-1.72 1.02 2.06 2.06 0 01-1.93-.6c-.34-.34-.58-.77-.86-1.17l-.26.46 5.06.23c.4.03.4-.59 0-.6zm-2.35-5.7c.09.32.08.65-.04.96-.1.32-.34.53-.54.79-.21.27-.35.58-.25.93.08.3.34.58.68.55.15-.02.29-.13.29-.3 0-.14-.14-.3-.29-.28h-.06c.03 0 0 0-.01-.01l-.04-.07a.32.32 0 01-.02-.22c.09-.26.34-.46.5-.68.4-.51.5-1.2.33-1.82-.1-.36-.64-.21-.55.15zm2.89-.16c-.3.2-.32.63-.3 1 .01.15.04.33.18.4.21.09.4-.2.46-.42.06-.2.12-.43.06-.64-.06-.2-.29-.38-.48-.3" fill="#020202"/><path d="M157.76 151.13c-.28.19-.4.49-.43.82a1.7 1.7 0 00-.01.39c0 .16.02.33.1.47.1.17.28.28.47.27.2 0 .35-.13.46-.28.09-.12.14-.27.18-.41.06-.18.1-.38.09-.56a.78.78 0 00-.27-.54c-.16-.14-.39-.22-.6-.14-.14.05-.25.2-.2.35.04.14.2.26.35.2l.04-.01c.04-.02 0 .02-.03 0h.03c.04 0-.05-.02-.02 0h.04l-.03-.01.03.02c.02 0 .04.04.02 0-.02-.02 0 0 0 .02.02 0 .02 0 .03.02.04.04-.01-.02-.01-.02l.02.04.02.03-.01-.03.01.05s.01.07 0 0v.24c-.02.03-.02.07-.03.1l-.05.17-.01.04.01-.03-.04.08-.04.06c-.03.05.01-.02.02-.01l-.03.03-.02.02c.03-.03 0 0 0 0-.04.02.06-.02 0 0l.04-.01c-.01 0-.03 0 0 0 .06 0 .02 0 0 0-.02-.01.06.03.03 0-.02-.01.02.03.02.03l-.02-.03.02.02c-.04-.04 0 .04 0 .01l-.02-.06v-.04.02-.48c0-.06 0 .04 0 0l.01-.07.05-.16-.01.02.02-.03.04-.07-.01.01.02-.02.03-.03s-.05.04 0 0c.13-.08.2-.25.1-.4-.1-.12-.27-.18-.4-.1zm-5.44-.1c-.31.2-.32.64-.3 1 0 .16.03.34.17.4.22.1.4-.19.46-.41.06-.21.12-.43.07-.64-.06-.2-.3-.38-.49-.3" fill="#020202"/><path d="M152.17 150.79c-.28.19-.4.48-.44.82v.39c0 .16.02.33.1.47.1.17.27.28.47.27.2 0 .34-.13.45-.28.1-.13.15-.27.19-.41.05-.18.1-.38.08-.56a.78.78 0 00-.26-.55c-.17-.13-.4-.21-.6-.13-.15.05-.26.2-.2.35.04.14.2.26.35.2l.03-.01c.04-.02 0 .02-.02 0h.03c.03 0-.06-.02-.03 0h.04c.03 0-.02 0-.02-.01l.03.01c.01.01.04.05.01.02-.02-.03 0 0 .01 0l.02.03c.04.04 0-.02 0-.02l.02.04.01.03v-.03.05s.02.07 0 0a.4.4 0 010 .19v.05l-.03.1-.05.17v.04c-.02.03 0-.03 0-.03l-.04.08-.03.06c-.03.05 0-.02.01-.01l-.03.02-.02.03c.03-.03 0 0 0 0-.03.02.06-.02.01-.01h.04c-.02 0-.04 0 0 0 .05 0 .01 0 0 0-.03-.02.06.03.02 0l.03.03-.03-.03.02.02c-.03-.04.01.04 0 0l-.01-.06-.01-.03v.02-.49.01l.02-.08.04-.15c0 .01-.03.06 0 .02l.01-.04.05-.06-.01.01.02-.02.03-.03s-.06.04 0 0c.12-.08.19-.25.1-.4-.1-.11-.28-.18-.41-.1zm-2.67-.83a8.58 8.58 0 006.27-7.97h-.58c.15 1.68.57 3.39 1.66 4.7a7.9 7.9 0 002.07 1.64c.97.6 1.89 1.24 2.75 1.96.29.24.69-.17.4-.4-.73-.63-1.51-1.2-2.33-1.73-.75-.47-1.55-.89-2.18-1.53-1.2-1.22-1.65-2.98-1.8-4.64-.03-.37-.57-.38-.57 0a8 8 0 01-5.85 7.41c-.34.1-.19.66.17.56z" fill="#020202"/><path d="M154.41 138.92a9.9 9.9 0 00-7.03 1.48 8.3 8.3 0 00-3.54 5.62c-.17 1.22.22 2.7-.42 3.81-.6 1.03-1.86 1.53-2.7 2.33-1.62 1.5-2.57 3.8-1.9 5.99a4.45 4.45 0 002.14 2.66c1.26.65 2.72.65 4.1.63l-.3-.3c.13 1.33 1.58 2.07 2.8 1.75a7.19 7.19 0 003.36-2.4c.24-.3-.18-.74-.43-.44a7.9 7.9 0 01-2.52 2.02c-.88.45-2.48.34-2.6-.93-.01-.16-.12-.31-.3-.3-1.14 0-2.34.03-3.42-.38a3.77 3.77 0 01-2.19-2.33c-.75-2.16.3-4.4 1.98-5.8.76-.64 1.7-1.09 2.32-1.91.66-.88.63-1.96.62-3.01a7.66 7.66 0 012.56-5.9 9.07 9.07 0 017.31-2c.38.05.55-.54.16-.6zm4.35 21.56a6.03 6.03 0 003.19 2.9c1.34.47 2.97.28 4.05-.69.94-.83 1.4-2.29.96-3.5l-.17-.38c-.13-.31-.15-.53.2-.64.36-.1.77-.11 1.15-.18a6.7 6.7 0 002.35-.88c1.19-.76 2.08-2.08 1.97-3.53-.12-1.63-1.26-2.88-2.5-3.8-.64-.47-1.75-.9-2.04-1.69-.28-.78.18-1.68.07-2.5a3.94 3.94 0 00-.99-1.88 12.63 12.63 0 00-1.7-1.74 19 19 0 00-4.79-2.92c-1.68-.71-3.53-1.08-5.26-.32-.36.16-.05.69.3.53 1.52-.67 3.22-.28 4.69.34a19.1 19.1 0 013.89 2.22c.63.47 1.24.99 1.78 1.56.5.52 1.03 1.1 1.33 1.77.33.73.05 1.48 0 2.24a2 2 0 00.66 1.69c.5.45 1.13.77 1.67 1.16.64.47 1.24 1 1.67 1.68.9 1.4.76 3.03-.45 4.18-.57.55-1.3.9-2.05 1.12-.67.2-1.4.17-2.04.4-.47.17-.78.55-.64 1.06.08.28.27.52.35.8.1.34.13.69.08 1.03-.22 1.69-1.81 2.62-3.4 2.49-1.7-.13-3.02-1.4-3.8-2.83-.19-.34-.72-.03-.53.31z" fill="#020202"/><path d="M150.55 160.08c.12 1.08.2 2.18.09 3.27-.11 1.06-.43 2.3-1.5 2.76-.35.15-.05.68.3.53 1.18-.5 1.62-1.82 1.77-3 .16-1.18.08-2.38-.05-3.56-.05-.39-.65-.4-.6 0zm6.25 1.72a10.8 10.8 0 00-.4 2.16c-.04.74.06 1.6.67 2.1.13.1.3.12.43 0 .1-.1.12-.33 0-.43-.52-.42-.54-1.15-.5-1.77.06-.64.22-1.27.38-1.89.11-.38-.48-.54-.58-.16zm9.75 12.94v4.32c0 .4.6.4.6 0v-4.32c0-.4-.6-.4-.6 0zm-24.02.88v3.23c0 .4.61.4.61 0v-3.23c0-.4-.6-.4-.6 0z" fill="#020202"/><path d="M175.46 162.96l.05-.04c.11-.1.17-.2.13-.35-.07-.35-.49-.48-.72-.18-.15.18-.11.42-.1.65l.1 1.2a172.02 172.02 0 01.4 14.32c0 .4.6.4.6 0a173.73 173.73 0 00-.25-11.9l-.12-2.01-.07-.91-.03-.5-.02-.2c.04-.24-.08-.34-.37-.3l.14-.35-.05.04c-.3.23 0 .76.3.53zm.68-.86c2.88.12 5.76.14 8.64.06.39-.01.4-.62 0-.6-2.88.07-5.76.05-8.64-.06-.39-.02-.39.59 0 .6z" fill="#6F4AB3"/><path d="M179.92 151.31c.08.83-.17 1.63-.35 2.43l-.58 2.5-1.16 4.99c-.09.38.5.54.6.16l1.19-5.18.58-2.5c.18-.79.41-1.58.33-2.4-.04-.38-.65-.39-.61 0zm2.28.01c-1.03 3.29-2 6.59-2.92 9.9-.1.38.48.55.59.17.92-3.32 1.9-6.62 2.92-9.9.11-.38-.47-.55-.6-.17zm1.88.44a47.5 47.5 0 00-2.84 9.27c-.08.38.5.55.59.16a46.72 46.72 0 012.78-9.12c.15-.36-.38-.67-.53-.3z" fill="#6F4AB3"/><path d="M180.43 151c2.1.39 4.24.56 6.38.52.4 0 .4-.62 0-.6-2.08.03-4.17-.13-6.22-.5-.38-.07-.55.52-.16.59zm-56.13 11.87c2.95-.12 5.9-.13 8.86-.04l1.1.04c.23 0 .89-.06 1.03.1.16.16.07.81.09 1.05l.04 1.09.18 4.48c.02.39.63.4.61 0l-.2-4.98-.05-1.2c0-.24.02-.56-.1-.78-.27-.53-1.24-.36-1.7-.38-3.29-.13-6.58-.12-9.86 0-.39.02-.39.63 0 .62z" fill="#6F4AB3"/><path d="M128.56 161.85a10.7 10.7 0 01-3.24-7.4c0-.27-.08-.74.03-.98.28-.6.57-.04.67.15.09.15.16.32.23.48a20.42 20.42 0 011.79 7c.03.39.57.38.6 0 .34-3.18-.45-6.63.9-9.65.27-.59.7-1.55 1.4-1.68.84-.17.92 1.26.96 1.78.14 1.61-.16 3.22-.65 4.76a34.8 34.8 0 01-2.28 5.13c-.18.35.32.65.52.31a35.64 35.64 0 014.05-5.61c.48-.54.97-1.17 1.55-1.6.42-.32.9-.36 1.05.27.07.32.03.67-.07.98-.22.66-.73 1.2-1.26 1.62-1.21.94-2.76 1.39-4.2 1.86-.36.12-.2.7.17.59 1.38-.45 2.84-.9 4.05-1.72.96-.64 1.87-1.62 1.94-2.83.04-.5-.07-1.1-.49-1.42-.45-.36-1.03-.2-1.47.1-.56.39-1 .95-1.46 1.45a35.47 35.47 0 00-4.39 6l.53.31c1.69-3.28 3.49-6.93 2.96-10.74-.09-.6-.23-1.35-.8-1.7-.6-.37-1.28-.06-1.73.4-1.13 1.16-1.53 3.03-1.7 4.59-.25 2.26.05 4.54-.18 6.8h.6a21.38 21.38 0 00-1.57-6.63c-.23-.56-.46-1.36-.99-1.73-.36-.25-.89-.24-1.16.12-.34.46-.22 1.37-.2 1.9a11.36 11.36 0 003.41 7.53c.28.26.71-.17.43-.44z" fill="#6F4AB3"/><path d="M128.66 79.51c.75.51.76 2.55 4.62 3.66.67.2 1.38.34 1.96.75.81.57 1.23 1.54 1.61 2.46 4.04 9.76 9.75 27.3 14.77 36.6.34.62.73 1.29 1.4 1.54.64.23 1.36 0 2-.23 8.4-3 22.32-5.5 30.72-8.5l-4.72-16.14c-6.92 3.9-13.73 3.78-22.6 10.12-4.25-12.2-8.9-16.53-13.62-28.32-.37-.91-.9-1.81-.83-2.8.07-.88 1.97-8.44-.66-13.75-.23-.46-1.82-.66-2.21-.38-1.59 1.14-2.03 1.62-4.36 3.2-.96.64-1.97 1.35-2.44 2.41s-.66 1.82.44 2.18c1.65.54 4.98-3 6.63-2.46" fill="#fff"/><path d="M128.43 79.91c.07.05.23.31.35.5a6.26 6.26 0 003.32 2.84c.79.32 1.63.45 2.4.78.8.35 1.25 1.02 1.6 1.78.56 1.15 1 2.37 1.46 3.55 2.18 5.55 4.18 11.16 6.3 16.73 2.05 5.39 4.13 10.81 6.76 15.95.58 1.14 1.19 2.75 2.6 3 .79.14 1.56-.18 2.29-.44l1.83-.6c2.86-.91 5.76-1.67 8.67-2.4 6-1.52 12.08-2.84 17.99-4.74.62-.2 1.25-.41 1.87-.64.23-.08.39-.3.32-.56l-4.14-14.12-.6-2.01a.46.46 0 00-.66-.28 45.85 45.85 0 01-8.17 3.34c-3 .98-5.97 2-8.8 3.4a41.54 41.54 0 00-5.63 3.39l.67.27a94.92 94.92 0 00-7.07-15.12 157.68 157.68 0 01-3.7-6.84 84.53 84.53 0 01-1.88-4.03c-.34-.77-.66-1.55-.97-2.33-.28-.7-.67-1.37-.8-2.11a2.59 2.59 0 01-.01-.56c0-.06 0-.05 0 0 0-.1.02-.2.04-.3l.15-.82c.15-.9.28-1.8.37-2.7.26-2.43.26-4.92-.28-7.31-.14-.61-.32-1.22-.54-1.8-.18-.46-.35-1.08-.77-1.38-.61-.44-1.87-.63-2.53-.23-.83.5-1.58 1.2-2.36 1.78-1.04.78-2.18 1.46-3.2 2.29-.9.74-1.75 1.87-1.83 3.1-.06.96.85 1.58 1.74 1.53.88-.05 1.7-.54 2.44-.98.85-.5 1.68-1.1 2.61-1.43.31-.11.65-.22.98-.12.56.17.8-.71.24-.88-.77-.22-1.56.12-2.24.46-.84.43-1.63.96-2.46 1.42-.57.31-1.4.84-2.08.53-.47-.22-.33-.63-.18-1.04.23-.67.6-1.22 1.13-1.69.94-.86 2.09-1.5 3.12-2.26.71-.53 1.4-1.08 2.12-1.6.4-.3.59-.42 1.08-.37.36.02.81.07 1 .4.6 1.08.87 2.42 1.06 3.62a24.2 24.2 0 01-.03 6.62c-.1.74-.2 1.48-.34 2.2a4.6 4.6 0 00-.06 1.93c.14.6.43 1.16.66 1.73l.94 2.26a83.55 83.55 0 001.75 3.8c1.1 2.25 2.3 4.44 3.52 6.62 1.3 2.31 2.6 4.62 3.78 7a76.23 76.23 0 013.73 8.85c.1.26.41.45.67.27a42.3 42.3 0 019.57-5.1c2.78-1.05 5.65-1.85 8.42-2.9 1.58-.6 3.13-1.3 4.6-2.12a7.8 7.8 0 00-.67-.27l4.14 14.12.6 2.01.31-.56c-5.64 2.02-11.53 3.3-17.34 4.74a234.7 234.7 0 00-8.93 2.35c-1.31.38-2.62.78-3.9 1.23-.7.24-1.6.72-2.34.4-.66-.28-1-1.14-1.31-1.73-2.64-4.98-4.68-10.27-6.7-15.52-2.13-5.58-4.14-11.2-6.3-16.77-.45-1.16-.9-2.31-1.37-3.46-.56-1.36-1.14-2.77-2.58-3.39-1.36-.58-2.83-.73-4.02-1.7-.62-.49-.98-1.11-1.4-1.76a2.21 2.21 0 00-.54-.61c-.49-.35-.94.45-.47.8z" fill="#020202"/><path d="M192.84 91.46a13 13 0 013.22-.58c1.72-.03 3.39.58 5.03 1.13 3.77 1.27 7.66 2.3 11.64 2.5 4.44.23 8.87-.6 13.31-.49.42.02.86 4.72 6.42 7.05 2.2.92 4.68.66 7.01.2 2.6-.5 7.4-3.62 7.4-3.62 2.5 2.12 4.88 4.23 7.98 5.32 1.6.56 9.07 2.3 10.7 2.8 7.03 2.16 10.21 14.75 10.2 14.55H185.9c-2.15-7.02-4.57-13.9-9.1-19.67 0 0 11.28-7.88 16.03-9.2z" fill="#6F4AB3"/><path d="M140.47 65.13a41.53 41.53 0 01-3.83-6.7c-.87-1.83-1.63-3.74-2.65-5.5-.42-.72-1.4-2.19-2.32-1.2-.5.53-.68 1.38-.67 2.09 0 1.15.11 2.3.4 3.41.73 2.83 2.4 5.4 3.68 8l.78-.47c-1.05-1.61-3.28-2.67-5.12-1.8-.44.2-.82.52-1.1.92-.3.47-.4 1-.61 1.52-.27.67-.81 1.2-1.33 1.68-1.27 1.18-2.79 2.1-3.96 3.39-.46.5-.9 1.1-1.03 1.8-.15.85.26 1.7.63 2.46 1.12 2.3 3.16 4.38 5.7 4.98.57.13.81-.75.24-.88-2.05-.49-3.7-2.04-4.75-3.81-.39-.66-.97-1.6-.94-2.4.02-.54.38-1.04.73-1.43.98-1.11 2.25-1.95 3.39-2.9a10 10 0 001.54-1.51c.46-.6.63-1.19.9-1.88.88-2.28 3.9-1.26 4.93.33.32.5 1.05.06.79-.47-1.1-2.21-2.42-4.36-3.25-6.7-.34-.94-.56-1.92-.65-2.92-.08-.86-.2-1.82.25-2.6.07-.13.2-.24.2-.25 0 .06-.12 0-.07.02.03.03.09.04.1.05.4.33.66.83.91 1.29.91 1.65 1.64 3.4 2.45 5.11a41.66 41.66 0 003.89 6.83c.33.47 1.12.02.77-.46z" fill="#020202"/><path d="M248.6 101.13c-2.56 3.65-7.15 4.82-11.34 5.06-2.16.12-4.4.16-6.52-.34a9.1 9.1 0 01-5.03-3.1c-1.4-1.73-2.26-3.86-2.99-5.95-.2-.55-1.07-.31-.88.25.7 2 1.51 4.03 2.78 5.76a9.92 9.92 0 005.07 3.7c2.16.68 4.48.71 6.73.63 2.47-.08 5-.38 7.32-1.28a12.1 12.1 0 005.64-4.27c.33-.48-.46-.94-.79-.46z" fill="#fff"/><path d="M135.78 73.29c.01.73-.8 1.02-1.42.92a3.9 3.9 0 01-1.89-1c-1.06-.94-1.76-2.2-2.45-3.43-.28-.52-1.07-.06-.78.46.84 1.53 1.76 3.12 3.23 4.13.77.53 1.75.93 2.7.73.83-.18 1.53-.93 1.52-1.8-.01-.6-.93-.6-.91-.01z" fill="#020202"/><path d="M133.2 74.63c-.1.66-.53 1.17-1.13 1.43a2.5 2.5 0 01-2.03-.07c-1.48-.67-2.28-2.19-3.01-3.56-.28-.52-1.07-.05-.79.47.9 1.68 1.95 3.48 3.87 4.1 1.6.5 3.7-.29 3.97-2.12.03-.25-.06-.49-.32-.56-.22-.07-.53.07-.56.31zm.97-5.95c-.9-.89-1.52-2-1.8-3.24-.06-.24-.33-.38-.56-.32a.47.47 0 00-.32.56 7.52 7.52 0 002.04 3.64c.42.41 1.06-.23.64-.64zm23.09 81.44a.7.7 0 01.32-.1h.27l.1.03c.3.07.54.2.81.37.13.07.32.03.4-.1a.3.3 0 00-.1-.4c-.32-.18-.65-.37-1.01-.44a1.49 1.49 0 00-1.07.14c-.13.08-.19.27-.1.4.08.12.25.18.38.1zm-5.28-.33c.62-.32 1.34-.09 1.92.24.32.18.6-.32.29-.5-.77-.43-1.68-.66-2.5-.24a.3.3 0 00-.1.4c.08.14.25.17.39.1z" fill="#020202"/><path d="M263.13 138.78l15.31.02c.37 0 .37-.58 0-.58l-15.31-.02c-.38 0-.38.58 0 .58z" fill="#6F4AB3"/><path d="M240.87 65.5a4.64 4.64 0 015.5.09c.2.15.5.03.62-.17.14-.23.03-.47-.16-.62a5.51 5.51 0 00-6.42-.09c-.2.15-.3.4-.16.63.1.2.42.3.62.16zm-12.93.3a5.25 5.25 0 015.91.1c.48.34.94-.45.47-.79a6.13 6.13 0 00-6.83-.1c-.49.33-.04 1.12.45.8zm-1.74-3.08a5.75 5.75 0 013.23-1.38c.25-.02.45-.2.45-.45 0-.24-.2-.48-.45-.46-1.44.13-2.79.7-3.88 1.65-.19.16-.17.48 0 .65.18.18.46.16.64 0zm13.39-.74a4.8 4.8 0 012.92-.47c.25.04.5-.06.56-.32.06-.22-.07-.53-.32-.56a5.92 5.92 0 00-3.62.55c-.22.11-.29.43-.17.63.13.23.4.28.63.17z" fill="#020202"/><path d="M247.8 60.7a11.4 11.4 0 005.48-5.34c.26-.53-.53-1-.78-.47a10.6 10.6 0 01-5.15 5.02c-.22.1-.28.43-.16.63.13.24.4.27.62.17z" fill="#fff"/></g><rect x=".5" y=".5" width="325" height="199" rx="11.5" stroke="#F7F7F8"/><defs><clipPath id="a"><path fill="#fff" transform="translate(28 23)" d="M0 0h269v158H0z"/></clipPath></defs></svg>