<svg width="326" height="200" fill="none" xmlns="http://www.w3.org/2000/svg"><rect x=".5" y=".5" width="325" height="199" rx="11.5" fill="#fff"/><g clip-path="url(#a)"><path d="M190.65 43.05H74.17a7.58 7.58 0 00-7.58 7.58v81.04c0 4.19 3.4 7.58 7.58 7.58h116.48c4.19 0 7.58-3.4 7.58-7.58V50.63c0-4.19-3.4-7.58-7.58-7.58z" fill="#fff"/><path d="M190.65 138.63H74.7a7.03 7.03 0 01-7.48-6.96V53.81c0-1.39-.15-2.92.08-4.28a7.04 7.04 0 016.87-5.85h114.26c1.16 0 2.43-.1 3.57.12a7.03 7.03 0 015.59 6.83v80.35a7.05 7.05 0 01-6.95 7.64.62.62 0 000 1.25 8.32 8.32 0 007.74-5.49c.33-1.04.49-2.13.46-3.22V50.63a8.33 8.33 0 00-5.25-7.65c-1.58-.62-3.2-.55-4.85-.55H73.79a8.28 8.28 0 00-7.5 5.82c-.5 1.67-.34 3.52-.34 5.24v78.29a8.3 8.3 0 005.57 7.68c.97.3 1.99.45 3 .42h116.1a.63.63 0 00.6-.38.64.64 0 000-.48.63.63 0 00-.57-.4z" fill="#000"/><path d="M111.91 87.97h-37.2a3.65 3.65 0 00-3.65 3.65v38.58a3.65 3.65 0 003.65 3.65h37.2a3.65 3.65 0 003.65-3.65V91.62a3.65 3.65 0 00-3.65-3.65zM273.2 19H139a5.77 5.77 0 00-5.76 5.78v18.27h59.2a5.77 5.77 0 015.78 5.78v77.67c3.41-.2 6.83-.33 10.24-.36 4.22-.04 8.8.19 12.01 2.91 3.57 3.04 4.31 8.2 4.58 12.88.19 3.13.28 6.26.28 9.4h47.87a5.76 5.76 0 005.78-5.79V24.78A5.77 5.77 0 00273.2 19z" fill="#6F4AB3"/><path d="M190.65 138.63H74.7a7.03 7.03 0 01-7.48-6.96V53.81c0-1.39-.15-2.92.08-4.28a7.04 7.04 0 016.87-5.85h114.26c1.16 0 2.43-.1 3.57.12a7.03 7.03 0 015.59 6.83v80.35a7.05 7.05 0 01-6.95 7.64.62.62 0 000 1.25 8.32 8.32 0 007.74-5.49c.33-1.04.49-2.13.46-3.22V50.63a8.33 8.33 0 00-5.25-7.65c-1.58-.62-3.2-.55-4.85-.55H73.79a8.28 8.28 0 00-7.5 5.82c-.5 1.67-.34 3.52-.34 5.24v78.29a8.3 8.3 0 005.57 7.68c.97.3 1.99.45 3 .42h116.1a.63.63 0 00.6-.38.64.64 0 000-.48.63.63 0 00-.57-.4z" fill="#000"/><path d="M152.56 72.8c-2.74 6.73-4.55 14.12-3.68 21.42.36 3.05 1 6.8 3.47 8.9 2.47 2.12 6.06 1.92 9.03 1.16a19.83 19.83 0 009.38-5.51c.47-.48-.27-1.22-.73-.74a18.84 18.84 0 01-7.72 4.89c-2.73.9-6.27 1.51-8.81-.22-2.54-1.73-3.18-5.39-3.55-8.2-.4-3.42-.3-6.87.3-10.25.7-3.83 1.82-7.58 3.34-11.17.22-.62-.79-.9-1.03-.28z" fill="#020202"/><path d="M148.86 85.2c-.4.65-.86 1.27-1.36 1.84-.54.53-1 1.12-1.37 1.77a1.25 1.25 0 00-.07 1.23c.23.28.53.5.88.63.62.27 1.28.44 1.96.5.28.03.52-.27.52-.53a.54.54 0 00-.52-.52 4.9 4.9 0 01-1.4-.33l-.42-.21-.16-.1v.02c0 .03.02.05.02 0l.06-.16.1-.19c.08-.14.16-.28.26-.42.36-.48.8-.9 1.18-1.37a14 14 0 001.2-1.66c.38-.54-.5-1.07-.88-.5zm6-1.72c-.02-.37-.32-.83-.63-.65 0 0-1.94.62-1.03 3.2.08.22.3.44.53.39a.57.57 0 00.3-.22c.6-.77.9-1.74.83-2.72z" fill="#020202"/><path d="M155.38 83.48c-.05-.54-.35-1.17-.96-1.21-.14 0-.29.03-.42.09l.08-.03a2.39 2.39 0 00-1.04.73 2.66 2.66 0 00-.59 1.82c.02.45.12.9.28 1.34.25.62.96.97 1.53.5a4.53 4.53 0 001.14-3.25.52.52 0 00-.9-.37.56.56 0 00-.15.37c.04.37 0 .74-.09 1.1-.07.36-.22.7-.41 1.01l-.17.25-.03.03-.03.04c-.05.05-.06.05-.03.02h.19-.02c0 .05-.07-.06 0 0-.03-.05-.04-.06-.03-.02v-.05a4.74 4.74 0 01-.15-.53c0-.07-.03-.15-.04-.22v-.58.03-.1c0-.06.03-.12.05-.18l.05-.16.02-.06c-.07.12-.02.06 0 .03l.16-.27c.07-.11-.08.08 0-.02l.07-.09.18-.17c.1-.08-.1.07 0 0l.08-.05.16-.09.12-.07-.04.02.06-.02c.08-.03.08-.03 0 0h-.18l-.04-.03.06.06c-.05-.07 0 .04.03.06-.04-.07 0 0 0 0s.04.21.03.1a.53.53 0 00.52.52.53.53 0 00.51-.55zm-1.86-2.91l.04-.02.12-.04a1.91 1.91 0 01.45-.11c.15-.03-.06 0 .03 0h.13a2 2 0 01.49 0h.13l.25.05.22.07.12.05c.15.06.29.14.42.23l.1.07.05.03.17.15.18.19.06.08.04.05a.53.53 0 00.71.2.53.53 0 00.2-.72 3.6 3.6 0 00-4.45-1.2.53.53 0 00-.05.87.53.53 0 00.59.05zm-3.04 15.23c1.25.33 2.53.64 3.82.41a3.64 3.64 0 002.55-1.66.51.51 0 00-.03-.58.52.52 0 00-.55-.2.52.52 0 00-.32.25c-1.06 1.82-3.57 1.2-5.2.77a.52.52 0 00-.59.38.52.52 0 00.32.62zm10.16 8.8c.4.2.76.48 1.05.83.43.48.8 1.02 1.11 1.58a10.92 10.92 0 011.46 4.16.53.53 0 00.53.52.52.52 0 00.52-.52 12.36 12.36 0 00-1.67-4.78c-.64-1.1-1.51-2.34-2.74-2.81-.6-.23-.88.78-.26 1.02zm17.43.95l-1.2-9.68c-.08-.65-1.12-.66-1.04 0l1.2 9.68c.08.65 1.13.66 1.04 0z" fill="#020202"/><path d="M171.7 79.41a5.54 5.54 0 00.36 6.09 2.33 2.33 0 00-1.3 2.04 1.66 1.66 0 001.62 1.62c1.2-.05 1.94-1.55 3.13-1.62.87-.05 1.6.74 1.77 1.58.12.85-.02 1.72-.4 2.5-.39.98-.89 1.91-1.48 2.8.12 1.92 2.4 3.21 4.28 2.76 1.88-.46 3.23-2.2 3.76-4.07 1.55 1 3.83.12 4.67-1.52.83-1.65.44-3.72-.6-5.25 2.48.16 4.86-1.04 6.75-2.63 2.32-1.96 4.13-4.65 4.52-7.65.38-3-.86-6.3-3.45-7.88-1.6-.97-3.95-1.1-5.1.36.2-1.88-.93-3.74-2.46-4.84-1.53-1.1-3.42-1.62-5.28-1.98a11.3 11.3 0 00-4.65-.16c-1.52.35-2.97 1.35-3.47 2.83.47-3.1-1.88-5.94-4.42-7.8-2.34-1.72-5.16-3.06-8.04-2.74-2.88.32-5.64 2.81-5.4 5.7-.52-1.01-1.97-1.25-2.99-.75-1.01.5-1.64 1.58-2 2.66a9.4 9.4 0 00-.27 5.13c-1.8.92-3.99-2.08-5.7-.99-.5.4-.84.98-.95 1.62-.3 1.13-.42 2.38.1 3.4.7 1.35 2.3 1.93 3.8 2.18 2.34.42 5.27 0 6.24-2.2a4.67 4.67 0 007.5 3.82c-1 1.21-.43 3.29 1 3.96 1.44.67 3.27-.04 4.05-1.4a2.38 2.38 0 003.5 2.57" fill="#020202"/><path d="M171.24 79.15a6.07 6.07 0 00.36 6.6l.19-.7a2.88 2.88 0 00-1.56 2.5 2.28 2.28 0 001.59 2.08c.97.26 1.77-.33 2.5-.9.72-.57 1.62-1.04 2.25 0 .62 1.03-.06 2.58-.55 3.6-.26.53-.55 1.04-.87 1.54-.17.2-.26.45-.26.7.02.27.08.52.17.77.64 1.7 2.6 2.68 4.37 2.44 2.3-.31 3.89-2.4 4.52-4.5l-.77.32c1.69 1.02 3.91.32 5.05-1.2 1.38-1.86.92-4.47-.26-6.28l-.46.78c2.42.12 4.7-.9 6.58-2.36a14.12 14.12 0 004.33-5.35 10 10 0 00.72-6.22 8.21 8.21 0 00-3.3-5.04c-1.74-1.18-4.5-1.5-5.98.28l.88.37c.26-2.94-2.04-5.26-4.57-6.32a19 19 0 00-4.52-1.18c-1.57-.24-3.25-.33-4.75.26a5.08 5.08 0 00-3.04 2.95l1 .27c.53-3.96-2.62-7.13-5.69-9.1-3.17-2.04-7.45-3.19-10.74-.72a5.73 5.73 0 00-2.47 4.84l.97-.26a2.6 2.6 0 00-2.4-1.25 3.46 3.46 0 00-2.59 1.46c-1.52 1.99-1.73 4.89-1.21 7.26l.24-.6c-.59.28-1.27-.02-1.81-.28a13.7 13.7 0 00-1.97-.89 2.33 2.33 0 00-1.91.18c-.78.5-1.09 1.43-1.28 2.27-.44 1.94-.08 3.89 1.71 4.97a8.67 8.67 0 005 1.04c1.79-.13 3.66-.83 4.47-2.56l-.97-.26a5.18 5.18 0 008.25 4.2l-.7-.7c-1.11 1.43-.5 3.7 1.03 4.57 1.71 1 3.95.11 4.92-1.5l-.95-.42a2.9 2.9 0 004.26 3.17c.6-.3.07-1.2-.53-.9a1.88 1.88 0 01-2.73-2 .52.52 0 00-.94-.4c-.69 1.12-2.28 1.82-3.5 1.12a2.19 2.19 0 01-.67-3.16c.31-.42-.3-1.01-.71-.71a4.16 4.16 0 01-6.7-3.36c0-.5-.74-.75-.97-.27-1.22 2.62-5.29 2.44-7.52 1.43a3.17 3.17 0 01-1.66-1.5 4.23 4.23 0 01-.06-2.74c.16-.62.4-1.48 1.13-1.62a2.5 2.5 0 011.48.36c1.22.58 2.5 1.4 3.85.78a.52.52 0 00.23-.6 8.49 8.49 0 01.7-5.82 2.86 2.86 0 011.78-1.54 1.66 1.66 0 011.83.7.52.52 0 00.85.06c.08-.1.11-.2.12-.31-.2-3.22 3.12-5.32 6.03-5.23 1.8.13 3.55.7 5.07 1.67 1.48.84 2.8 1.92 3.91 3.2 1.2 1.38 2.09 3.18 1.84 5.05a.52.52 0 00.37.63.52.52 0 00.63-.35c.5-1.4 1.9-2.23 3.3-2.5 1.77-.35 3.67.05 5.4.46 2.92.7 6.44 2.55 6.14 6.06 0 .1.03.2.1.29a.53.53 0 00.8.08c1.14-1.38 3.23-1.08 4.6-.2a7.08 7.08 0 012.9 4.36c.94 3.91-1.24 7.74-4.16 10.22-1.79 1.52-4.03 2.66-6.44 2.53a.53.53 0 00-.45.79c.95 1.43 1.44 3.47.42 5-.78 1.2-2.5 1.82-3.78 1.04a.53.53 0 00-.77.31c-.5 1.67-1.66 3.33-3.47 3.72a3.3 3.3 0 01-2.22-.38c-.51-.3-1.36-1.03-1.3-1.72 0-.17.2-.39.3-.55a15.73 15.73 0 001.06-2.12c.42-.97.73-2.06.44-3.1a2.53 2.53 0 00-1.62-1.74c-.77-.24-1.52.1-2.13.56-.62.47-1.47 1.4-2.27.76-.94-.77-.25-2 .6-2.47.11-.07.2-.19.23-.32a.53.53 0 00-.05-.4 5.07 5.07 0 01-.36-5.56.52.52 0 00-.28-.53.52.52 0 00-.6.09zM68.11 162.44c.3 3.12.95 6.2 1.97 9.16.46 1.35.94 2.81 1.76 4a6.26 6.26 0 003.12 2.31c1.46.5 2.99.78 4.53.83 1.46.1 2.94.01 4.38-.27a6.78 6.78 0 003.38-1.62 7.4 7.4 0 001.81-3.4c.99-3.48 1.29-7.15 1.48-10.75.03-.67-1-.66-1.04 0a55.53 55.53 0 01-1.04 8.86 11.8 11.8 0 01-1.22 3.63 4.83 4.83 0 01-2.85 2.09c-1.27.34-2.59.5-3.9.45-1.44 0-2.87-.17-4.27-.51a5.98 5.98 0 01-3.24-1.81c-.84-1.02-1.3-2.38-1.73-3.61a38.58 38.58 0 01-2.08-9.36c-.1-.66-1.14-.66-1.06 0z" fill="#020202"/><path d="M90 166.4c.92-.04 2.08-.25 2.94.13.5.22.9.6 1.15 1.08a1.73 1.73 0 01.15.73c0-.15 0 .03-.02.07-.16.52-.41 1-.76 1.42a7.17 7.17 0 01-4.93 2.73c-.66.06-.67 1.1 0 1.04a8.18 8.18 0 005.64-2.99c.5-.56.85-1.22 1.06-1.93.24-1.08-.42-2.12-1.25-2.73-1.14-.83-2.64-.64-3.97-.57-.68.02-.68 1.06-.01 1.03zm-18.08 8.15c-2.3.3-4.63.56-6.92 1-1.01.15-2 .45-2.91.9-.68.37-1.44 1.05-1.25 1.9.2.87 1.14 1.19 1.88 1.39 1.04.25 2.08.46 3.14.6 2.23.34 4.48.54 6.74.6 4.54.16 9.12 0 13.65-.3 4.39-.28 8.95-.7 13.13-2.08.73-.25 1.75-.81 1.32-1.74-.43-.93-1.79-1.12-2.63-1.33a32.51 32.51 0 00-7.68-1.01.52.52 0 00-.52.52.52.52 0 00.52.52 31.55 31.55 0 018.73 1.35c.2.06.4.16.56.3.1.1.1.07-.08.17-.38.18-.77.32-1.18.42-3.75 1-7.6 1.6-11.48 1.8-3.91.28-7.86.42-11.78.4a53 53 0 01-11.65-1.1c-.45-.06-.9-.2-1.3-.4-.43-.25-.39-.5-.03-.8.77-.66 1.95-.84 2.91-1.05 2.25-.45 4.58-.7 6.83-1 .66-.1.66-1.15 0-1.06zM104.1 83.8c.98-2.13 2.36-4.05 3.33-6.19.4-.77.62-1.63.64-2.5a7.96 7.96 0 00-.54-2.5l-.48-1.24-.16-.57c-.19.07-.22.14-.1.23l.19.23.89 1.05c.3.35.86.83.7 1.3-.17.46.62.72.8.22.21-.63-.14-1.18-.53-1.67l-.83-.97a7.03 7.03 0 00-.83-.96.66.66 0 00-.92.01.65.65 0 00-.17.3c-.18.6.25 1.3.46 1.85.33.78.56 1.6.67 2.43.03.87-.17 1.74-.58 2.5-.45.96-.99 1.87-1.5 2.8-.6 1.06-1.25 2.12-1.75 3.23-.22.52.5.94.72.45z" fill="#020202"/><path d="M108.84 72.08c.42-1.44.86-3 .66-4.5a.42.42 0 00-.42-.42c-.2 0-.44.19-.41.41.19 1.45-.21 2.92-.63 4.28a.42.42 0 10.8.23zm3.75-1.88a5.41 5.41 0 01-1.6 4.65 5.63 5.63 0 00-1.3 1.94c-.15.36-.28.73-.42 1.09-.74 2.03-1.35 4.16-2.19 6.13-.2.5.5.92.72.42.88-2.08 1.53-4.3 2.3-6.43.16-.41.31-.85.5-1.27.4-.83 1.11-1.34 1.67-2.06a6.21 6.21 0 001.13-4.7c-.1-.52-.9-.3-.81.22zM78.51 84.24c.56-3.14 1.82-6.13 3.15-9.01.25-.68.6-1.33 1.02-1.92.58-.7 1.46-.72 2.3-.83 1.54-.19 3.06-.45 4.6-.56l-.4-.3c.33 1.4 1.79 3.14 3.36 3.1 1.73-.07 3.13-1.54 3.67-3.08l-.42.3c1.62.14 3.25.23 4.86.42l-.29-.12c.33.26.61.57.83.93.13.33.2.68.23 1.04.18 1.04.38 2.08.58 3.11.38 2.02.87 4.05 1.05 6.09.04.53.87.53.83 0a63.47 63.47 0 00-1.08-6.3c-.2-1.06-.42-2.11-.58-3.17a2.82 2.82 0 00-1.25-2.26 1.5 1.5 0 00-.81-.2l-1.4-.14-2.98-.23a.42.42 0 00-.41.31c-.42 1.18-1.53 2.4-2.86 2.46-1.2.04-2.32-1.44-2.57-2.5a.42.42 0 00-.42-.3c-1.7.1-3.4.41-5.1.61-.75.02-1.49.27-2.1.71a5.5 5.5 0 00-1.23 1.92c-1.44 3.1-2.84 6.3-3.45 9.69-.03.54.77.76.87.23zm11.23-17.73c.06 1.16.95 2.34 1.7 3.16a3.1 3.1 0 003.05 1c2.08-.5 3.36-2.57 4.05-4.43.55-1.54.81-3.17.79-4.8a.42.42 0 10-.84 0c0 2.44-.52 5.01-2.08 6.97-.9 1.11-2.5 2.08-3.84 1.13-.5-.39-.93-.86-1.25-1.4a3.38 3.38 0 01-.74-1.63c0-.53-.84-.53-.84 0z" fill="#020202"/><path d="M100.56 60.42a4.63 4.63 0 00-.7-2.4c-.83-1.27-2.43-1.84-3.95-2.05a6.44 6.44 0 00-2.87.17c-2.03.67-3.65 1.47-4.64 4.08-.33.87-.09 2.38.03 3.3.32 2.7 1.52 3.25 1.52 3.25-.39-.83-1.05-1.78-.93-2.74 0-.51.13-1.01.37-1.47.3-.41 1.35.16 1.48.66-.04-.8.23-1.6.76-2.2.12-.2.28-.37.46-.5.4-.17.84-.2 1.25-.08 1.4.21 2.84.16 4.23-.15a2.03 2.03 0 011.26 2.29c-.16.97-.2 1.95-.13 2.94 1.44-.46 1.91-3.58 1.86-5.1z" fill="#020202"/><path d="M100.98 60.42a5 5 0 00-1-2.92 5.04 5.04 0 00-2.16-1.47 7.9 7.9 0 00-5.75.03A6.6 6.6 0 0088.5 59a5 5 0 00-.7 2.56c.03.93.14 1.87.32 2.79.2.93.65 2.34 1.61 2.8a.42.42 0 00.57-.58c-.42-.83-.96-1.64-.86-2.6 0-.23.05-1.08.32-1.11a.95.95 0 01.7.49.42.42 0 10.83-.11 2.91 2.91 0 01.7-2 .96.96 0 011.04-.42c1.38.2 2.8.2 4.18-.02.61-.11 1.04.42 1.2.99.07.43.04.87-.06 1.3-.15.84-.16 1.7-.05 2.55a.42.42 0 00.52.3c.97-.35 1.44-1.34 1.73-2.27.32-1.05.46-2.14.42-3.24 0-.54-.84-.54-.84 0 .03.9-.07 1.79-.3 2.65-.18.7-.49 1.77-1.24 2.05l.5.29c-.2-.96.08-2.02.18-2.97a2.45 2.45 0 00-1.24-2.4 1.17 1.17 0 00-.96-.07c-.91.17-1.84.22-2.77.16-.72-.04-1.6-.35-2.28-.03a3 3 0 00-1.15 1.3 3.8 3.8 0 00-.41 1.82l.83-.1c-.32-.92-1.82-1.64-2.35-.54-.3.68-.4 1.42-.28 2.15.14.8.6 1.52.95 2.25l.57-.57c-.48-.23-.85-1.01-1.03-1.57-.22-.74-.36-1.51-.41-2.29a5 5 0 01.1-2.3c1.15-3.02 4.53-4.4 7.58-3.77.9.15 1.74.51 2.45 1.06a3.89 3.89 0 011.29 2.88c0 .52.83.52.8-.01zm-10.55 8.07v.21c0 .07 0 .04 0 0 0 .14-.04.27-.06.42a10.72 10.72 0 01-.35 1.4l-.04.11c-.03.08.04-.06 0 .03-.03.1-.06.13-.1.2l-.1.16c-.03.05 0 0 .03-.03l-.04.04-.05.06-.03.02c-.03.03-.02.02.03 0l-.06.04c-.07.06.08 0 0 0l-.08.03a.42.42 0 00.22.8c.68-.13.98-1 1.14-1.57.17-.61.29-1.24.35-1.88a.42.42 0 00-.42-.42.42.42 0 00-.44.37zm4.2 1.85c-.02.74.17 1.47.14 2.21a.42.42 0 00.84 0c.02-.74-.17-1.47-.14-2.21a.42.42 0 00-.84 0zM85 79.5c-.42.9-.76 1.83-1 2.8a.42.42 0 10.8.21 13.49 13.49 0 01.98-2.74.42.42 0 00-.36-.47.42.42 0 00-.41.2z" fill="#020202"/><path d="M113.41 54.56H79.25c-1.17 0-2.36-.05-3.53 0-.8.01-1.58.24-2.25.66a3.67 3.67 0 00-1.4 2.37 16.1 16.1 0 00-.16 3.1v21.5c-.03.34 0 .68.07 1 .19.41.48.76.83 1.03.42.38.92.66 1.47.8.58.08 1.16.1 1.75.06h35.61c.98 0 2.14.14 3.11-.1 1.67-.41 2.21-2.18 2.2-3.7V60.3c0-1.29.21-2.7-.52-3.85a3.86 3.86 0 00-3.03-1.85c-.67-.02-.66 1.02 0 1.04a2.8 2.8 0 012.5 2.33c.12 1.3 0 2.67 0 3.98v17.49c0 1.2.26 2.9-.5 3.94-.65.87-1.92.65-2.87.65H76.01c-.55.07-1.1.05-1.66-.06-.49-.18-.92-.5-1.25-.9l-.14-.19-.06-.09c.04.08 0 .21.03 0 .04-.44.04-.89 0-1.33V60.32c0-1.58-.17-3.97 1.72-4.58 1.13-.35 2.42-.19 3.6-.19h35.12a.52.52 0 00.38-.48.52.52 0 00-.34-.5zm12.94 23.35c-.78-.51-1.55-1.05-2.36-1.52-.53-.31-1.18-.78-1.83-.73a.8.8 0 00-.75.75v4.57c0 .68-.04 1.38 0 2.08.05.8.92 1 1.55.7.31-.2.6-.44.84-.71l.93-.83c.8-.7 1.6-1.4 2.36-2.14a1.07 1.07 0 00.3-1.31 2.68 2.68 0 00-1.05-.84c-.56-.36-1.08.54-.52.9.23.13.45.28.65.45.05.06-.03 0 0-.06-.05.07-.11.12-.17.18l-.42.38c-.58.56-1.18 1.1-1.8 1.62-.5.44-1.02.87-1.5 1.34 0 0-.19.22-.11.1.07-.1.13-.02.03-.02a.82.82 0 00-.2.04c-.13.08 0-.06 0 0 0 0 .16.16.11.16v-6.5c0 .03-.17.15-.19.19-.02.04-.02-.03 0 0l.17.04.2.08c.34.18.68.38 1.01.58.74.45 1.46.94 2.2 1.42.6.35 1.11-.55.55-.92zM66.94 51.39c-.35.16-.26.06 0 .07h3.29l9.53.02 14.02.04 17.13.05 18.68.06 18.87.06 17.59.06 14.88.05 10.75.04c1.7 0 3.44.08 5.15.03.25 0 .31.1 0-.07.6.3 1.13-.6.52-.9-.36-.1-.75-.13-1.13-.08h-2.54l-9.47-.04-14.06-.05-17.16-.05-18.81-.07-19-.05-17.63-.06-14.94-.04-10.68-.02c-1.67 0-3.36-.05-5.03 0a.8.8 0 00-.46.07c-.63.27-.1 1.17.5.88zM47.5 177.35a9.6 9.6 0 011.07 0h13.28a.52.52 0 00.52-.52.52.52 0 00-.52-.52H48.56a9.15 9.15 0 00-1.07 0c-.65.09-.66 1.13 0 1.04zM76.36 46.73v.12-.04l-.04.18-.04.12s.07-.14 0-.05l-.12.2c-.04.06.08-.08 0-.03l-.06.07-.06.05-.02.03.03-.03a.8.8 0 00-.15.1l-.07.05c-.1.05.13-.05 0 0l-.2.05c-.1 0-.02-.03.04 0h-.3c-.08 0 .16.03.02 0l-.11-.03-.11-.04c-.08-.02.02 0 .04.02l-.17-.09-.07-.05c-.08-.04.11.1.02 0l-.16-.16c.04 0 .08.1.03.03l-.06-.1-.04-.06v-.03c-.03-.06-.02-.05 0 .04a.9.9 0 00-.06-.18v-.08c-.03-.12 0 .15 0 0v-.18c0-.06.04-.14 0 0v-.07c0-.07.04-.13.05-.19.04-.13-.06.13 0 0l.06-.1.05-.08c.05-.09.03 0 0 0l.13-.14c.02 0 .1-.06.02-.02-.08.04 0 0 .03 0s.19-.08.2-.11c.01-.04-.15.05-.05 0l.12-.04h.34c.13 0-.12-.03 0 0l.23.06c.12.04-.1-.06-.03 0l.12.07.06.04.07.04c-.08-.06-.1-.07-.04-.02l.13.13c.1.1-.08-.12 0 0l.06.1.06.1c.06.1-.04-.13 0 0l.06.22c.03.08-.03 0 0-.05v.16a.62.62 0 101.25 0 2.12 2.12 0 00-1.4-1.96 2.08 2.08 0 101.4 1.96.62.62 0 00-1.25 0v-.01zm6.52 0v.12-.04l-.05.18-.04.12s.07-.14 0-.05l-.11.2c-.04.06.07-.08 0-.03l-.07.07-.05.05-.03.03.04-.03-.16.1-.07.05c-.1.05.14-.05 0 0l-.18.05c-.1 0-.03-.03.03 0h-.3c-.07 0 .15.03.02 0l-.11-.03-.11-.04c-.08-.02 0 0 .04.02l-.17-.09-.08-.05c-.07-.04.12.1.03 0l-.16-.16c.04 0 .07.1.02.03l-.05-.1-.04-.06-.02-.03c-.03-.06 0-.05 0 .04 0-.04-.05-.13-.06-.18v-.08c-.03-.12 0 .15 0 0v-.18c0-.06.05-.14 0 0v-.07l.05-.19c.05-.13-.07.13 0 0l.06-.1.05-.08c.06-.09.04 0 0 0l.13-.14s.11-.06.03-.02c-.09.04 0 0 .02 0 .03 0 .19-.08.2-.11.01-.04-.14.05-.04 0l.11-.04h.35c.13 0-.13-.03 0 0l.22.06c.12.04-.09-.06-.02 0l.11.07.07.04.06.04c-.08-.06-.09-.07-.04-.02.05.04.1.08.13.13.05.05-.07-.12 0 0l.06.1.06.1c.06.1-.04-.13 0 0 .02.07.05.14.06.22.02.08-.03 0 0-.05v.16a.62.62 0 101.25 0 2.12 2.12 0 00-1.39-1.96 2.08 2.08 0 00-2.25.6 2.08 2.08 0 103.18 2.67c.3-.37.47-.83.47-1.3a.62.62 0 00-1.25 0v-.02zm6.1 0v.12-.04c0-.01-.03.15-.05.18l-.04.12s.07-.14 0-.05c-.07.1-.07.13-.11.2-.05.06.07-.08 0-.03l-.07.08-.05.04-.03.03.04-.03a.94.94 0 00-.16.1l-.07.05c-.1.05.14-.05 0 0-.06 0-.12.03-.18.05-.07 0-.03-.03.02 0h-.3c-.06 0 .16.03.03 0l-.11-.03-.11-.04c-.08-.02.02 0 .04.02l-.17-.09-.07-.05c-.07-.04.1.1.02 0l-.16-.16c.04 0 .07.1.03.03l-.06-.1-.04-.06v-.03c-.03-.06-.02-.05 0 .04 0-.04-.05-.13-.06-.18v-.08c-.03-.12 0 .15 0 0v-.18c0-.06.05-.14 0 0v-.07c0-.07.04-.13.06-.19.04-.13-.07.13 0 0l.05-.1.06-.08c.05-.09.03 0-.02 0l.13-.14c.02 0 .1-.06.02-.02-.09.04 0 0 .03 0s.19-.08.2-.11c.01-.04-.15.05-.04 0l.1-.04h.35c.14 0-.13-.03 0 0l.23.06c.12.04-.1-.06-.03 0l.12.07.06.04.06.04c-.07-.06-.08-.07-.03-.02l.13.13c.05.05-.07-.12 0 0l.06.1.06.1c.06.1-.04-.13 0 0l.06.22c.02.08-.03 0 0-.05v.16a.62.62 0 101.25 0 2.12 2.12 0 00-1.4-1.96 2.08 2.08 0 00-2.74 1.78 2.08 2.08 0 003.68 1.5c.3-.38.47-.84.47-1.32a.62.62 0 00-1.25 0l-.01-.01zm-6.17 47.7h13.94c.31 0 .46.46.46.7.03.83.04.39.04 1.24 0 .68-.35.88-.52.88h-13.9c-.42 0-.54-.45-.55-.67a9.29 9.29 0 010-1.13c0-.97.53-1.02.53-1.02z" fill="#020202"/><path d="M82.81 94.74h13.13c.21 0 .71-.1.88.07.16.16.12.74.13 1.02.02.44.13 1.08-.42 1.13-.96.08-1.97 0-2.94 0h-9.33c-.38 0-1.44.17-1.67-.18a5.67 5.67 0 01.07-1.9c.06-.09.21-.15.13-.14.37-.04.38-.63 0-.59-.9.1-.83 1.25-.83 1.9-.04.34 0 .7.13 1.02.26.53.77.48 1.29.48h12.44c.38 0 .91.1 1.25-.12.46-.3.46-.92.45-1.41.02-.42 0-.84-.1-1.25-.18-.56-.56-.63-1.09-.63H82.8a.3.3 0 00.02.6zm17.11-.31h5.94c.31 0 .46.46.47.7.02.83.03.39.03 1.24 0 .68-.35.88-.51.88h-5.92c-.42 0-.53-.45-.54-.67a10.2 10.2 0 010-1.13c0-.97.53-1.02.53-1.02z" fill="#020202"/><path d="M99.92 94.74h5.68c.24 0 .32 0 .42.22.05.25.07.52.06.78.02.25.02.5 0 .75-.05.46-.2.47-.58.47h-4.8c-.21 0-.65.09-.83 0a.44.44 0 01-.17-.33 3.11 3.11 0 010-.56c-.02-.34 0-.68.07-1.02.03-.1.09-.2.16-.27 0-.02.13-.04.02-.03.38-.03.38-.62 0-.58-.53.05-.77.6-.83 1.07-.08.57-.06 1.14.06 1.7a.83.83 0 00.73.62c.51.05 1.04 0 1.56 0h3.43c.4.06.82.04 1.22-.06a1.01 1.01 0 00.52-.72c.06-.65.04-1.31-.06-1.96a.84.84 0 00-.76-.66h-5.88a.3.3 0 00-.02.58zm-22.61-.39a1.07 1.07 0 00-.96-.11c-.33.11-.6.33-.8.6a1.78 1.78 0 00-.1 1.9 1.52 1.52 0 001.66.74c.33-.08.63-.27.83-.55.2-.3.29-.64.26-1 .02-.37-.09-.75-.3-1.08a1.25 1.25 0 00-1.1-.56.58.58 0 00-.37.15c-.1.1-.15.23-.15.37 0 .25.23.55.52.52h.08c.03 0 .1 0 0 0h.03c.03 0 .05.04-.03 0l.06.03h.03l-.03-.02.04.03.03.04-.02-.03.04.06.03.06.04.06c0-.08-.03-.06 0 0a.7.7 0 01.04.18v.07-.07.42-.03.2-.04s-.1.17-.04.08c.06-.09 0 0 0 0l-.05.04c-.03.03-.06.02.04-.02l-.05.03-.07.04c-.1.05.07 0 0 0a.8.8 0 01-.13.03h.05-.2c-.07 0 .14.04.04 0l-.09-.02c-.05 0-.03-.04.04 0l-.06-.03a1.08 1.08 0 01-.11-.07c-.06-.04.1.09.02 0l-.05-.04-.04-.04c-.03-.04-.06-.1 0 0l-.07-.1-.04-.07c-.03-.08 0-.03 0 0L76.3 96v-.06c-.03-.1 0 .1 0 0v-.17.03-.06c0-.05.02-.1.04-.15l.02-.07c0-.03 0 0-.02.04l.03-.04c.02-.06.06-.11.1-.17.03-.06 0 0-.03 0l.06-.06.05-.05.03-.02c.03-.03 0 0-.05.03l.14-.08.05-.03c-.08.03-.1.04-.04 0h.09c.1-.02-.12 0-.03 0 .03 0 .1 0 0 0h.03c.03 0-.1-.06-.05 0l.09.06a.52.52 0 00.41.05.52.52 0 00.36-.64.6.6 0 00-.27-.26z" fill="#020202"/><path d="M82.81 102.8h6.88c.3 0 .45.47.46.7.02.83.04.4.04 1.25 0 .68-.36.88-.52.88h-6.85c-.41 0-.53-.45-.54-.67a9.3 9.3 0 010-1.13c0-.99.53-1.02.53-1.02z" fill="#fff"/><path d="M82.81 103.1h6.52c.22 0 .39-.05.49.17.06.27.1.55.07.83.05.3.05.6 0 .9-.1.38-.3.3-.66.3h-5.65c-.26.05-.52.04-.78-.02a.38.38 0 01-.2-.34 2.82 2.82 0 010-.57c-.02-.34 0-.69.08-1.02a.7.7 0 01.16-.25c0-.02.14-.03 0-.02.38-.03.38-.62 0-.58-.5.04-.74.53-.8.98a5.38 5.38 0 000 1.7c.24 1 1.44.72 2.22.72h4.24c.71 0 1.62.2 1.9-.65.08-.37.1-.75.06-1.13 0-.31-.02-.63-.07-.94a.83.83 0 00-.67-.68 13.3 13.3 0 00-1.6 0H82.8c-.04 0-.08 0-.11.03a.3.3 0 00.13.57zm-5.5-.38a1.07 1.07 0 00-.96-.12c-.33.12-.6.33-.8.61a1.78 1.78 0 00-.1 1.9 1.52 1.52 0 001.66.74c.33-.08.63-.28.83-.56.2-.3.29-.64.26-.99a1.8 1.8 0 00-.3-1.08 1.25 1.25 0 00-1.1-.57.58.58 0 00-.37.15c-.1.1-.15.23-.15.37 0 .25.23.56.52.52h.08c.03 0 .1 0 0 0h.03c.03 0 .05.05-.03 0l.06.03h.03l-.03-.02.04.04.03.03-.02-.02.04.06.03.06.04.06c0-.09-.03-.06 0 0a.7.7 0 01.04.18v.07-.07.4-.03.2-.04s-.1.17-.04.08c.06-.09 0 0 0 0l-.05.04c-.03.03-.06 0 .04-.02l-.05.03-.07.04c-.1.05.07 0 0 0l-.13.04h.05-.2c-.07 0 .14.03.04 0l-.09-.03c-.05 0-.03-.04.04 0l-.06-.02a1.06 1.06 0 01-.11-.07c-.06-.04.1.08.02 0l-.05-.05-.04-.04c-.03-.03-.06-.1 0 0l-.07-.1-.04-.07c-.03-.08 0-.02 0 .03l-.03-.12v-.07c-.03-.1 0 .1 0 0v-.17.04-.07c0-.05.02-.1.04-.15l.02-.07c0-.03 0 0-.02.05l.03-.05.1-.16c.03-.06 0 0-.03.02l.06-.07.05-.04.03-.03-.05.03.14-.08.05-.02c-.08.03-.1.03-.04.02h.09c.1-.03-.12 0-.03 0 .03 0 .1 0 0 0h.03c.03 0-.1-.07-.05 0l.09.05a.5.5 0 00.41.05.53.53 0 00.38-.44.5.5 0 00-.02-.21.6.6 0 00-.27-.3zm5.5 8.45h8.55c.31 0 .46.47.46.7.03.83.04.41.04 1.24 0 .68-.36.88-.52.88h-8.52c-.41 0-.53-.45-.54-.66a9.28 9.28 0 010-1.14c0-.99.53-1.02.53-1.02z" fill="#020202"/><path d="M82.81 111.47H91c.26 0 .46 0 .52.3.04.24.05.49.04.74.04.29.04.58-.02.87-.12.45-.52.3-.9.3h-6.75c-.38 0-1.2.18-1.3-.3a2.8 2.8 0 01-.02-.58c-.02-.32 0-.64.05-.96a.61.61 0 01.18-.34c.02-.04.15-.05.02-.03.38-.05.38-.63 0-.6a1.03 1.03 0 00-.83 1.02 5.42 5.42 0 000 1.66c.25 1.04 1.53.73 2.34.73h5.48c.52.04 1.04.04 1.55 0a.83.83 0 00.63-.49c.26-.52.18-1.5.09-2.08a1 1 0 00-.5-.77c-.2-.06-.4-.08-.61-.06h-8.18a.3.3 0 00.03.59z" fill="#020202"/><path d="M92.66 102.8h3.52c.31 0 .46.47.46.7.03.83.04.4.04 1.25 0 .68-.35.88-.52.88h-3.5c-.41 0-.53-.45-.54-.67a9.3 9.3 0 010-1.13c.02-.99.54-1.02.54-1.02z" fill="#fff"/><path d="M92.66 103.1h1.77a.3.3 0 000-.59.3.3 0 00-.26.3.3.3 0 00.26.29h1.66c.13 0 .14.03.2.17.07.23.09.48.07.73v.48c0 .25.05.6-.15.8l-.06.04h-3.01c-.27 0-.6.1-.7-.2a3.15 3.15 0 01-.05-1.01c-.04-.32.01-.64.16-.93a.2.2 0 01.12-.09c-.07.03.1 0-.03 0 .37-.02.37-.62 0-.58a.96.96 0 00-.79.83 6.49 6.49 0 00-.05 1.34c-.01.3.05.6.19.86.23.36.58.38.96.38h2.47c.33.05.67.03 1-.07a.96.96 0 00.48-.6c.07-.34.1-.69.06-1.03 0-.23 0-.47-.03-.7a1.1 1.1 0 00-.47-.93c-.23-.08-.46-.1-.7-.07h-1.35a.3.3 0 00-.26.3.3.3 0 00.26.29.3.3 0 00.26-.3.3.3 0 00-.26-.3h-1.75a.3.3 0 00-.17.48c.04.06.1.1.17.1z" fill="#020202"/><path d="M94.53 111.17h12.45c.31 0 .45.47.46.7.02.83.04.41.04 1.24 0 .68-.35.88-.52.88H94.54c-.42 0-.54-.45-.54-.66a9.28 9.28 0 010-1.14c0-.99.53-1.02.53-1.02z" fill="#fff"/><path d="M94.53 111.47h11.57c.25-.03.5-.03.74 0 .36.06.3.41.31.7.02.29.03.46.03.7 0 .23.05.52-.1.7-.15.18-.28.11-.5.11H95.25c-.24.04-.48.04-.71 0-.29-.1-.26-.45-.26-.7v-.63c-.03-.28.02-.56.15-.8.04-.07.2-.1.09-.08.37-.05.38-.64 0-.6-.79.08-.84 1.02-.84 1.62 0 .6-.11 1.43.53 1.71.45.2 1.14.08 1.62.08h10.08c.83 0 1.7.13 1.84-.94.03-.36.03-.71 0-1.07-.03-.41 0-.95-.38-1.25-.38-.3-1-.14-1.42-.14H94.53a.3.3 0 00-.26.3.3.3 0 00.26.29zm-17.22-.39a1.07 1.07 0 00-.96-.12c-.33.12-.6.33-.8.61a1.79 1.79 0 00-.1 1.9 1.52 1.52 0 001.66.74c.33-.08.63-.28.83-.56.2-.29.29-.64.26-.99a1.8 1.8 0 00-.3-1.08 1.25 1.25 0 00-1.1-.57.58.58 0 00-.37.16.5.5 0 00-.15.36c0 .26.23.56.52.52h.08c.03 0 .1 0 0 0h.03c.03 0 .05.05-.03 0l.06.04h.03-.03l.04.03.03.04-.02-.03.04.06.03.06.04.06c0-.09-.03-.06 0-.02.02.04.03.12.04.17v.08-.07.39-.02.2-.04s-.1.17-.04.08c.06-.08 0 0 0 0l-.05.05c-.03.03-.06.02.04-.03l-.05.04-.07.03c-.1.05.07-.02 0 0l-.13.04h.05-.2c-.07 0 .14.03.04 0l-.09-.02c-.05 0-.03-.04.04.02l-.06-.03a1.06 1.06 0 01-.11-.07c-.06-.04.1.08.02 0l-.05-.05-.04-.04c-.03-.03-.06-.1 0 0l-.07-.1-.04-.07c-.03-.08 0-.02 0 .03l-.03-.12v-.07c-.03-.1 0 .1 0 0v-.17.04-.07c0-.05.02-.1.04-.15l.02-.06c0-.04 0-.03-.02.04l.03-.05.1-.16c.03-.06 0 0-.03.02l.06-.07.05-.04.03-.03-.05.03.14-.08.05-.02-.04.02h.09c.1-.03-.12 0-.03 0 .03 0 .1 0 0 0h.03c.03 0-.1-.07-.05 0l.09.05a.5.5 0 00.41.05.53.53 0 00.38-.44.5.5 0 00-.02-.21.61.61 0 00-.27-.31z" fill="#020202"/><path d="M132.31 56.38a9.69 9.69 0 00-9.6 8.38c-.64.22-1.3.37-1.97.46a6.45 6.45 0 01-4.65-1.02l-.26.06c1.44 2.27 4.22 3.2 6.79 4l.26.07a9.7 9.7 0 109.43-11.95z" fill="#000"/><path d="M132.31 55.34a10.81 10.81 0 00-10.6 9.16l.73-.72c-1.16.4-2.4.55-3.62.41a4.85 4.85 0 01-1.64-.53 4.07 4.07 0 00-.83-.46 1.55 1.55 0 00-1.25.29 1.04 1.04 0 00-.2 1.3c1.73 2.65 4.79 3.67 7.67 4.54l-.72-.72a10.74 10.74 0 1010.43-13.27c-1.34 0-1.34 2.08 0 2.08a8.65 8.65 0 11-8.34 10.98c-.04-.3-.17-.57-.36-.8-.25-.2-.55-.34-.87-.4-.47-.14-.95-.3-1.42-.46-1.73-.6-3.56-1.41-4.6-3l-.62 1.53.26-.07-.8-.1c2.17 1.54 5 1.44 7.42.67a1.02 1.02 0 00.73-.73 8.78 8.78 0 018.6-7.62c1.37 0 1.38-2.09.03-2.08z" fill="#000"/><path d="M128.52 67.24c.17.12.18.22.03.32-.1.07-.24.11-.43.14-.13.02-.56.02-1.3-.02-.53-.03-.93.06-1.21.28-.06.05-.13.04-.21-.01a.25.25 0 01-.12-.23c.02-.5.29-.98.8-1.45.32-.29.85-.66 1.6-1.1.07-.05.09-.1.06-.19a.28.28 0 00-.14-.16 1.39 1.39 0 00-.94-.06c-.38.08-.67.24-.85.46l-.38.47c-.17.14-.3.11-.4-.1-.1-.19.09-.47.54-.85.38-.32.83-.5 1.35-.54.52-.04.94.08 1.27.37.15.13.23.29.23.48 0 .2-.08.36-.25.47l-.58.35-.6.36c-.45.31-.75.62-.88.94a4 4 0 011.61.03l.41-.02c.18-.02.3 0 .39.06zm3.88-1.06c-.06.15-.23.22-.49.23-.35 0-.54.02-.59.04-.03.1-.04.35-.02.76.02.33-.03.57-.14.7-.1.11-.22.12-.35.02a.38.38 0 01-.17-.37c.05-.58.07-.93.06-1.06-.05-.01-.5.03-1.36.11-.32.02-.5-.06-.55-.25-.02-.06 0-.13.05-.2l.11-.2.73-1.8c.11-.18.25-.21.42-.08.06.05.11.11.14.18.03.07.03.13 0 .17-.12.2-.36.7-.7 1.55.28-.08.67-.1 1.18-.03v-.3l.01-.35c.03-.28.17-.43.4-.47.1 0 .17.04.22.14.04.1.04.2 0 .31-.03.09-.03.28 0 .58.1.06.21.07.35.05l.18-.04c.08-.02.13-.04.18-.04.12-.02.22 0 .3.05.08.06.1.16.04.3zm2.82-1.55c-.57.5-1.3 1.58-2.17 3.23-.03.06-.08.1-.15.08-.05 0-.1-.04-.16-.1-.13-.17-.14-.34-.04-.5a22.99 22.99 0 012.05-3.1c.02-.02.07-.03.16-.04.1-.02.2 0 .27.04.1.05.14.13.11.24-.01.07-.04.13-.07.15zm2.77-.07c.03.14 0 .3-.11.45a3.62 3.62 0 01-.31.38 4.88 4.88 0 00-.81 2.3c0 .09-.06.13-.15.15a.46.46 0 01-.25-.04c-.12-.05-.16-.2-.15-.45.02-.2.14-.56.36-1.07l.58-1.32c-.21.06-.47.06-.78.02-.26-.03-.44-.01-.56.06l-.17.17c-.06.06-.13.08-.22.06-.2-.04-.27-.18-.23-.4a.6.6 0 01.28-.45.41.41 0 01.41-.02c.18.08.31.12.4.12l.67-.02c.24 0 .45-.05.62-.15a.27.27 0 01.26 0c.08.05.14.12.16.2zM249.7 28.69c-8 1.24-13.94 8.67-15.25 16.4-.42 2.36-.48 4.89.41 7.16a11.2 11.2 0 003.47 4.58 14.64 14.64 0 0011.28 2.85 16.93 16.93 0 0011.57-7.52.62.62 0 00-.13-.72.63.63 0 00-.72-.11c-.81.49-1.71.82-2.65.96-1.24.23-2.5.34-3.75.34-2.32 0-4.96-.17-7.07-1.25-1.08-.56-1.72-1.52-2.3-2.57a10.83 10.83 0 01-1.28-4.37c-.21-2.86.58-5.72 1.77-8.32a32 32 0 013.74-6.12c.5-.62-.38-1.51-.88-.88-3.2 4.09-6 9.21-5.92 14.54.01 1.63.35 3.25 1 4.75.56 1.3 1.36 2.75 2.53 3.6 2 1.45 4.88 1.74 7.26 1.83a23.1 23.1 0 004.7-.27 8.69 8.69 0 003.45-1.18l-.85-.84c-4.16 6.51-13.38 9.32-20.08 5a10.52 10.52 0 01-3.57-3.79c-1.05-1.93-1.2-4.14-.97-6.3a20.36 20.36 0 014.26-10.28c2.57-3.24 6.15-5.62 10.27-6.25.84-.16.5-1.36-.28-1.24zm-66.01 4.28a3.75 3.75 0 00-.8-1.38 1.67 1.67 0 00.07 1.87 4.96 4.96 0 00-1.7.64.23.23 0 00-.05.08c-.04.14.14.22.29.23a5.36 5.36 0 001.36-.03c.07.05.07.16.05.25l-.22 1.04c-.03.13 0 .3.12.3a.2.2 0 00.12-.1 10 10 0 00.9-1.3c.25.2.45.46.59.76a1 1 0 00.75.57 1.1 1.1 0 00.06-.91c-.11-.3-.26-.58-.45-.83a3.3 3.3 0 001.84-1.33 2.14 2.14 0 00-1.86.22c.18-.58.17-1.2-.04-1.76-.3.06-.45.41-.5.7-.02.3-.13.6-.33.83m60.61 52.75a4.24 4.24 0 00-.92-1.78 1.23 1.23 0 00-.3.97c.04.32.18.72-.09.9a.71.71 0 01-.46.05 2.43 2.43 0 00-1.1.18.39.39 0 00-.1.1c-.1.22.17.4.38.46l.73.24c.08.02.15.06.2.1a.42.42 0 01.06.46c-.08.14-.18.27-.3.38-.19.2-.34.44-.45.7a.59.59 0 00-.05.37c.07.25.41.31.65.18.22-.15.38-.36.49-.6a1 1 0 01.54-.55.26.26 0 01.22 0c.06.04.1.1.13.17l.31.68c.09.19.25.42.44.35.2-.06.22-.27.22-.46 0-.41 0-.83.03-1.25.43.28.94.42 1.46.39.12 0 .24-.03.34-.1.23-.2.08-.6-.18-.77-.25-.16-.57-.2-.83-.34-.07-.04-.15-.1-.13-.2a.23.23 0 01.06-.1c.37-.39.66-.86.83-1.37a.48.48 0 00.04-.2c0-.22-.35-.3-.56-.2-.18.16-.34.33-.46.54-.25.3-.6.5-1 .57m22.53-47.84a4.2 4.2 0 00-.92-1.78 1.22 1.22 0 00-.3.98c.04.32.18.71-.08.9a.72.72 0 01-.48.05 2.5 2.5 0 00-1.1.18.37.37 0 00-.1.1c-.09.21.18.39.39.46l.73.24c.07.02.15.06.2.1a.38.38 0 01.06.46c-.08.14-.19.27-.3.38-.19.2-.34.44-.45.7a.55.55 0 00-.05.37.45.45 0 00.65.18c.22-.16.38-.37.49-.6.1-.25.3-.45.54-.56a.29.29 0 01.22 0c.06.05.1.1.12.17l.32.69c.09.19.24.42.44.35s.22-.28.22-.46c0-.42.02-.83.03-1.25.43.28.94.41 1.45.39.13 0 .25-.04.35-.1.23-.2.08-.6-.18-.77-.26-.17-.58-.2-.83-.34-.07-.04-.15-.11-.14-.2a.23.23 0 01.07-.1c.37-.4.65-.87.83-1.38a.46.46 0 00.04-.19c0-.23-.35-.31-.56-.2-.19.15-.34.33-.46.53-.25.3-.6.51-1 .58m-13.66 112.31a392.8 392.8 0 012.77-18.67.63.63 0 00-.17-.6.63.63 0 00-.6-.17c-.15.03-.24.03-.5.06l-.84.1-2 .15a612.26 612.26 0 01-14.6.71l-2.05.08a.63.63 0 00-.63.62l1.32 18c.06.79 1.3.8 1.25 0l-1.32-18-.62.62c5.4-.18 10.85-.39 16.26-.75 1.36-.1 2.73-.19 4.09-.39l-.77-.76a399.9 399.9 0 00-2.81 19c-.12.8 1.13.8 1.22 0z" fill="#fff"/><path d="M249.33 130.88a37.25 37.25 0 0010.4-18.2c.17-.7.48-1.58.1-2.25a1.67 1.67 0 00-1.61-.73 2.67 2.67 0 00-1.75 1.18 41.67 41.67 0 00-5 8.74c-1.53 3.5-2.77 7.1-4 10.73h1.21a87.23 87.23 0 00-2.57-6.36 59.9 59.9 0 00-3.02-6.01c-.46-.77-1.2-1.38-2.15-1.1-.94.28-1.45 1.3-1.44 2.24 0 1.02.42 2.08.76 3.03a30.72 30.72 0 004.91 9.03l.76-.98-5.6-3.69-2.77-1.81c-.77-.51-1.72-1.4-2.72-1.34a1.36 1.36 0 00-1.25 1.53c.13.73.5 1.4 1.04 1.89a25.82 25.82 0 003.68 3.06 19.27 19.27 0 004.61 2.53c.76.26 1.09-.94.33-1.2a15.77 15.77 0 01-3.4-1.8 27.55 27.55 0 01-3.32-2.5 11 11 0 01-1.25-1.21c-.28-.33-.84-1.36.07-.9.79.46 1.55.95 2.29 1.5l2.33 1.52 5.35 3.52c.64.41 1.16-.47.75-.99a29.1 29.1 0 01-4.94-9.5c-.21-.7-.7-1.87-.13-2.5.66-.73 1.2.66 1.44 1.11a80.41 80.41 0 015.04 11.29.63.63 0 001.2 0c1.96-5.78 3.94-11.63 7.22-16.81.42-.65.84-1.28 1.28-1.9.28-.37.78-1.2 1.36-1.03.48.13 0 1.37-.1 1.72a35.91 35.91 0 01-10 17.33c-.57.53.32 1.42.9.86z" fill="#fff"/><path d="M254.76 114.65l-.18.11-.49-.06c.15-.25.3-.5.42-.74l-.06-.1a30.79 30.79 0 00-2.43-4.57 33.8 33.8 0 00-2.39-3.25c-.26-.38-.58-.7-.94-.98a1.27 1.27 0 00-1.44.05c-.14.1-.26.22-.34.37a2.6 2.6 0 00-.33 1.86c.27 1.53 1.28 2.98 2.3 4.1a25.55 25.55 0 004.21 3.51c.66.47 1.28-.62.63-1.08a24.38 24.38 0 01-3.86-3.21 9.77 9.77 0 01-1.4-1.9c-.33-.6-.74-1.37-.68-2.06 0-.13.06-.55.22-.6.07-.02.41.45.5.53a31.75 31.75 0 014.54 7.12c.14.45.38.86.7 1.2a.88.88 0 001.19 0c.66-.68-.34-1.94-1.06-1.17-.54.57.34 1.46.9.87zm3.3 4.39c1.06-1.64 2.58-3.2 4.43-3.92.27-.1.83-.41 1.02-.06.22.42-.19.88-.46 1.13-.78.76-1.68 1.39-2.65 1.87a16.7 16.7 0 01-3.56 1.24c-.78.2-.45 1.4.33 1.2 1.34-.31 2.63-.78 3.86-1.39a12.6 12.6 0 001.66-1 8.1 8.1 0 001.58-1.4 2.16 2.16 0 00.49-1.92 1.52 1.52 0 00-1.45-1.14c-.6.04-1.2.21-1.72.5-.5.24-.97.52-1.41.84a12.7 12.7 0 00-3.18 3.39c-.44.7.63 1.33 1.06.66zm-13.77.83v-.2c0-.05.03-.22 0-.06l.06-.3c.03-.09.05-.1.06-.16.02-.06 0-.03 0 .03l.05-.09a2.33 2.33 0 01.22-.38c.03-.04-.06.06.04-.06l.23-.24.26-.23.06-.05.13-.1a8.26 8.26 0 012.57-1.17l-.76-.76a20 20 0 01-.27.7l-.03.06-.07.16-.14.29c-.19.39-.41.76-.67 1.1.06-.08 0 0-.04.04l-.1.13-.2.22c-.15.15-.3.28-.47.41l-.05.04-.14.1-.29.2c-.2.12-.41.24-.64.34a.63.63 0 00-.23.86.64.64 0 00.85.22 6.44 6.44 0 002.35-1.9 9.77 9.77 0 001.34-2.65.64.64 0 00-.77-.77c-1.97.6-4.6 1.77-4.57 4.2a.63.63 0 101.24 0l-.02.02zm-9.19-3.04c-.78-.58-1.94-1.1-2.91-.78-1.34.42-1.31 1.98-.72 3.01 1.08 1.91 3.3 2.92 5.3 3.59 1.18.38 2.4.68 3.62.88a.64.64 0 00.77-.43l.23-.68a.63.63 0 00-.16-.61c-1.84-1.88-4.03-3.39-6.11-5a.62.62 0 00-.63 1.08c2 1.53 4.1 2.98 5.85 4.78l-.15-.6-.24.67.77-.41c-2.22-.42-4.55-.95-6.47-2.2-.76-.5-1.9-1.4-1.96-2.4-.06-1.18 1.82-.1 2.2.18a.63.63 0 00.83-.23.63.63 0 00-.22-.85z" fill="#fff"/><path d="M250.47 105.7a3.07 3.07 0 011.71-4.22l-.77-.44c.1.43.12.88.06 1.31a9.35 9.35 0 01-.93 3c-.2.42-.46.81-.75 1.17a.65.65 0 000 .9.63.63 0 00.88 0 9.04 9.04 0 001.67-3.2c.34-1.1.59-2.36.3-3.5a.63.63 0 00-.77-.42 4.32 4.32 0 00-2.46 6.06c.37.68 1.46.05 1.06-.66zm-9.19 31.19h13.17a.62.62 0 00.44-1.07.62.62 0 00-.44-.18h-13.17a.62.62 0 000 1.25zM211.72 24.44a2112.17 2112.17 0 00.47 83.27c.2 7.8.44 15.61.74 23.42.02.8 1.27.8 1.24 0a2073.5 2073.5 0 01-1.2-106.7.63.63 0 00-1.25 0zm4.77 48.43a1085.2 1085.2 0 0056.2-.44c.8-.02.8-1.27 0-1.24a1066.33 1066.33 0 01-56.2.43c-.8-.02-.8 1.23 0 1.25zm.31 6.37a1079.6 1079.6 0 0158.14-1.06.62.62 0 000-1.25 1061.67 1061.67 0 00-45.37.57 774 774 0 00-12.77.5c-.8.02-.8 1.27 0 1.24zm-96.18 47.51c-1.37-3.14-.13-6.75 1.1-9.94l2.92-7.56a12.45 12.45 0 00-6.66 6.45c.39-3.9.24-7.84-.45-11.7-.14-.8-.8-1.83-1.48-1.4a1.27 1.27 0 00-.41.9c-.63 3.55-.8 7.17-.5 10.77-.17-4.12-.41-8.42-2.49-11.97-.95.59-1.11 1.88-1.16 3a140.2 140.2 0 00-.06 10.46 40.32 40.32 0 00-2.74-9.23c-.26-.58-1-1.25-1.4-.74-.96 3.6.61 7.34 2.14 10.75a16.26 16.26 0 00-4.74-5.75 23.76 23.76 0 004.47 12.7c1.66 2.28 3.83 4.7 3.32 7.47" fill="#fff"/><path d="M121.12 126.61c-1.15-2.74-.35-5.7.62-8.36 1.07-2.98 2.27-5.91 3.4-8.87a.52.52 0 00-.64-.64 13.06 13.06 0 00-6.97 6.7l.97.26c.4-3.88.26-7.8-.41-11.65a2.82 2.82 0 00-.95-1.8 1.13 1.13 0 00-.85-.25 1.14 1.14 0 00-.78.43c-.5.6-.5 1.66-.6 2.4a42.18 42.18 0 00-.27 9.43c.04.66 1.06.67 1.03 0-.18-4.16-.42-8.53-2.58-12.23a.52.52 0 00-.71-.18 3.21 3.21 0 00-1.3 2.3c-.14 1.16-.2 2.33-.2 3.5-.07 2.7-.06 5.4.03 8.1l1.02-.14a40.98 40.98 0 00-2.01-7.44c-.24-.76-.55-1.5-.94-2.2a1.74 1.74 0 00-1.36-.89c-.8.03-.91.83-1.01 1.48-.22 1.6-.11 3.24.32 4.8a33.84 33.84 0 002.05 5.42l.9-.53a17.09 17.09 0 00-4.92-5.93.52.52 0 00-.78.45 24.43 24.43 0 003.05 10.65c.9 1.6 2.04 3 3.1 4.5.98 1.42 1.95 3.08 1.66 4.88-.12.65.89.94 1 .27.47-2.84-1.38-5.17-2.98-7.32a23.43 23.43 0 01-4.8-12.96l-.79.45a15.98 15.98 0 014.55 5.55c.3.61 1.17.08.9-.52a32.82 32.82 0 01-1.93-5.08 11.34 11.34 0 01-.28-4.63c0-.09.03-.18.05-.27.1-.17.07-.23-.07-.17.28.05.49.44.6.67.2.42.36.87.53 1.3a40.28 40.28 0 012.16 7.8c.1.58 1.04.44 1.02-.14a147.18 147.18 0 01.08-10.74c.05-.8.16-1.78.88-2.27l-.7-.18c2.05 3.53 2.25 7.72 2.43 11.7h1.03a42.23 42.23 0 01.54-10.92c.15-.46.36-.29.56.04.2.36.31.75.35 1.15a39.52 39.52 0 01.52 4.8c.1 2.12.05 4.25-.16 6.37a.52.52 0 00.72.47.5.5 0 00.25-.2 12.03 12.03 0 016.36-6.22l-.64-.64c-1.19 3.06-2.45 6.11-3.55 9.22-.95 2.72-1.66 5.78-.48 8.55.23.62 1.22.35.98-.27z" fill="#020202"/><path d="M155.75 176.78c-.13-8.12.02-19.91-.1-28.03l6.16-9.03c-2.8 5.5-6.68 10.37-10.54 15.2l-14.81 18.51c-.18.28-.44.49-.74.61-.46.14-.92-.14-1.3-.41-9.95-7.19-15.98-18.55-20.6-29.9-1.93-4.76-3.71-9.82-3.02-14.9l11.15-3.48L136 154.6l-.88 4.34a195.22 195.22 0 0117.02-35.17c1.33-2.15 2.72-4.32 4.65-5.96 1.93-1.65 4.47-2.74 6.98-2.36 0 0 7.27-.93 11.36-2.92 4.1-1.98 6.95-5.66 6.95-5.66 1.91 1.26 4.1 2 6.38 2.18.87.07 1.79.06 2.55.48.57.35 1.06.83 1.42 1.4 3.22 4.39 4.82 9.73 6.37 14.95l2.98 50.94" fill="#fff"/><path d="M156.26 176.78c-.1-7.1-.03-14.22-.04-21.33l-.03-5.1v-1.1c0-.08.03-.55-.08-.25l.03-.03a1635.63 1635.63 0 013.47-5.07l2.67-3.92-.9-.53c-2.9 5.67-6.9 10.64-10.85 15.58l-13 16.24c-.52.65-1.02 1.34-1.58 1.97-.33.37-.63.32-1.03.07a39.55 39.55 0 01-4.13-3.38 48.46 48.46 0 01-5.66-6.32 78.32 78.32 0 01-8.47-14.65 109.9 109.9 0 01-3.43-8.23c-1.12-3.05-2.02-6.25-2.04-9.52 0-.8.05-1.61.15-2.41l-.38.5 11.15-3.48-.59-.23 10.95 22.78 3.1 6.47c0-.13-.03-.27-.05-.42l-.9 4.34a.53.53 0 00.39.6.53.53 0 00.63-.32 194.52 194.52 0 0115.39-32.4c1.44-2.44 2.85-5 4.75-7.12 1.82-2.03 4.33-3.74 7.17-3.67.49.05.99.05 1.48 0a61.54 61.54 0 008.1-1.78 20.72 20.72 0 009.95-6.88l-.63.08a15.21 15.21 0 007.35 2.3c.6 0 1.2.15 1.73.44.52.39.96.87 1.3 1.42a27.26 27.26 0 012.05 3.4 48.27 48.27 0 012.88 7.3c.2.6.38 1.22.57 1.83.18.61.44 1.25.58 1.87v.14c.11.95.11 1.92.17 2.88l.34 5.85a36070.93 36070.93 0 001.96 33.31c.16 2.88.28 5.76.5 8.63v.13c.05.66 1.09.67 1.04 0l-.41-7.28-.96-16.33a30258.02 30258.02 0 00-1.58-26.96 6.87 6.87 0 00-.35-1.56c-.75-2.5-1.52-5-2.52-7.41a30.09 30.09 0 00-3.8-6.89 4.14 4.14 0 00-2.98-1.76 23.12 23.12 0 01-3.82-.58 13.43 13.43 0 01-3.53-1.63.51.51 0 00-.63.08 19.62 19.62 0 01-8.69 6.35 42.4 42.4 0 01-6.3 1.6c-.73.15-1.48.28-2.22.4l-.62.08h-.07c-.13 0-.26 0-.39-.03-2.62-.26-5.2.97-7.13 2.67-2.14 1.88-3.64 4.37-5.1 6.78a197.78 197.78 0 00-16.59 34.47l1 .27.7-3.33c.12-.39.2-.8.2-1.2a3.39 3.39 0 00-.41-.95l-.45-.94-1-2.08-7.83-16.32a3452.3 3452.3 0 01-4.41-9.19.52.52 0 00-.59-.24l-11.15 3.48a.54.54 0 00-.38.5c-.83 6.52 2.05 12.93 4.6 18.75a84.7 84.7 0 008.49 15.44 52.88 52.88 0 005.58 6.63 44.07 44.07 0 004.92 4.24c.57.41 1.25.9 1.99.68.74-.21 1.17-1 1.61-1.56l1.7-2.11 3.37-4.23 6.76-8.44c4.13-5.18 8.48-10.3 11.78-16.07.41-.7.8-1.42 1.17-2.16a.52.52 0 00-.9-.52l-5.61 8.22c-.29.42-.63.76-.62 1.28.03 1.67.04 3.33.05 5v10.98c0 3.94 0 7.9.05 11.83a.52.52 0 00.49.44.52.52 0 00.52-.39z" fill="#020202"/><path d="M165.65 176.9c2.2-7.5 4.13-14.6 5.57-22.29 1.34-7.21 2.39-14.61 5.56-21.23.83-1.7 1.83-3.4 3.44-4.37 1.3-.79 2.85-1.02 4.37-1.21a200.03 200.03 0 0123.87-1.67c4.22-.04 8.8.19 12.01 2.91 3.57 3.05 4.31 8.2 4.58 12.89a203.2 203.2 0 01-1.33 35.22" fill="#020202"/><path d="M166.15 177.03c1.4-4.8 2.76-9.63 3.91-14.5 1.16-4.87 1.97-9.7 2.92-14.57.9-4.68 2-9.38 3.98-13.73.88-1.93 1.95-4 3.91-5a10.5 10.5 0 013.33-.88 201.6 201.6 0 0126.56-1.69c2.08 0 4.14.33 6.12.96a9.69 9.69 0 014.78 3.48 14.34 14.34 0 012.2 5.34c.84 3.86.84 7.94.92 11.87a201.01 201.01 0 01-1.55 28.7c-.09.66.92.94 1 .28a190.5 190.5 0 001.61-26.31c0-4.13-.02-8.32-.56-12.42-.52-3.96-1.8-8.03-5.18-10.46-3.52-2.53-8.2-2.54-12.35-2.5-5.36.07-10.7.35-16.04.83-2.6.24-5.2.52-7.79.89-2.25.31-4.3.99-5.79 2.8-1.48 1.82-2.34 3.98-3.14 6.1a55.66 55.66 0 00-2.11 7.1c-1.14 4.85-1.84 9.78-2.87 14.65a223.67 223.67 0 01-3.8 15.08l-1.06 3.66a.52.52 0 00.34.66.52.52 0 00.66-.34zM92.36 66.8c.17.26.39.5.65.67.27.22.58.4.9.5.63.16 1.27.17 1.9.05a.42.42 0 000-.83c-.53.1-1.06.1-1.57 0a1.77 1.77 0 01-.64-.32 1.9 1.9 0 01-.52-.5.42.42 0 10-.72.4v.02zm2.71-3.9a3 3 0 00.45 2.12l.17.22.06.08c-.04-.05 0 0 0 0a.15.15 0 01.06-.17c.08-.13.1-.17.04-.13l-.06.02-.22.08c-.15.05-.3.09-.47.11a.42.42 0 10.22.8 3.06 3.06 0 001.04-.36.55.55 0 00.17-.64c-.04-.1-.1-.2-.18-.3l-.07-.08c-.08-.1.04.06-.04-.04a3.07 3.07 0 01-.21-.38c0-.02-.04-.09 0-.03l-.05-.12c0-.07-.04-.13-.05-.2a3.1 3.1 0 01-.05-.22v-.55a.42.42 0 10-.8-.22v.02zm-1.27-.47a.5.5 0 00-.24-.06.42.42 0 00-.17.04.41.41 0 00-.16.1.74.74 0 00-.09.1.83.83 0 00-.09.3 2 2 0 00-.03.31v.11c0 .07.01.13.03.2a.53.53 0 00.67.36l.12-.06a.63.63 0 00.12-.1 1.07 1.07 0 00.21-.9.83.83 0 00-.19-.34.42.42 0 00-.7.3v.11a.7.7 0 00.1.19l-.06-.09.04.08-.04-.1.03.1v-.1.15V63a.8.8 0 01-.06.22l.04-.1-.04.08.07-.08-.03.03.08-.07-.03.02.1-.04h-.05.12-.03.1-.02l.1.04.08.07.07.08v-.03l.04.1v-.05.1a.86.86 0 010-.32v.1c0-.06.02-.12.04-.18l-.04.1.02-.04-.07.09.02-.02-.08.06-.1.04h-.22l-.1-.04c.1.06.21.07.32.04.1-.03.2-.1.25-.19a.42.42 0 00-.15-.57l.01-.02zm3.51.39a.47.47 0 00-.23-.06.48.48 0 00-.41.25.7.7 0 00-.1.29l-.03.31v.11c0 .07.02.13.04.2.02.09.07.17.13.23.1.1.22.15.35.15.06 0 .12 0 .18-.02l.13-.06a.57.57 0 00.1-.1 1 1 0 00.24-.6.8.8 0 00-.2-.63.42.42 0 00-.71.3v.1c.02.07.05.14.1.19l-.06-.1.04.09-.04-.1.03.1v-.11.15-.1l-.07.21.05-.1-.05.08.07-.09-.03.03.09-.06-.04.02.1-.04h-.04.1-.02.11-.03l.1.04.09.06.06.08v-.02l.04.1v-.06.1-.32.11c.01-.06.02-.13.05-.19l-.05.1v-.03l-.06.08-.08.06-.1.04h-.21l-.1-.04c.1.05.2.07.32.04a.42.42 0 00.29-.5.42.42 0 00-.15-.29zm12.65 5.08a6.67 6.67 0 01-.32 3.1.4.4 0 00.04.32.41.41 0 00.57.16.42.42 0 00.2-.25 7.5 7.5 0 00.3-3.55.42.42 0 00-.34-.3.42.42 0 00-.41.2.4.4 0 00-.04.32zm1.42.82a11 11 0 01-.47 3.03.42.42 0 00.15.44.42.42 0 00.3.08.42.42 0 00.35-.3c.32-1.06.49-2.15.5-3.25a.42.42 0 10-.83 0zm62.37 23.16c.06-.11.13-.22.21-.32l-.08.1c.16-.2.35-.4.56-.55l-.1.08c.2-.17.43-.3.67-.42l-.13.06.2-.08a.56.56 0 00.3-.23c.08-.13.1-.28.06-.42a.53.53 0 00-.64-.36 3.7 3.7 0 00-1.95 1.58.5.5 0 00-.08.2.5.5 0 00.1.4.53.53 0 00.35.2.52.52 0 00.53-.27v.03z" fill="#020202"/><path d="M181.63 106.33a11.3 11.3 0 00-3.72-2.91c.13 1.19-1.02 2.55-1.9 3.36-2.91 2.7-12.62 5.05-12.62 5.05a11.25 11.25 0 00-.69 2.82.63.63 0 00.62.54c4.11.96 8.84-.51 12.52-2.57 2.08-1.17 3.6-2.92 5.37-4.52.23-.16.39-.4.45-.68.02-.29.16-.86-.03-1.09z" fill="#6F4AB3"/><path d="M79.2 165.15c5.22 0 9.44-1.36 9.44-3.03 0-1.67-4.22-3.02-9.43-3.02s-9.44 1.35-9.44 3.02 4.23 3.03 9.44 3.03z" fill="#020202"/><path d="M88.64 162.12h-.1a1.45 1.45 0 01-.7 1.1 9.02 9.02 0 01-3.38 1.3c-1.73.36-3.5.54-5.26.52-2.25.04-4.49-.25-6.65-.88a6.83 6.83 0 01-2-.94 1.2 1.2 0 010-2.2 9.02 9.02 0 013.39-1.3 25.3 25.3 0 015.25-.52c2.25-.04 4.49.26 6.65.88.71.2 1.39.52 2 .95a1.45 1.45 0 01.7 1.1h.2a1.67 1.67 0 00-.78-1.26 9.2 9.2 0 00-3.46-1.34 25.43 25.43 0 00-5.3-.53c-2.26-.03-4.52.27-6.7.9-.73.2-1.42.54-2.05.97a1.41 1.41 0 000 2.53 9.18 9.18 0 003.46 1.34c1.74.36 3.51.54 5.3.53a23 23 0 006.7-.9 7.07 7.07 0 002.05-.97 1.67 1.67 0 00.78-1.25l-.1-.03zm12.98 15.31l37.77.08 38.87.08 35.15.07 25.82.06c3.84 0 7.69 0 11.53.04.1 0 .25.05.02 0a.52.52 0 00.64-.36.52.52 0 00-.36-.64c-.25-.04-.5-.05-.75-.03h-8.61a24813 24813 0 00-24.4-.06l-34.3-.07-38.89-.08-38.1-.08h-4.4a.52.52 0 000 1z" fill="#020202"/></g><rect x=".5" y=".5" width="325" height="199" rx="11.5" stroke="#F7F7F8"/><defs><clipPath id="a"><path fill="#fff" transform="translate(47 19)" d="M0 0h232v162H0z"/></clipPath></defs></svg>