<svg width="326" height="200" fill="none" xmlns="http://www.w3.org/2000/svg"><rect x=".5" y=".5" width="325" height="199" rx="11.5" fill="#fff"/><g clip-path="url(#a)"><path d="M188.02 127.28c-.38-.35-5.79-2.32-6.52-3.44-.16-.26 0-1.91 0-2.23.16-1.7.63-4.44.96-6.1 0 0-2.08 1.38-4.48 1.07-2.4-.3-2.64-.94-2.64-.94-.31 2.31-.56 4.72-1.46 6.88-.09.27-.24.52-.44.72-.25.2-5.7 1.36-6.03 1.42 0 0 2.58 7.8 7.85 8.24 5.28.44 12.76-5.63 12.76-5.63z" fill="#fff"/><path d="M188.37 126.92a6.7 6.7 0 00-1.7-.84c-1-.42-1.98-.85-2.94-1.34a13.55 13.55 0 01-1.61-.97 1.3 1.3 0 01-.15-.15l-.03-.04c-.06-.48-.05-.97.03-1.45.04-.53.1-1.06.16-1.6.22-1.64.5-3.28.83-4.9.07-.4-.35-.83-.74-.57a6.57 6.57 0 01-6.31.43c-.11-.07-.03 0-.1-.07-.07-.06-.03-.04 0 .08-.16-.4-.9-.56-.97 0-.19 1.86-.52 3.7-.98 5.52-.13.47-.3.92-.49 1.37-.05.14-.12.28-.22.4-.06.08.1-.05 0 0a96.01 96.01 0 01-5.89 1.37.52.52 0 00-.3.23.5.5 0 00-.04.38c.93 2.8 2.66 5.73 5.12 7.43 3.98 2.73 9.09.16 12.68-2.06a34.32 34.32 0 003.6-2.54c.51-.4-.2-1.11-.7-.7-.74.6-1.72 1.28-2.62 1.87a26.2 26.2 0 01-5.91 3c-1.96.66-4.08.97-5.96-.07a10.65 10.65 0 01-3.8-4.08c-.6-.99-1.08-2.03-1.45-3.12l-.35.62c1.35-.26 2.7-.57 4.03-.89a17 17 0 001.84-.47c.32-.13.59-.38.74-.7.32-.65.58-1.34.75-2.06.42-1.73.72-3.48.91-5.26h-.97c.14.29.37.52.65.66.8.38 1.67.6 2.56.66a7.36 7.36 0 004.64-1.15l-.73-.57a76.4 76.4 0 00-.78 4.6c-.2 1.13-.3 2.28-.28 3.44.04.91.75 1.34 1.49 1.76a30.2 30.2 0 002.98 1.45l1.5.66.55.25c.07.03.34.22.21.1.53.43 1.24-.26.75-.68z" fill="#020202"/><path d="M206.37 82.88a28.89 28.89 0 0028.92-28.86 28.89 28.89 0 00-28.92-28.85 28.89 28.89 0 00-28.92 28.85 28.89 28.89 0 0028.92 28.86z" fill="#6F4AB3"/><path d="M224.24 61.27a8.42 8.42 0 00-2.98-.67c-1.2-.04-2.37.23-3.56.26a3.99 3.99 0 01-2.8-.86c-.3-.27-.51-.62-.6-1.01-.1-.48-.03-.97-.33-1.39-.51-.71-1.58-.68-2.26-.22-.07.04-.13.1-.2.15-.4-1.04-.8-2.07-1.1-3.14a8.95 8.95 0 01-.45-4 .45.45 0 00-.1-.38c.23-.35.43-.7.61-1.08.9-1.84 1.52-3.8 1.85-5.83a.48.48 0 00-.57-.54c.48-.3.9-.7 1.2-1.16a32.94 32.94 0 01-1.05 4.12c-.26.73-.43 1.5-.5 2.28a3.23 3.23 0 001.8 3.15 3.63 3.63 0 003.6-.29c1.2-.8 1.6-2 2.16-3.24a4.3 4.3 0 011.18-1.56c.49-.36.95-.74 1.37-1.16a2.99 2.99 0 00.09-3.82c-.8-1.15-2.14-1.7-3.44-2.11.72-.9 1.84-1.46 2.72-2.18 1.16-.95 1.81-2.28 1.2-3.75-.66-1.66-2.32-2.98-3.87-3.77a10.2 10.2 0 00-2.58-.9 2.9 2.9 0 01-1.31-.5c-.33-.33-.6-.7-.82-1.1a5.05 5.05 0 00-.53-.63 28.95 28.95 0 00-16.3.9c-.03.17-.05.34-.1.51-.12.55-.67.6-1.14.77-.57.18-1.13.42-1.65.72a5 5 0 00-2.22 2.4 3.4 3.4 0 00.27 3.27 4.9 4.9 0 001.88 1.5c-2.3.9-4.26 2.8-4.87 5.2-.66 2.63.43 5.78 2.89 7.1a4.26 4.26 0 003.4.35 3.15 3.15 0 001.32 2.8c1.4.96 3.28.24 4.07-1.15.2-.37.33-.78.35-1.2.33.45.7.88 1.1 1.27a.44.44 0 00-.13.4c.44 2.34.83 4.64.68 7.01a1.86 1.86 0 00-1.2-.75c-1.72-.31-2.73 1.67-1.77 2.98.11 1.28-1.77 1.86-2.78 1.96-1.37.14-2.77-.02-4.11.34-2.5.68-5.15 8.65-6.16 12.63a28.92 28.92 0 0041.32-1.64c.38-.61.73-1.25 1.05-1.91a8.34 8.34 0 00-4.63-10.13zm-74.04 67.45c-5.5.57-9.48 1.2-14.8 2.73-1.66-6.19-5.98-11.85-7.95-18.13l-.35-1.02c-1.56-3.23.45-7.07 0-10.62-.04-.28-.14-.62-.4-.67-1.01 1.9-1.46 4.04-1.9 6.16.2-2.3.78-5.66.68-7.95 0-.4-.73-.25-.88.05-.95 1.85-1.19 4.83-1.13 6.95.05-2.4-.01-4.8-.17-7.2-.04-.58-.4-1.36-.92-1.15-.91 2.83-.84 5.87-.76 8.84l-.84-8.17c-.03-.34-.8-.4-.95-.03-1.33 3.24-.6 7.25.08 10.76-.83-.5-1.18-1.5-1.71-2.3-.54-.8-1.6-1.47-2.41-.93.52 2.7 3.02 4.6 4.16 7.06.17.37 2.49 1.95 2.49 1.95 2.4 4.72 5.88 19.46 8.92 23.8.13.2.3.4.51.54.32.16.67.23 1.03.2 1.56.03 13.73-1.1 16.18-1.81" fill="#fff"/><path d="M150.2 128.22a85.47 85.47 0 00-14.93 2.75l.62.35c-1.2-4.49-3.66-8.5-5.7-12.66-.9-1.9-1.7-3.86-2.38-5.85-.3-.7-.54-1.43-.72-2.17-.14-1.1-.12-2.2.06-3.28.17-1.28.4-2.56.5-3.86.04-.91.25-2.58-.84-2.97a.5.5 0 00-.56.23c-1.02 1.96-1.5 4.12-1.95 6.27l.99.14c.14-1.6.37-3.21.53-4.81.08-.8.15-1.65.16-2.47 0-.57.06-1.27-.64-1.41a1.2 1.2 0 00-1.3.76 9.66 9.66 0 00-.71 2.23c-.3 1.56-.43 3.15-.38 4.73a.5.5 0 00.86.36.5.5 0 00.14-.36c.03-1.81.01-3.63-.07-5.45-.04-.92.16-3.39-1.31-3.42-.8 0-.9 1.04-1.03 1.65-.18.83-.3 1.66-.38 2.5a45.95 45.95 0 00-.06 5.22h1l-.5-4.97-.26-2.53c-.06-.57-.03-1.2-.68-1.4-1.36-.4-1.66 1.35-1.84 2.3a15.6 15.6 0 00-.18 4.28c.16 1.68.42 3.36.77 5l.74-.56c-.94-.6-1.18-1.81-1.92-2.6-.75-.77-1.79-1.2-2.72-.62a.52.52 0 00-.23.56c.54 2.6 2.65 4.36 3.9 6.59.16.35.37.68.63.97.32.28.65.55 1 .8l1.01.73.28.19.05.03c-.18-.14-.12-.1-.06.05.26.7.6 1.36.86 2.06.32.86.63 1.74.93 2.61.7 2.08 1.35 4.18 2 6.27.66 2.08 1.37 4.22 2.12 6.3.6 1.76 1.32 3.47 2.15 5.12.36.68.8 1.6 1.49 1.97.56.32 1.28.25 1.9.22 1.5-.08 2.98-.22 4.46-.35 3.5-.33 7.06-.6 10.5-1.3l.67-.16a.5.5 0 00.34-.6.5.5 0 00-.6-.36c-1.24.3-2.49.5-3.75.63-1.88.25-3.76.45-5.65.63-1.65.17-3.31.33-4.97.45-.49.03-.98.07-1.46.08-.37.06-.74 0-1.06-.19a3.7 3.7 0 01-.68-.94 29.25 29.25 0 01-2.06-4.6c-.76-2.03-1.44-4.09-2.1-6.15-1.2-3.74-2.27-7.57-3.8-11.2-.22-.53-.4-1.16-.88-1.5-.62-.44-1.26-.87-1.84-1.36a2.16 2.16 0 01-.59-.83 14.7 14.7 0 00-1.03-1.57c-.8-.98-1.52-2.02-2.17-3.1a6.39 6.39 0 01-.64-1.74l-.23.56c.83-.5 1.64.58 2 1.2.45.77.86 1.54 1.61 2.04.4.26.8-.16.74-.56-.57-2.95-1.2-6.11-.52-9.1.08-.34.18-.68.3-1.02a.6.6 0 01.13-.26c.04-.04 0-.05 0 .16 0 .84.17 1.7.26 2.53l.53 5.26c.07.63 1.02.65 1 0-.07-2.92-.13-5.89.75-8.7l-.35.35c.35-.1.4 3.14.43 3.47.05 1.46.05 2.92.03 4.38h1a21.2 21.2 0 01.23-3.84 12.09 12.09 0 01.77-2.74s.12-.18.12-.14h.05c-.14-.19-.2-.18-.15 0-.02.28-.02.57 0 .85 0 .31-.03.62-.05.92-.05.7-.12 1.4-.2 2.1-.15 1.27-.32 2.53-.43 3.8a.5.5 0 00.78.42.5.5 0 00.2-.28c.43-2.06.87-4.15 1.85-6.03l-.57.22c.18.07.12 1.35.11 1.52-.01.56-.05 1.11-.13 1.67-.13 1.06-.32 2.12-.44 3.18a10.4 10.4 0 00.07 3.2c.18.69.4 1.36.68 2a53.67 53.67 0 002.2 5.47c.97 2.05 2.05 4.05 3.06 6.08a38.05 38.05 0 012.81 6.97.5.5 0 00.62.35 84.45 84.45 0 0114.71-2.7c.64-.07.65-1.08 0-1v-.02z" fill="#020202"/><path d="M181.71 173.31l-.75 4.63-18.49-.44.07-2.97 4.29-.27 3.26.36 2.74-.75 8.88-.56zM80.8 64.64a41.31 41.31 0 01-18.1 70.71 41.52 41.52 0 01-29.01-3.52 41.26 41.26 0 01-.58-72.98 41.52 41.52 0 0128.96-3.97" fill="#6F4AB3"/><path d="M54.1 78.57c2.2-.63 6.52-9.06 7.33-11.18l.23-3.64-.8-1.2a1.38 1.38 0 01-1.02-.76 5.47 5.47 0 01-.84-3.45c.07-.7.47-1.55 1.18-1.53.62 0 .99.69 1.2 1.26 0 0 1.61-5.7 5.38-5.93 3.77-.23 15.71 1.83 16.07 2.51.35.68.93 6.64-6.2 15.05 0 0-2.8 4.96-5.18 5.52-2.37.57-4.72 2.68-4.72 2.68a7.55 7.55 0 001.1 6.57s5.48 3.57-1.36 4.63c-6.83 1.06-14.89-.45-15.2-2.27-.3-1.82 3.35-8.34 3.35-8.34" fill="#fff"/><path d="M54.23 79.05c.6-.23 1.13-.61 1.55-1.1.6-.67 1.15-1.38 1.64-2.12a49.86 49.86 0 004.19-7.59c.14-.27.25-.55.31-.85.03-.19.03-.4.04-.59l.15-2.4c.03-.2.04-.42.04-.63a2 2 0 00-.43-.8c-.22-.33-.4-.74-.8-.87-.79-.26-1.14-1.32-1.32-2.06-.17-.73-.28-1.67.1-2.34.5-.85 1.04.16 1.26.67.18.4.8.25.92-.12.61-2.16 2.06-4.98 4.44-5.5.62-.1 1.25-.13 1.87-.07.75.03 1.5.1 2.25.16a85.73 85.73 0 0110.08 1.61c.51.12 1.02.24 1.52.4.13.04.25.09.37.15.15.06-.04-.09-.04-.1.01.09.03.18.06.26 0 .06 0 .12.03.17v.2c.03.42.03.85 0 1.28a15.38 15.38 0 01-1 4.17 26.52 26.52 0 01-3.22 5.85c-.4.56-.8 1.11-1.24 1.65-.28.35-.61.69-.86 1.07-.25.38-.52.85-.8 1.27-.9 1.35-1.97 2.89-3.42 3.7-.37.17-.76.3-1.16.4-.6.2-1.2.46-1.75.77a15.57 15.57 0 00-2.66 1.9c-.35.4-.4 1.24-.43 1.76a8 8 0 00.48 3.6c.26.7.61 1.61 1.23 2.06a5.8 5.8 0 011.59 1.62.8.8 0 010 .94c-.46.6-1.42.8-2.1.94a31.86 31.86 0 01-11.29-.03c-.9-.16-1.79-.4-2.65-.71-.5-.16-.97-.43-1.36-.8-.11-.15-.1-.17-.1-.37.01-.27.06-.54.13-.8.2-.76.47-1.5.8-2.23a50.75 50.75 0 012.38-4.8c.31-.56-.55-1.06-.87-.5-.53.95-1.03 1.92-1.5 2.9-.72 1.48-1.51 3.05-1.83 4.68-.17.52-.12 1.08.11 1.57.39.5.91.9 1.51 1.11 1.93.85 4.1 1.15 6.19 1.33 2.7.25 5.43.16 8.12-.27 1.3-.22 3.64-.73 3.6-2.47 0-1.03-.88-1.92-1.63-2.53-.21-.18-.5-.32-.69-.52.18.19 0-.06 0-.08a6.8 6.8 0 01-1.14-3.35 7 7 0 01.24-2.41c0-.05-.12.12-.06.04l.26-.22c.76-.62 1.58-1.15 2.45-1.6.93-.48 2-.62 2.9-1.2a9.58 9.58 0 002-1.85c.6-.7 1.14-1.44 1.63-2.2.25-.39.46-.8.72-1.16.33-.48.75-.92 1.1-1.38.48-.6.93-1.23 1.36-1.87.7-1.02 1.33-2.08 1.88-3.18 1.25-2.46 2.4-5.5 2.06-8.33a2.04 2.04 0 00-.2-.8 1.58 1.58 0 00-.9-.54c-1.28-.4-2.6-.7-3.92-.9a65.4 65.4 0 00-10.66-1.34c-.7-.05-1.4.03-2.07.21a5.4 5.4 0 00-2.18 1.42 11.31 11.31 0 00-2.6 4.7l.9-.12c-.31-.75-.85-1.56-1.77-1.5-.92.06-1.37.93-1.51 1.7a5.6 5.6 0 00.36 3.07c.36.9.9 1.84 1.95 1.97l-.44-.25c.08.1.76 1.2.8 1.18-.28.13 0-.4-.06-.16v.23l-.06.87-.11 1.9c0 .17-.02.34-.04.5-.02.12.04-.11-.02 0l-.1.27a45.83 45.83 0 01-4.28 7.75c-.42.64-.89 1.24-1.4 1.8-.31.4-.7.7-1.16.92-.61.19-.35 1.16.27.97v-.08z" fill="#020202"/><path d="M189.85 105.36a.97.97 0 011 .64c.14.4.15.84.04 1.26a6.48 6.48 0 01-1.33 2.8c-.3.44-.75.75-1.27.88a.97.97 0 01-.74-.16.93.93 0 01-.39-.65v-.76a18.9 18.9 0 01-2.85 4.6c-1.24 1.6-2.74 3.07-4.68 3.52-2.38.55-5.25-.5-6.4-2.66-2.45-4.66-.32-14 .41-16.33 0 0 3.73-8.5 7.8-8.41 4.09.08 11.1 2.65 11.36 3.54.27.88-2.95 11.73-2.95 11.73z" fill="#fff"/><path d="M189.85 105.86c.9-.07.58 1.26.44 1.75-.2.73-.55 1.42-1.02 2.03-.25.32-1.15 1.28-1.56.62-.14-.22-.04-.63-.03-.88 0-.61-.78-.62-.99-.13a19.22 19.22 0 01-2.81 4.49c-1.05 1.32-2.32 2.65-3.99 3.17a5.64 5.64 0 01-4.45-.56 5.15 5.15 0 01-2.32-3.23c-.78-2.73-.58-5.73-.22-8.5a48.52 48.52 0 011-5.16 8.65 8.65 0 01.21-.75c.02-.07-.04.1 0 .03a28.95 28.95 0 012.27-4.09c.64-.98 1.39-1.88 2.24-2.69.7-.64 1.6-1.29 2.6-1.36a13.7 13.7 0 013.91.52c1.43.33 2.84.74 4.22 1.24.97.31 1.9.74 2.78 1.27.11.08.13.16.25.2l-.03-.07c-.04.2-.06.4-.07.6-.33 1.9-.88 3.77-1.4 5.63a258.1 258.1 0 01-1.4 4.96l-.09.27a.51.51 0 00.05.38.5.5 0 00.3.24.5.5 0 00.38-.05.5.5 0 00.24-.3c1.02-3.45 2.1-6.93 2.81-10.47.1-.5.34-1.22.07-1.7-.4-.68-1.46-1.04-2.13-1.33a29.55 29.55 0 00-8.72-2.34 4.95 4.95 0 00-3.27.67 10.65 10.65 0 00-2.66 2.53 26.45 26.45 0 00-3.12 5.17 9.1 9.1 0 00-.52 1.69c-.3 1.2-.55 2.46-.74 3.7-.47 3.01-.74 6.2-.1 9.22.3 1.38.83 2.8 1.88 3.78a6.67 6.67 0 004.38 1.73 6.9 6.9 0 004.7-1.89 19.99 19.99 0 003.53-4.34c.46-.77.86-1.57 1.2-2.4l-.99-.14c0 .68-.07 1.34.56 1.79.99.69 2.09 0 2.74-.8a6.86 6.86 0 001.45-3.2c.16-1.04-.28-2.41-1.56-2.3-.66.05-.66 1.05-.02 1z" fill="#020202"/><path d="M196.22 93.58c-.37-.44-.69-.9-.95-1.41a9.22 9.22 0 01-.31-1.04 5 5 0 00-8.17-2.31c-3.6-2.74-5.13-3.33-7.9-3.86-2.76-.52-6.2 1.56-6.67 4.33-.13.76 0 1.53-.2 2.27-.13.57-.44 1.08-.64 1.63-.83 2.34-.62 6.5 1.83 6.92.48-1.56 1.2-4.64 4.65-4.84a2.88 2.88 0 004.91-1.68 5.55 5.55 0 005.53 2.4c-1.44 2.13-1.86 5.61-.58 7.98-.06 1.08-.8 2.09-.03 3.08.36.46 1.15.11 1.52-.35.36-.47.65-1.08 1.22-1.25-.37.9.61 1.94 1.61 1.89 1-.05 1.78-.85 2.22-1.72.51-1.01.53-2.49-.47-3.02 3.24-1.45 4.5-6.11 2.43-9.02z" fill="#fff"/><path d="M196.66 93.34a5.6 5.6 0 01-1.06-1.72 5.66 5.66 0 00-2.84-3.9 5.63 5.63 0 00-6.32.76l.61-.08c-1.76-1.33-3.61-2.64-5.72-3.34-1.85-.6-3.77-.94-5.62-.21s-3.69 2.37-3.99 4.5c-.08.64 0 1.3-.13 1.93-.13.7-.53 1.3-.74 2a8.9 8.9 0 00-.4 2.64c0 1.81.54 4.29 2.64 4.7a.52.52 0 00.62-.34c.23-.94.6-1.85 1.07-2.69a3.84 3.84 0 013.09-1.8l-.36-.14a3.4 3.4 0 005.76-1.9l-.92.12a6.1 6.1 0 006.1 2.63l-.58-.74a8.8 8.8 0 00-.65 8.37c-.02.18-.06.34-.12.5-.1.36-.17.71-.23 1.07-.08.65.08 1.47.66 1.87a1.45 1.45 0 001.65-.16c.53-.38.78-1.25 1.4-1.47l-.62-.62a1.93 1.93 0 001.1 2.3c.96.46 2.01.1 2.75-.57 1.27-1.16 2.03-3.82.23-4.88v.87c3.5-1.62 4.82-6.55 2.63-9.7-.37-.53-1.24-.03-.87.5a5.82 5.82 0 01-2.27 8.33.52.52 0 00-.24.44.5.5 0 00.24.43c1.06.62.48 2.25-.12 2.98-.38.46-1 .93-1.64.8a1 1 0 01-.86-.82 1 1 0 01.02-.42.5.5 0 00-.62-.61c-.5.2-.92.56-1.2 1.02-.24.32-.86 1.2-1.17.5-.26-.57.06-1.26.18-1.82.1-.3.12-.6.06-.9-.1-.26-.25-.51-.34-.8a7.92 7.92 0 01.9-6.74c.26-.4-.17-.8-.57-.74a5.08 5.08 0 01-4.96-2.16c-.2-.32-.85-.34-.92.12a2.4 2.4 0 01-3.97 1.56.94.94 0 00-.9-.2c-.59.07-1.16.24-1.7.51-1.78.94-2.44 2.85-2.99 4.65l.62-.34c-1.58-.32-1.89-2.29-1.9-3.61-.01-.81.1-1.62.32-2.4.15-.5.4-.95.58-1.43.2-.59.31-1.22.3-1.84a4.4 4.4 0 01.88-2.75 5.86 5.86 0 012.31-1.75c1.67-.72 3.35-.42 5.03.1 2.11.65 3.93 1.98 5.68 3.3a.51.51 0 00.6-.08 4.53 4.53 0 017.21 1.75c.2.5.26 1.02.48 1.5.27.5.59.97.95 1.4.38.56 1.25.04.87-.48z" fill="#020202"/><path d="M176.84 100.42a.63.63 0 00-.73-.41.7.7 0 00-.28.12c-.2.2-.34.45-.4.72a4.3 4.3 0 00-.26 1.4.74.74 0 00.53.76.88.88 0 00.9-.44c.27-.38.42-.84.42-1.3a1.02 1.02 0 00-.4-.88.76.76 0 00-.77-.02.7.7 0 00-.24.23.5.5 0 00.87.51.34.34 0 01-.28.16h-.06c-.1 0-.1-.04-.05-.02l-.04-.03c-.05-.06-.06-.07-.04-.02-.06-.12-.02-.05 0 0 .03.04 0 .04 0-.04a.3.3 0 010 .06v.12c0 .02-.02.12 0 .14v-.04.03a1.48 1.48 0 01-.08.31c.02-.06.03-.08 0-.02l-.05.08-.06.12s-.06.1-.08.1c.04-.06.05-.06 0-.02l-.04.04c-.04.04-.03.03.03 0-.04 0-.04 0 0 0a.2.2 0 01.1-.02c.1 0 .18.04.24.1a.3.3 0 01.09.13v.05-.45.03c0-.06.03-.18.05-.27.04-.18.1-.36.16-.53 0-.04.03-.09.04-.13.02-.03.02-.04 0 .03l.03-.06c.02-.05.1-.12 0-.02-.2.21-.5.04-.6-.2.04.12.12.23.23.3a.59.59 0 00.4.05.5.5 0 00.3-.23.48.48 0 00.05-.4l.02-.04zm6.43 1.57a.63.63 0 00-1-.3c-.2.2-.35.44-.41.71a4.3 4.3 0 00-.26 1.4.73.73 0 00.53.76.88.88 0 00.9-.44c.27-.38.42-.84.41-1.3a1 1 0 00-.4-.87.72.72 0 00-1 .2.5.5 0 00.17.7.52.52 0 00.69-.19.34.34 0 01-.12.12.33.33 0 01-.16.05h-.06c-.09 0-.1-.05-.05-.02l-.04-.03c-.05-.07-.06-.07-.03-.03-.07-.12-.03-.04 0 0 .02.04 0 .04 0-.04a.3.3 0 010 .06v.13s-.02.11 0 .13v-.04.03a1.3 1.3 0 01-.07.26v.06c.03-.07.03-.08 0-.03l-.04.08a.9.9 0 01-.07.12s-.05.1-.07.1c.04-.05.05-.06 0-.02l-.04.05c-.05.03-.04.02.02 0-.03.02-.03.02 0 0a.2.2 0 01.11-.03c.09 0 .17.04.24.1.04.03.07.08.08.13v.05-.45.03c0-.06.03-.19.05-.28.04-.17.1-.35.16-.52 0-.04.03-.08.04-.12.02-.04 0-.05 0 0l.03-.06c.02-.05.1-.12 0 0-.2.2-.5.04-.6-.2.04.12.12.22.23.3.12.07.26.08.4.05a.5.5 0 00.3-.23.47.47 0 00.05-.4v-.02zm-4.22.23a5.22 5.22 0 01-.75 1.93c-.16.22-.37.4-.6.53-.27.11-.55.2-.83.25a1.24 1.24 0 00-.8.6 1.26 1.26 0 00-.1 1c.23.74.92 1.06 1.6 1.31a.5.5 0 00.38-.05.5.5 0 00.24-.3.51.51 0 00-.35-.62 2.3 2.3 0 01-.7-.35c-.12-.1-.28-.3-.22-.48.07-.17.29-.17.43-.2.29-.06.56-.15.83-.28 1.15-.6 1.56-1.91 1.85-3.08a.5.5 0 00-.35-.6.5.5 0 00-.62.34zm-5.6 6.46c0 1.38 1.1 2.38 2.28 2.9 1.23.61 2.65.71 3.95.28a.51.51 0 00.35-.61.5.5 0 00-.62-.35c-1.01.35-2.13.3-3.1-.15-.88-.36-1.84-1.02-1.85-2.07a.5.5 0 00-.86-.35.5.5 0 00-.15.35zm9.05-8.73h.37c.06 0 .04 0 0 0h.1l.2.04c.11.02.23.06.35.1l.08.03c.09.03-.04-.02 0 0l.17.08.3.18.16.1c.1.08-.04-.03 0 0l.06.06c.1.08.2.16.28.25l.13.14.05.07c-.07-.08 0 .02 0 .03a.51.51 0 00.68.18.5.5 0 00.19-.68 3.88 3.88 0 00-3.16-1.63.5.5 0 00-.5.5.51.51 0 00.5.5l.04.05z" fill="#020202"/><path d="M204.25 152.67c-3.76-8.25-6.34-14.28-11.06-22.34-1.1-1.37-8.07-5.4-8.07-5.4a8.05 8.05 0 01-11.57 4.32 8.06 8.06 0 01-3.71-4.56c-.13-.46-.54-1.2-1.92-.8-1.38.4-13.69 2.8-17.63 3.39a79.2 79.2 0 00-1 12.82l10.72 2.4c-3.9 9.01-5.55 21.85-5.7 31.65l3.47.03 2.81-5.38 9.28 1.34 12.04-2.45a374.6 374.6 0 003.66-20.99 8860.39 8860.39 0 015.05 10.87.5.5 0 00.43.18 254.5 254.5 0 0013.1-4.35.5.5 0 00.2-.49.51.51 0 00-.1-.25z" fill="#6F4AB3"/><path d="M120.68 158.26a2.32 2.32 0 00-1.84.56c-.5.44-.88 1-1.12 1.6a3.77 3.77 0 00-.3 2.49c.4 1.37 2.04 2.16 3.42 1.82a3.86 3.86 0 002.77-4.18 2.83 2.83 0 00-4.05-2.15c-.54.26-.98.69-1.27 1.22" fill="#fff"/><path d="M120.8 157.78c-2.07-.3-3.48 1.65-3.88 3.47a3.3 3.3 0 00.43 2.66 3.5 3.5 0 001.98 1.31c3.67.9 6.58-4.48 3.5-6.88a3.35 3.35 0 00-4.02-.03c-.4.29-.71.65-.95 1.07-.31.56.56 1.07.87.5a2.37 2.37 0 013.1-1c.56.28 1 .77 1.2 1.37.2.68.14 1.4-.15 2.05-.45 1.1-1.5 2.06-2.76 2.02a2.26 2.26 0 01-2.29-2.13c0-1.34 1.06-3.68 2.73-3.45a.52.52 0 00.61-.35.51.51 0 00-.35-.61h-.01z" fill="#020202"/><path d="M100.13 145.63c.94-.07 1.9-.07 2.84-.1l6.76-.19a3350.1 3350.1 0 0128.77-.65c1.34 0 2.68-.04 4.02-.05h1.2c.4 0 1.03.06 1.27.33.35.38.28 1.29.3 1.76.03 2.56.19 5.12.27 7.68a1151.07 1151.07 0 01.37 23.37v.23l.5-.5c-8.03.18-16.1.24-24.14.25a2732 2732 0 01-18.1-.05c-1.13 0-2.27 0-3.4-.03l.5.5c-.94-9.44-1.4-18.93-2.25-28.38l-.19-2a3.3 3.3 0 01-.06-.58c0 .12.05-.12.08-.17.23-.49.67-1.35 1.28-1.43.62-.08.64-1.08 0-1a2.5 2.5 0 00-1.73 1.2c-.27.36-.48.77-.62 1.2-.03.3 0 .6.06.9l.09.95a308.06 308.06 0 01.48 5.66c.4 5.08.73 10.16 1.12 15.23.22 2.8.45 5.63.73 8.44a.51.51 0 00.5.5 1782.93 1782.93 0 0032 .03c4.55-.03 9.1-.1 13.65-.2a.5.5 0 00.5-.5 998.84 998.84 0 00-.47-26.47c-.05-1.34-.19-2.69-.19-4.03 0-.98.17-2.33-.49-3.16-.56-.69-1.74-.72-2.55-.73-.69 0-1.38 0-2.06.03-3.04.03-6.08.09-9.13.15-6.65.13-13.31.29-19.96.47-3.9.1-7.79.19-11.67.34h-.26c-.66.05-.66 1.03-.02 1z" fill="#020202"/><path d="M162.97 177.5c.1-.8.1-1.6 0-2.4-.13-.74-.69-.9-1.35-.96a65.9 65.9 0 00-4.89-.22c-3.35-.05-6.7.06-10.04.11a.5.5 0 000 1c3-.04 6.03-.14 9-.12 1.5 0 2.97.05 4.46.13l1.11.08c.2-.01.38 0 .56.04.18.06.1-.03.19.12a3 3 0 010 .98c0 .42-.01.83-.04 1.24-.03.65.97.65 1 0z" fill="#020202"/><path d="M39.49 179H309.1a.75.75 0 000-1.5H39.5a.76.76 0 00-.7.75.75.75 0 00.7.75zM61.55 65.87c-.34 2-1.01 8.65 3.75 10.9a7.13 7.13 0 007.23-.84c2.06-1.55 3.36-3.88 4.42-6.22A8.63 8.63 0 0173 67.56a5.83 5.83 0 00-1.05-.9c-.8-.47-1.83-.35-2.78-.32-2.3.08-5.15-1.34-7.2-2.4" fill="#020202"/><path d="M61.06 65.73c-.46 2.77-.43 5.87.87 8.41 1.99 3.88 7.08 4.83 10.6 2.4 2.3-1.6 3.73-4.1 4.87-6.58a.5.5 0 00-.3-.74 8.27 8.27 0 01-3.71-2 4.89 4.89 0 00-1.52-1.15 4.8 4.8 0 00-2.01-.25c-.63.04-1.26.02-1.88-.06-.7-.12-1.38-.3-2.04-.56a29.83 29.83 0 01-3.7-1.69c-.57-.3-1.08.56-.5.86 2.32 1.2 4.91 2.57 7.63 2.47.69-.02 1.44-.11 2.1.14.67.26 1.07.85 1.57 1.29a9.34 9.34 0 003.79 1.93l-.3-.74c-.94 2.05-2.01 4.09-3.72 5.61a6.87 6.87 0 01-5.9 1.72 5.87 5.87 0 01-4.02-2.95 9.76 9.76 0 01-1.07-4.14 16.3 16.3 0 01.19-3.69c.1-.63-.86-.9-.97-.27l.02-.01zm10.62.03c.56.27 1.18.4 1.8.35a.92.92 0 00.86-.46c.12-.27.16-.56.14-.85-.06-.5-.16-1-.3-1.49-.04-.11-.06-.23-.08-.34 0 0-.03-.17 0-.08v-.43a1 1 0 01.03-.15l.03-.1v-.03a.51.51 0 00-.18-.68.5.5 0 00-.68.18c-.43.89-.1 1.76.1 2.66l.07.3v.4c0 .06-.02.16 0 .08v.05c-.02.05-.02.07 0 .04a.24.24 0 01.14-.12h-.05c-.2 0-.45.02-.66 0-.24-.03-.47-.1-.7-.2a.52.52 0 00-.68.18.5.5 0 00.18.68l-.02.01zm-.78-6.04a.4.4 0 00-.51-.22c-.2.09-.35.23-.47.4l.04-.53c-.36.41-.6.92-.71 1.46a.58.58 0 000 .33.45.45 0 00.53.24 1 1 0 00.5-.36c.28-.31.48-.68.6-1.08a.5.5 0 00.02-.24z" fill="#020202"/><path d="M71.38 59.58a.87.87 0 00-.96-.6 1.31 1.31 0 00-.85.58l.86.35.04-.53a.5.5 0 00-.6-.49.5.5 0 00-.26.14 3.75 3.75 0 00-.83 1.57c-.07.24-.07.5 0 .73a.95.95 0 001.2.55 2 2 0 00.98-.86 3.6 3.6 0 00.41-.92c.05-.17.06-.35.03-.52a.5.5 0 00-.62-.35.52.52 0 00-.35.62s-.02-.1 0-.05c.02.06 0-.04 0-.04a.6.6 0 00-.03.11l-.07.21-.02.05s.04-.09 0-.04l-.05.1-.1.2a2.55 2.55 0 01-.17.25s.06-.08.02-.04a2.25 2.25 0 01-.17.2l-.07.07a.14.14 0 00-.04.03s.08-.05.02-.02a.36.36 0 00-.08.05l.05-.02h-.09.07-.08l.06.02-.03-.02.05.04-.03-.03s.06.1.04.05c-.02-.04.03.11 0 .05-.03-.07 0 .05 0 .05v-.05a.2.2 0 000-.05s-.02.1 0 .05l.05-.22.06-.2a.9.9 0 00.03-.1l.02-.04s.03-.09 0-.02c-.04.07 0 0 0 0l.03-.06.05-.1a2.2 2.2 0 01.25-.42.4.4 0 00.03-.04c0 .03-.06.07 0 .02l.1-.1-.87-.36-.04.53a.5.5 0 00.31.46.5.5 0 00.55-.1c.05-.08.12-.15.18-.22 0-.02.04-.04.06-.06.01-.02-.1.07 0 0l.05-.03c.07-.04-.07 0-.02 0h.04-.1.06l-.04-.02-.04-.03c.05.04-.02-.04-.03-.05.05.08-.03-.12 0-.03a.5.5 0 00.97-.27l-.03.02zm6.41 3.22a.4.4 0 00-.51-.2 1.1 1.1 0 00-.47.4l.04-.54c-.36.42-.6.92-.71 1.46a.57.57 0 000 .33.45.45 0 00.53.24 1 1 0 00.5-.36c.28-.3.48-.68.6-1.08a.51.51 0 00.02-.25z" fill="#020202"/><path d="M78.27 62.67a.87.87 0 00-.96-.6 1.3 1.3 0 00-.85.57l.86.36.04-.53a.5.5 0 00-.86-.35 3.71 3.71 0 00-.83 1.57 1.3 1.3 0 000 .73.95.95 0 001.2.54 2 2 0 00.98-.85c.12-.2.23-.4.31-.62.04-.1.08-.2.1-.3.05-.17.06-.34.03-.52a.5.5 0 00-.62-.35.52.52 0 00-.35.62s-.02-.1 0-.04c.02.06 0-.04 0-.05a4.5 4.5 0 01-.1.37s.04-.1 0-.04l-.05.1-.1.19-.12.18a.32.32 0 00-.06.08l.03-.04a.53.53 0 01-.05.06l-.12.14-.08.07a.29.29 0 00-.03.03s.08-.06.02-.02a.57.57 0 00-.08.04s.1-.03.05 0h-.09.07-.08l.06.03h-.04l.06.04-.03-.03s.06.1.04.05c-.02-.04.03.11 0 .05-.03-.07 0 .05 0 .05v-.05a.2.2 0 000-.05s-.02.1 0 .05l.05-.22.05-.2.03-.1v-.04s.04-.09 0-.02c-.03.07 0 0 0 0l.03-.06.05-.1c.08-.15.17-.28.26-.4l.03-.05c0 .02-.06.07 0 .02l.09-.1-.86-.36-.04.53a.5.5 0 00.3.46.5.5 0 00.55-.1c.06-.08.12-.16.19-.22 0-.02.04-.04.05-.06.02-.02-.1.06 0 0l.06-.03c.07-.05-.07 0-.03 0h.05-.1.06l-.05-.02c.05.02 0 0-.03-.03.04.04-.03-.05-.03-.05.04.07-.04-.12 0-.04a.5.5 0 00.97-.26l-.03-.03zm-16.81-4.99l.4 4.14c0 .19.05.37.14.54.29.45 1.03.3 1.35-.12.27-.46.4-.98.4-1.51.25-2.8 1.89-5.7 4.6-6.42.61-.16 1.4-.34 1.5-.96.58.98 1.67 1.55 2.73 2 3.83 1.6 8 2.23 12.13 1.83 2.01-.2 4.17-.75 5.3-2.4l-2.33-.23c-.38 0-.75-.1-1.08-.3-.45-.3-.62-.87-.8-1.39-.66-1.9-1.88-3.54-3.09-5.15-.88-1.2-1.8-2.4-3.1-3.12a8.43 8.43 0 00-4.33-.74c-2.08.1-4.13.52-6.07 1.26a11.5 11.5 0 00-3.28 1.82c-2.73 2.26-3.66 5.97-4.44 9.42" fill="#020202"/><path d="M60.95 57.68l.26 2.56.13 1.29c0 .35.07.7.2 1.02a1.17 1.17 0 001.32.55 1.64 1.64 0 001.2-1.14c.21-.62.17-1.3.29-1.94.11-.64.3-1.26.56-1.85a6.23 6.23 0 012.3-2.8 8.16 8.16 0 011.81-.7c.6-.2 1.16-.52 1.31-1.17l-.92.12c.77 1.22 2.07 1.84 3.38 2.37a24.9 24.9 0 004.71 1.37c2.98.56 6.29.75 9.26 0a6.24 6.24 0 003.69-2.32c.24-.34-.1-.72-.44-.75-.77-.08-1.55-.14-2.33-.23a1.4 1.4 0 01-.95-.34 2.36 2.36 0 01-.4-.84 15.64 15.64 0 00-1.92-3.69c-1.45-2.1-3.05-4.63-5.62-5.46a10.66 10.66 0 00-4.09-.34c-1.48.12-2.95.4-4.38.82-2.56.79-4.9 2.03-6.46 4.26-1.56 2.23-2.26 5.08-2.87 7.76-.14.62.83.9.97.26.53-2.3 1.08-4.68 2.28-6.75a8.75 8.75 0 012.34-2.68 12.86 12.86 0 013.65-1.77c1.39-.45 2.83-.75 4.28-.88 1.35-.17 2.71-.08 4.02.28a6.6 6.6 0 013.02 2.34 37.86 37.86 0 012.38 3.26c.42.64.8 1.3 1.1 2 .28.63.4 1.36.8 1.92a2.19 2.19 0 001.67.83c.83.1 1.67.16 2.5.24l-.44-.75c-.9 1.28-2.48 1.8-3.96 2.04a24.83 24.83 0 01-10.85-.94c-1.54-.5-3.58-1.08-4.48-2.53a.5.5 0 00-.92.12c-.12.52-1.07.58-1.49.72a5.8 5.8 0 00-1.71.94c-1 .82-1.79 1.9-2.26 3.1a8.98 8.98 0 00-.67 2.9c.02.4-.09.78-.3 1.1-.2.2-.4.22-.53 0-.07-.24-.1-.49-.08-.74l-.06-.59-.3-2.95c-.07-.64-1.07-.64-1 0v-.02z" fill="#020202"/><path d="M68.36 58.2a9.57 9.57 0 012.14 0 .5.5 0 00.5-.5.51.51 0 00-.5-.5 9.57 9.57 0 00-2.14 0 .51.51 0 00-.5.5.5.5 0 00.5.5z" fill="#020202"/><path d="M16.59 114.83c3.55-3.53 8.63-9.8 12.48-13l-5.28-7.19c-.08-.11-.26 0-.35.11-2.54 3.1-7.66 8.78-10.2 11.87" fill="#fff"/><path d="M16.94 115.19c4.25-4.24 7.87-9.15 12.5-13a.5.5 0 00.07-.61L25 95.46l-.73-1c-.62-.82-1.25 0-1.69.53-1.5 1.8-3.06 3.57-4.6 5.34-1.72 1.97-3.44 3.92-5.1 5.93-.4.5.3 1.2.71.71 1.67-2.03 3.42-4 5.15-6l2.8-3.24 1.21-1.4.54-.65c.12-.13.38-.59.55-.62l-.4-.05c-.04-.02-.15-.2-.07-.08l.1.14.4.52 1.25 1.7 2.86 3.89.65.88.08-.6c-4.61 3.86-8.24 8.76-12.48 13a.5.5 0 00.36.83.5.5 0 00.35-.12v.02z" fill="#020202"/><path d="M66 67.64a6.41 6.41 0 002.67 3.17 6.38 6.38 0 004.5.72c.62-.12.36-1.08-.27-.96a5.32 5.32 0 01-5.93-3.2.51.51 0 00-.61-.35.5.5 0 00-.36.61zm93.3-28.77c-.56-.44-1.33-.45-2.04-.45-16.43.15-44 .85-60.39 2.1-1.26.1-2.74.33-3.35 1.44-.26.6-.37 1.25-.3 1.9.07 2.42.33 4.83.76 7.21.45 2.46 1.06 5.17-.24 7.3-1.47 2.4-4.92 3.2-6.04 5.81l.14 1.26 7.1-3.31c.4-.2.9-.4 1.33-.2.3.2.52.51.62.86.66 1.7 1.13 3.8 2.8 4.51a5.3 5.3 0 002.1.29l49.17.03c2.05 0 4.15 0 6.1-.66a3.5 3.5 0 001.95-1.34 4.2 4.2 0 00.43-2.09l.68-21.87c.03-1 0-2.17-.82-2.8z" fill="#fff"/><path d="M159.55 38.43c-1.14-.8-2.86-.5-4.18-.49l-4.12.06a1261.93 1261.93 0 00-28.67.7 804.73 804.73 0 00-23 1.13 34.6 34.6 0 00-4.01.36c-1.56.3-2.7 1.2-2.81 2.85a48.15 48.15 0 00.39 5.85c.26 1.86.74 3.7.87 5.56.12 1.64-.14 3.27-1.32 4.5-.95 1-2.17 1.68-3.25 2.5-.56.41-1.06.88-1.5 1.41-.3.4-.74.94-.72 1.46.02.37.1.75.14 1.13a.5.5 0 00.75.43l5.9-2.75c.48-.22.94-.48 1.43-.66.5-.18.77-.02.98.47.29.68.49 1.4.77 2.07.56 1.37 1.43 2.65 2.98 2.98 1.35.27 2.86.12 4.24.12h45.69c1.8.06 3.6-.03 5.4-.26 1.6-.27 3.6-.82 4.22-2.55.3-.87.24-1.86.27-2.77l.1-3.28.2-6.46.2-6.46.1-3.19c.07-.92.07-1.84 0-2.76a2.8 2.8 0 00-.92-1.9c-.5-.4-1.2.3-.7.71.6.5.67 1.3.67 2.04 0 1-.06 2-.09 3l-.2 6.37-.4 12.63c-.02.86 0 1.85-.66 2.5-.66.64-1.6.85-2.44 1.03-1.8.4-3.69.35-5.53.35h-48.51c-.88 0-1.8 0-2.51-.62a4.45 4.45 0 01-1.12-1.67c-.3-.68-.51-1.39-.78-2.08-.26-.69-.67-1.35-1.5-1.37-.82-.02-1.8.62-2.58.98l-2.81 1.32-2.91 1.35.76.44a8.23 8.23 0 00-.14-1.14c-.03-.13 0-.1-.03.02a4.81 4.81 0 01.88-1.25c.92-.95 2.1-1.6 3.14-2.4a6.67 6.67 0 002.54-3.33c.48-1.58.28-3.27 0-4.86-.32-1.9-.67-3.78-.85-5.7-.1-1-.15-2.01-.17-3.02 0-.78.02-1.6.7-2.1 1.05-.77 2.66-.68 3.9-.77a735.77 735.77 0 0122.13-1.13c6.46-.24 12.92-.43 19.38-.57 5.7-.13 11.39-.23 17.08-.28.74 0 1.52-.08 2.15.36.5.38 1-.5.47-.86zm43.96-1.65c-1.6-.04-3.18 0-4.77 0-.53 0-1.06 0-1.59.02-.6 0-1.25.25-1.44.9-.04.25-.03.51.04.77a6.36 6.36 0 001.74 3.44 5.1 5.1 0 002.22 1.43 3.04 3.04 0 002.41-.43c1.9-1.24 2.09-3.58 1.9-5.64-.06-.63-1.07-.64-1.01 0 .14 1.52.18 3.3-1 4.45a2.25 2.25 0 01-1.8.7 3.54 3.54 0 01-1.86-1.07 5.68 5.68 0 01-1.65-3.45c-.05-.15 0 .22 0 .08 0-.02 0-.07.11-.12.2-.06.42-.08.63-.06l1.51-.02c1.53-.02 3.06-.04 4.59 0 .62.02.62-.98-.03-1zm3.46.67c2.12-.07 4.24-.08 6.36-.02l-.5-.5c.1 1.2.17 2.5-.38 3.6-.4.84-1.26 1.57-2.24 1.56-.98-.01-1.97-.9-2.56-1.65a5.51 5.51 0 01-1.15-2.88c-.06-.64-1.06-.64-1 0a6.54 6.54 0 003.03 5 3.1 3.1 0 002.88.28 3.9 3.9 0 002.01-2.07 7.9 7.9 0 00.4-3.83.51.51 0 00-.5-.5 97.13 97.13 0 00-6.36.02c-.65.02-.65 1.02 0 1zm-2.13 2.75v.3-.03.07c0 .05-.02.1-.04.16l-.04.12c.03-.08 0 .03-.02.05l-.15.23c.06-.08 0 .02-.03.04l-.08.1-.23.27c-.13.19-.2.4-.22.64-.03.8.85 1.23 1.52 1.32a.5.5 0 00.65-.54.5.5 0 00-.38-.42 2.1 2.1 0 01-.4-.1l-.1-.03c-.1-.04.1.05 0 0l-.17-.1c-.08-.05 0 0 0 0l-.07-.07c-.01 0 .05.1 0 0l-.04-.08c-.01 0 .03.12 0 0-.04-.1 0 .12 0 .03 0-.1 0-.08 0 0 0-.1-.04.05 0-.03l.05-.09c.01-.03 0-.02 0 0l.04-.05.16-.17a2.26 2.26 0 00.58-1.65.5.5 0 00-.86-.35.5.5 0 00-.15.35l-.02.03zm2.82 4.38c-.79.41-1.66.63-2.54.64a6 6 0 01-2.6-.43.52.52 0 00-.69.19.52.52 0 00-.07.24c-.13 1.06.57 2.14 1.42 2.7.7.46 1.68.48 2.5.4a3.43 3.43 0 002.25-1.02 2.3 2.3 0 00.4-2.54c-.28-.58-1.15-.07-.87.5.28.58-.14 1.37-.68 1.7-.72.36-1.55.5-2.35.36a1.98 1.98 0 01-1.65-1.61c0-.03-.03-.17 0-.05v-.44l-.76.44a7.18 7.18 0 006.15-.22.5.5 0 00.18-.69.5.5 0 00-.7-.17z" fill="#020202"/><path d="M198.19 42.63c-.23 1.78.7 3.41 1.6 4.87a12.3 12.3 0 003.22 3.78 5.13 5.13 0 004.52.8c1.44-.5 2.39-1.77 3.04-3.09a20.86 20.86 0 001.88-5.89c.1-.63-.86-.9-.97-.27-.26 1.59-.7 3.13-1.3 4.62-.5 1.2-1.14 2.6-2.3 3.35-1.2.8-2.76.55-3.97-.14-1.27-.74-2.16-1.96-2.94-3.18-.93-1.45-2-3.07-1.78-4.86.09-.64-.92-.64-1 0z" fill="#020202"/><path d="M221.96 34.2c.1-.96-.46-1.88-1.1-2.61a9.53 9.53 0 00-5.06-2.98 4.4 4.4 0 01-1.5-.48c-.56-.38-.86-1.03-1.26-1.58a4.46 4.46 0 00-4.24-1.7c.27-1.06-.4-2.2-1.36-2.76-1-.5-2.11-.7-3.21-.57-3.22.2-6.8 2.15-7.08 5.36 0 .33-.07.67-.22.97-.27.3-.63.5-1.03.58a6.8 6.8 0 00-3.21 1.9c-.8.95-1.2 2.37-.65 3.51.56 1.14 1.8 1.72 2.96 2.21a7.73 7.73 0 00-5.58 5.03c-.76 2.5.28 5.53 2.56 6.81 1.24.7 2.94.8 3.97-.17-.83 1.34.04 3.37 1.58 3.71 1.53.34 3.18-1.15 3-2.7-.17-1.35-1.37-2.32-1.9-3.57-.46-1.05-.44-2.28-1.05-3.25-.5-.8-.44-1.18-1.09-1.85a2.2 2.2 0 01-.19-2.62c.52-.8.36-.78 1.32-.7l1.03-.4a3.54 3.54 0 002.58-2.55c1.96 1.52 5.26.71 6.3-1.54a3.12 3.12 0 003.21.53 2.63 2.63 0 001.19 2.7c.3.19.63.32.97.38.35.04.75.04.97.31.13.21.17.46.13.7-.08 1.83-.92 3.76-1.5 5.53-.35 1.02-.41 1.9-.72 2.92a5.86 5.86 0 00.3 3.75 2.93 2.93 0 002.75 1.8 3.62 3.62 0 002.9-1.7c.62-.95.8-2.15 1.55-3.03.74-.88 1.95-1.36 2.43-2.4.48-1.04-.04-2.43-.94-3.2a8.82 8.82 0 00-3.24-1.52c1.08-1.98 4.2-2.6 4.43-4.81z" fill="#020202"/><path d="M222.48 34.2c.1-1.56-1.04-2.9-2.17-3.87a10.14 10.14 0 00-4.12-2.15c-.8-.2-1.55-.25-2.08-.97a9.41 9.41 0 00-1.36-1.71 5.06 5.06 0 00-4.07-1.13l.62.62a3.02 3.02 0 00-.9-2.8c-.88-.76-2-1.18-3.16-1.17a9.9 9.9 0 00-5.78 1.55c-.8.52-1.49 1.2-2.01 2-.54.86-.66 1.71-.8 2.68-.1.59-.67.65-1.15.8-.54.18-1.07.41-1.57.68-1 .53-1.8 1.36-2.28 2.39a3.5 3.5 0 00.2 3.35c.7 1.01 1.84 1.55 2.93 2l.12-.91c-2.8.7-5.35 2.84-6.03 5.7-.62 2.66.5 5.83 3 7.12 1.43.72 3.22.77 4.46-.32l-.8-.6c-.94 1.62 0 4.02 1.88 4.44 2.15.48 4.16-1.76 3.5-3.83-.35-1.1-1.2-1.9-1.71-2.9-.57-1.12-.54-2.43-1.17-3.53-.24-.4-.4-.87-.65-1.28-.28-.48-.76-.8-.87-1.38-.09-.5.03-1 .31-1.42.08-.12.15-.25.24-.37.08-.12.02 0-.06 0h.3c.36.02.7-.05 1.02-.2.37-.16.76-.26 1.13-.4a4.07 4.07 0 002.27-2.69l-.73.3a4.85 4.85 0 006.99-1.71l-.8.1a3.7 3.7 0 003.7.65l-.61-.62a3.17 3.17 0 001.2 3.13c.46.34 1 .55 1.57.6.15 0 .35 0 .44.14.08.13.04.31.03.45-.03.42-.1.84-.19 1.25-.35 1.58-1.05 3.03-1.46 4.59-.2.76-.3 1.54-.53 2.3a5.47 5.47 0 00-.18 2.28c.17 1.35.62 2.73 1.84 3.47a3.66 3.66 0 003.76-.04c1.25-.74 1.73-1.94 2.28-3.2a4.4 4.4 0 011.2-1.66c.51-.36.99-.76 1.44-1.2a3.05 3.05 0 00.1-3.87c-.96-1.35-2.56-1.88-4.08-2.34l.3.74c1.17-2.03 4.17-2.45 4.5-5.04.08-.64-.92-.64-1 0-.14 1.05-1.15 1.71-1.94 2.27-.92.64-1.86 1.28-2.41 2.26a.5.5 0 00.3.74c1.2.36 2.6.76 3.42 1.8.76.97.77 2.13-.14 2.98-.84.8-1.78 1.33-2.33 2.4-.54 1.08-.8 2.31-1.8 3.08a2.7 2.7 0 01-3.24.13c-1-.75-1.28-2.37-1.2-3.54.09-.65.23-1.29.42-1.91.14-.73.32-1.44.54-2.14.51-1.33.94-2.68 1.27-4.07.13-.62.32-1.43.1-2.05-.23-.62-.8-.7-1.4-.8a2.16 2.16 0 01-1.8-2.46c.06-.33-.24-.77-.62-.62a2.7 2.7 0 01-2.74-.4.51.51 0 00-.8.1 3.85 3.85 0 01-5.62 1.35.5.5 0 00-.63.1.5.5 0 00-.11.2 3.03 3.03 0 01-1.9 2.11c-.44.16-1.05.5-1.5.47-.74-.06-1.03.25-1.4.85a2.85 2.85 0 00-.3 2.57c.23.4.5.79.8 1.13.25.37.38.8.6 1.18.26.45.47.94.6 1.45.11.59.27 1.17.46 1.74.6 1.6 3.04 3.49 1.33 5.2a1.82 1.82 0 01-2.65.1 2.1 2.1 0 01-.38-2.46.5.5 0 00-.12-.67.5.5 0 00-.69.06c-1.2 1.06-3.07.5-4.14-.46a5.53 5.53 0 01-1.76-3.84c-.15-3.2 2.47-5.77 5.44-6.52.4-.1.53-.74.12-.92a6.8 6.8 0 01-2.33-1.38 2.44 2.44 0 01-.44-2.6c.4-.91 1.1-1.65 2-2.08.41-.22.84-.4 1.27-.54.46-.11.89-.3 1.28-.54.72-.55.55-1.46.76-2.25.22-.76.63-1.45 1.2-2a8.13 8.13 0 014.44-2.11 6.54 6.54 0 013.3.18c.97.36 1.85 1.33 1.6 2.43a.51.51 0 00.14.48.5.5 0 00.48.14 3.99 3.99 0 013.57 1.33c.44.51.7 1.15 1.2 1.6.5.41 1.1.67 1.74.76 1.36.27 2.64.84 3.75 1.67 1.07.8 2.36 2.04 2.27 3.49-.08.64.92.64.98 0z" fill="#020202"/><path d="M201.86 50.83c.45 2.44.87 4.85.66 7.34-.06.64.95.64 1 0 .22-2.58-.22-5.08-.7-7.61-.11-.63-1.08-.37-.96.27zm7.26-.7c-.5 2.86.86 5.79 1.85 8.4.23.6 1.2.34.97-.27-.5-1.29-1-2.57-1.4-3.9a8.83 8.83 0 01-.45-3.96c.11-.63-.86-.9-.97-.27zm9.93 19.01c.03 2.14.32 4.27.88 6.35a.5.5 0 00.62.34.5.5 0 00.3-.23.5.5 0 00.05-.38 24.54 24.54 0 01-.83-6.08.5.5 0 00-1 0h-.02zm-21.87.96l.27 5.24c.04.64 1.04.65 1 0l-.26-5.23c-.04-.64-1.04-.65-1 0zm13.42 75.64a.5.5 0 100-1 .5.5 0 000 1z" fill="#020202"/><path d="M86.54 106.03a29.56 29.56 0 015.76 7.54l6.63-6.97c2.97-3.12 5.96-6.27 9.55-8.66v-.31a47.55 47.55 0 01-1.67-8.41c1.56-1.28 1.8 3.05 2.98 3.74 1.27.74 1.8 2.28 2.24 3.68l-1.56-3.32c.74-2.4 1.1-4.16 2.14-6.6.27-.63.97-.75.95-.37a31.3 31.3 0 01-1.27 7.75 34.47 34.47 0 012.38-6.73c.4-.8 1.3 0 1.25.32a28.32 28.32 0 01-1.94 7.34c1.38-1.65 1.72-4.77 3.11-6.28.2-.22.75.16.72.42a38.61 38.61 0 01-1.9 7.1c.98-2.27 1.98-4.57 3.58-6.45.77.54.42 1.74 0 2.58l-3.63 7.12c-.61 1.2-1.32 2.48-2.55 3.01-1.24.53-15.87 15.56-21.46 21.39-.4.4-.86.83-1.41.78a1.87 1.87 0 01-.99-.57 232.15 232.15 0 01-12.05-11.59" fill="#fff"/><path d="M86.18 106.4a29.7 29.7 0 015.7 7.43.5.5 0 00.6.23.5.5 0 00.2-.12c3-3.18 5.99-6.39 9.05-9.5a57.18 57.18 0 014.4-4.1c.8-.66 1.6-1.27 2.47-1.86a.73.73 0 00.4-.73 6.2 6.2 0 00-.33-1.35 47.34 47.34 0 01-1.34-7.17l-.15.36a.33.33 0 01.2-.09c-.03 0 .03 0 .06.04.2.2.34.44.43.7.3.65.5 1.34.8 2 .12.29.28.56.48.8.28.26.57.5.88.72.84.8 1.2 1.97 1.54 3.02l.91-.4-1.55-3.31.04.4c.36-1.14.66-2.3 1.01-3.44a33.6 33.6 0 01.88-2.54c.07-.16.13-.34.21-.5.05-.1.18-.2.22-.3l.06-.03c-.2-.35-.28-.4-.27-.2-.03.16-.04.32-.02.48 0 .32-.04.64-.07.96a28.81 28.81 0 01-1.16 6.06l.97.27c.26-1.14.59-2.26.98-3.35a38.35 38.35 0 011.34-3.25c.1-.1 0-.09.1-.08.11 0 .18.12.22.16.04.05.04-.24-.02.22l-.09.55a28.14 28.14 0 01-1.81 6.42c-.19.46.53.87.84.49 1.38-1.7 1.6-3.98 2.75-5.8.08-.1.14-.2.2-.3l.08-.1c-.09.03-.1.04-.06 0-.04.31-.1.62-.16.93-.12.66-.28 1.32-.46 1.98-.36 1.36-.8 2.7-1.26 4.02-.19.53.68.91.91.4.97-2.21 1.95-4.47 3.5-6.34h-.7c.44.35.33.88.17 1.35-.27.7-.6 1.4-.98 2.05l-2.18 4.27c-.6 1.17-1.12 2.5-2.01 3.48-.42.36-.88.69-1.36.96-.69.55-1.34 1.13-1.97 1.75a158.24 158.24 0 00-3.2 3.13 880.28 880.28 0 00-15.6 15.88c-.29.35-.62.67-.97.96-.75.52-1.41-.4-1.93-.87a236.12 236.12 0 01-11.34-10.95c-.45-.46-1.16.25-.71.71a247.86 247.86 0 0010.55 10.24c.57.52 1.13 1.06 1.72 1.54a1.78 1.78 0 001.7.45c.85-.26 1.48-1.15 2.08-1.77l1.71-1.77 4.02-4.14c2.89-2.96 5.8-5.91 8.73-8.84 1.86-1.85 3.69-3.81 5.73-5.46.12-.1-.05.02.06-.05l.12-.08c.33-.17.64-.37.94-.58 1.03-.84 1.6-2.13 2.2-3.28l2.31-4.54c.36-.71.75-1.41 1.09-2.13a4 4 0 00.44-1.68 1.64 1.64 0 00-.6-1.34.5.5 0 00-.7 0c-1.64 1.95-2.67 4.25-3.67 6.55l.92.4a50.4 50.4 0 001.48-4.9c.23-.75.38-1.53.44-2.32a1.08 1.08 0 00-1.07-1c-.56 0-.91.7-1.16 1.12a12.3 12.3 0 00-.8 1.74c-.47 1.22-.83 2.6-1.67 3.64l.81.48a28.99 28.99 0 001.86-6.8c.09-.3.1-.62.06-.93a1.4 1.4 0 00-1.2-.9c-.72 0-.98.61-1.21 1.16-.3.66-.59 1.34-.84 2.03a30.1 30.1 0 00-1.31 4.24.5.5 0 10.97.26 32.74 32.74 0 001.27-7.97c-.04-.16-.1-.3-.21-.43-.5-.47-1.26 0-1.56.46a11.5 11.5 0 00-1.02 2.6c-.28.83-.51 1.67-.75 2.52l-.37 1.25c-.14.3-.18.63-.1.94.12.3.27.57.4.85l1.15 2.44c.25.52 1.1.16.92-.4-.45-1.4-.97-2.92-2.22-3.81-.34-.23-.6-.56-.76-.94-.2-.44-.36-.9-.53-1.36-.27-.7-.64-1.78-1.52-1.9-.4-.04-1.04.17-1.15.6-.11.41.08.96.13 1.36a51.4 51.4 0 00.85 4.72l.43 1.67c.12.35.2.72.25 1.09l.24-.43c-3 2-5.6 4.52-8.1 7.11-2.74 2.85-5.45 5.73-8.18 8.6l.8.1a30.46 30.46 0 00-5.84-7.64c-.46-.44-1.18.27-.7.71l-.04.02z" fill="#020202"/><path d="M304.9 61.23l-.69-21.87a4.2 4.2 0 00-.42-2.09 3.48 3.48 0 00-1.96-1.33c-1.94-.66-4.04-.66-6.1-.66l-57.22.02a5.4 5.4 0 00-2.1.29c-1.69.72-2.15 2.8-2.81 4.51-.1.35-.32.66-.63.85-.4.21-.91 0-1.33-.19l-7.1-3.3-.13 1.25c1.12 2.6 4.57 3.4 6.04 5.81 1.3 2.13.7 4.85.24 7.3-.44 2.38-.7 4.79-.76 7.21-.07.65.03 1.3.3 1.9.61 1.11 2.09 1.34 3.35 1.44 16.38 1.25 52.03 1.95 68.46 2.1.7 0 1.47 0 2.04-.44.8-.6.85-1.78.82-2.8z" fill="#fff"/><path d="M305.4 61.23l-.46-14.82c-.08-2.46-.11-4.93-.24-7.4-.04-.94-.22-1.88-.93-2.56a5.7 5.7 0 00-2.7-1.26c-1.96-.47-3.99-.42-5.99-.42h-54.61c-1.4 0-3.03-.22-4.32.35-1.6.7-2.2 2.47-2.73 3.99-.12.4-.27.78-.47 1.14-.33.53-1 .08-1.43-.12l-3.45-1.6L224.8 37a.5.5 0 00-.76.43c-.09.44-.13.88-.13 1.32.1.4.3.76.57 1.07.25.34.53.66.84.95 1.24 1.14 2.79 1.88 3.97 3.07 1.5 1.52 1.58 3.6 1.3 5.61-.34 2.34-.83 4.64-1.03 7.01a19.23 19.23 0 00-.1 3.54 2.77 2.77 0 001.4 2.2c1.3.74 2.98.68 4.44.78 2.88.2 5.77.35 8.65.49 7.07.34 14.13.58 21.2.78a1860.29 1860.29 0 0031.34.64l4.06.05c1.5 0 3.5.32 4.42-1.17.45-.77.47-1.71.44-2.57a.5.5 0 00-.85-.35.5.5 0 00-.15.35c.02.8.08 1.96-.7 2.47-.65.43-1.6.28-2.36.27l-3.85-.04a2022.14 2022.14 0 01-30.06-.6c-6.98-.18-13.96-.4-20.93-.71a507.97 507.97 0 01-12.64-.71c-.84 0-1.66-.18-2.43-.51-.93-.49-1.01-1.4-.99-2.36a47 47 0 01.8-7.41c.37-1.93.8-3.99.26-5.93-.46-1.72-1.71-2.87-3.12-3.88-.68-.48-1.4-.94-2.04-1.48a7.14 7.14 0 01-1.13-1.2 6.1 6.1 0 01-.16-.28c-.05-.09-.17-.4-.14-.22.03.18.03-.1.03-.14l.05-.4.07-.63-.75.44 6.72 3.13c.8.38 1.83.87 2.57.08.55-.59.74-1.55 1.01-2.3.23-.76.6-1.48 1.11-2.1.72-.81 1.68-.89 2.7-.89h57.5c2.13 0 4.64-.09 6.56.98 1.04.57 1.19 1.5 1.2 2.6l.12 3.58.46 14.71.11 3.58c.02.63 1.04.63 1.02-.02z" fill="#020202"/><path d="M162.54 174.53c1.32-.14 2.65-.19 3.98-.15 0 0 3.72.64 4.2.32l1.35-.87s17.63-1.63 32.37-4.12c-1.77-8.3-2.24-8.3-5.62-16.09l-7.71 2.1c2.4 4.94 3.15 5.61 5.33 9.66-9.99.47-26.5 4.77-26.59 4.77-2.38-.42-6.87-1.6-9.27-1.34-1.64.71-.87 1.88-2.03 3.24" fill="#fff"/><path d="M162.54 175.03c1.51-.2 3.05-.23 4.57-.06 1.08.23 2.17.33 3.27.31.7-.05 1.2-.57 1.8-.92 0 0-.17 0-.06-.04h.16l1.6-.15a578.8 578.8 0 0017.57-2.03c4.38-.57 8.76-1.2 13.12-1.93a.5.5 0 00.35-.62 67.58 67.58 0 00-1.74-6.9 53 53 0 00-2.05-5.07c-.63-1.4-1.26-2.8-1.87-4.24a.5.5 0 00-.57-.22l-7.7 2.1a.53.53 0 00-.33.29.51.51 0 00.02.44c1.63 3.3 3.6 6.41 5.33 9.66l.44-.75c-6.29.3-12.55 1.57-18.69 2.9a251.78 251.78 0 00-7.95 1.87h-.08c.31-.07 0-.05-.16-.08l-.59-.12-2.44-.5c-1.77-.35-3.61-.73-5.4-.7a2.22 2.22 0 00-2.01 1.17c-.4.75-.4 1.58-.95 2.25-.4.5.3 1.2.71.72.46-.6.79-1.3.96-2.04.06-.28.2-.54.4-.76a1.09 1.09 0 01.89-.33c1.6.02 3.2.22 4.78.58l2.42.5c.54.18 1.1.27 1.67.27.34-.04.69-.17 1.02-.25a215.03 215.03 0 0115.07-3.2 84.02 84.02 0 0110.35-1.28.5.5 0 00.43-.26.5.5 0 000-.5c-1.74-3.24-3.7-6.35-5.33-9.65l-.3.73 7.72-2.1-.57-.23c1.64 3.8 3.49 7.5 4.53 11.53.38 1.47.7 2.95 1.03 4.44l.35-.62c-7.4 1.25-14.84 2.2-22.28 3.06a514.96 514.96 0 01-9.91 1.03c-.47.07-.89.45-1.28.7-.12.1-.25.18-.38.25.07-.02.06 0 0 0h-.18c-.29.01-.58 0-.86-.03a26.8 26.8 0 01-1.88-.22c-.34-.05-.68-.13-1.02-.16a20.36 20.36 0 00-3.98.16c-.64.06-.64 1.06 0 1z" fill="#020202"/><path d="M67.48 49.23a7.05 7.05 0 002.87 5.87.5.5 0 00.68-.18.51.51 0 00-.18-.68 6.01 6.01 0 01-2.36-5c.02-.65-.98-.65-1 0z" fill="#fff"/><path d="M76.8 60.99h.16c.07 0 0 0 0 0h.08c.1 0 .21.04.32.06l.3.1.15.05.08.03c.09.03-.05-.02 0 0 .2.08.39.19.57.3l.13.09.07.05s.07.06.03.02c-.05-.04.02 0 .02.02l.06.05.14.12a.5.5 0 10.71-.7 4.67 4.67 0 00-2.81-1.2.5.5 0 00-.5.5.51.51 0 00.5.5v.01zm123.41-22.41c-.44.1-.59.61-.61 1-.03.33.06.66.23.94.07.1.15.2.26.27a.63.63 0 00.5.09.8.8 0 00.5-.4 2 2 0 00.25-.99c0-.22-.04-.43-.15-.62a.72.72 0 00-.8-.34.54.54 0 00-.3.23.52.52 0 00-.05.4.51.51 0 00.62.35h.03l-.13.02h.06l-.14-.02h.04l-.12-.05.06.03-.1-.08.04.04-.08-.1.04.08-.05-.12.05.16v-.13.4-.14c-.02.13-.06.25-.1.37l.05-.12-.12.23.07-.1a.3.3 0 01-.07.07l.1-.08-.05.03.12-.05h-.04.14-.04.13-.03l.12.05-.03-.02.1.08-.04-.05.08.1a1 1 0 01-.12-.2l.05.12c-.04-.1-.06-.2-.08-.3l.02.13a1 1 0 010-.3l-.02.13.07-.28-.04.12a.28.28 0 01.04-.08l-.08.1a.32.32 0 01.06-.05l-.1.08.02-.02-.11.05h.03a.5.5 0 00.35-.61.52.52 0 00-.62-.36v-.06zm8.86-.38c-.44.1-.59.61-.61 1-.02.33.06.66.24.94.06.1.15.2.25.27a.65.65 0 00.5.09.83.83 0 00.5-.4c.17-.3.26-.65.25-1 0-.21-.04-.42-.14-.62a.72.72 0 00-.8-.33.53.53 0 00-.3.23.52.52 0 00-.06.4.5.5 0 00.62.35h.03-.13.06-.13.04l-.12-.05.05.03-.1-.08.04.04-.08-.1a.3.3 0 01.05.07l-.06-.12c.03.05.04.1.05.17v-.14.38l.02-.13c-.02.13-.06.25-.1.37l.05-.12a.94.94 0 01-.12.22l.08-.1-.08.08.1-.08-.05.02.12-.04h-.03l.13-.02h-.04l.13.02h-.03l.12.05h-.03l.1.07a.22.22 0 01-.04-.04l.08.1a.96.96 0 01-.12-.2l.05.12-.08-.3v.13a1 1 0 010-.3v.13c.02-.1.04-.19.08-.28l-.05.12a.88.88 0 01.04-.08l-.08.1a.32.32 0 01.06-.05l-.1.08h.03l-.13.05h.04a.5.5 0 00.35-.62.52.52 0 00-.61-.35l-.04-.08z" fill="#020202"/><path d="M253.87 148.15a34.53 34.53 0 0034.57-34.5 34.53 34.53 0 00-34.57-34.49 34.53 34.53 0 00-34.57 34.5 34.53 34.53 0 0034.57 34.49z" fill="#fff"/><path d="M287.83 113.66a33.62 33.62 0 01-9.46 23.3 33.77 33.77 0 01-57.9-20.8 33.6 33.6 0 017.61-23.98 33.75 33.75 0 0159.75 21.48.6.6 0 00.6.6.6.6 0 00.6-.6c0-9.07-3.51-17.77-9.81-24.3a35.17 35.17 0 00-60.35 21.6 35 35 0 007.9 24.99 35.15 35.15 0 0048.39 5.63 35.05 35.05 0 0013.88-27.92.6.6 0 00-1.2 0z" fill="#020202"/><path d="M247.88 99.79c.03.49-.08.98-.3 1.42-.25.5-.55.96-.88 1.4a.5.5 0 00.08.6c.49.41 1.1.64 1.72.66a.5.5 0 00.36-.86.5.5 0 00-.36-.14 1.82 1.82 0 01-1.01-.35l.08.6c.69-.98 1.4-2.08 1.3-3.33a.51.51 0 00-.5-.5.5.5 0 00-.5.5zm-2.58 6.61c.93 1.33 2.72 1.44 4.2 1.24.76-.1 1.5-.3 2.21-.58a3.54 3.54 0 001.45-.89.52.52 0 000-.7.5.5 0 00-.7 0c-.3.29-.65.5-1.05.64-.61.25-1.26.42-1.91.52-1.04.17-2.65.24-3.34-.74-.36-.53-1.23-.03-.86.5z" fill="#020202"/><path d="M241.88 94.47c-.58 4.5-.16 9.27 1.87 13.4.45 1 1.06 1.9 1.81 2.7a6.56 6.56 0 006.24 1.6 8.5 8.5 0 003.3-2.2 21.38 21.38 0 002.59-3.32c.35-.54-.51-1.04-.87-.5-1.25 1.86-2.7 3.9-4.82 4.88-1.87.86-4.34.23-5.77-1.2a9.09 9.09 0 01-1.58-2.4 18.8 18.8 0 01-1.6-4.82 25.4 25.4 0 01-.19-8.16c.08-.63-.92-.63-1 0l.02.02zm18.66 20.54c-.02-3.74-.16-7.48-.16-11.21a.5.5 0 00-.86-.36.5.5 0 00-.15.36c0 3.74.15 7.48.17 11.21a.5.5 0 00.5.5.5.5 0 00.5-.5zm-8.37 2.36c1.1.55 2.34.78 3.58.67a9.41 9.41 0 003.31-.68.5.5 0 00.18-.69.51.51 0 00-.68-.17c-.9.34-1.85.52-2.81.54a5.94 5.94 0 01-3.08-.53c-.56-.31-1.07.56-.5.86z" fill="#020202"/><path d="M250.94 112.13l.11 3.33a.5.5 0 00.86.35.5.5 0 00.15-.36l-.11-3.32a.5.5 0 00-1 0zm14.91-19.31c-3.72.07-7.35 1.58-11.05 1.3l2.08 5.95 1.25-1.28c.84-.86 1.92-1.79 3.08-1.52 1.06.25 1.67 1.49 1.46 2.55a3.73 3.73 0 01-1.98 2.43l-.77.56c0 .63-.03 2.28.1 2.42.14.11.3.18.48.18.87.1 1.92.14 2.41-.58.18-.29.29-.62.32-.96.07-.56.1-1.13.1-1.7a.67.67 0 01.1-.48.7.7 0 01.36-.16 3.63 3.63 0 002.68-3.2c.13-1.87-1.22-3.74-.62-5.5z" fill="#020202"/><path d="M265.85 92.32c-3.72.09-7.3 1.55-11.05 1.3a.5.5 0 00-.49.63l2.09 5.96a.5.5 0 00.13.22.5.5 0 00.48.12.5.5 0 00.23-.12c.49-.5.97-1.02 1.47-1.51.44-.5 1-.87 1.6-1.11 1.13-.36 2.01.68 1.9 1.75-.11 1.08-1 1.75-1.85 2.32a8 8 0 00-.68.49c-.34.28-.26.69-.26 1.1 0 .58-.19 1.78.35 2.2.38.29.99.29 1.45.3.55.03 1.1-.09 1.58-.35 1.2-.73.88-2.28 1.04-3.45.04-.26-.08-.06.03-.14a3.86 3.86 0 001.08-.44 4.21 4.21 0 001.94-2.7c.13-.6.13-1.21 0-1.81-.24-1.36-.98-2.74-.55-4.13.19-.61-.78-.88-.97-.26-.53 1.73.44 3.3.6 5a3.14 3.14 0 01-2.3 3.36c-.96.3-.8 1.03-.84 1.88-.04.84-.05 1.83-1.04 2-.37.06-.8-.08-1.14 0-.13-.06-.18-.02-.17.11V105a19.36 19.36 0 01-.03-2.18l-.24.43c.72-.52 1.56-.96 2.15-1.65a3.2 3.2 0 00.64-3.36 2.38 2.38 0 00-2.92-1.39c-1.45.45-2.5 1.84-3.52 2.89l.84.22-2.08-5.96-.49.63c3.75.26 7.33-1.2 11.05-1.3a.5.5 0 10-.03-1z" fill="#020202"/><path d="M256.33 93.3l-.16-.17a.36.36 0 00-.16-.1.44.44 0 00-.4 0 .36.36 0 00-.17.1l-.08.1a.52.52 0 00-.06.26v.13c.02.08.06.16.13.22l.16.16a.48.48 0 00.54.1.33.33 0 00.17-.1l.08-.1a.5.5 0 00.06-.25l-.01-.13a.48.48 0 00-.13-.22h.03z" fill="#020202"/><path d="M264.7 85.45a7.02 7.02 0 00-2-2.22 12.32 12.32 0 00-19 5.31c-.25.66-.5 1.4-1.1 1.77-.37.19-.78.3-1.2.32a40.3 40.3 0 00-10.72 2.85c-.4.17-.9.56-.69.94l23.5-.6c3.94-.1 8.9-.06 12.64-1.33-.02 0-.45-5.15-1.44-7.04z" fill="#6F4AB3"/><path d="M265.13 85.2c-1.33-2.44-4.22-3.98-6.83-4.62a12.88 12.88 0 00-8.15.63 13.1 13.1 0 00-6.7 6.67 7.9 7.9 0 01-.77 1.7c-.47.6-1.38.56-2.06.65a40.12 40.12 0 00-10.2 2.81c-.59.27-1.18.83-.93 1.52a.51.51 0 00.49.37l15.23-.4 7.67-.2c2.13-.06 4.26-.07 6.4-.2a27.4 27.4 0 006.97-1.16.51.51 0 00.37-.49 45.5 45.5 0 00-.36-2.94c-.22-1.46-.45-3.02-1.13-4.35-.29-.58-1.16-.07-.86.5.63 1.24.82 2.76 1.03 4.12.13.88.24 1.78.32 2.67l.37-.48c-4.02 1.33-8.36 1.2-12.52 1.31l-14.93.4-8.56.22.48.37c-.15-.4 3.56-1.53 4.02-1.66a39.94 39.94 0 016.32-1.42c.7-.1 1.47-.1 2.08-.47 1-.6 1.2-1.92 1.7-2.9a11.9 11.9 0 0116.27-5.23 8.19 8.19 0 013.43 3.09c.29.56 1.17.05.85-.51zm-22.27 49.1a40.96 40.96 0 002.88 6.8c.3.58 1.17.07.87-.5a39.98 39.98 0 01-2.78-6.59c-.2-.6-1.16-.34-.97.27v.02z" fill="#020202"/><path d="M207.62 144.53c-2.9-.63-5.88-.78-8.83-.45-.89.1-1.84.28-2.45.94.07.19.33.22.53.22h3.76" fill="#fff"/><path d="M207.77 144.06a28.08 28.08 0 00-9.48-.41 3.9 3.9 0 00-2.3 1.02.52.52 0 00-.08.6c.4.65 1.3.48 1.96.48h2.77a.5.5 0 00.36-.86.5.5 0 00-.36-.14h-3.05c-.12 0-.8 0-.8.02l-.08.6c.55-.56 1.33-.7 2.09-.8a26.92 26.92 0 018.7.44c.63.14.9-.83.27-.96z" fill="#020202"/><path d="M212.88 146.06c-.98-.2-1.91-.61-2.88-.91-1.67-.53-3.74-1.04-5.72-.64-2.96.59-4.09.66-6.48 1.4-.56.17-.75 1.06-.29 1.34l9.66-.02a6.53 6.53 0 00-4.63 2.05c-.3.32-.56.87-.23 1.17.1.08.2.14.33.16 2.09.62 4.25-.67 6.43-.73.61.04 1.24.01 1.85-.1.6-.16 1.16-.7 1.09-1.31" fill="#fff"/><path d="M213.02 145.58c-1.04-.23-2.03-.65-3.04-.96-.93-.3-1.88-.51-2.84-.65-1.94-.26-3.78.22-5.68.56a41.42 41.42 0 00-3.2.72c-.38.07-.74.22-1.05.44a1.36 1.36 0 00-.27 1.69c.24.36.56.38.97.38h9.27v-1a7.17 7.17 0 00-4.42 1.65c-.54.44-1.2 1.1-1.1 1.87.13.77 1.05.93 1.72 1 1.8.18 3.49-.68 5.26-.85.88-.08 1.82.12 2.67-.24a1.83 1.83 0 001.2-1.7c-.02-.64-1.02-.65-1 0 .03.64-.77.9-1.32.92-.65.03-1.3-.02-1.94.06-1.3.19-2.55.68-3.86.8-.28.03-1.65.13-1.72-.2-.09-.4.89-1.04 1.14-1.2a6.15 6.15 0 013.36-1.1.5.5 0 00.35-.85.5.5 0 00-.35-.15l-9.66.02.36.15c-.53-.4.6-.67.8-.73.51-.15 1.03-.27 1.55-.4 1.15-.25 2.3-.43 3.46-.65.75-.17 1.51-.26 2.28-.26.81.02 1.62.13 2.4.34 1.5.35 2.9 1 4.38 1.33.63.14.9-.83.27-.97l.01-.02z" fill="#020202"/><path d="M283.19 138.66c-1.04-4.64-3.05-10.93-4.28-15.53a5 5 0 00-1.06-2.28 4.97 4.97 0 00-1.6-.95c-5.08-2.2-10.64-4.13-15.79-6.16 0 0-4.18 9.46-4.35 10.07-.17.61-4.94-8.41-4.94-8.41l-10.6 6-.7.53a52.8 52.8 0 00-10.04 16.22l-19.3 7.1 3.2 6.8a1.26 1.26 0 001.23.93c.18 0 .36-.04.53-.12 6.73-1.24 18.75-6.69 18.75-6.69 1.05-.3 1.98-.9 2.7-1.71.71-.8 4.85-8.3 6.78-10.86" fill="#fff"/><path d="M283.67 138.53c-1.03-4.6-2.48-9.1-3.75-13.64-.25-1.06-.56-2.1-.92-3.11-.48-1.2-1.35-1.81-2.5-2.31-2.4-1.06-4.88-2-7.35-2.96-2.85-1.08-5.71-2.14-8.54-3.25a.5.5 0 00-.57.23 739.41 739.41 0 00-3.64 8.33c-.24.55-.48 1.1-.7 1.67a.64.64 0 00-.05.16c0 .16.31-.33.55-.28l.14.05c-.1-.12-.2-.25-.29-.4-.94-1.39-1.72-2.89-2.53-4.36a269.4 269.4 0 01-1.9-3.55.5.5 0 00-.69-.18l-6.43 3.64-3.13 1.77c-.6.32-1.18.68-1.72 1.1-.72.66-1.37 1.4-1.94 2.2a52.6 52.6 0 00-8.34 14.33l.35-.34-6.5 2.4-10.4 3.82-2.4.88a.51.51 0 00-.3.74l1.7 3.58c.54 1.15 1.02 2.37 1.64 3.48.53.94 1.46.91 2.41.73.75-.14 1.48-.32 2.21-.52a87.9 87.9 0 009.84-3.38 165.9 165.9 0 006.35-2.67c.23-.1.45-.17.7-.26.9-.34 1.7-.89 2.35-1.6.57-.74 1.07-1.53 1.5-2.35 1.74-2.88 3.33-5.91 5.35-8.61.4-.52-.48-1.02-.86-.5-1.74 2.31-3.14 4.9-4.62 7.38-.6 1-1.18 2-1.81 2.99l-.25.35a4.8 4.8 0 01-.67.64c-.6.43-1.26.76-1.95 1-4.7 1.97-9.38 4-14.27 5.5a48.53 48.53 0 01-3.7.99c-.43.15-.88.2-1.32.15-.48-.14-.73-1.08-.92-1.49l-.93-1.97-1.87-3.94-.3.74 13.26-4.87 5.84-2.15a.9.9 0 00.63-.59 53.74 53.74 0 016.09-11.19c.92-1.29 1.9-2.53 2.94-3.73.3-.4.66-.78 1.05-1.1.5-.35 1.03-.66 1.58-.95l9.38-5.3-.68-.19c1.39 2.64 2.74 5.36 4.39 7.84.23.35.58 1 1.09.85.4-.1.55-.83.69-1.17.71-1.71 1.46-3.4 2.2-5.1l1.79-4.06-.57.23c4.87 1.92 9.81 3.64 14.64 5.67 1.06.45 2.36.8 2.94 1.91.49.92.66 2.05.94 3.05.62 2.2 1.27 4.38 1.9 6.57.7 2.45 1.39 4.9 1.95 7.38.14.62 1.1.36.96-.27h-.04z" fill="#020202"/><path d="M314.7 141.36c-.71-1.71-1.21-3.81-3.02-4.53a6.13 6.13 0 00-2.25-.28l-47.66-.03a15.18 15.18 0 01-5.82-4.15 13.8 13.8 0 01-3.08-6.2c-1.29 1.11-1.72 2.85-1.7 4.48.04 1.63.44 3.24.52 4.87.02.34 0 .68-.05 1.01-1.66-.02-3.3.2-4.9.65-.84.2-1.58.68-2.09 1.34-.34.65-.5 1.37-.46 2.1-.24 7.3-.48 5.48-.73 12.8-.03 1.01 0 2.2.86 2.8.6.43 1.43.45 2.2.44 17.62-.14 46.08 1.26 63.66 0 1.36-.1 2.94-.32 3.6-1.44.28-.6.4-1.25.32-1.9-.05-2.42.6-11.96.6-11.96z" fill="#fff"/><path d="M314.66 141.4c-.74-1.93-1.33-4.48-3.66-5.03-.98-.23-2.04-.14-3.04-.14H261c-.18.02-.35 0-.52-.04a13.74 13.74 0 01-7.8-9.9.5.5 0 00-.35-.36.5.5 0 00-.48.13 6.26 6.26 0 00-1.72 4.44c0 1 .08 2 .24 3 .13 1 .36 2.1.2 3.1l.49-.36c-1.21 0-2.43.13-3.61.37-1 .17-1.95.58-2.76 1.2-.84.73-1.01 1.78-1.05 2.84l-.12 3.1c-.12 2.48-.38 4.96-.48 7.46-.05 1.04-.14 2.1-.09 3.15.04.88.25 1.81.97 2.4.71.6 1.73.6 2.64.59h2.57c3.73 0 7.46.06 11.2.13 8.28.15 16.56.36 24.85.4 3.94.02 7.89 0 11.83-.1 1.8-.06 3.61-.13 5.42-.22.86-.04 6.08-.1 6.95-.16.86-.02 1.71-.14 2.54-.36a3 3 0 001.96-1.57c.33-.75.27-1.56.26-2.36 0-1.2.06-2.4.11-3.58.12-2.5.26-5 .4-7.49 0-.15 0-.3.04-.46.04-.65-.97-.64-1 0a506.6 506.6 0 00-.51 9.53c0 .53-.04 1.05-.04 1.58.03.61.02 1.23-.03 1.84-.3 1.9-2.78 1.8-4.25 1.9-1.64.12-7.65.2-9.3.26-3.7.14-7.38.19-11.08.19-7.94 0-15.88-.16-23.82-.32a1036.17 1036.17 0 00-16.32-.22c-.8 0-1.6.03-2.41 0-.45.03-.89-.07-1.28-.28a1.67 1.67 0 01-.65-1.2c-.1-1-.1-2 0-2.99l.12-2.4c.06-1.02.15-2.03.23-3.05.1-1.41.18-2.83.23-4.25.04-1-.14-2.32.4-3.2.55-.9 1.78-1.21 2.72-1.41 1.1-.22 2.23-.33 3.36-.33a.52.52 0 00.48-.37c.3-1.88-.33-3.82-.4-5.7-.06-1.59.24-3.27 1.42-4.41l-.84-.23a14.38 14.38 0 005.47 8.82 11.1 11.1 0 003.06 1.8c.38.1.77.12 1.16.08h47.31c1.3 0 2.62-.06 3.5 1.07.74.97 1.04 2.23 1.47 3.35.23.62 1.2.36.97-.24zM175.5 98.45c.22.03.43.1.64.18l-.12-.05c.1.04.19.08.27.14l.13.08.07.04s.1.08.03.02l.06.05.11.1.1.12.06.05c.07.1-.07-.08 0 0 .06.11.17.2.3.23a.52.52 0 00.4-.05.5.5 0 00.23-.3.47.47 0 00-.05-.4 2.88 2.88 0 00-1.95-1.2.57.57 0 00-.4.05.51.51 0 00-.18.7.47.47 0 00.3.23v.01zM161 172.42c.35-.55.75-1.14 1.49-1.1.43.05.87.12 1.3.22l1.39.26c.06.01.13.02.2.01a.5.5 0 00.43-.36.5.5 0 00-.05-.39.5.5 0 00-.32-.23l-1.57-.29a6.59 6.59 0 00-1.65-.22c-.99.07-1.6.8-2.1 1.6-.35.55.52 1.05.87.5z" fill="#020202"/><path d="M162.36 173.25l3.48-.02a.5.5 0 00.5-.5.5.5 0 00-.5-.5l-3.48.02a.52.52 0 00-.5.5.5.5 0 00.5.5zm89.04-74.57a1.2 1.2 0 000 1.39c.02.05.07.09.12.11.18.09.35-.13.4-.31a2 2 0 00.12-.69c0-.24-.12-.55-.36-.53" fill="#020202"/><path d="M250.94 98.43a1.68 1.68 0 00.1 2 .72.72 0 00.74.22.93.93 0 00.52-.45 2.23 2.23 0 00.23-1.13 1.2 1.2 0 00-.19-.57.79.79 0 00-.67-.37.51.51 0 00-.5.5.5.5 0 00.5.5h.06l-.14-.02.07.02-.12-.05.05.03-.1-.08.06.07-.08-.1.07.1-.05-.11.05.19v-.14.38l.02-.13c-.02.16-.06.31-.12.46l.05-.12a.9.9 0 01-.09.16l.08-.1a.4.4 0 01-.07.07l.1-.08-.07.05.12-.06h-.06.13-.05.13-.06l.13.05a.09.09 0 01-.05-.02l.1.08a.51.51 0 01-.06-.07l.07.1c-.05-.08-.1-.16-.13-.24l.04.12-.08-.3v.12a1.4 1.4 0 010-.31v.13c.02-.1.04-.21.08-.31l-.05.12.14-.24a.52.52 0 00.05-.4.5.5 0 00-.23-.3.5.5 0 00-.4-.05.6.6 0 00-.3.24l-.02.04zm-5.57.47a1.2 1.2 0 000 1.4c.03.04.07.08.12.11.19.09.36-.13.43-.32.07-.22.11-.45.11-.68 0-.24-.11-.55-.35-.53" fill="#020202"/><path d="M244.92 98.66a1.68 1.68 0 00.09 2.02.72.72 0 00.74.22.94.94 0 00.53-.45c.09-.18.15-.37.18-.56.04-.19.05-.38.04-.57 0-.2-.07-.4-.18-.57a.81.81 0 00-.67-.37.52.52 0 00-.5.5.5.5 0 00.5.5h.05-.13.06l-.12-.06.06.04-.1-.08.06.06-.08-.1.06.12-.05-.12a.6.6 0 01.05.18l-.02-.13c.02.13.02.25 0 .38v-.13c-.02.15-.05.31-.11.46l.05-.12a.74.74 0 01-.1.15l.09-.1a.7.7 0 01-.08.08l.1-.08-.07.04.12-.05-.05.02.13-.02h-.05l.13.02h-.06l.12.05a.1.1 0 01-.04-.02l.1.08-.07-.08.08.1a1.1 1.1 0 01-.14-.23l.06.12c-.04-.1-.07-.2-.09-.31l.02.13v-.32l-.02.14c.01-.1.04-.21.08-.31l-.05.12c.04-.09.08-.16.14-.24a.49.49 0 00.06-.2.5.5 0 00-.01-.2.51.51 0 00-.63-.35.59.59 0 00-.3.24h.02zm5.43-1.88l.14-.07c.12-.05-.1.03.03 0l.27-.09c.17-.06.35-.1.54-.12h.93a.52.52 0 00.62-.35.5.5 0 00-.35-.62 4.33 4.33 0 00-2.69.38.5.5 0 00-.18.69.52.52 0 00.69.18zm-6.26 0l.14-.07c.12-.05-.1.03.03 0l.26-.09c.18-.06.36-.1.55-.12h.93a.5.5 0 00.6-.35.5.5 0 00-.34-.61 4.32 4.32 0 00-2.68.37.5.5 0 00-.18.69.52.52 0 00.69.18zm-212.64 8.07l3.3-3.45c-3.06 8.27-6.09 17.22-7.53 25.93 0 0 6.12 4.4 11.6 6.86 3.36 1.51 9.72 2.22 14.11 2.55 1.64 0 3.28-.1 4.92-.3 3.54-10.9 7-19.2 10.56-30.2 3.04 3.26 3.85 5.02 6.72 8.7 6.82-3.68 8.72-3.69 13.78-9.4-3.55-5.98-9-16.02-9.6-16.6a6.11 6.11 0 00-1.93-1.11l-8.84-3.69a7.84 7.84 0 01-13.86-6.53L45.7 76c-1.1-.2-2.24-.4-3.34-.17-1.28.27-2.36 1.1-3.4 1.9a399.19 399.19 0 00-18.2 15.04l-.2.1c2.17 5.58 9.63 11.45 10.9 11.97z" fill="#020202"/><path d="M31.8 105.2l3.3-3.46-.83-.49c-2.44 6.6-4.74 13.27-6.36 20.12a92.07 92.07 0 00-1.18 5.82.53.53 0 00.24.56 80.15 80.15 0 008.66 5.41 26.3 26.3 0 006.27 2.55c2.33.53 4.68.92 7.05 1.16 1.28.14 2.56.28 3.84.35 1.7.05 3.39-.05 5.06-.3.11 0 .22-.03.3-.1a.52.52 0 00.18-.26c2.55-7.82 5.51-15.49 8.22-23.24.8-2.3 1.59-4.63 2.35-6.96l-.84.22c2.5 2.7 4.47 5.8 6.72 8.7a.5.5 0 00.6.09c3.72-2 7.71-3.56 10.88-6.41 1.06-.97 2.07-2 3.01-3.08a.51.51 0 00.08-.61c-2.17-3.68-4.25-7.42-6.35-11.14-.8-1.4-1.59-2.8-2.41-4.2-.22-.36-.44-.73-.68-1.08a4.23 4.23 0 00-1.83-1.29c-3.1-1.37-6.27-2.62-9.4-3.93a.48.48 0 00-.5.13 7.66 7.66 0 01-6.88 2.85 7.2 7.2 0 01-5.76-4.57 7.34 7.34 0 01-.37-4.32.5.5 0 00-.36-.62l-8.2-1.46c-1.27-.23-2.58-.54-3.88-.4a6.9 6.9 0 00-3.22 1.4c-2.14 1.54-4.18 3.25-6.23 4.9a389.72 389.72 0 00-9.83 8.16l-1.75 1.52c-.42.44-.9.83-1.4 1.16a.5.5 0 00-.24.57 21.63 21.63 0 004.32 6.46 39 39 0 005.14 4.72c.5.43 1.06.8 1.66 1.1.59.26 1.1-.6.5-.86a7.4 7.4 0 01-1.3-.84 32.72 32.72 0 01-2.18-1.77 34.38 34.38 0 01-5.08-5.44 16.64 16.64 0 01-2.09-3.64l-.23.57c.37-.23.72-.5 1.02-.8l1.6-1.4 2.95-2.52A378.1 378.1 0 0138.7 78.52c.93-.73 1.88-1.54 2.98-2 1.26-.52 2.58-.32 3.88-.09l8.98 1.6-.35-.61a8.62 8.62 0 002.46 8.01 8.2 8.2 0 008.16 1.78 8.32 8.32 0 004.08-2.78l-.49.13 8.3 3.46c.59.22 1.17.49 1.72.8.2.11.38.25.55.4.11.1-.04-.06.04.05.23.32.43.65.63.99 1.86 3.1 3.58 6.27 5.36 9.41a359.5 359.5 0 003.48 6.05l.08-.6a28.56 28.56 0 01-4.92 4.59 38.24 38.24 0 01-4.88 2.72c-1.3.65-2.6 1.31-3.88 2l.6.09c-2.25-2.9-4.2-6.01-6.72-8.71a.51.51 0 00-.84.22c-2.53 7.84-5.49 15.52-8.21 23.3-.8 2.3-1.59 4.6-2.35 6.91l.49-.37c-1.45.18-2.9.28-4.35.3-1.16-.01-2.32-.1-3.47-.24-2.4-.22-4.8-.58-7.15-1.08a24.8 24.8 0 01-3.05-.85c-1.07-.41-2.11-.9-3.11-1.45a76.94 76.94 0 01-6.03-3.54 68.37 68.37 0 01-3.2-2.17l.22.56c1.16-6.94 3.22-13.7 5.52-20.34.65-1.86 1.32-3.73 2.01-5.6.18-.48-.51-.84-.84-.5l-3.3 3.46c-.44.54.25 1.25.71.77z" fill="#020202"/><path d="M105.94 53.8a1.5 1.5 0 01-.88 1.22c-.3.15-.86.3-1.67.45-.32.07-.58.11-.76.14-.3.05-.56.06-.81.02-.36-.04-.57-.16-.63-.37l.14-.55a8.4 8.4 0 00-.05-3.2c-.08-.45.03-.73.33-.81l.92-.05c.67-.05 1.11-.07 1.33-.05.47.03.89.15 1.25.37.37.22.45.52.23.9-.13.22-.5.53-1.1.9.69.07 1.17.22 1.45.45.2.16.28.35.25.58zm-1.5-2.34c-.16-.2-.91-.24-2.26-.1-.06.12-.07.32-.03.6.04.33.06.54.04.65.56-.08.93-.15 1.1-.2.3-.08.56-.2.8-.33.38-.22.5-.42.34-.62zm.63 2.3c-.07-.26-.53-.4-1.38-.42a5.01 5.01 0 00-1.5.21c-.03.75-.07 1.2-.12 1.37a5 5 0 002.33-.45c.24-.1.4-.17.49-.24.16-.13.22-.29.17-.48zm5.26-.98c.34.37.48.77.43 1.2-.05.44-.29.82-.7 1.14a2.3 2.3 0 01-1.52.45 2.2 2.2 0 01-1.38-.5c-.57-.48-.7-1.08-.41-1.78.2-.5.55-.83 1.03-1 .46-.15.92-.2 1.37-.12a2 2 0 011.18.61zm-.81.15c-.27-.14-.59-.2-.98-.15-.35.05-.63.16-.84.32-.41.34-.55.7-.41 1.09.1.27.34.48.73.64.4.15.8.18 1.2.09.42-.1.68-.4.78-.88.11-.5-.05-.87-.48-1.1zm6.36-.18c.13.43.19.9.18 1.4-.02.52-.1.92-.24 1.21-.2.07-.32.07-.37 0-.13-.2-.19-.62-.16-1.23.03-.56-.03-.91-.18-1.06-.07-.06-.23-.04-.47.07-.23.11-.38.22-.44.33-.03.13-.03.36 0 .68.02.35.03.6.01.76l-.04.34c-.03.12-.1.2-.19.25-.35.18-.53.01-.54-.5l-.02-1.52a.96.96 0 01-.03-.15 1.22 1.22 0 00-.04-.17c-.04-.11-.13-.15-.24-.1-.26.1-.59.36-.98.75 0 .03 0 .35.05.96.03.4-.06.65-.25.74-.14.07-.27.07-.39 0-.1-.06-.14-.13-.14-.2.04-1.36 0-2.4-.09-3.13a.3.3 0 01.11-.27c.11-.07.28-.07.5.01.2.08.3.22.26.44-.04.26-.04.42 0 .47.14-.03.38-.17.7-.42.28-.2.54-.28.78-.24.12.02.21.09.29.2l.15.4c.17-.04.34-.13.51-.28.23-.2.37-.3.43-.34.27-.14.46-.16.58-.07a3 3 0 01.26.67zm7.64 2.25c.08.08.1.2.02.34-.07.15-.21.2-.42.13-.3-.1-.6-.35-.92-.78a3.24 3.24 0 00-.94-.9c-.18.1-.35.29-.5.55l-.02.31v.36c-.01.27-.1.45-.24.55-.11.07-.25.06-.39-.03-.13-.08-.19-.17-.17-.25.08-.5.1-1.3.04-2.4 0-.24.03-.48.09-.71a.26.26 0 01.13-.19c.07-.03.15-.05.23-.03.21.03.31.17.3.42-.03.48-.03.8-.01.96.22-.12.49-.32.82-.6.42-.42.7-.68.83-.77.23-.17.45-.18.64-.06.08.06.12.12.14.2.02.07 0 .12-.05.16-.53.42-.95.79-1.27 1.12a121.5 121.5 0 001.7 1.63zm4.21-2.22c.33.37.48.77.42 1.2-.05.44-.28.82-.7 1.14a2.3 2.3 0 01-1.51.45 2.2 2.2 0 01-1.39-.5c-.57-.48-.7-1.08-.4-1.78.2-.5.54-.83 1.02-1 .47-.15.92-.2 1.37-.12a2 2 0 011.19.61zm-.82.15c-.26-.14-.59-.2-.97-.15-.36.05-.63.16-.84.32-.42.34-.55.7-.42 1.09.1.27.34.48.73.64.4.15.8.18 1.2.09.42-.1.69-.4.79-.88.1-.5-.06-.87-.49-1.1zm4.39.47a6.04 6.04 0 00-.09-.7c-.04-.32.02-.53.19-.65.24-.17.4-.2.48-.1.06.08.09.25.09.52v1.44c.16.84.1 1.32-.15 1.46-.18.1-.3.07-.4-.08a1.43 1.43 0 01-.1-.38v-.74c-.04-.08-.48-.11-1.34-.08l-.58.05c0 .31.01.68.04 1.09.02.24-.1.35-.33.34-.23-.01-.36-.1-.37-.27-.06-.62-.09-1.55-.08-2.77l.05-.18c0-.2.08-.33.26-.4.19-.05.31 0 .38.2l.07.19a5 5 0 01.01 1.1c.2-.05.5-.07.92-.05.19.04.45.05.8.02h.15zm4.32 1.71c-.1.23-.5.4-1.22.53-.35.06-.67 0-.98-.17a1.3 1.3 0 01-.62-.65 1.93 1.93 0 01-.1-1.1c.06-.38.22-.72.48-1.02.45-.54.94-.73 1.48-.6.49.14.77.54.87 1.22 0 .1-.04.17-.14.21-.12.05-.25 0-.39-.13a8.33 8.33 0 01-.29-.45c-.12-.19-.26-.29-.41-.3-.3-.01-.58.27-.8.85-.25.64-.15 1.1.3 1.38.32.2.77.25 1.33.12.24-.05.38-.08.42-.07.1 0 .11.06.06.18zm.78-1.52c-.1-.67-.05-1.1.13-1.27.18-.1.32-.1.42.01l.1.25.77-.3.84-.27c.3-.1.56-.06.8.1.11.1.16.28.13.57l-.04.37a3 3 0 00-.03.36c-.01.35.04.94.15 1.77.02.2-.06.32-.25.35-.19.03-.32-.02-.4-.16-.16-.24-.2-.68-.16-1.3.06-.63 0-1.06-.16-1.31-.79.07-1.33.25-1.65.53 0 .48.03.98.11 1.51.04.31-.02.53-.18.65-.24.17-.4.2-.49.09-.06-.08-.09-.25-.09-.51v-1.44zm6.97 1.59c-.04.08-.2.18-.49.28-.53.22-1.06.23-1.6.03a1.46 1.46 0 01-.93-.88c-.15-.39-.14-.8.03-1.23.13-.34.27-.58.4-.71.17-.16.48-.34.95-.53.3-.12.61-.12.97 0 .36.1.55.29.56.54.03.49-.19.9-.65 1.23-.2.15-.68.38-1.42.7.1.21.32.35.68.4.34.06.66.03.95-.1.22-.1.39-.11.5-.05.1.06.12.16.05.32zm-.93-2.4c-.1-.15-.24-.2-.42-.17-.38.1-.68.3-.88.62-.2.3-.23.56-.12.75.66-.29 1.03-.45 1.08-.5.42-.22.53-.45.34-.7zM147.5 55c.08.08.08.2.01.34-.07.15-.2.2-.41.13-.3-.1-.6-.35-.92-.78a3.25 3.25 0 00-.94-.9c-.2.1-.36.29-.5.55-.02.08-.03.19-.03.31v.36c0 .27-.09.45-.24.55-.11.07-.24.06-.39-.03-.13-.08-.19-.17-.17-.25.08-.5.1-1.3.04-2.4 0-.24.03-.48.09-.71a.27.27 0 01.13-.19.38.38 0 01.24-.03c.2.03.3.17.3.42-.04.48-.04.8-.02.96.22-.12.49-.32.82-.6.42-.42.7-.68.83-.77.23-.17.45-.18.64-.06.08.06.12.12.14.2.02.07 0 .12-.04.16-.54.42-.96.79-1.28 1.12a119.16 119.16 0 001.7 1.63zm5.14-2.25c.12.43.18.9.17 1.4 0 .52-.09.92-.24 1.21-.2.07-.31.07-.36 0-.14-.2-.19-.62-.16-1.23.03-.56-.03-.91-.18-1.06-.07-.06-.23-.04-.47.07-.23.11-.38.22-.44.33-.03.13-.04.36-.01.68.03.35.04.6.02.76l-.05.34a.37.37 0 01-.18.25c-.35.18-.53.01-.54-.5l-.03-1.52-.03-.15a1.24 1.24 0 00-.03-.17c-.05-.11-.13-.15-.25-.1-.26.1-.58.36-.98.75l.06.96c.02.4-.06.65-.25.74-.14.07-.27.07-.39 0-.1-.06-.14-.13-.14-.2.04-1.36 0-2.4-.09-3.13a.3.3 0 01.11-.27c.11-.07.28-.07.5.01.2.08.29.22.26.44-.04.26-.04.42 0 .47.14-.03.37-.17.7-.42.28-.2.53-.28.77-.24.13.02.22.09.3.2l.14.4c.18-.04.35-.13.52-.28.22-.2.37-.3.43-.34.26-.14.46-.16.58-.07.04.03.12.25.26.67z" fill="#000"/></g><path d="M244.4 43.59c.05.48 0 1.4-.17 2.77l.02.7c.02.26 0 .43-.06.52a.53.53 0 01-.3.2c-.15.05-.26.02-.33-.1-.14-.2-.19-.53-.13-.99.07-.63.1-1.01.08-1.15-.1-.03-.44 0-1.01.09l-.57.05a6.3 6.3 0 00-.57.06c-.4.07-.75.23-1.04.5l.08.87c.03.36-.1.55-.4.58-.17.02-.28-.01-.34-.1a.78.78 0 01-.06-.36l.05-.5c.03-.21.04-.38.03-.51a.59.59 0 01-.23-.44.6.6 0 01.2-.46c0-.1 0-.33.03-.67.03-.28.03-.5.02-.67a3.17 3.17 0 01-.04-.75c.03-.2.15-.31.35-.35.14-.03.25-.01.31.05.05.05.1.15.12.3a2.4 2.4 0 01.01.9l-.02.33c-.01.25.04.47.15.69.13-.01.3-.06.52-.13l.53-.14c.32-.04.68-.08 1.08-.1.49-.02.78-.03.88-.05v-.54l-.03-.55c0-.47.08-.76.25-.85.25-.14.42-.1.5.1l.09.7zm3.95 3.83c-.03.09-.2.18-.49.29-.52.22-1.06.22-1.6.02a1.46 1.46 0 01-.93-.87c-.15-.39-.14-.8.04-1.24.13-.33.26-.57.4-.7.16-.16.47-.34.94-.53.3-.12.62-.12.97-.01.36.11.55.3.57.54.03.5-.2.9-.66 1.24-.2.14-.68.38-1.42.7.1.2.33.34.68.4.34.06.66.02.96-.1.21-.1.38-.12.49-.06.1.06.12.17.05.32zm-.93-2.4a.36.36 0 00-.41-.16c-.4.1-.69.3-.89.62-.19.3-.23.55-.12.75.67-.3 1.03-.46 1.09-.5.4-.22.52-.46.33-.71zm8.35.01c.34.36.48.76.43 1.2-.05.44-.29.82-.7 1.14a2.3 2.3 0 01-1.52.45 2.2 2.2 0 01-1.38-.5c-.57-.48-.7-1.08-.41-1.79.2-.5.55-.83 1.02-.99.47-.16.93-.2 1.38-.12a2 2 0 011.18.6zm-.81.15c-.27-.15-.6-.2-.98-.15-.35.05-.63.15-.84.32-.41.34-.55.7-.41 1.08.1.27.34.49.73.64.4.16.79.19 1.19.1.43-.1.7-.4.8-.89.1-.5-.06-.86-.5-1.1zm1.87.66c-.1-.68-.06-1.1.13-1.28.18-.1.32-.09.41.02.04.05.07.14.1.25l.78-.3.84-.28c.3-.1.56-.06.8.11.1.09.16.28.13.57l-.04.37c-.03.16-.04.28-.04.36 0 .34.05.93.16 1.77.02.2-.06.31-.26.35-.18.03-.32-.02-.4-.16-.15-.24-.2-.68-.15-1.31.05-.62 0-1.06-.17-1.3-.78.07-1.33.25-1.64.52-.01.49.02.99.1 1.52.05.3-.01.52-.18.64-.23.17-.4.2-.48.1-.06-.08-.09-.25-.09-.52v-1.43zm7.33 1.54c.03.07-.02.14-.13.2-.12.08-.23.1-.33.07-.16-.05-.27-.12-.32-.23a6.72 6.72 0 00-.09-.4c-.22.3-.48.5-.78.6-.52.2-1 .2-1.43.02-.3-.12-.44-.33-.45-.63a.98.98 0 01.3-.75c.4-.4 1.15-.67 2.27-.8.07-.26.07-.44-.01-.54-.05-.06-.18-.12-.4-.2-.22-.08-.47-.05-.76.1-.25.13-.46.3-.66.52a.48.48 0 01-.46.17c-.17-.03-.25-.1-.23-.22.06-.34.52-.7 1.36-1.06.54-.23 1.04-.2 1.5.1.27.19.4.38.42.57 0 .09 0 .2-.02.35l-.04.35a4.5 4.5 0 00.26 1.78zm-1.09-1.26a1.31 1.31 0 00-.5 0c-.48.13-.8.23-.92.31-.26.16-.32.37-.18.64.2.1.4.1.65 0 .49-.14.8-.46.95-.95zm4.16-.28c.44.08.7.28.76.57.1.26.03.53-.23.8a1.7 1.7 0 01-.73.46 2.9 2.9 0 01-1.12.14 1.66 1.66 0 01-.82-.2.79.79 0 01-.3-.31c-.09-.17-.08-.29.03-.36.13-.1.27-.08.41.06.25.13.54.19.85.18.74-.02 1.17-.2 1.3-.54-.1-.23-.44-.34-1-.35a6.08 6.08 0 01-.8-.1c-.08-.03-.12-.11-.14-.23.02-.13.08-.2.19-.24l.5-.12c.43-.08.7-.17.8-.27.09-.1.1-.2.04-.3-.05-.1-.2-.18-.45-.23a1.38 1.38 0 00-1.14.28.54.54 0 01-.44.2.33.33 0 01-.26-.21c-.1-.26.17-.52.8-.78.73-.18 1.34-.12 1.82.17.26.17.4.35.43.54a.8.8 0 010 .4c-.11.16-.28.3-.5.44zm3.77-.49c-.17-.2-.48-.27-.94-.2-.3.07-.56.23-.75.48-.18.22-.26.44-.21.66.03.23.16.42.36.6a1 1 0 00.73.22c.4-.01.68-.19.85-.52.08-.13.13-.33.14-.58a.96.96 0 00-.17-.66zm.85-.34c.07.6.04 1.12-.08 1.57-.13.47-.38.8-.74.99-.54.26-1.1.29-1.67.08a1.43 1.43 0 01-.77-.8c-.19-.49-.18-.95.02-1.37.2-.43.57-.73 1.1-.9.26-.07.53-.09.82-.05a2 2 0 01.52.1v-.07c-.1-.45-.32-.74-.66-.87-.29-.1-.59-.12-.88-.04a.94.94 0 00-.44.23c-.1.09-.17.14-.22.15-.15.08-.29.04-.43-.1-.09-.09-.1-.21-.03-.37.05-.1.19-.2.43-.3.51-.3 1.09-.37 1.73-.19.4.13.72.4.95.84.19.31.3.68.35 1.1zm3.13 1.69c.03-.35-.26-.5-.87-.45-.3.03-.56.09-.77.2-.12.08-.15.22-.09.41.02.18.14.3.37.34.3.04.57.04.82-.02.36-.14.54-.3.54-.48zm-2.46.48l-.05-.37a1.5 1.5 0 010-.39l.03-.28.1-1.52c.03-.2.1-.31.2-.35.1-.03.22.02.35.16.1.24.14.65.1 1.2v.2a1.92 1.92 0 011.2-.26 1.8 1.8 0 01.81.22c.12.05.21.14.28.26.06.11.12.26.18.43.07.47-.13.82-.59 1.05a4.1 4.1 0 01-1.3.27c-.3 0-.57-.04-.8-.12-.29-.07-.46-.24-.51-.5zm4.27-.26c.03.22.04.37.04.45a.41.41 0 01-.26.34c-.11.05-.2.05-.28 0a.35.35 0 01-.18-.22c-.05-.13-.07-.5-.07-1.12 0-.9 0-1.51-.03-1.85 0-.1.07-.19.24-.25.15-.07.28-.02.38.12.1.17.15.53.13 1.1a8.7 8.7 0 00.03 1.43zm3.21-1.69c-.19-.13-.46-.16-.82-.1-.36.07-.62.2-.79.42-.3.6-.26 1.04.14 1.3.51.22.92.25 1.23.1a.98.98 0 00.64-.8.88.88 0 00-.4-.92zm-.21-1.63a.38.38 0 00-.42-.16c-.38.1-.68.28-.88.56-.2.3-.23.55-.12.75.21-.17.57-.29 1.08-.37.42-.3.53-.57.34-.78zm.29.96c.2.06.37.14.53.25.25.17.41.4.5.69.07.26.07.54 0 .85-.2.68-.6 1.11-1.23 1.3a2.76 2.76 0 01-1.57-.01 1.3 1.3 0 01-.68-.76c-.14-.38-.2-.81-.15-1.3a6.85 6.85 0 01.25-1.46c.13-.33.27-.57.41-.7.16-.17.47-.33.94-.49.29-.1.61-.1.97.01.36.12.55.3.56.55.03.4-.15.76-.53 1.07zm5.05 2.82c.03.07-.02.14-.13.2-.12.08-.23.1-.33.07-.17-.05-.27-.12-.32-.23a11.6 11.6 0 00-.09-.4c-.22.3-.48.5-.78.6-.52.2-1 .2-1.43.02-.3-.12-.44-.33-.45-.63a.98.98 0 01.3-.75c.4-.4 1.15-.67 2.27-.8.07-.26.07-.44-.01-.54-.05-.06-.18-.12-.4-.2-.22-.08-.47-.05-.76.1-.25.13-.47.3-.66.52a.48.48 0 01-.46.17c-.18-.03-.25-.1-.23-.22.06-.34.52-.7 1.36-1.06.54-.23 1.04-.2 1.5.1.27.19.4.38.42.57 0 .09 0 .2-.03.35l-.03.35c-.02.64.06 1.23.26 1.78zm-1.09-1.26a1.3 1.3 0 00-.5 0c-.48.13-.8.23-.92.31-.26.16-.32.37-.18.64.2.1.4.1.65 0 .49-.14.8-.46.95-.95zm5.01.03c.15.92.1 1.45-.15 1.59-.18.1-.31.07-.4-.08a2.9 2.9 0 01-.1-.69l-.77.48-.84.28c-.3.1-.56.06-.8-.1-.11-.1-.16-.28-.13-.57l.04-.37.03-.36c0-.35-.04-.94-.15-1.77-.03-.2.06-.32.25-.35.19-.03.32.02.4.16.16.24.2.68.16 1.3-.06.63 0 1.06.16 1.31.79-.2 1.33-.44 1.64-.72.02-.35-.02-.8-.1-1.32-.05-.31.02-.53.18-.65.24-.17.4-.2.48-.09.06.08.1.25.1.51v1.44zm-.68-2.62c.03.17-.05.32-.24.46a1.25 1.25 0 01-.92.16 1.07 1.07 0 01-.47-.14.92.92 0 01-.21-.23c-.04-.13-.01-.25.08-.38a3.91 3.91 0 01.56.1c.21.02.37.02.47-.02a.6.6 0 00.28-.12c.12-.07.2-.1.28-.08.07.02.13.1.18.25zm6.06 1.47c.13.43.19.9.18 1.4-.01.52-.1.92-.24 1.2-.2.08-.32.08-.37 0-.13-.2-.18-.61-.15-1.22.02-.57-.04-.92-.19-1.06-.07-.07-.22-.05-.46.07a1 1 0 00-.45.33c-.03.13-.03.36 0 .68.02.35.03.6.01.75l-.04.34a.4.4 0 01-.18.25c-.36.19-.54.02-.55-.5l-.02-1.51-.03-.16a1.22 1.22 0 00-.04-.16c-.04-.12-.12-.15-.24-.1-.26.1-.59.35-.98.75l.05.96c.03.4-.05.64-.25.74a.42.42 0 01-.38 0c-.1-.07-.15-.13-.15-.2.04-1.37.01-2.4-.08-3.13-.02-.12.02-.21.1-.27.12-.08.28-.07.5 0 .2.08.3.23.26.44-.04.27-.04.43.01.48.13-.03.37-.17.7-.42.27-.2.53-.29.77-.25.12.02.22.1.29.21l.15.4c.17-.04.34-.14.52-.29.22-.19.36-.3.43-.33.26-.14.45-.16.57-.08.04.03.13.26.26.68zm4.07 2.42c-.04.09-.2.18-.5.29a2.1 2.1 0 01-1.6.02 1.46 1.46 0 01-.92-.87c-.15-.39-.14-.8.03-1.24.13-.33.27-.57.4-.7.16-.16.48-.34.95-.53.29-.12.61-.12.97-.01s.55.3.56.54c.03.5-.19.9-.65 1.24-.2.14-.68.38-1.42.7.1.2.32.34.67.4.35.06.67.02.96-.1.22-.1.38-.12.5-.06.1.06.12.17.05.32zm-.93-2.4c-.1-.15-.24-.2-.42-.16-.38.1-.68.3-.88.62-.2.3-.23.55-.12.75.66-.3 1.03-.46 1.08-.5.41-.22.53-.46.34-.71zm-55.38 9.36a5.83 5.83 0 00-.1-.72c-.03-.3.03-.52.19-.64.24-.17.4-.2.48-.1.06.08.1.25.1.52v1.43c.15.84.1 1.33-.15 1.47-.18.1-.31.07-.4-.08a1.4 1.4 0 01-.1-.38v-.74c-.04-.08-.5-.11-1.35-.08l-.58.05c0 .31.02.68.05 1.09 0 .24-.1.35-.34.34-.23-.01-.35-.1-.37-.27-.06-.62-.08-1.55-.08-2.78l.06-.17c-.01-.2.07-.33.25-.4.19-.06.31 0 .38.2l.07.19c.05.33.05.7.01 1.1.2-.05.5-.07.92-.05.19.04.45.05.8.02h.16zm4.84 1.72c.03.07-.02.14-.13.21-.12.07-.23.1-.33.06-.16-.04-.27-.12-.32-.22a6.56 6.56 0 00-.09-.4c-.22.3-.48.5-.78.6-.52.2-1 .2-1.43.02-.3-.12-.44-.33-.45-.63a.98.98 0 01.3-.75c.4-.4 1.15-.67 2.27-.8.08-.26.07-.44-.01-.54-.05-.06-.18-.13-.4-.2-.22-.09-.47-.05-.76.1-.25.12-.47.3-.66.51a.48.48 0 01-.46.17c-.17-.03-.25-.1-.23-.22.06-.34.52-.7 1.36-1.06a1.54 1.54 0 011.5.11c.27.18.4.37.42.57 0 .08 0 .2-.02.34l-.03.36a4.5 4.5 0 00.25 1.77zm-1.09-1.26a1.3 1.3 0 00-.5 0c-.48.14-.79.24-.92.32-.26.15-.32.37-.18.63.2.1.4.1.65 0 .49-.14.8-.45.95-.95zm7.24-.89c-.18-.12-.45-.15-.81-.09-.36.06-.63.2-.8.41-.3.61-.25 1.05.14 1.3.52.22.93.26 1.24.1a.98.98 0 00.64-.8.88.88 0 00-.4-.92zm-.2-1.63a.37.37 0 00-.42-.15c-.39.09-.68.27-.88.55-.2.3-.24.56-.12.75.2-.16.57-.29 1.08-.37.41-.3.52-.56.33-.78zm.28.97c.2.05.37.13.53.24.25.17.42.4.5.69.07.26.07.54 0 .85-.2.68-.6 1.12-1.23 1.31-.18.08-.46.11-.83.1a2.78 2.78 0 01-.74-.11 1.3 1.3 0 01-.68-.77c-.14-.37-.19-.8-.15-1.3a6.95 6.95 0 01.26-1.45c.13-.34.27-.57.4-.7.17-.17.48-.34.94-.5.3-.1.62-.1.97.02.36.11.55.3.57.54.02.4-.15.76-.54 1.08zm4.69 2.86c-.03.08-.2.18-.49.28-.52.22-1.06.23-1.6.03a1.46 1.46 0 01-.93-.88 1.6 1.6 0 01.04-1.23c.13-.34.26-.58.4-.71.16-.16.47-.34.94-.53.3-.12.62-.12.97 0 .36.1.55.29.57.54.02.49-.2.9-.66 1.23-.2.15-.68.38-1.42.7.1.21.32.34.68.4.34.06.66.03.95-.1.22-.1.39-.11.5-.05.1.05.12.16.05.32zm-.93-2.4c-.1-.15-.24-.2-.42-.17-.38.1-.68.3-.88.62-.2.3-.23.56-.12.75a14.7 14.7 0 001.09-.5c.4-.22.52-.45.33-.7zm3.98.24c-.18-.13-.45-.16-.81-.1-.36.06-.63.2-.8.41-.3.61-.25 1.05.14 1.3.52.21.93.25 1.24.1a.98.98 0 00.63-.8.88.88 0 00-.4-.91zm-1.46-1.7c.24-.09.52-.16.84-.22.31-.06.53-.16.66-.3.05-.02.06-.07.05-.13 0 0 0-.03-.04-.1-.05-.2.02-.32.2-.39.14-.05.27-.01.4.1.12.13.17.27.15.43-.03.5-.46.85-1.3 1.03l-.64.15a.73.73 0 00-.54.52l-.05.16c.35-.18.73-.28 1.13-.3.48 0 .89.1 1.21.32.25.18.42.4.5.7a1.81 1.81 0 01-1.27 2.11c-.2.06-.48.09-.83.09a2.05 2.05 0 01-.64-.15 1.35 1.35 0 01-.74-.75 2.7 2.7 0 01-.15-1.3c.05-.5.1-.82.15-.97.09-.24.2-.45.34-.62.14-.17.33-.3.57-.38zm6.5 2.58c.15.93.1 1.46-.15 1.6-.18.09-.31.06-.4-.08a2.81 2.81 0 01-.1-.7l-.77.49-.84.28c-.3.1-.56.06-.8-.11-.11-.09-.16-.28-.13-.57l.04-.37.04-.36c0-.34-.05-.93-.16-1.77-.02-.2.06-.31.26-.35.18-.03.32.02.4.16.15.25.2.68.15 1.31-.05.62 0 1.06.16 1.3.79-.2 1.34-.43 1.65-.71.01-.36-.02-.8-.1-1.33-.05-.3.01-.52.17-.64.24-.17.4-.2.49-.1.06.08.09.25.09.52v1.43zm3.41-.49a6.04 6.04 0 00-.08-.72c-.05-.3.02-.52.18-.64.24-.17.4-.2.49-.1.05.08.08.25.08.52v1.43c.16.84.11 1.33-.14 1.47-.18.1-.31.07-.4-.08a1.39 1.39 0 01-.1-.38v-.74c-.04-.08-.5-.11-1.35-.08l-.58.05c0 .31.02.68.05 1.09 0 .24-.1.35-.34.34-.23-.01-.35-.1-.37-.27-.06-.62-.08-1.55-.07-2.78l.05-.17c-.01-.2.07-.33.25-.4.19-.06.31 0 .38.2l.07.19c.05.33.05.7.01 1.1.2-.05.5-.07.92-.05.19.04.45.05.8.02h.15zm4.85 1.72c.03.07-.02.14-.13.21-.12.07-.23.1-.33.06-.16-.04-.27-.12-.32-.22a6.72 6.72 0 00-.09-.4c-.22.3-.48.5-.78.6-.52.2-1 .2-1.43.02-.3-.12-.44-.33-.45-.63a.98.98 0 01.3-.75c.4-.4 1.15-.67 2.27-.8.08-.26.07-.44-.01-.54-.05-.06-.18-.13-.4-.2-.22-.09-.47-.05-.76.1-.25.12-.47.3-.66.51a.48.48 0 01-.46.17c-.17-.03-.25-.1-.23-.22.06-.34.52-.7 1.36-1.06a1.54 1.54 0 011.5.11c.27.18.4.37.42.57 0 .08 0 .2-.02.34l-.03.36a4.5 4.5 0 00.25 1.77zm-1.09-1.26a1.31 1.31 0 00-.5 0c-.48.14-.8.24-.92.32-.26.15-.32.37-.18.63.2.1.4.1.65 0 .49-.14.8-.45.95-.95zm4.73-1.34c.25.17.42.4.5.69.07.26.06.54-.02.84a1.76 1.76 0 01-2.08 1.29l-.66-.07c-.04.11-.06.34-.06.68 0 .39-.02.67-.06.84l-.07.41a.48.48 0 01-.25.29c-.08.04-.17 0-.26-.12a.42.42 0 01-.14-.3c.15-1.76.12-3.33-.08-4.7-.01-.12.05-.2.2-.27a.6.6 0 01.41-.05c.09.03.14.09.17.17l.01.26c.39-.17.78-.26 1.18-.27.48-.02.88.08 1.21.31zm-.6.42c-.2-.12-.46-.15-.82-.1-.36.07-.67.2-.92.42-.1.57-.07 1 .07 1.3.64.2 1.12.24 1.43.1a.98.98 0 00.63-.8.88.88 0 00-.4-.92zm-26.32 90a.5.5 0 01.28.17c.06.07.08.2.06.37-.03.51-.04.9-.04 1.15l.06 1.1c.04.8.01 1.48-.1 2.03-.08.4-.24.55-.46.46a.95.95 0 01-.25-.43 4.8 4.8 0 01.06-1.3c.01-.06.02-.64.02-1.72 0-.1-.01-.25-.04-.42a9 9 0 01-.08-.65c.01-.04 0-.06-.04-.06a5.28 5.28 0 01-.6-.03 4.78 4.78 0 00-1.56.2l-.04.12v.19a5 5 0 00-.09.96l-.01 1.64c.03.63 0 1.01-.07 1.14-.09.14-.23.17-.44.07-.25-.12-.35-.5-.28-1.13.1-.97.13-1.66.06-2.08l-.11-.86c0-.17.02-.3.08-.4a.28.28 0 01.1-.16c.16-.07.73-.17 1.72-.29l1.08-.12c.34 0 .57.02.7.05zm5.02 2.4c.33.37.48.77.42 1.2-.04.44-.28.82-.7 1.14a2.3 2.3 0 01-1.51.45 2.2 2.2 0 01-1.39-.5c-.57-.48-.7-1.08-.4-1.78.2-.5.54-.83 1.02-1 .47-.15.92-.2 1.37-.12a2 2 0 011.19.61zm-.82.15c-.26-.14-.59-.2-.97-.15-.35.05-.63.16-.84.33-.42.33-.56.7-.42 1.08.1.27.34.48.73.64.4.15.8.18 1.2.09.42-.1.69-.4.79-.88.1-.5-.06-.87-.49-1.1zm4.18.06c-.19-.13-.46-.16-.81-.1-.37.06-.63.2-.8.41-.3.61-.26 1.05.14 1.3.51.22.92.26 1.24.1a.98.98 0 00.63-.8.87.87 0 00-.4-.91zm-.21-1.64a.36.36 0 00-.42-.15c-.38.09-.68.27-.88.55-.2.3-.23.56-.12.75.21-.16.57-.29 1.09-.37.4-.3.52-.56.33-.78zm.29.97c.2.05.37.13.53.24.25.18.42.4.5.69.07.26.07.54 0 .85-.2.68-.6 1.12-1.23 1.31-.19.08-.46.11-.83.1a2.77 2.77 0 01-.74-.11 1.3 1.3 0 01-.68-.77 3 3 0 01-.15-1.3 6.87 6.87 0 01.26-1.45c.13-.34.26-.57.4-.7.16-.17.47-.34.94-.5.3-.1.62-.1.97.02.36.11.55.3.57.54.02.4-.16.76-.54 1.08zm6.26.44c.12.42.18.9.17 1.4 0 .51-.09.92-.24 1.2-.2.07-.31.07-.36 0-.13-.21-.19-.62-.16-1.23.03-.56-.03-.91-.18-1.06-.07-.06-.23-.04-.47.07-.23.11-.38.22-.44.33-.03.13-.04.36-.01.68.03.35.03.6.02.76l-.05.34a.37.37 0 01-.18.25c-.35.18-.53.01-.54-.5l-.03-1.52a.97.97 0 01-.03-.16 1.43 1.43 0 00-.04-.16c-.04-.11-.12-.15-.24-.1-.25.1-.58.36-.98.75l.06.96c.02.4-.06.65-.25.74a.38.38 0 01-.39 0c-.1-.06-.14-.13-.14-.2.04-1.36 0-2.4-.09-3.13-.01-.12.02-.2.11-.27.11-.07.28-.07.5.01.2.08.29.22.26.44-.04.26-.04.42 0 .47.14-.03.37-.17.7-.42.28-.2.53-.28.77-.24.13.02.22.09.3.2l.14.4c.18-.04.35-.13.52-.28.22-.2.37-.3.43-.34.26-.13.46-.16.58-.07.04.03.12.25.26.67zm4.7.02c.33.37.47.77.42 1.2-.05.44-.28.82-.7 1.14a2.3 2.3 0 01-1.51.45 2.2 2.2 0 01-1.4-.5c-.56-.48-.7-1.08-.4-1.78.21-.5.55-.83 1.03-1 .46-.15.92-.2 1.37-.12a2 2 0 011.19.61zm-.82.15c-.26-.14-.59-.2-.97-.15-.36.05-.64.16-.84.33-.42.33-.56.7-.42 1.08.1.27.34.48.73.64.4.15.8.18 1.2.09.42-.1.69-.4.79-.88.1-.5-.06-.87-.49-1.1zm4.78-.4c.26.17.43.4.5.69.08.26.07.54-.02.84a1.76 1.76 0 01-2.08 1.29l-.66-.07c-.04.11-.06.34-.06.68 0 .39-.02.67-.06.84l-.06.41a.48.48 0 01-.26.29c-.08.04-.16 0-.26-.12-.1-.1-.14-.2-.13-.3.14-1.76.11-3.33-.08-4.7-.02-.12.05-.2.2-.27a.6.6 0 01.4-.05c.09.03.15.09.17.18l.02.25c.38-.17.77-.26 1.17-.27.48-.02.89.08 1.22.31zm-.6.42c-.19-.12-.46-.15-.82-.1-.36.07-.67.2-.92.42-.1.57-.07 1 .08 1.3.64.2 1.11.24 1.42.1a.98.98 0 00.64-.8.88.88 0 00-.4-.92zm5.04.95c.15.93.1 1.46-.15 1.6-.18.09-.32.06-.4-.08a2.9 2.9 0 01-.1-.7l-.78.49-.83.28c-.3.1-.57.06-.8-.11-.12-.09-.16-.28-.14-.57l.05-.37.03-.36c0-.34-.04-.93-.15-1.77-.03-.2.06-.31.25-.35.18-.03.32.02.4.16.15.25.2.68.15 1.31-.05.62 0 1.06.17 1.3.78-.2 1.33-.44 1.64-.71.01-.36-.02-.8-.1-1.32-.05-.32.01-.53.18-.65.24-.17.4-.2.48-.1.06.08.1.25.1.52v1.44zm16.95-1.14c.12.42.18.9.17 1.4-.01.51-.1.92-.24 1.2-.2.07-.32.07-.36 0-.14-.21-.19-.62-.16-1.23.02-.56-.04-.91-.18-1.06-.07-.06-.23-.04-.47.07-.23.11-.38.22-.45.33-.03.13-.03.36 0 .68.03.35.03.6.02.76l-.05.34a.37.37 0 01-.18.25c-.35.18-.53.01-.54-.5l-.03-1.52a.93.93 0 01-.03-.16 1.1 1.1 0 00-.04-.16c-.04-.11-.12-.15-.24-.1-.26.1-.58.36-.98.75l.06.96c.02.4-.06.65-.25.74-.14.07-.27.07-.39 0-.1-.06-.14-.13-.14-.2.03-1.36 0-2.4-.1-3.13 0-.12.03-.2.12-.27.11-.07.27-.07.5.01.2.08.29.22.26.44-.04.26-.04.42 0 .47.14-.03.37-.17.7-.42.27-.2.53-.28.77-.24.12.02.22.09.3.2l.14.4c.17-.04.35-.13.52-.28.22-.2.36-.3.43-.34.26-.13.45-.16.58-.07.04.03.12.25.26.67zm4.06 2.42c-.04.08-.2.18-.49.28-.52.22-1.06.23-1.6.03a1.46 1.46 0 01-.93-.88c-.15-.39-.14-.8.04-1.24.13-.33.26-.57.4-.7.16-.16.47-.34.94-.53.3-.12.62-.12.97 0 .36.1.55.29.56.54.03.49-.18.9-.65 1.23-.2.15-.68.38-1.42.7.1.21.32.34.68.4.34.06.66.03.95-.1.22-.1.39-.11.5-.05.1.06.12.16.05.32zm-.93-2.4c-.1-.15-.24-.2-.42-.17-.38.1-.68.3-.88.62-.2.3-.23.56-.12.75a14.7 14.7 0 001.09-.5c.4-.22.52-.45.33-.7zm1.38 2.54c.33-1.03.68-1.9 1.04-2.6l.12-.36c.05-.14.12-.22.22-.24.22-.04.43.14.64.53.5 1.01.73 1.5.69 1.46.35-.4.67-1 .96-1.81.04-.12.14-.17.3-.16.15.01.25.07.29.16.1.24.22.7.35 1.38.1.58.27 1.03.49 1.36.08.13.09.24.02.33-.07.1-.17.12-.29.1a.73.73 0 01-.55-.46 3.4 3.4 0 01-.17-.62 1.52 1.52 0 00-.24-.61c-.17.09-.43.47-.79 1.14-.23.42-.45.57-.67.43a8.68 8.68 0 01-.58-1.27 3.6 3.6 0 00-.27-.58c-.16.17-.3.42-.42.75l-.3.8c-.14.3-.26.46-.36.5a.43.43 0 01-.37 0c-.11-.06-.15-.13-.11-.23zm9.1-2.88c-.05.3-.08.77-.08 1.43 0 .83-.01 1.38-.03 1.63a3.61 3.61 0 01-.29 1.32c-.19.4-.48.64-.89.73-.98.22-1.73.04-2.26-.53a1.8 1.8 0 01-.34-.45.39.39 0 01.06-.44c.13-.16.27-.17.41-.04.05.04.11.12.2.23l.2.25a1.53 1.53 0 001.57.36c.34-.11.53-.39.57-.82.07-.77.1-1.13.08-1.08-.28-.02-.65.05-1.1.2-.57.2-.96.32-1.18.35-.07.01-.14-.02-.2-.09-.07-.07-.1-.17-.07-.3.07-.34.06-1.05-.04-2.12a3.28 3.28 0 01-.01-.36.48.48 0 01.2-.32c.08-.07.2-.07.32 0 .13.08.2.17.23.27.11.82.15 1.52.1 2.08.19-.04.77-.22 1.78-.53a4.2 4.2 0 01.07-1.82c.07-.28.21-.37.43-.3.08.04.15.09.21.16s.08.13.06.2zm-25.17.29c.12.44.18.9.17 1.4 0 .52-.09.93-.23 1.21-.2.07-.32.07-.37 0-.13-.2-.19-.62-.16-1.23.03-.56-.03-.91-.18-1.06-.07-.06-.23-.04-.47.07-.23.11-.38.22-.44.33-.03.13-.04.36-.01.68.03.35.03.6.02.76l-.05.34a.34.34 0 01-.18.25c-.35.18-.53.01-.54-.5l-.03-1.52-.03-.15a1.24 1.24 0 00-.04-.17c-.04-.11-.12-.15-.23-.1-.26.1-.6.36-.99.75l.06.96c.03.4-.06.65-.25.74-.14.07-.27.07-.39 0-.1-.06-.14-.13-.14-.2.04-1.36 0-2.4-.09-3.12-.01-.13.02-.22.11-.28.11-.07.28-.07.5.01.2.08.29.22.26.44-.04.26-.04.42 0 .47.14-.03.37-.17.7-.42.28-.2.53-.28.77-.24.13.02.22.09.3.2l.14.4c.18-.04.35-.13.52-.28.22-.2.37-.3.43-.34.26-.13.46-.16.58-.07.04.03.12.25.26.67zm4.07 2.43c-.04.08-.2.18-.5.28-.52.22-1.06.23-1.6.03a1.46 1.46 0 01-.93-.88c-.15-.38-.13-.8.04-1.23.13-.34.26-.58.4-.7.16-.17.48-.34.94-.54.3-.12.62-.12.97 0 .36.1.55.29.57.54.03.49-.2.9-.66 1.23-.2.15-.67.38-1.41.7.1.21.32.35.67.4.34.06.66.03.96-.1.22-.1.38-.11.49-.05.1.06.12.16.06.32zm-.94-2.4a.37.37 0 00-.41-.17c-.39.1-.68.3-.88.62-.2.3-.24.56-.13.75.67-.29 1.03-.45 1.09-.5.41-.22.52-.45.33-.7z" fill="#000"/><rect x=".5" y=".5" width="325" height="199" rx="11.5" stroke="#F7F7F8"/><defs><clipPath id="a"><path fill="#fff" transform="translate(11.3 21)" d="M0 0h303.4v158H0z"/></clipPath></defs></svg>