<svg width="326" height="200" fill="none" xmlns="http://www.w3.org/2000/svg"><g clip-path="url(#a)"><rect width="326" height="200" rx="12" fill="#fff"/><g clip-path="url(#b)"><path d="M46.58 19.5h90.87c2.16 0 3.18 1.45 3.22 2.16.16 2.6.27 6.06.27 8.66 0 2.1-2.48 2.72-3.63 2.72H46.65c-2.9 0-3.74-1.4-3.81-2.06-.3-2.47 0-5.34 0-8.35 0-3.02 3.74-3.13 3.74-3.13z" fill="#fff"/><path d="M46.58 19.99h89.39c1.41 0 3.25-.17 4.06 1.28.32.56.21 1.36.25 2.02a172.25 172.25 0 01.17 6.35c0 .76.02 1.43-.57 2-.92.88-2.24.91-3.44.91H47.85c-.85 0-1.74.05-2.58-.13-1.04-.24-1.9-.78-2-1.84-.2-2.2-.03-4.42.03-6.62.02-.82-.13-1.76.3-2.5.27-.48.71-.8 1.2-1.04a4.74 4.74 0 011.78-.43c.62-.02.62-1 0-.97-1.99.06-4.07 1.2-4.22 3.37-.09 1.2-.05 2.41-.1 3.62-.03 1.11-.06 2.22-.03 3.34.04 1.33.06 2.5 1.2 3.32 1.35.98 3.1.86 4.68.86h88.56c1.3 0 2.6-.16 3.67-1 1.45-1.15 1.1-3.1 1.06-4.75a175.5 175.5 0 00-.1-3.24c-.04-1 0-2.08-.16-3.07-.23-1.35-1.7-2.21-2.94-2.4-.81-.12-1.66-.05-2.48-.05H46.58c-.63 0-.63.97 0 .97z" fill="#6F4AB3"/><path d="M185 19.5h26.49c2.16 0 3.17 1.45 3.22 2.16.16 2.6.26 6.06.26 8.66 0 2.1-2.48 2.72-3.62 2.72h-26.27c-2.9 0-3.74-1.4-3.82-2.06-.3-2.47 0-5.34 0-8.35 0-3.02 3.75-3.13 3.75-3.13z" fill="#fff"/><path d="M185 19.99h25c.76 0 1.56-.08 2.3.08.76.17 1.66.67 1.9 1.48.12.43.08 1.11.1 1.62a137.26 137.26 0 01.18 6.48c0 .54.05 1.09-.24 1.58-.22.37-.57.64-.95.83-.8.43-1.66.49-2.54.49H189.3c-1.52 0-3.05.05-4.57-.01-.92-.04-2.03-.24-2.66-.99-.53-.6-.43-1.58-.45-2.37-.04-1.59.05-3.17.1-4.75.02-1.06-.22-2.39.5-3.28a3.35 3.35 0 011.8-1.01c.4-.1.62-.14.99-.15.62-.02.62-1 0-.97a5.1 5.1 0 00-3.25 1.23c-.8.75-.97 1.71-.98 2.76-.01 1.69-.12 3.37-.13 5.05 0 .76 0 1.52.07 2.27.03.43.05.86.23 1.25.31.7.96 1.2 1.65 1.5 1.31.56 2.77.44 4.16.44h24.17a6.1 6.1 0 002.69-.53 3.04 3.04 0 001.8-2.2c.1-.62.04-1.29.04-1.92l-.05-2.3a166 166 0 00-.18-4.48 2.79 2.79 0 00-1.07-2.2c-1.06-.86-2.3-.89-3.6-.89h-25.54c-.64.02-.64.99-.01.99z" fill="#6F4AB3"/><path d="M159.54 19.5h8.34c2.16 0 3.17 1.45 3.22 2.16.15 2.6.26 6.06.26 8.66 0 2.1-2.48 2.72-3.63 2.72h-8.12c-2.9 0-3.73-1.4-3.8-2.06-.3-2.47 0-5.34 0-8.35 0-3.02 3.73-3.13 3.73-3.13z" fill="#fff"/><path d="M159.54 19.99h8.44c.62 0 .62-.97 0-.97h-8.47c-.63 0-.63.97 0 .97h7.31c.88 0 1.8-.08 2.62.35.52.27 1.06.74 1.17 1.34.07.35.05.92.07 1.34l.08 1.96c.05 1.2.08 2.39.1 3.58.01.86.23 2-.29 2.77-.82 1.2-2.49 1.22-3.8 1.22h-6.37c-.62 0-.62.98 0 .98h8.13c.63 0 .63-.98 0-.98h-8.19c-1.2 0-2.62.05-3.57-.82-.75-.7-.6-1.9-.6-2.89-.04-1.94.1-3.88.12-5.83 0-.65.03-1.26.44-1.8.3-.38.72-.65 1.16-.84a4.65 4.65 0 011.66-.38c.62-.02.63-1 0-.97-1.52.05-3.29.74-3.94 2.21-.3.7-.28 1.42-.3 2.16 0 1.05-.05 2.1-.09 3.16-.03 1-.05 1.98 0 2.96.02.62 0 1.32.2 1.9.9 2.5 4.39 2.11 6.47 2.11h6.66c.62 0 .62-.97 0-.97h-8.13c-.63 0-.63.97 0 .97h6.07c1.52 0 3.06 0 4.3-1.02a2.82 2.82 0 001.06-2.18c.04-1.2-.02-2.39-.05-3.58-.03-1.24-.07-2.48-.13-3.72-.04-.82.02-1.66-.44-2.37a3.64 3.64 0 00-1.96-1.43c-.9-.29-1.88-.2-2.81-.2h-6.96c-.62 0-.62.97 0 .97h8.47c.63 0 .63-.97 0-.97h-8.43c-.63 0-.63.97 0 .97z" fill="#6F4AB3"/><path d="M46.58 41.9h26.9c2.15 0 3.17 1.44 3.21 2.15.16 2.6.27 6.07.27 8.67 0 2.1-2.48 2.72-3.63 2.72H46.65c-2.9 0-3.74-1.4-3.81-2.06-.3-2.47 0-5.34 0-8.36 0-3.01 3.74-3.12 3.74-3.12z" fill="#fff"/><path d="M46.58 42.38h25.41c.75 0 1.55-.08 2.3.09.76.17 1.66.67 1.9 1.48.11.43.07 1.1.1 1.62a141.94 141.94 0 01.17 6.47c0 .55.05 1.1-.24 1.58-.22.37-.57.64-.94.84a5.2 5.2 0 01-2.55.48H50.88c-1.53 0-3.06.06-4.58 0-.92-.04-2.03-.25-2.66-.99-.52-.6-.43-1.59-.45-2.38-.04-1.58.05-3.16.1-4.75.02-1.05-.22-2.38.5-3.27a3.35 3.35 0 011.8-1.01c.4-.1.63-.14.99-.16.62-.02.62-.99 0-.97-1.15.04-2.4.44-3.25 1.23-.8.75-.97 1.72-.98 2.76-.01 1.7-.12 3.38-.13 5.06 0 .76.01 1.52.07 2.27.03.43.05.85.23 1.25.32.7.96 1.2 1.65 1.5 1.31.55 2.77.43 4.16.43H72.9c.94 0 1.83-.12 2.7-.52a3.04 3.04 0 001.8-2.2c.1-.62.04-1.3.03-1.93a152.1 152.1 0 00-.23-6.78 2.8 2.8 0 00-1.06-2.19c-1.06-.86-2.3-.89-3.6-.89H46.58c-.64.01-.64.98-.01.98z" fill="#6F4AB3"/><path d="M87.97 41.9h103.74c2.16 0 3.18 1.44 3.22 2.15.16 2.6.27 6.07.27 8.67 0 2.1-2.48 2.72-3.63 2.72H88.04c-2.9 0-3.73-1.4-3.81-2.06-.3-2.47 0-5.34 0-8.36 0-3.01 3.74-3.12 3.74-3.12z" fill="#fff"/><path d="M87.97 42.38h102.89c.95 0 1.9-.03 2.73.53.71.49.85 1.02.9 1.82.14 2.58.22 5.16.22 7.74 0 .95-.39 1.6-1.24 2.03-.65.33-1.37.45-2.08.45H88.78c-.98 0-1.99.03-2.9-.38-.47-.22-.96-.59-1.13-1.1-.14-.43-.12-.95-.14-1.4-.03-.68-.03-1.37-.02-2.05.02-1.45.1-2.9.12-4.34.01-.93.02-1.77.78-2.42a4.21 4.21 0 012.48-.88c.62-.02.63-.99 0-.97a5.3 5.3 0 00-2.83.9 3.18 3.18 0 00-1.31 1.94c-.12.54-.08 1.1-.1 1.65 0 .78-.04 1.57-.06 2.36-.05 1.46-.1 2.92 0 4.38.05.7.11 1.3.56 1.86 1.16 1.47 3.22 1.42 4.92 1.42h98.13c1.43 0 2.86.03 4.3 0 1.54-.03 3.4-.7 3.96-2.3.16-.46.14-.94.14-1.41a164.47 164.47 0 00-.16-6.21c-.04-.89.07-1.95-.35-2.76a3.5 3.5 0 00-1.92-1.58c-.88-.31-1.8-.25-2.72-.25H87.96c-.61 0-.61.97.01.97z" fill="#6F4AB3"/><path d="M251.38 41.9h11.45c2.16 0 3.18 1.44 3.22 2.15.16 2.6.27 6.07.27 8.67 0 2.1-2.48 2.72-3.63 2.72h-11.24c-2.9 0-3.73-1.4-3.8-2.06-.3-2.47 0-5.34 0-8.36 0-3.01 3.73-3.12 3.73-3.12z" fill="#fff"/><path d="M251.38 42.38h8.96c.63 0 .63-.97 0-.97h-6.38c-.63 0-.63.97 0 .97h7.67c.93 0 1.92-.09 2.77.36.5.26 1.05.72 1.16 1.3.07.36.06.95.08 1.38a134.25 134.25 0 01.18 5.46l.01 1.55c0 .47-.02.89-.3 1.3-.81 1.2-2.46 1.22-3.75 1.22h-6.89c-.63 0-.63.97 0 .97h6.06c.62 0 .62-.97 0-.97h-8.77c-1.2 0-2.66.05-3.6-.85a1.5 1.5 0 01-.44-.73c-.16-.7-.13-1.5-.13-2.21-.03-1.92.1-3.83.12-5.75 0-.65.03-1.26.45-1.8.29-.38.71-.65 1.15-.84a4.62 4.62 0 011.65-.39c.63-.02.63-.99 0-.97-1.52.05-3.29.75-3.94 2.22-.3.69-.28 1.41-.29 2.16l-.09 3.07c-.03.99-.05 1.98-.02 2.96.03.64 0 1.36.2 1.97.89 2.53 4.47 2.12 6.55 2.12h7.15c.63 0 .63-.97 0-.97h-6.05c-.63 0-.63.97 0 .97h6.56c1.52 0 3.05-.01 4.3-1.02a2.82 2.82 0 001.06-2.18c.03-1.22-.02-2.44-.06-3.66-.03-1.27-.08-2.53-.14-3.8-.05-.8 0-1.6-.48-2.28a3.69 3.69 0 00-1.97-1.38c-.92-.28-1.92-.19-2.87-.19h-7.33c-.63 0-.63.98 0 .98h6.39c.62 0 .62-.98 0-.98h-8.96c-.63.01-.63.98 0 .98z" fill="#6F4AB3"/><path d="M209.14 41.9h25.11c2.16 0 3.18 1.44 3.22 2.15.16 2.6.27 6.07.27 8.67 0 2.1-2.48 2.72-3.63 2.72h-24.9c-2.9 0-3.73-1.4-3.81-2.06-.3-2.47 0-5.34 0-8.36 0-3.01 3.74-3.12 3.74-3.12z" fill="#fff"/><path d="M209.14 42.38h12.61c.63 0 .63-.97 0-.97s-.63.97 0 .97h11.75c.59 0 1.18-.03 1.76.14.66.18 1.34.61 1.64 1.26.13.29.1.52.12.86l.08 1.74c.06 1.17.1 2.34.12 3.51 0 .6.02 1.18.03 1.77 0 .49.06 1.03-.05 1.5-.17.7-.77 1.17-1.42 1.44-.64.28-1.32.35-2.02.35h-22.53c-1.18 0-2.44.12-3.59-.18a2.65 2.65 0 01-1.56-.96c-.35-.5-.3-1.27-.32-1.9-.05-1.29 0-2.58.04-3.87.03-.62.05-1.25.06-1.87.01-.55-.05-1.14.06-1.69.26-1.22 1.43-1.8 2.56-2.01.26-.05.39-.07.66-.09.62-.02.63-.99 0-.97-.89.03-1.84.29-2.6.74-.58.35-1.07.85-1.34 1.48-.45 1-.29 2.22-.32 3.3-.04 1.31-.1 2.64-.1 3.96 0 .62.02 1.23.07 1.84.03.36.04.74.16 1.08.54 1.49 2.28 2 3.7 2.09 1.33.08 2.7.01 4.02.01h18.69c1.04 0 2.11.09 3.15-.02 1.47-.16 3.18-.9 3.57-2.48.12-.47.08-.96.08-1.44a145.85 145.85 0 00-.14-5.6l-.09-1.73c-.02-.39-.02-.77-.16-1.14-.26-.66-.8-1.2-1.41-1.55-1.02-.59-2.15-.54-3.29-.54h-8.38c-.98 0-2-.08-2.97 0h-.04c-.63 0-.63.97 0 .97s.63-.97 0-.97h-12.61c-.62 0-.62.97.01.97z" fill="#6F4AB3"/><path d="M262.44 77.13h-26.9c-2.15 0-3.17-1.44-3.21-2.15-.16-2.6-.27-6.07-.27-8.67 0-2.1 2.48-2.72 3.63-2.72h26.68c2.9 0 3.74 1.4 3.81 2.06.3 2.47 0 5.34 0 8.36 0 3.01-3.74 3.12-3.74 3.12z" fill="#fff"/><path d="M262.44 76.65h-25.4c-.76 0-1.56.08-2.3-.08-.77-.18-1.67-.68-1.9-1.49-.12-.43-.08-1.1-.1-1.62a137.26 137.26 0 01-.18-6.47c0-.55-.05-1.1.24-1.58.22-.37.57-.64.94-.84a5.2 5.2 0 012.55-.48h21.85c1.53 0 3.06-.06 4.58 0 .92.04 2.03.25 2.66.99.52.61.43 1.59.45 2.38.04 1.58-.05 3.16-.1 4.75-.02 1.05.22 2.38-.5 3.27-.45.54-1.13.84-1.8 1.02-.4.09-.63.14-.99.15-.62.02-.62.99 0 .97a5.09 5.09 0 003.25-1.23c.8-.75.97-1.72.98-2.76.01-1.7.12-3.38.13-5.06 0-.76 0-1.52-.07-2.27-.03-.43-.05-.85-.23-1.25a3.1 3.1 0 00-1.65-1.5c-1.31-.55-2.77-.43-4.16-.43h-24.58c-.94 0-1.83.12-2.7.52a3.04 3.04 0 00-1.8 2.2c-.1.62-.04 1.3-.03 1.93a155.94 155.94 0 00.23 6.78c.05.9.34 1.6 1.06 2.19 1.06.86 2.3.9 3.61.9h25.95c.64-.02.64-1 .01-1z" fill="#6F4AB3"/><path d="M221.05 77.13H117.31c-2.16 0-3.18-1.44-3.22-2.15-.16-2.6-.27-6.07-.27-8.67 0-2.1 2.48-2.72 3.63-2.72h103.53c2.9 0 3.73 1.4 3.81 2.06.3 2.47 0 5.34 0 8.36 0 3.01-3.74 3.12-3.74 3.12z" fill="#fff"/><path d="M221.05 76.65H118.16c-.95 0-1.9.03-2.73-.53-.71-.49-.86-1.02-.9-1.82-.14-2.58-.22-5.16-.22-7.74 0-.95.39-1.6 1.24-2.03a4.58 4.58 0 012.08-.45h102.61c.98 0 2-.03 2.9.39.47.21.96.58 1.13 1.1.14.42.12.94.14 1.38.03.7.03 1.38.02 2.06-.02 1.45-.1 2.9-.12 4.34-.01.93-.02 1.77-.78 2.42-.67.57-1.67.85-2.48.88-.62.02-.63.99 0 .97a5.3 5.3 0 002.83-.9 3.18 3.18 0 001.31-1.94c.12-.54.08-1.1.1-1.65 0-.78.04-1.57.06-2.36a40 40 0 000-4.38c-.05-.7-.11-1.3-.56-1.86-1.16-1.47-3.22-1.42-4.92-1.42h-98.13c-1.43 0-2.86-.03-4.29 0-1.55.03-3.42.71-3.97 2.3-.16.46-.14.94-.14 1.42l.03 2c.02 1.4.07 2.8.13 4.2.04.89-.07 1.95.35 2.76a3.5 3.5 0 001.93 1.58c.87.31 1.8.25 2.7.25h102.58c.62 0 .62-.97-.01-.97z" fill="#6F4AB3"/><path d="M57.64 77.13H46.19c-2.16 0-3.18-1.44-3.22-2.15-.16-2.6-.27-6.07-.27-8.67 0-2.1 2.48-2.72 3.63-2.72h11.24c2.9 0 3.73 1.4 3.8 2.06.3 2.47 0 5.34 0 8.36 0 3.01-3.73 3.12-3.73 3.12z" fill="#fff"/><path d="M57.64 76.65h-8.96c-.63 0-.63.97 0 .97h6.38c.63 0 .63-.97 0-.97H47.4c-.93 0-1.92.09-2.77-.36-.5-.26-1.05-.72-1.16-1.3-.07-.36-.06-.94-.08-1.38a137.6 137.6 0 01-.19-7c0-.48.02-.9.3-1.3.81-1.2 2.47-1.23 3.75-1.23h6.89c.63 0 .63-.97 0-.97h-6.07c-.62 0-.62.97 0 .97h8.77c1.2 0 2.66-.05 3.6.86.21.2.38.45.44.72.16.7.13 1.5.14 2.21.02 1.92-.12 3.83-.13 5.75 0 .65-.03 1.26-.45 1.8-.29.38-.71.66-1.15.84-.54.24-1.12.37-1.65.39-.63.02-.63.99 0 .97 1.52-.05 3.29-.75 3.94-2.22.3-.69.28-1.41.29-2.16l.09-3.07c.03-.98.05-1.98.02-2.96-.02-.64 0-1.36-.2-1.97-.89-2.53-4.47-2.12-6.55-2.12h-7.15c-.63 0-.63.97 0 .97h6.05c.63 0 .63-.97 0-.97h-6.57c-1.51 0-3.04.01-4.29 1.02a2.82 2.82 0 00-1.06 2.18c-.03 1.22.02 2.44.06 3.66.03 1.27.08 2.53.14 3.8.05.8 0 1.6.48 2.28a3.69 3.69 0 001.97 1.38c.92.28 1.92.19 2.87.19h7.33c.63 0 .63-.98 0-.98h-6.39c-.62 0-.62.98 0 .98h8.96c.63-.01.63-.98 0-.98z" fill="#6F4AB3"/><path d="M99.88 77.13h-25.1c-2.17 0-3.19-1.44-3.23-2.15-.16-2.6-.27-6.07-.27-8.67 0-2.1 2.48-2.72 3.63-2.72h24.9c2.9 0 3.74 1.4 3.81 2.06.3 2.47 0 5.34 0 8.36 0 3.01-3.74 3.12-3.74 3.12z" fill="#fff"/><path d="M99.88 76.65h-12.6c-.63 0-.63.97 0 .97s.63-.97 0-.97H75.53c-.6 0-1.19.03-1.76-.14a2.52 2.52 0 01-1.64-1.26c-.13-.29-.1-.52-.13-.86a129.56 129.56 0 01-.22-7.02c0-.49-.07-1.03.05-1.5.17-.7.77-1.17 1.41-1.44a5.04 5.04 0 012.02-.35H97.8c1.18 0 2.43-.12 3.58.18.6.15 1.2.44 1.56.96.35.5.3 1.27.32 1.9.05 1.29 0 2.58-.04 3.87l-.05 1.87c-.02.55.05 1.14-.06 1.69-.27 1.22-1.44 1.8-2.56 2.02-.27.04-.4.07-.67.08-.62.02-.62.99 0 .97a5.54 5.54 0 002.6-.74 3.29 3.29 0 001.35-1.48c.44-1 .28-2.22.31-3.3.04-1.31.1-2.64.1-3.96 0-.61-.02-1.23-.07-1.84-.02-.36-.04-.74-.16-1.08-.54-1.49-2.28-2-3.7-2.09-1.33-.08-2.69-.01-4.02-.01H77.6c-1.03 0-2.1-.09-3.14.02-1.47.16-3.18.9-3.57 2.48-.12.47-.09.96-.09 1.44a129.21 129.21 0 00.15 5.6l.08 1.73c.03.39.02.78.16 1.14.26.66.8 1.2 1.42 1.55 1.02.59 2.15.54 3.28.54h8.38c.98 0 2 .08 2.97 0h.05c.62 0 .62-.97 0-.97h-.01c-.63 0-.63.97 0 .97h12.61c.62 0 .62-.97 0-.97z" fill="#6F4AB3"/><path d="M256.15 143.27h-90.87c-2.16 0-3.18-1.45-3.22-2.15-.16-2.6-.27-6.07-.27-8.67 0-2.1 2.48-2.72 3.63-2.72h90.66c2.9 0 3.73 1.4 3.81 2.06.3 2.47 0 5.34 0 8.36 0 3.01-3.74 3.12-3.74 3.12z" fill="#fff"/><path d="M256.15 142.79h-89.39c-1.41 0-3.25.16-4.07-1.28-.32-.56-.2-1.36-.24-2.02a181.74 181.74 0 01-.17-6.36c0-.76-.02-1.43.56-2 .93-.88 2.25-.9 3.44-.9h88.59c.86 0 1.75-.06 2.59.13 1.04.23 1.9.77 2 1.83.2 2.2.02 4.42-.03 6.62-.02.82.12 1.76-.3 2.51-.27.47-.71.8-1.2 1.03-.57.27-1.23.42-1.78.44-.62.02-.62.99 0 .97 1.99-.07 4.07-1.21 4.22-3.37.08-1.2.05-2.42.09-3.63.04-1.1.07-2.22.04-3.34-.05-1.32-.06-2.49-1.21-3.32-1.34-.98-3.1-.85-4.67-.85h-88.56c-1.3 0-2.61.16-3.67 1-1.45 1.14-1.1 3.1-1.06 4.74.02 1.08.05 2.17.1 3.25.03 1 0 2.07.16 3.06.23 1.35 1.7 2.21 2.94 2.4.81.12 1.66.06 2.48.06h89.14c.63 0 .63-.97 0-.97z" fill="#020202"/><path d="M150.78 143.27H75.35c-2.16 0-3.17-1.45-3.22-2.15-.16-2.6-.27-6.07-.27-8.67 0-2.1 2.49-2.72 3.63-2.72h75.22c2.9 0 3.73 1.4 3.81 2.06.3 2.47 0 5.34 0 8.36 0 3.01-3.74 3.12-3.74 3.12z" fill="#fff"/><path d="M150.78 142.79H76.03c-.7 0-1.39.02-2.04-.26-.71-.3-1.34-.91-1.39-1.63-.08-1.45-.14-2.9-.18-4.37-.04-1.38-.15-2.81-.07-4.2.06-.95.84-1.55 1.68-1.84 1-.35 2.02-.27 3.06-.27h68.61c1.67 0 3.34-.02 5 0 1.01 0 2.19.15 2.93.9.57.58.49 1.43.52 2.22.06 1.6-.03 3.2-.09 4.81-.02.77.05 1.58-.05 2.35-.04.39-.19.77-.43 1.08a3.3 3.3 0 01-1.83 1.05 4 4 0 01-.97.16c-.62.02-.63.99 0 .97a5.02 5.02 0 003.3-1.3c.82-.8.92-1.8.93-2.89.02-1.68.13-3.36.13-5.04 0-.78-.01-1.56-.09-2.34a3.05 3.05 0 00-.24-1.09 3.26 3.26 0 00-1.83-1.5c-1.4-.52-2.98-.36-4.44-.36h-71.7c-1.04 0-2.07-.04-3.06.3-.92.33-1.8.9-2.19 1.84-.23.56-.21 1.14-.2 1.74a166.76 166.76 0 00.2 6.87c.05 1 .05 1.8.77 2.57.83.9 2.01 1.19 3.19 1.19h75.23c.63 0 .63-.96 0-.96z" fill="#020202"/><path d="M57.93 143.27H49.6c-2.16 0-3.18-1.45-3.22-2.15-.16-2.6-.27-6.07-.27-8.67 0-2.1 2.48-2.72 3.63-2.72h8.12c2.9 0 3.73 1.4 3.81 2.06.3 2.47 0 5.34 0 8.36 0 3.01-3.74 3.12-3.74 3.12z" fill="#fff"/><path d="M57.93 142.79H49.5c-.63 0-.63.97 0 .97h8.47c.62 0 .62-.97 0-.97h-7.31c-.89 0-1.81.07-2.63-.36-.51-.27-1.05-.73-1.17-1.34-.06-.35-.05-.91-.07-1.34l-.08-1.96c-.04-1.19-.08-2.38-.1-3.58 0-.86-.22-2 .29-2.76.82-1.21 2.5-1.23 3.8-1.23h6.36c.63 0 .63-.97 0-.97h-8.13c-.62 0-.62.97 0 .97h8.21c1.19 0 2.62-.04 3.56.83.76.7.6 1.9.62 2.88.02 1.94-.12 3.89-.13 5.83 0 .65-.03 1.26-.44 1.8-.3.38-.72.65-1.16.84-.56.24-1.14.37-1.67.39-.62.02-.62.99 0 .97 1.53-.05 3.3-.75 3.94-2.22.31-.7.28-1.41.3-2.16.01-1.05.06-2.1.09-3.16.03-.99.05-1.98.01-2.96-.02-.61 0-1.32-.21-1.9-.9-2.5-4.39-2.1-6.46-2.1h-6.66c-.63 0-.63.96 0 .96h8.13c.62 0 .62-.97 0-.97h-6.08c-1.52 0-3.05.01-4.3 1.02a2.82 2.82 0 00-1.06 2.19c-.03 1.19.02 2.38.05 3.57.03 1.24.08 2.49.14 3.73.04.8-.03 1.66.43 2.36.46.7 1.18 1.19 1.96 1.44.9.28 1.89.2 2.82.2h6.93c.63 0 .63-.97 0-.97H49.5c-.62 0-.62.97 0 .97h8.44c.62 0 .63-.97 0-.97z" fill="#020202"/><path d="M222.8 120.88H119.05c-2.16 0-3.17-1.45-3.22-2.16-.16-2.6-.26-6.06-.26-8.66 0-2.1 2.48-2.72 3.62-2.72h103.54c2.9 0 3.73 1.4 3.8 2.06.3 2.47 0 5.33 0 8.35 0 3.02-3.73 3.13-3.73 3.13z" fill="#fff"/><path d="M222.8 120.39H119.9c-.96 0-1.9.03-2.73-.53-.71-.48-.86-1.01-.9-1.82a146.7 146.7 0 01-.22-7.73c0-.96.39-1.6 1.24-2.04a4.57 4.57 0 012.08-.45H222c.97 0 1.99-.03 2.9.39.47.22.96.58 1.13 1.1.14.43.11.94.14 1.39.03.68.03 1.37.02 2.06-.03 1.44-.1 2.89-.12 4.33-.01.93-.03 1.77-.78 2.42-.67.57-1.67.85-2.48.88-.62.02-.63 1 0 .97a5.31 5.31 0 002.83-.9 3.18 3.18 0 001.31-1.93c.12-.55.08-1.1.1-1.66 0-.78.03-1.57.06-2.36.05-1.45.1-2.92 0-4.37-.06-.7-.11-1.3-.56-1.87-1.17-1.47-3.22-1.41-4.92-1.41H123.5c-1.43 0-2.86-.03-4.3 0-1.54.02-3.41.7-3.96 2.3-.16.45-.15.93-.14 1.4l.02 2.01c.03 1.4.08 2.8.14 4.21.04.88-.08 1.94.35 2.75a3.5 3.5 0 001.92 1.58c.87.32 1.8.25 2.72.25H222.8c.61 0 .61-.97-.01-.97zm-163.42.49H47.94c-2.16 0-3.18-1.45-3.22-2.16-.16-2.6-.27-6.06-.27-8.67 0-2.1 2.48-2.71 3.63-2.71H59.3c2.9 0 3.74 1.4 3.81 2.06.3 2.47 0 5.33 0 8.35 0 3.02-3.74 3.13-3.74 3.13z" fill="#020202"/><path d="M59.38 120.6h-8.95c-.36 0-.36.55 0 .55h6.38c.36 0 .36-.55 0-.55h-7.67c-.98 0-2 .09-2.89-.38-.54-.28-1.13-.8-1.25-1.43-.09-.46-.06-.97-.09-1.43a137.78 137.78 0 01-.17-5.46c-.02-.93-.23-2.13.31-2.95.85-1.28 2.58-1.33 3.94-1.33h6.89c.35 0 .35-.56 0-.56h-6.06c-.35 0-.35.56 0 .56h8.77c1.26 0 2.76-.03 3.74.91.23.23.43.5.5.82.17.72.14 1.54.14 2.28.03 1.91-.1 3.83-.12 5.74 0 .7-.05 1.35-.49 1.93-.31.4-.75.7-1.21.9-.54.23-1.17.38-1.77.4-.35.01-.35.56 0 .55 1.46-.05 3.15-.7 3.76-2.11.3-.66.26-1.35.26-2.06.02-1.02.06-2.05.1-3.07.02-.99.05-1.98.01-2.97-.02-.6.01-1.31-.2-1.9-.3-.86-1.12-1.4-1.95-1.68-1.38-.47-2.95-.3-4.39-.3h-7.15c-.35 0-.35.56 0 .56h6.06c.35 0 .35-.56 0-.56H49.3c-1.46 0-2.94 0-4.15.97-.63.5-.97 1.22-1 2.03-.02 1.22.03 2.44.06 3.66a177 177 0 00.15 3.8c.04.77-.02 1.51.44 2.17 1.1 1.56 2.97 1.46 4.66 1.46h7.33c.36 0 .36-.55 0-.55H50.4c-.34 0-.34.55 0 .55h8.99c.36 0 .36-.55 0-.55zm42.25.28H76.52c-2.16 0-3.18-1.45-3.22-2.16-.16-2.6-.27-6.06-.27-8.66 0-2.1 2.48-2.72 3.63-2.72h24.9c2.9 0 3.73 1.4 3.81 2.06.3 2.47 0 5.33 0 8.35 0 3.02-3.74 3.13-3.74 3.13z" fill="#020202"/><path d="M101.63 120.6h-12.6c-.36 0-.36.55 0 .55.35 0 .35-.55 0-.55h-10c-1.72 0-4.42.43-5.34-1.5-.15-.3-.13-.63-.15-.97l-.09-1.74a151.13 151.13 0 01-.14-5.28c0-.5-.07-1.06.06-1.55.18-.76.82-1.27 1.5-1.57a5.3 5.3 0 012.13-.37h22.54c1.2 0 2.47-.13 3.64.18.65.17 1.3.5 1.69 1.06.38.57.32 1.35.34 2 .05 1.3 0 2.58-.04 3.88l-.05 1.87c-.02.57.05 1.17-.07 1.74-.28 1.3-1.51 1.93-2.7 2.16-.25.05-.48.08-.72.09-.35.01-.35.56 0 .55a5.29 5.29 0 002.5-.71 3.1 3.1 0 001.26-1.4c.43-.98.26-2.16.29-3.2.04-1.31.1-2.64.1-3.96 0-.62-.02-1.23-.07-1.84-.03-.34-.03-.7-.15-1.03-.51-1.38-2.18-1.85-3.5-1.93-1.33-.09-2.69-.02-4.02-.02H79.35c-1.04 0-2.1-.09-3.14.03-1.38.15-3 .84-3.37 2.31-.12.46-.08.93-.08 1.4a130.91 130.91 0 00.15 5.59l.08 1.74c.02.36.02.73.15 1.08.25.6.76 1.1 1.32 1.42 1 .57 2.09.51 3.19.51h10.67c.21 0 .46.03.68 0h.04c.35 0 .35-.55 0-.55-.36 0-.36.55 0 .55h12.59c.35.01.35-.54 0-.54zM48.32 85.64h26.9c2.16 0 3.18 1.45 3.22 2.15.16 2.6.27 6.07.27 8.67 0 2.1-2.48 2.72-3.63 2.72H48.4c-2.9 0-3.73-1.4-3.8-2.06-.3-2.47 0-5.34 0-8.35 0-3.02 3.73-3.13 3.73-3.13z" fill="#020202"/><path d="M48.32 85.92h25.41c.78 0 1.6-.08 2.36.09.82.18 1.81.75 2.04 1.63.14.52.1 1.13.12 1.67a141.98 141.98 0 01.18 6.48c0 .59.04 1.17-.27 1.69-.24.4-.62.7-1.02.9-.84.45-1.73.52-2.66.52H52.63c-1.52 0-3.05.05-4.57-.01-.99-.04-2.14-.27-2.82-1.05-.58-.67-.48-1.7-.5-2.53-.05-1.58.05-3.16.09-4.74.03-1.13-.2-2.5.57-3.43a3.56 3.56 0 011.9-1.07c.33-.08.68-.14 1.02-.15.36-.02.36-.57 0-.56-1.09.04-2.3.42-3.1 1.17-.74.72-.9 1.62-.91 2.62-.01 1.69-.12 3.37-.13 5.05 0 .76 0 1.52.07 2.27.03.4.04.78.2 1.15.29.66.9 1.13 1.55 1.4 1.28.55 2.71.43 4.07.43h24.59c.9 0 1.75-.11 2.58-.5a2.84 2.84 0 001.71-2.06c.1-.61.03-1.26.02-1.88a157.03 157.03 0 00-.23-6.78 2.59 2.59 0 00-1-2.04c-1.01-.81-2.22-.83-3.46-.83H48.33c-.36 0-.36.56 0 .56zm41.4-.28h103.74c2.16 0 3.18 1.45 3.22 2.15.16 2.6.27 6.07.27 8.67 0 2.1-2.48 2.72-3.63 2.72H89.8c-2.9 0-3.73-1.4-3.81-2.06-.3-2.47 0-5.34 0-8.35 0-3.02 3.74-3.13 3.74-3.13z" fill="#020202"/><path d="M89.72 85.92H192.6c.99 0 1.97-.02 2.83.55.77.52.96 1.12 1 2 .15 2.58.23 5.16.23 7.74 0 1.03-.43 1.75-1.35 2.21-.68.35-1.43.48-2.19.48H90.52c-1.01 0-2.06.03-3-.41-.52-.24-1.05-.65-1.23-1.22-.14-.45-.12-.99-.14-1.45-.03-.69-.03-1.37-.02-2.06.02-1.44.1-2.89.12-4.33.01-1 .05-1.88.84-2.57a4.4 4.4 0 012.63-.94c.35-.02.35-.57 0-.56a5.2 5.2 0 00-2.73.88 2.95 2.95 0 00-1.21 1.8c-.11.53-.08 1.07-.09 1.6 0 .8-.04 1.58-.07 2.37-.05 1.45-.1 2.92 0 4.37.06.65.1 1.2.5 1.72 1.12 1.43 3.15 1.36 4.78 1.36h98.13c1.43 0 2.86.02 4.29 0 1.44-.03 3.25-.65 3.76-2.15.15-.44.14-.9.14-1.36a174.12 174.12 0 00-.16-6.21c-.04-.84.08-1.88-.32-2.64a3.28 3.28 0 00-1.8-1.49c-.85-.3-1.76-.24-2.66-.24H89.71c-.34 0-.35.55 0 .55zm163.41-.28h11.45c2.16 0 3.18 1.45 3.22 2.15.16 2.6.27 6.07.27 8.67 0 2.1-2.48 2.72-3.63 2.72H253.2c-2.9 0-3.73-1.4-3.8-2.06-.3-2.47 0-5.34 0-8.35 0-3.02 3.73-3.13 3.73-3.13z" fill="#020202"/><path d="M253.13 85.92h8.97c.35 0 .35-.56 0-.56h-6.39c-.35 0-.35.56 0 .56h7.67c.98 0 1.99-.09 2.88.38.54.28 1.14.8 1.26 1.43.08.46.06.96.08 1.43a134.26 134.26 0 01.18 5.45c.01.93.23 2.14-.31 2.96-.86 1.27-2.58 1.33-3.95 1.33h-6.88c-.36 0-.36.55 0 .55h6.06c.35 0 .35-.55 0-.55h-8.77c-1.27 0-2.76.02-3.74-.92a1.7 1.7 0 01-.5-.81c-.17-.72-.14-1.54-.15-2.28-.02-1.92.12-3.83.13-5.75 0-.7.05-1.35.49-1.92.3-.4.75-.7 1.2-.9a4.97 4.97 0 011.77-.4c.36-.02.36-.57 0-.56-1.45.05-3.14.7-3.76 2.12-.28.66-.25 1.35-.26 2.05-.01 1.03-.06 2.05-.09 3.07-.03 1-.05 1.98-.02 2.97.03.62 0 1.32.2 1.91.3.86 1.13 1.4 1.96 1.68 1.38.46 2.95.3 4.38.3h7.16c.35 0 .35-.56 0-.56h-6.06c-.35 0-.35.55 0 .55h6.56c1.46 0 2.95 0 4.15-.96a2.6 2.6 0 001-2.03c.03-1.22-.02-2.44-.06-3.66-.03-1.27-.08-2.53-.14-3.8-.04-.77.01-1.52-.45-2.17-1.08-1.56-2.97-1.47-4.65-1.47h-7.34c-.36 0-.36.56 0 .56h6.39c.35 0 .35-.56 0-.56h-8.96c-.36 0-.36.56 0 .56zm-42.24-.28H236c2.16 0 3.18 1.45 3.22 2.15.16 2.6.27 6.07.27 8.67 0 2.1-2.48 2.72-3.63 2.72h-24.9c-2.9 0-3.74-1.4-3.81-2.06-.3-2.47 0-5.34 0-8.35 0-3.02 3.74-3.13 3.74-3.13z" fill="#020202"/><path d="M210.89 85.92h12.6c.36 0 .36-.56 0-.56-.35 0-.35.56 0 .56h10c1.72 0 4.42-.44 5.34 1.5.15.3.13.63.15.97a144.37 144.37 0 01.23 7.02c0 .5.07 1.06-.06 1.55-.18.76-.82 1.27-1.5 1.56-.7.3-1.4.38-2.13.38h-22.54c-1.2 0-2.47.12-3.64-.19a2.87 2.87 0 01-1.69-1.05c-.38-.57-.32-1.36-.34-2-.05-1.3 0-2.59.04-3.88l.05-1.87c.02-.58-.05-1.18.07-1.74.28-1.3 1.51-1.93 2.7-2.17.24-.04.48-.08.72-.08.35-.02.35-.57 0-.56-.86.03-1.76.28-2.5.72a3.1 3.1 0 00-1.26 1.4c-.42.97-.26 2.16-.29 3.19-.04 1.32-.1 2.65-.1 3.97 0 .61.02 1.23.07 1.84.03.34.03.7.16 1.02.5 1.39 2.17 1.86 3.5 1.94 1.32.08 2.68.02 4.01.02h18.69c1.04 0 2.1.08 3.14-.03 1.38-.15 3-.84 3.37-2.32.12-.45.08-.93.08-1.4a127.57 127.57 0 00-.15-5.58l-.08-1.74c-.02-.37-.02-.74-.15-1.08a2.98 2.98 0 00-1.32-1.43c-.99-.56-2.09-.5-3.19-.5H224.2c-.21 0-.46-.04-.67 0h-.05c-.35 0-.35.54 0 .54h.01c.35 0 .35-.55 0-.55h-12.61c-.34 0-.35.55 0 .55zm-47.33-13.05H79.65a21.16 21.16 0 010-42.34h83.9a21.16 21.16 0 010 42.34z" fill="#020202"/><path d="M163.56 72.6H80.34a20.86 20.86 0 01-13.69-4.53 21.1 21.1 0 01-7.48-20.54 21.07 21.07 0 0114.8-15.95c2.69-.75 5.37-.78 8.1-.78h81.39c2.86 0 5.69.55 8.31 1.68a21.08 21.08 0 0112.62 17.8 21.1 21.1 0 01-10.1 19.35 21.02 21.02 0 01-10.72 2.97c-.36 0-.36.55 0 .55a21.64 21.64 0 0018.68-10.94 21.64 21.64 0 00-.42-21.74 21.63 21.63 0 00-18.27-10.21H79.93c-5.92 0-11.6 2.29-15.72 6.57a21.65 21.65 0 00-5.07 21.1 21.64 21.64 0 0015.7 14.68c2.51.57 5.02.54 7.57.54h81.15c.35 0 .35-.55 0-.55zm115.42 64.81H161.52a21.16 21.16 0 010-42.34h117.46a21.16 21.16 0 0121.15 21.17c0 11.7-9.46 21.17-21.15 21.17z" fill="#020202"/><path d="M278.98 137.14H161.54a21.1 21.1 0 01-20.45-16.6 21.1 21.1 0 0113.26-23.92c3.32-1.22 6.66-1.27 10.11-1.27h114.09a21.2 21.2 0 0118.2 9.9 21.11 21.11 0 01-4.38 27.04 21.06 21.06 0 01-13.39 4.85c-.35 0-.35.55 0 .55 9.88-.05 18.71-7 20.9-16.68a21.67 21.67 0 00-11.56-24.07 21.87 21.87 0 00-9.5-2.14H161.83a21.71 21.71 0 00-18.6 10.26 21.66 21.66 0 003.28 26.5 21.5 21.5 0 0015.99 6.13h116.48c.36 0 .36-.55 0-.55zm-114.29 42.58H48.42a18.82 18.82 0 010-37.65H164.7a18.82 18.82 0 010 37.65z" fill="#020202"/><path d="M164.69 179.45h-116a18.77 18.77 0 01-17.56-11.86 18.71 18.71 0 01.36-14.26 18.72 18.72 0 0110.06-9.67c3.15-1.26 6.35-1.31 9.65-1.31h112.38c.66 0 1.31-.01 1.96.02a18.6 18.6 0 0112.73 5.92 18.65 18.65 0 014.94 13.15 18.63 18.63 0 01-5.78 12.93 18.65 18.65 0 01-12.74 5.08c-.36 0-.36.55 0 .55a19.29 19.29 0 0018.96-16.97 19.29 19.29 0 00-14.8-20.77c-2.55-.57-5.17-.46-7.76-.46H48.73a19.34 19.34 0 00-17.37 10.52 19.31 19.31 0 006.66 24.6A19.28 19.28 0 0048.48 180h116.2c.36 0 .36-.55 0-.55z" fill="#020202"/><path d="M264.2 120.88h-26.9c-2.16 0-3.18-1.45-3.23-2.16-.15-2.6-.26-6.06-.26-8.67 0-2.1 2.48-2.71 3.63-2.71h26.68c2.9 0 3.74 1.4 3.81 2.06.3 2.47 0 5.33 0 8.35 0 3.02-3.74 3.13-3.74 3.13z" fill="#fff"/><path d="M264.2 120.6h-25.43c-.77 0-1.6.08-2.35-.09-.82-.19-1.81-.75-2.05-1.63-.14-.52-.09-1.14-.11-1.68a137.23 137.23 0 01-.18-6.47c0-.59-.04-1.17.27-1.69.24-.4.61-.7 1.02-.91a5.46 5.46 0 012.65-.51h21.86c1.53 0 3.06-.05 4.58 0 .99.05 2.13.27 2.81 1.05.59.67.49 1.7.51 2.53.04 1.58-.05 3.17-.1 4.75-.02 1.13.21 2.49-.57 3.42-.47.57-1.18.9-1.88 1.07-.34.08-.69.15-1.04.16-.35.01-.35.56 0 .55 1.1-.03 2.3-.42 3.1-1.17.75-.71.91-1.62.92-2.61.01-1.69.12-3.37.13-5.06 0-.75-.01-1.51-.07-2.27-.03-.39-.05-.78-.2-1.14-.3-.66-.9-1.13-1.55-1.4-1.28-.56-2.72-.43-4.08-.43h-24.58c-.9 0-1.76.1-2.58.5a2.85 2.85 0 00-1.71 2.06c-.1.6-.03 1.26-.03 1.87a148.3 148.3 0 00.23 6.78c.05.86.32 1.5 1 2.04 1.02.82 2.23.83 3.47.83h25.95c.36 0 .36-.55 0-.55z" fill="#020202"/><path d="M157.94 68.57h-83.9a21.16 21.16 0 010-42.34h83.9a21.16 21.16 0 010 42.34z" fill="#6F4AB3"/><path d="M73.86 65.07a17.49 17.49 0 10-.02-34.98 17.49 17.49 0 00.02 34.98z" fill="#fff"/><path d="M273.37 133.12H155.9a21.16 21.16 0 010-42.35h117.47a21.16 21.16 0 0121.15 21.17c0 11.7-9.46 21.18-21.15 21.18z" fill="#6F4AB3"/><path d="M155.73 129.62a17.49 17.49 0 10-.02-34.98 17.49 17.49 0 00.02 34.98z" fill="#fff"/><path d="M159.07 175.43H42.81a18.81 18.81 0 010-37.65h116.26a18.82 18.82 0 010 37.65z" fill="#6F4AB3"/><path d="M42.65 172.32a15.55 15.55 0 10-.01-31.1 15.55 15.55 0 00.01 31.1z" fill="#fff"/><path d="M231.51 51.21a13.3 13.3 0 100-26.58 13.3 13.3 0 000 26.58z" fill="#6F4AB3"/><path d="M288.23 101.97a13.3 13.3 0 10-.01-26.58 13.3 13.3 0 000 26.58z" fill="#fff"/><path d="M301.03 88.67a12.93 12.93 0 01-8.39 12.03 12.94 12.94 0 01-14.27-3.86 12.93 12.93 0 01-1.1-14.78 12.91 12.91 0 0113.5-5.95 12.94 12.94 0 0110.26 12.56c0 .63.97.63.97 0a13.93 13.93 0 00-9.04-12.94c-5.41-2-11.71-.28-15.36 4.18a13.93 13.93 0 00-1.17 15.87 13.9 13.9 0 0014.53 6.4A13.88 13.88 0 00302 88.69c0-.63-.97-.63-.97 0z" fill="#020202"/><path d="M224.91 36.61c1.67-.39 4.15 0 4.74-1.6.62-1.64.77-2.39.5-3.62-.16-.8-.41-1.67-.12-2.44s1.36-1.17 1.99-.01c.55 1 .74 2.2.79 3.35.03.64.03 1.33.43 1.82.64.78 1.84.6 2.84.52 1-.09 2.33.27 2.36 1.28.03.63-.5 1.13-.98 1.53.67 0 1.14.78 1.03 1.44-.12.66-.64 1.17-1.2 1.56 1.17.62 1.04 2.67-.18 3.15.56-.02.83.79.53 1.27-.29.48-.88.67-1.44.77-3.14.63-6.38-.18-9.49-1-.32-.08-.65-.16-.92-.36-.6-.46-.67-1.31-.7-2.06l-.2-5.29" fill="#fff"/><path d="M285.77 78.86l.6 7.62.22 3.02c.05.57.1 1.17.4 1.67.3.49.9.85 1.45.66.66-.24.84-1.08.9-1.78.3-3.36.16-6.75.02-10.13-.02-.4-.04-.81-.18-1.19a2.02 2.02 0 00-1.4-1.26 2.02 2.02 0 00-1.83.5" fill="#020202"/><path d="M285.28 78.86l.6 7.62c.1 1.24.13 2.49.3 3.71.13.92.58 1.88 1.56 2.12 2.33.59 2.17-3.13 2.22-4.45.1-2.58 0-5.16-.11-7.74-.05-1.14-.24-2.24-1.31-2.86a2.52 2.52 0 00-2.94.37c-.47.41.22 1.1.7.68.6-.53 1.52-.53 2.1.06.64.67.48 1.85.52 2.7.07 2.04.14 4.08.09 6.13-.02.99-.05 2-.16 2.98-.07.6-.38 1.6-1.16 1.06-.7-.5-.6-1.73-.67-2.49l-.23-3.02-.53-6.87c-.06-.62-1.03-.63-.98 0zm3.3 15.36c-.69-.42-1.69-.04-2.02.7-.34.73-.07 1.66.54 2.2.3.27.72.46 1.11.36.25-.07.45-.25.6-.46a1.9 1.9 0 00-.39-2.54" fill="#020202"/><path d="M288.83 93.8c-.7-.42-1.6-.25-2.2.25a2.1 2.1 0 00-.62 2.2c.22.79.88 1.59 1.73 1.72.95.15 1.7-.68 1.84-1.57a2.4 2.4 0 00-.91-2.34c-.21-.16-.55-.03-.67.17-.14.25-.03.5.18.67l.02.02.08.07.1.13.07.1a1.75 1.75 0 01.13.29l.05.19.02.1c0-.02 0-.1 0 0v.34c0 .06-.02.11-.03.17l-.06.18c-.03.08.05-.1 0 .03l-.07.1c-.02.06-.06.1-.09.15.04-.04-.01.02-.02.03l-.09.09-.04.03-.09.06-.02.01c-.01 0-.15.03-.07.02h-.12c-.08 0 .06.02-.02 0l-.12-.02s-.09-.04-.03 0a1 1 0 01-.36-.25 1.88 1.88 0 01-.13-.14l-.07-.07a2.82 2.82 0 01-.14-.22l-.03-.08c-.06-.1 0 .03-.03-.06a2.24 2.24 0 01-.11-.41v-.25s.01-.13 0-.07a873.08 873.08 0 01.04-.16c0-.04.02-.06.03-.1l.01-.03.1-.16c.04-.08 0-.02-.01 0l.08-.1a1.31 1.31 0 01.18-.15l.1-.07.1-.04c.08-.05-.04 0 .02-.01l.21-.06.09-.02c-.12.02.01 0 .03 0h.2c-.1 0-.03 0 0 0l.11.04.06.02.09.05a.5.5 0 00.66-.18.52.52 0 00-.18-.67z" fill="#020202"/><path d="M77.25 115.8a13.3 13.3 0 10-.02-26.58 13.3 13.3 0 00.02 26.58z" fill="#fff"/><path d="M90.04 102.5a12.94 12.94 0 01-8.38 12.03 12.94 12.94 0 01-14.28-3.86 12.93 12.93 0 01-1.1-14.78 12.9 12.9 0 0113.5-5.95 12.94 12.94 0 0110.26 12.56c0 .63.98.63.98 0a13.93 13.93 0 00-9.04-12.95c-5.41-2-11.72-.27-15.36 4.19a13.93 13.93 0 00-1.18 15.86 13.9 13.9 0 0014.53 6.41 13.88 13.88 0 0011.05-13.51c0-.62-.97-.63-.98 0z" fill="#020202"/><path d="M81.5 96.9c-.15-1.14-1.14-2.04-2.23-2.41-1.75-.6-4.11-.5-5.3.9 0 0-1.1 2.47-.96 2.96.15.48.72.86 1.17.63.22-.13.35-.37.47-.6l.71-1.4c.13-.26.27-.53.5-.69.2-.15.48-.2.74-.21.74-.01 1.48.37 1.92.98.43.6.54 1.43.28 2.13-.52 1.43-2.3 2.07-2.87 3.48a4.05 4.05 0 00-.14 2.02c.05.4.13.82.35 1.16.22.34.62.6 1.02.53.64-.1.9-.89.87-1.53-.02-.64-.21-1.31.03-1.9.27-.66.96-1.01 1.47-1.5.5-.47.83-1.09 1.15-1.7.48-.89.97-1.85.83-2.84z" fill="#020202"/><path d="M81.98 96.78c-.52-3.1-5.02-3.83-7.37-2.53-.44.24-.9.58-1.12 1.03-.2.4-.36.85-.52 1.28-.37.98-.86 2.25.39 2.84.76.37 1.37-.12 1.71-.78l.64-1.25c.23-.46.4-.82.97-.8.9.01 1.65.7 1.77 1.59.1.8-.34 1.43-.88 1.95-.5.5-1.07.92-1.52 1.47a3.45 3.45 0 00-.8 2.17c-.02.8.06 1.79.55 2.45.43.58 1.23.88 1.88.5.7-.4.88-1.29.83-2.03-.03-.51-.2-1.12.03-1.61.2-.4.62-.67.95-.94a6.72 6.72 0 001.69-2.27c.48-.92.92-1.88.8-2.94-.05-.62-1.03-.62-.96 0 .09.86-.25 1.62-.64 2.37-.35.67-.7 1.36-1.25 1.87-.49.46-1.1.8-1.43 1.42-.38.73-.18 1.5-.16 2.27.02.51-.33 1.52-.94.82-.46-.54-.47-1.72-.35-2.38.25-1.29 1.55-1.93 2.34-2.85.87-1.02 1.15-2.47.34-3.63-.71-1.02-2.57-1.8-3.58-.72-.5.53-.76 1.33-1.09 1.97-.13.25-.26.64-.59.42-.2-.14-.2-.2-.17-.39.13-.76.45-1.65.82-2.33.56-1.04 2.27-1.2 3.3-1.12 1.46.11 3.14.8 3.4 2.4.12.62 1.06.36.96-.25zm-3.9 12.27a2.34 2.34 0 00-.77-.03c-.3-.04-.6-.03-.84.14a.97.97 0 00-.38.91c.04.35.24.66.5.89.14.12.3.22.47.27.35.11.75.02 1.04-.2.3-.21.5-.54.62-.89.07-.23.1-.5-.01-.7-.12-.22-.38-.33-.63-.39z" fill="#020202"/><path d="M78.2 108.58a3.01 3.01 0 00-.55-.06c-.07 0-.17-.02-.24 0h-.05c.08.04.05.04-.1 0h-.13a1.5 1.5 0 00-1.07.34c-.55.48-.57 1.32-.23 1.92.17.3.43.56.72.75.33.2.71.27 1.1.2.71-.1 1.22-.66 1.48-1.3.15-.38.2-.82.02-1.2-.18-.36-.56-.56-.94-.65-.25-.05-.54.08-.6.34-.05.25.07.54.34.6l.15.04.07.02c-.02 0-.09-.04-.01 0 .03.02.13.1.06.03l.05.05c.06.06-.02-.05 0 0 .04.06-.01-.07 0 0l.02.06c-.02-.07 0-.04 0 0v.08c0 .1 0 .03 0 0l-.01.09-.06.18c0 .02-.03.1 0 .04a1.84 1.84 0 01-.09.18l-.1.13c-.02.05.02 0 .02-.01l-.08.1-.11.1c-.02.02-.08.06 0 0l-.07.05-.13.07c-.06.04.07-.02 0 0l-.1.03-.08.02c-.1.03-.02 0 0 0h-.16c-.03 0-.09-.01 0 0l-.08-.01-.08-.02a2.08 2.08 0 01-.15-.09l-.07-.05c.07.06.01 0 0 0l-.12-.12-.06-.06c-.05-.07.02.02 0-.02l-.1-.14-.04-.07c-.03-.06.02.07 0 0 0-.05-.03-.1-.04-.14a.58.58 0 01-.01-.08v-.11c0-.04-.02-.06 0 .02l.03-.14c0-.01.04-.09 0-.03-.02.06.02-.01.02-.02l.04-.07c.03-.05-.06.06 0 0l.06-.06c.07-.08-.05.02 0 0l.08-.05c.04-.03-.06.01.03-.01l.08-.02c.12-.04-.09 0 .04-.01h.27c-.07 0-.06 0 .02.01h.65c-.09 0 .04.02.06.02.25.05.53-.07.6-.33.05-.24-.07-.55-.34-.6zm-29.6 46.06l.07-.44c0-.08.02-.17 0-.25a.48.48 0 00-.18-.26.47.47 0 00-.23-.1.51.51 0 00-.3.06c-.35.17-.53.55-.55.9-.02.38.17.75.48.95.1.06.2.07.31.06a.5.5 0 00.28-.14.9.9 0 000-1.25.5.5 0 00-.35-.14.49.49 0 00-.34.14.5.5 0 000 .69l.03.03-.08-.1.05.08-.05-.11.03.12-.02-.13a.5.5 0 010 .1l.02-.12-.03.12.05-.12-.05.09.08-.1-.02.02.58-.08-.04-.03.1.08a.87.87 0 01-.1-.09l.09.1a.65.65 0 01-.07-.11l.05.11a.74.74 0 01-.04-.16l.01.13v-.18l-.01.13c0-.06.02-.12.04-.17l-.05.12a.6.6 0 01.07-.12l-.07.1a.58.58 0 01.08-.1l-.1.09a.68.68 0 01.1-.06l-.72-.55-.06.44a.37.37 0 00-.01.2c0 .06.02.12.06.17.06.1.17.2.29.22.12.03.26.03.37-.05.1-.06.21-.17.23-.29zm-4.8.01l.1.2-.05-.12c.05.12.09.25.1.39v-.13.33l.02-.13a.4.4 0 01-.03.09l.05-.12-.02.05.07-.1-.02.03.1-.08a1.46 1.46 0 00.04-.02l.12-.01h-.03l.12.01h-.03c.03 0 .07.03.11.04a.31.31 0 01-.06-.04l.1.08a.32.32 0 01-.1-.1l.07.1a.74.74 0 01-.09-.15l.05.12a2.2 2.2 0 01-.12-.44l.02.13a.93.93 0 010-.24l-.02.13c.01-.04.02-.1.04-.13l-.05.11.06-.1-.08.1.07-.06a.49.49 0 00.14-.35.5.5 0 00-.48-.48.54.54 0 00-.34.14.98.98 0 00-.32.78c.01.22.07.45.15.66.14.34.4.66.8.67.22 0 .45-.15.55-.35.09-.17.1-.36.1-.54a2 2 0 00-.29-.95.5.5 0 00-.29-.22.48.48 0 00-.37.05.47.47 0 00-.19.65zm2.34.53c.03.88.58 1.58 1.13 2.21v-.69l-.08.08c-.08.07.08-.06-.01 0a4.5 4.5 0 01-.2.12c-.08.04.1-.03 0 0l-.11.04-.22.04a.57.57 0 00-.29.22.5.5 0 00-.05.38c.04.11.12.23.22.29a.6.6 0 00.38.05 1.9 1.9 0 001.04-.53c.2-.2.17-.5 0-.69l-.34-.4-.02-.03-.08-.12a6.1 6.1 0 01-.28-.46l-.04-.1a1.95 1.95 0 01-.07-.25l-.01-.05v.04-.15c-.01-.25-.22-.5-.49-.49-.25.02-.49.22-.48.5zm1.76 3.98l-.25.26-.16.13c-.04.03-.04.03 0 0l-.09.07c-.1.07-.21.14-.33.2l-.18.1a.65.65 0 00-.03 0l-.1.04-.2.06-.09.02h-.03c-.15.03-.3.03-.44.01h-.09l-.1-.02a2.44 2.44 0 01-.73-.27c-.23-.11-.53-.06-.66.18-.13.21-.07.54.17.66a3.2 3.2 0 002.4.3 3.92 3.92 0 001.61-1.05.5.5 0 000-.7.5.5 0 00-.7.01z" fill="#020202"/><path d="M48.67 152.23c.55 1.55.63 3.18.5 4.81-.06.82-.17 1.63-.29 2.44-.06.41-.1.82-.24 1.22-.56 1.63-2 2.86-3.78 2.32a8.7 8.7 0 01-3.95-2.74c-.4-.48-1.09.21-.69.7a10.17 10.17 0 003.93 2.81c1.1.46 2.36.5 3.4-.15a4.8 4.8 0 001.79-2.1c.49-1.07.57-2.28.7-3.44.24-2.05.26-4.16-.43-6.13-.2-.59-1.15-.34-.94.26z" fill="#020202"/><path d="M44.12 163.86l.15 2.11c.02.29.07.6-.2.79-.17.13-.4.16-.61.2-.6.1-1.25.15-1.86.13-.47 0-1.39 0-1.63-.5-.26-.52-.25-1.25-.28-1.82-.03-.65-.02-1.3-.02-1.95 0-1.28-.06-2.58-.47-3.8-.2-.6-1.13-.34-.93.25.51 1.54.4 3.16.43 4.75.01.74.05 1.48.18 2.22.12.68.37 1.25 1.05 1.53.7.29 1.52.32 2.27.28.63-.04 1.35-.06 1.95-.27.64-.22 1.06-.7 1.1-1.4.04-.82-.1-1.7-.16-2.52-.05-.62-1.02-.62-.97 0z" fill="#020202"/><path d="M38.64 158.53l.14 1.2c.02.11.03.25-.04.34-.07.09-.18.12-.3.14-.53.13-1.2.22-1.56-.2a1.35 1.35 0 01-.26-.6c-.08-.34-.14-.7-.17-1.06 0-.1-.02-.23-.1-.3-.07-.05-.16-.06-.24-.07a2.31 2.31 0 01-1.9-1.85c-.2-1.17.53-2.44.03-3.52 2.35-.2 4.73.5 7.05.08l-.92 3.9-.87-.72c-.59-.49-1.33-1-2.04-.75-.65.22-.95 1.04-.75 1.7.2.66.77 1.14 1.4 1.41" fill="#020202"/><path d="M38.16 158.53l.1.9c.01.06.1.37.05.42.13-.16-.15-.06-.2-.05-.36.06-.8.12-.96-.3-.18-.47-.1-1.01-.27-1.48-.18-.5-.63-.45-1.04-.6-.86-.32-1.23-1.15-1.16-2.02.07-.98.44-1.96.04-2.91l-.47.61c2.4-.19 4.78.48 7.18.07l-.6-.6-.92 3.9.81-.21c-1.03-.86-2.88-2.65-4.13-1.09-1.04 1.3-.02 2.9 1.28 3.48.57.26 1.06-.58.5-.84-.73-.31-1.7-1.18-1.03-2.02.7-.88 2.18.73 2.7 1.16.26.22.72.17.8-.22l.92-3.9c.1-.39-.23-.66-.6-.6-2.29.4-4.6-.28-6.92-.1-.27.02-.6.3-.47.61.49 1.16-.28 2.43 0 3.63a2.8 2.8 0 002.1 2.07c.07 0 .13.02.2.03-.11-.16-.14-.15-.1.02-.02.12.04.29.05.4.05.33.11.67.23.98.19.5.59.82 1.11.91.48.07 1.25.03 1.64-.3.23-.19.28-.46.27-.75-.02-.4-.1-.8-.14-1.2-.07-.61-1.04-.62-.97 0z" fill="#020202"/><path d="M34.52 152.73c3.58.79 7.35.2 10.97-.09l11.47-.9c.2-.02.42-.15.47-.37.2-1.12-1.32-1.3-2.1-1.5a26.82 26.82 0 00-5.45-.75c-.26 0-.63.04-.88-.06-.26-.1-.39-.33-.52-.57a9.74 9.74 0 00-1.63-2.33 8.36 8.36 0 00-10.82-.83 5.6 5.6 0 00-2.08 2.56c-.42 1.26-.1 2.6-.33 3.88-.11.6.82.87.93.25.19-1 .07-2 .16-3.01.1-1.06.66-1.85 1.44-2.54a7.3 7.3 0 0111.34 2.2c.4.8.83 1.34 1.77 1.4 1.25.08 2.48.11 3.72.3a24.67 24.67 0 012.73.6l.44.13c.12.04.3.17.34 0l.47-.35-11.28.9c-1.83.14-3.66.3-5.5.41-1.8.1-3.63.11-5.4-.28-.61-.13-.87.81-.26.95zm10.22 13.59l7.08 3.09c.57.25 1.06-.6.49-.84l-7.08-3.09c-.56-.24-1.06.6-.5.84zm-6.26-1.35c-1.86.97-3.71 1.97-5.55 2.98-.55.3-.06 1.14.49.84 1.84-1.01 3.69-2 5.55-2.98.55-.3.06-1.13-.5-.84zM79.89 45.48a28.31 28.31 0 01-1.85-4.8c-1.96 1.3-4.2 2.2-6.51 2.61-1.56.28-3.34.29-4.51-.77l.3 4a14.9 14.9 0 01-1.36-6.12c0-1 .1-2.03.66-2.85.77-1.13 2.18-1.59 3.51-1.86a24.3 24.3 0 017.16-.39 4 4 0 011.53.37c.81.42 1.29 1.3 1.6 2.16.81 2.3.78 4.88-.1 7.14" fill="#020202"/><path d="M80.12 45.34a28.63 28.63 0 01-1.81-4.74c-.05-.16-.26-.26-.4-.16a17.27 17.27 0 01-5.38 2.36c-1.7.42-3.86.77-5.31-.47-.17-.14-.5-.06-.47.2l.3 4 .51-.14a14.6 14.6 0 01-1.32-6.15c0-.97.14-2.02.8-2.78a4.6 4.6 0 012.3-1.3c2.03-.57 4.2-.73 6.3-.68.96.02 2.16-.03 3.04.42.85.44 1.28 1.39 1.56 2.25.71 2.2.63 4.59-.19 6.75-.12.33.41.47.54.15.8-2.11.91-4.46.3-6.64a5.55 5.55 0 00-1.3-2.52c-.77-.75-1.82-.84-2.85-.9a23.2 23.2 0 00-7.1.53c-.94.22-1.89.56-2.63 1.2a3.87 3.87 0 00-1.25 2.5c-.33 2.5.3 5.19 1.33 7.44.12.25.54.13.52-.14l-.3-4-.48.2c1.5 1.27 3.56 1.11 5.35.72a17.72 17.72 0 006-2.53l-.4-.16a28.4 28.4 0 001.88 4.86c.14.33.62.05.46-.27z" fill="#020202"/><path d="M80.2 46.01c.06-.23.2-.4.4-.53.1-.06.22-.11.33-.15.12-.03.17-.05.22.07.15.4.12.9.02 1.3a2.8 2.8 0 01-1.63 1.95c-.33.13-.19.66.14.53a3.35 3.35 0 002.1-3.38c-.05-.5-.22-1.14-.85-1.03-.57.09-1.12.52-1.25 1.09-.08.35.44.5.53.15zm-12.52.49a1.92 1.92 0 00-.68-.76c-.32-.18-.68-.4-1.06-.42-.56-.05-.97.43-.92.97a4.73 4.73 0 003.2 3.76c.35.11.5-.42.16-.53a4.17 4.17 0 01-2.76-2.99l-.04-.2v-.24s-.03.06 0 .02c.02-.05.03-.1.07-.14.23-.28.7.05.94.18.3.15.46.34.62.63.17.3.64.03.47-.28z" fill="#020202"/><path d="M79.28 47.26c-.2 1.32-.36 2.66-.67 3.97a5.22 5.22 0 01-1.7 2.87c-.87.76-2 1.35-3.18 1.22-1.28-.15-2.48-1.17-3.31-2.1a7.02 7.02 0 01-1.74-3.89c-.04-.35-.6-.35-.55 0a7.6 7.6 0 001.5 3.8 7.65 7.65 0 003.22 2.54c2.29.84 5-.99 5.9-3.08.7-1.61.8-3.48 1.07-5.19.05-.35-.48-.5-.54-.14z" fill="#020202"/><path d="M76.63 50.72c-1.49.62-3.47 1.12-4.76-.19-.25-.25-.63.14-.39.4 1.44 1.45 3.61 1.02 5.3.32.32-.14.18-.67-.15-.53zm-2.87-4.2c0 .57.02 1.18.36 1.66.13.2.37.4.4.64.01.21-.25.22-.41.23-.15.01-.28.12-.28.27 0 .14.13.3.28.28.31-.02.65-.08.84-.37.2-.29.11-.67-.07-.94-.17-.27-.39-.48-.48-.8-.09-.31-.09-.64-.1-.97 0-.35-.55-.35-.54 0zm-2.06-.49c.11-.08.27.06.32.17.12.29.21.6.1.9a.34.34 0 01-.18.2c-.14.07-.34.02-.46-.08a.84.84 0 01-.22-.36c-.08-.2-.16-.42-.06-.62.09-.2.44-.32.63-.17" fill="#020202"/><path d="M71.83 46.26l-.02.01-.04.01h-.03c-.04-.01-.01 0 0 0l-.01-.01.03.03c.02.03-.02 0-.02-.02l.03.04.01.03c.02.04-.02-.06 0 0l.04.1.06.2c0 .02.02.05.01.08 0-.05 0-.02 0 0v.18l-.03.09c-.02.07.02-.04 0 0l-.02.02v.01c0-.03 0 0-.01 0-.03.04 0 .02 0 0 0 .02-.06.03-.02.02.04 0 0 0 0 0h-.01c-.02 0-.02 0 0 0h.02-.08.02l-.03-.01-.04-.01c.04.01.05.02.03 0h-.03l-.03-.03.02.01-.06-.05c0 .02.02.03 0 0l-.02-.03-.05-.09c-.02-.04 0 0 0 .01v-.04l-.04-.09a1.63 1.63 0 01-.06-.2l-.01-.03v-.09c0-.03-.02-.01 0 .01v-.04c.02-.04 0 0 0 0l.02-.03c.02-.03.02 0-.01.02l.02-.03c.01 0 .02 0 .03-.02.01-.01-.06.04-.01.01l.06-.03c-.02.02-.05.02-.02 0l.04-.01h.03l.03-.01h-.04.08-.03l.04.01c.03 0-.06-.04-.02 0 .01 0 .03 0 .04.02.11.08.3.02.37-.1.08-.15.03-.29-.1-.38-.26-.2-.69-.1-.9.14-.3.32-.16.74-.02 1.09.08.18.19.34.36.44.16.1.38.14.56.08.44-.12.52-.64.45-1.03a1.4 1.4 0 00-.07-.27c-.04-.1-.07-.2-.14-.29-.14-.2-.41-.34-.65-.2a.28.28 0 00-.1.38c.07.13.24.18.37.1zm5-.17c.14-.03.23.15.23.28.01.31-.02.64-.24.87a.35.35 0 01-.24.12.5.5 0 01-.4-.25.82.82 0 01-.06-.42c0-.21.01-.45.18-.6.16-.14.53-.12.65.08" fill="#020202"/><path d="M76.9 46.35h-.08c.04.01-.06-.03-.02 0l-.02-.02-.02-.02.02.04c-.02-.05 0 0 0 0l.01.05v-.03.13l-.01.19c.02-.06 0-.03 0 0v.04a.4.4 0 01-.03.07l-.03.09c0 .04.04-.06 0 0l-.02.04-.05.07c-.02.04.01 0 .01 0l-.03.03-.03.04c-.03.02-.01-.02 0-.01l-.02.02c-.05.03.04-.01-.01 0-.06.02.03 0 0 0s-.03 0 0 0h.01-.03l-.04-.01c.04 0 .04.02.02 0l-.05-.02c-.03-.02.05.04 0 0 0-.02-.02-.03-.03-.05-.03-.03.01.01 0 .01l-.01-.03-.02-.04c.02.06 0 0 0 0l-.01-.06c-.01-.03-.02-.02 0 0-.02-.01 0-.08 0-.1v-.28.01-.04l.02-.09.01-.03s-.02.06 0 0l.03-.03c.01-.03.01 0-.01.01l.02-.03c.03-.03.03 0 0 .01l.02-.01c.04-.03 0 0-.02 0l.07-.02h-.02.12s-.07-.02-.03 0a.57.57 0 01.07.01c.05.02-.05-.03 0 0l.02.01c.04.03 0 .01-.02 0l.03.01-.02-.02.01.02c.08.12.25.18.38.1.12-.08.18-.25.1-.38-.2-.31-.62-.38-.94-.23-.36.16-.4.58-.4.93-.01.23.03.45.18.63a.7.7 0 00.53.27c.42 0 .69-.44.75-.81.03-.2.06-.42 0-.62a.62.62 0 00-.16-.28.44.44 0 00-.4-.1c-.14.02-.23.2-.18.33.05.16.18.22.33.2zm.6 7.31c-.29 1.4-.41 2.8-.34 4.23.02.36.57.36.56 0-.07-1.38.03-2.72.31-4.08.07-.35-.46-.5-.53-.15zm-7.25.34a24.45 24.45 0 01-.38 3.7c-.06.34.46.49.53.14.23-1.27.37-2.55.4-3.84.01-.35-.54-.35-.55 0z" fill="#020202"/><path d="M77.16 57.9c-.44.76-1.5 1.35-2.25 1.72-1.1.54-2.52.81-3.48-.16-.27-.27-.47-.6-.63-.95-.11-.25-.2-.5-.28-.76-.04-.16-.05-.35-.2-.44-.21-.14-.61.04-.83.09-1.35.34-2.7.74-4.04 1.1-.86.22-1.72.44-2.59.63-.57.12-1.17.26-1.76.24-.36-.01-.36.54 0 .55.52.02 1.05-.09 1.56-.2.78-.14 1.54-.33 2.31-.53 1.48-.38 2.95-.8 4.42-1.2l.58-.14c.04 0 .15-.01.19-.04-.06.05-.02-.02 0 0-.2-.11-.26-.09-.17.08l.08.26c.25.73.61 1.45 1.22 1.93 1.06.84 2.44.66 3.6.15a8.17 8.17 0 001.79-1.09c.34-.27.72-.57.95-.95.18-.32-.3-.6-.47-.28z" fill="#020202"/><path d="M77.38 58.26c.68.56 1.36 1.14 2.13 1.58.52.3 1.1.5 1.66.71 1.02.4 2.03.87 3.09 1.19.34.1.48-.44.14-.54-1-.3-1.98-.74-2.95-1.13-.51-.2-1.03-.37-1.51-.63-.8-.43-1.48-1-2.17-1.58-.27-.22-.66.17-.39.4zm.24-13.41c-.32-.5-.93-.75-1.51-.63-.14.02-.24.2-.2.33.06.16.2.23.34.2l.05-.01h-.01.23-.01.04l.08.02.07.02a.2.2 0 01.04.01c.01 0 .06.03.02 0-.04 0 0 0 0 .01l.05.02.07.04.06.04.04.03c.02.02-.05-.04-.01 0l.11.1.03.04c.01.01.03.05 0-.01l.05.07c.07.12.24.18.37.1.12-.08.18-.25.1-.38zm-5.04-.49a1.34 1.34 0 00-1.41-.33.3.3 0 00-.17.13.27.27 0 00-.02.21c.04.13.19.25.33.2l.14-.05c.02 0 .05 0 .07-.02h-.02.22-.01l.07.02.14.04h.03c.03.02-.07-.02-.02 0l.06.04c.03 0 .05.02.07.03l.06.05-.01-.01.02.02.06.06c.1.1.3.1.39 0a.3.3 0 000-.4zm-4.62 3.74a6.22 6.22 0 00-1.18-1.5c-.1-.1-.28-.11-.38 0-.1.1-.12.29 0 .4.22.2.42.42.6.66.02 0 .03.02.04.04-.02-.03-.01-.02 0 0l.07.09.13.19c.08.12.17.26.24.4.07.12.25.17.38.09a.28.28 0 00.1-.37zM80.5 46c-.4.3-.74.69-1.02 1.1-.08.13-.02.32.1.39.14.07.3.03.38-.1l.1-.15.04-.07.03-.03c.03-.04-.03.03 0 0a4.98 4.98 0 01.75-.76.28.28 0 00.08-.19.28.28 0 00-.08-.2c-.06-.04-.12-.08-.2-.08a.31.31 0 00-.19.09zm70.64 77.35c.8 1.52 2.22 3.25 4.13 2.5 1.57-.62 2.61-2.31 3.26-3.78l-.38.1a9.67 9.67 0 005.08.9c1.6-.16 3.44-1.05 4.93-.06.3.2.57-.28.28-.47-1.37-.91-2.97-.42-4.46-.13a9.1 9.1 0 01-5.55-.72c-.12-.06-.3-.05-.38.1-.57 1.3-1.43 2.77-2.74 3.44-1.71.88-2.98-.8-3.7-2.15-.16-.32-.64-.04-.47.27z" fill="#020202"/><path d="M151.45 122.66c-.88-.53-1.9-.19-2.67.38-.82.6-1.44 1.45-2.32 1.96-.31.18-.03.66.28.48.79-.46 1.38-1.17 2.07-1.77.63-.54 1.56-1.06 2.36-.57.3.19.58-.29.28-.48zm-.09-13.41c-.13 3.28-.63 7.72 2.65 9.75a3.9 3.9 0 004.22.1c1.24-.83 1.86-2.28 2.31-3.64.7-2.1 1.16-4.28 1.4-6.48.03-.35-.52-.35-.56 0a30.9 30.9 0 01-1 5.11c-.4 1.38-.83 2.92-1.82 4a3.25 3.25 0 01-3.96.61c-1.4-.71-2.2-2.15-2.55-3.63-.46-1.9-.22-3.89-.14-5.82.01-.35-.54-.35-.55 0z" fill="#020202"/><path d="M153.98 115.17l2.68.13 1.25.05c.1 0 .25.05.35.02.15.03.15-.03-.02-.19l-.1.14-.34.47c-.1.13-.2.28-.33.38-.17.12-.38.13-.57.13-.3 0-.6-.03-.9-.1a2.34 2.34 0 01-1.5-1.06c-.18-.3-.66-.03-.48.28.62 1.07 2.06 1.6 3.25 1.4.37-.05.63-.26.85-.54l.33-.45c.1-.14.29-.32.34-.5.12-.42-.3-.5-.61-.51l-1.3-.06-2.9-.13c-.35-.03-.35.53 0 .54zm2.32-5.93c.07.27.06.55-.04.82-.09.26-.3.45-.46.66-.19.24-.3.52-.23.83.08.27.32.52.62.5.15-.02.28-.13.28-.28 0-.14-.13-.3-.28-.28h-.05c.04.01 0 0 0 0v-.02l-.02-.03c-.02-.05-.03-.12-.02-.17.09-.22.3-.39.44-.58a1.9 1.9 0 00.29-1.59c-.1-.34-.62-.2-.53.14zm3.01-.14c-.27.17-.28.54-.26.85 0 .14.03.3.15.35.19.08.34-.17.4-.36.05-.18.1-.37.06-.55-.06-.17-.25-.33-.42-.25" fill="#020202"/><path d="M159.17 108.86c-.25.17-.35.43-.39.72v.34c0 .15.02.3.09.43.08.15.25.25.42.24.18 0 .31-.12.42-.26.08-.1.13-.23.17-.35.04-.16.08-.33.07-.5a.73.73 0 00-.24-.48c-.15-.12-.35-.2-.54-.12-.14.05-.24.18-.2.34.05.13.2.24.34.19l.03-.02c.04 0 .01.02-.02 0h.02-.03l.03.01c.03 0-.02-.01-.02-.01l.03.02s.05.02 0 0c-.03-.02 0 0 .01 0l.02.03-.02-.02.02.03.02.03-.01-.03.01.04c.01.03.02.12 0 .15.02-.03.01-.03 0 0v.04l-.03.09-.04.14-.01.03v-.02l-.03.06c0 .02-.01.04-.03.05-.02.04.01-.01.02-.01l-.02.02-.02.02c.03-.03.01 0 0 0-.03.01.07-.02.03 0-.03 0-.03-.01.03-.01h.01c.05 0 .01 0 0 0-.03-.01.06.03.03 0-.03 0 .02.03.02.03l-.02-.02s.05.05.02.01c-.03-.03.02.05 0 .02l-.01-.06c0-.02 0-.08 0 0l-.01-.14v-.28.01l.01-.06c.01-.05.04-.1.04-.14 0 .05-.02.05 0 .03l.01-.04.04-.05-.01.01.02-.02.02-.02-.03.03.03-.03c.12-.08.18-.24.1-.37-.1-.12-.27-.19-.4-.1zm-5.07.06c-.27.17-.28.54-.27.86.01.13.03.29.15.34.19.08.34-.16.4-.36.05-.18.1-.36.06-.54-.05-.18-.25-.33-.42-.26" fill="#020202"/><path d="M153.95 108.68c-.25.17-.35.44-.39.73v.34c0 .14.02.3.09.42.08.15.25.25.42.25.18-.01.31-.12.42-.26.08-.1.13-.23.17-.36.04-.15.08-.33.07-.49a.72.72 0 00-.24-.48c-.15-.13-.36-.2-.55-.13-.13.05-.24.19-.19.34.05.13.2.24.34.19l.03-.01c.03-.01.01.02-.02 0h.02-.03.03-.02l.02.01c.01 0 .05.03.01 0-.03-.01 0 0 0 .01.02 0 .02.01.03.02.03.04-.02-.01-.02-.01l.02.02.02.03-.01-.02.01.03c.01.03.02.13 0 .16.02-.03.01-.04 0-.01v.04l-.03.1-.04.14-.01.03v-.03a.1.1 0 01-.03.07l-.03.05.02-.02-.02.02-.02.02c.03-.02.01 0 0 0-.03.02.07-.02.03 0h.03c-.01 0-.03-.01 0 0h.01c-.03-.02.06.02.03 0-.03-.01.02.02.02.02l-.02-.02.02.02c-.03-.04.02.05 0 .02l-.01-.06c-.01-.03 0-.08 0 0l-.01-.14v-.29.02l.01-.07c0-.04.04-.09.04-.13 0 .04-.02.05 0 .02l.01-.03.04-.06s-.04.05-.01.02l.02-.02.02-.02-.03.02.03-.02c.12-.08.18-.24.1-.38-.1-.12-.27-.18-.4-.1z" fill="#020202"/><path d="M152.76 117.5s-1.29-3.5-1.17-5.05c.12-1.56-.1-4.12-.1-4.12a7.12 7.12 0 005.23-6.62c.14 1.61.62 3.28 1.82 4.36.48.43 1.05.74 1.6 1.08.74.46.7.73 1.36 1.3 0 0-.74 3.93-.72 5.28.02 1.36-1.38 3.8-1.38 3.8a5.73 5.73 0 002.85 2.29c1.07.42 2.37.32 3.28-.4.9-.72 1.27-2.09.72-3.1-.08-.16-.19-.33-.17-.5.04-.35.47-.45.82-.5a6.1 6.1 0 002.7-.87 3.24 3.24 0 001.51-2.34 3.4 3.4 0 00-.86-2.4 8.47 8.47 0 00-2.02-1.65c-.38-.24-.79-.5-.98-.9-.33-.72.12-1.56 0-2.35a2.74 2.74 0 00-.6-1.2 13.71 13.71 0 00-4.78-3.75c-1.62-.84-3.58-1.5-5.23-.72l-.92.18a8.26 8.26 0 00-5.93 1.29 6.82 6.82 0 00-2.93 5.24c-.03.89.13 1.83-.28 2.63-.4.78-1.22 1.2-1.92 1.73a5.55 5.55 0 00-2.23 3.57 3.88 3.88 0 001.62 3.76c1.07.67 2.4.67 3.66.65.05.9 1.12 1.46 2 1.28a7.1 7.1 0 003.04-1.92" fill="#020202"/><path d="M153.02 117.42c-.5-1.34-.96-2.76-1.13-4.19-.1-.93.02-1.9 0-2.84a71.1 71.1 0 00-.12-2.06l-.2.26a7.42 7.42 0 005.43-6.88h-.55a7.2 7.2 0 001.48 4.12 7 7 0 001.8 1.39c.33.2.63.4.89.7.22.25.43.5.68.72l-.07-.27c-.31 1.69-.67 3.43-.72 5.15a7.67 7.67 0 01-.97 3.17c-.12.23-.3.47-.38.72-.16.48.66 1.17.97 1.45 1.01.88 2.38 1.6 3.75 1.47a3.1 3.1 0 002.8-2.2c.17-.6.14-1.23-.11-1.8-.07-.16-.25-.44-.1-.6.1-.11.38-.11.52-.13.41-.06.83-.12 1.23-.23 1.36-.38 2.67-1.27 3.07-2.69.42-1.48-.43-2.92-1.53-3.85-.6-.52-1.37-.86-1.95-1.4-.73-.68-.21-1.61-.26-2.46-.04-.7-.46-1.28-.9-1.81-.5-.63-1.09-1.19-1.72-1.69a16.43 16.43 0 00-4.06-2.37 7.5 7.5 0 00-2.33-.57c-.74-.05-1.32.15-2.01.35-.38.1-.75.16-1.12.12a8.8 8.8 0 00-2.3.04 7.54 7.54 0 00-6.3 5.35 7.9 7.9 0 00-.22 2.22c.02.92-.06 1.75-.77 2.4-.54.5-1.2.85-1.75 1.34a6.2 6.2 0 00-1.34 1.68c-1.35 2.52-.25 5.77 2.7 6.31.76.14 1.53.14 2.3.13l-.28-.28c.12 1.19 1.4 1.8 2.48 1.5a6.43 6.43 0 003.02-1.95c.23-.27-.16-.66-.39-.39a6.4 6.4 0 01-2.2 1.6c-.42.2-.84.33-1.3.25-.5-.1-1-.46-1.06-1-.02-.16-.12-.28-.28-.28-1.18.01-2.48.04-3.52-.62a3.5 3.5 0 01-1.52-2.82 4.65 4.65 0 011.2-3.15c.7-.82 1.69-1.27 2.44-2.03.82-.82.84-1.86.82-2.94a6.43 6.43 0 01.82-3.32 7.22 7.22 0 015.86-3.52 8.77 8.77 0 011.6.04c.34.04.55 0 .89-.07.36-.07.67-.21 1.02-.3a4.4 4.4 0 011.95-.01c1.23.25 2.38.83 3.45 1.46 1.05.61 2.05 1.32 2.9 2.19.38.4.76.82 1.06 1.3.4.64.3 1.2.2 1.93-.06.47-.05.95.2 1.37.27.43.73.7 1.15.96 1.06.7 2.18 1.54 2.52 2.83.33 1.26-.37 2.44-1.43 3.09-.6.37-1.3.57-2 .69-.43.07-1.04.05-1.36.43-.36.43 0 .84.16 1.27.2.57.11 1.23-.17 1.77-1.38 2.62-5.2.9-6.32-1.07v.28c.45-.8.86-1.65 1.15-2.53.33-1.03.28-2.13.42-3.2.14-1.06.32-2.12.5-3.17.02-.08.05-.17.05-.25.01-.28-.2-.39-.4-.58-.18-.2-.33-.43-.53-.61-.29-.28-.63-.47-.97-.68a5.32 5.32 0 01-2.08-2.03c-.48-.9-.7-1.9-.78-2.92-.03-.35-.54-.36-.55 0a6.86 6.86 0 01-5.03 6.35c-.1.03-.21.15-.2.27.06.7.1 1.42.12 2.13.02.96-.1 1.93.01 2.88a19.8 19.8 0 001.14 4.22c.12.34.66.2.53-.14z" fill="#020202"/><path d="M157.85 118.76c-.15.55-.28 1.1-.34 1.68-.05.58-.02 1.25.34 1.74.09.12.24.18.38.1.11-.08.18-.26.1-.38-.32-.43-.31-1-.26-1.51.05-.5.18-1 .31-1.48.1-.34-.44-.49-.53-.15zm-5.43-.54l-.02 2.67c0 .41 0 .83-.02 1.25-.02.26-.06.58-.31.72-.31.17-.03.65.28.48.7-.4.59-1.39.6-2.07 0-1.02 0-2.03.02-3.06 0-.35-.55-.35-.55 0zm6-9.96l.19-.1c.03-.01.03-.02 0 0l.05-.03c.04 0 .07-.02.1-.03l.21-.05h.38c-.06 0 .05.01.06.02l.1.02a.92.92 0 01.16.05l.19.1c.12.08.3.03.37-.1a.29.29 0 00-.1-.37 1.9 1.9 0 00-1.99.02c-.12.08-.18.25-.1.38.08.11.25.17.38.1zm-5.09-.43a3.05 3.05 0 011.44 0l.08.03c.03.01.04.02.02 0l.05.04s.07.05.04.02l.03.04c0-.02 0-.02.01.01.08.13.25.17.38.1.12-.08.18-.25.1-.38-.23-.35-.66-.43-1.05-.48a3.5 3.5 0 00-1.25.09c-.14.03-.23.2-.2.34.05.15.2.23.35.2zm1.34 7.9l-.5-.17c.02.18.1.35.24.47.1.09.22.14.34.2.16.1.3.23.45.34.41.3.93.5 1.44.41.5-.07.97-.46 1.05-.97l-3.02-.28z" fill="#020202"/><path d="M154.74 115.47l-.49-.17c-.15-.05-.36.1-.35.26.03.24.1.45.28.63.16.16.38.24.56.37.4.3.75.57 1.25.67.83.17 1.8-.25 1.98-1.15.03-.18-.08-.33-.27-.34l-3.03-.28c-.15-.01-.27.14-.27.28 0 .16.12.26.27.27l3.03.28-.26-.35c-.12.62-.8.88-1.36.75a2.4 2.4 0 01-.9-.48 3.9 3.9 0 00-.46-.3c-.13-.08-.25-.18-.26-.35l-.35.27.49.17c.33.12.47-.41.14-.53z" fill="#020202"/><path d="M106.68 51.11c-.33.21-.77.34-1.31.39-.56.04-1 .02-1.31-.06-.42-.1-.79-.33-1.12-.68a2.95 2.95 0 01-.86-2.19c.02-.95.3-1.68.84-2.18a3.25 3.25 0 012-.8c.94-.08 1.67.18 2.21.79.77.86 1.05 1.8.86 2.8a2.8 2.8 0 01-1.3 1.93zm-.46-4.3a2.2 2.2 0 00-1.42-.38c-.74.05-1.3.48-1.68 1.27-.16.31-.23.65-.23 1 0 .73.39 1.3 1.14 1.74.71.42 1.46.37 2.24-.14.23-.14.42-.35.6-.62.4-.64.48-1.26.22-1.85a2.2 2.2 0 00-.87-1.02zm5.33 2.02c.02-.18 0-.37-.05-.59-.04-.42.02-.7.2-.85.26-.2.44-.24.53-.1.06.08.1.28.1.6v1.72c.17 1 .11 1.58-.16 1.74-.2.12-.34.09-.44-.09a1.8 1.8 0 01-.1-.45l-.02-.39v-.2c0-.24-.11-.3-.36-.16-.64.17-1.22.16-1.76-.04-.53-.21-.77-.87-.71-1.98l.02-.2c.02-.25.12-.4.32-.48.15-.07.27 0 .34.22.09.2.1.43.07.68-.03.25 0 .48.08.7.08.2.32.31.69.32.37.01.67-.01.88-.08.23-.07.35-.2.36-.37zm4.41 2.64c-.58.26-1.16.27-1.76.03-.5-.2-.84-.55-1-1.05-.17-.46-.16-.95.03-1.47.15-.4.3-.68.44-.85.18-.19.52-.4 1.03-.63a1.4 1.4 0 011.06 0c.4.13.6.35.62.64.03.59-.2 1.08-.71 1.48-.23.17-.75.45-1.55.83.1.25.35.41.74.48.38.07.72.04 1.04-.12.24-.11.42-.13.54-.06.11.07.14.2.06.38-.05.1-.23.21-.54.34zm-.94-3.4c-.42.1-.74.36-.96.74-.21.36-.26.66-.13.9.72-.35 1.11-.55 1.18-.6.45-.26.57-.55.37-.85-.12-.17-.27-.24-.46-.2zm5.04.95c-.02-.3-.05-.59-.1-.85-.05-.37.02-.63.2-.77.26-.2.44-.24.53-.1.06.08.1.28.1.6v1.72c.17 1 .1 1.58-.16 1.74-.2.12-.34.09-.44-.09a1.86 1.86 0 01-.1-.45l-.01-.62v-.27c-.05-.1-.53-.13-1.47-.1l-.63.06c0 .38.01.81.05 1.3.01.29-.11.42-.37.4-.25 0-.39-.11-.4-.3-.07-.75-.1-1.86-.09-3.32l.06-.21c0-.24.08-.4.28-.47.2-.07.34 0 .41.22l.08.23c.05.4.05.84.01 1.32.22-.06.55-.09 1-.06.21.05.5.06.88.02h.17zm1.51 1.75l-.04-.45.01-.24.02-.56c0-.41.03-.99.06-1.73-.03-.24.07-.37.28-.41.12-.04.22.02.31.18a3.82 3.82 0 01.1 1.61l.26-.16c.28-.15.66-.2 1.12-.18l.6.09c.15.04.3.1.45.17a.8.8 0 01.37.31c.1.14.17.32.23.53.13.6-.13 1.07-.77 1.4a3.64 3.64 0 01-2.36.1c-.37-.13-.58-.35-.64-.66zm1.82-1.17c-.33.03-.61.1-.84.23-.14.16-.17.35-.1.58.02.2.16.34.41.4.33.1.64.12.92.05.48-.12.72-.34.73-.65-.04-.47-.41-.68-1.12-.61zm9.74-1.59c-.28.33-.56.65-.86.96l-.57.6c.03.13.17.33.4.57.27.3.45.5.52.6.24.39.24.64-.01.76-.09.04-.19.02-.29-.05l-.13-.1-.12-.11a4 4 0 01-.48-.53c-.2-.25-.35-.43-.46-.51-.21.12-.47.36-.77.7a10 10 0 01-.68.74c-.18.15-.32.15-.44 0a.44.44 0 01-.11-.4c.05-.27.26-.57.63-.89.48-.42.77-.68.85-.8a3.14 3.14 0 00-.5-.54 5.68 5.68 0 01-.53-.54c-.3-.42-.33-.7-.07-.87.1-.06.22-.04.36.06l.32.3.48.5c.2.22.36.39.49.5.19-.16.48-.46.9-.91.33-.38.66-.67.97-.85.14-.08.27-.1.38-.03.13.05.16.18.12.35.01-.03-.13.14-.4.49zm5.4 1.69a2 2 0 01-.76 1.36c-.47.39-1.02.57-1.66.54a2.27 2.27 0 01-1.51-.6c-.62-.58-.77-1.29-.45-2.13.23-.6.6-.99 1.13-1.18.5-.19 1-.24 1.5-.15.53.1.96.34 1.29.73.36.44.52.91.47 1.43zm-2.41-1.43c-.39.06-.7.18-.92.39-.46.4-.6.83-.46 1.29.1.32.38.58.8.76.43.19.87.22 1.3.11.47-.12.76-.47.87-1.05.11-.6-.06-1.03-.53-1.32a1.6 1.6 0 00-1.06-.18zm6.82.53a2 2 0 01-.02 1 2.01 2.01 0 01-1.37 1.5 2 2 0 01-.9.03l-.72-.08c-.05.14-.07.4-.07.82 0 .46-.02.8-.06 1l-.08.5a.56.56 0 01-.27.33c-.09.05-.19 0-.29-.14-.1-.13-.15-.25-.14-.36.15-2.1.12-3.97-.1-5.6-.01-.14.07-.25.23-.33.16-.07.3-.09.44-.05.1.03.15.1.18.2l.02.3c.42-.2.84-.3 1.28-.32a2 2 0 011.33.38c.28.2.46.47.54.81zm-2.1-.44a2 2 0 00-1 .49c-.1.68-.08 1.2.08 1.55.7.24 1.22.29 1.56.13.4-.2.63-.51.7-.97.06-.45-.1-.82-.45-1.09-.2-.15-.5-.18-.88-.11zm7.26 1.34a2 2 0 01-.77 1.36c-.47.39-1.02.57-1.65.54a2.27 2.27 0 01-1.52-.6c-.61-.58-.76-1.29-.44-2.13.23-.6.6-.99 1.12-1.18.5-.19 1.01-.24 1.5-.15.53.1.96.34 1.3.73.36.44.51.91.46 1.43zm-2.42-1.43c-.39.06-.7.18-.92.39-.46.4-.6.83-.46 1.29.1.32.38.58.8.76.43.19.87.22 1.3.11.47-.12.76-.47.87-1.05.11-.6-.06-1.03-.53-1.32a1.6 1.6 0 00-1.06-.18zm3.02.73c.01-.62.1-1.1.26-1.43.21-.09.35-.09.4 0 .14.25.2.74.17 1.46-.03.86.04 1.38.2 1.54.07.08.27.06.58-.08.25-.1.41-.22.48-.35.04-.16.04-.54.01-1.13a5.8 5.8 0 01-.02-.9l.05-.4c.03-.15.1-.25.2-.3.38-.22.58-.03.59.59l.03 1.88.03.2.04.19c.05.13.13.2.26.19.33 0 .67-.15 1-.44.01-.03 0-.62-.05-1.75-.03-.47.06-.77.27-.88.12-.08.25-.08.38 0 .1.08.16.15.16.24 0 1.82.08 3.02.23 3.58.01.14-.03.25-.13.32-.12.09-.27.09-.46 0-.15-.1-.23-.2-.26-.31a1.7 1.7 0 00-.1-.26c-.2.04-.45.13-.72.28-.3.14-.58.23-.84.28a.57.57 0 01-.32-.09 7.49 7.49 0 01-.16-.47l-.47.28c-.17.1-.41.19-.73.27-.31.09-.54.08-.68-.03a3 3 0 01-.2-.8 6.1 6.1 0 01-.2-1.68zm10.58.7a2 2 0 01-.77 1.36 2.3 2.3 0 01-1.65.54 2.27 2.27 0 01-1.51-.6c-.62-.58-.77-1.29-.45-2.13.23-.6.6-.99 1.12-1.18a2.79 2.79 0 011.5-.15c.53.1.97.34 1.3.73.37.44.52.91.46 1.43zm-2.42-1.43c-.38.06-.69.18-.91.39-.46.4-.61.83-.46 1.29.1.32.37.58.8.76.43.19.86.22 1.3.11.47-.12.76-.47.87-1.05.1-.6-.07-1.03-.53-1.32a1.6 1.6 0 00-1.07-.18zM69.74 154.94a.92.92 0 01-.38.03h-.76c-.12.54-.18 1.1-.17 1.67 0 .4.04.99.1 1.75l.11.4c.05.16.04.29-.02.39a.47.47 0 01-.18.16c-.09.06-.17.06-.23.03-.19-.1-.31-.33-.37-.7l-.05-1.06c-.01-.24 0-.74.02-1.48 0-.56-.02-.94-.06-1.13-.76.03-1.23.1-1.4.21a.38.38 0 01-.4.02.4.4 0 01-.23-.33.4.4 0 01.14-.37c.1-.1.22-.15.35-.16.25-.04.59-.06 1-.08.59 0 .93-.02 1.03-.02l.51-.04.52-.04c.45-.03.67.1.65.38-.02.2-.07.32-.18.37zm4.05 2.66c0 .88-.01 1.46-.03 1.73-.04.6-.13 1.07-.28 1.4-.18.42-.47.67-.86.77-.95.23-1.68.04-2.2-.56a1.9 1.9 0 01-.33-.48.44.44 0 01.06-.47c.13-.17.26-.18.4-.04.05.04.11.12.2.24l.19.27a1.37 1.37 0 001.53.38c.32-.12.5-.4.54-.87l.09-1.15a2.6 2.6 0 00-1.08.22c-.55.2-.93.33-1.14.37-.07.01-.14-.02-.2-.1s-.09-.18-.06-.31c.07-.37.06-1.12-.03-2.25a4.34 4.34 0 01-.02-.39.52.52 0 01.19-.34c.08-.07.2-.07.32 0 .13.09.2.18.21.28.12.88.16 1.61.11 2.22l1.72-.57a5.1 5.1 0 01.07-1.93c.07-.3.2-.4.42-.31.08.03.15.09.2.16.06.08.08.14.07.2a9.2 9.2 0 00-.1 1.52zm5.49.3a3.2 3.2 0 01-.24 1.28c-.19.07-.3.07-.35 0-.13-.23-.18-.66-.15-1.3.02-.6-.04-.98-.18-1.13-.07-.07-.22-.05-.45.07-.23.12-.37.24-.44.35a3.2 3.2 0 000 .72c.02.38.03.64.01.8l-.04.36a.38.38 0 01-.18.27c-.34.2-.52.02-.52-.53l-.03-1.6-.03-.17a1.72 1.72 0 00-.03-.18c-.04-.12-.12-.15-.24-.1-.25.1-.57.37-.95.79l.05 1.02c.03.42-.06.68-.24.78-.14.07-.26.07-.37 0-.1-.07-.14-.14-.14-.21.03-1.44 0-2.55-.09-3.32-.01-.13.02-.22.1-.28.11-.09.27-.08.49 0 .2.08.28.24.25.47-.04.28-.04.45.01.5.13-.03.36-.18.68-.44.26-.22.51-.3.75-.26.11.02.21.1.28.22l.14.42c.17-.04.34-.14.5-.3.22-.2.36-.32.42-.35.26-.15.44-.18.56-.09a5.54 5.54 0 01.42 2.2zm6.29-1.95c.18.06.35.14.5.26.25.18.41.42.49.72.07.28.07.58 0 .9-.19.73-.59 1.2-1.2 1.4-.17.08-.44.12-.8.11a2.4 2.4 0 01-.72-.13 1.3 1.3 0 01-.65-.81 3.5 3.5 0 01-.15-1.38 7.84 7.84 0 01.25-1.54c.12-.36.26-.6.4-.75.14-.17.45-.35.9-.52.28-.1.6-.1.94.01.35.13.54.32.55.58.03.43-.15.81-.51 1.15zm-.87.6a1.2 1.2 0 00-.77.44c-.3.65-.26 1.11.13 1.38.5.24.9.27 1.2.11.36-.16.57-.45.62-.85a.96.96 0 00-.4-.97c-.17-.14-.44-.17-.78-.1zm.18-1.8c-.38.1-.66.3-.86.6-.18.32-.22.59-.11.8.2-.18.55-.31 1.05-.4.4-.32.5-.6.32-.82-.1-.16-.23-.21-.4-.17zm43.53 1.41c.2.06.36.14.52.26.24.18.4.43.48.73.07.27.07.57 0 .9-.19.72-.59 1.19-1.2 1.4-.17.07-.44.1-.8.1-.3-.02-.54-.05-.72-.12-.3-.15-.52-.42-.65-.82a3.5 3.5 0 01-.15-1.38 7.81 7.81 0 01.25-1.54c.12-.36.25-.6.4-.74.14-.18.45-.36.9-.52.28-.12.6-.1.94 0 .35.13.54.32.55.58.03.44-.15.82-.52 1.15zm-.86.61c-.36.07-.61.21-.77.44-.3.64-.26 1.1.13 1.37.5.24.9.27 1.2.11.36-.16.56-.45.62-.85a.96.96 0 00-.4-.97c-.18-.13-.44-.16-.79-.1zm.18-1.8c-.38.1-.66.3-.86.59-.18.32-.22.59-.11.8.2-.18.55-.3 1.05-.4.4-.32.5-.6.32-.82a.36.36 0 00-.4-.17zm-38.96 4.5c-.33.06-.65 0-.95-.18-.3-.17-.5-.4-.6-.7a2.2 2.2 0 01-.1-1.16c.06-.4.22-.76.46-1.09.44-.56.92-.77 1.45-.62.47.13.75.56.84 1.28 0 .11-.04.19-.14.23-.12.05-.24 0-.37-.14l-.28-.47c-.12-.21-.25-.31-.4-.33-.3 0-.56.29-.78.9-.24.69-.14 1.18.28 1.47.32.22.75.26 1.3.13l.41-.09c.1 0 .11.07.07.2-.1.26-.49.44-1.19.57zm4.31-.19a1.9 1.9 0 01-1.56.03 1.47 1.47 0 01-.9-.93c-.14-.4-.13-.85.03-1.3.13-.37.26-.62.39-.76.16-.17.47-.36.92-.56.28-.12.6-.13.94 0 .35.11.54.3.55.57.03.52-.18.95-.64 1.3-.2.16-.66.41-1.37.75.1.22.31.37.66.43.33.06.64.03.92-.11.22-.1.38-.12.48-.06.1.06.12.18.06.34-.04.1-.2.2-.48.3zm-.84-3.02c-.37.1-.66.32-.85.66-.19.33-.23.6-.12.8.65-.31 1-.48 1.06-.53.4-.23.5-.48.32-.76a.36.36 0 00-.4-.17zm6.56 3.21c-.34.06-.66 0-.96-.18-.3-.17-.5-.4-.6-.7a2.2 2.2 0 01-.1-1.16c.07-.4.22-.76.47-1.09.43-.56.91-.77 1.44-.62.47.13.75.56.84 1.28.01.11-.03.19-.13.23-.12.05-.24 0-.38-.14l-.28-.47c-.11-.21-.25-.31-.4-.33-.3 0-.56.29-.78.9-.23.69-.14 1.18.29 1.47.32.22.75.26 1.3.13l.4-.09c.1 0 .12.07.07.2-.09.26-.48.44-1.18.57zm5.05-1.87c0 .88 0 1.46-.03 1.73-.03.6-.13 1.07-.27 1.4-.19.42-.47.67-.86.77-.96.23-1.69.04-2.2-.56a1.9 1.9 0 01-.33-.48.45.45 0 01.05-.47c.13-.17.27-.18.4-.04.06.04.12.12.2.24l.2.27a1.37 1.37 0 001.53.38c.32-.12.5-.4.54-.87.07-.82.1-1.2.08-1.15a2.6 2.6 0 00-1.07.22c-.56.2-.93.33-1.14.37-.08.01-.14-.02-.2-.1-.07-.08-.09-.18-.06-.31.07-.37.06-1.12-.04-2.25a4.43 4.43 0 01-.02-.39.53.53 0 01.2-.34c.08-.07.19-.07.32 0 .13.09.2.18.21.28.11.88.15 1.61.1 2.22a74 74 0 001.73-.57 5.1 5.1 0 01.07-1.93c.07-.3.2-.4.41-.31.08.03.15.09.21.16.06.08.08.14.06.2a9.1 9.1 0 00-.09 1.52zm1.09-1.65c.17-.1.3-.1.4 0 .03.07.07.16.1.28l.75-.32.81-.3c.3-.1.55-.06.77.12.12.1.16.3.14.6l-.04.4-.03.38c-.01.36.03.99.14 1.87.03.21-.06.34-.24.37-.18.04-.31-.02-.4-.16-.14-.26-.19-.73-.14-1.4.05-.66 0-1.11-.16-1.38-.76.08-1.3.27-1.6.56 0 .51.03 1.05.1 1.6.05.34-.01.57-.17.7-.23.17-.39.2-.47.09-.06-.08-.09-.26-.09-.54v-1.53c-.1-.7-.05-1.15.13-1.34zm6.16 3.33a1.9 1.9 0 01-1.56.03 1.47 1.47 0 01-.9-.93 1.9 1.9 0 01.04-1.3c.13-.37.25-.62.38-.76a3 3 0 01.92-.56c.28-.12.6-.13.94 0 .35.11.54.3.56.57.02.52-.19.95-.64 1.3-.2.16-.66.41-1.38.75.1.22.31.37.66.43.33.06.64.03.93-.11.21-.1.37-.12.48-.06.1.06.12.18.05.34-.03.1-.2.2-.48.3zm-.83-3.02c-.38.1-.66.32-.85.66-.19.33-.23.6-.12.8.64-.31 1-.48 1.05-.53.4-.23.51-.48.33-.76a.37.37 0 00-.4-.17zm5.35.64c.07.28.06.58-.02.9a1.8 1.8 0 01-1.21 1.34c-.2.06-.47.07-.81.03l-.64-.08a2.8 2.8 0 00-.06.73 6 6 0 01-.06.89l-.06.44a.48.48 0 01-.25.3c-.08.04-.16 0-.25-.13-.1-.11-.14-.22-.13-.32.14-1.87.11-3.53-.08-4.99-.02-.12.05-.22.2-.28a.54.54 0 01.4-.05c.07.03.13.08.15.18l.02.27c.37-.18.75-.28 1.14-.3.47-.01.86.1 1.18.34.24.19.4.43.48.73zm-1.87-.38c-.35.07-.65.21-.9.44-.08.6-.06 1.06.08 1.38.62.21 1.08.25 1.38.1a1 1 0 00.62-.85.96.96 0 00-.39-.97c-.18-.13-.44-.16-.79-.1zm7.35.26c-.1.14-.19.21-.3.22-.23.04-.45.1-.67.16-.2.07-.4.11-.6.14-.1.01-.2-.05-.29-.18a.69.69 0 01-.15-.34c-.02-.3.04-.49.2-.54.1-.04.22-.02.34.05.1.07.25.07.46.02a3 3 0 01.72-.13c.25 0 .38.08.4.23.02.1-.02.23-.1.37zm9.2 1.95l-.04-.4a1.5 1.5 0 01.01-.4l.02-.3.1-1.62c.03-.2.1-.33.2-.37.1-.03.21.02.33.17.1.26.14.69.1 1.28v.2c.07-.06.15-.1.23-.14.22-.12.53-.16.94-.14.13.02.27.04.41.08.14.04.26.09.38.15.11.07.2.16.27.28.06.13.12.28.17.47.07.49-.12.86-.56 1.1-.24.13-.66.23-1.26.3-.3 0-.56-.05-.78-.14-.3-.07-.47-.24-.51-.52zm1.55-.99c-.3.03-.54.1-.74.2-.12.1-.15.24-.09.45.02.19.14.3.36.35a2 2 0 00.8 0c.34-.16.51-.34.52-.52.02-.38-.26-.54-.85-.48zm2.64 1.18c-.02.18-.1.3-.25.37-.1.05-.2.05-.28 0a.36.36 0 01-.17-.23 5.78 5.78 0 01-.06-1.2c0-.94-.01-1.6-.03-1.96 0-.1.07-.2.23-.26.15-.07.27-.03.37.13.1.17.14.56.13 1.15a10.54 10.54 0 00.06 2zm4.59-2.54l.12-.39c.04-.15.11-.23.2-.25.22-.04.43.14.63.56.49 1.07.71 1.6.67 1.55.34-.42.66-1.07.94-1.92.03-.13.13-.18.28-.17.15.01.24.07.28.17.1.26.22.75.34 1.46.1.62.26 1.1.48 1.45.08.13.09.25.02.35a.25.25 0 01-.28.1.72.72 0 01-.53-.48c-.04-.09-.1-.31-.17-.66a1.6 1.6 0 00-.24-.65c-.16.1-.41.5-.76 1.2-.22.46-.44.61-.66.47a10.53 10.53 0 01-.56-1.34 3.9 3.9 0 00-.26-.62c-.16.18-.3.44-.4.8-.17.49-.26.77-.3.84-.13.3-.25.48-.34.53a.38.38 0 01-.36 0c-.1-.06-.15-.14-.1-.25.31-1.09.65-2 1-2.75zm8.49 1.33c-.05.47-.27.87-.68 1.21-.41.34-.9.5-1.47.48a2 2 0 01-1.34-.53c-.55-.51-.69-1.15-.4-1.9.2-.52.54-.87 1-1.04.45-.17.9-.22 1.33-.13.48.08.86.3 1.15.64.33.39.47.81.41 1.27zm-2.15-1.27c-.34.06-.61.17-.8.35-.41.36-.55.74-.41 1.15.09.28.33.5.7.68.4.16.78.2 1.16.1.42-.11.68-.42.77-.94.1-.53-.05-.92-.47-1.17a1.41 1.41 0 00-.95-.17zm3.6-.19l.08-.19.09-.2c.07-.16.15-.25.25-.28.24-.08.42 0 .53.24a13.29 13.29 0 01.22.64c.05.13.26.54.63 1.24.21.4.33.77.36 1.13.02.15-.05.3-.21.44-.17.15-.3.13-.38-.07a7.85 7.85 0 01-.36-1.07c-.21-.58-.43-1-.65-1.3-.18.2-.36.49-.55.87a78.04 78.04 0 00-.69 1.43c-.09.14-.18.22-.28.22-.26.03-.38-.09-.35-.34.02-.2.11-.45.28-.72.03-.02.37-.7 1.03-2.03zm6.69 1.46c-.05.47-.27.87-.68 1.21-.42.34-.9.5-1.47.48a2 2 0 01-1.34-.53c-.56-.51-.69-1.15-.4-1.9.2-.52.54-.87 1-1.04.45-.17.9-.22 1.33-.13.47.08.86.3 1.15.64.32.39.46.81.41 1.27zm-2.15-1.27c-.34.06-.62.17-.81.35-.4.36-.54.74-.4 1.15.08.28.32.5.7.68.39.16.77.2 1.16.1.41-.11.67-.42.77-.94.1-.53-.06-.92-.47-1.17a1.4 1.4 0 00-.95-.17zm5.76-.02a5 5 0 01-.07 1.67c-.13.5-.38.84-.72 1.05-.53.28-1.07.3-1.63.08a1.47 1.47 0 01-.74-.84 1.93 1.93 0 01.02-1.46 1.77 1.77 0 011.87-1.02c.21.03.38.07.5.12v-.08c-.1-.48-.31-.79-.64-.93a1.4 1.4 0 00-.86-.04.87.87 0 00-.42.24.58.58 0 01-.21.17c-.15.07-.28.04-.42-.1-.09-.1-.1-.24-.03-.4.05-.12.18-.22.41-.32.5-.33 1.06-.4 1.69-.2.39.13.7.42.92.89.18.34.3.73.33 1.17zm-1.73.16c-.3.07-.54.23-.73.5-.18.24-.25.47-.2.7a1 1 0 00.35.63c.21.19.45.27.7.24.4 0 .67-.2.83-.55.08-.14.12-.34.14-.62a1.1 1.1 0 00-.17-.7c-.17-.21-.47-.28-.92-.2zm4.94 2.7a1.9 1.9 0 01-1.57.03 1.47 1.47 0 01-.9-.93 1.9 1.9 0 01.04-1.3c.13-.37.26-.62.39-.76.16-.17.46-.36.91-.56.29-.12.6-.13.95 0 .35.11.53.3.55.57.03.52-.18.95-.64 1.3-.2.16-.66.41-1.37.75.09.22.3.37.65.43.34.06.65.03.93-.11.22-.1.38-.12.48-.06.1.06.12.18.05.34-.03.1-.2.2-.47.3zm-.84-3.02c-.37.1-.66.32-.85.66-.19.33-.22.6-.12.8.65-.31 1-.48 1.06-.53.4-.23.5-.48.32-.76a.36.36 0 00-.4-.17zm5.22 2.09c.15-.13.28-.18.41-.16.17.04.26.2.28.5a4 4 0 01-.04 1.05c-.05.13-.12.2-.22.2a.37.37 0 01-.32-.15 1.49 1.49 0 01-.14-.6v-.07a.64.64 0 01-.08.04c-.25.09-.42.05-.5-.1a1.4 1.4 0 01-.1-.33c-.46.24-.98.44-1.56.6a.8.8 0 01-.78-.13c-.11-.1-.16-.3-.13-.6l.04-.4.03-.38c0-.36-.04-.99-.15-1.87-.02-.21.06-.33.25-.37.18-.04.3.02.39.16.15.27.2.73.15 1.4-.06.66 0 1.12.16 1.38.76-.08 1.29-.27 1.6-.56a9.52 9.52 0 00-.11-1.6c-.04-.34.02-.56.18-.7.23-.17.38-.2.47-.09.05.09.08.27.08.55l.01 1.52c.01.32.03.56.08.71zm2.48.95c-.09.16-.21.24-.36.24-.58 0-.85-.22-.82-.66 0-.16.06-.29.18-.4.1-.1.23-.16.38-.18a.6.6 0 01.42.08.6.6 0 01.27.4c.04.18.01.36-.07.51zm-.17-2.6c-.05.24-.14.4-.26.47-.2.1-.35-.02-.46-.39a3.78 3.78 0 01-.14-.96l-.07-.6a5.28 5.28 0 01-.03-.7c.02-.54.22-.84.59-.9.18-.03.3.04.37.2.05.12.06.33.04.61a8.9 8.9 0 00-.04 1.49c.05.28.06.54 0 .78zm20.55-54.48a1.75 1.75 0 01-1.04 1.44c-.35.18-1 .36-1.96.53l-.9.17c-.34.05-.65.06-.95.02-.42-.05-.67-.2-.74-.44l.17-.64a9.9 9.9 0 00-.06-3.76c-.09-.55.04-.87.38-.97-.02.01.34 0 1.1-.06a19 19 0 011.55-.06c.56.04 1.05.18 1.47.44.44.26.53.61.28 1.05a4 4 0 01-1.3 1.06c.8.1 1.38.27 1.7.54.23.19.33.41.3.68zM188 99.47c-.18-.24-1.07-.29-2.65-.13-.08.15-.09.4-.04.72.05.38.07.64.04.77.67-.1 1.1-.18 1.3-.24.35-.1.67-.23.95-.4.44-.25.58-.49.4-.72zm.74 2.7c-.07-.3-.61-.46-1.62-.48-.32 0-.6 0-.84.03-.39.05-.7.12-.92.21a9.46 9.46 0 01-.14 1.61 5.85 5.85 0 002.74-.53c.28-.1.47-.2.57-.29.2-.14.26-.33.21-.55zm9.54.33c0 .42-.14.78-.4 1.08a2 2 0 01-.86.55c-.44.14-.88.2-1.32.17-.44-.02-.76-.1-.96-.23a.9.9 0 01-.35-.37c-.1-.2-.1-.34.03-.43.16-.11.32-.09.49.07.3.15.6.23.91.22.78-.02 1.23-.24 1.36-.64.07-.12.12-.25.14-.4-.97 0-1.53-.02-1.67-.05a.92.92 0 01-.34-.06c-.09-.04-.14-.13-.16-.27.02-.15.1-.25.22-.28.13-.04.42-.08.88-.11l.92-.07c-.07-.22-.18-.4-.34-.57a1.07 1.07 0 00-.64-.3 1.44 1.44 0 00-.9.05c-.17.1-.3.17-.37.23a.64.64 0 01-.5.23.39.39 0 01-.3-.25c-.12-.3.2-.6.93-.91a2.85 2.85 0 012.17.2c.3.17.54.41.72.71.26.5.37.97.34 1.43zm6.04-1.51c.15.5.22 1.06.21 1.65-.01.61-.1 1.08-.28 1.42-.23.08-.38.08-.43 0-.16-.25-.22-.73-.19-1.45.03-.66-.04-1.07-.21-1.24-.08-.08-.27-.05-.55.08-.27.13-.45.26-.53.38-.03.16-.03.43 0 .8.03.42.04.72.02.9l-.05.4c-.04.14-.1.24-.22.3-.41.2-.62.01-.63-.6l-.03-1.78a1.15 1.15 0 01-.04-.19 1.66 1.66 0 00-.04-.19c-.06-.13-.15-.17-.29-.12-.3.13-.69.42-1.15.89 0 .03.01.4.06 1.13.03.46-.06.75-.3.87a.43.43 0 01-.44-.01c-.12-.07-.17-.15-.17-.23.04-1.6 0-2.83-.1-3.68-.02-.14.02-.25.13-.32.12-.09.32-.08.57.01.25.09.35.26.31.51-.05.31-.04.5.01.57.16-.04.43-.2.82-.5.32-.24.63-.34.9-.29.15.02.26.1.35.24l.18.47c.2-.04.4-.15.6-.33.27-.23.43-.36.5-.4.32-.16.55-.19.69-.08.04.03.14.3.3.79zm5.53.04c.4.43.56.9.5 1.4-.06.52-.34.97-.83 1.35-.5.38-1.1.56-1.78.53a2.58 2.58 0 01-1.63-.58c-.66-.58-.83-1.28-.48-2.11.25-.59.65-.98 1.2-1.17a3.25 3.25 0 011.62-.14c.58.1 1.04.33 1.4.72zm-.96.17c-.31-.17-.7-.23-1.15-.17-.41.05-.74.18-.98.38-.5.39-.66.81-.5 1.27.12.32.4.57.87.75.46.18.93.22 1.4.11.5-.12.81-.46.93-1.04.13-.58-.06-1.01-.57-1.3zm1.85 2.8c.39-1.2.8-2.22 1.22-3.04l.14-.43c.06-.17.14-.26.26-.28.26-.05.5.16.75.62.6 1.2.86 1.77.81 1.72.42-.47.8-1.19 1.14-2.14.04-.13.16-.2.35-.18.18.02.29.08.34.19.12.28.26.82.4 1.62.13.68.33 1.22.58 1.6.1.15.1.28.03.4-.09.1-.2.14-.34.1a.86.86 0 01-.64-.53c-.05-.1-.12-.34-.2-.73a1.78 1.78 0 00-.3-.72c-.19.1-.5.55-.92 1.34-.27.5-.53.67-.8.51a2.58 2.58 0 01-.32-.6c-.1-.2-.21-.5-.35-.89-.12-.3-.22-.53-.31-.69-.2.2-.36.5-.5.88l-.35.95c-.17.34-.31.53-.43.58a.5.5 0 01-.43 0c-.13-.06-.18-.15-.13-.27zm13.16-2.6c-.21-.24-.58-.31-1.12-.23-.36.08-.66.27-.88.56-.22.26-.3.52-.25.78.04.27.18.5.43.7.26.2.54.3.85.26.47-.01.8-.22 1-.61.1-.16.15-.38.17-.68a1.2 1.2 0 00-.2-.78zm.98-.4c.08.7.05 1.32-.09 1.85-.16.56-.45.94-.87 1.17-.64.3-1.3.34-1.97.1a1.67 1.67 0 01-.9-.94 1.97 1.97 0 01.03-1.62c.24-.5.67-.86 1.3-1.07.29-.08.61-.1.96-.06.26.03.46.08.6.14v-.1c-.12-.53-.37-.87-.77-1.02a1.8 1.8 0 00-1.04-.05 1.2 1.2 0 00-.52.27c-.1.1-.19.17-.25.18-.18.09-.34.05-.5-.1-.12-.12-.13-.27-.04-.45.05-.13.22-.25.5-.36.6-.35 1.28-.43 2.04-.22.47.15.84.48 1.12 1 .21.36.35.79.4 1.28zm5.2.03c.4.43.56.9.5 1.4-.06.52-.34.97-.83 1.35-.5.38-1.1.56-1.78.53a2.59 2.59 0 01-1.63-.58c-.66-.58-.82-1.28-.48-2.11.25-.59.65-.98 1.2-1.17a3.25 3.25 0 011.62-.14c.58.1 1.04.33 1.4.72zm-.96.17c-.31-.17-.7-.23-1.15-.17-.41.05-.74.18-.98.38-.5.39-.65.81-.5 1.27.12.32.4.57.87.75.46.18.93.22 1.4.11.5-.12.81-.46.93-1.04.13-.58-.06-1.01-.57-1.3zm6.17 2.44c.1.1.1.22.02.39-.08.18-.25.23-.49.16-.34-.11-.7-.42-1.08-.92a3.84 3.84 0 00-1.1-1.05 1.5 1.5 0 00-.6.64l-.02.37v.41c-.01.33-.1.54-.28.65-.14.09-.3.08-.46-.03-.15-.1-.22-.2-.2-.3.1-.59.1-1.53.04-2.81 0-.3.04-.58.1-.85.03-.1.08-.17.16-.22a.43.43 0 01.28-.04c.25.04.36.2.35.5-.03.57-.04.95-.02 1.12.26-.13.58-.36.97-.7.49-.49.81-.8.97-.9.28-.2.53-.22.76-.07.09.06.14.14.16.22.03.09 0 .16-.05.2-.63.49-1.13.93-1.5 1.31l.79.78 1.2 1.14zm4.64-3.01c-.07.34-.1.9-.1 1.67 0 .99-.01 1.63-.04 1.93a4.23 4.23 0 01-.33 1.55c-.22.47-.57.75-1.05.85-1.15.26-2.03.06-2.66-.61-.2-.23-.34-.4-.4-.54a.45.45 0 01.07-.5c.15-.2.32-.21.49-.06l.23.27.24.3a1.8 1.8 0 001.85.42c.4-.14.61-.46.66-.97.09-.9.12-1.33.1-1.27-.34-.02-.77.06-1.3.24-.67.23-1.13.37-1.38.4-.09.02-.17-.01-.24-.1-.08-.08-.1-.2-.08-.34.08-.4.07-1.24-.04-2.5l-.03-.43c.02-.14.1-.27.23-.38.1-.08.24-.08.4.01.15.09.24.19.25.3.14.98.19 1.8.14 2.46.2-.05.9-.26 2.08-.63-.13-.64-.1-1.36.08-2.14.09-.32.25-.44.5-.34.1.03.19.1.26.18.06.08.09.16.07.23zm.71 3.37c.39-1.2.8-2.22 1.22-3.04l.14-.43c.05-.17.14-.26.26-.28.26-.05.5.16.75.62a18 18 0 01.81 1.72c.42-.47.8-1.19 1.14-2.14.04-.13.16-.2.34-.18.18.02.3.08.34.19.13.28.26.82.41 1.62.13.68.32 1.22.58 1.6.1.15.1.28.02.4a.3.3 0 01-.33.1.86.86 0 01-.65-.53c-.04-.1-.11-.34-.2-.73a1.78 1.78 0 00-.28-.72c-.2.1-.51.55-.93 1.34-.27.5-.54.67-.8.51a2.58 2.58 0 01-.32-.6c-.1-.2-.22-.5-.35-.89-.12-.3-.22-.53-.32-.69-.19.2-.35.5-.5.88-.19.55-.3.87-.34.95-.17.34-.32.53-.43.58a.5.5 0 01-.43 0c-.13-.06-.18-.15-.13-.27zm10.26-.16c-.04.1-.23.22-.57.34a2.5 2.5 0 01-1.9.03c-.53-.2-.9-.54-1.08-1.03a2 2 0 01.04-1.46c.16-.4.31-.67.47-.83.2-.19.56-.4 1.11-.62a1.6 1.6 0 011.14 0c.43.13.65.34.67.63.03.58-.22 1.06-.77 1.45-.24.18-.8.45-1.67.83.12.24.38.4.8.47.4.07.78.03 1.12-.12.26-.11.45-.13.58-.06.12.07.14.2.06.38zm-1.1-2.83c-.11-.17-.27-.23-.48-.18-.45.1-.8.35-1.04.72-.22.36-.27.66-.14.89.78-.35 1.2-.54 1.28-.59.48-.26.61-.54.39-.84zm4.94.75c-.02-.3-.05-.58-.1-.84-.05-.36.02-.62.22-.76.28-.2.47-.23.56-.1.07.08.1.28.1.6 0 1.1.01 1.66.02 1.69.17.98.12 1.56-.18 1.72-.21.11-.37.08-.47-.1a1.63 1.63 0 01-.12-.44v-.87c-.05-.1-.58-.13-1.58-.1l-.68.06c0 .37.01.8.05 1.28.01.29-.12.42-.4.4-.27-.01-.41-.11-.43-.3-.07-.74-.1-1.83-.1-3.28l.07-.2c-.01-.24.09-.4.3-.46.22-.08.37 0 .45.21l.08.23c.05.39.06.82.01 1.3.24-.06.6-.08 1.09-.06a3 3 0 00.93.02h.18zm7.12-.77c.15.5.22 1.06.2 1.65 0 .61-.1 1.08-.27 1.42-.24.08-.38.08-.43 0-.16-.25-.22-.73-.19-1.45.03-.66-.04-1.07-.21-1.24-.09-.08-.27-.05-.55.08-.27.13-.45.26-.53.38-.03.16-.04.43 0 .8.03.42.04.72.02.9l-.06.4a.42.42 0 01-.21.3c-.42.2-.63.01-.64-.6l-.03-1.78a1.05 1.05 0 01-.03-.19 1.45 1.45 0 00-.05-.19c-.05-.13-.14-.17-.28-.12-.3.13-.7.42-1.16.89l.07 1.13c.03.46-.07.75-.3.87a.45.45 0 01-.45-.01c-.11-.07-.17-.15-.17-.23.05-1.6.01-2.83-.1-3.68a.31.31 0 01.13-.32c.13-.09.32-.08.58.01.24.09.35.26.31.51-.05.31-.05.5 0 .57.17-.04.44-.2.83-.5.32-.24.62-.34.9-.29.15.02.26.1.34.24.04.06.1.22.18.47.2-.04.4-.15.61-.33.26-.23.43-.36.5-.4.31-.16.54-.19.69-.08.04.03.14.3.3.79zm4.78 2.85c-.04.1-.24.22-.58.34a2.5 2.5 0 01-1.88.03c-.55-.2-.91-.54-1.1-1.03a2 2 0 01.05-1.46c.15-.4.3-.67.47-.83.19-.19.56-.4 1.1-.62.35-.14.74-.14 1.15 0 .42.13.65.34.67.63.03.58-.23 1.06-.77 1.45-.25.18-.8.45-1.67.83.11.24.38.4.8.47.4.07.77.03 1.12-.12.25-.11.45-.13.58-.06.12.07.14.2.06.38zm-1.1-2.83c-.11-.17-.28-.23-.48-.18-.46.1-.8.35-1.04.72-.23.36-.27.66-.14.89.78-.35 1.2-.54 1.27-.59.49-.26.62-.54.4-.84zm-76.77 10.68c.4.43.56.9.5 1.4-.06.52-.33.97-.83 1.35-.5.38-1.1.56-1.77.53a2.58 2.58 0 01-1.63-.58c-.67-.58-.83-1.28-.49-2.11.25-.59.65-.98 1.21-1.16a3.25 3.25 0 011.62-.15c.57.1 1.03.33 1.39.72zm-.96.17c-.3-.17-.69-.23-1.14-.17-.42.05-.75.18-.99.38-.49.4-.65.82-.49 1.27.12.32.4.57.86.75.46.18.93.22 1.4.11.5-.12.82-.46.94-1.04.12-.58-.07-1.01-.58-1.3zm2.32 2.2a5.56 5.56 0 01-.2-1.65c0-.61.1-1.08.27-1.42.24-.08.38-.08.43 0 .16.25.22.73.19 1.45-.03.84.04 1.35.21 1.52.09.08.3.05.63-.08.27-.1.44-.22.52-.35.04-.16.04-.53 0-1.12a5.3 5.3 0 01-.01-.89l.05-.4c.03-.14.1-.24.21-.3.42-.2.63-.01.64.6l.03 1.85.04.19.04.2c.05.13.14.19.28.19.36 0 .72-.15 1.08-.44.01-.03-.01-.6-.06-1.73-.03-.47.07-.75.3-.87.12-.08.26-.08.4 0 .1.08.16.16.16.24.01 1.8.1 2.98.26 3.53.01.14-.03.25-.14.32-.13.09-.3.08-.5 0-.15-.1-.25-.2-.28-.3l-.1-.27c-.23.04-.5.14-.78.28-.33.14-.63.23-.9.28a.67.67 0 01-.35-.09 5.56 5.56 0 01-.18-.47 3.8 3.8 0 01-1.29.55c-.34.09-.58.08-.72-.03-.05-.03-.12-.3-.23-.79zM200.4 113c.17 1.1.11 1.72-.18 1.88-.22.11-.37.08-.47-.1a3.37 3.37 0 01-.12-.8l-.91.56-.98.33a1 1 0 01-.94-.13c-.14-.1-.2-.32-.16-.66l.05-.44c.03-.19.04-.33.04-.42 0-.41-.05-1.1-.18-2.09-.03-.23.07-.37.3-.4.21-.05.37.02.47.18.18.28.24.8.18 1.54-.07.73 0 1.24.19 1.54a4.79 4.79 0 001.93-.85c.02-.42-.02-.94-.12-1.56-.05-.36.02-.62.21-.76.28-.2.47-.23.57-.1.07.09.1.28.1.6 0 1.1.01 1.66.02 1.69zm3.75-1.04c-.21-.15-.53-.18-.95-.11-.43.07-.74.23-.94.48-.36.72-.3 1.23.17 1.53.6.25 1.08.3 1.45.13.44-.19.68-.5.75-.95.07-.45-.1-.81-.48-1.08zm-1.72-2c.3-.1.62-.18 1-.25.36-.07.62-.19.77-.35.05-.03.07-.09.06-.17l-.05-.11c-.06-.23.02-.38.24-.46.16-.06.31-.01.46.13.14.14.2.3.18.5-.04.6-.54 1-1.52 1.2-.18.05-.44.1-.76.2a.86.86 0 00-.63.6l-.06.19c.41-.22.85-.33 1.32-.35a2.3 2.3 0 011.43.38c.3.2.5.47.59.8.08.31.07.64-.03.99a2.1 2.1 0 01-1.47 1.5c-.24.07-.57.1-.98.1a2.5 2.5 0 01-.74-.16 1.58 1.58 0 01-.87-.88 3.11 3.11 0 01-.19-1.53c.06-.59.12-.97.19-1.14.1-.3.23-.54.4-.74.16-.2.38-.34.66-.44zm7.87 4.34c.1.1.1.22.02.4-.08.17-.25.22-.49.15-.34-.11-.7-.42-1.08-.92a3.82 3.82 0 00-1.1-1.05 1.5 1.5 0 00-.6.64l-.02.37v.42c-.02.32-.1.53-.28.64-.14.09-.3.08-.46-.03-.15-.1-.22-.2-.2-.3.1-.59.1-1.53.04-2.81 0-.3.04-.58.1-.85.03-.1.08-.16.16-.21.09-.05.18-.06.28-.05.24.04.36.2.35.5a6.9 6.9 0 00-.02 1.13c.26-.14.58-.37.96-.71.5-.49.82-.8.98-.9.28-.2.53-.22.76-.07.09.06.14.14.16.22.02.09 0 .16-.05.2-.63.5-1.13.93-1.5 1.31l.79.78 1.2 1.14zm4.63.15c.03.09-.02.17-.15.25a.52.52 0 01-.39.07c-.2-.05-.32-.14-.38-.27a7.77 7.77 0 00-.1-.47c-.26.35-.57.59-.92.71-.61.23-1.17.24-1.68.03-.35-.15-.52-.4-.53-.75-.02-.32.1-.62.36-.88.46-.47 1.35-.79 2.66-.95.09-.3.08-.51-.02-.63-.05-.07-.2-.15-.46-.24s-.56-.05-.9.12c-.28.15-.54.35-.77.61a.56.56 0 01-.54.2c-.2-.03-.3-.12-.27-.26.07-.4.6-.81 1.6-1.24a1.79 1.79 0 011.76.12c.32.21.48.44.5.67 0 .1 0 .23-.03.4l-.04.42c-.03.75.07 1.45.3 2.1zm-1.28-1.48c-.21-.03-.4-.03-.58 0a5 5 0 00-1.1.37c-.3.18-.36.43-.2.75.22.1.48.1.76 0 .58-.17.95-.54 1.12-1.12zm2.84-.08c.09.12.12.34.09.64s-.09.52-.19.65l-.12.49c-.07.32-.1.49-.12.5-.1.22-.24.32-.42.3-.15 0-.24-.05-.27-.13a1.3 1.3 0 01.03-.82c.07-.23.1-.54.1-.93-.01-.36 0-.58.05-.66.08-.13.21-.2.4-.21.22-.02.36.03.45.17zm8.07 1.54c-.1.27-.58.47-1.43.62-.4.07-.8 0-1.16-.2-.35-.19-.6-.45-.73-.77a2.27 2.27 0 01-.12-1.3c.08-.44.27-.84.57-1.2.53-.63 1.11-.85 1.75-.69.56.15.9.63 1.01 1.43.02.12-.04.2-.16.25-.14.05-.3 0-.45-.16l-.34-.52c-.15-.23-.31-.35-.5-.36-.35-.01-.67.32-.93 1-.29.76-.17 1.3.34 1.63.39.24.91.29 1.58.14.28-.07.45-.1.5-.1.1.01.13.09.07.23zm6.2-2.78c.15.5.22 1.06.2 1.65 0 .61-.1 1.08-.27 1.42-.23.08-.38.08-.43 0-.16-.25-.22-.73-.19-1.45.03-.66-.04-1.07-.21-1.24-.09-.08-.27-.05-.55.08-.27.13-.45.26-.53.39a3.4 3.4 0 000 .8c.03.41.04.7.02.89l-.05.4a.42.42 0 01-.22.3c-.41.2-.63.01-.64-.6l-.03-1.78-.03-.19a1.33 1.33 0 00-.05-.19c-.05-.13-.14-.17-.28-.12-.3.13-.69.42-1.15.89 0 .03.01.4.06 1.13.03.47-.07.75-.3.87a.48.48 0 01-.45 0c-.11-.08-.17-.16-.17-.24.05-1.6.01-2.83-.1-3.68-.01-.14.03-.25.13-.32.13-.08.32-.08.58.01.24.09.35.26.31.51-.05.31-.04.5.01.57.16-.04.43-.2.82-.5.32-.24.62-.33.9-.29.15.03.26.1.35.25.03.05.09.21.17.46.2-.04.41-.15.61-.33.26-.22.43-.36.5-.4.32-.16.54-.19.69-.08.04.03.14.3.3.79zm5.52.04c.4.43.57.9.5 1.4-.05.52-.33.97-.82 1.35-.5.38-1.1.56-1.78.53a2.59 2.59 0 01-1.63-.58c-.67-.58-.83-1.28-.48-2.11.25-.59.65-.98 1.2-1.16a3.25 3.25 0 011.62-.15c.58.1 1.04.33 1.4.72zm-.95.17c-.31-.17-.7-.23-1.15-.17-.41.05-.74.18-.98.38-.5.4-.66.82-.5 1.27.12.32.4.57.87.75.46.18.93.22 1.4.11.5-.12.81-.46.93-1.04.12-.58-.07-1.01-.57-1.3zm5.95 1.14c.18 1.1.12 1.72-.18 1.88-.2.11-.36.08-.46-.1a3.37 3.37 0 01-.12-.8l-.91.56-.99.33a.99.99 0 01-.93-.13c-.14-.1-.2-.32-.16-.66l.05-.44.03-.42c.01-.41-.05-1.1-.17-2.09-.03-.23.07-.37.3-.4.21-.05.37.02.47.18.17.28.23.8.17 1.54-.06.73 0 1.24.2 1.54a4.79 4.79 0 001.93-.85c.02-.42-.02-.94-.12-1.56-.05-.36.02-.62.21-.76.28-.2.47-.23.57-.1.07.09.1.28.1.6l.01 1.69zm6.33-1.35c.15.5.22 1.06.21 1.65-.01.61-.1 1.08-.28 1.42-.23.08-.38.08-.43 0-.16-.25-.22-.73-.19-1.45.03-.66-.04-1.07-.21-1.24-.09-.08-.27-.05-.55.08-.27.13-.45.26-.53.39a3.1 3.1 0 000 .8c.03.41.04.7.02.89l-.05.4a.42.42 0 01-.22.3c-.41.2-.63.01-.63-.6l-.03-1.78a1.1 1.1 0 01-.04-.19 1.45 1.45 0 00-.05-.19c-.04-.13-.14-.17-.28-.12-.3.13-.69.42-1.15.89 0 .03.01.4.06 1.13.03.47-.06.75-.3.87a.48.48 0 01-.45 0c-.1-.08-.16-.16-.16-.24.04-1.6 0-2.83-.1-3.68-.02-.14.02-.25.13-.32.12-.08.32-.08.57.01.25.09.35.26.31.51-.05.31-.04.5.01.57.16-.04.43-.2.82-.5.32-.24.63-.33.9-.29.15.03.26.1.35.25l.18.46c.2-.04.4-.15.6-.33.26-.22.43-.36.5-.4.32-.16.55-.19.69-.08.04.03.15.3.3.79zM184.6 123.3c-.12-.8-.07-1.3.15-1.5.2-.11.37-.11.49.01l.11.3.91-.35 1-.32a.98.98 0 01.92.12c.14.1.2.33.17.67l-.05.44a3.5 3.5 0 00-.04.42c-.01.4.05 1.1.18 2.08.03.24-.07.37-.3.41-.22.04-.38-.02-.47-.18-.18-.3-.24-.8-.18-1.55.06-.73 0-1.24-.2-1.53-.92.09-1.56.3-1.93.62-.01.57.03 1.16.13 1.78.05.37-.03.62-.22.77-.28.2-.47.23-.57.1-.07-.09-.1-.29-.1-.6v-1.7zm8.93-.95c.4.43.56.9.5 1.4-.06.53-.33.97-.82 1.35-.5.38-1.1.56-1.78.53a2.58 2.58 0 01-1.63-.58c-.67-.58-.83-1.28-.49-2.1.25-.6.65-.98 1.21-1.17a3.25 3.25 0 011.62-.15c.57.1 1.04.33 1.4.72zm-.96.18c-.3-.18-.69-.24-1.14-.18-.42.05-.75.18-.99.38-.49.4-.65.82-.49 1.27.12.32.4.57.86.75.47.18.93.22 1.4.11.5-.12.82-.46.94-1.04.12-.58-.07-1.01-.58-1.3zm2.2.77c-.11-.8-.06-1.3.16-1.5.2-.11.37-.11.49.01.04.07.08.17.11.3l.92-.35.98-.32a.99.99 0 01.94.12c.13.1.19.33.16.67l-.05.44a3.5 3.5 0 00-.04.42c-.01.4.05 1.1.18 2.08.03.24-.07.37-.3.41-.22.04-.38-.02-.47-.18-.18-.3-.24-.8-.18-1.55.06-.73 0-1.24-.2-1.53-.92.09-1.56.3-1.93.62-.01.57.03 1.16.13 1.78.05.37-.02.62-.22.77-.28.2-.47.23-.57.1-.07-.09-.1-.29-.1-.6v-1.7zm8.19-1.25c.3.2.5.47.59.81.08.3.07.64-.03.99a2.07 2.07 0 01-2.45 1.52 26.3 26.3 0 00-.77-.09c-.05.14-.07.4-.07.8 0 .47-.03.8-.07 1l-.08.48a.56.56 0 01-.3.33c-.09.05-.2.01-.3-.13-.12-.13-.17-.25-.16-.35a25 25 0 00-.1-5.54c-.02-.14.06-.24.25-.32a.7.7 0 01.47-.05c.1.03.16.1.2.2l.02.3c.44-.2.9-.3 1.37-.32.57-.02 1.05.1 1.43.37zm-.72.5c-.21-.15-.53-.19-.95-.11-.43.07-.79.23-1.08.48-.12.67-.09 1.18.08 1.53.76.24 1.31.28 1.68.12.44-.18.68-.5.75-.95.07-.45-.1-.8-.48-1.07zm6.04 2.56c.03.09-.02.17-.15.25a.52.52 0 01-.39.07c-.2-.05-.32-.14-.38-.26a7.62 7.62 0 00-.1-.47c-.26.34-.57.58-.92.7a2.2 2.2 0 01-1.68.03c-.34-.15-.52-.4-.53-.75-.02-.32.1-.62.36-.88.46-.47 1.35-.79 2.66-.95.09-.3.08-.5-.02-.63-.05-.07-.2-.15-.45-.23-.27-.1-.57-.06-.9.11-.3.15-.55.35-.78.61a.56.56 0 01-.54.2c-.2-.03-.3-.12-.27-.26.07-.4.6-.81 1.6-1.24a1.79 1.79 0 011.76.12c.32.22.48.44.5.67 0 .1 0 .23-.03.4l-.04.42a5.3 5.3 0 00.3 2.1zm-1.28-1.48c-.21-.03-.4-.03-.58 0-.58.16-.94.28-1.1.37-.3.19-.36.43-.2.75.22.11.48.1.76 0 .58-.17.95-.54 1.12-1.12zm4.85-1.05c-.22-.14-.54-.18-.96-.1-.42.07-.74.23-.93.48-.36.72-.31 1.23.16 1.52.6.27 1.09.3 1.45.13.44-.18.69-.5.75-.95.07-.45-.09-.8-.47-1.08zm-.25-1.92c-.12-.16-.28-.22-.49-.18-.45.1-.8.33-1.04.65-.22.36-.27.66-.14.88.25-.19.68-.33 1.28-.43.48-.36.61-.66.4-.92zm.34 1.14c.23.06.44.16.62.29.3.2.5.47.59.8.08.31.08.65 0 1a2.1 2.1 0 01-1.44 1.55 3.26 3.26 0 01-1.84-.02 1.52 1.52 0 01-.81-.9 3.57 3.57 0 01-.18-1.53 8.06 8.06 0 01.3-1.71c.16-.4.32-.67.49-.82.18-.2.55-.4 1.1-.58.34-.13.72-.12 1.13.01.43.14.65.35.67.64.03.48-.18.9-.63 1.27zm5.83 1.87c.18 1.09.12 1.7-.17 1.87-.22.11-.37.08-.47-.1a3.37 3.37 0 01-.12-.8l-.91.56-.99.33a.99.99 0 01-.93-.13c-.14-.1-.2-.32-.16-.66l.05-.44.04-.42c0-.41-.05-1.1-.18-2.09-.03-.23.07-.37.3-.4.21-.05.37.02.47.18.18.29.24.8.18 1.54-.07.73 0 1.25.19 1.54a4.79 4.79 0 001.93-.85c.02-.42-.02-.94-.12-1.56-.05-.36.02-.62.21-.76.28-.2.47-.23.57-.1.07.09.1.29.1.6l.01 1.69zm6.33-1.36c.15.51.22 1.06.21 1.66-.01.6-.1 1.08-.28 1.41-.23.09-.38.09-.43 0-.16-.25-.22-.73-.18-1.44.03-.67-.05-1.08-.22-1.25-.08-.08-.27-.05-.55.08-.27.13-.44.26-.52.39-.04.16-.04.42-.01.8.03.41.04.7.02.89l-.05.4a.4.4 0 01-.22.3c-.41.2-.62.01-.63-.6l-.03-1.78a1.13 1.13 0 01-.04-.18 1.41 1.41 0 00-.04-.2c-.05-.13-.15-.17-.28-.12-.31.13-.7.42-1.16.89l.07 1.13c.03.47-.07.75-.3.87a.45.45 0 01-.45 0c-.12-.08-.17-.15-.17-.24.04-1.6 0-2.83-.1-3.68-.02-.14.02-.25.13-.31.13-.1.32-.1.57 0 .25.1.35.26.32.51-.05.31-.05.5 0 .57a3 3 0 00.83-.5c.32-.24.62-.33.9-.29.14.03.26.1.34.25l.18.46c.2-.04.4-.15.6-.33l.5-.4c.32-.16.55-.19.7-.08.03.03.14.3.3.8zm4.32 1.95c-.04-.47-.45-.67-1.2-.6-.37.02-.67.1-.92.22a.53.53 0 00-.1.57c.02.21.17.34.44.4.36.1.69.12 1 .06.5-.13.77-.34.78-.65zm-3.17.55l-.05-.45c0-.07 0-.15.02-.22l.02-.56c0-.4.03-.97.06-1.7-.03-.24.07-.38.3-.41.13-.04.24.02.34.18.12.38.16.83.11 1.36l-.02.23.3-.16c.3-.15.7-.2 1.2-.18l.64.09c.17.04.33.1.5.17.16.07.29.17.39.3.1.15.19.32.25.53.13.6-.15 1.06-.84 1.38a4.22 4.22 0 01-2.54.1c-.4-.14-.62-.35-.68-.66z" fill="#fff"/></g></g><rect x=".5" y=".5" width="325" height="199" rx="11.5" stroke="#F7F7F8"/><defs><clipPath id="a"><rect width="326" height="200" rx="12" fill="#fff"/></clipPath><clipPath id="b"><path fill="#fff" transform="translate(24 19)" d="M0 0h278v161H0z"/></clipPath></defs></svg>