<svg width="1312" height="208" fill="none" xmlns="http://www.w3.org/2000/svg"><g clip-path="url(#a)"><path fill="#fff" d="M-136-341h1584v890H-136z"/><path d="M-136-341h1584v890H-136v-890z" fill="#6F4AB3"/><path d="M750.68 26.58L712 489h292V22H755.67a5 5 0 00-4.99 4.58z" fill="#000"/><path d="M755 69a3 3 0 013-3h246v423H755V69z" fill="#6F4AB3"/><path fill-rule="evenodd" clip-rule="evenodd" d="M827.72 112.71c-.3.13-.75.29-1.22.29a2.21 2.21 0 01-1.98-1.2c-.3-.55-.38-1.2-.42-1.7-.04-.66 0-1.53.04-2.34l.05-1.05a7.13 7.13 0 00-.27-2.65.89.89 0 00-.3-.42c-.07-.05-.24-.14-.62-.14-.05 0-.33.04-.9.43-.54.36-1.18.92-1.91 1.68a53.82 53.82 0 00-4.84 6.07 169.7 169.7 0 00-9.04 14.55 1.5 1.5 0 01-2.62-1.46c2.18-3.94 5.71-9.87 9.21-14.82a56.63 56.63 0 015.13-6.42c.8-.84 1.61-1.56 2.38-2.08.75-.5 1.64-.95 2.59-.95a4 4 0 012.34.68 3.84 3.84 0 011.35 1.73c.5 1.22.53 2.7.5 3.88l-.06 1.37a20.4 20.4 0 00-.04 1.53l.28-.16a43.1 43.1 0 002.62-1.67c.99-.66 2.09-1.42 3.27-2.25l.2-.14c1.26-.87 2.6-1.8 3.95-2.71a74.89 74.89 0 017.97-4.84c1.22-.6 2.41-1.1 3.5-1.37a5.03 5.03 0 013.23.08c1.34.6 1.72 1.96 1.81 3.03.1 1.12-.08 2.48-.38 3.9a70.63 70.63 0 01-3.2 9.92c-1.32 3.4-2.76 6.77-3.9 9.4l-.1.25-.92 2.15c.77-.33 1.65-.68 2.53-.96 1.42-.45 3.2-.83 4.78-.37a4.2 4.2 0 012.2 1.51c.58.77.92 1.73 1.06 2.85a8.04 8.04 0 01-.89 4.24 22 22 0 01-2.47 3.98 30.68 30.68 0 01-2.92 3.31c-.9.87-1.82 1.64-2.54 2a1.5 1.5 0 01-1.34-2.68c.28-.14.92-.62 1.79-1.47.83-.8 1.76-1.85 2.63-2.97a19.04 19.04 0 002.13-3.43 5.2 5.2 0 00.63-2.6c-.1-.76-.3-1.19-.47-1.42a1.19 1.19 0 00-.65-.44c-.67-.2-1.7-.07-3.04.35-1 .32-1.98.74-2.86 1.12l-.74.32c-.49.2-1.03.42-1.49.51a2.1 2.1 0 01-1.11-.03 1.67 1.67 0 01-1.15-1.6c0-.25.06-.48.09-.6a24.84 24.84 0 01.57-1.59c.35-.86.85-2.03 1.42-3.36l.1-.23c1.14-2.65 2.56-5.98 3.86-9.32a67.95 67.95 0 003.06-9.47c.29-1.32.39-2.34.33-3.03a1.75 1.75 0 00-.1-.55 2.79 2.79 0 00-1.23.11c-.78.2-1.75.59-2.89 1.15a71.92 71.92 0 00-7.62 4.63c-1.34.9-2.66 1.82-3.91 2.7l-.22.14c-1.17.82-2.29 1.6-3.3 2.27a45.88 45.88 0 01-2.81 1.8c-.4.22-.78.41-1.13.56zM850.8 99.3l.01.02v-.02zm-7.64 26.9c-.04 0-.03 0 0 0zm1.34 1.48v.02-.02zm-14-.68c.83 0 1.5.67 1.5 1.5v3a1.5 1.5 0 01-3 0v-3c0-.83.67-1.5 1.5-1.5zm-16.5 3c.83 0 1.5.67 1.5 1.5v3.5a1.5 1.5 0 01-3 0v-3.5c0-.83.67-1.5 1.5-1.5zm9.72 2.68c.73.4 1 1.31.6 2.04-.47.85-1.12 2.26-1.56 3.66-.22.7-.38 1.37-.43 1.94-.06.59 0 .94.06 1.12.04.1.3.44 1.54.5a11.1 11.1 0 003.18-.39 1.5 1.5 0 11.78 2.9c-1 .27-2.6.56-4.1.49-1.35-.07-3.42-.47-4.18-2.38a5.43 5.43 0 01-.27-2.55c.09-.83.3-1.7.55-2.52a24.9 24.9 0 011.8-4.2c.39-.74 1.3-1 2.03-.6zm-16.5 6.34a1.5 1.5 0 011.75 1.2c.65 3.5 2.1 8.73 4.27 13.04a19.7 19.7 0 003.67 5.3c1.34 1.3 2.7 1.94 4.09 1.94 3.39 0 6.63-1.42 9.38-3.3a26.07 26.07 0 005.91-5.59 1.5 1.5 0 012.42 1.78 29.1 29.1 0 01-6.64 6.28c-3.02 2.08-6.86 3.83-11.07 3.83-2.4 0-4.47-1.14-6.17-2.77a22.57 22.57 0 01-4.27-6.12 55.46 55.46 0 01-4.53-13.84 1.5 1.5 0 011.2-1.75zm12.45 39.5c14.92-5.18 31.84-6.44 42.89-6.02a1.5 1.5 0 11-.12 3c-10.79-.41-27.31.83-41.79 5.85-14.5 5.05-26.52 13.72-29.17 27.93a1.5 1.5 0 01-2.96-.56c2.96-15.8 16.27-25.03 31.15-30.2z" fill="#fff"/><path d="M755 26h23v22h-23V26zm27 0h25v22h-25V26zm28 0h25v22h-25V26zm28 0h166v22H838V26z" fill="#fff"/><path fill-rule="evenodd" clip-rule="evenodd" d="M880 81h-99v139h99V81zm-99-3a3 3 0 00-3 3v139a3 3 0 003 3h99a3 3 0 003-3V81a3 3 0 00-3-3h-99z" fill="#fff"/><path d="M865.58 133.46L827 489h292V129H870.55a5 5 0 00-4.97 4.46z" fill="#000"/><path d="M870 166a3 3 0 013-3h246v326H870V166z" fill="#6F4AB3"/><path fill-rule="evenodd" clip-rule="evenodd" d="M917 203c0-.83.67-1.5 1.5-1.5h59a1.5 1.5 0 010 3h-59a1.5 1.5 0 01-1.5-1.5zm22 16.5c0-.83.67-1.5 1.5-1.5H989a1.5 1.5 0 010 3h-48.5a1.5 1.5 0 01-1.5-1.5zm-17 21c0-.83.67-1.5 1.5-1.5h46a1.5 1.5 0 010 3h-46a1.5 1.5 0 01-1.5-1.5zm0 20c0-.83.67-1.5 1.5-1.5h28a1.5 1.5 0 010 3h-28a1.5 1.5 0 01-1.5-1.5zm9 19.5c0-.83.67-1.5 1.5-1.5h32a1.5 1.5 0 010 3h-32a1.5 1.5 0 01-1.5-1.5zm-7 90.5c0-.83.67-1.5 1.5-1.5H959a1.5 1.5 0 010 3h-33.5a1.5 1.5 0 01-1.5-1.5zm15 13.5c0-.83.67-1.5 1.5-1.5H962a1.5 1.5 0 010 3h-21.5a1.5 1.5 0 01-1.5-1.5z" fill="#000"/><path d="M233-66a10 10 0 0110-10h435a10 10 0 0110 10v406a10 10 0 01-10 10H243a10 10 0 01-10-10V-66z" fill="#000"/><path d="M233-54h433v384H233V-54z" fill="#6F4AB3"/><path fill-rule="evenodd" clip-rule="evenodd" d="M520.99 67.31a1.5 1.5 0 01-1.3 1.68l-8 1a1.5 1.5 0 11-.38-2.98l8-1a1.5 1.5 0 011.68 1.3zm4.65 9.22a1.5 1.5 0 01-.17 2.11l-6.5 5.5a1.5 1.5 0 01-1.94-2.29l6.5-5.5a1.5 1.5 0 012.12.18zm27.7 2.51a1.5 1.5 0 012.12-.2l9 7.5a1.5 1.5 0 11-1.92 2.31l-9-7.5a1.5 1.5 0 01-.2-2.11zm-6.95 4.09a1.5 1.5 0 011.98.76l4 9a1.5 1.5 0 01-2.74 1.22l-4-9a1.5 1.5 0 01.76-1.98zm-11.5.92a1.5 1.5 0 011.06 1.84l-2 7.5a1.5 1.5 0 11-2.9-.78l2-7.5a1.5 1.5 0 011.84-1.06zm-5.01-20a1.5 1.5 0 011.07 1.83c-.42 1.62-.46 4.46.49 7.16.93 2.64 2.76 5 6.01 6.03 3.22 1.02 5.85.1 7.99-1.55a19.69 19.69 0 004.76-5.76 1.5 1.5 0 112.6 1.48 22.66 22.66 0 01-5.54 6.66c-2.7 2.08-6.33 3.41-10.71 2.03-4.35-1.37-6.77-4.6-7.94-7.9a16.23 16.23 0 01-.56-8.9 1.5 1.5 0 011.83-1.08z" fill="#fff"/><path d="M870 134h23v23h-23v-23zm27 0h25v23h-25v-23z" fill="#fff"/><path fill-rule="evenodd" clip-rule="evenodd" d="M1008 187H890v268h118V187zm-118-3a3 3 0 00-3 3v268a3 3 0 003 3h118a3 3 0 003-3V187a3 3 0 00-3-3H890z" fill="#fff"/><path d="M926 134h78v23h-78v-23z" fill="#fff"/><path d="M302 89h221v121H302V89z" fill="#6F4AB3"/><path fill-rule="evenodd" clip-rule="evenodd" d="M518 99H303v115h215V99zm-218-3v121h221V96H300z" fill="#000"/><path d="M288 78h225v115H288V78z" fill="#6F4AB3"/><path fill-rule="evenodd" clip-rule="evenodd" d="M508 88H289v109h219V88zm-222-3v115h225V85H286zm444 4L574 15l1.29-2.71 156 74L730 89zm.82 8L642 166l-1.84-2.37 88.82-69 1.84 2.37z" fill="#fff"/><path fill-rule="evenodd" clip-rule="evenodd" d="M730 104L568.86 27.86l1.28-2.72 161.14 76.15L730 104zm14.24-.3L645 181l-1.84-2.37 99.24-77.3 1.84 2.36z" fill="#fff"/><path d="M751 98a15 15 0 11-30 0 15 15 0 0130 0z" fill="#fff"/><path d="M739 98a3 3 0 11-6 0 3 3 0 016 0z" fill="#000"/><path d="M654 174a15 15 0 11-30 0 15 15 0 0130 0z" fill="#fff"/><path d="M642 174a3 3 0 11-6 0 3 3 0 016 0z" fill="#000"/><path fill-rule="evenodd" clip-rule="evenodd" d="M630 212v-28h3v28h-3zm15 0v-28h3v28h-3z" fill="#fff"/><path d="M578 82.5l-74-24.53c5.46-22.92 23.22-28.29 32.5-28.97 7.88-13.3 19.28-41.81 33.66-37.54 12.08 3.58 4.67 32.85 1.34 48.54 10.5 8.5 11 31 6.5 42.5z" fill="#000"/><path fill-rule="evenodd" clip-rule="evenodd" d="M556.49 5.08a1.5 1.5 0 01.93 1.9c-.81 2.36-2.6 6.6-4.25 10.54l-.26.62c-.87 2.08-1.7 4.05-2.33 5.63-.32.79-.58 1.47-.78 2-.2.58-.3.9-.33 1.02a1.5 1.5 0 01-2.94-.58c.07-.38.25-.9.45-1.46.21-.58.5-1.3.81-2.1.65-1.6 1.48-3.6 2.35-5.67l.23-.55c1.69-4.01 3.43-8.17 4.21-10.42a1.5 1.5 0 011.9-.93zm7.56 2.02a1.5 1.5 0 01.85 1.95c-1.86 4.72-6.68 17.15-7.46 19.86a1.5 1.5 0 11-2.88-.82c.82-2.9 5.73-15.52 7.54-20.14a1.5 1.5 0 011.95-.85zm6.8 1.94c.8.19 1.3 1 1.11 1.8-.6 2.6-2.19 7.21-3.69 11.4-.74 2.07-1.47 4.05-2.06 5.66-.61 1.68-1.09 2.97-1.29 3.57a1.5 1.5 0 11-2.84-.94c.2-.64.7-2 1.35-3.75.6-1.62 1.3-3.56 2.02-5.56 1.51-4.22 3.03-8.66 3.59-11.06.19-.8 1-1.3 1.8-1.12z" fill="#6F4AB3"/><path d="M604.5-66c-15.6 2.8-21.83 3.17-23 3C588-20 608 0 616.5.5s56-13.5 57-16.5-4-5-10.5-12-20-42-22.5-43.5-16.5 2-36 5.5z" fill="#fff"/><path d="M681 237h-88c4-10.5 19.1-31.5 47.5-31.5s38.83 21 40.5 31.5z" fill="#000"/><path fill-rule="evenodd" clip-rule="evenodd" d="M592.07 236.64c4.08-10.73 19.47-32.14 48.43-32.14 29.05 0 39.77 21.53 41.49 32.34l.18 1.16h-90.62l.52-1.36zm2.42-.64h85.31c-2.17-10.5-12.56-29.5-39.3-29.5-26.66 0-41.38 18.89-46.01 29.5z" fill="#6F4AB3"/><path d="M904 202.5a3.5 3.5 0 11-7 0 3.5 3.5 0 017 0z" fill="#000"/><path fill-rule="evenodd" clip-rule="evenodd" d="M385 121.5c.83 0 1.5.67 1.5 1.5v5.5a1.5 1.5 0 01-3 0V123c0-.83.67-1.5 1.5-1.5zm13 0c.83 0 1.5.67 1.5 1.5v22.88l11.94-11.94a1.5 1.5 0 012.12 2.12l-8.19 8.19 12.7 12.69a1.5 1.5 0 01-2.13 2.12l-12.69-12.69-3.75 3.75V158a1.5 1.5 0 01-3 0v-35c0-.83.67-1.5 1.5-1.5zm-41.5 1.5c.83 0 1.5.67 1.5 1.5v32h16.5a1.5 1.5 0 010 3H355v-35c0-.83.67-1.5 1.5-1.5zm64 23.44c.27-6.27 4.44-12.94 12.5-12.94 2.51 0 4.51.63 6.07 1.74a9.38 9.38 0 013.19 4.12c1.24 2.96 1.24 6.34 1.24 8.07V149h-19.87a9.86 9.86 0 001.84 4.5c1.37 1.77 3.49 3 6.53 3 4.95 0 7.48-2.2 8.71-4.27a1.5 1.5 0 012.58 1.54c-1.77 2.94-5.25 5.73-11.29 5.73-3.96 0-6.96-1.65-8.9-4.18a13.37 13.37 0 01-2.6-7.76v-.04c-.02-.36-.01-.72 0-1.09zm3.04-.44h16.94a15.7 15.7 0 00-.99-5.48 6.4 6.4 0 00-2.16-2.84 7.26 7.26 0 00-4.33-1.18c-5.72 0-9.03 4.49-9.46 9.5zM385 134.5c.83 0 1.5.67 1.5 1.5v22a1.5 1.5 0 01-3 0v-22c0-.83.67-1.5 1.5-1.5z" fill="#000"/><path fill-rule="evenodd" clip-rule="evenodd" d="M1448-341H-136v890h1584v-890zM521-222.5v67H330.5v59H392V-28h-61.5v64H392v67.5h-61.5V171H264v192.5h58v58h70v68h592.5v-129H920V294h64.5v-57.5h65.5V172h-71v-67.5h-59V36h64.5v-62h65.5v-70.5H855V-152h-64.5v-70.5H521z" fill="#fff"/><path fill-rule="evenodd" clip-rule="evenodd" d="M183.5-287c0-.83.67-1.5 1.5-1.5h936.5a1.5 1.5 0 110 3H185a1.5 1.5 0 01-1.5-1.5zm-95 63c0-.83.67-1.5 1.5-1.5h1136a1.5 1.5 0 110 3H90a1.5 1.5 0 01-1.5-1.5zm-53 71c0-.83.67-1.5 1.5-1.5h486a1.5 1.5 0 010 3H37a1.5 1.5 0 01-1.5-1.5zm753 0c0-.83.67-1.5 1.5-1.5h486a1.5 1.5 0 110 3H790a1.5 1.5 0 01-1.5-1.5zm-791 57c0-.83.67-1.5 1.5-1.5h394a1.5 1.5 0 010 3H-1A1.5 1.5 0 01-2.5-96zm855 0c0-.83.67-1.5 1.5-1.5h450a1.5 1.5 0 110 3H854a1.5 1.5 0 01-1.5-1.5zm-877 69c0-.83.67-1.5 1.5-1.5h416a1.5 1.5 0 010 3H-23a1.5 1.5 0 01-1.5-1.5zm1005 0c0-.83.67-1.5 1.5-1.5h345a1.5 1.5 0 110 3H982a1.5 1.5 0 01-1.5-1.5zm-1008 64c0-.83.67-1.5 1.5-1.5h419a1.5 1.5 0 010 3H-26a1.5 1.5 0 01-1.5-1.5zm948 0c0-.83.67-1.5 1.5-1.5h415a1.5 1.5 0 110 3H922a1.5 1.5 0 01-1.5-1.5zm0 67c0-.83.67-1.5 1.5-1.5h419a1.5 1.5 0 110 3H922a1.5 1.5 0 01-1.5-1.5zM-48 104c0-.83.67-1.5 1.5-1.5H393a1.5 1.5 0 010 3H-46.5A1.5 1.5 0 01-48 104zm12.5 67c0-.83.67-1.5 1.5-1.5h365a1.5 1.5 0 010 3H-34a1.5 1.5 0 01-1.5-1.5zm1016 0c0-.83.67-1.5 1.5-1.5h359a1.5 1.5 0 110 3H982a1.5 1.5 0 01-1.5-1.5zm0 65c0-.83.67-1.5 1.5-1.5h334a1.5 1.5 0 110 3H982a1.5 1.5 0 01-1.5-1.5zm-1005 2c0-.83.67-1.5 1.5-1.5h288a1.5 1.5 0 010 3H-23a1.5 1.5 0 01-1.5-1.5zm945 55c0-.83.67-1.5 1.5-1.5h376a1.5 1.5 0 110 3H922a1.5 1.5 0 01-1.5-1.5zm-931 7c0-.83.67-1.5 1.5-1.5h274a1.5 1.5 0 010 3H-9a1.5 1.5 0 01-1.5-1.5zm664.5 3c0-.83.67-1.5 1.5-1.5h128a1.5 1.5 0 010 3h-128a1.5 1.5 0 01-1.5-1.5zm262.5 57c0-.83.67-1.5 1.5-1.5h376a1.5 1.5 0 110 3H918a1.5 1.5 0 01-1.5-1.5zm-883 3c0-.83.67-1.5 1.5-1.5h289a1.5 1.5 0 010 3H35a1.5 1.5 0 01-1.5-1.5zm557 7c0-.83.67-1.5 1.5-1.5h138a1.5 1.5 0 010 3H592a1.5 1.5 0 01-1.5-1.5zm-516 52c0-.83.67-1.5 1.5-1.5h317a1.5 1.5 0 010 3H76a1.5 1.5 0 01-1.5-1.5zm907 2c0-.83.67-1.5 1.5-1.5h225a1.5 1.5 0 110 3H983a1.5 1.5 0 01-1.5-1.5zm-457 8c0-.83.67-1.5 1.5-1.5h256a1.5 1.5 0 010 3H526a1.5 1.5 0 01-1.5-1.5zm-450 57c0-.83.67-1.5 1.5-1.5h1156a1.5 1.5 0 110 3H76a1.5 1.5 0 01-1.5-1.5zM72-12.5c.83 0 1.5.67 1.5 1.5v39a1.5 1.5 0 01-3 0v-39c0-.83.67-1.5 1.5-1.5z" fill="#6F4AB3"/><path fill-rule="evenodd" clip-rule="evenodd" d="M268 35.5c.83 0 1.5.67 1.5 1.5v67a1.5 1.5 0 01-3 0V37c0-.83.67-1.5 1.5-1.5zm-131 0c.83 0 1.5.67 1.5 1.5v67a1.5 1.5 0 01-3 0V37c0-.83.67-1.5 1.5-1.5zm-131 0c.83 0 1.5.67 1.5 1.5v67a1.5 1.5 0 01-3 0V37c0-.83.67-1.5 1.5-1.5zm66 67c.83 0 1.5.67 1.5 1.5v67a1.5 1.5 0 01-3 0v-67c0-.83.67-1.5 1.5-1.5zm-66 67c.83 0 1.5.67 1.5 1.5v67a1.5 1.5 0 01-3 0v-67c0-.83.67-1.5 1.5-1.5zm131 15c.83 0 1.5.67 1.5 1.5v38a1.5 1.5 0 01-3 0v-38c0-.83.67-1.5 1.5-1.5zm69-82c.83 0 1.5.67 1.5 1.5v67a1.5 1.5 0 01-3 0v-67c0-.83.67-1.5 1.5-1.5zm-4-130c.83 0 1.5.67 1.5 1.5v63a1.5 1.5 0 01-3 0v-63c0-.83.67-1.5 1.5-1.5zm910 9c.83 0 1.5.67 1.5 1.5v54a1.5 1.5 0 11-3 0v-54c0-.83.67-1.5 1.5-1.5zm-129-10c.83 0 1.5.67 1.5 1.5v64a1.5 1.5 0 01-3 0v-64c0-.83.67-1.5 1.5-1.5zm-62 64c.83 0 1.5.67 1.5 1.5v67a1.5 1.5 0 01-3 0V37c0-.83.67-1.5 1.5-1.5zm59 68c.83 0 1.5.67 1.5 1.5v67a1.5 1.5 0 01-3 0v-67c0-.83.67-1.5 1.5-1.5zm64-57c.83 0 1.5.67 1.5 1.5v44a1.5 1.5 0 11-3 0V48c0-.83.67-1.5 1.5-1.5zm66 56c.83 0 1.5.67 1.5 1.5v66a1.5 1.5 0 11-3 0v-66c0-.83.67-1.5 1.5-1.5zm130 0c.83 0 1.5.67 1.5 1.5v66a1.5 1.5 0 11-3 0v-66c0-.83.67-1.5 1.5-1.5zm-63 68c.83 0 1.5.67 1.5 1.5v64a1.5 1.5 0 11-3 0v-64c0-.83.67-1.5 1.5-1.5zm128 8c.83 0 1.5.67 1.5 1.5v38a1.5 1.5 0 11-3 0v-38c0-.83.67-1.5 1.5-1.5zm-131-143c.83 0 1.5.67 1.5 1.5v67a1.5 1.5 0 11-3 0V37c0-.83.67-1.5 1.5-1.5zm129 0c.83 0 1.5.67 1.5 1.5v67a1.5 1.5 0 11-3 0V37c0-.83.67-1.5 1.5-1.5zM496.83-273.25c.7.46.88 1.4.42 2.08l-9 13.5a1.5 1.5 0 11-2.5-1.66l9-13.5a1.5 1.5 0 012.08-.42zm14.01 64.01c.69.47.87 1.4.4 2.08l-8.5 12.5a1.5 1.5 0 11-2.48-1.68l8.5-12.5a1.5 1.5 0 012.08-.4zm565.51 0c.68.47.86 1.4.39 2.09l-6.5 9.5a1.5 1.5 0 01-2.48-1.7l6.5-9.5a1.5 1.5 0 012.09-.39zm-579.75 6.87a1.5 1.5 0 01.77 1.97l-9 20.5a1.5 1.5 0 11-2.74-1.2l9-20.5a1.5 1.5 0 011.97-.77zm380.52 56a1.5 1.5 0 01.75 2l-5 11a1.5 1.5 0 11-2.74-1.25l5-11a1.5 1.5 0 012-.75zm12.57 5.54a1.5 1.5 0 01.64 2.02l-7 13.5a1.5 1.5 0 01-2.66-1.38l7-13.5a1.5 1.5 0 012.02-.64zm15.05.03c.72.4.97 1.33.56 2.04-1.64 2.87-10.75 16.31-15.06 22.6a1.5 1.5 0 11-2.48-1.69c4.36-6.37 13.38-19.66 14.94-22.4a1.5 1.5 0 012.04-.55zM109.7-15.83a1.5 1.5 0 01.64 2.02l-6 11.5a1.5 1.5 0 01-2.66-1.38l6-11.5a1.5 1.5 0 012.02-.64zm16.17.1c.68.47.84 1.4.37 2.09l-16 23a1.5 1.5 0 11-2.46-1.72l16-23a1.5 1.5 0 012.09-.37zm15.77 5.75a1.5 1.5 0 01-.15 2.12l-11 9.5a1.5 1.5 0 11-1.96-2.28l11-9.5a1.5 1.5 0 012.11.16zm66.84 59.56a1.5 1.5 0 01.95 1.9l-4 12a1.5 1.5 0 11-2.84-.95l4-12a1.5 1.5 0 011.9-.95zm18.86.17c.7.46.88 1.4.42 2.08l-8 12a1.5 1.5 0 11-2.5-1.66l8-12a1.5 1.5 0 012.08-.42zm22.18 4.14c.61.56.66 1.51.1 2.12l-22 24a1.5 1.5 0 01-2.22-2.02l22-24a1.5 1.5 0 012.12-.1zM1081.9 182.3c.66.5.8 1.44.3 2.1l-7.5 10a1.5 1.5 0 01-2.4-1.8l7.5-10a1.5 1.5 0 012.1-.3zm9.84 3.9c.72.4.97 1.33.56 2.04l-10 17.5a1.5 1.5 0 01-2.6-1.49l10-17.5a1.5 1.5 0 012.04-.55zm-414.47 127c.71.43.94 1.35.52 2.06l-4.5 7.5a1.5 1.5 0 11-2.58-1.54l4.5-7.5a1.5 1.5 0 012.06-.52zm13.96-.02c.73.4.98 1.32.58 2.04l-9.5 17a1.5 1.5 0 11-2.62-1.46l9.5-17a1.5 1.5 0 012.04-.58z" fill="#6F4AB3"/></g><defs><clipPath id="a"><path fill="#fff" transform="translate(-136 -341)" d="M0 0h1584v890H0z"/></clipPath></defs></svg>