<svg width="372" height="212" fill="none" xmlns="http://www.w3.org/2000/svg"><g clip-path="url(#a)"><path d="M65.03 110.66c-2 .5-4.29 2.75-4 3.5.58 1.56 2.67 1.33 4 1.5-.67.41-2 1.4-2 1.99 0 .6 2.17 1.91 3.25 2.5-.91.5-2.75 1.7-2.75 2.5 0 .79 2.17 1.32 3.26 1.49-.59.25-1.76 1-1.76 2s2.5 2.24 3.76 2.74c-.92.66-2.7 2.2-2.5 3 .2.8 2.75 1.99 4 2.49-1.08.66-3.3 2.24-3.5 3.24-.2 1 2.58 2.08 4 2.5-.83.5-2.55 1.74-2.75 2.74-.2 1 3.42 2.08 5.26 2.5-1.42.66-4.21 2.2-4.01 3 .2.8 2.92 1.99 4.26 2.49-.92.91-2.76 2.9-2.76 3.5 0 .59 2.84 1.57 4.26 1.99-1.08.58-3.2 1.94-3 2.74.2.8 3.25 2 4.76 2.5-1.34.75-4.01 2.4-4.01 3 0 .59 3.17 1.74 4.76 2.24-1.09.83-3.26 2.64-3.26 3.24 0 .6 3.5 1.91 5.26 2.5-1.25.91-3.7 2.9-3.5 3.49.2.6 2.92 1.75 4.25 2.25-1 .74-2.95 2.44-2.75 3.24.2.8 2.75 1.83 4 2.25-.91.91-2.8 2.89-3 3.49-.2.6 3.42 2.24 5.26 3-1.59.82-4.66 2.74-4.26 3.74.4 1 4.18 2.4 6.01 2.99 65.3-15.64 195.99-47.11 196.39-47.9.4-.8-2.34-1.67-3.76-2 1.17-.67 3.46-2.25 3.26-3.25-.2-1-2.92-1.75-4.26-2 1.17-.41 3.4-1.44 3-2.24-.4-.8-2.83-1.83-4-2.25.92-.83 2.7-2.74 2.5-3.74-.2-1-2.75-1.41-4-1.5.92-.75 2.7-2.5 2.5-3.5-.2-.99-2.59-1.9-3.76-2.24.67-.91 2.06-3 2.26-3.99.2-1-2.09-1.91-3.26-2.24.67-.84 2.06-2.75 2.26-3.75.2-1-2.76-2.4-4.26-3 1-1.07 3-3.48 3-4.48 0-1-2.67-2.25-4-2.75 1-.83 3-2.74 3-3.74s-3.34-2.25-5-2.75c1-1 2.9-3.24 2.5-4.24-.4-1-2.5-1.91-3.51-2.24 1.08-1.17 3.2-3.7 3-4.5-.2-.8-2.42-1-3.5-1 .67-.9 1.9-2.99 1.5-3.99-.4-1-2.84-2.07-4-2.5.91-1.24 2.7-3.93 2.5-4.73-.2-.8-2.59-2.5-3.76-3.25.75-.33 2.26-1.2 2.26-2 0-.79-2.18-1.99-3.26-2.49.83-.25 2.45-1 2.25-2-.2-1-3.59-1.57-5.26-1.74 0 0-117.93 26.94-193.13 45.66z" fill="#6F4AB3"/><path d="M254.83 68L148 92.97 167.42 175 275 149.05 254.83 68z" fill="#fff"/><path fill-rule="evenodd" clip-rule="evenodd" d="M88.01 28.85c-.53.04-1.53.39-3.39 1.63-2.9 1.94-5.6 5.7-6.6 7.34l-.85-.52c1.01-1.68 3.8-5.59 6.9-7.65 1.88-1.26 3.06-1.73 3.87-1.8.42-.02.75.06 1.02.2.2.13.37.3.45.38l.03.03c.28.28.39.7.43 1.08.04.4.02.89-.04 1.41-.11 1.05-.4 2.37-.72 3.76l-.49 2a53.97 53.97 0 00-1.28 6.15c-.5 4.43 0 10.86 1.48 15.79l-.96.28a45.04 45.04 0 01-1.51-16.18c.2-1.76.76-4.1 1.31-6.32l.48-1.95c.32-1.4.59-2.65.7-3.64.05-.5.07-.9.04-1.2-.04-.32-.11-.44-.14-.47l-.06-.06a.87.87 0 00-.22-.18.76.76 0 00-.45-.08z" fill="#000"/><path d="M44.63 23.57l5.24 12.24c-6.99 7-22.23 24.73-22.23 27.98 0 .75 7.94 6.65 13.5 10.24a96.6 96.6 0 0012.48 7c11.74 1.16 36.27 2.59 40.47-1 7.99-3.75.25-16-.75-17.24-.8-1-8.75-8.25-12.74-11.74-1.25-1.75-2.25-12.24-2.25-16.74 0-3.75 2-11.74-1.5-12.24-3.67-.52-9.24 10-10.49 13.74-1.25 3.75-2 11.24-2.75 15.24s-1 15.23-1.25 9.99c-.2-4.24 1.25-16.99 2.5-23.23a567.57 567.57 0 00-14.99-13.24c-2.5-2-5.24-3.5-5.74-3.25-.4.2.17 1.58.5 2.25z" fill="#000"/><path d="M68.36 75.53c-4.8 0-13.49 2.83-17.24 4.24 2.83 1.5 9.74 5.05 14.74 7.25s16.9 3.91 22.23 4.5c3 0 7.08-2.97 7.74-3.5 1.25-1 6.25-3.75 5.25-11.74-.8-6.4-5.5-11.24-8-13.74-5.99.6-12.82 3.58-15.23 5-6.74 3.24-9.5 7.99-9.5 7.99z" fill="#6F4AB3"/><path d="M94.34 75.78a6 6 0 11-12 0 6 6 0 0112 0z" fill="#fff"/><path d="M93.34 75.78a4.5 4.5 0 11-9 0 4.5 4.5 0 019 0zm5.74 26.72L88.1 91.51c2.5-1.25 4.5-2.16 7.25-4 1.5-1 3.5-2.74 4.74-4.24 1.17 2.33 4.05 7.2 5.25 9 1.5 2.24 4.5 6.99 7.99 11.73 3.5 4.75 1 3.75-.5 2.75-1.2-.8-10.32-6.66-14.74-9.5l2.75 5-1.75.25zM24.16 57.17c2.08-1.07 14.3-8.39 18.55-11.2 2.02-1.27 4.66-3.37-.58 1.33-6.55 5.88-16.4 12.19-26.65 14.77-2.66.67-5.32.43-7 .4.16 1.24.43 1.32 1.68 5.25.73 2.31-1.17 1.67-1.68 1.06-.57-.67-1.25-1.92-1.07-2.45l.06-.17c-.03.06-.07.08-.06-.13-.32.8-.25 1.25-1 2.75-.95 1.91-2 1.03-2-.25 0-2 .25-3.24.5-4.74.33-1.96.36-3.34 1.82-3.11 6.17.96 14.84-2.17 17.43-3.5zm9.73-13.87c2.2-.8 11.9-5.5 16.48-7.74 2.17-1 5.05-2.75-.75 1.25-7.24 5-14.48 9-24.97 10.24-2.72.32-5.33-.25-7-.5 0 1.25-.25 3.75-2.25 5.5-2 1.74-2.5.25-2.24-.5.1-.34.5-1 .74-1.5.33-.65.67-1.75.75-2.25-.41.75-1.64 2.65-3.24 3.25-2 .75-1.25-1-.75-1.5s1.22-.97 2.25-2c1.24-1.25 2-3.25 3.24-3 6 1.75 14.99-.25 17.74-1.25z" fill="#000"/><path fill-rule="evenodd" clip-rule="evenodd" d="M289.66 15.54c.52.12 1.45.62 3.1 2.13a24.39 24.39 0 013.79 5.01c1.14 1.9 2.05 3.7 2.4 4.58l.92-.38c-.37-.93-1.3-2.79-2.47-4.71a25.27 25.27 0 00-3.97-5.24c-1.66-1.53-2.76-2.18-3.54-2.36a1.7 1.7 0 00-1.04.04c-.23.08-.41.22-.5.3l-.05.02c-.32.24-.48.62-.58 1-.1.4-.16.87-.18 1.4-.05 1.06.02 2.4.13 3.82l.17 2.06c.2 2.28.4 4.57.32 6.27a44.03 44.03 0 01-3.9 15.37l.9.43a45.02 45.02 0 004-15.75c.08-1.78-.13-4.17-.33-6.46l-.16-2c-.11-1.42-.18-2.7-.14-3.7.03-.5.08-.89.15-1.18.09-.32.18-.42.21-.45l.07-.05.24-.15a.76.76 0 01.46 0z" fill="#000"/><path d="M334.63 15.58c-1.85 5.24-6.5 12.49-6.5 12.49 5.84 7.99 17.24 26.85 16.73 30.06-.11.74-8.86 5.34-14.9 8.03a96.6 96.6 0 01-13.42 4.99c-11.78-.66-36.24-3.04-39.83-7.24-7.32-4.93 2.54-17.28 3.72-18.36.94-.86 9.49-7.24 14.49-8.99 1.5-1.53 4-9.84 4.99-14.24.83-3.65 1.51-11.32 5-10.74 4.5.75 6.07 8.05 6.38 12 .36 4.49-.39 11.23-1.64 16.48-1.25 5.24-4.74 15.38-4.24 15.48.5.1 7.29-17.13 6.74-29.72 4.6-3.07 13.1-9.82 15.24-11.24 3-2 7.58-5.66 8.74-5.26 1.5.51-.64 3.82-1.5 6.26z" fill="#000"/><path d="M298.41 62.54c4.74.74 31.49.02 34.97 2-3.25 1.74-21.98 9.74-29.97 10.74-5.42.67-17.2 2.83-23.01 1-3.68-1.17-6.08-4.11-6.65-4.74-1.08-1.18-5.6-4.67-3.37-12.4 1.78-6.2 6.94-11.5 9.8-13.59 5.83 1.52 8.57 3.55 12.49 7.75 2.9 3.1 5.74 9.24 5.74 9.24z" fill="#6F4AB3"/><path d="M277.12 59.68a6 6 0 1011.85 1.85 6 6 0 00-11.85-1.85z" fill="#fff"/><path d="M279.25 59.82a4.5 4.5 0 108.88 1.38 4.5 4.5 0 00-8.88-1.38zm-10.31 28.2l11.92-11.83c-2.27-1.62-4.1-2.83-6.54-5.07a25.18 25.18 0 01-4.03-4.92c-1.52 2.12-4.89 5.74-6.35 7.33a549.77 549.77 0 01-11.56 11.7c-4.19 4.14-1.56 3.54.07 2.79 1.3-.6 12.44-5.88 17.24-8l-3.75 7.4 3 .6zm80.26-35.49c-2-1.22-13.68-9.37-17.72-12.47-1.93-1.4-4.41-3.69.49 1.37 6.12 6.32 15.52 13.3 25.56 16.59 2.6.85 5.27.8 6.95.88a37.7 37.7 0 001.87 6.14c.83 2.27 1.75.79 1.75 0v-.75c0-.25-.14-.89-.14-1.14.4.64.4.64.9 1.39.87 1.32 2.66.25 1.49-1.5-1.02-1.53-1.46-2.75-1.75-3.25-.57-1-.78-2.68-2.25-2.55-6.23.53-14.65-3.2-17.15-4.71zm-6.33-19.72c-2.32-.27-12.49-1.74-15.23-5.5-2.34-.47-8.16-.04-1.6 2.52 8.2 3.2 16.16 5.43 26.66 4.24a13.1 13.1 0 006.66-2.75 17.5 17.5 0 002.5 5.49c1.34 2 2.4.17 1.98-.5-.19-.3-.48-1-.73-2-.18-.7-.32-1.34-.52-1.8.45 1.05.77 2.3 2.27 3.05 1.5.76 1-1.25.5-1.75s-1-1.36-1.52-2c-1.11-1.37-2.07-3.52-3.23-3-5.5 5-14.83 4.35-17.74 4zM149 143c0 13.8-10.52 25-23.5 25S102 156.8 102 143s10.52-25 23.5-25 23.5 11.2 23.5 25z" fill="#000"/><path fill-rule="evenodd" clip-rule="evenodd" d="M132.06 129.55c.1.39-.15.78-.56.88-2.05.48-12 2.66-14.57 3.15a.76.76 0 01-.9-.57.73.73 0 01.6-.85 685.4 685.4 0 0014.5-3.14c.4-.1.82.14.93.53zm1.87 2.13c.41-.1.83.14.93.53a152.4 152.4 0 002.03 6.97c.81 2.51 3.06 9.59 4.08 12.81a.72.72 0 01-.51.9.77.77 0 01-.96-.48c-1.02-3.22-3.26-10.3-4.07-12.8-.83-2.54-1.71-5.76-2.05-7.05a.72.72 0 01.55-.88zm-18.38 4.6c.41-.11.83.11.95.5l.56 1.84c1.23 4.01 4.04 13.23 5.56 18.46a.72.72 0 01-.54.9.77.77 0 01-.94-.51 1717.42 1717.42 0 00-6.11-20.3.72.72 0 01.53-.9z" fill="#fff"/><path d="M216.9 122.83c-7.31 1.88-33.68 7.51-39.4 8.77-15.88 3.22-15.88-13.78-9.53-16.91 5.75-2.84 13.66-7.2 26.37-10.33a364.37 364.37 0 0147.33-8.15c22.56-2.28 19.7 14.4 6.36 17.23-3.25.68-20.34 6.61-31.14 9.39z" fill="#6F4AB3"/><path fill-rule="evenodd" clip-rule="evenodd" d="M81.52 103.03c.39-.12.8.1.92.5l2.94 9.86c.12.4-.1.82-.49.95a.73.73 0 01-.92-.5l-2.94-9.86c-.12-.4.1-.82.49-.95zm3.7 14.14c.4-.1.8.14.9.54l2.45 9.6c.1.41-.13.82-.52.93-.4.1-.8-.13-.9-.54l-2.45-9.6c-.1-.4.13-.82.52-.93zm3.2 13.65c.38-.1.79.13.89.54l2.45 9.6c.1.4-.13.82-.52.92a.73.73 0 01-.9-.53l-2.45-9.6c-.1-.41.13-.83.52-.93zm3.42 13.39c.4-.1.8.13.9.54l2.45 9.6c.1.4-.13.82-.52.93-.4.1-.8-.14-.9-.54l-2.45-9.6a.77.77 0 01.52-.93zm3.43 13.9c.4-.11.8.13.9.53l2.45 9.6c.1.41-.13.82-.52.93-.4.1-.8-.13-.9-.54l-2.45-9.6c-.1-.4.13-.82.52-.93zm3.68 14.4c.4-.11.8.13.9.54l2.45 9.6c.1.4-.13.82-.52.92a.72.72 0 01-.9-.54l-2.45-9.6c-.1-.4.13-.82.52-.92zm3.68 14.4c.39-.1.8.13.9.54l2.45 9.6c.1.4-.14.82-.53.92a.73.73 0 01-.9-.53l-2.45-9.6a.76.76 0 01.53-.93zM168 122.33l.04.32c.07.4.2.94.37 1.55.34 1.22.8 2.66 1.14 3.61a.5.5 0 11-.95.33 72.7 72.7 0 01-1.15-3.67c-.18-.63-.32-1.2-.4-1.66a3.3 3.3 0 01-.05-.6c0-.1.01-.2.04-.3a.7.7 0 01.31-.38 31.33 31.33 0 013.97-1.44 4.87 4.87 0 01.9-.14c.08 0 .2.02.33.08.13.07.21.17.25.23a5.17 5.17 0 01.37.77c.16.42.33.98.5 1.58.34 1.19.68 2.58.89 3.5a.5.5 0 11-.97.23c-.21-.92-.55-2.3-.88-3.46a20.83 20.83 0 00-.65-1.92c-.13.01-.29.05-.5.1a36.86 36.86 0 00-3.56 1.28zm4.18-1.38zm-.18-.1zm7.77-.96c-.4-.35-.98-.53-1.89-.41-.4.05-.8.4-1.17.96-.31.47-.53 1-.62 1.3l.36 1.59c.53 1.3 1.8 2 2.98 1.67.31-.1.65-.39.9-.95.24-.56.36-1.33.24-2.26-.12-.94-.4-1.55-.8-1.9zm-2.84 5.58c.79.55 1.77.77 2.78.49.68-.2 1.22-.78 1.53-1.52.33-.74.46-1.7.32-2.77a3.9 3.9 0 00-1.13-2.53c-.67-.6-1.58-.79-2.67-.65-.86.1-1.49.79-1.89 1.4l-.14.23-.17-.75a.5.5 0 00-.98.22l.5 2.24.01.02.4 1.73v.02l1.34 5.98a.5.5 0 10.98-.22l-.88-3.89zm22.86-10.67a1 1 0 00.05.25 55.6 55.6 0 01.66 2.76c.07.44.13.93.03 1.3a4.62 4.62 0 01-1.13 2.22.5.5 0 11-.7-.7c.4-.41.67-.98.87-1.77.03-.14.02-.43-.06-.88-.07-.43-.2-.92-.32-1.4l-.09-.34-.24-.98a4.18 4.18 0 01-.09-.75.63.63 0 01.36-.51l.17-.08c.12-.06.26-.11.42-.17a18.82 18.82 0 013.08-.76c.2 0 .35.1.42.17a2.85 2.85 0 01.52.81 29.2 29.2 0 011.55 5.18.5.5 0 01-.99.16 28.3 28.3 0 00-1.47-4.93 3.52 3.52 0 00-.2-.38l-.45.1a21.95 21.95 0 00-2.4.7zm-3.31-.33a.5.5 0 01-.16.69c-.39.24-.83.76-1.3 1.5-.36.6-.73 1.3-1.06 2.02.86.42 2.25 1.25 3.45 2.45a.5.5 0 11-.71.7 12.51 12.51 0 00-3.14-2.23c-.37.9-.69 1.77-.9 2.42l.12.55a.5.5 0 11-.95.32 6.61 6.61 0 01-.17-.83c-.25-1.48-.65-4.6-.85-6.27a.5.5 0 011-.12c.13 1.1.34 2.8.54 4.26a22.6 22.6 0 011.83-3.8 5.72 5.72 0 011.6-1.82.5.5 0 01.7.16zm-11.66 10.21a.56.56 0 01-.48 0 .73.73 0 01-.27-.26 6.17 6.17 0 01-.36-.87c-.16-.5-.33-1.14-.5-1.84-.34-1.4-.68-3.05-.89-4.13a.5.5 0 11.99-.2c.2 1.09.54 2.72.87 4.1.16.65.32 1.25.45 1.7l.12-.28a69.76 69.76 0 001.04-2.98l.9-2.58c.15-.39.29-.72.4-.97l.2-.34.15-.16a.58.58 0 01.37-.14c.24 0 .4.15.46.22.08.08.14.18.19.26.1.18.18.41.27.67.17.5.35 1.19.5 1.9.32 1.4.58 3.01.58 3.7a.5.5 0 01-1 0c0-.56-.24-2.08-.55-3.48a17.2 17.2 0 00-.46-1.75l-.17.44c-.26.7-.57 1.62-.89 2.56l-.08.23a71.26 71.26 0 01-.98 2.79c-.15.37-.29.7-.42.93-.06.1-.13.23-.22.32a.69.69 0 01-.22.16zm.08-.81zm29.65-10.27c-.43-1.73-2.15-2.62-3.6-2.14a2.78 2.78 0 00-1.68 3.37c.67 1.76 2.41 2.6 3.88 2.17.71-.2 1.14-.61 1.37-1.16.23-.57.26-1.33.03-2.23zm-6.32 1.18a3.76 3.76 0 012.4-4.27 3.86 3.86 0 014.9 2.85 4.62 4.62 0 01-.09 2.86 2.96 2.96 0 01-2.01 1.74 4.24 4.24 0 01-4.85-2.23h-.05l-.05.02-.16.04a9.14 9.14 0 00-1 .47 29.76 29.76 0 00.53 1.94l.1.25a.5.5 0 11-.82.56 2.3 2.3 0 01-.22-.47c-.07-.18-.13-.4-.2-.64-.14-.49-.29-1.09-.43-1.72a97.28 97.28 0 01-.73-3.6.5.5 0 01.99-.18c.13.74.34 1.8.56 2.84a10.33 10.33 0 01.9-.4c.07-.02.15-.05.23-.06zm12.78-4.36l.08.46c.04.38.03.71-.04.97-.17.6-.75.97-1.5 1.08a3 3 0 01-1.04-.03 1.3 1.3 0 01-.62-.27c-.06-.06-.16-.2-.28-.4a7.9 7.9 0 01-.83-2.32.5.5 0 10-.99.16 8.94 8.94 0 00.95 2.64c.13.24.28.47.44.63.28.28.7.45 1.12.54.43.1.92.1 1.4.04a2.85 2.85 0 002.08-1.25l.13.43a34.86 34.86 0 01.63 2.21v.05a.5.5 0 00.84.48c.1-.1.14-.22.15-.28a.72.72 0 00.02-.16l-.02-.25a35.35 35.35 0 00-.66-2.36c-.28-.85-.6-1.8-.9-2.64a8.05 8.05 0 00-.53-1.54l-.07-.1a.5.5 0 00-.88.3v.11l.02.1.05.14.03-.01-.03.01.45 1.26zm9.24-.37a.8.8 0 01.02.19c0 .18-.09.3-.12.34a.66.66 0 01-.13.11 5.28 5.28 0 01-.63.28c-.35.12-.83.27-1.35.42-1.04.3-2.28.62-3.11.83a2.93 2.93 0 002.97 1.53c.82-.2 1.43-.81 1.64-1.63a.5.5 0 01.97.24 3.21 3.21 0 01-2.36 2.36c-.63.16-1.5.07-2.3-.31a4 4 0 01-2.04-2.25c-.37-1-.31-2 .16-2.85a3.91 3.91 0 012.42-1.8c1.37-.4 2.37.24 2.98.94a4.6 4.6 0 01.88 1.6zm-5.65 1.22c-.09-.54 0-1.05.24-1.48.32-.58.93-1.06 1.82-1.32.88-.25 1.5.12 1.96.64a3.55 3.55 0 01.55.88l-.1.04-1.3.4a108.52 108.52 0 01-3.17.84zm4.68-.98zm1.92-4.29a.5.5 0 01.57.41c.16 1 .44 2.51.72 3.83a29.02 29.02 0 00.58 2.25l.06.15.01.01a.5.5 0 01-.72.69.95.95 0 01-.17-.24 7.5 7.5 0 01-.32-.88 35.1 35.1 0 01-.42-1.78 95.83 95.83 0 01-.73-3.86.5.5 0 01.41-.58zm1.95 6.66z" fill="#fff"/><path fill-rule="evenodd" clip-rule="evenodd" d="M237 108.37a.5.5 0 01-.36.6c-.36.1-1.21.43-2.14.8l-.7.3-1.6.64a.5.5 0 01-.35-.94c.33-.12.9-.35 1.54-.62l.74-.3c.89-.36 1.83-.73 2.27-.84a.5.5 0 01.6.36z" fill="#fff"/><path fill-rule="evenodd" clip-rule="evenodd" d="M235.63 104.51a.5.5 0 01.62.35 317.2 317.2 0 011.56 5.83 20.45 20.45 0 01.2 1.05.5.5 0 11-1 0v-.01c0-.03 0-.09-.03-.2l-.14-.6a307.78 307.78 0 00-1.55-5.8.5.5 0 01.34-.62zm7.67.44l.02.03c.2.51.43 1.23.65 2a51.55 51.55 0 01.8 3.26.5.5 0 001 0c0-.12-.05-.32-.08-.52l-.19-.82a52.6 52.6 0 00-.57-2.2c-.22-.77-.46-1.53-.68-2.09-.1-.27-.22-.52-.34-.7a1.1 1.1 0 00-.23-.28.6.6 0 00-.85.08l-.1.15-.18.34c-.12.25-.26.58-.4.96l-.66 1.78-.32.88a35.9 35.9 0 01-.96 2.43l-.04-.15c-.1-.49-.23-1.12-.34-1.8a97.53 97.53 0 01-.57-3.87.5.5 0 10-.99.13c.13 1 .34 2.54.57 3.91a35.19 35.19 0 00.54 2.54c.06.18.13.37.22.5a.59.59 0 00.7.24.86.86 0 00.37-.29c.15-.19.3-.48.45-.8.3-.64.65-1.56.99-2.5l.32-.89a96.1 96.1 0 01.88-2.32zm4.64-2.55c.98-.33 2.03-.4 2.32-.4a.6.6 0 01.44.2c.07.07.12.16.16.23.08.14.14.33.2.52.13.4.25.93.37 1.51.23 1.16.45 2.55.57 3.47a.5.5 0 11-.99.13 63.6 63.6 0 00-.38-2.47l-.33.12a7.67 7.67 0 00-1.75 1.23c-.2.2-.29.36-.3.43-.18.71-.15 1.5 0 1.99a.5.5 0 01-.97.27 5.14 5.14 0 010-2.5c.08-.33.3-.64.54-.88l.05-.05c-.35 0-.7-.06-1.01-.2a1.45 1.45 0 01-.84-1.19c-.09-.67.15-1.2.55-1.6.37-.39.89-.64 1.37-.8zm2.5 2.18a7.14 7.14 0 01-2.26.62c-.4.02-.7-.02-.9-.1-.15-.08-.24-.19-.27-.41a.89.89 0 01.27-.79c.22-.22.57-.4.99-.55a7.24 7.24 0 011.76-.34l.08.24c.1.33.21.8.32 1.33z" fill="#fff"/><path fill-rule="evenodd" clip-rule="evenodd" d="M176 141.42c.48.36.75.88.85 1.3a.5.5 0 11-.97.24 1.4 1.4 0 00-.48-.75c-.23-.17-.59-.3-1.15-.14-.72.2-1.02.59-1.16 1.02-.14.47-.1 1.05.02 1.65.1.53.27 1.11.6 1.53.3.38.77.66 1.6.57.3-.03.49-.12.62-.22a1 1 0 00.28-.4c.15-.38.16-.86.16-1.38a.5.5 0 111 0v.04c0 .47 0 1.13-.23 1.7a1.92 1.92 0 01-1.72 1.25c-1.17.13-1.97-.29-2.49-.94a4.54 4.54 0 01-.8-1.95 4.42 4.42 0 01.01-2.16c.24-.76.81-1.38 1.84-1.67a2.22 2.22 0 012.03.3zm81.38-15.24a.6.6 0 01-.52.31.68.68 0 01-.44-.18 1.68 1.68 0 01-.22-.24 4.78 4.78 0 01-.41-.64c-.27-.44-.57-1-.87-1.56l-.12-.23-.76-1.37a67.66 67.66 0 00.81 4.87.5.5 0 01-.97.2c-.21-1-.5-2.52-.7-3.82a24.1 24.1 0 01-.17-1.72c-.01-.23-.01-.45.01-.62.01-.09.03-.19.07-.29a.65.65 0 01.3-.34.62.62 0 01.58.03c.11.06.2.15.28.22.14.16.29.37.44.6.3.48.65 1.13.99 1.77l.12.22c.3.57.6 1.11.84 1.53l.05.08.01-.1c.1-.6.2-1.4.3-2.21v-.01c.08-.8.18-1.63.28-2.25.05-.3.11-.59.18-.8.03-.1.07-.22.14-.32a.6.6 0 01.51-.31c.25 0 .4.16.45.22.07.07.13.16.17.24.09.16.17.37.26.6.18.48.37 1.13.56 1.84.4 1.41.8 3.1 1.05 4.23a.5.5 0 11-.98.22 94.7 94.7 0 00-1.4-5.45c-.08.55-.16 1.22-.24 1.9v.02c-.1.8-.19 1.62-.29 2.24-.05.31-.1.6-.17.8-.04.1-.08.22-.14.32zm-.3-.62zm-13.7 4.62a.6.6 0 01-.52.31.68.68 0 01-.44-.18 1.68 1.68 0 01-.22-.24 4.78 4.78 0 01-.41-.64c-.27-.44-.57-1-.87-1.56l-.12-.23-.76-1.37a67.66 67.66 0 00.81 4.87.5.5 0 01-.97.2c-.21-1-.5-2.52-.7-3.82a24.1 24.1 0 01-.17-1.72c-.01-.23-.01-.45.01-.62.01-.09.03-.19.07-.29a.65.65 0 01.3-.34.62.62 0 01.58.03c.11.06.2.15.28.22.14.16.29.37.44.6.3.48.65 1.13.99 1.77l.12.22c.3.57.6 1.11.84 1.53l.05.08c0-.03 0-.07.02-.1.1-.6.19-1.4.28-2.21v-.01c.1-.8.19-1.63.3-2.25a4.62 4.62 0 01.3-1.12c.05-.07.2-.31.52-.31.25 0 .4.16.45.22.07.07.13.16.17.24.09.16.18.37.26.6.17.48.37 1.13.56 1.84.4 1.41.8 3.1 1.05 4.23a.5.5 0 11-.98.22 94.7 94.7 0 00-1.4-5.45c-.08.55-.16 1.22-.24 1.9v.02c-.1.8-.19 1.62-.29 2.24-.05.31-.1.6-.17.8-.04.1-.08.22-.14.32zm-.3-.62zm3.95-4.38c.27-1.86 1.38-3.18 2.75-3.18 1.23 0 2.01.72 2.42 1.6a5 5 0 01.32 2.73c-.15.86-.53 1.44-1.08 1.78-.52.32-1.14.38-1.66.38a2.88 2.88 0 01-2.75-3.31zm2.75-2.18c-.64 0-1.52.68-1.76 2.32-.1.7.15 1.24.52 1.6.38.39.88.58 1.24.58.47 0 .85-.07 1.14-.24.26-.16.5-.46.61-1.1a3.9 3.9 0 00-.24-2.14c-.28-.61-.75-1.02-1.51-1.02zm-25.74 7.46l.01.03c.2.51.44 1.24.65 2a51.13 51.13 0 01.8 3.27.5.5 0 001 0 25.52 25.52 0 00-.26-1.34 49.84 49.84 0 00-1.26-4.3 4.2 4.2 0 00-.33-.7c-.06-.09-.13-.2-.24-.28a.6.6 0 00-.84.09l-.11.14-.18.34c-.12.25-.25.58-.4.96l-.66 1.79-.32.87c-.34.94-.68 1.83-.96 2.43l-.03-.15c-.12-.49-.23-1.11-.35-1.79a99.23 99.23 0 01-.56-3.87.5.5 0 10-1 .12c.13 1 .34 2.55.57 3.92a35.04 35.04 0 00.54 2.53c.06.18.13.37.22.5a.59.59 0 00.7.24.86.86 0 00.37-.28c.15-.2.3-.48.45-.8a36.2 36.2 0 001.32-3.4 95.82 95.82 0 01.87-2.32zM205.78 133a.5.5 0 01.7.1c.23.29.45.8.64 1.34.14.4.28.85.4 1.3l.85-1.21a16 16 0 011.38-1.76.5.5 0 11.7.7 15.5 15.5 0 00-1.56 2.06l.05.04a21.31 21.31 0 012.96 3.08.5.5 0 01-.8.61 20.32 20.32 0 00-2.78-2.9l-.41.61a.52.52 0 01-.07.08c.08.4.15.77.19 1.1a4.9 4.9 0 010 1.04.93.93 0 01-.13.33.5.5 0 01-.85-.53l.02-.15c0-.14 0-.34-.04-.58a18.78 18.78 0 00-.85-3.49 4.7 4.7 0 00-.49-1.06.5.5 0 01.1-.7zm20-5a.5.5 0 01.7.1c.23.29.45.8.64 1.34.14.4.28.85.4 1.3l.85-1.21a16 16 0 011.38-1.76.5.5 0 11.7.7 15.5 15.5 0 00-1.56 2.06l.05.04a21.31 21.31 0 012.96 3.08.5.5 0 01-.8.61 20.32 20.32 0 00-2.78-2.9l-.41.61a.52.52 0 01-.07.08c.08.4.15.77.19 1.1a4.9 4.9 0 010 1.04.93.93 0 01-.13.33.5.5 0 01-.85-.53l.02-.15c0-.14 0-.34-.04-.58a18.78 18.78 0 00-.85-3.49 4.7 4.7 0 00-.49-1.06.5.5 0 01.1-.7z" fill="#6F4AB3"/><path d="M237.22 126.46c0 .47.1 1.22.31 2.24.27 1.3.43 2.16.47 2.56.13.9.12 1.61-.02 2.14a1.97 1.97 0 01-1.15 1.4c-1.45.66-2.68.63-3.68-.09a2.9 2.9 0 01-.68-.6.61.61 0 01-.05-.69c.16-.29.37-.36.64-.2l.37.29c.2.17.32.28.4.33a2.42 2.42 0 002.56.06c.49-.29.69-.77.61-1.46-.13-1.22-.2-1.8-.2-1.7-.45.06-1 .28-1.66.67-.82.48-1.4.79-1.72.9-.1.05-.22.03-.34-.07-.13-.09-.2-.24-.2-.43 0-.56-.24-1.66-.73-3.3-.1-.31-.14-.5-.15-.56a.77.77 0 01.2-.56c.12-.13.3-.16.53-.08.22.06.37.18.42.33.45 1.24.73 2.3.84 3.2.26-.12 1.12-.59 2.58-1.39a6.82 6.82 0 01-.47-2.85c.03-.45.22-.65.58-.6.14.03.26.08.38.18.1.09.16.18.16.28z" fill="#6F4AB3"/><path fill-rule="evenodd" clip-rule="evenodd" d="M194.7 136.94c-.4-.34-.98-.52-1.9-.4-.39.04-.8.4-1.16.95-.31.48-.53 1-.62 1.3l.36 1.6c.53 1.29 1.8 2 2.98 1.66.3-.09.65-.38.9-.95.24-.55.36-1.33.24-2.25-.12-.94-.4-1.55-.8-1.9zm-2.84 5.59c.79.54 1.77.77 2.77.48.7-.2 1.22-.77 1.54-1.51.32-.75.45-1.7.32-2.78a3.9 3.9 0 00-1.13-2.53c-.68-.59-1.59-.78-2.68-.65-.85.1-1.48.8-1.88 1.4l-.14.24-.17-.75a.5.5 0 00-.98.22l.5 2.23.01.02.39 1.73v.02l1.35 5.99a.5.5 0 00.98-.22l-.88-3.9zm-8.86-3.15l.04.32c.07.4.2.94.37 1.55.34 1.22.8 2.66 1.14 3.6a.5.5 0 11-.95.34 76.7 76.7 0 01-1.15-3.68c-.18-.62-.32-1.2-.4-1.65a3.29 3.29 0 01-.05-.61c0-.09.01-.2.04-.3.04-.1.12-.27.31-.37a31.76 31.76 0 013.97-1.44 4.87 4.87 0 01.9-.14c.08 0 .2.02.33.08.13.07.21.17.25.23.06.06.1.14.14.22.08.15.16.34.24.55.15.42.32.98.5 1.57.33 1.2.67 2.6.88 3.51a.5.5 0 11-.97.22c-.21-.9-.55-2.28-.88-3.46a20.62 20.62 0 00-.65-1.91c-.13.01-.29.04-.5.1a36.86 36.86 0 00-3.56 1.28zm4.18-1.38zm-.18-.1z" fill="#6F4AB3"/><path d="M217.84 130.56c.04.3-.01.5-.15.6-.1.07-.3.12-.61.17-.4.07-.81.16-1.21.27-.02.84.06 1.67.26 2.51.13.58.38 1.43.73 2.52l.3.55c.11.22.14.4.07.57a.77.77 0 01-.23.3c-.12.11-.24.15-.36.13-.32-.08-.6-.38-.81-.91-.05-.12-.2-.63-.43-1.52a42.1 42.1 0 01-.44-2.16 7.81 7.81 0 00-.45-1.64 6.8 6.8 0 00-2.18.8.66.66 0 01-.62.17.62.62 0 01-.47-.41.56.56 0 01.1-.59c.13-.16.3-.28.52-.35.38-.14.91-.3 1.58-.46l1.62-.4c.17-.04.44-.12.8-.24l.82-.24c.72-.2 1.1-.08 1.16.33zm-12.14 7.84c.24.35.31.65.2.88-.1.25-.3.38-.59.36a.73.73 0 01-.62-.36l-.25-.44c-.1-.2-.19-.34-.25-.44a3.77 3.77 0 00-.65-.78l-1.38.47c-.6.19-1.07.34-1.38.46a6.93 6.93 0 00-2.47 1.45c-.02.05-.09.45-.2 1.2-.05.42-.21.69-.48.8-.44.15-.69-.04-.74-.59-.03-.41.05-.93.24-1.56a44.78 44.78 0 011.9-5.1c.07-.16.15-.35.22-.6.08-.2.14-.35.19-.44.15-.27.44-.5.89-.7.3-.12.6-.07.92.15.17.12.4.36.71.74a11.84 11.84 0 00.47.58 42 42 0 012.55 3.09l.36.4c.16.17.27.31.35.42zm-2.89-1.56a80.91 80.91 0 00-1.25-1.42c-.38-.4-.74-.68-1.06-.85A11.64 11.64 0 00199 138c2.2-.68 3.5-1.1 3.81-1.16z" fill="#6F4AB3"/></g><defs><clipPath id="a"><path fill="#fff" d="M0 0h372v212H0z"/></clipPath></defs></svg>